<svg xmlns="http://www.w3.org/2000/svg" xmlns:xlink="http://www.w3.org/1999/xlink" width="125.445" height="101.895" viewBox="0 0 125.445 101.895">
  <defs>
    <clipPath id="clip-path">
      <rect id="Rectángulo_457691" data-name="Rectángulo 457691" width="125.445" height="101.895" fill="none"/>
    </clipPath>
  </defs>
  <g id="Grupo_1207596" data-name="Grupo 1207596" transform="translate(-487.777 -1818.999)">
    <g id="Grupo_1207069" data-name="Grupo 1207069" transform="translate(217.239 -4288.768)">
      <g id="Grupo_1207451" data-name="Grupo 1207451" transform="translate(270.538 6107.767)">
        <g id="Grupo_1207450" data-name="Grupo 1207450" clip-path="url(#clip-path)">
          <path id="Trazado_1356524" data-name="Trazado 1356524" d="M58.955,80.651A13.371,13.371,0,0,0,51,69.533c-4.823-2.042-10.433-.636-15.438-.06a4.941,4.941,0,0,0-4.362,3.264c.644,1.3,1.812,1.857,3.488,2.115,2.526.389,5.091.372,7.619.778A10.848,10.848,0,0,1,47.516,77.8c.109.051.277.131.4.2.094.054.453.31.5.33.182.165.359.335.528.513.082.087.31.407.358.466.131.214.256.429.378.649a.435.435,0,0,0,.064.1c.009.045.02.1.037.167.011.048.032.147.057.259.038.058.076.116.113.174v0c1.059,1.629,2.029,3.368,3.594,4.436a4.078,4.078,0,0,0,.907.06c2.2-.1,4.808-2,4.5-4.5" transform="translate(-17.932 -39.355)" fill="#d7d7d7"/>
          <path id="Trazado_1356525" data-name="Trazado 1356525" d="M53.454,17.206c-.811-.244-1.394-.006-1.436,1.1a10.585,10.585,0,0,1,2.2,2.14,4.155,4.155,0,0,1,.679.82,5.131,5.131,0,0,1-5.73,8.437c-.424-.215-5.6-1.759-4.318.028a8.061,8.061,0,0,0,14-7.862c-.42-.943-3.523-4.1-5.4-4.662" transform="translate(-25.666 -9.841)" fill="#d7d7d7"/>
          <path id="Trazado_1356526" data-name="Trazado 1356526" d="M233.481,80.651a13.371,13.371,0,0,0-7.96-11.118c-4.823-2.042-10.433-.636-15.437-.06a4.941,4.941,0,0,0-4.363,3.264c.644,1.3,1.813,1.857,3.489,2.115,2.526.389,5.091.372,7.619.778a10.848,10.848,0,0,1,5.213,2.173c.109.051.277.131.4.2.094.054.453.31.5.33.182.165.359.335.528.513.082.087.31.407.358.466.131.214.256.429.378.649a.435.435,0,0,0,.064.1c.009.045.021.1.037.167.011.048.033.147.057.259.038.058.076.116.113.174v0c1.059,1.629,2.029,3.368,3.594,4.436a4.079,4.079,0,0,0,.907.06c2.2-.1,4.808-2,4.5-4.5" transform="translate(-118.255 -39.355)" fill="#d7d7d7"/>
          <path id="Trazado_1356527" data-name="Trazado 1356527" d="M227.98,17.206c-.811-.244-1.394-.006-1.436,1.1a10.584,10.584,0,0,1,2.2,2.14,4.153,4.153,0,0,1,.679.82A5.131,5.131,0,0,1,223.7,29.7c-.424-.215-5.6-1.759-4.318.028a8.061,8.061,0,0,0,14-7.862c-.421-.943-3.523-4.1-5.4-4.662" transform="translate(-125.989 -9.841)" fill="#d7d7d7"/>
          <path id="Trazado_1356528" data-name="Trazado 1356528" d="M137.337,5.859a2.392,2.392,0,0,1-.648.776c.01.031.018.057.023.068.137.318.267.634.42.946.435.888.937,1.74,1.424,2.6a18.542,18.542,0,0,1,1.863,3.076c1.369,2.9.962,5.86-1.226,7.709a4.64,4.64,0,0,1-1.612,1.527c-.072.042-.145.08-.218.116a6.082,6.082,0,0,1-4.587.8,8.375,8.375,0,0,1-3.187-1.44c-1.25-.361-2.626-1.053-3.954-.895a8.476,8.476,0,0,0-.452.994,14.04,14.04,0,0,0,7.58,5.074,19.506,19.506,0,0,0,2.151.013c4.893.358,9.523-3.7,10.318-8.436.945-5.633-2.773-10.894-7.892-12.93" transform="translate(-71.958 -3.368)" fill="#d7d7d7"/>
          <path id="Trazado_1356529" data-name="Trazado 1356529" d="M153.163,103.411a32.866,32.866,0,0,0-1.439-5.761c-1.2-3.959-2.486-8.162-4.02-12.111-1.338-3.444-2.746-7.482-6.471-8.982a31.551,31.551,0,0,0-11.277-1.794,67.824,67.824,0,0,0-7.695.021c-1.053.1-2.694.14-3.467.99-3.379,3.713,4.238,4.888,6.135,5.176,4.332.658,8.725.721,13.07,1.264a3.994,3.994,0,0,1,3.4,2.608c.065.131.174.4.224.517.243.662.458,1.335.65,2.014.884,3.125,1.79,6.244,2.749,9.346.906,2.928,1.518,6.391,2.908,9.116.235.461.2.487.6.477a6.04,6.04,0,0,0,2.931-1.122,5.562,5.562,0,0,0,1.7-1.758" transform="translate(-67.796 -42.915)" fill="#d7d7d7"/>
          <path id="Trazado_1356530" data-name="Trazado 1356530" d="M237.3,65.128c-3.67,4.4-7.237,8.885-10.829,13.347-.287.357-1.109,2.219-.247,1.153,3.511-4.343,6.971-8.729,10.547-13.019a2.959,2.959,0,0,0,.794-1.321c.014-.267.065-.554-.264-.159" transform="translate(-129.82 -37.326)"/>
          <path id="Trazado_1356531" data-name="Trazado 1356531" d="M245.544,76.13c-5.365,6.437-10.434,13.119-15.688,19.645-.287.357-1.108,2.219-.247,1.153,5.173-6.407,10.136-12.989,15.406-19.317a2.965,2.965,0,0,0,.794-1.321c.014-.267.065-.554-.264-.159" transform="translate(-131.767 -43.651)"/>
          <path id="Trazado_1356532" data-name="Trazado 1356532" d="M226.72,63.011c-3.67,4.4-7.237,8.885-10.83,13.348-.287.357-1.109,2.219-.247,1.153,3.511-4.343,6.971-8.729,10.547-13.019a2.958,2.958,0,0,0,.794-1.321c.014-.267.065-.554-.264-.159" transform="translate(-123.738 -36.109)"/>
          <path id="Trazado_1356533" data-name="Trazado 1356533" d="M237.562,16.231c-2.716,3.245-5.473,6.455-8.13,9.749-.288.356-1.111,2.217-.247,1.152,2.576-3.174,5.227-6.284,7.848-9.42a2.959,2.959,0,0,0,.794-1.321c.014-.268.065-.553-.264-.159" transform="translate(-131.522 -9.219)"/>
          <path id="Trazado_1356534" data-name="Trazado 1356534" d="M243.064,23.426c-2.716,3.244-5.473,6.455-8.13,9.749-.287.356-1.111,2.217-.247,1.152,2.576-3.174,5.227-6.284,7.848-9.42a2.958,2.958,0,0,0,.794-1.322c.014-.267.065-.552-.264-.159" transform="translate(-134.685 -13.355)"/>
          <path id="Trazado_1356535" data-name="Trazado 1356535" d="M232.261,12.422c-1.939,2.316-3.9,4.613-5.792,6.966-.287.356-1.111,2.218-.247,1.153,1.811-2.235,3.665-4.431,5.509-6.639a2.959,2.959,0,0,0,.794-1.321c.014-.268.065-.553-.264-.159" transform="translate(-129.819 -7.029)"/>
          <path id="Trazado_1356536" data-name="Trazado 1356536" d="M241.784,69.36q-7.432,8.9-14.712,17.931c-.288.357-1.109,2.218-.247,1.153q7.157-8.847,14.429-17.6a2.961,2.961,0,0,0,.794-1.321c.014-.267.065-.553-.264-.159" transform="translate(-130.166 -39.759)"/>
          <path id="Trazado_1356537" data-name="Trazado 1356537" d="M62.092,65.974c-3.67,4.4-7.237,8.885-10.829,13.347-.287.357-1.109,2.219-.247,1.153,3.511-4.343,6.971-8.729,10.547-13.019a2.959,2.959,0,0,0,.794-1.321c.014-.267.065-.554-.264-.159" transform="translate(-29.105 -37.812)"/>
          <path id="Trazado_1356538" data-name="Trazado 1356538" d="M70.336,76.976C64.971,83.413,59.9,90.095,54.648,96.621c-.287.357-1.108,2.219-.247,1.153,5.173-6.407,10.136-12.989,15.406-19.317a2.965,2.965,0,0,0,.794-1.321c.014-.267.065-.554-.264-.159" transform="translate(-31.051 -44.137)"/>
          <path id="Trazado_1356539" data-name="Trazado 1356539" d="M51.511,63.858c-3.67,4.4-7.237,8.885-10.829,13.347-.287.357-1.109,2.219-.247,1.153,3.511-4.343,6.971-8.729,10.547-13.019a2.959,2.959,0,0,0,.794-1.321c.014-.267.065-.554-.264-.159" transform="translate(-23.023 -36.596)"/>
          <path id="Trazado_1356540" data-name="Trazado 1356540" d="M62.354,17.078c-2.716,3.245-5.473,6.455-8.13,9.749-.287.356-1.111,2.217-.247,1.152,2.576-3.174,5.227-6.284,7.848-9.42a2.958,2.958,0,0,0,.794-1.322c.014-.267.065-.552-.264-.159" transform="translate(-30.807 -9.705)"/>
          <path id="Trazado_1356541" data-name="Trazado 1356541" d="M67.856,24.272c-2.716,3.245-5.473,6.455-8.13,9.749-.288.356-1.111,2.217-.247,1.153C62.054,32,64.7,28.889,67.326,25.752a2.958,2.958,0,0,0,.794-1.321c.014-.268.065-.553-.264-.159" transform="translate(-33.969 -13.841)"/>
          <path id="Trazado_1356542" data-name="Trazado 1356542" d="M57.053,13.269c-1.939,2.316-3.9,4.613-5.792,6.966-.287.356-1.111,2.218-.247,1.153,1.811-2.235,3.665-4.431,5.509-6.639a2.958,2.958,0,0,0,.794-1.321c.014-.268.065-.553-.264-.159" transform="translate(-29.104 -7.516)"/>
          <path id="Trazado_1356543" data-name="Trazado 1356543" d="M66.576,70.206q-7.432,8.9-14.712,17.931c-.288.357-1.109,2.218-.247,1.153q7.157-8.847,14.429-17.6a2.961,2.961,0,0,0,.794-1.321c.014-.267.065-.553-.264-.159" transform="translate(-29.451 -40.245)"/>
          <path id="Trazado_1356544" data-name="Trazado 1356544" d="M140.6,13.33a11.688,11.688,0,0,1-8,11.029,11.936,11.936,0,0,1-13.812-17.5A11.7,11.7,0,0,1,131.5,1.685a12.127,12.127,0,0,1,9.1,11.645c.015.9,1.427.337,1.414-.407A13.1,13.1,0,0,0,133.151.655a13.423,13.423,0,0,0-14.585,4.42,13.232,13.232,0,0,0-1,14.958,13.12,13.12,0,0,0,13.876,5.934,13.536,13.536,0,0,0,10.577-13.044c.016-.894-1.4-.334-1.414.407" transform="translate(-66.515 0)"/>
          <path id="Trazado_1356545" data-name="Trazado 1356545" d="M138.2,96.379a17.5,17.5,0,0,0-.977-3.471l-4-12.136c-1.311-3.976-2.816-7.556-6.662-9.79-4.007-2.328-8.78-1.743-13.236-1.618-3.816-.108-7.972-.617-11.579.79-4.466,1.742-6.67,5.472-8.09,9.778L89.614,92.167c-.369,1.117-.82,2.243-1.08,3.393a7.166,7.166,0,0,0,3.2,7.615,41.214,41.214,0,0,0,10.074,4.175c.747.224,1.5.429,2.263.621a2.453,2.453,0,0,1,.58-1.153A50.6,50.6,0,0,1,94.5,103.088c-3.152-1.542-5.292-4.139-4.219-7.821.248-.851.557-1.689.835-2.531L94.8,81.582c1.254-3.8,2.482-7.454,6.244-9.576,3.435-1.938,7.634-1.519,11.5-1.361a.968.968,0,0,0,.295.039c.152,0,.305-.008.459-.013s.3.01.454.013a.969.969,0,0,0,.3-.042c2.951-.134,6.159-.459,8.955.307a11.4,11.4,0,0,1,7.244,6.2,28.307,28.307,0,0,1,1.046,2.944l3.619,10.971c1.09,3.3,2.928,7.042.136,10.1a13.223,13.223,0,0,1-4.223,2.565,52.787,52.787,0,0,1-5.264,2.161q-1.2.417-2.423.77a2.656,2.656,0,0,1,.554,1.3,49.212,49.212,0,0,0,10.464-4.367,7.327,7.327,0,0,0,4.037-7.2" transform="translate(-50.793 -39.77)"/>
          <path id="Trazado_1356546" data-name="Trazado 1356546" d="M229.569,21.672a9.011,9.011,0,0,1-9.389,8.925,9.411,9.411,0,0,1-8.821-9.332,8.988,8.988,0,0,1,9.389-8.925,9.443,9.443,0,0,1,8.821,9.332c.02.9,1.431.337,1.414-.407a10.43,10.43,0,0,0-7.056-9.754,10.751,10.751,0,0,0-11.609,3.471,10.358,10.358,0,0,0,10.305,16.711,10.868,10.868,0,0,0,8.36-10.428c.02-.893-1.4-.333-1.414.407" transform="translate(-120.695 -6.316)"/>
          <path id="Trazado_1356547" data-name="Trazado 1356547" d="M222.882,135.927c.1-.186.209-.368.318-.549-.53.048-1.061.08-1.594.089a.854.854,0,0,0-.475-.106,30.162,30.162,0,0,1-10.284-1.571.805.805,0,0,0-.553.79,1.256,1.256,0,0,0,.051.4l.337.1a32.964,32.964,0,0,0,9.41,1.6.949.949,0,0,0,.362.082c.695.026,1.392.016,2.091-.021a4.864,4.864,0,0,1,.338-.818" transform="translate(-120.883 -76.907)"/>
          <path id="Trazado_1356548" data-name="Trazado 1356548" d="M232.669,85.532a12.611,12.611,0,0,0-.812-3.073q-1.638-4.967-3.277-9.934c-1.069-3.242-2.268-6.193-5.369-8.067-3.372-2.039-7.367-1.558-11.14-1.456-3.1-.089-6.473-.5-9.41.611-3.784,1.428-5.662,4.538-6.86,8.172l-.042.127a1.457,1.457,0,0,0,.335,1.2c.274.238.7.068,1-.131,1-3.028,2.017-5.919,5.023-7.613,2.763-1.557,6.177-1.216,9.3-1.084a.984.984,0,0,0,.273.034l.376-.011.372.011a.967.967,0,0,0,.285-.037c2.332-.111,4.88-.372,7.086.2,3.8.989,5.732,3.971,6.883,7.458l2.938,8.907c.884,2.679,2.423,5.741.195,8.23a10.89,10.89,0,0,1-3.614,2.2q-1.43.67-2.906,1.238a2.131,2.131,0,0,1,.01,1.5,41.555,41.555,0,0,0,5.886-2.7,6.175,6.175,0,0,0,3.465-5.789" transform="translate(-112.523 -36.131)"/>
          <path id="Trazado_1356549" data-name="Trazado 1356549" d="M35.571,21.676a10.431,10.431,0,0,0,7.057,9.755,10.751,10.751,0,0,0,11.608-3.471A10.358,10.358,0,0,0,43.93,11.248a10.87,10.87,0,0,0-8.36,10.428c-.02.893,1.4.333,1.414-.407a9.011,9.011,0,0,1,9.389-8.925A9.411,9.411,0,0,1,55.2,21.676,8.988,8.988,0,0,1,45.806,30.6a9.443,9.443,0,0,1-8.821-9.332c-.02-.9-1.43-.337-1.414.407" transform="translate(-20.447 -6.321)"/>
          <path id="Trazado_1356550" data-name="Trazado 1356550" d="M65.823,133.79a30.163,30.163,0,0,1-10.284,1.572.85.85,0,0,0-.475.106c-.744-.013-1.485-.068-2.222-.154q.1.506.2,1.017c.064.114.125.232.18.355a24.582,24.582,0,0,0,2.994.082.948.948,0,0,0,.362-.082,32.963,32.963,0,0,0,9.41-1.6l.337-.105a1.254,1.254,0,0,0,.051-.4.806.806,0,0,0-.553-.79" transform="translate(-30.375 -76.907)"/>
          <path id="Trazado_1356551" data-name="Trazado 1356551" d="M49.279,71.913l-.042-.128c-1.2-3.633-3.076-6.744-6.86-8.172-2.937-1.108-6.311-.7-9.41-.611-3.773-.1-7.768-.582-11.14,1.456-3.1,1.874-4.3,4.825-5.369,8.066L13.181,82.46a12.626,12.626,0,0,0-.812,3.073,6.175,6.175,0,0,0,3.464,5.789,41.346,41.346,0,0,0,6.229,2.824.6.6,0,0,1,.108-.3c.2-.287.337-.612.54-.9.013-.018.028-.031.042-.047q-2-.71-3.929-1.616a10.884,10.884,0,0,1-3.614-2.2c-2.227-2.488-.689-5.551.2-8.23l2.938-8.907c1.151-3.488,3.08-6.47,6.883-7.458,2.206-.574,4.754-.312,7.086-.2a.966.966,0,0,0,.285.037l.373-.011.376.011a.984.984,0,0,0,.273-.034c3.122-.132,6.537-.472,9.3,1.085,3.006,1.694,4.023,4.586,5.024,7.613.307.2.729.369,1,.131a1.458,1.458,0,0,0,.335-1.2" transform="translate(-7.103 -36.132)"/>
          <path id="Trazado_1356552" data-name="Trazado 1356552" d="M139.969,147.415a4.359,4.359,0,0,1-1.735,2.9q-1.523,1.482-3.04,2.963c-1.542,1.5-4.3,3.411-4.872,5.607-.57,2.165.473,5.133.838,7.261.389,2.264,1.869,6.246-.3,7.98s-5.679-1.018-7.66-2.062c-1.937-1.019-4.426-2.912-6.7-3.028-2.445-.125-5.159,1.944-7.218,3.028-1.906,1-5.373,3.722-7.517,2.181-2.342-1.685-.866-5.635-.47-7.946q.364-2.117.726-4.233a7.726,7.726,0,0,0,.2-2.959c-.5-2.277-3.246-4.187-4.822-5.722l-3.074-3c-.875-.853-1.744-1.635-1.807-2.969-.171-3.48,3.76-3.457,6.19-3.813,2.33-.336,4.744-.523,7.043-1.034,2.738-.608,3.579-3.2,4.682-5.439,1.065-2.156,1.988-4.486,3.237-6.542a2.957,2.957,0,0,1,5.261.215l3.056,6.2c1.074,2.174,1.915,4.856,4.545,5.529a67.956,67.956,0,0,0,7.1,1.053c2.452.358,6.508.312,6.339,3.835" transform="translate(-53.179 -74.199)" fill="#f0b068"/>
          <path id="Trazado_1356553" data-name="Trazado 1356553" d="M138.329,142.653c-1.636-1.959-4.925-1.872-7.239-2.208q-2.35-.346-4.707-.685c-1.433-.209-2.713-.389-3.535-1.816-1.305-2.258-2.336-4.728-3.492-7.071-.38-.773-.76-1.542-1.143-2.315a.26.26,0,0,0-.031-.05.649.649,0,0,0-.05-.106,4.734,4.734,0,0,0-8.323.165c-1.234,2.318-2.327,4.719-3.489,7.074a23.806,23.806,0,0,1-1.265,2.52c-.872,1.336-2.224,1.427-3.623,1.629-2.881.418-5.769.794-8.641,1.256-3.118.5-5.345,3.825-3.464,6.753a12.815,12.815,0,0,0,1.932,2.053q1.757,1.715,3.52,3.433c.875.853,1.8,1.676,2.639,2.57a3.97,3.97,0,0,1,.869,3.71q-.748,4.355-1.5,8.713a5.5,5.5,0,0,0,.193,3.429,4.714,4.714,0,0,0,4.439,2.613,7.333,7.333,0,0,0,3.065-1.112L108.7,171c1.178-.62,2.349-1.271,3.542-1.863a3.822,3.822,0,0,1,3.676.069c2.616,1.33,5.2,2.735,7.8,4.1a6.47,6.47,0,0,0,3.271,1.022,4.68,4.68,0,0,0,4.2-2.966,6.121,6.121,0,0,0,.013-3.258q-.388-2.261-.776-4.526c-.421-2.457-1.673-5.741.252-7.787,1.987-2.112,4.174-4.068,6.252-6.093a10.04,10.04,0,0,0,1.906-2.128,4.4,4.4,0,0,0-.511-4.912m-.589,2.994a4.358,4.358,0,0,1-1.735,2.9q-1.523,1.482-3.04,2.963c-1.542,1.5-4.3,3.411-4.872,5.607-.57,2.165.473,5.133.838,7.261.389,2.264,1.869,6.246-.3,7.98s-5.679-1.018-7.66-2.062c-1.937-1.019-4.426-2.912-6.7-3.028-2.445-.125-5.159,1.944-7.218,3.028-1.906,1-5.373,3.722-7.517,2.181-2.342-1.685-.866-5.635-.47-7.946q.364-2.117.726-4.233a7.725,7.725,0,0,0,.2-2.959c-.5-2.277-3.246-4.187-4.822-5.722l-3.074-3c-.875-.853-1.744-1.635-1.807-2.969-.171-3.48,3.76-3.457,6.19-3.813,2.33-.336,4.744-.523,7.043-1.034,2.738-.608,3.579-3.2,4.682-5.439,1.065-2.156,1.988-4.486,3.237-6.542a2.957,2.957,0,0,1,5.261.215l3.056,6.2c1.074,2.174,1.915,4.856,4.545,5.529a67.955,67.955,0,0,0,7.1,1.053c2.452.358,6.508.312,6.339,3.835" transform="translate(-50.951 -72.431)"/>
          <path id="Trazado_1356554" data-name="Trazado 1356554" d="M227.13,127.571l2.307,4.674c.778,1.577,1.383,3.455,3.221,4.058a30.879,30.879,0,0,0,5.105.8c1.734.252,4.959.149,4.821,2.688-.089,1.633-2.406,3.17-3.464,4.2-1.117,1.089-3.054,2.438-3.554,3.994-.478,1.491.221,3.528.474,5.005.26,1.518,1.384,4.592.242,5.953-1.445,1.721-4.317-.541-5.754-1.3-1.388-.73-3.059-1.975-4.664-2.16-1.811-.209-3.616,1.142-5.139,1.943l-2.59,1.362c-.742.39-1.632,1.035-2.514.829-2.538-.591-1.213-4.347-.927-6.017.264-1.537.907-3.429.712-5.011-.213-1.723-2.083-3.04-3.244-4.17l-2.315-2.257a5.915,5.915,0,0,1-1.4-1.563c-1.455-3.183,3.1-3.279,4.93-3.545,1.735-.252,4.381-.182,5.859-1.291,1.463-1.1,2.2-3.6,2.977-5.17.458-.928.873-1.9,1.382-2.8.89-1.574,2.667-1.714,3.614-.068.412.716,1.9.185,1.412-.661a3.721,3.721,0,0,0-6.223-.326,41.871,41.871,0,0,0-2.577,5.156,23.362,23.362,0,0,1-1.062,2.153c-.68,1.077-1.591,1.131-2.686,1.29-2.1.305-4.24.522-6.327.919-2.284.435-3.96,2.756-2.715,5,.824,1.486,2.557,2.707,3.751,3.871,1.412,1.376,3.239,2.534,2.915,4.717s-.745,4.337-1.116,6.5c-.385,2.25.671,4.433,3.192,4.613,1.871.134,3.928-1.437,5.5-2.263,1.547-.813,3.488-2.392,5.25-1.6,1.966.886,3.851,2.025,5.76,3.028s4.284,1.283,5.625-.837c1.014-1.6.159-4.018-.135-5.736-.314-1.831-1.372-4.6-.034-6.173,1.308-1.543,2.96-2.886,4.408-4.3,1.606-1.565,3.082-3.683,1.133-5.738-1.436-1.514-4.4-1.414-6.311-1.691-1.058-.153-2.15-.245-3.2-.464-1.292-.271-1.666-1.082-2.174-2.112l-2.893-5.862c-.366-.742-1.974-.455-1.577.348" transform="translate(-118.766 -71.976)"/>
          <path id="Trazado_1356555" data-name="Trazado 1356555" d="M20.52,127.571l2.307,4.674c.778,1.577,1.383,3.455,3.221,4.058a30.886,30.886,0,0,0,5.1.8c1.734.252,4.959.149,4.821,2.688-.089,1.633-2.406,3.17-3.464,4.2-1.117,1.089-3.054,2.438-3.554,3.994-.478,1.491.221,3.528.474,5.005.26,1.518,1.383,4.592.241,5.953-1.445,1.721-4.317-.541-5.754-1.3-1.388-.73-3.059-1.975-4.664-2.16-1.81-.209-3.616,1.142-5.139,1.943l-2.59,1.362c-.742.39-1.632,1.035-2.514.829-2.538-.591-1.213-4.347-.927-6.017.264-1.537.907-3.429.712-5.011-.213-1.723-2.083-3.04-3.244-4.17l-2.315-2.257a5.915,5.915,0,0,1-1.4-1.563c-1.455-3.183,3.1-3.279,4.93-3.545,1.735-.252,4.381-.182,5.859-1.291,1.463-1.1,2.2-3.6,2.977-5.17.458-.928.873-1.9,1.382-2.8.89-1.574,2.667-1.714,3.614-.068.412.716,1.9.185,1.412-.661a3.721,3.721,0,0,0-6.222-.326,41.811,41.811,0,0,0-2.577,5.156,23.367,23.367,0,0,1-1.062,2.153c-.68,1.077-1.591,1.131-2.686,1.29-2.1.305-4.24.522-6.327.919-2.284.435-3.96,2.756-2.715,5,.824,1.486,2.557,2.707,3.751,3.871,1.412,1.376,3.239,2.534,2.915,4.717s-.745,4.337-1.116,6.5c-.384,2.25.671,4.433,3.192,4.613,1.871.134,3.928-1.437,5.5-2.263,1.547-.813,3.488-2.392,5.25-1.6,1.966.886,3.851,2.025,5.76,3.028s4.284,1.283,5.625-.837c1.014-1.6.159-4.018-.135-5.736-.314-1.831-1.372-4.6-.034-6.173,1.309-1.543,2.961-2.886,4.409-4.3,1.606-1.565,3.082-3.683,1.133-5.738-1.436-1.514-4.4-1.414-6.311-1.691-1.058-.153-2.15-.245-3.2-.464-1.293-.271-1.666-1.082-2.175-2.112L22.1,127.223c-.366-.742-1.973-.455-1.577.348" transform="translate(0 -71.976)"/>
          <path id="Trazado_1356556" data-name="Trazado 1356556" d="M119.443,160.514q-2.042,3.358-4.083,6.717c-.575.948-.256,1.171.335.2q2.043-3.358,4.077-6.721c.564-.93.25-1.148-.328-.2" transform="translate(-66.139 -91.915)"/>
          <path id="Trazado_1356557" data-name="Trazado 1356557" d="M140.671,145.675c-4.71,7.343-9.084,14.9-13.043,22.675-.618,1.213.276.366.594-.253q5.75-11.184,12.5-21.8c.357-.557.667-1.75-.054-.626" transform="translate(-73.242 -83.471)"/>
          <path id="Trazado_1356558" data-name="Trazado 1356558" d="M144.021,156.606c-4.833,7.784-9.588,15.626-14.134,23.582-.559.978-.247,1.207.341.2,4.633-7.909,9.3-15.794,14.121-23.59.573-.925.259-1.142-.328-.2" transform="translate(-74.495 -89.671)"/>
          <path id="Trazado_1356559" data-name="Trazado 1356559" d="M164.369,159.594q-3.218,4.6-6.076,9.437c-.566.964-.249,1.191.338.2,1.825-3.075,3.747-6.081,5.792-9.014.382-.548.71-1.719-.054-.626" transform="translate(-90.822 -91.481)"/>
          <path id="Trazado_1356560" data-name="Trazado 1356560" d="M174.984,163.6a98.4,98.4,0,0,0-6.335,9.281c-.576.96-.259,1.183.338.2a96.452,96.452,0,0,1,5.783-8.487c.239-.312.935-1.937.214-1" transform="translate(-96.77 -93.875)"/>
        </g>
      </g>
    </g>
  </g>
</svg>
