<svg xmlns="http://www.w3.org/2000/svg" xmlns:xlink="http://www.w3.org/1999/xlink" width="152.051" height="110.195" viewBox="0 0 152.051 110.195">
  <defs>
    <clipPath id="clip-path">
      <rect id="Rectángulo_457693" data-name="Rectángulo 457693" width="152.051" height="110.195" fill="none"/>
    </clipPath>
  </defs>
  <g id="Grupo_1207597" data-name="Grupo 1207597" transform="translate(-723.974 -1815)">
    <g id="Grupo_1207455" data-name="Grupo 1207455" transform="translate(723.974 1815)">
      <g id="Grupo_1207454" data-name="Grupo 1207454" clip-path="url(#clip-path)">
        <path id="Trazado_1356590" data-name="Trazado 1356590" d="M188.216,219.675a17.473,17.473,0,0,0-4.33-5.6l-.036.009a2.109,2.109,0,0,0-.55.275,11.764,11.764,0,0,0-.614,4.015,36.839,36.839,0,0,0,.463,6.3c.081.546.155,1.093.212,1.64.112.386.224.773.332,1.16.234.838.588,2.159.673,2.731a6.4,6.4,0,0,1-.161,2.707c0,.012-.007.026-.012.039-.082.16-.161.318-.253.474-.063.107-.133.209-.2.313l-.025.026c-.249.268-.5.52-.768.765l-.035.022c-.2.129-.4.271-.6.4-.335.2-.681.381-1.029.559-.034.017-.106.048-.169.075-.094.037-.188.075-.283.11a21.272,21.272,0,0,1-2.467.753,49.877,49.877,0,0,1-5.191.919,52.7,52.7,0,0,1-5.55.464,2.394,2.394,0,0,1-.918.169q-.462,0-.922-.023c-5.364-.2-10.53-1.793-15.775-2.852-.569-.115-1.791-.416-2.212-.07-.372.305-.36,1.142-.31,1.738.012.143.031.285.049.428,6.376,7.05,16.6,8.083,25.429,6.963,4.272-.543,8.881-1.06,12.665-3.37a11.188,11.188,0,0,0,4.257-4.463,12.912,12.912,0,0,0,.7-8.471,76.543,76.543,0,0,0-2.37-8.2" transform="translate(-94.454 -137.123)" fill="#d7d7d7"/>
        <path id="Trazado_1356591" data-name="Trazado 1356591" d="M249.445,266.584c-.058.171-.23.447,0,0" transform="translate(-159.706 -170.759)" fill="#d7d7d7"/>
        <path id="Trazado_1356592" data-name="Trazado 1356592" d="M201.6,122.46a9.872,9.872,0,0,0-3.688-4.036,8.965,8.965,0,0,0-2.575-1.263c-.051.038-.1.075-.153.117a8.438,8.438,0,0,0,.935,3.8,12.739,12.739,0,0,1,.947,7.134c-.973,4.363-4.585,4.765-8.32,3.884a21.75,21.75,0,0,0-3.33-.733c-.148-.011-2.978.289-2.616.852a10.591,10.591,0,0,0,6.135,4.6,19.491,19.491,0,0,0,3.534.646,11.9,11.9,0,0,0,8.156-3.406c2.891-3.206,2.794-7.813.976-11.591" transform="translate(-117.073 -75.047)" fill="#d7d7d7"/>
        <path id="Trazado_1356593" data-name="Trazado 1356593" d="M317.4,50.6a6.043,6.043,0,0,0-7.34-1.035,8.911,8.911,0,0,0-2.393,2.032,6.528,6.528,0,0,0-2.739-1.538,5.942,5.942,0,0,0-6.991,3.174c-1.288,3.084.712,5.6,2.727,7.724l5.389,5.683a3.705,3.705,0,0,0,5.172,0,3.566,3.566,0,0,0,1.039-2.346,3.376,3.376,0,0,0,.658-.519c2.958-3.024,8.518-8.906,4.478-13.175M313.517,56a.041.041,0,0,0,.01-.016c.2-.145.235-.036-.01.016m-7.486-2.458.056-.007c-.23.242-.25.246-.056.007" transform="translate(-190.578 -31.236)" fill="#f0b068"/>
        <path id="Trazado_1356594" data-name="Trazado 1356594" d="M21.776,166.019l21.858-.587a3.657,3.657,0,1,0,0-7.314l-21.858.587a3.657,3.657,0,0,0,0,7.315" transform="translate(-11.604 -101.281)" fill="#d7d7d7"/>
        <path id="Trazado_1356595" data-name="Trazado 1356595" d="M320.938,207.9a150.569,150.569,0,0,0,26.529.25,3.731,3.731,0,0,0,3.657-3.657c-.083-1.852-1.615-3.818-3.657-3.657a150.539,150.539,0,0,1-26.529-.25,3.669,3.669,0,0,0-3.657,3.657,3.756,3.756,0,0,0,3.657,3.657" transform="translate(-203.231 -128.479)" fill="#d7d7d7"/>
        <path id="Trazado_1356596" data-name="Trazado 1356596" d="M46.127,202.634a81.878,81.878,0,0,0,15.434.044,3.736,3.736,0,0,0,3.657-3.657c-.082-1.832-1.617-3.844-3.657-3.657a81.912,81.912,0,0,1-15.434-.045,3.67,3.67,0,0,0-3.657,3.657,3.756,3.756,0,0,0,3.657,3.657" transform="translate(-27.202 -125.103)" fill="#d7d7d7"/>
        <path id="Trazado_1356597" data-name="Trazado 1356597" d="M308.743,68.248c4.385-3.033,9.8-6.712,10.178-12.57.176-2.724-1.141-5.174-3.89-5.868-2.952-.746-5.628.973-7.478,3.142l.683.068c-1.972-1.848-4-3.708-6.936-3.355-3.337.4-4.65,3.376-4.185,6.443a13.659,13.659,0,0,0,4.606,7.772,41.864,41.864,0,0,0,4.391,3.446c.863.6,1.55,1.316,2.629.924.5-.182-.252-1.026-.714-.858-.766.278-2.959-1.756-3.573-2.229-.839-.647-1.661-1.321-2.432-2.048a11.976,11.976,0,0,1-3.943-6.929c-.347-2.694.815-5.261,3.731-5.6,2.569-.294,4.233,1.423,5.936,3.02.161.151.513.268.683.068,1.729-2.025,4.472-3.928,7.25-2.8,3.439,1.4,2.328,6.119.916,8.622-1.918,3.4-5.426,5.72-8.568,7.893-.46.318.325,1.125.717.854" transform="translate(-190.257 -31.784)"/>
        <path id="Trazado_1356598" data-name="Trazado 1356598" d="M196.388,119.749a12.122,12.122,0,0,1-8.3,11.438,12.378,12.378,0,0,1-14.324-18.149,12.13,12.13,0,0,1,13.182-5.367,12.576,12.576,0,0,1,9.44,12.077c.016.932,1.48.349,1.467-.422a13.59,13.59,0,0,0-9.2-12.723,13.92,13.92,0,0,0-15.126,4.583,13.485,13.485,0,0,0,13.352,21.667,14.039,14.039,0,0,0,10.969-13.528c.016-.927-1.453-.346-1.467.422" transform="translate(-109.259 -67.849)"/>
        <path id="Trazado_1356599" data-name="Trazado 1356599" d="M188.709,218.995a18.11,18.11,0,0,0-1.013-3.6l-4.152-12.586c-1.36-4.123-2.921-7.836-6.909-10.154-4.156-2.414-9.105-1.807-13.727-1.678-3.957-.112-8.267-.641-12.009.819-4.632,1.807-6.917,5.675-8.39,10.141l-4.186,12.689c-.382,1.159-.85,2.326-1.12,3.519a7.431,7.431,0,0,0,3.317,7.9,42.764,42.764,0,0,0,10.448,4.33,40.925,40.925,0,0,0,11.544,1.908.964.964,0,0,0,.4.1c7.441.294,15.162-2.342,21.609-5.923a7.6,7.6,0,0,0,4.186-7.466m-3.26,4.953a13.73,13.73,0,0,1-4.38,2.66,54.791,54.791,0,0,1-5.458,2.241,36.084,36.084,0,0,1-11.308,2.193.844.844,0,0,0-.532-.138c-6.956.283-14.178-1.918-20.379-4.952-3.269-1.6-5.489-4.293-4.376-8.111.257-.883.578-1.752.866-2.625l3.816-11.568c1.3-3.943,2.574-7.731,6.476-9.932,3.563-2.01,7.917-1.575,11.93-1.411a1,1,0,0,0,.306.041c.157,0,.317-.008.476-.013s.315.01.471.013a1,1,0,0,0,.316-.043c3.06-.139,6.388-.476,9.287.318a11.822,11.822,0,0,1,7.512,6.425,29.491,29.491,0,0,1,1.085,3.053q1.876,5.689,3.753,11.378c1.131,3.426,3.037,7.3.141,10.47" transform="translate(-87.768 -122.211)"/>
        <path id="Trazado_1356600" data-name="Trazado 1356600" d="M111.206,50.9c-1.014,1.629.4,4.406.5,6.144.063,1-1.168,1.507-2.014,1.234a11.671,11.671,0,0,1-1.641-.858,13.8,13.8,0,0,0-2.721-1.35,3.61,3.61,0,0,0-2.665.661c-.9.473-2.206,1.526-3.211,1.678a5.087,5.087,0,0,1-1.736-.707c-.127-.226-.019-.6.005-.853.056-.583.2-1.17.3-1.743a26.245,26.245,0,0,0,.475-2.772c.137-2.209-2.784-3.538-3.979-5.059-2.263-2.889,4.53-2.56,5.881-3.145,1.039-.451,1.414-1.614,1.882-2.555q.52-1.05,1.041-2.1a3.321,3.321,0,0,1,.285-.575,1.292,1.292,0,0,1,2.151-.046l.007.01q.636,1.288,1.275,2.577a6.28,6.28,0,0,0,1.526,2.453c1.716,1.2,4.427.176,6.127,1.334,2.194,1.5-2.682,4.379-3.491,5.676" transform="translate(-60.252 -24.526)" fill="#f0b068"/>
        <path id="Trazado_1356601" data-name="Trazado 1356601" d="M114.2,43.4c-.661-1.353-2.3-1.317-3.591-1.5-1.49-.217-3.077-.083-3.957-1.47a40.93,40.93,0,0,1-1.907-3.838.111.111,0,0,0-.015-.022.37.37,0,0,0-.044-.088,2.409,2.409,0,0,0-3.552-.663c-.836.685-1.268,2.119-1.726,3.045-.634,1.278-.953,2.392-2.48,2.708-1.339.278-2.731.3-4.064.588a2.241,2.241,0,0,0-1.963,2.58c.227,1.09,1.5,1.967,2.25,2.692.976.944,2.28,1.756,2.116,3.235-.149,1.348-.5,2.677-.692,4.018a2.274,2.274,0,0,0,1.533,2.787c1.217.363,2.311-.441,3.34-.978,1.051-.549,2.514-1.743,3.772-1.366a22.887,22.887,0,0,1,3.567,1.866c1.017.531,2.1.877,3.131.119,1.11-.817.858-2.014.659-3.17s-.946-3.087-.571-4.24,2.129-2.279,2.965-3.089c.907-.878,1.9-1.836,1.229-3.214m-5.052,5.578c-1.014,1.629.4,4.406.5,6.144.063,1-1.168,1.507-2.014,1.234A11.671,11.671,0,0,1,106,55.5a13.8,13.8,0,0,0-2.721-1.35,3.61,3.61,0,0,0-2.665.661c-.9.473-2.206,1.526-3.211,1.678a5.087,5.087,0,0,1-1.736-.707c-.127-.226-.019-.6.005-.853.056-.583.2-1.17.3-1.743a26.245,26.245,0,0,0,.475-2.772c.137-2.209-2.784-3.538-3.979-5.059-2.263-2.889,4.53-2.56,5.881-3.145,1.039-.451,1.414-1.614,1.882-2.555q.52-1.05,1.041-2.1a3.321,3.321,0,0,1,.285-.575,1.292,1.292,0,0,1,2.151-.046l.007.01q.636,1.288,1.275,2.577a6.28,6.28,0,0,0,1.526,2.453c1.716,1.2,4.427.176,6.127,1.334,2.194,1.5-2.682,4.379-3.491,5.676" transform="translate(-58.199 -22.61)"/>
        <path id="Trazado_1356602" data-name="Trazado 1356602" d="M305.361,34.7c-.09,8.111-5.68,14.646-12.711,18.1a31.741,31.741,0,0,1-13.05,3.128c-2.43.069-3.975,1.76-5.789,3.225a26.715,26.715,0,0,1-12.119,5.836l.745.633c.386-2.572,1.258-5.066,1.712-7.63a14.257,14.257,0,0,0,.324-3.842,2.455,2.455,0,0,0-1.552-2.223c-7.219-4.113-12.611-11.853-11.173-20.442,1.289-7.695,7.542-13.457,14.557-16.222a32.965,32.965,0,0,1,25.057.481c7.635,3.4,13.9,10.262,14,18.959.01.932,1.475.349,1.467-.422-.085-7.645-4.776-14.151-11.153-18.043a33.865,33.865,0,0,0-25-3.685c-7.518,1.747-14.774,6.281-18.415,13.261a19.426,19.426,0,0,0,2.675,21.634,25.712,25.712,0,0,0,5.516,4.822c.721.472,2.009.866,2.417,1.637A4.214,4.214,0,0,1,263,55.933c-.228,3.339-1.506,6.473-2,9.758-.076.506.289.717.745.633a27.056,27.056,0,0,0,11.376-5.081c1.23-.917,2.38-1.932,3.59-2.874a6.087,6.087,0,0,1,1.25-.857,8.922,8.922,0,0,1,2.806-.26c8.39-.6,16.967-4.308,22.053-11.212a20.128,20.128,0,0,0,4-11.759c.01-.928-1.458-.347-1.467.422" transform="translate(-160.208 -7.457)"/>
        <path id="Trazado_1356603" data-name="Trazado 1356603" d="M43.988,23.159c-.582,8.1,3.758,15.029,10.265,19.546a34.521,34.521,0,0,0,5.247,2.98c1.64.756,3.438,1.179,5.059,1.938a10.3,10.3,0,0,1,2.5,2.03c1.09,1.037,2.168,2.086,3.31,3.067a24.255,24.255,0,0,0,11.377,5.792c.466.086,1.148-.365,1.068-.9-.449-2.983-1.521-5.843-1.925-8.843a11.455,11.455,0,0,1-.146-2.062c.05-1.016.191-1.018,1.115-1.464a45.013,45.013,0,0,0,6.445-3.841c6.508-4.619,13.979-12.08,13.011-20.773-.9-8.083-7-14.445-14.168-17.7a33.846,33.846,0,0,0-25.676-.773C52.358,5.592,44.97,12.97,44,22.983c-.1,1,1.357.725,1.433-.069C47.253,4.081,70.645-2.729,85.963,4.09c7.178,3.2,13.413,9.585,13.959,17.756.269,4.024-1.6,7.623-4,10.73a40.215,40.215,0,0,1-11.064,9.629q-1.668,1.006-3.423,1.858a3.621,3.621,0,0,0-1.675,1.12,5.468,5.468,0,0,0-.387,3.532c.353,3.177,1.511,6.18,1.983,9.323l1.069-.9A22.646,22.646,0,0,1,72.2,52.181c-2.046-1.669-3.771-3.758-5.9-5.322a11.373,11.373,0,0,0-3.051-1.281A36.168,36.168,0,0,1,57.682,43a27.1,27.1,0,0,1-8.788-7.711,19.1,19.1,0,0,1-3.44-12.548c.066-.914-1.412-.338-1.466.422" transform="translate(-28.143 0)"/>
        <path id="Trazado_1356604" data-name="Trazado 1356604" d="M263.7,163.952c3.744,1.737,8.475,1.718,11.858-.844,1.931-1.464,3.531-3.354,5.407-4.9a41.077,41.077,0,0,1,5.606-3.907c8.169-4.694,19.314-5.827,26.855.769a16.423,16.423,0,0,1,5.5,11.664c.142,4.765-2.22,8.852-5.885,11.775-7.749,6.18-19.16,7.811-27.842,2.642a21.663,21.663,0,0,1-5.677-4.856,19.361,19.361,0,0,1-2.167-3.248,7.81,7.81,0,0,0-1.384-2.3,4.418,4.418,0,0,0-2.586-.864,12.018,12.018,0,0,1-3.464-1,9.622,9.622,0,0,1-5.31-5.447c-.229-.68-1.811-.471-1.549.308,1.3,3.879,5.371,6.442,9.262,7.13a10.862,10.862,0,0,1,1.639.218c.891.31,1.241,1.061,1.626,1.83a21.35,21.35,0,0,0,1.678,2.8,22.233,22.233,0,0,0,4.8,4.885c7.971,5.973,18.885,6.059,27.574,1.58,4-2.063,7.845-5.08,9.719-9.288a15.635,15.635,0,0,0-.335-12.617c-3.9-8.66-13.889-12.043-22.806-10.707a33.4,33.4,0,0,0-14.949,6.689c-2.37,1.792-4.318,4.037-6.633,5.87a9.667,9.667,0,0,1-10.132.827c-.718-.333-1.761.536-.806.978" transform="translate(-168.481 -95.637)"/>
        <path id="Trazado_1356605" data-name="Trazado 1356605" d="M56.029,152.215a9.831,9.831,0,0,1-9.223-.186c-2.19-1.355-3.909-3.56-5.89-5.209a36.614,36.614,0,0,0-13.165-7.237c-8.606-2.474-19.346-.629-24.677,7.175A16.822,16.822,0,0,0,.216,158.939c.79,4.536,3.856,8.114,7.568,10.654,8.064,5.517,19.045,6.862,27.777,2.116a23.443,23.443,0,0,0,5.9-4.527,20.829,20.829,0,0,0,2.354-3.012c.709-1.1,1.18-2.8,2.266-3.511,1.018-.669,2.658-.588,3.85-.975a14.384,14.384,0,0,0,3.107-1.441,10.129,10.129,0,0,0,4.445-5.264c.261-.775-1.322-.975-1.552-.291a9.2,9.2,0,0,1-4.36,4.95,12.087,12.087,0,0,1-2.916,1.2c-1,.263-2.1.212-3.077.559-1.75.623-2.244,2.785-3.155,4.207a20.78,20.78,0,0,1-4.331,4.857c-7.9,6.459-19.061,6.354-27.653,1.291C6.463,167.416,2.9,163.959,1.9,159.3a15.872,15.872,0,0,1,2.83-12.366c5.813-8.027,17.141-8.745,25.658-5.165,5.225,2.2,9.307,5.748,13.4,9.558a11.663,11.663,0,0,0,13.051,1.854c.954-.443-.1-1.3-.817-.969" transform="translate(0 -88.751)"/>
        <path id="Trazado_1356606" data-name="Trazado 1356606" d="M331.179,173.931l21.967-.238c.993-.011.992-1.138-.006-1.128l-21.968.238c-.992.011-.991,1.139.006,1.128" transform="translate(-211.655 -110.536)"/>
        <path id="Trazado_1356607" data-name="Trazado 1356607" d="M314.415,190.275l4.3-.279c.981-.064,1-1.193-.006-1.128l-4.3.279c-.981.064-1,1.193.006,1.128" transform="translate(-200.918 -120.977)"/>
        <path id="Trazado_1356608" data-name="Trazado 1356608" d="M342.568,190.379q11.1.263,22.178-.466c.981-.065,1-1.194-.007-1.128q-11.075.729-22.178.466c-1-.024-.986,1.1.006,1.128" transform="translate(-218.95 -120.924)"/>
        <path id="Trazado_1356609" data-name="Trazado 1356609" d="M323.162,206.474a146.951,146.951,0,0,0,27.563-.035c.972-.093.995-1.224-.006-1.128a144.773,144.773,0,0,1-27.136.073c-.862-.079-1.48.992-.421,1.09" transform="translate(-206.641 -131.508)"/>
        <path id="Trazado_1356610" data-name="Trazado 1356610" d="M29.209,160.089q10.765.512,21.539.084c.987-.039.995-1.167-.006-1.128q-10.768.428-21.539-.084c-1-.047-.981,1.081.006,1.128" transform="translate(-18.231 -101.821)"/>
        <path id="Trazado_1356611" data-name="Trazado 1356611" d="M19.011,175.319q14.96.721,29.933,0c.986-.048.995-1.176-.006-1.128q-14.96.726-29.934,0c-1-.048-.981,1.081.006,1.128" transform="translate(-11.699 -111.573)"/>
        <path id="Trazado_1356612" data-name="Trazado 1356612" d="M24.411,190.69H39.7c.995,0,.99-1.128-.006-1.128H24.4c-.995,0-.99,1.128.006,1.128" transform="translate(-15.156 -121.423)"/>
        <path id="Trazado_1356613" data-name="Trazado 1356613" d="M80.741,190.258a85.879,85.879,0,0,1,9.69-.2c1,.036.984-1.093-.006-1.128a85.954,85.954,0,0,0-9.69.2c-.978.076-1,1.206.006,1.128" transform="translate(-51.241 -120.982)"/>
        <path id="Trazado_1356614" data-name="Trazado 1356614" d="M45.385,206.478l14.858-.316c.991-.021.993-1.149-.006-1.128l-14.858.316c-.991.021-.993,1.149.006,1.128" transform="translate(-28.591 -131.334)"/>
      </g>
    </g>
  </g>
</svg>
