<svg xmlns="http://www.w3.org/2000/svg" xmlns:xlink="http://www.w3.org/1999/xlink" width="76.988" height="115.259" viewBox="0 0 76.988 115.259">
  <defs>
    <clipPath id="clip-path">
      <rect id="Rectángulo_457694" data-name="Rectángulo 457694" width="76.988" height="115.259" fill="none"/>
    </clipPath>
  </defs>
  <g id="Grupo_1207598" data-name="Grupo 1207598" transform="translate(-1010.711 -1812)">
    <g id="Grupo_1207457" data-name="Grupo 1207457" transform="translate(1010.711 1812)">
      <g id="Grupo_1207456" data-name="Grupo 1207456" clip-path="url(#clip-path)">
        <path id="Trazado_1356615" data-name="Trazado 1356615" d="M32.468,79.618l2.6-4.137a3.24,3.24,0,0,0-1.328-4.358,3.3,3.3,0,0,0-4.358,1.328l-2.6,4.137a3.24,3.24,0,0,0,1.328,4.358,3.3,3.3,0,0,0,4.358-1.328" transform="translate(-17.545 -47.049)" fill="#f0b068"/>
        <path id="Trazado_1356616" data-name="Trazado 1356616" d="M74.723,78.845a3.221,3.221,0,1,0-3.345-3.092,3.257,3.257,0,0,0,3.345,3.092" transform="translate(-47.448 -48.138)" fill="#f0b068"/>
        <path id="Trazado_1356617" data-name="Trazado 1356617" d="M102.215,78.288l.531-.293a3.1,3.1,0,0,0,1.41-3.267,2.4,2.4,0,0,0-.429-1.182l-.529-.631a3.217,3.217,0,0,0-1.453-.772l-.86-.081a3.21,3.21,0,0,0-1.607.5l-.531.293a3.1,3.1,0,0,0-1.41,3.267,2.4,2.4,0,0,0,.429,1.182l.529.631a3.217,3.217,0,0,0,1.453.772l.86.081a3.207,3.207,0,0,0,1.607-.5" transform="translate(-64.658 -47.909)" fill="#f0b068"/>
        <path id="Trazado_1356618" data-name="Trazado 1356618" d="M129.557,76.8l.26-.282a3.113,3.113,0,0,0,.527-3.542,2.411,2.411,0,0,0-.706-1.01l-.671-.478a3.207,3.207,0,0,0-1.642-.375l-.851.149a3.22,3.22,0,0,0-1.388.883l-.26.282a3.115,3.115,0,0,0-.527,3.542,2.416,2.416,0,0,0,.706,1.01l.671.478a3.2,3.2,0,0,0,1.642.376l.851-.149a3.217,3.217,0,0,0,1.388-.883" transform="translate(-82.417 -47.28)" fill="#f0b068"/>
        <path id="Trazado_1356619" data-name="Trazado 1356619" d="M156.47,78.866a3.221,3.221,0,1,0-3.345-3.092,3.257,3.257,0,0,0,3.345,3.092" transform="translate(-101.797 -48.152)" fill="#f0b068"/>
        <path id="Trazado_1356620" data-name="Trazado 1356620" d="M183.765,76.29l.26-.282a3.113,3.113,0,0,0,.527-3.542,2.411,2.411,0,0,0-.706-1.01l-.671-.478a3.207,3.207,0,0,0-1.642-.375l-.851.149a3.217,3.217,0,0,0-1.388.883l-.26.282a3.115,3.115,0,0,0-.527,3.542,2.414,2.414,0,0,0,.707,1.01l.671.478a3.2,3.2,0,0,0,1.642.376l.851-.149a3.217,3.217,0,0,0,1.388-.883" transform="translate(-118.456 -46.938)" fill="#f0b068"/>
        <path id="Trazado_1356621" data-name="Trazado 1356621" d="M93.333,37.563c.432.043.865.086,1.293.162.126.022,1.237.35.763.145a3.951,3.951,0,0,1,.556.3c-.1-.065-.238-.11-.274-.246l.176.26q-.13-.369-.009-.049a5.3,5.3,0,0,1,.236.767c-.121-.484.006.021.016.122.022.221.044.441.058.662.024.367.034.734.043,1.1s.018.727.027,1.09q.064,2.512.133,5.024.18,6.636.355,13.273c.284,11.08.531,22.163.646,33.246.1,9.457.215,18.948-.286,28.4-.043.805-.092,1.61-.153,2.415-.025.337-.058.674-.083,1.011-.031.416.1-.964.026-.271-.02.185-.038.37-.059.555a23.762,23.762,0,0,1-.482,2.811c-.171.727.308-.672.141-.34-.025.05-.043.1-.071.153-.136.228-.257.25.245-.337-.313.366.568-.3.238-.174-.162.063-.48.429-.672.406-.011,0,.8-.291.217-.115-.132.04-.264.1-.394.147a15.485,15.485,0,0,1-1.91.519c-.162.035-.328.06-.489.1-.461.113.576-.081.1-.016-.339.047-.675.105-1.015.15-.742.1-1.486.177-2.232.238-1.054.087-2.111.143-3.169.159-12,.188-24.007-.087-36.011.162q-3.283.068-6.566.158a3.221,3.221,0,0,0,.253,6.437c12.707-.339,25.4-.186,38.108-.277a86.421,86.421,0,0,0,8.985-.331c3.014-.336,6.787-.754,9.077-2.983,1.988-1.935,1.962-5.473,2.168-8.026.729-9.047.566-18.2.5-27.263-.081-11.523-.326-23.045-.614-34.565q-.179-7.171-.379-14.342-.075-2.757-.148-5.514c-.075-2.874.1-6.093-1.78-8.471a8.384,8.384,0,0,0-6.1-2.918c-1.669-.166-3.523.542-3.871,2.4-.286,1.53.611,3.692,2.4,3.871" transform="translate(-27.676 -20.786)" fill="#d7d7d7"/>
        <path id="Trazado_1356622" data-name="Trazado 1356622" d="M68.228,33.573c-1.376.009-2.751.044-4.127.067l-12.666.2a2.169,2.169,0,0,1,.248.774,1.914,1.914,0,0,1,.009.373q8.069-.14,16.138-.228a5.934,5.934,0,0,1,6.287,5.689c.03.706.023,1.415.034,2.121q.107,6.667.215,13.335l.709,43.947c.158,9.766.364,19.532.473,29.3.037,3.289-2.014,6.1-5.48,6.264l-31.136.5-21.169.341-6.749.109a19.107,19.107,0,0,1-3.344-.036c-3.1-.51-4.774-3.264-4.822-6.2q-.031-1.911-.062-3.822L2.532,110.5,1.817,66.168q-.142-8.806-.284-17.611c-.04-2.444-.228-4.936-.108-7.379.173-3.5,3.029-5.393,6.251-5.445l5.082-.082L23.4,35.479a2.581,2.581,0,0,1,.247-1.187l-15.959.257a7.555,7.555,0,0,0-6.769,3.58A8.508,8.508,0,0,0,0,42.758L.2,55.1q.36,22.313.72,44.626c.165,10.206.288,20.414.494,30.619a7.119,7.119,0,0,0,3.9,6.537,10.337,10.337,0,0,0,4.928.68l16.241-.262,40.825-.658,2.686-.043a7.2,7.2,0,0,0,7-7.189c0-.975-.032-1.952-.047-2.926Q76.819,119,76.7,111.509L75.964,65.98l-.295-18.3c-.041-2.553.054-5.149-.136-7.7a7.049,7.049,0,0,0-7.305-6.41" transform="translate(0 -22.32)"/>
        <path id="Trazado_1356623" data-name="Trazado 1356623" d="M29.663,47.723l31.1-.5c3.838-.062,7.688-.222,11.526-.186a6.088,6.088,0,0,1,6.027,6.081c.03.941.03,1.884.046,2.826q.266,16.483.532,32.967.3,18.473.6,36.946c.041,2.515.14,5.038.122,7.553a5.984,5.984,0,0,1-5.92,6.092c-1.215.032-2.431.039-3.647.059l-36.982.6-13.1.211c-2.743.044-5.338-1.019-6.427-3.761A9.285,9.285,0,0,1,13.1,133.2q-.238-14.756-.476-29.511Q12.308,84.278,12,64.867q-.081-5.065-.163-10.13a6.581,6.581,0,0,1,2.018-5.393c2.259-1.973,5.871-1.461,8.665-1.506l7.148-.115c.57-.009.682-.8.05-.79l-7.685.124c-2.7.044-5.8-.333-8.155,1.258-3.407,2.306-3.006,5.971-2.949,9.5l.568,35.22.587,36.425c.043,2.662-.379,6.122,1.058,8.481,2.415,3.964,7.106,3.213,11.031,3.15l38.768-.625c3.6-.058,7.2-.034,10.8-.174a6.954,6.954,0,0,0,6.83-6.482c.034-.7-.011-1.408-.022-2.107q-.258-15.975-.515-31.95Q79.716,80.37,79.4,60.99c-.043-2.682-.038-5.371-.13-8.052a6.823,6.823,0,0,0-6.394-6.68c-1.14-.064-2.3.016-3.44.035L32.8,46.884l-3.083.05c-.57.009-.682.8-.05.79" transform="translate(-7.234 -30.738)"/>
        <path id="Trazado_1356624" data-name="Trazado 1356624" d="M73.988,70.156c.386.748.629,1.69,1.519,1.916.351.089,1.241-.041,1.5.191.5.45-.509,1.041-.778,1.35-.7.8-.234,1.276-.226,2.222.007.759-.344.4-.882.133a2.289,2.289,0,0,0-1.174-.394,3.549,3.549,0,0,0-1.285.579c-.1.056-.456.323-.544.3-.346-.11-.139-.726-.106-.937a1.915,1.915,0,0,0-.65-2.178c-.14-.131-.523-.375-.592-.555-.217-.561-.077-.284.253-.463.368-.2.914-.068,1.312-.211a1.342,1.342,0,0,0,.814-.673c.126-.208.589-1.576.844-1.277.319.374,1.193-.04.847-.446a1.142,1.142,0,0,0-1.957.212c-.226.358-.327,1.088-.646,1.355-.336.281-1.079.194-1.524.308-.9.232-1.359.957-.7,1.743.285.34.906.63,1.1,1.029.221.461-.068,1.081-.109,1.561-.085,1,.534,1.59,1.54,1.2.4-.158.861-.651,1.283-.7.512-.056,1.028.442,1.509.626.806.308,1.654,0,1.695-.951.019-.46-.235-.923-.252-1.381-.024-.635.376-.828.806-1.284.676-.718.91-1.607-.279-1.94-.53-.148-1.285.029-1.722-.347a5.393,5.393,0,0,1-.74-1.431c-.225-.436-1.1-.037-.847.446" transform="translate(-46.336 -46.037)"/>
        <path id="Trazado_1356625" data-name="Trazado 1356625" d="M100.827,69.724c.386.748.629,1.69,1.519,1.915.351.089,1.241-.04,1.5.192.5.45-.509,1.041-.778,1.35-.7.8-.234,1.276-.226,2.222.007.759-.344.4-.882.133a2.289,2.289,0,0,0-1.174-.394,3.544,3.544,0,0,0-1.285.579c-.1.056-.456.323-.544.3-.346-.11-.139-.725-.106-.936A1.915,1.915,0,0,0,98.2,72.9c-.14-.131-.523-.375-.592-.555-.217-.561-.077-.284.253-.463.368-.2.914-.068,1.312-.211A1.343,1.343,0,0,0,99.983,71c.126-.208.589-1.576.844-1.277.319.374,1.193-.04.847-.446a1.142,1.142,0,0,0-1.957.212c-.226.358-.327,1.088-.646,1.355-.336.281-1.079.194-1.524.308-.9.232-1.359.957-.7,1.743.285.34.906.63,1.1,1.029.221.461-.068,1.081-.109,1.561-.085,1,.534,1.589,1.54,1.2.4-.157.861-.65,1.283-.7.512-.056,1.028.442,1.509.626.806.308,1.654,0,1.695-.951.019-.459-.235-.923-.252-1.381-.024-.635.376-.828.806-1.284.676-.718.909-1.607-.279-1.94-.53-.148-1.285.029-1.722-.347a5.392,5.392,0,0,1-.74-1.431c-.225-.436-1.1-.037-.847.446" transform="translate(-64.18 -45.75)"/>
        <path id="Trazado_1356626" data-name="Trazado 1356626" d="M127.666,69.291c.386.748.629,1.69,1.519,1.915.351.089,1.241-.04,1.5.192.5.45-.509,1.041-.778,1.35-.7.8-.234,1.276-.226,2.222.007.759-.344.4-.882.133a2.289,2.289,0,0,0-1.174-.394,3.544,3.544,0,0,0-1.285.579c-.1.056-.456.323-.544.3-.346-.11-.139-.725-.106-.936a1.915,1.915,0,0,0-.65-2.178c-.14-.131-.523-.375-.592-.555-.217-.561-.077-.284.253-.463.368-.2.914-.068,1.312-.211a1.344,1.344,0,0,0,.814-.673c.126-.208.589-1.576.844-1.277.319.374,1.193-.04.847-.446a1.142,1.142,0,0,0-1.957.212c-.226.358-.327,1.088-.646,1.355-.336.281-1.079.194-1.524.308-.9.232-1.359.957-.7,1.743.285.34.906.63,1.1,1.029.221.461-.068,1.081-.109,1.561-.085,1,.534,1.589,1.54,1.2.4-.157.861-.65,1.283-.7.511-.056,1.028.442,1.509.626.806.308,1.654,0,1.695-.951.019-.46-.235-.924-.252-1.381-.024-.635.376-.828.806-1.284.676-.718.91-1.607-.278-1.94-.53-.148-1.285.029-1.722-.347a5.393,5.393,0,0,1-.74-1.431c-.225-.436-1.1-.037-.847.446" transform="translate(-82.023 -45.462)"/>
        <path id="Trazado_1356627" data-name="Trazado 1356627" d="M154.5,68.858c.386.748.629,1.69,1.519,1.915.351.089,1.241-.04,1.5.192.5.45-.509,1.041-.778,1.35-.7.8-.234,1.276-.226,2.222.007.759-.344.4-.882.133a2.289,2.289,0,0,0-1.174-.394,3.544,3.544,0,0,0-1.285.579c-.1.056-.456.323-.544.3-.346-.11-.139-.725-.106-.936a1.915,1.915,0,0,0-.65-2.178c-.139-.131-.522-.375-.592-.555-.217-.561-.077-.284.253-.463.368-.2.914-.068,1.312-.211a1.341,1.341,0,0,0,.814-.673c.126-.207.589-1.576.844-1.276.318.374,1.193-.04.847-.446a1.142,1.142,0,0,0-1.957.212c-.226.358-.327,1.088-.646,1.355-.336.281-1.079.194-1.524.308-.9.232-1.359.957-.7,1.743.285.34.906.63,1.1,1.029.221.461-.068,1.081-.109,1.561-.085,1,.534,1.589,1.54,1.2.4-.157.861-.65,1.283-.7.512-.056,1.028.442,1.509.626.806.308,1.654,0,1.695-.951.019-.459-.235-.923-.252-1.381-.024-.635.375-.828.806-1.284.676-.718.909-1.607-.279-1.94-.53-.148-1.285.029-1.722-.347a5.393,5.393,0,0,1-.74-1.431c-.225-.436-1.1-.037-.847.446" transform="translate(-99.866 -45.174)"/>
        <path id="Trazado_1356628" data-name="Trazado 1356628" d="M181.343,68.425c.386.748.629,1.69,1.519,1.915.351.089,1.241-.04,1.5.192.5.45-.509,1.041-.778,1.35-.7.8-.234,1.276-.226,2.222.007.759-.344.4-.882.133a2.289,2.289,0,0,0-1.174-.394,3.549,3.549,0,0,0-1.285.579c-.1.056-.456.323-.544.3-.346-.11-.139-.726-.106-.937a1.915,1.915,0,0,0-.65-2.178c-.139-.131-.522-.375-.592-.555-.217-.561-.077-.284.253-.463.368-.2.914-.068,1.312-.211a1.343,1.343,0,0,0,.814-.673c.126-.207.589-1.576.844-1.277.318.374,1.193-.04.847-.446a1.142,1.142,0,0,0-1.957.212c-.226.358-.327,1.088-.646,1.355-.336.281-1.079.194-1.524.308-.9.232-1.359.957-.7,1.743.285.34.906.63,1.1,1.029.221.461-.068,1.081-.109,1.561-.085,1,.534,1.589,1.54,1.2.4-.157.861-.65,1.283-.7.512-.056,1.028.442,1.509.626.806.308,1.654,0,1.695-.951.019-.46-.235-.924-.252-1.381-.024-.635.375-.828.806-1.284.676-.718.909-1.607-.279-1.94-.53-.148-1.285.029-1.722-.347a5.392,5.392,0,0,1-.74-1.431c-.225-.436-1.1-.037-.847.446" transform="translate(-117.71 -44.886)"/>
        <path id="Trazado_1356629" data-name="Trazado 1356629" d="M36.066,78.463l-9.016.145.453.37q-.072-4.508-.145-9.016l-.5.419,9.016-.145-.453-.371q.073,4.508.145,9.016c.009.543.964.445.956-.049q-.072-4.508-.145-9.016a.4.4,0,0,0-.453-.37l-9.016.145c-.21,0-.507.18-.5.419q.073,4.508.145,9.016A.4.4,0,0,0,27,79.4l9.016-.145c.57-.009.682-.8.05-.79" transform="translate(-17.552 -46.171)"/>
        <path id="Trazado_1356630" data-name="Trazado 1356630" d="M74.824,122.011c.386.748.629,1.69,1.519,1.915.351.089,1.241-.04,1.5.192.5.45-.509,1.041-.778,1.35-.7.8-.234,1.276-.226,2.222.007.759-.344.4-.882.133a2.289,2.289,0,0,0-1.174-.394,3.544,3.544,0,0,0-1.285.579c-.1.056-.456.323-.544.3-.346-.11-.139-.725-.106-.936a1.915,1.915,0,0,0-.65-2.178c-.14-.131-.523-.375-.592-.555-.217-.561-.077-.284.253-.463.368-.2.914-.068,1.312-.211a1.342,1.342,0,0,0,.814-.673c.126-.207.589-1.576.844-1.276.318.374,1.193-.04.847-.446a1.142,1.142,0,0,0-1.957.212c-.226.358-.327,1.088-.646,1.355-.336.281-1.079.194-1.524.308-.9.232-1.359.957-.7,1.743.285.34.906.63,1.1,1.029.221.461-.068,1.081-.109,1.561-.085,1,.534,1.589,1.54,1.2.4-.157.861-.65,1.283-.7.512-.056,1.028.442,1.509.626.806.308,1.654,0,1.695-.951.019-.459-.235-.923-.252-1.381-.024-.635.375-.828.806-1.284.676-.718.91-1.607-.279-1.94-.53-.148-1.285.029-1.722-.347a5.393,5.393,0,0,1-.74-1.431c-.225-.436-1.1-.037-.847.446" transform="translate(-46.892 -80.512)"/>
        <path id="Trazado_1356631" data-name="Trazado 1356631" d="M101.663,121.578c.386.748.629,1.69,1.519,1.915.351.089,1.241-.04,1.5.192.5.45-.509,1.041-.778,1.35-.7.8-.234,1.276-.226,2.222.007.759-.344.4-.882.133a2.289,2.289,0,0,0-1.174-.394,3.544,3.544,0,0,0-1.285.579c-.1.056-.456.323-.544.3-.346-.11-.139-.726-.106-.937a1.915,1.915,0,0,0-.65-2.178c-.14-.131-.523-.375-.592-.555-.217-.561-.077-.284.253-.463.368-.2.914-.068,1.312-.211a1.342,1.342,0,0,0,.814-.673c.126-.208.589-1.576.844-1.277.319.374,1.193-.04.847-.446a1.142,1.142,0,0,0-1.957.212c-.226.358-.327,1.088-.646,1.355-.336.281-1.079.194-1.524.308-.9.232-1.359.957-.7,1.743.285.34.906.63,1.1,1.029.221.461-.068,1.081-.109,1.561-.085,1,.534,1.59,1.54,1.2.4-.157.861-.65,1.283-.7.512-.056,1.028.442,1.509.626.806.308,1.654,0,1.695-.951.019-.46-.235-.923-.252-1.381-.024-.635.375-.828.806-1.284.676-.718.91-1.607-.279-1.94-.53-.148-1.285.029-1.722-.347a5.393,5.393,0,0,1-.74-1.431c-.225-.436-1.1-.037-.847.446" transform="translate(-64.736 -80.225)"/>
        <path id="Trazado_1356632" data-name="Trazado 1356632" d="M128.5,121.145c.386.748.629,1.69,1.519,1.915.351.089,1.241-.04,1.5.192.5.45-.509,1.041-.778,1.35-.7.8-.234,1.276-.226,2.222.007.759-.344.4-.882.133a2.289,2.289,0,0,0-1.174-.394,3.549,3.549,0,0,0-1.285.58c-.1.056-.456.323-.544.3-.346-.11-.139-.726-.106-.937a1.915,1.915,0,0,0-.65-2.178c-.14-.131-.523-.375-.592-.555-.217-.561-.077-.284.253-.463.368-.2.914-.068,1.312-.211a1.343,1.343,0,0,0,.814-.673c.126-.208.589-1.576.844-1.277.319.374,1.193-.04.847-.446a1.142,1.142,0,0,0-1.957.212c-.226.358-.327,1.088-.646,1.355-.336.281-1.079.194-1.524.308-.9.232-1.359.957-.7,1.743.285.34.906.63,1.1,1.029.221.461-.068,1.081-.109,1.561-.085,1,.534,1.59,1.54,1.2.4-.157.861-.65,1.283-.7.512-.056,1.028.442,1.509.625.806.308,1.654,0,1.695-.951.019-.46-.235-.923-.252-1.381-.024-.635.376-.828.806-1.284.676-.718.91-1.607-.279-1.94-.53-.148-1.285.029-1.722-.347a5.393,5.393,0,0,1-.74-1.431c-.225-.436-1.1-.037-.847.446" transform="translate(-82.579 -79.937)"/>
        <path id="Trazado_1356633" data-name="Trazado 1356633" d="M155.34,120.713c.386.748.629,1.69,1.519,1.915.351.089,1.241-.04,1.5.192.5.45-.509,1.041-.778,1.35-.7.8-.234,1.276-.226,2.222.007.759-.344.4-.882.133a2.289,2.289,0,0,0-1.174-.394,3.544,3.544,0,0,0-1.285.579c-.1.056-.456.323-.544.3-.346-.11-.139-.726-.106-.937a1.915,1.915,0,0,0-.65-2.178c-.14-.131-.523-.375-.592-.555-.217-.561-.077-.284.253-.463.368-.2.914-.068,1.312-.211a1.342,1.342,0,0,0,.814-.673c.126-.208.589-1.576.844-1.277.318.374,1.193-.04.847-.446a1.142,1.142,0,0,0-1.957.212c-.226.358-.327,1.088-.646,1.355-.336.281-1.079.194-1.524.308-.9.232-1.359.957-.7,1.743.285.34.906.63,1.1,1.029.221.461-.068,1.081-.109,1.561-.085,1,.534,1.59,1.54,1.2.4-.157.861-.65,1.283-.7.512-.056,1.028.442,1.509.626.806.308,1.654,0,1.695-.951.019-.46-.235-.923-.252-1.381-.024-.635.375-.828.806-1.284.676-.718.91-1.607-.279-1.94-.53-.148-1.285.029-1.722-.347a5.393,5.393,0,0,1-.74-1.431c-.225-.436-1.1-.037-.847.446" transform="translate(-100.422 -79.65)"/>
        <path id="Trazado_1356634" data-name="Trazado 1356634" d="M36.9,130.318l-9.016.145.453.37q-.072-4.508-.145-9.016l-.5.419,9.016-.145-.453-.371q.073,4.508.145,9.016c.009.543.964.445.956-.049q-.072-4.508-.145-9.016a.4.4,0,0,0-.453-.37l-9.016.145c-.21,0-.507.18-.5.419q.073,4.508.145,9.016a.4.4,0,0,0,.453.371l9.016-.145c.57-.009.682-.8.05-.79" transform="translate(-18.108 -80.646)"/>
        <path id="Trazado_1356635" data-name="Trazado 1356635" d="M75.66,173.865c.386.748.629,1.69,1.519,1.915.351.089,1.241-.04,1.5.192.5.45-.509,1.041-.778,1.35-.7.8-.234,1.276-.226,2.222.007.759-.344.4-.882.133a2.289,2.289,0,0,0-1.174-.394,3.544,3.544,0,0,0-1.285.579c-.1.056-.456.323-.544.3-.346-.11-.139-.725-.106-.936a1.915,1.915,0,0,0-.65-2.178c-.14-.131-.523-.375-.592-.555-.217-.561-.077-.284.253-.463.368-.2.914-.068,1.312-.211a1.342,1.342,0,0,0,.814-.673c.126-.208.589-1.576.844-1.277.318.374,1.193-.04.847-.446a1.142,1.142,0,0,0-1.957.212c-.226.358-.327,1.088-.646,1.355-.336.281-1.079.194-1.524.308-.9.232-1.359.957-.7,1.743.285.34.906.63,1.1,1.029.221.461-.068,1.081-.109,1.561-.085,1,.534,1.59,1.54,1.2.4-.157.861-.65,1.283-.7.511-.056,1.028.442,1.509.626.806.308,1.654,0,1.695-.951.019-.46-.235-.923-.252-1.381-.024-.635.376-.828.806-1.284.676-.718.91-1.607-.278-1.94-.53-.148-1.285.029-1.722-.347a5.392,5.392,0,0,1-.74-1.431c-.225-.436-1.1-.037-.847.446" transform="translate(-47.448 -114.987)"/>
        <path id="Trazado_1356636" data-name="Trazado 1356636" d="M102.5,173.433c.386.748.629,1.69,1.519,1.915.351.089,1.241-.04,1.5.192.5.45-.509,1.041-.778,1.35-.7.8-.234,1.276-.226,2.222.007.759-.344.4-.882.133a2.289,2.289,0,0,0-1.174-.394,3.544,3.544,0,0,0-1.285.579c-.1.056-.456.323-.544.3-.346-.11-.139-.725-.106-.936a1.915,1.915,0,0,0-.65-2.178c-.14-.131-.523-.375-.592-.555-.217-.561-.077-.284.253-.463.368-.2.914-.068,1.312-.212a1.341,1.341,0,0,0,.814-.672c.126-.208.589-1.577.844-1.277.319.374,1.193-.04.847-.446a1.142,1.142,0,0,0-1.957.212c-.226.358-.327,1.088-.646,1.355-.336.281-1.079.194-1.524.308-.9.232-1.359.957-.7,1.743.285.34.906.63,1.1,1.029.221.461-.068,1.081-.109,1.561-.085,1,.534,1.59,1.54,1.2.4-.157.861-.65,1.283-.7.512-.056,1.028.442,1.509.626.806.308,1.654,0,1.695-.951.019-.459-.235-.923-.252-1.381-.024-.635.376-.828.806-1.284.676-.718.91-1.607-.279-1.94-.53-.148-1.285.029-1.722-.347a5.393,5.393,0,0,1-.74-1.431c-.225-.436-1.1-.037-.847.446" transform="translate(-65.291 -114.699)"/>
        <path id="Trazado_1356637" data-name="Trazado 1356637" d="M129.338,173c.386.748.629,1.69,1.519,1.915.351.089,1.241-.04,1.5.192.5.45-.509,1.041-.778,1.35-.7.8-.234,1.276-.226,2.222.007.759-.344.4-.882.133a2.289,2.289,0,0,0-1.174-.394,3.544,3.544,0,0,0-1.285.579c-.1.056-.456.323-.544.3-.346-.11-.139-.726-.106-.937a1.915,1.915,0,0,0-.65-2.178c-.14-.131-.523-.375-.592-.555-.217-.561-.077-.284.253-.463.368-.2.914-.068,1.312-.211a1.343,1.343,0,0,0,.814-.673c.126-.208.589-1.576.844-1.277.319.374,1.193-.04.847-.446a1.142,1.142,0,0,0-1.957.212c-.226.358-.327,1.088-.646,1.355-.336.281-1.079.194-1.524.308-.9.232-1.359.957-.7,1.743.285.34.906.63,1.1,1.029.221.461-.068,1.081-.109,1.561-.085,1,.534,1.59,1.54,1.2.4-.157.861-.65,1.283-.7.512-.056,1.028.442,1.509.626.806.308,1.654,0,1.695-.951.019-.46-.235-.923-.252-1.381-.024-.635.376-.828.806-1.284.676-.718.909-1.607-.279-1.94-.53-.148-1.285.029-1.722-.347a5.393,5.393,0,0,1-.74-1.431c-.225-.436-1.1-.037-.847.446" transform="translate(-83.135 -114.412)"/>
        <path id="Trazado_1356638" data-name="Trazado 1356638" d="M37.738,182.172l-9.016.145.453.37q-.073-4.508-.145-9.016l-.5.419,9.016-.145-.453-.371q.073,4.508.145,9.016c.009.543.964.445.956-.049q-.072-4.508-.145-9.016a.4.4,0,0,0-.453-.37l-9.016.145c-.21,0-.507.179-.5.419q.073,4.508.145,9.016a.4.4,0,0,0,.453.371l9.016-.145c.57-.009.682-.8.05-.79" transform="translate(-18.664 -115.12)"/>
        <path id="Trazado_1356639" data-name="Trazado 1356639" d="M76.5,225.72c.386.748.629,1.69,1.519,1.916.351.089,1.241-.041,1.5.191.5.45-.509,1.041-.778,1.35-.7.8-.234,1.276-.226,2.222.007.759-.344.4-.882.133a2.289,2.289,0,0,0-1.174-.395,3.544,3.544,0,0,0-1.285.58c-.1.056-.456.323-.544.3-.346-.11-.139-.726-.106-.937a1.915,1.915,0,0,0-.65-2.178c-.14-.131-.523-.375-.592-.555-.217-.561-.077-.284.253-.463.368-.2.914-.068,1.312-.211a1.342,1.342,0,0,0,.814-.673c.126-.208.589-1.576.844-1.277.318.374,1.193-.04.847-.446a1.142,1.142,0,0,0-1.957.212c-.226.358-.327,1.088-.646,1.355-.336.281-1.079.194-1.524.308-.9.232-1.359.957-.7,1.743.285.34.906.63,1.1,1.029.221.461-.068,1.081-.109,1.561-.085,1,.534,1.59,1.54,1.2.4-.157.861-.65,1.283-.7.512-.056,1.028.442,1.509.625.806.308,1.654,0,1.695-.951.019-.46-.235-.923-.252-1.381-.024-.635.375-.828.806-1.284.676-.718.91-1.607-.279-1.94-.53-.148-1.285.029-1.722-.347a5.393,5.393,0,0,1-.74-1.431c-.225-.436-1.1-.037-.847.446" transform="translate(-48.004 -149.462)"/>
        <path id="Trazado_1356640" data-name="Trazado 1356640" d="M103.335,225.287c.386.748.629,1.69,1.519,1.915.351.089,1.241-.04,1.5.192.5.45-.509,1.041-.778,1.35-.7.8-.234,1.276-.226,2.222.007.759-.344.4-.882.133a2.289,2.289,0,0,0-1.174-.395,3.544,3.544,0,0,0-1.285.579c-.1.056-.456.323-.544.3-.346-.11-.139-.726-.106-.937a1.915,1.915,0,0,0-.65-2.178c-.14-.131-.523-.375-.592-.555-.217-.561-.077-.284.253-.463.368-.2.914-.068,1.312-.212a1.342,1.342,0,0,0,.814-.672c.126-.208.589-1.577.844-1.277.319.374,1.193-.04.847-.446a1.142,1.142,0,0,0-1.957.212c-.226.358-.327,1.088-.646,1.355-.336.281-1.079.194-1.524.308-.9.232-1.359.957-.7,1.743.285.34.906.63,1.1,1.029.221.461-.068,1.081-.109,1.561-.085,1,.534,1.589,1.54,1.2.4-.157.861-.65,1.283-.7.512-.056,1.028.442,1.509.626.806.308,1.654,0,1.695-.951.019-.459-.235-.923-.252-1.381-.024-.635.376-.828.806-1.284.676-.718.91-1.607-.279-1.94-.53-.148-1.285.029-1.722-.347a5.393,5.393,0,0,1-.74-1.431c-.225-.436-1.1-.037-.847.446" transform="translate(-65.847 -149.174)"/>
        <path id="Trazado_1356641" data-name="Trazado 1356641" d="M38.574,234.027l-9.016.145.453.37q-.072-4.508-.145-9.016l-.5.419,9.016-.145-.453-.371q.073,4.508.145,9.016c.009.543.964.445.957-.049q-.073-4.508-.145-9.016a.4.4,0,0,0-.453-.37l-9.016.145c-.21,0-.507.18-.5.419q.073,4.508.145,9.016a.4.4,0,0,0,.453.371l9.016-.145c.57-.009.682-.8.05-.79" transform="translate(-19.22 -149.596)"/>
        <path id="Trazado_1356642" data-name="Trazado 1356642" d="M77.333,277.574c.386.748.629,1.69,1.519,1.916.351.089,1.241-.041,1.5.191.5.45-.509,1.041-.778,1.35-.7.8-.234,1.276-.226,2.222.007.759-.344.4-.882.133a2.289,2.289,0,0,0-1.174-.394,3.55,3.55,0,0,0-1.285.579c-.1.056-.456.323-.544.3-.346-.11-.139-.726-.106-.937a1.915,1.915,0,0,0-.65-2.178c-.14-.131-.523-.375-.592-.555-.217-.561-.077-.284.253-.463.368-.2.914-.068,1.312-.211a1.342,1.342,0,0,0,.814-.673c.126-.207.589-1.576.844-1.277.318.374,1.193-.04.847-.446a1.142,1.142,0,0,0-1.957.212c-.226.358-.327,1.088-.646,1.355-.336.281-1.079.194-1.524.308-.9.232-1.359.957-.7,1.743.285.34.906.63,1.1,1.029.221.461-.068,1.081-.109,1.561-.085,1,.534,1.59,1.54,1.2.4-.158.861-.651,1.283-.7.512-.056,1.028.442,1.509.626.806.308,1.654,0,1.695-.951.019-.46-.235-.923-.252-1.381-.024-.635.376-.828.806-1.284.676-.718.909-1.607-.279-1.94-.53-.148-1.285.029-1.722-.347a5.393,5.393,0,0,1-.74-1.431c-.225-.436-1.1-.037-.847.446" transform="translate(-48.56 -183.937)"/>
        <path id="Trazado_1356643" data-name="Trazado 1356643" d="M39.41,285.881l-9.016.145.453.37q-.072-4.508-.145-9.016l-.5.419,9.016-.145-.453-.37q.073,4.508.145,9.016c.009.543.964.445.956-.049q-.072-4.508-.145-9.016a.4.4,0,0,0-.453-.37l-9.016.145c-.21,0-.507.179-.5.419q.073,4.508.145,9.016a.4.4,0,0,0,.453.37l9.016-.145c.57-.009.682-.8.051-.79" transform="translate(-19.776 -184.07)"/>
        <path id="Trazado_1356644" data-name="Trazado 1356644" d="M97.7,25.768c-.039,0-.09-.2-.15-.566-.037-.182-.049-.408-.112-.664l-.2-.872a11.361,11.361,0,0,0-2.5-4.588,11.2,11.2,0,0,0-2.553-2.065l-.373-.211a2.922,2.922,0,0,0-.383-.2l-.794-.35-.828-.276c-.278-.087-.568-.135-.85-.205a14.619,14.619,0,0,0-3.509-.191L82,15.649l-3.389.048a10.815,10.815,0,0,0-3.259.586,10.129,10.129,0,0,0-2.877,1.534,5.669,5.669,0,0,0-.617.5c-.192.178-.393.343-.572.525l-.514.558a2.453,2.453,0,0,0-.238.285l-.222.291a11.075,11.075,0,0,0-2,4.357c-.06.3-.114.564-.161.8l-.076.605c-.048.332-.092.514-.13.515s-.07-.181-.094-.522c-.011-.171-.025-.381-.029-.627.019-.246.04-.527.064-.84a10.429,10.429,0,0,1,.5-2.192,5.318,5.318,0,0,1,.242-.62c.092-.208.176-.428.283-.643a11.581,11.581,0,0,1,.765-1.29l.224-.324a2.648,2.648,0,0,1,.241-.318l.528-.626c.186-.2.395-.393.6-.593a6.212,6.212,0,0,1,.649-.563A10.738,10.738,0,0,1,75,15.318a11.476,11.476,0,0,1,3.581-.712c1.167-.036,2.3-.051,3.4-.071l3.451-.044a15.033,15.033,0,0,1,3.744.279c.31.083.625.146.928.249l.9.327c.289.131.572.272.856.408a3.308,3.308,0,0,1,.411.228l.4.242a11.579,11.579,0,0,1,2.668,2.339,10.894,10.894,0,0,1,2.323,5.01l.105.922a5.613,5.613,0,0,1,.008.692c-.011.378-.035.581-.073.582" transform="translate(-45.089 -9.627)"/>
        <path id="Trazado_1356645" data-name="Trazado 1356645" d="M104.367,1.123a3.093,3.093,0,0,1,1.172.952,5.755,5.755,0,0,1,.768,1.412,12,12,0,0,1,.464,1.507c.019.079.034.153.052.231.158.017.315.033.472.054.062.008.123.02.183.034-.02-.147-.042-.3-.068-.45a10.8,10.8,0,0,0-.4-1.632,6.119,6.119,0,0,0-.821-1.644,3.8,3.8,0,0,0-1.469-1.23A4.042,4.042,0,0,0,102.944,0a4.825,4.825,0,0,0-1.726.334,3.716,3.716,0,0,0-1.448,1.123,5.234,5.234,0,0,0-.813,1.536,6.618,6.618,0,0,0-.322,1.544c-.037.393-.052.761-.056,1.1A2.321,2.321,0,0,1,99,5.628c.039-.319.088-.66.155-1.017a7.239,7.239,0,0,1,.4-1.392,4.764,4.764,0,0,1,.775-1.292,3.05,3.05,0,0,1,1.184-.849,4.3,4.3,0,0,1,1.43-.238,3.371,3.371,0,0,1,1.414.283" transform="translate(-65.539 0)"/>
        <path id="Trazado_1356646" data-name="Trazado 1356646" d="M110.627,6.973a1.122,1.122,0,1,1-1.14-1.1,1.122,1.122,0,0,1,1.14,1.1" transform="translate(-72.057 -3.902)"/>
        <path id="Trazado_1356647" data-name="Trazado 1356647" d="M110.627,6.973a1.122,1.122,0,1,1-1.14-1.1A1.122,1.122,0,0,1,110.627,6.973Z" transform="translate(-72.057 -3.902)" fill="none" stroke="#201600" stroke-linecap="round" stroke-linejoin="round" stroke-width="1.653"/>
        <path id="Trazado_1356648" data-name="Trazado 1356648" d="M38.633,56.366c.033.038-.009.165-.123.353s-.308.429-.54.737l-.83,1.076-.483.652-.508.719-.518.778c-.166.272-.349.542-.514.828-.335.568-.671,1.156-.964,1.762s-.567,1.219-.8,1.824c-.119.3-.212.607-.32.9-.085.3-.177.59-.252.873l-.17.725-.129.747-.007.041a.814.814,0,0,1-1.61-.045,14.153,14.153,0,0,0-.268-1.653,12.95,12.95,0,0,0-.474-1.606c-.188-.519-.4-1.019-.622-1.495s-.461-.919-.691-1.33-.467-.781-.677-1.112l-.562-.86c-.3-.493-.485-.783-.431-.833s.334.146.788.521c.226.189.48.436.767.722s.592.627.909,1.01a14.936,14.936,0,0,1,.955,1.285c.162.233.307.486.461.741.135.264.285.528.408.81a12.2,12.2,0,0,1,.663,1.758,13.033,13.033,0,0,1,.394,1.856l-1.617,0q.062-.435.124-.862c.057-.28.12-.554.18-.825.082-.321.184-.646.284-.979.121-.324.233-.662.372-.991a17.206,17.206,0,0,1,.955-1.949,19.235,19.235,0,0,1,1.16-1.81c.2-.287.419-.554.623-.822s.427-.511.632-.754l.626-.677.6-.592a13.787,13.787,0,0,1,1.072-.91c.624-.487,1.074-.683,1.14-.608" transform="translate(-18.035 -37.464)"/>
      </g>
    </g>
  </g>
</svg>
