<svg xmlns="http://www.w3.org/2000/svg" xmlns:xlink="http://www.w3.org/1999/xlink" width="126.096" height="92.101" viewBox="0 0 126.096 92.101">
  <defs>
    <clipPath id="clip-path">
      <rect id="Rectángulo_457695" data-name="Rectángulo 457695" width="126.096" height="92.101" fill="none"/>
    </clipPath>
  </defs>
  <g id="Grupo_1207599" data-name="Grupo 1207599" transform="translate(-1236.711 -1824)">
    <g id="Grupo_1207459" data-name="Grupo 1207459" transform="translate(1236.711 1824)">
      <g id="Grupo_1207458" data-name="Grupo 1207458" clip-path="url(#clip-path)">
        <path id="Trazado_1356649" data-name="Trazado 1356649" d="M238.068,37.569a13.1,13.1,0,0,0-3.355.429,3.882,3.882,0,0,0-1.29-.747c-.052-.018-.436-.171-.571-.219-.111-.058-.333-.17-.366-.187-.349-.185-1.011-.59-1.212-.727.019.009-.329-.268-.369-.3-.215-.188-.424-.383-.625-.587-.077-.078-.143-.146-.2-.212-.03-.685-.048-1.37-.044-2.059a3.33,3.33,0,0,0-6.659,0q-.017.727-.063,1.434c-1.561,1.214-3.166,2.4-4.718,3.645-2.285-.748-4.925-1-6.918.536a3.35,3.35,0,0,0,.8,6.085q1.105.446,2.251.8a8.074,8.074,0,0,0,.457,1.091c.74,1.46,1.5,2.908,2.257,4.36-.341.489-.683.952-1.022,1.372a3.43,3.43,0,0,0,0,4.709c1.167,1.167,3.574,1.407,4.709,0q.837-1.038,1.6-2.121c1.714.227,3.43.447,5.144.67.364.047.731.095,1.1.131.131.247.258.5.393.742a3.384,3.384,0,0,0,3.76,1.53,3.446,3.446,0,0,0,2.444-3.211,7.472,7.472,0,0,0-.895-3.944,10.4,10.4,0,0,1,.283-1.157c.038-.121.259-.715.245-.711.136-.306.287-.606.446-.9q.274-.5.587-.985c.09-.137.185-.27.277-.406.035-.051.057-.085.071-.109h0a13.427,13.427,0,0,1,1.586-1.653q.163-.144.331-.283c.046-.035.1-.078.15-.11.363-.246.728-.48,1.107-.7a3.356,3.356,0,0,0-1.68-6.2m.381,7.048h0" transform="translate(-128.458 -18.117)" fill="#f0b068"/>
        <path id="Trazado_1356650" data-name="Trazado 1356650" d="M27.5,174.263c16.192.215,32.386.294,48.579.423,7.682.061,15.377.009,23.052.361,6.007.275,13.938.787,17.606-5,2.5-3.949,2.241-9.1,2.3-13.586q.1-7.941-.216-15.879a3.329,3.329,0,1,0-6.659,0q.265,6.834.235,13.673c-.011,2.138-.029,4.28-.1,6.417-.03.864-.074,1.729-.175,2.588-.047.4-.007.044,0-.03-.037.225-.075.451-.12.675a13.086,13.086,0,0,1-.381,1.473c-.052.159-.1.317-.164.474.175-.462-.02.04-.062.116a9.834,9.834,0,0,1-.59.993c-.313.439.281-.28-.1.108a2.77,2.77,0,0,0-.321.323c-.212.312.3-.3.294-.213,0,.052-.364.239-.426.276-.216.127-.447.219-.664.34.766-.425,0-.026-.28.059a17.082,17.082,0,0,1-1.971.437c-.164.03-.636.052.084-.009-.138.012-.274.033-.411.045-.327.028-.652.061-.979.083-.77.052-1.541.076-2.312.084-1.482.015-2.965-.035-4.445-.1-7.339-.331-14.692-.3-22.038-.358q-11.282-.091-22.565-.162-13.583-.1-27.165-.27a3.33,3.33,0,1,0,0,6.659" transform="translate(-14.777 -83.937)" fill="#d7d7d7"/>
        <line id="Línea_3843" data-name="Línea 3843" x2="71.025" transform="translate(2.095 22.345)" fill="none" stroke="#d7d7d7" stroke-miterlimit="10" stroke-width="13.714"/>
        <path id="Trazado_1356651" data-name="Trazado 1356651" d="M229.343,50.638q-1.455,2.393-2.909,4.786c-.41.676-.183.835.238.143q1.456-2.392,2.905-4.789c.4-.662.178-.818-.234-.14" transform="translate(-138.344 -30.699)"/>
        <path id="Trazado_1356652" data-name="Trazado 1356652" d="M245.3,39.074c-3.357,5.233-6.473,10.617-9.294,16.157-.44.865.2.261.423-.18,2.732-5.313,5.688-10.5,8.91-15.532.254-.4.475-1.247-.039-.446" transform="translate(-144.239 -23.693)"/>
        <path id="Trazado_1356653" data-name="Trazado 1356653" d="M247.835,47.589c-3.444,5.547-6.832,11.135-10.072,16.8-.4.7-.176.86.243.146,3.3-5.636,6.625-11.255,10.062-16.81.408-.659.185-.813-.233-.14" transform="translate(-145.278 -28.837)"/>
        <path id="Trazado_1356654" data-name="Trazado 1356654" d="M264.248,49.931q-2.293,3.278-4.329,6.724c-.4.687-.177.848.24.145,1.3-2.191,2.671-4.333,4.128-6.423.272-.39.506-1.225-.039-.446" transform="translate(-158.825 -30.339)"/>
        <path id="Trazado_1356655" data-name="Trazado 1356655" d="M272.51,53.065A70.134,70.134,0,0,0,268,59.678c-.411.684-.184.843.241.145a68.858,68.858,0,0,1,4.121-6.048c.171-.223.667-1.381.153-.711" transform="translate(-163.761 -32.326)"/>
        <path id="Trazado_1356656" data-name="Trazado 1356656" d="M228.384,29.837l1.922,3.9c.648,1.313,1.153,2.879,2.684,3.382a25.754,25.754,0,0,0,4.254.665c1.445.21,4.133.124,4.017,2.24-.074,1.361-2,2.641-2.887,3.5-.931.908-2.545,2.032-2.961,3.329-.4,1.243.184,2.94.4,4.171.217,1.265,1.153,3.827.2,4.961-1.2,1.434-3.6-.451-4.8-1.081-1.156-.608-2.549-1.646-3.886-1.8-1.509-.174-3.013.952-4.283,1.619l-2.158,1.135c-.618.325-1.36.862-2.094.691-2.115-.493-1.012-3.622-.773-5.014a15.515,15.515,0,0,0,.593-4.175c-.178-1.436-1.736-2.533-2.7-3.475L213.981,42a4.938,4.938,0,0,1-1.163-1.3c-1.213-2.652,2.583-2.733,4.109-2.954,1.445-.21,3.651-.152,4.882-1.076s1.837-3,2.481-4.309c.381-.773.728-1.583,1.152-2.334a1.63,1.63,0,0,1,3.012-.057c.343.6,1.582.155,1.177-.55a3.1,3.1,0,0,0-5.185-.272,34.831,34.831,0,0,0-2.147,4.3,19.513,19.513,0,0,1-.886,1.794c-.567.9-1.326.942-2.238,1.075-1.752.255-3.533.435-5.272.766-1.9.362-3.3,2.3-2.263,4.168.687,1.239,2.131,2.256,3.126,3.226,1.177,1.147,2.7,2.112,2.429,3.931s-.621,3.614-.929,5.419c-.321,1.875.559,3.694,2.659,3.844,1.559.111,3.274-1.2,4.582-1.886,1.289-.678,2.906-1.994,4.375-1.332,1.638.738,3.209,1.687,4.8,2.524s3.569,1.069,4.687-.7c.845-1.336.133-3.349-.112-4.779-.262-1.526-1.144-3.83-.028-5.145,1.09-1.285,2.467-2.4,3.674-3.581,1.338-1.3,2.568-3.069.944-4.781-1.2-1.261-3.668-1.178-5.259-1.409-.882-.128-1.791-.2-2.664-.387-1.077-.226-1.388-.9-1.812-1.76L229.7,29.548c-.3-.618-1.644-.38-1.314.29" transform="translate(-129.212 -17.045)"/>
        <path id="Trazado_1356657" data-name="Trazado 1356657" d="M195.029,49.942a30.48,30.48,0,0,1-3.77,1.783c-2.4,1.056-5.83,2.534-10.006,4.29a.506.506,0,0,1-.679-.616l.005-.017c1.358-4.347,2.979-9.473,4.771-15.093l.056.576A27.006,27.006,0,0,1,181.834,25.7a26.4,26.4,0,0,1,.56-4.137,25.848,25.848,0,0,1,1.21-4.058,27.366,27.366,0,0,1,34.5-16.006l.442.15.435.171.872.347c.569.262,1.152.5,1.709.806a26.183,26.183,0,0,1,3.276,1.97,27.459,27.459,0,0,1,9.665,12.1,27.813,27.813,0,0,1,1.224,3.768,29.42,29.42,0,0,1,.665,3.9,27.834,27.834,0,0,1-.367,7.793l-.088.476c-.033.158-.073.314-.11.471q-.112.47-.225.938c-.183.615-.343,1.235-.565,1.834a26.062,26.062,0,0,1-1.478,3.489l-.434.831-.471.8c-.152.27-.322.529-.491.787s-.331.52-.511.769a28.933,28.933,0,0,1-2.27,2.838,27.31,27.31,0,0,1-2.557,2.446c-.435.386-.905.723-1.356,1.075-.229.172-.467.329-.7.493s-.462.328-.7.472a26.621,26.621,0,0,1-11.6,4.121,27.547,27.547,0,0,1-5.249.065,26.445,26.445,0,0,1-4.43-.774,24.342,24.342,0,0,1-5.888-2.4c-.323-.181-.6-.355-.838-.509l-.328-.213-.247-.182c-.3-.224-.462-.365-.459-.4s.177.03.536.2l.3.151.35.166c.251.123.541.265.875.413a28.342,28.342,0,0,0,5.885,1.98,27.038,27.038,0,0,0,4.308.571,27.462,27.462,0,0,0,5.037-.23,26.254,26.254,0,0,0,5.469-1.379A25.966,25.966,0,0,0,223.256,49c.226-.141.438-.3.656-.461s.438-.312.651-.479c.418-.343.856-.668,1.259-1.041a25.958,25.958,0,0,0,2.365-2.35,27.606,27.606,0,0,0,2.087-2.7c.165-.236.31-.486.467-.729s.311-.489.449-.745l.43-.761.394-.785a24.44,24.44,0,0,0,1.334-3.283c.2-.561.34-1.143.5-1.719l.2-.878c.032-.147.068-.293.1-.44l.076-.445a26.2,26.2,0,0,0,.258-7.266,27.808,27.808,0,0,0-.654-3.613,26.123,26.123,0,0,0-1.165-3.484A25.659,25.659,0,0,0,223.649,6.65a24.332,24.332,0,0,0-3.032-1.814c-.515-.278-1.054-.5-1.579-.743l-.806-.319-.4-.158-.408-.138A25.523,25.523,0,0,0,210.217,2.1a27.6,27.6,0,0,0-3.811.107,27.243,27.243,0,0,0-3.817.69,25.439,25.439,0,0,0-7.224,3.151,25.578,25.578,0,0,0-10.071,12.127,24.31,24.31,0,0,0-1.18,3.775,24.873,24.873,0,0,0-.58,3.867,25.686,25.686,0,0,0,3.118,14.346l.007.014a.7.7,0,0,1,.049.562c-1.909,5.58-3.662,10.664-5.161,14.964l-.674-.633c4.366-1.669,7.918-2.991,10.366-3.879a24.883,24.883,0,0,1,3.789-1.248" transform="translate(-110.417 0)"/>
        <path id="Trazado_1356658" data-name="Trazado 1356658" d="M102.444,71.363V98.5a9.7,9.7,0,0,1-2.829,7.368,9.071,9.071,0,0,1-6.357,2.4c-2.484.008-4.968,0-7.452,0H11.338a9.123,9.123,0,0,1-9.477-9.14c-.092-8.355,0-16.716,0-25.071V42.307c0-.952-.011-1.9,0-2.855A9.2,9.2,0,0,1,6.43,31.414C9.049,29.94,12.245,30.3,15.145,30.3H77.532a.736.736,0,1,0,0-1.454H19.666c-2.9,0-5.8-.013-8.705,0A10.716,10.716,0,0,0,.044,39.451c-.1,8.692,0,17.391,0,26.084V97.163c0,.7-.011,1.4,0,2.1a10.592,10.592,0,0,0,5.926,9.388c2.627,1.28,5.458,1.079,8.28,1.079H91.3c.735,0,1.47.008,2.2,0a10.93,10.93,0,0,0,8.021-3.455c3.44-3.733,2.739-8.894,2.739-13.56V71.363c0-.96-1.817-.963-1.817,0" transform="translate(0 -17.636)"/>
        <path id="Trazado_1356659" data-name="Trazado 1356659" d="M1.105,62.382H71.967a.736.736,0,1,0,0-1.454H1.105a.736.736,0,1,0,0,1.454" transform="translate(-0.153 -37.261)"/>
        <path id="Trazado_1356660" data-name="Trazado 1356660" d="M27.1,43c-.067,1.247-1.676,1.468-2.6,1.046a2.306,2.306,0,0,1-1.349-2.084c.006-1.2,1.609-1.44,2.492-1.091A2.338,2.338,0,0,1,27.1,43c.009.166.356-.286.37-.306a1.431,1.431,0,0,0,.334-.731,2.4,2.4,0,0,0-3.35-2.157A3.824,3.824,0,0,0,22.439,43a2.39,2.39,0,0,0,3.237,2.2A3.826,3.826,0,0,0,27.8,41.962c.009-.16-.359.29-.37.306A1.567,1.567,0,0,0,27.1,43" transform="translate(-13.723 -24.211)"/>
        <path id="Trazado_1356661" data-name="Trazado 1356661" d="M43.883,43c-.067,1.247-1.676,1.468-2.6,1.046a2.306,2.306,0,0,1-1.349-2.084c.006-1.2,1.609-1.44,2.492-1.091A2.338,2.338,0,0,1,43.883,43c.009.166.356-.286.37-.306a1.431,1.431,0,0,0,.334-.731,2.4,2.4,0,0,0-3.35-2.157A3.825,3.825,0,0,0,39.225,43a2.39,2.39,0,0,0,3.237,2.2,3.826,3.826,0,0,0,2.125-3.238c.009-.16-.359.29-.371.306a1.566,1.566,0,0,0-.333.731" transform="translate(-23.988 -24.211)"/>
        <path id="Trazado_1356662" data-name="Trazado 1356662" d="M60.67,43c-.067,1.247-1.676,1.468-2.6,1.046a2.306,2.306,0,0,1-1.349-2.084c.006-1.2,1.609-1.44,2.492-1.091A2.338,2.338,0,0,1,60.67,43c.009.166.356-.286.37-.306a1.43,1.43,0,0,0,.334-.731,2.4,2.4,0,0,0-3.35-2.157A3.825,3.825,0,0,0,56.012,43a2.39,2.39,0,0,0,3.237,2.2,3.826,3.826,0,0,0,2.125-3.238c.009-.16-.359.29-.371.306A1.566,1.566,0,0,0,60.67,43" transform="translate(-34.254 -24.211)"/>
        <line id="Línea_3844" data-name="Línea 3844" x2="41.661" transform="translate(11.465 33.349)"/>
        <path id="Trazado_1356663" data-name="Trazado 1356663" d="M71.176,85.03c0,.288-12.826.522-21.476.522s-20.184-.234-20.184-.522,11.534-.522,20.184-.522,21.476.234,21.476.522" transform="translate(-18.05 -51.681)"/>
        <line id="Línea_3845" data-name="Línea 3845" x2="59.571" transform="translate(11.465 41.915)"/>
        <path id="Trazado_1356664" data-name="Trazado 1356664" d="M89.086,107.082c0,.288-18.34.522-30.709.522s-28.862-.234-28.862-.522,16.492-.522,28.862-.522,30.709.234,30.709.522" transform="translate(-18.05 -65.167)"/>
        <line id="Línea_3846" data-name="Línea 3846" x2="68.894" transform="translate(11.465 61.124)"/>
        <path id="Trazado_1356665" data-name="Trazado 1356665" d="M98.409,156.533c0,.288-21.21.522-35.516.522s-33.379-.234-33.379-.522,19.073-.522,33.379-.522,35.516.234,35.516.522" transform="translate(-18.05 -95.409)"/>
        <line id="Línea_3847" data-name="Línea 3847" x2="40.081" transform="translate(11.465 70.209)"/>
        <path id="Trazado_1356666" data-name="Trazado 1356666" d="M69.6,179.922c0,.288-12.339.522-20.662.522s-19.419-.234-19.419-.522,11.1-.522,19.419-.522,20.662.234,20.662.522" transform="translate(-18.05 -109.713)"/>
        <line id="Línea_3848" data-name="Línea 3848" x2="10.748" transform="translate(84.926 61.124)"/>
        <path id="Trazado_1356667" data-name="Trazado 1356667" d="M229.379,156.533c0,.288-3.309.522-5.541.522s-5.208-.234-5.208-.522,2.975-.522,5.208-.522,5.541.234,5.541.522" transform="translate(-133.705 -95.409)"/>
        <line id="Línea_3849" data-name="Línea 3849" x2="23.727" transform="translate(11.465 51.519)"/>
        <path id="Trazado_1356668" data-name="Trazado 1356668" d="M53.242,131.807c0,.288-7.3.522-12.232.522s-11.5-.234-11.5-.522,6.569-.522,11.5-.522,12.232.234,12.232.522" transform="translate(-18.05 -80.288)"/>
        <line id="Línea_3850" data-name="Línea 3850" x2="23.727" transform="translate(41.057 51.519)"/>
        <path id="Trazado_1356669" data-name="Trazado 1356669" d="M129.423,131.807c0,.288-7.3.522-12.232.522s-11.5-.234-11.5-.522,6.569-.522,11.5-.522,12.232.234,12.232.522" transform="translate(-64.639 -80.288)"/>
        <line id="Línea_3851" data-name="Línea 3851" x2="15.574" transform="translate(57.019 33.349)"/>
        <path id="Trazado_1356670" data-name="Trazado 1356670" d="M162.362,85.03c0,.288-4.795.522-8.028.522s-7.546-.234-7.546-.522,4.312-.522,7.546-.522,8.028.234,8.028.522" transform="translate(-89.769 -51.681)"/>
      </g>
    </g>
  </g>
</svg>
