<svg xmlns="http://www.w3.org/2000/svg" xmlns:xlink="http://www.w3.org/1999/xlink" width="83.499" height="84.288" viewBox="0 0 83.499 84.288">
  <defs>
    <clipPath id="clip-path">
      <rect id="Rectángulo_456684" data-name="Rectángulo 456684" width="83.499" height="84.288" fill="#dfdfa4"/>
    </clipPath>
  </defs>
  <g id="Grupo_1207589" data-name="Grupo 1207589" transform="translate(-220.501 -1811.862)">
    <g id="Grupo_1206995" data-name="Grupo 1206995" transform="translate(35.871 1494.862)">
      <g id="Grupo_1206676" data-name="Grupo 1206676" transform="translate(184.63 317)">
        <g id="Grupo_1206514" data-name="Grupo 1206514">
          <g id="Grupo_1206513" data-name="Grupo 1206513" clip-path="url(#clip-path)">
            <path id="Trazado_1294880" data-name="Trazado 1294880" d="M176.031,89.78c-.1-.657-.543-.29-.44-.308-.025.39.368.25.44.308" transform="translate(-92.532 -47.108)" fill="#dfdfa4"/>
            <path id="Trazado_1294881" data-name="Trazado 1294881" d="M172.186,75.475l.179.085-.554-.848Z" transform="translate(-90.548 -39.375)" fill="#dfdfa4"/>
            <path id="Trazado_1294882" data-name="Trazado 1294882" d="M170.225,67.512l.637.345c-.193-.615-.445-1.313-.706-1.954a6.487,6.487,0,0,1-.514-1.7c-.5.727.717,2.011.694,3.106Z" transform="translate(-89.342 -33.837)" fill="#dfdfa4"/>
            <path id="Trazado_1294883" data-name="Trazado 1294883" d="M170.37,57.373c-.052-.121-.118-.29-.213-.584-.17.284-.468-.57.2.735a1.123,1.123,0,0,1,.012-.151" transform="translate(-89.563 -29.921)" fill="#dfdfa4"/>
            <path id="Trazado_1294884" data-name="Trazado 1294884" d="M170.847,57.9c.253.592.052-.471,0,0" transform="translate(-90.04 -30.451)" fill="#dfdfa4"/>
            <path id="Trazado_1294885" data-name="Trazado 1294885" d="M168.683,51.778c-.478-.744-.541-.509-.569.047l.562.674c.07-.224-.211-.93.007-.72" transform="translate(-88.6 -27.041)" fill="#dfdfa4"/>
            <path id="Trazado_1294886" data-name="Trazado 1294886" d="M166.736,51.676c.027-.1,0-.213-.278-.346l.143.171.135.175" transform="translate(-87.727 -27.052)" fill="#dfdfa4"/>
            <path id="Trazado_1294887" data-name="Trazado 1294887" d="M167.2,52.413c-.212.016.036.1.327.4l-.57-.75c-.048.158-.242.261.243.352" transform="translate(-87.949 -27.437)" fill="#dfdfa4"/>
            <path id="Trazado_1294888" data-name="Trazado 1294888" d="M168.13,54.74c.065.485.194,1.08-.338.4.674,1.434,1.048,1.043.338-.4" transform="translate(-88.43 -28.849)" fill="#dfdfa4"/>
            <path id="Trazado_1294889" data-name="Trazado 1294889" d="M168.51,65.112a1.766,1.766,0,0,1-.162-.655c-.042-.252-.1-.462-.19-.412l0,.315c0,.157-.009.317-.009.317Z" transform="translate(-88.619 -33.749)" fill="#dfdfa4"/>
            <path id="Trazado_1294890" data-name="Trazado 1294890" d="M163.28,43.3c-.066-.332-.324-.887-.166-1.038-.15.032-.171.443-.294.591,0,0,.121.107.234.22l.226.227" transform="translate(-85.81 -22.272)" fill="#dfdfa4"/>
            <path id="Trazado_1294891" data-name="Trazado 1294891" d="M162.031,42.789l-.707-.646c.42.708.6.773.707.646" transform="translate(-85.021 -22.21)" fill="#dfdfa4"/>
            <path id="Trazado_1294892" data-name="Trazado 1294892" d="M165.3,52.028l.544.575-.607-.7c-.148-.177-.313-.344-.431-.471l-.2-.21.136.252s.292.271.557.559" transform="translate(-86.751 -26.993)" fill="#dfdfa4"/>
            <path id="Trazado_1294893" data-name="Trazado 1294893" d="M159.339,35.963l-.479-.239-.493-.221.392.224Z" transform="translate(-83.464 -18.711)" fill="#dfdfa4"/>
            <path id="Trazado_1294894" data-name="Trazado 1294894" d="M154.746,30.5c.47.123,0-.712.4-.5a4.949,4.949,0,0,0-1.5-.957,3.3,3.3,0,0,1,1.094,1.461" transform="translate(-80.978 -15.302)" fill="#dfdfa4"/>
            <path id="Trazado_1294895" data-name="Trazado 1294895" d="M151.959,28.207a6.326,6.326,0,0,0,.8.392,3.027,3.027,0,0,0-.8-.392" transform="translate(-80.086 -14.866)" fill="#dfdfa4"/>
            <path id="Trazado_1294896" data-name="Trazado 1294896" d="M159.279,37.542l-.117.533.206.3a1,1,0,0,0-.089-.833" transform="translate(-83.882 -19.785)" fill="#dfdfa4"/>
            <path id="Trazado_1294897" data-name="Trazado 1294897" d="M158.677,37.942l-.437-.652.433.67Z" transform="translate(-83.396 -19.653)" fill="#dfdfa4"/>
            <path id="Trazado_1294898" data-name="Trazado 1294898" d="M159.642,39.379l-.052-.076c-.012.052-.011.076.052.076" transform="translate(-84.104 -20.714)" fill="#dfdfa4"/>
            <path id="Trazado_1294899" data-name="Trazado 1294899" d="M161.079,46.152c.429.19.291-.443.987.085-.465-.357-1.221-1.182-.987-.085" transform="translate(-84.869 -24.034)" fill="#dfdfa4"/>
            <path id="Trazado_1294900" data-name="Trazado 1294900" d="M159.375,40.841s.121.21.229.429l.222.432c.079-.074.115-.307.353-.143l-.4-.363c-.2-.183-.4-.355-.4-.355" transform="translate(-83.994 -21.524)" fill="#dfdfa4"/>
            <path id="Trazado_1294901" data-name="Trazado 1294901" d="M158.572,40.179l.38.313-.18-.312Z" transform="translate(-83.571 -21.175)" fill="#dfdfa4"/>
            <path id="Trazado_1294902" data-name="Trazado 1294902" d="M152.547,30.385a5.37,5.37,0,0,1-1.11-.9c.335.453.68.918,1.038,1.334.146-.026.478.01.072-.437" transform="translate(-79.811 -15.541)" fill="#dfdfa4"/>
            <path id="Trazado_1294903" data-name="Trazado 1294903" d="M156.346,34.859l-.076-.06c.009.067.029.11.076.06" transform="translate(-82.358 -18.34)" fill="#dfdfa4"/>
            <path id="Trazado_1294904" data-name="Trazado 1294904" d="M143.543,22.024l.015.11.06-.041Z" transform="translate(-75.65 -11.607)" fill="#dfdfa4"/>
            <path id="Trazado_1294905" data-name="Trazado 1294905" d="M153.566,32.427a1.273,1.273,0,0,0,.706.594,8.444,8.444,0,0,1-.71-.714c-.066.011-.1.031,0,.12" transform="translate(-80.898 -17.027)" fill="#dfdfa4"/>
            <path id="Trazado_1294906" data-name="Trazado 1294906" d="M149.529,26.293c.1.211.231.437.362.675-.052-.249-.23-.7-.362-.675" transform="translate(-78.805 -13.857)" fill="#dfdfa4"/>
            <path id="Trazado_1294907" data-name="Trazado 1294907" d="M156.268,34.333c.018.013.035.023.053.038-.018-.163-.04-.123-.053-.038" transform="translate(-82.357 -18.055)" fill="#dfdfa4"/>
            <path id="Trazado_1294908" data-name="Trazado 1294908" d="M155.669,34.1a2.554,2.554,0,0,0-.537-.283,4.675,4.675,0,0,0,.538.464.631.631,0,0,1,0-.182" transform="translate(-81.758 -17.822)" fill="#dfdfa4"/>
            <path id="Trazado_1294909" data-name="Trazado 1294909" d="M144.921,23.242l.218.215L145,23.4l.319.24a5.516,5.516,0,0,1-.688-1.3c-.626-.3-.818-.281-.933-.216l.724.66.5.455" transform="translate(-75.734 -11.64)" fill="#dfdfa4"/>
            <path id="Trazado_1294910" data-name="Trazado 1294910" d="M148.409,26.619c-.5.052-1.309-.457-1.2.25.831.778.8.331,1.408.7-1.357-1.277.535.232-.232-.908a7.49,7.49,0,0,1,.779.661c-.2-.28-.38-.559-.54-.836l.012.049.007.005-.006,0c.02.095.017.136-.026.049a.14.14,0,0,1-.034-.023.4.4,0,0,1-.168.046c-.317-.454.016-.137.168-.046a.288.288,0,0,0,.059-.026v-.009s-.364-.306-.751-.587l-.76-.57a12,12,0,0,0,1.282,1.24" transform="translate(-77.539 -13.375)" fill="#dfdfa4"/>
            <path id="Trazado_1294911" data-name="Trazado 1294911" d="M158.426,45.8a.1.1,0,0,1,.05-.1c-.105-.071-.158-.09-.05.1" transform="translate(-83.463 -24.057)" fill="#dfdfa4"/>
            <path id="Trazado_1294912" data-name="Trazado 1294912" d="M158.718,41.72l.045-.1c-.024-.016-.039.022-.045.1" transform="translate(-83.648 -21.935)" fill="#dfdfa4"/>
            <path id="Trazado_1294913" data-name="Trazado 1294913" d="M158.6,43.5c.1.377-.167.1-.27.188.231.156.726.614.467-.179l-.116-.079a4.7,4.7,0,0,1-.295-1.6,3.017,3.017,0,0,0-.3,1.2.9.9,0,0,1,.511.468" transform="translate(-83.317 -22.046)" fill="#dfdfa4"/>
            <path id="Trazado_1294914" data-name="Trazado 1294914" d="M152.383,34.4l-.576-.512.237.813.137-.166c.488.717.562.417.76.4l-.172-.168c-.1-.1-.239-.236-.386-.363" transform="translate(-80.006 -17.862)" fill="#dfdfa4"/>
            <path id="Trazado_1294915" data-name="Trazado 1294915" d="M143.225,20.921s-.269-.038-.547-.058l-.549-.045.662.3Z" transform="translate(-74.905 -10.971)" fill="#dfdfa4"/>
            <path id="Trazado_1294916" data-name="Trazado 1294916" d="M140.013,18.161s-.142-.038-.288-.07l-.288-.067.291.391Z" transform="translate(-73.486 -9.499)" fill="#dfdfa4"/>
            <path id="Trazado_1294917" data-name="Trazado 1294917" d="M36.923,14.889l.4.229a2.545,2.545,0,0,1,.993-.564c-.751.065-1.7.029-1.395.335" transform="translate(-19.429 -7.67)" fill="#dfdfa4"/>
            <path id="Trazado_1294918" data-name="Trazado 1294918" d="M97.814,1.9A6.493,6.493,0,0,0,96.4,1.472c.674.322,1.18.744,1.411.429" transform="translate(-50.807 -0.776)" fill="#dfdfa4"/>
            <path id="Trazado_1294919" data-name="Trazado 1294919" d="M9.262,132.842c.2.209.338.271.413.219-.2-.215-.355-.32-.413-.219" transform="translate(-4.881 -69.99)" fill="#dfdfa4"/>
            <path id="Trazado_1294920" data-name="Trazado 1294920" d="M94.53,1.179a2.063,2.063,0,0,0-1.68-.14c.1.049.2.078.3.12a5.309,5.309,0,0,1,1.38.019" transform="translate(-48.934 -0.484)" fill="#dfdfa4"/>
            <path id="Trazado_1294921" data-name="Trazado 1294921" d="M173.616,102.7a2.579,2.579,0,0,0,.068-.782c0,.19-.037.494-.068.782" transform="translate(-91.5 -53.713)" fill="#dfdfa4"/>
            <path id="Trazado_1294922" data-name="Trazado 1294922" d="M125.312,9.49c.405.166.084-.015,0,0" transform="translate(-66.042 -5.001)" fill="#dfdfa4"/>
            <path id="Trazado_1294923" data-name="Trazado 1294923" d="M127.409,14.545a.27.27,0,0,0-.244.1.342.342,0,0,1,.244-.1" transform="translate(-67.019 -7.666)" fill="#dfdfa4"/>
            <path id="Trazado_1294924" data-name="Trazado 1294924" d="M125.886,10.062a3.56,3.56,0,0,0-.443-.362,4.15,4.15,0,0,0,.443.362" transform="translate(-66.111 -5.112)" fill="#dfdfa4"/>
            <path id="Trazado_1294925" data-name="Trazado 1294925" d="M126.395,10.014l.322.21c.08-.036.056-.1-.322-.21" transform="translate(-66.613 -5.278)" fill="#dfdfa4"/>
            <path id="Trazado_1294926" data-name="Trazado 1294926" d="M124.684,9.233,124.12,9a4.4,4.4,0,0,1,.626.331c-.066-.061-.089-.1-.062-.1" transform="translate(-65.414 -4.744)" fill="#dfdfa4"/>
            <path id="Trazado_1294927" data-name="Trazado 1294927" d="M82.116,48.987c-.142.369-.4-.071-.64-.03,0,0,.061-.141.147-.354l.317-.784.317-.793c.087-.218.132-.365.132-.365-.295-.249-.257-.886-.218-1.5s.031-1.211-.257-1.343l.088.756c-.342-.516-.736-.175-1.174.245l-.135.127c.042-.752.069-1.508.069-2.271A39.608,39.608,0,0,0,68.242,13.735a.326.326,0,0,0,.077.042l.12-.179c-.357-.324-.7-.47-.557-.207-.315-.289-.639-.567-.963-.846.805.269,1.167-.98.99-2.018-.13.111-.216.207-1.107-.207.155.351,1.3,1.717.482,1.455-1.059-.66-.7-.74-1.048-1.281.1.6-1.285-.2-1.733.125a39.685,39.685,0,0,0-6.3-3.788c.065-.032.089-.085.031-.177l-.655-.218c-.411-.636,1.426.023.708-.513A11,11,0,0,1,59.84,6.2a5.093,5.093,0,0,1,.825.291,4.32,4.32,0,0,1,.8.526l-.074.626c.062-.159-.578-.732-.987-.76.3.022.648.449,1.022.817s.776.694,1.229.54l-.285-.421c-.14-.215-.3-.411-.3-.411.489.107,1.049.22,1.622.381a3.538,3.538,0,0,1,1.564.844c-.12-.786-.257-.107-.587-1.154.168,1.093-2.6-1.7-2.049-.315a2.092,2.092,0,0,0-.793-1.082,4.546,4.546,0,0,1-1.055-1.1c-.056.186.2.511-.67-.038a1.034,1.034,0,0,1-.275.049l-.055-.044.04.046c-.052.006-.058.009.015.017a1.149,1.149,0,0,1,.328.495,3.043,3.043,0,0,1-1.345-.222A7.307,7.307,0,0,0,57.5,4.964c-.5-.327.313-.1.1-.42l-.434-.009-.438.009c.095-.42-1.22-1.24.194-.95l-1.187-.488a4.616,4.616,0,0,0-2.261-.931c-.561-.256-1.6.034-1-.143l-1-.143-1.007-.1.006-.107a17.735,17.735,0,0,0-3.04-.353A9.4,9.4,0,0,1,44.217.676c-.337.029-.678.06-1.072.066a7.39,7.39,0,0,1-1.4-.062L41.535.307A11.281,11.281,0,0,1,39.871.236c-.587-.044-1.116-.064-1.289.15a1.79,1.79,0,0,0-1.1-.371,6.071,6.071,0,0,0-1.573.11c-.558.1-1.132.2-1.656.332a8.841,8.841,0,0,1-1.389.252l.035.481a8.512,8.512,0,0,0-1.519.4c-.257.088-.519.184-.793.288s-.55.241-.846.373l.189.387a5.719,5.719,0,0,1-1.951.577c-.389.071-.8.141-1.22.231a8.335,8.335,0,0,0-1.231.4c.05-.194.479-.317.8-.341a3.584,3.584,0,0,0-1.6.3,8.8,8.8,0,0,0-1.4.856c-.452.306-.867.661-1.306.929a3.99,3.99,0,0,1-1.383.558,1.7,1.7,0,0,1-.992.565.332.332,0,0,0,.09-.078,1.877,1.877,0,0,0-.17.092,5.72,5.72,0,0,0-.677.15,3.325,3.325,0,0,0,.587-.1,7.771,7.771,0,0,0-1.137.918L17.9,7.448c-.034.029-.064.047-.1.079-.543.149-.238.409.189.542a2.564,2.564,0,0,0-.428.628c-.768-.345-1,.992-1.924.737-.027.264-.514.738-.955,1.244a2.428,2.428,0,0,0-.671,1.3A2.75,2.75,0,0,0,12.8,13.149l-.583-.244-.2.725-.166.736c-.788.315-1.172.421-.952-.456a14.393,14.393,0,0,1-.789,1.556,5.382,5.382,0,0,0-.589,1.4l-.242-.3c-.345.462-.508,1.481-.965,1.562a9.587,9.587,0,0,0-2.6,3.13c-.957,1.575-1.937,3.413-2.89,4.811.639-.07.361.225.032.607s-.706.861-.331,1.076c-.313.084-.622.467-.636-.118a10.7,10.7,0,0,1-.714,1.946A2.292,2.292,0,0,0,1,31.277c-.306.117-.268-.456-.464-.332.016.149.07.585-.129.716s-.143-.3-.177-.594A3.389,3.389,0,0,0,.1,32.119a1.447,1.447,0,0,0,.227.67,1.932,1.932,0,0,0,.946.647,2.188,2.188,0,0,0-.455.974,1.66,1.66,0,0,0,.253.932c-.295.248-.639.705-.538-.361l-.207.8-.141.586c-.038.207-.072.421-.1.632-.117.843-.151,1.628.161,1.688-.167.172-.108.829-.051.989-.072.665-.118,1.027-.131,1.388s-.029.718-.017,1.375l.108-.363c.7.523.16,1.082.274,2.135l-.076-.027a5.153,5.153,0,0,0-.128,1.228,1.754,1.754,0,0,0,.084.5,1.516,1.516,0,0,1,.07.5c-.007.246-.034.611-.1,1.224l.434-.183c.5.054.421.582.289,1.278a3.944,3.944,0,0,0,.058,2.2l.164-.541c.22.34.018.911-.241,1.519a4.17,4.17,0,0,0-.52,1.638c-.033.185-.21-.223-.326-.44,0,2.133.645.106,1.188,1.522-.224.361-.893-.113-.641.892-.04.284.444.919.928,1.652a4.538,4.538,0,0,1,1.022,2.3c.1-.381.2-.749.66-.189a11.147,11.147,0,0,1,.532,1.925c.2.7.451,1.368,1.044,1.591.009.151-.022.228-.072.263.3.3.682.85,1.116,1.314a3.512,3.512,0,0,0,1.165.964,1.123,1.123,0,0,0,.168,1.226A6.27,6.27,0,0,0,8.4,67.842a11.4,11.4,0,0,1,1.125,1.09c.262.316.34.6.063.831,0,0,.422.469.861.921l.9.885-.151.055a4.456,4.456,0,0,0,1.351,1.146,3.241,3.241,0,0,0,1.026.327c.212.315-.08.239-.155.275a8.26,8.26,0,0,0,1.759,1.662,7.253,7.253,0,0,0,2.066.783l-.107.5c.295.044.87.691,1.7,1.383.206.176.424.359.656.538s.488.335.746.492a5.624,5.624,0,0,0,1.651.722.379.379,0,0,1-.324.07,19.531,19.531,0,0,1,3.741,1.995c1.191.69,2.3,1.08,3.014.42,0,0,.434.046.875.053l.873.029c-2.056-.722.515-.624-.263-1.14a2.6,2.6,0,0,1,1.162.57c.263.219.294.416-.222.324l-.135-.127c-.61.791,2.549.943,2.375,1.5,2.132.409,4.252.738,6.364.961a32.264,32.264,0,0,0,6.266.061l-.271-.315-.268-.322s.088,0,.22-.014l.483-.047.7-.07c.389.113.573.473-.445.574.587.325,1.653-.543,1.647-.712,2-.073-.633.932-.034.842l.817-.2-.2-.046c.309-.2.463-.375.691-.523a3.258,3.258,0,0,1,1.123-.4c.782-.038.483.327.787.284.009.048.116.047.463-.087,0,0,.112-.018.276-.062l.6-.15.879-.219-.845-.328c.689-.47,1.616-.44.651-.8.707.281,2.329-.151,3.816-.765.748-.294,1.449-.662,2.03-.916a5.6,5.6,0,0,1,1.2-.5,5.7,5.7,0,0,1,.634-.581,7.738,7.738,0,0,1,.683-.518c.479-.326,1.02-.605,1.593-.959-.343.085-.83-.332.171-.885.164.639.7.489,1.327.155a4.182,4.182,0,0,1,2.025-.733c-.518.022.119-.525.683-1.056s1.016-1.092.245-.982c.8-.555.35.324,1.107.063a12.722,12.722,0,0,1,1.243-1.358l1.473-1.318c.254-.227.521-.447.774-.687l.752-.742a11.491,11.491,0,0,0,1.379-1.655c-.1-.136-.6.085-.418-.549l.249-.107c.152-.063.349-.153.541-.247l.781-.38c.259-.526-.464-.957.57-1.515-.2.048-.49.114-.33-.234a22.8,22.8,0,0,0,4.043-7.519c.975-2.726,1.735-5.47,2.948-8.206-.456.72-.394.2-.3-.389M66.805,12.447q-.591-.5-1.2-.985a1.954,1.954,0,0,1,1.2.985m-1.434-1.2c0,.008-.013.012-.021.018l-.088-.069.109.052M54.717,3.032a.207.207,0,0,0-.039.01c-.612-.394-.4-.248.039-.01m-7.35-.421a8.9,8.9,0,0,1,1.372-.117c1.548.1.544.639.829.577a4.941,4.941,0,0,0,1.617.219,4.833,4.833,0,0,0,1.043-.144,2.483,2.483,0,0,1,2.227.439c.736.787-.294.969-.213,1.383a3.752,3.752,0,0,1-1.4-.559,4.552,4.552,0,0,0-1.1-.537l.918.51a2.906,2.906,0,0,1-1.625-.305,1.388,1.388,0,0,0,.364.24,39.54,39.54,0,0,0-5.639-1.086,2.971,2.971,0,0,1,.5-.281,4.967,4.967,0,0,1,1.1-.34m-7.976-.042c-.041.138.1.3.214.409Q39,3,38.4,3.038a2.987,2.987,0,0,1,.993-.469m-8.259.313c.08.007.677.046,1.313.118a6.023,6.023,0,0,1,1.584.348.432.432,0,0,1,.187.189c-.481.083-.962.169-1.437.27l-.178-.7-.02.744c-.469.1-.938.205-1.4.324a2.1,2.1,0,0,1-.047-1.294M23.94,5.327l.44.143.55-.443c.276-.223.565-.423.565-.423-.212.444-.59,1.183-1,1.947q-1,.46-1.974.97A4.684,4.684,0,0,1,23.94,5.327m-9.931,6.651a.519.519,0,0,0,.035.182c-.081-.065-.224-.007-.035-.182M11.824,14.53a1.73,1.73,0,0,0,.614.575c-.236.245-.475.488-.7.739.012-.236.027-.457.041-.649.029-.4.049-.665.049-.665M1.542,33.863c.142-.176.307.035.493.353-.023-.121-.047-.236-.073-.327.14-.211.267-.273.384-.246-.061.265-.127.527-.184.794l-.127-.221c.028.129.053.271.082.417-.025.119-.043.241-.066.361a6.136,6.136,0,0,0-.517.572s-.006-.426-.013-.852.021-.851.021-.851M50.988,83.021l-.3-.052c.588-.271.444-.115.3.052" transform="translate(0 0)" fill="#dfdfa4"/>
            <path id="Trazado_1294928" data-name="Trazado 1294928" d="M132.726,13.455c.034-.089-.017-.273.137-.219-.081-.04-.211-.1-.351-.158l-.442-.186a1.64,1.64,0,0,1,.656.562" transform="translate(-69.604 -6.795)" fill="#dfdfa4"/>
            <path id="Trazado_1294929" data-name="Trazado 1294929" d="M133.841,13.665a.437.437,0,0,1,.039.02l-.039-.02" transform="translate(-70.537 -7.202)" fill="#dfdfa4"/>
            <path id="Trazado_1294930" data-name="Trazado 1294930" d="M133.747,13.619l.044.021a.455.455,0,0,0-.044-.021" transform="translate(-70.488 -7.178)" fill="#dfdfa4"/>
            <path id="Trazado_1294931" data-name="Trazado 1294931" d="M133.723,17.4c-.153.37.415.542.97.865a.753.753,0,0,1-.092-.065c.462-.335-.2-.59-.877-.8" transform="translate(-70.462 -9.172)" fill="#dfdfa4"/>
            <path id="Trazado_1294932" data-name="Trazado 1294932" d="M136.561,19.726c.187-.131-.17-.176-.488-.335a3.2,3.2,0,0,1,.488.335" transform="translate(-71.714 -10.219)" fill="#dfdfa4"/>
            <path id="Trazado_1294933" data-name="Trazado 1294933" d="M121.658,8.44c.244.219.377-.368.476-.152.515-.312-2.145-.306-.476.152" transform="translate(-63.823 -4.254)" fill="#dfdfa4"/>
            <path id="Trazado_1294934" data-name="Trazado 1294934" d="M132.715,19.648l.072-.516-.5.131Z" transform="translate(-69.716 -10.083)" fill="#dfdfa4"/>
            <path id="Trazado_1294935" data-name="Trazado 1294935" d="M124.531,14.335l.831.573c.024-.077.159-.06.315-.02-.543-.3-1.106-.69-1.147-.553" transform="translate(-65.631 -7.54)" fill="#dfdfa4"/>
            <path id="Trazado_1294936" data-name="Trazado 1294936" d="M127.7,15.866a4.167,4.167,0,0,0-.742-.33,2.357,2.357,0,0,0,.742.33" transform="translate(-66.909 -8.188)" fill="#dfdfa4"/>
            <path id="Trazado_1294937" data-name="Trazado 1294937" d="M101.214,7.035c.277-.066.689-.056.553-.239l-1.1-.059c-.136.141.14.291.55.3" transform="translate(-53.034 -3.551)" fill="#dfdfa4"/>
            <path id="Trazado_1294938" data-name="Trazado 1294938" d="M175.384,94.348s.072-.215.124-.432l.112-.435-.339.551Z" transform="translate(-92.377 -49.267)" fill="#dfdfa4"/>
            <path id="Trazado_1294939" data-name="Trazado 1294939" d="M174.723,90.743l-.543-.524c.023.194.066.574-.076.719Z" transform="translate(-91.757 -47.547)" fill="#dfdfa4"/>
          </g>
        </g>
      </g>
      <g id="Grupo_1207448" data-name="Grupo 1207448" transform="translate(194.09 330.22)">
        <g id="Grupo_1207447" data-name="Grupo 1207447" transform="translate(4.597 0.847)">
          <g id="Grupo_1207446" data-name="Grupo 1207446" transform="translate(0)">
            <path id="Trazado_1356494" data-name="Trazado 1356494" d="M447.733,88.4a.911.911,0,0,1-.337.707l-6.416,5.213V83.426a.451.451,0,0,1,.737-.35l5.68,4.614a.911.911,0,0,1,.337.707Z" transform="translate(-392.428 -74.446)" fill="#f58a97"/>
            <path id="Trazado_1356495" data-name="Trazado 1356495" d="M62.312,243,50.965,255.974a2.859,2.859,0,0,1-4.172.141l-2.941-2.94v4.417a.845.845,0,0,1-.845.845H12.38a1.13,1.13,0,0,1-1.13-1.13V243.686a6.778,6.778,0,0,1,5.155-6.581l7.037-1.735a2.261,2.261,0,0,0,1.718-2.194V226.14h9.488V233a2.287,2.287,0,0,0,1.917,2.257l4.647.762a8,8,0,0,1,5.76,4.12l2.735,5.107a.8.8,0,0,0,1.307.149l6.4-7.3Z" transform="translate(-11.25 -201.437)" fill="#82aee3"/>
            <g id="Grupo_1207437" data-name="Grupo 1207437" transform="translate(35.458 32.925)">
              <path id="Trazado_1356496" data-name="Trazado 1356496" d="M342.786,299.67a3.452,3.452,0,0,0-3.685-.4,3.453,3.453,0,0,1,.413,4.947l-2.541,2.907L325.625,320.1a2.861,2.861,0,0,1-.542.481l.084.084a2.859,2.859,0,0,0,4.172-.141l11.348-12.977,2.541-2.907a3.455,3.455,0,0,0-.443-4.972Z" transform="translate(-325.083 -298.915)" fill="#528fd8"/>
            </g>
            <g id="Grupo_1207438" data-name="Grupo 1207438" transform="translate(20.009 24.703)">
              <path id="Trazado_1356497" data-name="Trazado 1356497" d="M207.275,245.638c-.389.273-.778.545-1.167.817a2.333,2.333,0,0,1-3.394-.809l-2.039-3.809a8,8,0,0,0-5.76-4.12l-4.647-.762a2.287,2.287,0,0,1-1.917-2.257v-6.863l3.389-1.695V233a2.287,2.287,0,0,0,1.917,2.257l4.647.762a8,8,0,0,1,5.76,4.12l2.735,5.107A.791.791,0,0,0,207.275,245.638Z" transform="translate(-188.35 -226.14)" fill="#528fd8"/>
            </g>
            <path id="Trazado_1356498" data-name="Trazado 1356498" d="M124.685,235.255l.876.144a8.4,8.4,0,0,1-14.967.2l.967-.239a2.26,2.26,0,0,0,1.719-2.194v-7.036h9.489V233A2.287,2.287,0,0,0,124.685,235.255Z" transform="translate(-99.37 -201.433)" fill="#ffcebf"/>
            <path id="Trazado_1356499" data-name="Trazado 1356499" d="M188.349,234.693a2.287,2.287,0,0,0,1.917,2.257l2.865.47a8.428,8.428,0,0,0,1.4-2.021l-.875-.143h0A2.287,2.287,0,0,1,191.738,233v-6.863l-3.389,1.695Z" transform="translate(-168.34 -201.433)" fill="#ffb09e"/>
            <g id="Grupo_1207439" data-name="Grupo 1207439" transform="translate(8.984 11.444)">
              <path id="Trazado_1356500" data-name="Trazado 1356500" d="M110.108,110.482V119a9.67,9.67,0,1,1-19.34,0v-8.513l9.67-1.695Z" transform="translate(-90.768 -108.787)" fill="#ffcebf"/>
              <path id="Trazado_1356501" data-name="Trazado 1356501" d="M145.391,123.786V132.3a8.675,8.675,0,0,1-1.667,5.218,9.453,9.453,0,0,1-9.358,3.213,10,10,0,0,0,3.887,1.2c.3.027.583.039.858.039a9.672,9.672,0,0,0,9.67-9.674v-8.513h-3.389Z" transform="translate(-129.44 -122.091)" fill="#ffb09e"/>
            </g>
            <path id="Trazado_1356502" data-name="Trazado 1356502" d="M428.143,302.369a3.44,3.44,0,0,1-.854,2.272l-2.542,2.907-4.9-4.9,2.245-2.559a3.452,3.452,0,0,1,6.048,2.279Z" transform="translate(-373.685 -265.988)" fill="#ffcebf"/>
            <path id="Trazado_1356503" data-name="Trazado 1356503" d="M449.485,302.369a3.44,3.44,0,0,1-.854,2.272l-2.542,2.907-2.178-2.181c1.665-1.594,2.909-4,.592-6.1a3.453,3.453,0,0,1,4.983,3.1Z" transform="translate(-395.027 -265.988)" fill="#ffb09e"/>
            <g id="Grupo_1207440" data-name="Grupo 1207440" transform="translate(5.554 15.925)">
              <path id="Trazado_1356504" data-name="Trazado 1356504" d="M62.668,152.965h1.174v-4.512H62.668a2.256,2.256,0,0,0,0,4.512Z" transform="translate(-60.412 -148.453)" fill="#ffb09e"/>
              <path id="Trazado_1356505" data-name="Trazado 1356505" d="M263.121,152.965h-1.174v-4.512h1.174a2.256,2.256,0,0,1,0,4.512Z" transform="translate(-239.177 -148.453)" fill="#ffcebf"/>
            </g>
            <g id="Grupo_1207445" data-name="Grupo 1207445" transform="translate(6.084)">
              <g id="Grupo_1207442" data-name="Grupo 1207442" transform="translate(1.861)">
                <path id="Trazado_1356506" data-name="Trazado 1356506" d="M102.989,21.493,92.28,19.768,81.571,21.493v-8.34A5.654,5.654,0,0,1,87.225,7.5H97.336a5.654,5.654,0,0,1,5.654,5.654v8.34Z" transform="translate(-81.571 -7.5)" fill="#f58a97"/>
                <g id="Grupo_1207441" data-name="Grupo 1207441" transform="translate(12.375)">
                  <path id="Trazado_1356507" data-name="Trazado 1356507" d="M194.492,7.5H191.1a5.654,5.654,0,0,1,5.654,5.654v7.793l3.39.546v-8.34A5.654,5.654,0,0,0,194.492,7.5Z" transform="translate(-191.103 -7.5)" fill="#f07281"/>
                </g>
              </g>
              <g id="Grupo_1207444" data-name="Grupo 1207444" transform="translate(0 10.211)">
                <path id="Trazado_1356508" data-name="Trazado 1356508" d="M90.026,102.846l-.017.033a1.838,1.838,0,0,1-2.376.812,24.336,24.336,0,0,0-2.3-.882,24.6,24.6,0,0,0-17.631.882,1.837,1.837,0,0,1-2.375-.812l-.018-.033a1.834,1.834,0,0,1,.877-2.533,28.3,28.3,0,0,1,22.962,0A1.833,1.833,0,0,1,90.026,102.846Z" transform="translate(-65.099 -97.88)" fill="#82aee3"/>
                <g id="Grupo_1207443" data-name="Grupo 1207443" transform="translate(20.237 1.267)">
                  <path id="Trazado_1356509" data-name="Trazado 1356509" d="M248.9,112.789a1.856,1.856,0,0,1-2.393.845,24.337,24.337,0,0,0-2.3-.882,2.4,2.4,0,0,0,1.135-1.194,2.572,2.572,0,0,0-.427-2.468,28.54,28.54,0,0,1,3.106,1.166A1.833,1.833,0,0,1,248.9,112.789Z" transform="translate(-244.214 -109.09)" fill="#528fd8"/>
                </g>
              </g>
            </g>
          </g>
          <path id="Trazado_1356510" data-name="Trazado 1356510" d="M469.811,102.436a.911.911,0,0,1-.337.707l-3.6,2.929V98.8l3.6,2.929a.911.911,0,0,1,.337.707Z" transform="translate(-414.506 -88.485)" fill="#f07281"/>
        </g>
        <path id="Trazado_1356511" data-name="Trazado 1356511" d="M48.363,50.751a.847.847,0,0,0-1.2.08l-3.494,4a2.011,2.011,0,0,1-2.935.1l-2.692-2.691v-1.78a.847.847,0,1,0-1.695,0V57a.847.847,0,0,0,1.695,0V54.631l1.495,1.494a3.706,3.706,0,0,0,5.409-.183l3.493-4A.847.847,0,0,0,48.363,50.751ZM13.171,49.608a.847.847,0,0,0-.847.847V57a.847.847,0,0,0,1.695,0V50.455A.847.847,0,0,0,13.171,49.608ZM60.1,13.434l-5.68-4.615A1.3,1.3,0,0,0,52.3,9.827V20.719s0,0,0,0V34.468L43.77,44.2l-2.7-5.046A8.9,8.9,0,0,0,34.7,34.6l-4.647-.761a1.436,1.436,0,0,1-1.208-1.421v-1a10.59,10.59,0,0,0,1.846-1.473A10.455,10.455,0,0,0,33.77,22.5v-.368H34.1a3.1,3.1,0,0,0,2.073-5.4,2.735,2.735,0,0,0,.352-2.437,2.689,2.689,0,0,0-1.445-1.574c-.089-.04-.179-.078-.268-.116V6.5a6.509,6.509,0,0,0-6.5-6.5H18.2a6.509,6.509,0,0,0-6.5,6.5v6.1l-.268.116a2.685,2.685,0,0,0-1.1,4.011,3.1,3.1,0,0,0,2.076,5.4h.327V22.5a10.523,10.523,0,0,0,4.926,8.907v1.179a1.411,1.411,0,0,1-1.074,1.371L9.55,35.692a7.611,7.611,0,0,0-5.8,7.4V57a.847.847,0,1,0,1.695,0V43.1a5.919,5.919,0,0,1,4.511-5.759l5.451-1.344a9.246,9.246,0,0,0,15.842-.246l3.175.52a7.2,7.2,0,0,1,5.15,3.684l2.735,5.106A1.648,1.648,0,0,0,45,45.367l5.8-6.619,3.686,3.688.011.01-4.725,5.4a.847.847,0,0,0,1.276,1.116l7.788-8.907a4.358,4.358,0,0,0-.552-6.192A4.29,4.29,0,0,0,54,33.234V21.122l6.1-4.959a1.758,1.758,0,0,0,0-2.729ZM35.5,19.029A1.423,1.423,0,0,1,34.1,20.436H33.77V17.865a2.7,2.7,0,0,0,.946-.1,1.417,1.417,0,0,1,.788,1.265Zm-22.77,1.408h-.327a1.408,1.408,0,0,1-.623-2.671,2.711,2.711,0,0,0,.95.1v2.569Zm.21-4.342a1.014,1.014,0,0,1-1.3-.466.994.994,0,0,1,.471-1.362,27.436,27.436,0,0,1,14.841-2.109.847.847,0,1,0,.228-1.679A29.131,29.131,0,0,0,13.39,11.93V6.5A4.812,4.812,0,0,1,18.2,1.695H28.307A4.812,4.812,0,0,1,33.113,6.5V11.93q-.973-.35-1.965-.629a.847.847,0,0,0-.459,1.631,27.544,27.544,0,0,1,3.7,1.334,1,1,0,0,1,.473,1.359,1.009,1.009,0,0,1-1.3.47,26.169,26.169,0,0,0-20.615,0ZM14.429,22.5V17.31a23.8,23.8,0,0,1,17.646,0V22.5a8.823,8.823,0,1,1-17.646,0Zm8.823,16.155a7.536,7.536,0,0,1-6.1-3.1,3.171,3.171,0,0,0,2.2-3.284,10.535,10.535,0,0,0,7.793,0,3.133,3.133,0,0,0,2.292,3.157A7.5,7.5,0,0,1,23.252,38.654Zm33.977-3.465a2.636,2.636,0,0,1,.335,3.753l-1.945,2.225-3.695-3.7,1.721-1.963a2.6,2.6,0,0,1,3.584-.319Zm1.8-20.341L54,18.939v-8.28l5.035,4.091a.072.072,0,0,1,0,.1Zm-31.114,7.01a.847.847,0,0,0,.847-.847V19.143a.847.847,0,1,0-1.695,0V21.01A.847.847,0,0,0,27.917,21.858ZM18.586,18.3a.847.847,0,0,0-.847.847V21.01a.847.847,0,0,0,1.695,0V19.143A.847.847,0,0,0,18.586,18.3Zm7.275,7.776a.847.847,0,0,0-1.151-.335,3.028,3.028,0,0,1-2.917,0,.847.847,0,0,0-.815,1.486,4.747,4.747,0,0,0,2.225.583,4.875,4.875,0,0,0,2.323-.583A.848.848,0,0,0,25.861,26.072Z"/>
      </g>
    </g>
  </g>
</svg>
