<svg xmlns="http://www.w3.org/2000/svg" xmlns:xlink="http://www.w3.org/1999/xlink" width="117.479" height="118.589" viewBox="0 0 117.479 118.589">
  <defs>
    <clipPath id="clip-path">
      <rect id="Rectángulo_456684" data-name="Rectángulo 456684" width="117.479" height="118.589" fill="#366400"/>
    </clipPath>
  </defs>
  <g id="Grupo_1207592" data-name="Grupo 1207592" transform="translate(-491.426 -6935.988)">
    <g id="Grupo_1206923" data-name="Grupo 1206923" transform="translate(216.904 836.568)">
      <g id="Grupo_1206514" data-name="Grupo 1206514" transform="translate(274.521 6099.42)">
        <g id="Grupo_1206513" data-name="Grupo 1206513" clip-path="url(#clip-path)">
          <path id="Trazado_1294880" data-name="Trazado 1294880" d="M176.217,89.94c-.146-.925-.764-.408-.62-.434-.035.548.518.351.62.434" transform="translate(-58.738 -29.904)" fill="#366400"/>
          <path id="Trazado_1294881" data-name="Trazado 1294881" d="M172.338,75.786l.252.119-.779-1.193Z" transform="translate(-57.479 -24.995)" fill="#366400"/>
          <path id="Trazado_1294882" data-name="Trazado 1294882" d="M170.51,68.858l.9.486c-.272-.866-.626-1.847-.994-2.749a9.127,9.127,0,0,1-.723-2.39c-.7,1.023,1.009,2.829.976,4.369Z" transform="translate(-56.713 -21.479)" fill="#366400"/>
          <path id="Trazado_1294883" data-name="Trazado 1294883" d="M170.544,57.618c-.073-.17-.166-.408-.3-.821-.24.4-.658-.8.283,1.034a1.582,1.582,0,0,1,.017-.213" transform="translate(-56.853 -18.993)" fill="#366400"/>
          <path id="Trazado_1294884" data-name="Trazado 1294884" d="M170.847,57.954c.356.833.073-.662,0,0" transform="translate(-57.156 -19.33)" fill="#366400"/>
          <path id="Trazado_1294885" data-name="Trazado 1294885" d="M168.915,51.97c-.673-1.047-.761-.716-.8.066l.791.948c.1-.315-.3-1.308.01-1.013" transform="translate(-56.242 -17.165)" fill="#366400"/>
          <path id="Trazado_1294886" data-name="Trazado 1294886" d="M166.849,51.816c.039-.136,0-.3-.391-.486l.2.24.19.246" transform="translate(-55.688 -17.172)" fill="#366400"/>
          <path id="Trazado_1294887" data-name="Trazado 1294887" d="M167.332,52.556c-.3.023.051.14.461.56l-.8-1.055c-.068.222-.34.367.341.5" transform="translate(-55.829 -17.417)" fill="#366400"/>
          <path id="Trazado_1294888" data-name="Trazado 1294888" d="M168.267,54.74c.092.683.273,1.519-.475.565.949,2.017,1.475,1.468.475-.565" transform="translate(-56.134 -18.313)" fill="#366400"/>
          <path id="Trazado_1294889" data-name="Trazado 1294889" d="M168.656,65.55a2.484,2.484,0,0,1-.228-.922c-.059-.355-.136-.65-.267-.58l0,.443c0,.222-.013.446-.013.446Z" transform="translate(-56.254 -21.424)" fill="#366400"/>
          <path id="Trazado_1294890" data-name="Trazado 1294890" d="M163.467,43.72c-.093-.467-.456-1.248-.234-1.46-.211.045-.241.623-.414.831,0,0,.17.151.329.31l.318.319" transform="translate(-54.471 -14.138)" fill="#366400"/>
          <path id="Trazado_1294891" data-name="Trazado 1294891" d="M162.319,43.052l-.995-.909c.59,1,.844,1.087.995.909" transform="translate(-53.97 -14.099)" fill="#366400"/>
          <path id="Trazado_1294892" data-name="Trazado 1294892" d="M165.582,52.358l.766.809-.854-.991c-.208-.249-.44-.484-.607-.663l-.281-.3.192.354s.411.381.784.786" transform="translate(-55.068 -17.135)" fill="#366400"/>
          <path id="Trazado_1294893" data-name="Trazado 1294893" d="M159.735,36.15l-.673-.336-.693-.311.551.315Z" transform="translate(-52.981 -11.877)" fill="#366400"/>
          <path id="Trazado_1294894" data-name="Trazado 1294894" d="M155.191,31.091c.661.173,0-1,.57-.709a6.963,6.963,0,0,0-2.108-1.347,4.636,4.636,0,0,1,1.539,2.056" transform="translate(-51.404 -9.714)" fill="#366400"/>
          <path id="Trazado_1294895" data-name="Trazado 1294895" d="M151.959,28.207a8.9,8.9,0,0,0,1.127.552,4.259,4.259,0,0,0-1.127-.552" transform="translate(-50.837 -9.437)" fill="#366400"/>
          <path id="Trazado_1294896" data-name="Trazado 1294896" d="M159.326,37.542l-.164.75.289.422a1.412,1.412,0,0,0-.125-1.172" transform="translate(-53.247 -12.56)" fill="#366400"/>
          <path id="Trazado_1294897" data-name="Trazado 1294897" d="M158.854,38.208l-.614-.918.61.943Z" transform="translate(-52.939 -12.475)" fill="#366400"/>
          <path id="Trazado_1294898" data-name="Trazado 1294898" d="M159.665,39.409l-.073-.106c-.017.073-.015.107.073.106" transform="translate(-53.388 -13.149)" fill="#366400"/>
          <path id="Trazado_1294899" data-name="Trazado 1294899" d="M161.1,46.375c.6.268.409-.623,1.388.12-.655-.5-1.718-1.664-1.388-.12" transform="translate(-53.874 -15.256)" fill="#366400"/>
          <path id="Trazado_1294900" data-name="Trazado 1294900" d="M159.375,40.841s.17.3.323.6l.313.608c.112-.1.162-.432.5-.2l-.563-.51c-.277-.257-.57-.5-.57-.5" transform="translate(-53.318 -13.663)" fill="#366400"/>
          <path id="Trazado_1294901" data-name="Trazado 1294901" d="M158.572,40.179l.534.441-.253-.439Z" transform="translate(-53.05 -13.442)" fill="#366400"/>
          <path id="Trazado_1294902" data-name="Trazado 1294902" d="M153,30.75a7.555,7.555,0,0,1-1.562-1.262c.472.638.956,1.292,1.46,1.877.206-.036.673.014.1-.614" transform="translate(-50.663 -9.865)" fill="#366400"/>
          <path id="Trazado_1294903" data-name="Trazado 1294903" d="M156.377,34.883l-.107-.084c.013.094.041.155.107.084" transform="translate(-52.28 -11.642)" fill="#366400"/>
          <path id="Trazado_1294904" data-name="Trazado 1294904" d="M143.543,22.024l.021.155.084-.057Z" transform="translate(-48.022 -7.368)" fill="#366400"/>
          <path id="Trazado_1294905" data-name="Trazado 1294905" d="M153.593,32.476a1.791,1.791,0,0,0,.993.835,11.878,11.878,0,0,1-1-1c-.093.016-.139.044.006.169" transform="translate(-51.353 -10.808)" fill="#366400"/>
          <path id="Trazado_1294906" data-name="Trazado 1294906" d="M149.529,26.293c.144.3.325.614.51.95-.074-.351-.323-.982-.51-.95" transform="translate(-50.024 -8.796)" fill="#366400"/>
          <path id="Trazado_1294907" data-name="Trazado 1294907" d="M156.268,34.363a.912.912,0,0,1,.075.054c-.025-.23-.057-.173-.075-.054" transform="translate(-52.279 -11.461)" fill="#366400"/>
          <path id="Trazado_1294908" data-name="Trazado 1294908" d="M155.888,34.215a3.594,3.594,0,0,0-.756-.4,6.576,6.576,0,0,0,.757.653.889.889,0,0,1,0-.256" transform="translate(-51.899 -11.313)" fill="#366400"/>
          <path id="Trazado_1294909" data-name="Trazado 1294909" d="M145.417,23.711l.306.3-.192-.074.449.338a7.762,7.762,0,0,1-.968-1.831c-.88-.422-1.151-.4-1.312-.3l1.018.929.7.64" transform="translate(-48.075 -7.389)" fill="#366400"/>
          <path id="Trazado_1294910" data-name="Trazado 1294910" d="M148.931,27.123c-.7.073-1.842-.643-1.686.352,1.169,1.095,1.125.465,1.98.986-1.91-1.8.753.326-.327-1.277a10.535,10.535,0,0,1,1.1.93c-.278-.393-.534-.787-.759-1.176l.017.069.01.007-.009,0c.029.133.023.191-.036.069a.2.2,0,0,1-.047-.032.563.563,0,0,1-.237.065c-.446-.638.022-.193.237-.065a.4.4,0,0,0,.083-.037v-.012s-.512-.431-1.056-.826l-1.069-.8a16.884,16.884,0,0,0,1.8,1.744" transform="translate(-49.221 -8.49)" fill="#366400"/>
          <path id="Trazado_1294911" data-name="Trazado 1294911" d="M158.451,45.858a.144.144,0,0,1,.07-.138c-.148-.1-.222-.127-.07.138" transform="translate(-52.981 -15.271)" fill="#366400"/>
          <path id="Trazado_1294912" data-name="Trazado 1294912" d="M158.718,41.761c.021-.045.041-.089.063-.135-.034-.023-.055.031-.063.135" transform="translate(-53.099 -13.924)" fill="#366400"/>
          <path id="Trazado_1294913" data-name="Trazado 1294913" d="M158.809,44.177c.135.53-.236.142-.38.265.325.219,1.022.864.658-.252l-.164-.112a6.607,6.607,0,0,1-.415-2.248,4.244,4.244,0,0,0-.418,1.688,1.259,1.259,0,0,1,.719.658" transform="translate(-52.888 -13.994)" fill="#366400"/>
          <path id="Trazado_1294914" data-name="Trazado 1294914" d="M152.617,34.613l-.81-.721.333,1.144.193-.233c.686,1.008.791.586,1.069.557l-.242-.237c-.145-.142-.337-.333-.544-.51" transform="translate(-50.786 -11.338)" fill="#366400"/>
          <path id="Trazado_1294915" data-name="Trazado 1294915" d="M143.672,20.963s-.378-.053-.77-.082l-.773-.064.932.418Z" transform="translate(-47.549 -6.964)" fill="#366400"/>
          <path id="Trazado_1294916" data-name="Trazado 1294916" d="M140.247,18.217s-.2-.054-.4-.1l-.405-.094.409.55Z" transform="translate(-46.648 -6.03)" fill="#366400"/>
          <path id="Trazado_1294917" data-name="Trazado 1294917" d="M36.947,15.025l.565.323a3.581,3.581,0,0,1,1.4-.794c-1.056.091-2.389.041-1.962.471" transform="translate(-12.333 -4.869)" fill="#366400"/>
          <path id="Trazado_1294918" data-name="Trazado 1294918" d="M98.388,2.075a9.135,9.135,0,0,0-1.985-.6c.949.453,1.66,1.046,1.985.6" transform="translate(-32.251 -0.492)" fill="#366400"/>
          <path id="Trazado_1294919" data-name="Trazado 1294919" d="M9.262,132.858c.288.293.475.381.581.308-.287-.3-.5-.45-.581-.308" transform="translate(-3.099 -44.429)" fill="#366400"/>
          <path id="Trazado_1294920" data-name="Trazado 1294920" d="M95.214,1.286a2.9,2.9,0,0,0-2.364-.2c.14.069.28.109.423.169a7.469,7.469,0,0,1,1.942.027" transform="translate(-31.063 -0.307)" fill="#366400"/>
          <path id="Trazado_1294921" data-name="Trazado 1294921" d="M173.616,103.018a3.629,3.629,0,0,0,.1-1.1c0,.267-.052.7-.1,1.1" transform="translate(-58.083 -34.096)" fill="#366400"/>
          <path id="Trazado_1294922" data-name="Trazado 1294922" d="M125.312,9.49c.57.233.118-.021,0,0" transform="translate(-41.923 -3.175)" fill="#366400"/>
          <path id="Trazado_1294923" data-name="Trazado 1294923" d="M127.508,14.545a.379.379,0,0,0-.343.14.481.481,0,0,1,.343-.14" transform="translate(-42.543 -4.866)" fill="#366400"/>
          <path id="Trazado_1294924" data-name="Trazado 1294924" d="M126.066,10.21a5.008,5.008,0,0,0-.623-.51,5.84,5.84,0,0,0,.623.51" transform="translate(-41.966 -3.245)" fill="#366400"/>
          <path id="Trazado_1294925" data-name="Trazado 1294925" d="M126.395,10.014l.453.295c.112-.051.079-.136-.453-.295" transform="translate(-42.285 -3.35)" fill="#366400"/>
          <path id="Trazado_1294926" data-name="Trazado 1294926" d="M124.913,9.327,124.12,9a6.188,6.188,0,0,1,.88.465c-.093-.085-.125-.136-.087-.14" transform="translate(-41.524 -3.012)" fill="#366400"/>
          <path id="Trazado_1294927" data-name="Trazado 1294927" d="M115.533,68.922c-.2.519-.568-.1-.9-.043,0,0,.085-.2.206-.5s.283-.7.446-1.1l.447-1.116c.122-.306.186-.513.186-.513-.415-.35-.361-1.247-.306-2.114s.043-1.7-.362-1.889l.124,1.063c-.481-.725-1.036-.247-1.652.344l-.19.179c.059-1.058.1-2.122.1-3.2A55.727,55.727,0,0,0,96.012,19.324a.459.459,0,0,0,.108.059l.168-.252c-.5-.456-.982-.661-.783-.291-.443-.406-.9-.8-1.355-1.19,1.133.378,1.642-1.378,1.393-2.839-.182.156-.3.291-1.558-.291.218.494,1.834,2.416.678,2.048-1.49-.928-.987-1.041-1.474-1.8.141.846-1.807-.288-2.438.176a55.834,55.834,0,0,0-8.87-5.329c.092-.045.125-.119.043-.249L81,9.058c-.578-.9,2.006.032,1-.721a15.483,15.483,0,0,1,2.192.382,7.165,7.165,0,0,1,1.161.409,6.078,6.078,0,0,1,1.123.74l-.1.881c.087-.224-.813-1.03-1.389-1.069.425.031.911.632,1.438,1.15s1.092.976,1.729.759l-.4-.592c-.2-.3-.416-.579-.416-.579.688.151,1.476.309,2.282.536a4.978,4.978,0,0,1,2.2,1.187c-.168-1.105-.362-.151-.826-1.624.236,1.537-3.655-2.392-2.883-.443A2.943,2.943,0,0,0,86.99,8.553a6.4,6.4,0,0,1-1.485-1.541c-.079.262.275.719-.942-.054a1.454,1.454,0,0,1-.387.069L84.1,6.965l.057.065c-.073.008-.082.013.021.023a1.616,1.616,0,0,1,.461.7,4.281,4.281,0,0,1-1.892-.313,10.28,10.28,0,0,0-1.841-.452c-.707-.46.441-.14.141-.59l-.611-.013-.616.012c.133-.59-1.717-1.745.274-1.336l-1.67-.686a6.494,6.494,0,0,0-3.182-1.31c-.79-.36-2.253.047-1.413-.2l-1.41-.2L71,2.52l.008-.151a24.952,24.952,0,0,0-4.278-.5,13.223,13.223,0,0,1-4.52-.921c-.474.041-.954.085-1.508.093A10.4,10.4,0,0,1,58.736.956l-.3-.524a15.872,15.872,0,0,1-2.34-.1c-.826-.063-1.57-.091-1.814.211A2.519,2.519,0,0,0,52.731.02a8.541,8.541,0,0,0-2.213.155c-.785.142-1.593.288-2.33.466A12.439,12.439,0,0,1,46.234,1l.049.677a11.976,11.976,0,0,0-2.137.564c-.361.123-.731.258-1.115.4s-.774.339-1.19.525l.266.544a8.047,8.047,0,0,1-2.744.812c-.548.1-1.128.2-1.716.325a11.726,11.726,0,0,0-1.732.568c.07-.273.674-.447,1.132-.479a5.042,5.042,0,0,0-2.254.427,12.388,12.388,0,0,0-1.971,1.2c-.636.431-1.22.93-1.837,1.307a5.614,5.614,0,0,1-1.946.785,2.392,2.392,0,0,1-1.4.795.467.467,0,0,0,.126-.109,2.641,2.641,0,0,0-.24.13,8.048,8.048,0,0,0-.952.211,4.678,4.678,0,0,0,.826-.136,10.933,10.933,0,0,0-1.6,1.292l-.624-.361c-.048.041-.09.067-.139.111-.764.21-.335.576.266.763a3.607,3.607,0,0,0-.6.883c-1.08-.486-1.413,1.4-2.707,1.037-.038.371-.723,1.038-1.344,1.75a3.416,3.416,0,0,0-.944,1.822A3.869,3.869,0,0,0,18,18.5l-.821-.343s-.138.51-.275,1.019c-.117.518-.234,1.036-.234,1.036-1.109.443-1.649.592-1.339-.642a20.251,20.251,0,0,1-1.111,2.189,7.572,7.572,0,0,0-.829,1.974l-.34-.42c-.486.649-.715,2.084-1.358,2.2-.929.421-2.278,2.214-3.661,4.4-1.347,2.216-2.726,4.8-4.067,6.769.9-.1.508.317.045.854s-.993,1.212-.465,1.514c-.441.118-.875.657-.894-.166a15.055,15.055,0,0,1-1,2.738A3.224,3.224,0,0,0,1.408,44c-.43.164-.377-.642-.653-.467.023.21.1.823-.182,1.007s-.2-.421-.25-.836a4.768,4.768,0,0,0-.181,1.48,2.036,2.036,0,0,0,.319.942,2.718,2.718,0,0,0,1.331.91,3.078,3.078,0,0,0-.641,1.371,2.336,2.336,0,0,0,.356,1.311c-.415.349-.9.992-.757-.508L.46,50.346l-.2.824c-.053.291-.1.593-.143.89-.165,1.187-.212,2.291.226,2.374C.11,54.676.192,55.6.274,55.826c-.1.936-.166,1.445-.185,1.953S.048,58.79.065,59.714l.152-.51c.99.735.226,1.523.386,3L.5,62.17A7.25,7.25,0,0,0,.317,63.9a2.467,2.467,0,0,0,.118.707,2.133,2.133,0,0,1,.1.7c-.01.347-.048.86-.144,1.722L1,66.768c.7.076.592.819.406,1.8a5.549,5.549,0,0,0,.081,3.1l.231-.761c.309.478.025,1.282-.339,2.137a5.867,5.867,0,0,0-.732,2.305c-.047.261-.3-.314-.458-.62-.007,3,.907.15,1.671,2.141-.315.508-1.257-.158-.9,1.255-.057.4.625,1.294,1.306,2.324A6.385,6.385,0,0,1,3.7,83.686c.14-.536.287-1.053.929-.266a15.683,15.683,0,0,1,.749,2.709c.278.982.634,1.925,1.469,2.239.013.212-.031.32-.1.369.42.427.96,1.2,1.57,1.849a4.941,4.941,0,0,0,1.64,1.356,1.58,1.58,0,0,0,.237,1.726,8.822,8.822,0,0,0,1.627,1.783A16.031,16.031,0,0,1,13.4,96.984c.368.445.478.842.089,1.17,0,0,.594.66,1.211,1.3l1.262,1.245-.213.078a6.269,6.269,0,0,0,1.9,1.612,4.56,4.56,0,0,0,1.444.46c.3.443-.113.337-.218.387a11.621,11.621,0,0,0,2.475,2.338,10.2,10.2,0,0,0,2.907,1.1l-.151.7c.415.063,1.224.972,2.4,1.946.289.248.6.506.923.757s.686.472,1.049.692a7.913,7.913,0,0,0,2.322,1.015.534.534,0,0,1-.456.1c1.8.512,3.568,1.859,5.264,2.806,1.676.97,3.243,1.519,4.241.592,0,0,.61.065,1.23.075l1.228.041c-2.893-1.016.725-.878-.37-1.6a3.664,3.664,0,0,1,1.635.8c.37.307.413.585-.313.455l-.19-.179c-.858,1.113,3.586,1.326,3.342,2.107,3,.575,5.982,1.039,8.954,1.352a45.393,45.393,0,0,0,8.816.085l-.381-.443-.377-.453s.124,0,.309-.02l.68-.067.989-.1c.547.159.806.665-.626.807.826.457,2.326-.765,2.317-1,2.82-.1-.891,1.312-.048,1.185l1.149-.279-.281-.065c.435-.28.651-.527.972-.735a4.584,4.584,0,0,1,1.58-.558c1.1-.053.679.46,1.107.4.013.068.164.067.651-.122,0,0,.158-.026.389-.087l.849-.211,1.237-.308-1.189-.461c.97-.661,2.274-.619.916-1.124.995.4,3.277-.212,5.368-1.076,1.053-.414,2.039-.931,2.856-1.289a7.877,7.877,0,0,1,1.692-.71,8.018,8.018,0,0,1,.892-.818,10.887,10.887,0,0,1,.962-.729c.674-.459,1.435-.852,2.241-1.35-.483.12-1.168-.468.24-1.245.23.9.983.687,1.867.218a5.883,5.883,0,0,1,2.849-1.031c-.729.031.167-.738.96-1.486s1.429-1.536.345-1.382c1.123-.781.493.456,1.558.089A17.9,17.9,0,0,1,98,102.054l2.072-1.855c.357-.319.733-.629,1.089-.966l1.058-1.044a16.166,16.166,0,0,0,1.94-2.329c-.147-.191-.846.119-.588-.773l.35-.15c.214-.089.49-.215.761-.348l1.1-.535c.365-.74-.653-1.347.8-2.131-.277.067-.689.16-.464-.329a32.077,32.077,0,0,0,5.688-10.579c1.371-3.835,2.441-7.7,4.148-11.546-.641,1.013-.555.279-.427-.547M93.991,17.512q-.832-.71-1.692-1.385a2.749,2.749,0,0,1,1.692,1.385m-2.017-1.689c-.005.011-.019.017-.029.025l-.124-.1.153.073M76.984,4.265a.292.292,0,0,0-.055.014c-.86-.555-.558-.349.055-.014m-10.34-.592a12.526,12.526,0,0,1,1.93-.165c2.177.138.765.9,1.167.811a6.952,6.952,0,0,0,2.275.309,6.8,6.8,0,0,0,1.468-.2,3.493,3.493,0,0,1,3.134.618c1.036,1.107-.413,1.364-.3,1.946A5.279,5.279,0,0,1,74.355,6.2,6.405,6.405,0,0,0,72.8,5.448l1.291.718a4.089,4.089,0,0,1-2.286-.429,1.953,1.953,0,0,0,.512.338,55.631,55.631,0,0,0-7.934-1.528,4.18,4.18,0,0,1,.705-.4,6.988,6.988,0,0,1,1.551-.478M55.421,3.614c-.058.194.146.425.3.575q-.852.03-1.7.085a4.2,4.2,0,0,1,1.4-.66m-11.62.44c.112.009.952.065,1.847.166a8.474,8.474,0,0,1,2.229.49.608.608,0,0,1,.263.266c-.677.117-1.354.238-2.022.379l-.251-.982-.029,1.047c-.66.143-1.32.289-1.97.455a2.956,2.956,0,0,1-.067-1.82M33.682,7.494l.619.2.774-.624c.389-.314.8-.6.8-.6-.3.625-.83,1.665-1.412,2.74q-1.409.647-2.778,1.365a6.59,6.59,0,0,1,2-3.086M19.709,16.851a.73.73,0,0,0,.049.256c-.114-.092-.315-.01-.049-.256m-3.074,3.591a2.434,2.434,0,0,0,.864.809c-.333.345-.668.687-.992,1.04.017-.333.039-.643.058-.913.041-.561.069-.936.069-.936M2.17,47.643c.2-.248.432.05.693.5-.033-.17-.067-.332-.1-.46.2-.3.375-.384.54-.346-.087.373-.179.742-.258,1.117l-.179-.311c.039.182.075.381.116.586-.035.168-.06.339-.093.508a8.633,8.633,0,0,0-.728.805s-.009-.6-.018-1.2.03-1.2.03-1.2m69.567,69.163-.427-.074c.828-.381.624-.162.427.074" transform="translate(0 0)" fill="#366400"/>
          <path id="Trazado_1294928" data-name="Trazado 1294928" d="M132.994,13.684c.047-.125-.023-.385.192-.308-.114-.056-.3-.142-.494-.222l-.622-.262a2.307,2.307,0,0,1,.924.791" transform="translate(-44.184 -4.313)" fill="#366400"/>
          <path id="Trazado_1294929" data-name="Trazado 1294929" d="M133.841,13.665a.616.616,0,0,1,.055.028l-.055-.028" transform="translate(-44.776 -4.572)" fill="#366400"/>
          <path id="Trazado_1294930" data-name="Trazado 1294930" d="M133.747,13.619l.063.03a.642.642,0,0,0-.063-.03" transform="translate(-44.745 -4.556)" fill="#366400"/>
          <path id="Trazado_1294931" data-name="Trazado 1294931" d="M133.733,17.4c-.215.52.584.763,1.364,1.217a1.058,1.058,0,0,1-.13-.092c.65-.471-.283-.83-1.234-1.125" transform="translate(-44.728 -5.822)" fill="#366400"/>
          <path id="Trazado_1294932" data-name="Trazado 1294932" d="M136.759,19.862c.263-.184-.24-.248-.686-.471a4.5,4.5,0,0,1,.686.471" transform="translate(-45.523 -6.487)" fill="#366400"/>
          <path id="Trazado_1294933" data-name="Trazado 1294933" d="M121.885,8.59c.343.307.531-.518.67-.214.724-.439-3.018-.431-.67.214" transform="translate(-40.514 -2.701)" fill="#366400"/>
          <path id="Trazado_1294934" data-name="Trazado 1294934" d="M132.89,19.858l.1-.727-.709.184Z" transform="translate(-44.255 -6.4)" fill="#366400"/>
          <path id="Trazado_1294935" data-name="Trazado 1294935" d="M124.531,14.346l1.17.807c.034-.108.224-.085.444-.028-.763-.416-1.556-.971-1.614-.779" transform="translate(-41.661 -4.786)" fill="#366400"/>
          <path id="Trazado_1294936" data-name="Trazado 1294936" d="M128,16a5.863,5.863,0,0,0-1.044-.464A3.316,3.316,0,0,0,128,16" transform="translate(-42.473 -5.198)" fill="#366400"/>
          <path id="Trazado_1294937" data-name="Trazado 1294937" d="M101.452,7.157c.389-.092.969-.079.779-.337l-1.552-.083c-.191.2.2.409.773.42" transform="translate(-33.665 -2.254)" fill="#366400"/>
          <path id="Trazado_1294938" data-name="Trazado 1294938" d="M175.425,94.7s.1-.3.174-.608l.158-.612-.476.775Z" transform="translate(-58.64 -31.274)" fill="#366400"/>
          <path id="Trazado_1294939" data-name="Trazado 1294939" d="M174.975,90.956l-.764-.737c.032.273.093.807-.107,1.011Z" transform="translate(-58.246 -30.182)" fill="#366400"/>
        </g>
      </g>
      <g id="Grupo_1207354" data-name="Grupo 1207354" transform="translate(295.14 6120.765)">
        <g id="Grupo_1207349" data-name="Grupo 1207349" transform="translate(28.25 58.854)">
          <path id="Trazado_1355795" data-name="Trazado 1355795" d="M34.531,60.594H32.177A1.178,1.178,0,0,1,31,59.417V57.062A7.07,7.07,0,0,1,38.062,50h2.354a1.178,1.178,0,0,1,1.177,1.177v2.354A7.07,7.07,0,0,1,34.531,60.594ZM33.354,58.24h1.177a4.713,4.713,0,0,0,4.708-4.708V52.354H38.062a4.713,4.713,0,0,0-4.708,4.708Z" transform="translate(-22.76 -50)" fill="#fff6c9"/>
          <path id="Trazado_1355796" data-name="Trazado 1355796" d="M33.417,61.594H31.062A7.07,7.07,0,0,1,24,54.531V52.177A1.178,1.178,0,0,1,25.177,51h2.354a7.07,7.07,0,0,1,7.062,7.062v2.354A1.178,1.178,0,0,1,33.417,61.594Zm-7.062-8.24v1.177a4.713,4.713,0,0,0,4.708,4.708H32.24V58.062a4.713,4.713,0,0,0-4.708-4.708Z" transform="translate(-24 -49.823)" fill="#fff6c9"/>
          <path id="Trazado_1355797" data-name="Trazado 1355797" d="M32.177,66.3A1.178,1.178,0,0,1,31,65.125V52.177a1.177,1.177,0,1,1,2.354,0V65.125A1.178,1.178,0,0,1,32.177,66.3Z" transform="translate(-22.76 -49.823)" fill="#fff6c9"/>
        </g>
        <g id="Grupo_1207350" data-name="Grupo 1207350" transform="translate(0 27.073)">
          <path id="Trazado_1355798" data-name="Trazado 1355798" d="M9.708,44.01C5.945,44.01,5,28.861,5,28.708a4.708,4.708,0,0,1,9.417,0C14.417,28.861,13.471,44.01,9.708,44.01Zm0-17.656a2.357,2.357,0,0,0-2.354,2.354c0,2.158,1.25,10.184,2.354,12.51,1.1-2.327,2.354-10.352,2.354-12.51a2.357,2.357,0,0,0-2.354-2.354Z" transform="translate(0.885 -22.823)" fill="#fff6c9"/>
          <path id="Trazado_1355799" data-name="Trazado 1355799" d="M3.816,42.125C1.676,42.125,0,40.057,0,37.417,0,35.193,4.848,28,7.333,28a1.2,1.2,0,0,1,1.2,1.177,1.157,1.157,0,0,1-1.109,1.177c-1.288.538-5.074,5.791-5.074,7.062,0,1.331.71,2.275,1.377,2.349a14.193,14.193,0,0,0,3.426-3.844,1.177,1.177,0,1,1,1.952,1.317c-.991,1.469-3.491,4.885-5.293,4.885Z" transform="translate(0 -22.114)" fill="#fff6c9"/>
          <path id="Trazado_1355800" data-name="Trazado 1355800" d="M7.354,26.531a1.174,1.174,0,0,1-.832-.345L5.345,25.009a1.177,1.177,0,1,1,1.664-1.664l1.177,1.177a1.177,1.177,0,0,1-.832,2.009Z" transform="translate(0.885 -23)" fill="#fff6c9"/>
          <path id="Trazado_1355801" data-name="Trazado 1355801" d="M15.586,42.125c-1.8,0-4.3-3.416-5.293-4.885a1.178,1.178,0,0,1,1.953-1.317,14.193,14.193,0,0,0,3.426,3.844c.667-.074,1.376-1.018,1.376-2.349,0-1.275-3.8-6.549-5.081-7.067a1.2,1.2,0,0,1-1.1-1.172A1.155,1.155,0,0,1,12.018,28c2.537,0,7.385,7.193,7.385,9.417,0,2.64-1.676,4.708-3.815,4.708ZM11.93,30.336Z" transform="translate(1.787 -22.114)" fill="#fff6c9"/>
          <path id="Trazado_1355802" data-name="Trazado 1355802" d="M11.177,26.531a1.177,1.177,0,0,1-.832-2.009l1.177-1.177a1.177,1.177,0,1,1,1.664,1.664l-1.177,1.177a1.174,1.174,0,0,1-.832.345Z" transform="translate(1.771 -23)" fill="#fff6c9"/>
          <path id="Trazado_1355803" data-name="Trazado 1355803" d="M13.24,30.354H6.177a1.177,1.177,0,1,1,0-2.354H13.24a1.177,1.177,0,0,1,0,2.354Z" transform="translate(0.885 -22.114)" fill="#fff6c9"/>
          <path id="Trazado_1355804" data-name="Trazado 1355804" d="M11.885,34.354H7.177a1.177,1.177,0,1,1,0-2.354h4.708a1.177,1.177,0,1,1,0,2.354Z" transform="translate(1.062 -21.406)" fill="#fff6c9"/>
          <path id="Trazado_1355805" data-name="Trazado 1355805" d="M11.208,38.354H7.677a1.177,1.177,0,1,1,0-2.354h3.531a1.177,1.177,0,0,1,0,2.354Z" transform="translate(1.151 -20.698)" fill="#fff6c9"/>
        </g>
        <g id="Grupo_1207352" data-name="Grupo 1207352" transform="translate(24.719)">
          <g id="Grupo_1207351" data-name="Grupo 1207351">
            <path id="Trazado_1355806" data-name="Trazado 1355806" d="M22.177,17.594A1.178,1.178,0,0,1,21,16.417V14.062A7.07,7.07,0,0,1,28.062,7,1.178,1.178,0,0,1,29.24,8.177v2.354A7.07,7.07,0,0,1,22.177,17.594ZM26.885,9.5a4.717,4.717,0,0,0-3.531,4.56v1.029a4.717,4.717,0,0,0,3.531-4.56Z" transform="translate(-21 1.24)" fill="#fff6c9"/>
            <path id="Trazado_1355807" data-name="Trazado 1355807" d="M28.062,10.594A7.07,7.07,0,0,1,21,3.531V1.177A1.178,1.178,0,0,1,22.177,0,7.07,7.07,0,0,1,29.24,7.062V9.417A1.178,1.178,0,0,1,28.062,10.594ZM23.354,2.5V3.531a4.719,4.719,0,0,0,3.531,4.56V7.062A4.719,4.719,0,0,0,23.354,2.5Z" transform="translate(-21)" fill="#fff6c9"/>
          </g>
          <path id="Trazado_1355808" data-name="Trazado 1355808" d="M36.005,16.125C30.394,16.125,26,13.022,26,9.062S30.394,2,36.005,2c5.44,0,9.63,6.144,9.805,6.406a1.175,1.175,0,0,1,0,1.312c-.175.261-4.365,6.406-9.805,6.406Zm0-11.771c-4.147,0-7.651,2.156-7.651,4.708s3.5,4.708,7.651,4.708c3.284,0,6.229-3.276,7.36-4.708C42.234,7.63,39.289,4.354,36.005,4.354Z" transform="translate(-20.115 0.354)" fill="#fff6c9"/>
          <path id="Trazado_1355809" data-name="Trazado 1355809" d="M37.354,8.354H36.177a1.177,1.177,0,0,1,0-2.354h1.177a1.177,1.177,0,0,1,0,2.354Z" transform="translate(-18.521 1.062)" fill="#fff6c9"/>
        </g>
        <g id="Grupo_1207353" data-name="Grupo 1207353" transform="translate(56.5 24.719)">
          <path id="Trazado_1355810" data-name="Trazado 1355810" d="M65.656,45.125H49.177A1.178,1.178,0,0,1,48,43.948V40.417a9.417,9.417,0,0,1,18.833,0v3.531A1.178,1.178,0,0,1,65.656,45.125Zm-15.3-2.354H64.479V40.417a7.062,7.062,0,1,0-14.125,0Z" transform="translate(-48 -19.229)" fill="#fff6c9"/>
          <path id="Trazado_1355811" data-name="Trazado 1355811" d="M56.885,32.771a5.885,5.885,0,1,1,5.885-5.885A5.892,5.892,0,0,1,56.885,32.771Zm0-9.417a3.531,3.531,0,1,0,3.531,3.531A3.536,3.536,0,0,0,56.885,23.354Z" transform="translate(-47.469 -21)" fill="#fff6c9"/>
        </g>
        <path id="Trazado_1355812" data-name="Trazado 1355812" d="M8.286,22.789a1.177,1.177,0,0,1-1.042-1.723A32.619,32.619,0,0,1,21.065,7.244,1.177,1.177,0,1,1,22.158,9.33,30.28,30.28,0,0,0,9.33,22.158a1.177,1.177,0,0,1-1.044.631Z" transform="translate(1.259 1.259)" fill="#fff6c9"/>
        <path id="Trazado_1355813" data-name="Trazado 1355813" d="M44.748,59.249a1.177,1.177,0,0,1-.547-2.22A30.28,30.28,0,0,0,57.029,44.2a1.177,1.177,0,1,1,2.086,1.092A32.619,32.619,0,0,1,45.293,59.115a1.166,1.166,0,0,1-.545.134Z" transform="translate(7.715 7.715)" fill="#fff6c9"/>
        <path id="Trazado_1355814" data-name="Trazado 1355814" d="M58.073,22.789a1.178,1.178,0,0,1-1.044-.631A30.281,30.281,0,0,0,44.2,9.33a1.177,1.177,0,0,1,1.092-2.086A32.619,32.619,0,0,1,59.115,21.066a1.178,1.178,0,0,1-.5,1.589,1.166,1.166,0,0,1-.545.134Z" transform="translate(7.715 1.259)" fill="#fff6c9"/>
        <path id="Trazado_1355815" data-name="Trazado 1355815" d="M21.61,59.249a1.18,1.18,0,0,1-.545-.134A32.619,32.619,0,0,1,7.244,45.293,1.177,1.177,0,1,1,9.33,44.2,30.28,30.28,0,0,0,22.158,57.029a1.177,1.177,0,0,1-.547,2.22Z" transform="translate(1.259 7.715)" fill="#fff6c9"/>
        <path id="Trazado_1355816" data-name="Trazado 1355816" d="M34.3,49.6A15.3,15.3,0,1,1,49.6,34.3,15.32,15.32,0,0,1,34.3,49.6Zm0-28.25A12.948,12.948,0,1,0,47.25,34.3,12.963,12.963,0,0,0,34.3,21.354Z" transform="translate(3.364 3.364)" fill="#fff6c9"/>
        <path id="Trazado_1355817" data-name="Trazado 1355817" d="M33.24,42.479a1.178,1.178,0,0,1-.682-.218C32.25,42.043,25,36.828,25,30.821a4.817,4.817,0,0,1,8.24-3.395,4.817,4.817,0,0,1,8.24,3.395c0,6.007-7.25,11.221-7.558,11.44a1.176,1.176,0,0,1-.682.218ZM29.822,28.354a2.471,2.471,0,0,0-2.468,2.468c0,3.85,4.2,7.635,5.885,8.994,1.681-1.358,5.885-5.143,5.885-8.994a2.466,2.466,0,0,0-4.781-.852,1.177,1.177,0,0,1-2.208,0A2.476,2.476,0,0,0,29.822,28.354Z" transform="translate(4.427 4.604)" fill="#fff6c9"/>
      </g>
    </g>
  </g>
</svg>
