<svg xmlns="http://www.w3.org/2000/svg" xmlns:xlink="http://www.w3.org/1999/xlink" width="188" height="211" viewBox="0 0 188 211">
  <defs>
    <clipPath id="clip-path">
      <rect id="Rectángulo_457677" data-name="Rectángulo 457677" width="188" height="174.095" fill="none"/>
    </clipPath>
    <clipPath id="clip-path-3">
      <rect id="Rectángulo_457625" data-name="Rectángulo 457625" width="163.842" height="154.234" fill="none"/>
    </clipPath>
    <clipPath id="clip-path-4">
      <rect id="Rectángulo_457634" data-name="Rectángulo 457634" width="2.744" height="2.517" fill="none"/>
    </clipPath>
    <clipPath id="clip-path-5">
      <rect id="Rectángulo_457635" data-name="Rectángulo 457635" width="2.705" height="2.576" fill="none"/>
    </clipPath>
    <clipPath id="clip-path-6">
      <path id="Trazado_1355964" data-name="Trazado 1355964" d="M194.961,178.644a1.386,1.386,0,0,1,2.249.987,2.1,2.1,0,0,1-.061.821,3.734,3.734,0,0,1,.5,1.683A3.469,3.469,0,1,1,193.021,179a4.9,4.9,0,0,1,1.66-.2c.093-.051.19-.1.28-.153m-1.571-1.131a4.808,4.808,0,1,0,.8-.067,4.823,4.823,0,0,0-.8.067" transform="translate(-189.369 -177.446)" fill="none"/>
    </clipPath>
    <linearGradient id="linear-gradient" x1="-7.475" y1="7.764" x2="-7.435" y2="7.764" gradientUnits="objectBoundingBox">
      <stop offset="0" stop-color="#2e365e"/>
      <stop offset="1" stop-color="#2e363d"/>
    </linearGradient>
    <clipPath id="clip-path-8">
      <rect id="Rectángulo_457666" data-name="Rectángulo 457666" width="22.8" height="19.787" fill="none"/>
    </clipPath>
    <clipPath id="clip-path-9">
      <rect id="Rectángulo_457667" data-name="Rectángulo 457667" width="6.43" height="6.603" fill="none"/>
    </clipPath>
    <clipPath id="clip-path-10">
      <rect id="Rectángulo_457668" data-name="Rectángulo 457668" width="10.402" height="10.682" fill="none"/>
    </clipPath>
    <clipPath id="clip-path-11">
      <rect id="Rectángulo_457669" data-name="Rectángulo 457669" width="13.856" height="14.228" fill="none"/>
    </clipPath>
    <clipPath id="clip-path-12">
      <rect id="Rectángulo_457670" data-name="Rectángulo 457670" width="22.755" height="19.749" fill="none"/>
    </clipPath>
    <clipPath id="clip-path-13">
      <rect id="Rectángulo_457671" data-name="Rectángulo 457671" width="11.455" height="9.941" fill="none"/>
    </clipPath>
    <clipPath id="clip-path-14">
      <rect id="Rectángulo_457672" data-name="Rectángulo 457672" width="5.457" height="4.736" fill="none"/>
    </clipPath>
    <clipPath id="clip-path-16">
      <rect id="Rectángulo_457674" data-name="Rectángulo 457674" width="11.55" height="11.861" fill="none"/>
    </clipPath>
    <clipPath id="clip-path-17">
      <rect id="Rectángulo_457675" data-name="Rectángulo 457675" width="6.927" height="7.114" fill="none"/>
    </clipPath>
  </defs>
  <g id="Grupo_1207589" data-name="Grupo 1207589" transform="translate(-186 -7945.161)">
    <g id="Grupo_1207407" data-name="Grupo 1207407">
      <rect id="Rectángulo_457182" data-name="Rectángulo 457182" width="188" height="111" rx="20" transform="translate(186 8045.161)" fill="#dfdfa4"/>
      <g id="Grupo_1207406" data-name="Grupo 1207406" transform="translate(186 7945.161)">
        <g id="Grupo_1207405" data-name="Grupo 1207405" clip-path="url(#clip-path)">
          <g id="Grupo_1207370" data-name="Grupo 1207370">
            <g id="Grupo_1207369" data-name="Grupo 1207369" clip-path="url(#clip-path)">
              <g id="Grupo_1207362" data-name="Grupo 1207362" transform="translate(13.689 12.911)" style="mix-blend-mode: multiply;isolation: isolate">
                <g id="Grupo_1207361" data-name="Grupo 1207361">
                  <g id="Grupo_1207360" data-name="Grupo 1207360" clip-path="url(#clip-path-3)">
                    <path id="Trazado_1355884" data-name="Trazado 1355884" d="M52.875,158.078c39.83,34.2,92.7,31.69,126.028-14.667s.622-105.866-44.987-113.751S43.87,30.436,32.554,75.464s4.316,68.871,20.321,82.613" transform="translate(-28.695 -27.064)" fill="#efefef"/>
                  </g>
                </g>
              </g>
              <path id="Trazado_1355885" data-name="Trazado 1355885" d="M59.877,151.74c39.83,34.2,92.7,31.69,126.028-14.667s.623-105.866-44.987-113.751S50.872,24.1,39.556,69.126,43.872,138,59.877,151.74" transform="translate(-18.668 -10.839)" fill="#f7e3c7"/>
              <path id="Trazado_1355886" data-name="Trazado 1355886" d="M233.512,59.276a5.839,5.839,0,0,0,9.023-1.05,5.25,5.25,0,0,0-3.221-8.144c-3.265-.565-6.446.055-7.257,3.279s.309,4.931,1.455,5.915" transform="translate(-121.209 -26.093)" fill="#fbb244"/>
              <path id="Trazado_1355887" data-name="Trazado 1355887" d="M135.559,47.872H157.7a14.74,14.74,0,0,0-6.611-2.694c-3.536-.337-4.136-5.029-6.919-4.041-5.688,2.021-5.458-4.293-10.609,0-2.792,2.328-8.763,3.368-8.763,6.735Z" transform="translate(-65.262 -20.712)" fill="#fff"/>
              <path id="Trazado_1355888" data-name="Trazado 1355888" d="M230.426,94.169c.517.175,53.585,0,53.585,0a26.437,26.437,0,0,0-18.263-2.277c-10.683,2.347-8.442-4.555-16.2-4.555s-7.455,4.283-13.376,3.455-5.749,3.378-5.749,3.378" transform="translate(-120.5 -45.672)" fill="#fff"/>
              <path id="Trazado_1355889" data-name="Trazado 1355889" d="M90.522,90.215H24.013s9.786-6.364,18.123-5.728S53.19,73.349,60.983,78.122s28.814.955,29.54,12.093" transform="translate(-12.558 -40.257)" fill="#fff"/>
              <path id="Trazado_1355890" data-name="Trazado 1355890" d="M332.9,131.264h21.525s-2.87-2.469-5.945-2.469-2.255-3.592-6.15-3.592-4.715,3.031-4.715,3.031-4.715.561-4.715,3.031" transform="translate(-174.089 -65.474)" fill="#fff"/>
              <path id="Trazado_1355891" data-name="Trazado 1355891" d="M47.8,139.942H75.936a23.766,23.766,0,0,0-6.765-2.077c-3.075-.281-3.075-3.985-7.3-3.648s-4.535,3.929-6.688,3.648-7.38,2.077-7.38,2.077" transform="translate(-24.997 -70.177)" fill="#fff"/>
              <path id="Trazado_1355892" data-name="Trazado 1355892" d="M178.063,102.138a95.2,95.2,0,0,0-1.447-14.2c-1.445-7.66-9.036-12.834-17.1-11.614-16.544,2.5-37.738,7.278-37.738,7.278s7.647,2.432,6.9,20.022,0,76.369,0,76.369l42.9-12.551a9.873,9.873,0,0,0,7.269-9.406c-.041-12.721-.2-39.237-.786-55.9" transform="translate(-63.685 -39.822)" fill="#fcc467"/>
              <path id="Trazado_1355893" data-name="Trazado 1355893" d="M107.889,91.78C95.143,95.5,93.944,115.52,96.043,155.135s18.744,33.036,18.744,33.036-.75-58.779,0-76.369-6.9-20.022-6.9-20.022" transform="translate(-49.793 -47.996)" fill="#ee7e3c"/>
              <path id="Trazado_1355894" data-name="Trazado 1355894" d="M116.61,125.093l-17.958-.522.007-.239,17.958.522Z" transform="translate(-51.59 -65.019)" fill="#302e2e"/>
              <rect id="Rectángulo_457626" data-name="Rectángulo 457626" width="0.239" height="17.274" transform="translate(47.616 57.137) rotate(-88.161)" fill="#302e2e"/>
              <path id="Trazado_1355895" data-name="Trazado 1355895" d="M149.709,182.8h-.239V104.865c0-16.9-5.993-17.743-6.054-17.749l.024-.237c.256.026,6.268.831,6.268,17.986Z" transform="translate(-74.999 -45.433)" fill="#302e2e"/>
              <path id="Trazado_1355896" data-name="Trazado 1355896" d="M167,178.492h-.239c0-.615.218-61.68-.77-77.718-.98-15.907-6.6-16.871-6.661-16.879l.031-.236c.239.031,5.873.961,6.868,17.1.988,16.045.772,77.119.77,77.733" transform="translate(-83.32 -43.749)" fill="#302e2e"/>
              <path id="Trazado_1355897" data-name="Trazado 1355897" d="M185.011,234.583H134.623s-4.365,13.323-4.78,23.484c-.134,3.279-.506,10.689-.95,19.22,20.359,10.414,42.436,12.418,62.828,5.268-.713-16.483-1.759-33.374-3.152-37.585-2.914-8.807-3.559-10.387-3.559-10.387" transform="translate(-67.405 -122.674)" fill="#ffb674"/>
              <path id="Trazado_1355898" data-name="Trazado 1355898" d="M294.454,92.384s-8.656-35.828-10.5-43.506c-.423-1.758.828-13.134,1.2-16.785s-1.769-4.328-1.769-4.328a3.388,3.388,0,0,0-2.71-2.672c-.263-2.145-2.6-2.032-2.6-2.032,0-1.016-.941-8.167-5.984-5.57s-6.36,9.22-6.36,9.22c2.559,3.237,5.457-1.129,5.457-1.129L267.583,35.4l-1.129-1.016s.226-1.129.9-4.178-2.032-3.048-2.032-3.048L263.18,31.34c-2.145,4.177-1.017,8.355,2.032,14.226s9.371,40.194,9.371,40.194l-7.228-5.819L254.9,100.585c3.492,2.875,8.4,6.747,11.4,8.358,5.043,2.71,13.473,6.4,22.506.752s5.645-17.312,5.645-17.312" transform="translate(-133.3 -8.852)" fill="#f47365"/>
              <path id="Trazado_1355899" data-name="Trazado 1355899" d="M254.9,169.662l17.838-16.31-5.384-4.335Z" transform="translate(-133.3 -77.928)" fill="#222"/>
              <path id="Trazado_1355900" data-name="Trazado 1355900" d="M221.845,95.895l11.667,42.527s1.721,1.5,4.1,3.46l15.117-20.813Z" transform="translate(-116.013 -50.148)" fill="#fffcee"/>
              <rect id="Rectángulo_457627" data-name="Rectángulo 457627" width="0.477" height="14.28" transform="translate(141.048 76.949) rotate(-9.711)" fill="#302e2e"/>
              <path id="Trazado_1355901" data-name="Trazado 1355901" d="M280.415,35.273l-.309-.18c.858-1.476,1.115-2.584.744-3.2a1.488,1.488,0,0,0-1.222-.573l-.015-.357a1.819,1.819,0,0,1,1.542.744c.451.749.2,1.95-.74,3.571" transform="translate(-146.223 -16.189)" fill="#302e2e"/>
              <path id="Trazado_1355902" data-name="Trazado 1355902" d="M273.547,44.12a1.779,1.779,0,0,1-1.278-.634l.279-.224a1.392,1.392,0,0,0,1.178.486c.589-.1,1.486-.743,2.413-3.265l.335.123c-.793,2.158-1.7,3.334-2.694,3.5a1.48,1.48,0,0,1-.234.019" transform="translate(-142.382 -21.17)" fill="#302e2e"/>
              <rect id="Rectángulo_457628" data-name="Rectángulo 457628" width="6.236" height="0.358" transform="matrix(0.495, -0.869, 0.869, 0.495, 137.742, 16.643)" fill="#302e2e"/>
              <path id="Trazado_1355903" data-name="Trazado 1355903" d="M294.3,41.248a1.119,1.119,0,0,1-.67-.21c-.912-.659-.988-2.786-.225-6.325,1.187-5.5,4.422-5.314,4.554-5.3l-.027.357c-.124-.011-3.061-.153-4.178,5.023-.957,4.441-.358,5.64.085,5.959.337.244.841.172,1.494-.213l.182.308a2.474,2.474,0,0,1-1.215.405" transform="translate(-153.164 -15.377)" fill="#302e2e"/>
              <path id="Trazado_1355904" data-name="Trazado 1355904" d="M299.65,44.432A1.706,1.706,0,0,1,298.3,44c-.593-.658-.253-1.944.312-4.075.148-.557.31-1.171.474-1.843,1.193-4.886,4.036-4.446,4.156-4.424l-.061.352c-.107-.018-2.638-.388-3.747,4.157-.165.675-.328,1.291-.476,1.85-.515,1.945-.855,3.231-.392,3.744.3.335,1.016.4,2.246.208l.056.354a8.059,8.059,0,0,1-1.223.113" transform="translate(-155.835 -17.59)" fill="#302e2e"/>
              <path id="Trazado_1355905" data-name="Trazado 1355905" d="M305.039,48.639a1.341,1.341,0,0,1-.866-.3,1.434,1.434,0,0,1-.533-1.092c-.138-2.617,4.9-7.655,5.11-7.869l.253.254c-.052.051-5.135,5.138-5.006,7.6a1.078,1.078,0,0,0,.4.832c1,.8,2.858-.735,4.248-2.159l.256.25c-1.615,1.655-2.908,2.487-3.862,2.487" transform="translate(-158.786 -20.594)" fill="#302e2e"/>
              <rect id="Rectángulo_457629" data-name="Rectángulo 457629" width="0.358" height="10.756" transform="translate(134.161 26.683) rotate(-46.7)" fill="#302e2e"/>
              <path id="Trazado_1355906" data-name="Trazado 1355906" d="M291.385,60.582l-.26-.246c.137-.145,3.4-3.563,6.118-4.019l.06.353c-2.6.437-5.885,3.878-5.918,3.913" transform="translate(-152.243 -29.451)" fill="#302e2e"/>
              <path id="Trazado_1355907" data-name="Trazado 1355907" d="M312.832,91.355l-.021,0a.119.119,0,0,1-.1-.139l.79-4.347a.119.119,0,0,1,.235.043l-.79,4.347a.119.119,0,0,1-.117.1" transform="translate(-163.532 -45.376)" fill="#302e2e"/>
              <path id="Trazado_1355908" data-name="Trazado 1355908" d="M295.194,19.01a.119.119,0,0,1-.118-.1,3.831,3.831,0,0,0-.874-1.979.119.119,0,0,1,.174-.163,4.018,4.018,0,0,1,.936,2.114.119.119,0,0,1-.1.133h-.014" transform="translate(-153.835 -8.746)" fill="#302e2e"/>
              <path id="Trazado_1355909" data-name="Trazado 1355909" d="M296.5,18.584a3.961,3.961,0,0,0-.724-1.616l.185-.151a4.124,4.124,0,0,1,.773,1.725Z" transform="translate(-154.676 -8.794)" fill="#302e2e"/>
              <path id="Trazado_1355910" data-name="Trazado 1355910" d="M301.57,33.425a.119.119,0,0,1-.1-.062,3.771,3.771,0,0,0-1.6-1.226.119.119,0,1,1,.091-.22,3.933,3.933,0,0,1,1.715,1.333.12.12,0,0,1-.048.162.122.122,0,0,1-.057.014" transform="translate(-156.777 -16.686)" fill="#302e2e"/>
              <path id="Trazado_1355911" data-name="Trazado 1355911" d="M303.107,32.81a.118.118,0,0,1-.1-.054,3.608,3.608,0,0,0-1.215-1.107.119.119,0,0,1,.109-.212,3.793,3.793,0,0,1,1.306,1.189.119.119,0,0,1-.035.165.118.118,0,0,1-.065.019" transform="translate(-157.787 -16.433)" fill="#302e2e"/>
              <path id="Trazado_1355912" data-name="Trazado 1355912" d="M307.467,38.528a.119.119,0,0,1-.1-.062,3.775,3.775,0,0,0-1.6-1.226.119.119,0,1,1,.091-.22,3.936,3.936,0,0,1,1.716,1.333.12.12,0,0,1-.048.162.122.122,0,0,1-.057.014" transform="translate(-159.86 -19.354)" fill="#302e2e"/>
              <path id="Trazado_1355913" data-name="Trazado 1355913" d="M309,37.913a.119.119,0,0,1-.1-.054,3.608,3.608,0,0,0-1.215-1.107.119.119,0,0,1,.109-.212,3.794,3.794,0,0,1,1.306,1.189.119.119,0,0,1-.1.184" transform="translate(-160.871 -19.101)" fill="#302e2e"/>
              <path id="Trazado_1355914" data-name="Trazado 1355914" d="M311.457,47.615a.119.119,0,0,1-.1-.062,3.771,3.771,0,0,0-1.6-1.226.119.119,0,1,1,.091-.22,3.933,3.933,0,0,1,1.715,1.333.12.12,0,0,1-.048.162.122.122,0,0,1-.057.014" transform="translate(-161.947 -24.106)" fill="#302e2e"/>
              <path id="Trazado_1355915" data-name="Trazado 1355915" d="M313,47a.119.119,0,0,1-.1-.054,3.608,3.608,0,0,0-1.215-1.107.119.119,0,1,1,.109-.212,3.793,3.793,0,0,1,1.306,1.189A.119.119,0,0,1,313,47" transform="translate(-162.958 -23.853)" fill="#302e2e"/>
              <path id="Trazado_1355916" data-name="Trazado 1355916" d="M295.007,49.183l-.346-.091c.409-1.551.361-2.706-.141-3.338a1.4,1.4,0,0,0-1.03-.523l-.009-.358a1.734,1.734,0,0,1,1.32.659c.583.735.652,1.964.206,3.652" transform="translate(-153.475 -23.466)" fill="#302e2e"/>
              <path id="Trazado_1355917" data-name="Trazado 1355917" d="M300.8,51.478l-.328-.143a3.215,3.215,0,0,0,.24-2.848,1.851,1.851,0,0,0-1.3-.816l.035-.356a2.181,2.181,0,0,1,1.569.987,3.52,3.52,0,0,1-.219,3.176" transform="translate(-156.58 -24.743)" fill="#302e2e"/>
              <path id="Trazado_1355918" data-name="Trazado 1355918" d="M305.658,54.074l-.253-.254c.977-.972,1.409-1.825,1.25-2.468a1.634,1.634,0,0,0-1.047-.991l.1-.343A1.969,1.969,0,0,1,307,51.263c.2.784-.257,1.729-1.344,2.811" transform="translate(-159.711 -26.157)" fill="#302e2e"/>
              <rect id="Rectángulo_457630" data-name="Rectángulo 457630" width="1.664" height="0.358" transform="translate(139.904 22.848)" fill="#302e2e"/>
              <path id="Trazado_1355919" data-name="Trazado 1355919" d="M280.443,34.776l-2.161-.713.112-.34,2.161.713Z" transform="translate(-145.527 -17.635)" fill="#302e2e"/>
              <rect id="Rectángulo_457631" data-name="Rectángulo 457631" width="0.358" height="2.099" transform="matrix(0.745, -0.667, 0.667, 0.745, 130.745, 20.665)" fill="#302e2e"/>
              <rect id="Rectángulo_457632" data-name="Rectángulo 457632" width="0.358" height="1.943" transform="matrix(0.041, -0.999, 0.999, 0.041, 142.529, 24.212)" fill="#302e2e"/>
              <rect id="Rectángulo_457633" data-name="Rectángulo 457633" width="0.358" height="1.881" transform="translate(145.26 25.452) rotate(-70.499)" fill="#302e2e"/>
              <path id="Trazado_1355920" data-name="Trazado 1355920" d="M179.517,92.837c-7.815-7.023-35.753,1.43-35.753,1.43L140.9,159h50.388l-.108-23.635Z" transform="translate(-73.685 -47.09)" fill="#fffcee"/>
              <path id="Trazado_1355921" data-name="Trazado 1355921" d="M152.535,94.579c-2.859.627-5.222,1.247-6.644,1.641,0,0,4.054,28.708-3.253,41l-.458,10.367c15.924-7.848,11.472-45.212,10.355-53.009" transform="translate(-74.353 -49.46)" fill="#893e29"/>
              <path id="Trazado_1355922" data-name="Trazado 1355922" d="M215.513,93.258a11.457,11.457,0,0,0-5.776-2.406c1.516,8.8,8.511,46.531,17.466,50.1l-.023-5.166Z" transform="translate(-109.681 -47.511)" fill="#893e29"/>
              <path id="Trazado_1355923" data-name="Trazado 1355923" d="M204.285,294.757l-.476-.024,2.05-40.819,6.425-4.131.258.4-6.22,4Z" transform="translate(-106.581 -130.623)" fill="#302e2e"/>
              <path id="Trazado_1355924" data-name="Trazado 1355924" d="M130.376,263.4l-.2-.432c.2-.094,20.111-9.548,25.437-28.524l.459.128c-5.387,19.191-25.493,28.733-25.7,28.827" transform="translate(-68.075 -122.604)" fill="#302e2e"/>
              <path id="Trazado_1355925" data-name="Trazado 1355925" d="M152.721,28.479a9.984,9.984,0,0,1,5.627-4.1c.685-3.784,2.352-10.824,5.495-12.448,4.346-2.245,2.019,6.447,2.019,6.447s7.759-9.971,10.157-5.114a3.444,3.444,0,0,1,.337,2.018,3.656,3.656,0,0,1,3.783.539c1.528,1.284,1.487,2.548.8,3.658,2.648-.481,3.765,1.307,3.012,3.389-1.551,4.287-3.815,4.969-3.815,4.969s6.232,16.874-10.145,19.175-24.758-7.229-17.272-18.536" transform="translate(-78.42 -6.046)" fill="#222"/>
              <path id="Trazado_1355926" data-name="Trazado 1355926" d="M169.426,46.452c-.442,5.017.848,10.231,2.565,12.461a10.579,10.579,0,0,0,1,1.112A11.865,11.865,0,0,0,182.06,63.1a5.949,5.949,0,0,0,.581-.142c1.954-.563,8.139-3.079,7.6-12.266a21.227,21.227,0,0,0-4.464-11.959,3.156,3.156,0,0,0-5.3.482c-1.332,2.5-4.163,5.433-10.162,7.1Z" transform="translate(-88.555 -19.614)" fill="#f47365"/>
              <path id="Trazado_1355927" data-name="Trazado 1355927" d="M177.011,92.823,177,84.706a11.867,11.867,0,0,0,9.065,3.078s.218-.038.581-.143l-.013,10.151s-6.63.656-9.624-4.969" transform="translate(-92.562 -44.297)" fill="#f47365"/>
              <path id="Trazado_1355928" data-name="Trazado 1355928" d="M186.458,88.132a5.948,5.948,0,0,0,.581-.142l0,2.932c-2.23-.088-7.179-.85-9.285-5.55a11.979,11.979,0,0,0,8.708,2.76" transform="translate(-92.954 -44.645)" fill="#222"/>
              <path id="Trazado_1355929" data-name="Trazado 1355929" d="M163.208,65.223a4.7,4.7,0,0,1-5.136-4c-.807-4.5,3.678-4.265,3.678-4.265a22.518,22.518,0,0,0,1.458,8.263" transform="translate(-82.613 -29.786)" fill="#f47365"/>
              <path id="Trazado_1355930" data-name="Trazado 1355930" d="M159.691,62.6h-.014a.119.119,0,0,1-.1-.133,2.261,2.261,0,0,1,2.093-2.115h0a.119.119,0,0,1,0,.239,2,2,0,0,0-1.863,1.9.119.119,0,0,1-.118.1" transform="translate(-83.448 -31.562)" fill="#222"/>
              <path id="Trazado_1355931" data-name="Trazado 1355931" d="M163.23,64.9a.118.118,0,0,1-.077-.028,4.2,4.2,0,0,1-1.466-3.326.113.113,0,0,1,.127-.11.119.119,0,0,1,.11.127,4.038,4.038,0,0,0,1.382,3.127.119.119,0,0,1-.077.21" transform="translate(-84.551 -32.127)" fill="#222"/>
              <path id="Trazado_1355932" data-name="Trazado 1355932" d="M214.623,60.511a3.731,3.731,0,0,0,3.434-3.861c-.018-3.627-3.485-2.8-3.485-2.8a17.885,17.885,0,0,1,.052,6.661" transform="translate(-112.209 -28.118)" fill="#f47365"/>
              <path id="Trazado_1355933" data-name="Trazado 1355933" d="M218.3,57.767a.119.119,0,0,1-.114-.083,1.565,1.565,0,0,0-1.7-1.2.119.119,0,0,1-.036-.236,1.819,1.819,0,0,1,1.966,1.366.119.119,0,0,1-.078.15.113.113,0,0,1-.035.005" transform="translate(-113.136 -29.408)" fill="#222"/>
              <path id="Trazado_1355934" data-name="Trazado 1355934" d="M216.844,59.769a.119.119,0,0,1-.092-.2,3.179,3.179,0,0,0,.624-2.618.12.12,0,0,1,.231-.06,3.364,3.364,0,0,1-.671,2.83.119.119,0,0,1-.092.043" transform="translate(-113.336 -29.707)" fill="#222"/>
              <path id="Trazado_1355935" data-name="Trazado 1355935" d="M183.163,54.25a.119.119,0,0,1-.089-.2,6.26,6.26,0,0,1,3.008-1.941.119.119,0,1,1,.063.23,6.013,6.013,0,0,0-2.893,1.87.119.119,0,0,1-.089.039" transform="translate(-95.722 -27.249)" fill="#222"/>
              <path id="Trazado_1355936" data-name="Trazado 1355936" d="M204.445,52.072a.12.12,0,0,1-.069-.022,4.842,4.842,0,0,0-2.633-.852.119.119,0,0,1-.114-.124.125.125,0,0,1,.124-.114,5.079,5.079,0,0,1,2.762.9.119.119,0,0,1-.069.217" transform="translate(-105.441 -26.649)" fill="#222"/>
              <path id="Trazado_1355937" data-name="Trazado 1355937" d="M197.636,63a.119.119,0,0,1-.053-.226c.935-.464,1.354-.842,1.4-1.264.053-.46-.346-1.036-1.223-1.761a4.614,4.614,0,0,1-1.731-3.207.119.119,0,0,1,.116-.122.126.126,0,0,1,.122.116,4.458,4.458,0,0,0,1.645,3.029c.956.791,1.372,1.418,1.308,1.972-.074.643-.781,1.077-1.534,1.45a.117.117,0,0,1-.052.012" transform="translate(-102.514 -29.503)" fill="#222"/>
              <g id="Grupo_1207365" data-name="Grupo 1207365" transform="translate(87.94 31.375)" opacity="0.5" style="mix-blend-mode: multiply;isolation: isolate">
                <g id="Grupo_1207364" data-name="Grupo 1207364">
                  <g id="Grupo_1207363" data-name="Grupo 1207363" clip-path="url(#clip-path-4)">
                    <path id="Trazado_1355938" data-name="Trazado 1355938" d="M184.424,66.364c.543-.742,1.255.156,1.255.156s.487-1.166,1.191-.594c.611.5-.232,2.241-.791,2.353s-2.119-1.281-1.654-1.915" transform="translate(-184.339 -65.768)" fill="#f43d4f"/>
                  </g>
                </g>
              </g>
              <g id="Grupo_1207368" data-name="Grupo 1207368" transform="translate(97.598 32.09)" opacity="0.5" style="mix-blend-mode: multiply;isolation: isolate">
                <g id="Grupo_1207367" data-name="Grupo 1207367">
                  <g id="Grupo_1207366" data-name="Grupo 1207366" clip-path="url(#clip-path-5)">
                    <path id="Trazado_1355939" data-name="Trazado 1355939" d="M207.245,68.22c-.406-.825-1.263-.064-1.263-.064s-.277-1.233-1.07-.793c-.687.382-.161,2.247.37,2.455s2.31-.892,1.963-1.6" transform="translate(-204.585 -67.268)" fill="#f43d4f"/>
                  </g>
                </g>
              </g>
              <path id="Trazado_1355940" data-name="Trazado 1355940" d="M194.824,74.224a3.686,3.686,0,0,1-3.1-1.654.119.119,0,0,1,.2-.127,3.468,3.468,0,0,0,2.984,1.541.117.117,0,0,1,.127.111.119.119,0,0,1-.11.127s-.039,0-.1,0" transform="translate(-100.251 -37.854)" fill="#222"/>
              <path id="Trazado_1355941" data-name="Trazado 1355941" d="M187.6,60.025A.97.97,0,1,0,188.516,59a.971.971,0,0,0-.913,1.024" transform="translate(-98.106 -30.854)" fill="#222"/>
              <path id="Trazado_1355942" data-name="Trazado 1355942" d="M201.744,58.428a.97.97,0,1,0,.913-1.024.969.969,0,0,0-.913,1.024" transform="translate(-105.501 -30.019)" fill="#222"/>
              <path id="Trazado_1355943" data-name="Trazado 1355943" d="M161.951,39.1s-1.881-2.6-6.738-1.768" transform="translate(-81.168 -19.435)" fill="#222"/>
              <path id="Trazado_1355944" data-name="Trazado 1355944" d="M163.622,34.987s.34-3.191-3.829-5.82" transform="translate(-83.563 -15.253)" fill="#222"/>
              <rect id="Rectángulo_457636" data-name="Rectángulo 457636" width="2.385" height="38.698" transform="matrix(0.99, -0.144, 0.144, 0.99, 80.482, 44.579)" fill="#222"/>
              <rect id="Rectángulo_457637" data-name="Rectángulo 457637" width="2.386" height="37.563" transform="matrix(0.994, -0.113, 0.113, 0.994, 94.425, 43.092)" fill="#222"/>
              <path id="Trazado_1355945" data-name="Trazado 1355945" d="M159.758,125.242a1.073,1.073,0,1,1-1.141-1.252,1.218,1.218,0,0,1,1.141,1.252" transform="translate(-82.458 -64.838)" fill="#ffb674"/>
              <path id="Trazado_1355946" data-name="Trazado 1355946" d="M153.007,155.561a3.3,3.3,0,0,1-2.142-.917c-.911-.985-.867-2.735-.705-5.1.149-2.185.672-3.636,1.6-4.436a3.708,3.708,0,0,1,2.875-.748c3.45.244,3.335,3.089,3.26,5.153l-.023.88c-.04,2.1-.1,5.274-3.628,5.24a10.876,10.876,0,0,1-1.233-.073M154.582,145a3.124,3.124,0,0,0-2.408.593c-.79.683-1.24,1.99-1.377,4-.175,2.549-.139,3.891.537,4.621.489.529,1.386.771,2.912.785,2.895.027,2.942-2.545,2.981-4.613l.025-.891c.075-2.1.133-4.272-2.67-4.492m.024-.319h0Z" transform="translate(-78.478 -75.482)" fill="#ffb674"/>
              <path id="Trazado_1355947" data-name="Trazado 1355947" d="M158.609,149.745a.319.319,0,0,1-.278-.292,37.627,37.627,0,0,1,.269-4.788.319.319,0,0,1,.354-.282h0a.32.32,0,0,1,.278.353,38.215,38.215,0,0,0-.267,4.666.319.319,0,0,1-.293.343.272.272,0,0,1-.065,0" transform="translate(-82.788 -75.504)" fill="#ffb674"/>
              <path id="Trazado_1355948" data-name="Trazado 1355948" d="M148.849,161.632l8.419.473-.408,2.7-8.155-.313Z" transform="translate(-77.765 -84.525)" fill="#ee7e3c"/>
              <path id="Trazado_1355949" data-name="Trazado 1355949" d="M226.114,149.77c-3.355.621-3.941-2.391-4.329-4.385l-.169-.833c-.416-1.953-1-4.643,2.245-5.451a3.581,3.581,0,0,1,2.862.232c1.014.607,1.754,1.9,2.261,3.957.549,2.225.883,3.884.18,4.974a3.192,3.192,0,0,1-1.886,1.231,10.713,10.713,0,0,1-1.162.276m-2.1-10.071c-2.632.678-2.215,2.734-1.792,4.724l.172.844c.382,1.962.857,4.4,3.609,3.894,1.451-.268,2.265-.648,2.642-1.233.521-.808.332-2.091-.26-4.49-.465-1.888-1.113-3.058-1.978-3.576a3.02,3.02,0,0,0-2.392-.163m-.082-.3.006,0Z" transform="translate(-115.722 -72.647)" fill="#ffb674"/>
              <path id="Trazado_1355950" data-name="Trazado 1355950" d="M227.636,144.34a.308.308,0,0,0,.216-.325A36.492,36.492,0,0,0,226.8,139.5a.309.309,0,0,0-.384-.209h0a.309.309,0,0,0-.206.383,36.884,36.884,0,0,1,1.033,4.4.309.309,0,0,0,.337.278.269.269,0,0,0,.062-.012" transform="translate(-118.286 -72.836)" fill="#ffb674"/>
              <path id="Trazado_1355951" data-name="Trazado 1355951" d="M230.977,153.951l-7.938,1.856.84,2.506,7.713-1.66Z" transform="translate(-116.638 -80.508)" fill="#ee7e3c"/>
              <path id="Trazado_1355952" data-name="Trazado 1355952" d="M159.176,114.6a1.073,1.073,0,1,1-1.141-1.252,1.218,1.218,0,0,1,1.141,1.252" transform="translate(-82.153 -59.275)" fill="#ffb674"/>
              <path id="Trazado_1355953" data-name="Trazado 1355953" d="M221.207,118.4a1.073,1.073,0,1,1-1.316-1.067,1.217,1.217,0,0,1,1.316,1.067" transform="translate(-114.597 -61.345)" fill="#ffb674"/>
              <path id="Trazado_1355954" data-name="Trazado 1355954" d="M219.037,107.965a1.073,1.073,0,1,1-1.315-1.067,1.217,1.217,0,0,1,1.315,1.067" transform="translate(-113.462 -55.891)" fill="#ffb674"/>
              <path id="Trazado_1355955" data-name="Trazado 1355955" d="M175.125,165.862h0a.888.888,0,0,1,1.023.723l.264,1.537a.885.885,0,1,1-1.745.3l-.264-1.537a.888.888,0,0,1,.723-1.023" transform="translate(-91.196 -86.73)" fill="#333"/>
              <path id="Trazado_1355956" data-name="Trazado 1355956" d="M215.884,163l-2.025.348a1.665,1.665,0,0,1-.564-3.283l2.025-.348a1.665,1.665,0,0,1,.564,3.283" transform="translate(-110.818 -83.509)" fill="#333"/>
              <path id="Trazado_1355957" data-name="Trazado 1355957" d="M191.511,161.084c.889-.16,1.776-.325,2.665-.477.308-.052.566-.141.5-.521s-.333-.385-.644-.331c-.889.156-1.781.3-2.671.443s-1.8.33-2.7.478c-.319.052-.555.172-.495.528s.324.386.642.33c.9-.161,1.8-.3,2.7-.45" transform="translate(-98.396 -83.531)" fill="#fafafa"/>
              <path id="Trazado_1355958" data-name="Trazado 1355958" d="M190.864,162.6l-.017-.026,4.5-.767c-.3-1.108-.607-2.217-.915-3.325a.666.666,0,0,0-.831-.55q-1.722.3-3.443.609l-3.537.591a.667.667,0,0,0-.6.8c.077,1.145.163,2.291.245,3.436l4.595-.768m-3.139-2.019c-.317.057-.581.028-.642-.329s.176-.476.495-.528c.9-.148,1.8-.317,2.7-.478s1.782-.288,2.671-.443c.312-.054.578-.042.644.331s-.19.468-.5.521c-.89.152-1.777.317-2.665.477s-1.8.289-2.7.45" transform="translate(-97.279 -82.579)" fill="#333"/>
              <path id="Trazado_1355959" data-name="Trazado 1355959" d="M166.231,167.183l27.709-4.761a.813.813,0,0,1,.936.662l2.943,17.131a.813.813,0,0,1-.661.936l-27.709,4.761a.813.813,0,0,1-.936-.661l-2.943-17.131a.813.813,0,0,1,.662-.936" transform="translate(-86.578 -84.932)" fill="#5e5e5e"/>
              <rect id="Rectángulo_457638" data-name="Rectángulo 457638" width="29.736" height="9.982" transform="translate(79.615 86.815) rotate(-9.749)" fill="#333"/>
              <path id="Trazado_1355960" data-name="Trazado 1355960" d="M187.8,186.313a9.329,9.329,0,0,1-3.075-1.888c-.11-.13-.217-.263-.33-.391a8.062,8.062,0,0,1-1.952-4.015,8.272,8.272,0,0,1,.937-5.5,8.37,8.37,0,0,1,5.775-4.026,9.511,9.511,0,0,1,3.06.091,9.176,9.176,0,0,1,3.654,1.786c.116.125.227.256.348.375a8.075,8.075,0,0,1,2.462,6.257,10.19,10.19,0,0,1-.766,3.15.9.9,0,0,0-.118.142,8.225,8.225,0,0,1-5.863,4.357,8.468,8.468,0,0,1-4.133-.342m1.59-14.062a6.447,6.447,0,1,0,7.445,5.231,6.386,6.386,0,0,0-7.445-5.231" transform="translate(-95.338 -89.119)" fill="#333"/>
              <path id="Trazado_1355961" data-name="Trazado 1355961" d="M176.611,192.781a1.145,1.145,0,1,1-.923,1.308,1.16,1.16,0,0,1,.923-1.308m.287,1.788a.685.685,0,0,0,.581-.774.673.673,0,1,0-.581.774" transform="translate(-91.868 -100.805)" fill="#fafafa"/>
              <path id="Trazado_1355962" data-name="Trazado 1355962" d="M193.569,186.848a6.447,6.447,0,1,1,5.178-7.463,6.442,6.442,0,0,1-5.178,7.463m3.59-7.152a4.815,4.815,0,1,0-3.954,5.538,4.822,4.822,0,0,0,3.954-5.538" transform="translate(-97.254 -91.021)" fill="#464e4d"/>
              <path id="Trazado_1355963" data-name="Trazado 1355963" d="M176.662,194.525a.7.7,0,0,0,.749.559.685.685,0,0,0,.581-.774.673.673,0,0,0-1.33.215" transform="translate(-92.381 -101.32)" fill="#333"/>
            </g>
          </g>
          <g id="Grupo_1207372" data-name="Grupo 1207372" transform="translate(90.339 84.651)">
            <g id="Grupo_1207371" data-name="Grupo 1207371" clip-path="url(#clip-path-6)">
              <rect id="Rectángulo_457640" data-name="Rectángulo 457640" width="11.932" height="11.623" transform="translate(-2.047 0.287) rotate(-9.753)" fill="url(#linear-gradient)"/>
            </g>
          </g>
          <g id="Grupo_1207404" data-name="Grupo 1207404">
            <g id="Grupo_1207403" data-name="Grupo 1207403" clip-path="url(#clip-path)">
              <path id="Trazado_1355965" data-name="Trazado 1355965" d="M196.141,180.278a4.915,4.915,0,0,0-1.66.2,3.47,3.47,0,1,0,4.626,3.134,3.742,3.742,0,0,0-.5-1.683c-.061.068-.124.134-.181.2a1.433,1.433,0,0,1-2.395-1.564c.048-.094.138-.172.107-.295" transform="translate(-100.489 -94.276)" fill="#222"/>
              <path id="Trazado_1355966" data-name="Trazado 1355966" d="M200.781,178.966a1.64,1.64,0,1,1-1.339,1.894,1.64,1.64,0,0,1,1.339-1.894" transform="translate(-104.285 -93.577)" fill="#fafafa"/>
              <path id="Trazado_1355967" data-name="Trazado 1355967" d="M156.684,187.553a4.319,4.319,0,0,0-.068-4.428,2.937,2.937,0,0,0-.02-2.663c-.685-1.434-2.687-.75-4.258.084A14.082,14.082,0,0,0,154,178.628c1.318-1.8.951-2.8.416-3.33a1.275,1.275,0,0,0-1.464-.2l-40.04,20.2.364-7.211H88a66.594,66.594,0,0,0,.373,20.737c3.914,19.269,20.775,12.043,31.011,6.774s33.314-18.6,33.314-18.6a8.548,8.548,0,0,0,3.022-2.983c.724-1.583.579-2.415.2-2.852,1.282-1.6,1.171-2.812.764-3.606" transform="translate(-45.693 -91.492)" fill="#f47365"/>
              <rect id="Rectángulo_457641" data-name="Rectángulo 457641" width="10.069" height="0.358" transform="translate(97.992 94.206) rotate(-31.763)" fill="#302e2e"/>
              <rect id="Rectángulo_457642" data-name="Rectángulo 457642" width="8.962" height="0.358" transform="translate(103.66 96.886) rotate(-36.977)" fill="#302e2e"/>
              <rect id="Rectángulo_457643" data-name="Rectángulo 457643" width="6.902" height="0.358" transform="translate(105.356 100.05) rotate(-36.763)" fill="#302e2e"/>
              <rect id="Rectángulo_457644" data-name="Rectángulo 457644" width="5.143" height="0.357" transform="translate(106.177 102.842) rotate(-40.071)" fill="#302e2e"/>
              <path id="Trazado_1355968" data-name="Trazado 1355968" d="M220.835,179.881a1.76,1.76,0,0,1-.795-.175,2.144,2.144,0,0,1-1.008-1.729l.358-.017a1.815,1.815,0,0,0,.812,1.426c.722.358,1.9,0,3.393-1.028l.2.295a5.688,5.688,0,0,1-2.963,1.227" transform="translate(-114.542 -93.064)" fill="#302e2e"/>
              <rect id="Rectángulo_457645" data-name="Rectángulo 457645" width="10.797" height="0.477" transform="matrix(0.885, -0.465, 0.465, 0.885, 57.548, 108.61)" fill="#302e2e"/>
              <rect id="Rectángulo_457646" data-name="Rectángulo 457646" width="0.358" height="2.462" transform="matrix(0.95, -0.312, 0.312, 0.95, 105.707, 84.355)" fill="#302e2e"/>
              <path id="Trazado_1355969" data-name="Trazado 1355969" d="M112.425,98.892s-14.6,4.064-18.667,14.452c-2.707,6.918-11.095,20.781-12.783,34.963h29.266Z" transform="translate(-42.346 -51.715)" fill="#fffcee"/>
              <rect id="Rectángulo_457647" data-name="Rectángulo 457647" width="24.747" height="0.477" transform="translate(67.648 96.691) rotate(-86.732)" fill="#302e2e"/>
              <path id="Trazado_1355970" data-name="Trazado 1355970" d="M259.126,32.752c-.055-.048-5.557-4.779-9.838-7.955-7.39-5.483-21.02-8.19-21.157-8.216l.046-.235c.137.027,13.82,2.744,21.254,8.259,4.287,3.181,9.8,7.918,9.851,7.966Z" transform="translate(-119.3 -8.549)" fill="#302e2e"/>
              <path id="Trazado_1355971" data-name="Trazado 1355971" d="M234.792,17.472s-9.4-.005-7.844-3.724c1.678-4,8.348,1.571,8.348,1.571s-1.819-2.669.375-3.9c3.073-1.731,5.968,5.843,5.968,5.843s-.9-3.292,1.607-4.055c3.1-.946,5.4,8.784,5.4,8.784s-8.579,4.583-10.242,2.161c-1.156-1.685,1.825-3.349,1.825-3.349s-7.3,2.349-8.478.112,3.037-3.439,3.037-3.439" transform="translate(-118.59 -5.835)" fill="#005c4f"/>
              <path id="Trazado_1355972" data-name="Trazado 1355972" d="M237.211,28.007l-.048-.234c.057-.012,5.709-1.182,7.682-2.681l.145.19c-2.016,1.532-7.544,2.676-7.778,2.724" transform="translate(-124.024 -13.122)" fill="#302e2e"/>
              <path id="Trazado_1355973" data-name="Trazado 1355973" d="M248.8,18.352c-.683-2.912-3.957-6.181-3.99-6.213l.167-.169c.137.135,3.356,3.349,4.054,6.328Z" transform="translate(-128.023 -6.26)" fill="#302e2e"/>
              <path id="Trazado_1355974" data-name="Trazado 1355974" d="M250.923,34.079l-.06-.231c.05-.013,4.969-1.309,7-3.553l.177.16c-2.082,2.3-6.915,3.57-7.12,3.623" transform="translate(-131.188 -15.843)" fill="#302e2e"/>
              <path id="Trazado_1355975" data-name="Trazado 1355975" d="M262.843,22.782l-.239-.01a10.129,10.129,0,0,0-2.621-6.84l.17-.167a10.391,10.391,0,0,1,2.69,7.018" transform="translate(-135.957 -8.244)" fill="#302e2e"/>
              <path id="Trazado_1355976" data-name="Trazado 1355976" d="M248.733,24.795c-4.153-3.233-21.486-8.17-21.661-8.22l.065-.229c.176.05,17.554,5,21.742,8.261Z" transform="translate(-118.747 -8.548)" fill="#302e2e"/>
              <path id="Trazado_1355977" data-name="Trazado 1355977" d="M257.823,12.706c-2.889-4.066-2.948-7.048-2.5-9.444s4.246-1.842,4.3,1.394.039,7.738.039,7.738a8.012,8.012,0,0,1,3.59-.024,1.759,1.759,0,0,1-.557,3.452c-1.407-.058-3.18-.743-4.866-3.117" transform="translate(-133.412 -0.933)" fill="#ee7e3c"/>
              <path id="Trazado_1355978" data-name="Trazado 1355978" d="M253.344,13.809c-1.293-4.167-3.937-5.362-3.963-5.373l.048-.11c.027.012,2.719,1.225,4.029,5.447Z" transform="translate(-130.413 -4.354)" fill="#0d1f21"/>
              <path id="Trazado_1355979" data-name="Trazado 1355979" d="M267.714,14.85c-.2.752-1.313,1.11-2.072.94-2.768-.619-9.992-3.265-6.589-13.73a2.993,2.993,0,0,1,3.43-2c2.628.489-.24,11.766-.24,11.766s6.451-.654,5.472,3.02" transform="translate(-135.004 0)" fill="#fcc467"/>
              <path id="Trazado_1355980" data-name="Trazado 1355980" d="M265.575,26.152a.236.236,0,0,1-.044,0,11.29,11.29,0,0,1-8.207-6.544.239.239,0,0,1,.447-.167,10.8,10.8,0,0,0,7.848,6.241.239.239,0,0,1-.043.473" transform="translate(-134.558 -10.083)" fill="#0d1f21"/>
              <path id="Trazado_1355981" data-name="Trazado 1355981" d="M257.767,19.443a.37.37,0,1,1-.3-.432.37.37,0,0,1,.3.432" transform="translate(-134.414 -9.939)" fill="#222"/>
              <path id="Trazado_1355982" data-name="Trazado 1355982" d="M252.354,14.787c-2.03-3.862-4.846-4.555-4.875-4.562l.027-.116c.028.006,2.9.709,4.953,4.623Z" transform="translate(-129.418 -5.286)" fill="#0d1f21"/>
              <path id="Trazado_1355983" data-name="Trazado 1355983" d="M265.467,25.994a.115.115,0,0,1-.073-.026.118.118,0,0,1-.02-.167,4.644,4.644,0,0,0,.513-1.168.119.119,0,1,1,.229.066,4.767,4.767,0,0,1-.555,1.25.119.119,0,0,1-.094.045" transform="translate(-138.763 -12.837)" fill="#0d1f21"/>
              <path id="Trazado_1355984" data-name="Trazado 1355984" d="M7.888,250l2.873,9.118s10.54-9.56,14.869-11.6c0,0-2.048-11.433,2.9-13.02s1.49,9.606,1.49,9.606,7.008-3.547,8.448-5.136.189-13.146,5.762-15.1,4.7,8.562,4.7,8.562,11.328-4.764,8.54-17.448-16.017-8.992-16.017-8.992-3.771-19.91-26.917-10.58c0,0,12.851,6.2,9.02,9.258s-8.624-4.947-13.694-4.16-6.381,18.753-6.381,18.753,7.38-8.8,11.387-5.866S4.6,226.467,4.6,226.467s-.014,5.194,2.4,15.477c0,0,2.705-3.7,5.438-1.937s-4.552,10-4.552,10M30,203.124c1.219-2.375,6.694-1.722,4.6,1.2-.838,1.167-5.816,1.176-4.6-1.2M12.682,232.181c-3.5-2.6-1.316-11.867,4.231-9.128,2.5,1.232-.73,11.727-4.231,9.128" transform="translate(-1.821 -100.889)" fill="#99ca8a"/>
              <path id="Trazado_1355985" data-name="Trazado 1355985" d="M18.718,273.312l-.45-.158c.068-.194,6.874-19.5,10.552-30.6,3.7-11.182,20.066-22.536,20.231-22.649l.27.394c-.163.112-16.395,11.376-20.049,22.406-3.68,11.109-10.487,30.415-10.555,30.608" transform="translate(-9.553 -114.998)" fill="#162c29"/>
              <path id="Trazado_1355986" data-name="Trazado 1355986" d="M68.183,254.224c-1.5,0-2.5-1.682-2.794-3.285-.362-1.975.165-4.244,2.157-4.867a1.827,1.827,0,0,1,2.005.513c1.193,1.292,1.289,4.233.578,6a2.244,2.244,0,0,1-1.823,1.637c-.041,0-.082,0-.122,0m-.495-7.7c-1.714.536-2.154,2.559-1.83,4.326.265,1.447,1.143,2.971,2.418,2.892.737-.044,1.173-.752,1.41-1.339.717-1.778.48-4.45-.486-5.5a1.362,1.362,0,0,0-1.512-.382" transform="translate(-34.139 -128.627)" fill="#162c29"/>
              <path id="Trazado_1355987" data-name="Trazado 1355987" d="M59.691,210.214a.807.807,0,0,1-.3-.053.823.823,0,0,1-.52-.568c-.189-.7.4-1.832.952-2.7-.918.6-2.04,1.144-2.5.648-.759-.816.36-2.065.408-2.118l.353.321c-.009.01-.866.984-.412,1.472.274.3,1.821-.581,3.036-1.553l1.644-1.317-1.309,1.651c-.765.965-1.905,2.761-1.711,3.473a.347.347,0,0,0,.231.249c.863.328,3.336-2.525,4.816-4.661l.124-.179.189.107c1.223.687,4.624,2.391,5.64,2.025a.284.284,0,0,0,.193-.171.646.646,0,0,0-.078-.57c-.574-1.015-2.955-2.017-3.254-2.068v-.009c-.169-.025-.192-.084-.213-.141l-.069-.184.169-.105a.257.257,0,0,1,.152-.019v-.01a12.167,12.167,0,0,0,3.5-.662c-.057-.209-.708-.51-1.3-.653l.113-.464c.394.1,1.68.462,1.664,1.158-.007.318-.337.585-1.926.857-.4.068-.726.119-1,.155a10.28,10.28,0,0,1,1.885,1.144c.736.611,1,1.2.79,1.744a.765.765,0,0,1-.477.447c-1.293.461-4.894-1.433-5.845-1.954-.794,1.127-3.439,4.71-4.959,4.71" transform="translate(-29.84 -105.61)" fill="#162c29"/>
              <path id="Trazado_1355988" data-name="Trazado 1355988" d="M36.852,171.173a13.157,13.157,0,0,0,25.824-5.056,13.166,13.166,0,0,0-25.824,5.056" transform="translate(-19.151 -81.547)" fill="#fcc467"/>
              <path id="Trazado_1355989" data-name="Trazado 1355989" d="M60.176,189.978a13.39,13.39,0,0,1,8.95,1.334,13.216,13.216,0,0,1-9.575,7.9,13.006,13.006,0,0,1-9.046-1.559,13.275,13.275,0,0,1,9.671-7.679" transform="translate(-26.411 -99.215)" fill="#ee7e3c"/>
              <path id="Trazado_1355990" data-name="Trazado 1355990" d="M49.057,176.755l-.706-.678c-.225-.216-5.559-5.229-11.681-.94l-.274-.391c5.268-3.69,10.091-.729,11.711.509a5.713,5.713,0,0,1,.339-3.534,4.134,4.134,0,0,1,2.529-2.08,5.055,5.055,0,0,1,5.977,2.193c.583-4.712,3.1-5.716,3.214-5.758l.169.447-.084-.223.085.223c-.026.01-2.6,1.065-2.98,6.065l-.067.89-.386-.805c-.076-.159-1.908-3.869-5.777-2.579a3.677,3.677,0,0,0-2.251,1.837,5.8,5.8,0,0,0-.132,3.9Z" transform="translate(-19.033 -86.849)" fill="#162c29"/>
              <rect id="Rectángulo_457648" data-name="Rectángulo 457648" width="0.477" height="11.541" transform="translate(29.257 89.131) rotate(-18.472)" fill="#162c29"/>
              <rect id="Rectángulo_457649" data-name="Rectángulo 457649" width="12.212" height="0.477" transform="translate(37.773 97.932) rotate(-89.656)" fill="#162c29"/>
              <path id="Trazado_1355991" data-name="Trazado 1355991" d="M72.513,169.91h0a.119.119,0,0,1-.117-.121l.051-3.419a.119.119,0,0,1,.119-.117h0a.119.119,0,0,1,.117.121l-.051,3.419a.12.12,0,0,1-.119.117" transform="translate(-37.858 -86.941)" fill="#15302b"/>
              <path id="Trazado_1355992" data-name="Trazado 1355992" d="M65.45,169.987a.119.119,0,0,1-.114-.087l-1.068-3.788a.119.119,0,1,1,.229-.065l1.068,3.788a.119.119,0,0,1-.083.147.123.123,0,0,1-.032,0" transform="translate(-33.606 -86.788)" fill="#15302b"/>
              <path id="Trazado_1355993" data-name="Trazado 1355993" d="M59.11,179.424a.119.119,0,0,1-.112-.08l-2.338-6.607a.119.119,0,0,1,.225-.08l2.338,6.608a.119.119,0,0,1-.073.152.115.115,0,0,1-.04.007" transform="translate(-29.626 -90.249)" fill="#15302b"/>
              <path id="Trazado_1355994" data-name="Trazado 1355994" d="M70.452,164.4a1.123,1.123,0,1,0,1.423-.706,1.123,1.123,0,0,0-1.423.706" transform="translate(-36.812 -85.571)" fill="#e55f78"/>
              <path id="Trazado_1355995" data-name="Trazado 1355995" d="M62.216,164.621a1.123,1.123,0,1,0,1.423-.706,1.123,1.123,0,0,0-1.423.706" transform="translate(-32.505 -85.688)" fill="#e55f78"/>
              <path id="Trazado_1355996" data-name="Trazado 1355996" d="M54.224,170.974a1.31,1.31,0,1,0,1.659-.823,1.309,1.309,0,0,0-1.659.823" transform="translate(-28.32 -88.944)" fill="#e55f78"/>
              <path id="Trazado_1355997" data-name="Trazado 1355997" d="M77.337,236.28a122.284,122.284,0,0,0-4.993-27.546l.451-.155a122.76,122.76,0,0,1,5.018,27.666Z" transform="translate(-37.832 -109.076)" fill="#162c29"/>
              <path id="Trazado_1355998" data-name="Trazado 1355998" d="M111.29,280.086a22.764,22.764,0,0,1-2.323-5.13c-4.128-13.5-13.952-20.426-24.161-24.864a75.726,75.726,0,0,1-12.512-6.938c.592,3.016.7,5.415-1.055,5.969-3.055.965-4.369-6.414-4.883-10.394-5.131-4.144-9.306-8.32-12.99-11.678-7.322-6.676-19.205-10.12-11.629,24.333,5.707,25.948,31.224,31.009,31.224,31.009s6.46-13.566,11.629-12.274-5.6,14.427-5.6,14.427a45.253,45.253,0,0,0,19.521-2.184,36.33,36.33,0,0,1,12.728-2.276Z" transform="translate(-20.555 -116.467)" fill="#5d9969"/>
              <path id="Trazado_1355999" data-name="Trazado 1355999" d="M111.677,283.247a.238.238,0,0,1-.206-.118c-.051-.088-5.205-8.852-12.614-14.356-6.695-4.974-27.145-10.817-39.364-14.307l-.29-.083c-12.946-3.7-16.669-19.2-17.668-25.687a.238.238,0,1,1,.471-.073c.985,6.4,4.646,21.678,17.328,25.3l.29.083c12.249,3.5,32.752,9.358,39.517,14.383,7.49,5.564,12.691,14.411,12.742,14.5a.239.239,0,0,1-.086.326.234.234,0,0,1-.12.032" transform="translate(-21.719 -119.452)" fill="#162c29"/>
              <path id="Trazado_1356000" data-name="Trazado 1356000" d="M79.092,259.611a.238.238,0,0,1-.218-.144c-3.348-7.693-4.505-22.117-4.517-22.262a.239.239,0,0,1,.219-.256.231.231,0,0,1,.256.219c.012.144,1.163,14.489,4.479,22.109a.239.239,0,0,1-.218.333" transform="translate(-38.885 -123.911)" fill="#162c29"/>
              <path id="Trazado_1356001" data-name="Trazado 1356001" d="M77.027,313.033a.238.238,0,0,1-.156-.419l20.839-18a.239.239,0,1,1,.312.361l-20.839,18a.238.238,0,0,1-.156.058" transform="translate(-40.157 -154.039)" fill="#162c29"/>
              <path id="Trazado_1356002" data-name="Trazado 1356002" d="M150.774,329.065a.239.239,0,0,1-.213-.345c3.423-6.83,2.5-19.764,2.492-19.895a.239.239,0,0,1,.476-.035c.01.131.941,13.2-2.541,20.144a.238.238,0,0,1-.213.132" transform="translate(-78.722 -161.365)" fill="#162c29"/>
              <path id="Trazado_1356003" data-name="Trazado 1356003" d="M78.73,303.606a1.012,1.012,0,0,1-.831-.354c-.6-.737-.021-2.164,1.6-3.914,1.956-2.115,5.379-4.553,6.718-3.619a.928.928,0,0,1,.345,1.009c-.353,1.973-4.827,6.165-7.255,6.8a2.307,2.307,0,0,1-.574.082m6.739-7.62c-1.206,0-3.678,1.573-5.622,3.676-1.376,1.488-2,2.779-1.579,3.289.156.191.464.229.916.112,2.258-.587,6.581-4.607,6.905-6.419.061-.343-.055-.468-.148-.533a.818.818,0,0,0-.473-.124" transform="translate(-40.615 -154.538)" fill="#162c29"/>
              <path id="Trazado_1356004" data-name="Trazado 1356004" d="M135.107,290.569a1.706,1.706,0,0,1-1.029-.486c-1.464-1.228-3.315-4.6-3.037-6a.8.8,0,0,1,.547-.661c1.4-.445,3.228,2.341,3.962,4.431.518,1.472.457,2.416-.17,2.66a.757.757,0,0,1-.274.051m-3.375-6.687c-.081.026-.18.083-.223.3-.224,1.125,1.443,4.334,2.876,5.536.35.294.652.424.823.356.261-.1.339-.789-.107-2.057-.745-2.119-2.41-4.43-3.369-4.135" transform="translate(-68.513 -148.192)" fill="#162c29"/>
              <path id="Trazado_1356005" data-name="Trazado 1356005" d="M106.168,271.458c-.987,0-2.577-2.092-3.224-3.006-.767.418-2.928,1.528-3.767,1.227a.577.577,0,0,1-.357-.338c-.1-.267-.1-.7.53-1.215a6.711,6.711,0,0,1,1-.629c-.114-.018-.238-.038-.375-.062-.953-.162-1.31-.334-1.316-.634-.01-.5.791-.746,1.137-.83l.113.464a2.09,2.09,0,0,0-.732.313,8.653,8.653,0,0,0,2.13.366v.01a.238.238,0,0,1,.146.021l.167.1-.068.186c-.027.072-.049.131-.2.15a4.752,4.752,0,0,0-2.041,1.3.317.317,0,0,0-.04.284c.006.014.016.04.074.061.556.2,2.48-.69,3.561-1.3l.189-.106.124.179c1.089,1.572,2.552,3.146,3,2.97a.138.138,0,0,0,.1-.1c.11-.406-.569-1.508-1.086-2.162l-1.307-1.648,1.642,1.313c.77.617,1.666,1.109,1.841,1.006.234-.252-.262-.825-.268-.831l.353-.321c.3.331.694,1.014.261,1.479-.283.3-.846.115-1.41-.208a2.315,2.315,0,0,1,.432,1.5.615.615,0,0,1-.386.423.6.6,0,0,1-.217.039" transform="translate(-51.591 -139.089)" fill="#162c29"/>
              <path id="Trazado_1356006" data-name="Trazado 1356006" d="M112.4,246.325a8.472,8.472,0,0,1-16.629-3.256,8.478,8.478,0,0,1,16.629,3.256" transform="translate(-50.004 -123.685)" fill="#fcc467"/>
              <path id="Trazado_1356007" data-name="Trazado 1356007" d="M102.793,258.434a8.623,8.623,0,0,0-5.764.859,8.51,8.51,0,0,0,6.166,5.09,8.374,8.374,0,0,0,5.825-1,8.55,8.55,0,0,0-6.227-4.945" transform="translate(-50.741 -135.061)" fill="#ee7e3c"/>
              <path id="Trazado_1356008" data-name="Trazado 1356008" d="M105.975,250.137l.314-.929a3.646,3.646,0,0,0-.082-2.445,2.287,2.287,0,0,0-1.4-1.139,2.991,2.991,0,0,0-3.617,1.617l-.386.8-.068-.888c-.239-3.185-1.847-3.826-1.863-3.832l.169-.447c.072.028,1.665.662,2.1,3.566a3.281,3.281,0,0,1,3.82-1.272,2.75,2.75,0,0,1,1.678,1.382,3.646,3.646,0,0,1,.261,2.12,6.225,6.225,0,0,1,7.471-.2l-.274.39c-3.891-2.725-7.38.563-7.414.6Z" transform="translate(-51.706 -127.012)" fill="#162c29"/>
              <rect id="Rectángulo_457650" data-name="Rectángulo 457650" width="7.432" height="0.477" transform="translate(52.231 129.248) rotate(-71.584)" fill="#162c29"/>
              <rect id="Rectángulo_457651" data-name="Rectángulo 457651" width="0.477" height="7.864" transform="matrix(1, -0.006, 0.006, 1, 49.031, 120.128)" fill="#162c29"/>
              <path id="Trazado_1356009" data-name="Trazado 1356009" d="M107.374,245.518l-.032-2.2.477-.008.032,2.2Z" transform="translate(-56.134 -127.238)" fill="#162c29"/>
              <rect id="Rectángulo_457652" data-name="Rectángulo 457652" width="2.535" height="0.477" transform="matrix(0.271, -0.963, 0.963, 0.271, 53.059, 118.361)" fill="#162c29"/>
              <rect id="Rectángulo_457653" data-name="Rectángulo 457653" width="4.513" height="0.477" transform="translate(54.583 122.193) rotate(-70.496)" fill="#162c29"/>
              <path id="Trazado_1356010" data-name="Trazado 1356010" d="M107.735,241.961a.723.723,0,1,1-.916-.455.723.723,0,0,1,.916.455" transform="translate(-55.603 -126.275)" fill="#e55f78"/>
              <path id="Trazado_1356011" data-name="Trazado 1356011" d="M113.038,242.105a.723.723,0,1,1-.916-.454.723.723,0,0,1,.916.454" transform="translate(-58.376 -126.351)" fill="#e55f78"/>
              <path id="Trazado_1356012" data-name="Trazado 1356012" d="M117.92,246.2a.843.843,0,1,1-1.069-.53.844.844,0,0,1,1.069.53" transform="translate(-60.807 -128.447)" fill="#e55f78"/>
              <path id="Trazado_1356013" data-name="Trazado 1356013" d="M105.985,274.1h-.016a.239.239,0,0,1-.222-.254,11.431,11.431,0,0,1,.761-3.688.238.238,0,1,1,.434.2,11.2,11.2,0,0,0-.719,3.522.238.238,0,0,1-.238.223" transform="translate(-55.299 -141.204)" fill="#162c29"/>
              <path id="Trazado_1356014" data-name="Trazado 1356014" d="M351.539,176.782c-.62,0-1.526-1.137-2.006-1.809-.574.309-1.784.9-2.306.717a.442.442,0,0,1-.274-.26c-.075-.191-.074-.494.349-.847a3.853,3.853,0,0,1,.4-.266c-.536-.093-.847-.2-.853-.472-.008-.359.477-.53.766-.6l.113.464a1.7,1.7,0,0,0-.237.078,7.021,7.021,0,0,0,1.066.155h0v.009a.223.223,0,0,1,.139.024l.169.1-.07.186c-.031.084-.054.142-.208.155a2.75,2.75,0,0,0-1.171.748c-.03.057-.02.081-.016.092a5.177,5.177,0,0,0,2.09-.8l.19-.107.123.179c.679.98,1.5,1.82,1.727,1.782.065-.135-.249-.739-.645-1.24l-1.3-1.645,1.639,1.311a3.246,3.246,0,0,0,1.012.6.63.63,0,0,0-.176-.356l.353-.321c.205.225.47.7.16,1.029-.16.172-.422.145-.715.021a1.151,1.151,0,0,1,.138.728.471.471,0,0,1-.292.321.434.434,0,0,1-.159.029" transform="translate(-181.381 -90.598)" fill="#162c29"/>
              <path id="Trazado_1356015" data-name="Trazado 1356015" d="M355.445,161.422a5.18,5.18,0,0,1-10.168-1.991,5.184,5.184,0,0,1,10.168,1.991" transform="translate(-180.513 -81.278)" fill="#fcc467"/>
              <path id="Trazado_1356016" data-name="Trazado 1356016" d="M349.571,168.826a5.277,5.277,0,0,0-3.524.526,5.2,5.2,0,0,0,3.77,3.112,5.123,5.123,0,0,0,3.562-.614,5.228,5.228,0,0,0-3.808-3.024" transform="translate(-180.964 -88.234)" fill="#ee7e3c"/>
              <path id="Trazado_1356017" data-name="Trazado 1356017" d="M351.274,163.979l.309-.919a2.134,2.134,0,0,0-.045-1.425,1.308,1.308,0,0,0-.8-.649,1.742,1.742,0,0,0-2.1.941l-.386.8-.067-.884c-.14-1.862-1.043-2.249-1.081-2.265l.171-.445a2.528,2.528,0,0,1,1.3,2.04,2.082,2.082,0,0,1,2.309-.638,1.768,1.768,0,0,1,1.079.892,2.2,2.2,0,0,1,.192,1.147,3.848,3.848,0,0,1,4.506-.01l-.274.391a3.5,3.5,0,0,0-4.416.355Z" transform="translate(-181.516 -83.218)" fill="#162c29"/>
              <rect id="Rectángulo_457654" data-name="Rectángulo 457654" width="4.544" height="0.477" transform="matrix(0.317, -0.948, 0.948, 0.317, 168.626, 84.154)" fill="#162c29"/>
              <rect id="Rectángulo_457655" data-name="Rectángulo 457655" width="0.477" height="4.808" transform="translate(166.667 78.608) rotate(-0.353)" fill="#162c29"/>
              <rect id="Rectángulo_457656" data-name="Rectángulo 457656" width="0.477" height="1.346" transform="translate(167.998 76.133) rotate(-0.853)" fill="#162c29"/>
              <rect id="Rectángulo_457657" data-name="Rectángulo 457657" width="1.55" height="0.477" transform="translate(169.133 77.502) rotate(-74.283)" fill="#162c29"/>
              <rect id="Rectángulo_457658" data-name="Rectángulo 457658" width="2.76" height="0.477" transform="translate(170.067 79.839) rotate(-70.497)" fill="#162c29"/>
              <path id="Trazado_1356018" data-name="Trazado 1356018" d="M352.592,158.754a.442.442,0,1,1-.56-.278.442.442,0,0,1,.56.278" transform="translate(-183.936 -82.862)" fill="#e55f78"/>
              <path id="Trazado_1356019" data-name="Trazado 1356019" d="M355.835,158.842a.442.442,0,1,1-.56-.278.442.442,0,0,1,.56.278" transform="translate(-185.632 -82.908)" fill="#e55f78"/>
              <path id="Trazado_1356020" data-name="Trazado 1356020" d="M358.82,161.343a.516.516,0,1,1-.654-.324.516.516,0,0,1,.654.324" transform="translate(-187.118 -84.19)" fill="#e55f78"/>
              <path id="Trazado_1356021" data-name="Trazado 1356021" d="M348.212,188.057h-.007a.239.239,0,0,1-.231-.246,45.343,45.343,0,0,1,2-11.936.238.238,0,1,1,.451.155,44.882,44.882,0,0,0-1.97,11.8.238.238,0,0,1-.239.231" transform="translate(-181.972 -91.889)" fill="#162c29"/>
              <path id="Trazado_1356022" data-name="Trazado 1356022" d="M204.484,256.064s-2.856-20.622,16.436-37.1S267,182.824,283.807,186.094c11.042,2.149,1.751,31.775-5.926,51.854a28.462,28.462,0,0,1-26.7,18.3Z" transform="translate(-106.856 -97.129)" fill="#99ca8a"/>
              <path id="Trazado_1356023" data-name="Trazado 1356023" d="M241.89,257.671a.254.254,0,0,1-.07-.01.24.24,0,0,1-.159-.3c.037-.119,3.756-12.074,15.281-25.266,11.5-13.17,48.175-43.52,48.544-43.825a.238.238,0,1,1,.3.368c-.368.305-37.009,30.631-48.488,43.772-11.459,13.116-15.148,24.973-15.184,25.092a.239.239,0,0,1-.229.169" transform="translate(-126.371 -98.428)" fill="#162c29"/>
              <path id="Trazado_1356024" data-name="Trazado 1356024" d="M317.556,216.412l-.035,0a.239.239,0,0,1-.2-.271l2.963-20.1a.239.239,0,1,1,.472.07l-2.963,20.1a.239.239,0,0,1-.236.2" transform="translate(-165.94 -102.413)" fill="#162c29"/>
              <path id="Trazado_1356025" data-name="Trazado 1356025" d="M264.076,261.179a.239.239,0,0,1-.234-.193l-4.414-22.966a.239.239,0,1,1,.468-.09l4.414,22.966a.239.239,0,0,1-.189.28.255.255,0,0,1-.046,0" transform="translate(-135.665 -124.323)" fill="#162c29"/>
              <path id="Trazado_1356026" data-name="Trazado 1356026" d="M304.283,289.238a27.013,27.013,0,0,1-8.338-1.358c-8.763-2.851-22.068-7.342-22.2-7.388a.239.239,0,0,1,.153-.452c.133.045,13.435,4.536,22.195,7.386,8.6,2.8,16.358.633,18.43-1.935a.238.238,0,0,1,.371.3c-1.478,1.832-5.463,3.446-10.609,3.446" transform="translate(-143.068 -146.44)" fill="#162c29"/>
              <path id="Trazado_1356027" data-name="Trazado 1356027" d="M308.921,276.425c-1.521,0-4.166-3.583-4.96-4.71-.951.521-4.552,2.417-5.845,1.954a.763.763,0,0,1-.477-.447c-.211-.544.052-1.128.782-1.737a10.311,10.311,0,0,1,1.9-1.149c-.277-.037-.615-.089-1.027-.161-1.57-.271-1.9-.537-1.9-.853-.016-.7,1.27-1.061,1.665-1.157l.113.464c-.589.143-1.24.445-1.3.653a12.18,12.18,0,0,0,3.5.662v.012a.261.261,0,0,1,.153.018l.167.1-.068.187c-.021.053-.043.113-.212.138v.011c-.3.052-2.681,1.054-3.254,2.069a.647.647,0,0,0-.079.57.283.283,0,0,0,.193.17c1.021.37,4.418-1.338,5.64-2.025l.189-.106.124.179c1.479,2.136,3.952,5,4.816,4.661a.345.345,0,0,0,.231-.248c.194-.713-.946-2.509-1.711-3.474l-1.308-1.65,1.643,1.316c1.215.973,2.764,1.851,3.035,1.553.457-.49-.4-1.462-.412-1.471l.353-.322c.048.053,1.167,1.3.408,2.118-.462.5-1.582-.051-2.5-.648.556.871,1.141,2.007.952,2.7a.842.842,0,0,1-.817.621" transform="translate(-155.52 -140.235)" fill="#162c29"/>
              <path id="Trazado_1356028" data-name="Trazado 1356028" d="M318.462,237.385a13.157,13.157,0,0,1-25.824-5.056,13.166,13.166,0,0,1,25.824,5.056" transform="translate(-152.912 -116.172)" fill="#fcc467"/>
              <path id="Trazado_1356029" data-name="Trazado 1356029" d="M303.543,256.189a13.39,13.39,0,0,0-8.95,1.334,13.216,13.216,0,0,0,9.575,7.9,13.006,13.006,0,0,0,9.046-1.559,13.275,13.275,0,0,0-9.671-7.679" transform="translate(-154.056 -133.839)" fill="#ee7e3c"/>
              <path id="Trazado_1356030" data-name="Trazado 1356030" d="M308.832,242.967l.314-.927a5.8,5.8,0,0,0-.132-3.9,3.676,3.676,0,0,0-2.251-1.837c-3.87-1.293-5.7,2.421-5.777,2.579l-.386.805-.067-.89c-.377-5-2.954-6.056-2.98-6.066l.17-.446c.112.042,2.631,1.046,3.215,5.758a5.058,5.058,0,0,1,5.976-2.193,4.135,4.135,0,0,1,2.529,2.08,5.707,5.707,0,0,1,.339,3.534c1.62-1.237,6.441-4.2,11.711-.509l-.274.39c-6.124-4.289-11.457.725-11.682.94Z" transform="translate(-155.604 -121.475)" fill="#162c29"/>
              <rect id="Rectángulo_457659" data-name="Rectángulo 457659" width="11.541" height="0.477" transform="translate(149.89 131.515) rotate(-71.584)" fill="#162c29"/>
              <rect id="Rectángulo_457660" data-name="Rectángulo 457660" width="0.477" height="12.212" transform="translate(144.928 117.309) rotate(-0.347)" fill="#162c29"/>
              <path id="Trazado_1356031" data-name="Trazado 1356031" d="M311.3,236.121a.119.119,0,0,1-.119-.117l-.051-3.419a.119.119,0,0,1,.117-.121h0a.119.119,0,0,1,.119.117l.051,3.419a.119.119,0,0,1-.117.121Z" transform="translate(-162.705 -121.566)" fill="#15302b"/>
              <path id="Trazado_1356032" data-name="Trazado 1356032" d="M317.249,236.2a.112.112,0,0,1-.032,0,.118.118,0,0,1-.082-.147l1.069-3.788a.116.116,0,0,1,.147-.082.118.118,0,0,1,.082.147l-1.069,3.788a.119.119,0,0,1-.114.087" transform="translate(-165.842 -121.413)" fill="#15302b"/>
              <path id="Trazado_1356033" data-name="Trazado 1356033" d="M322.2,245.635a.116.116,0,0,1-.04-.007.118.118,0,0,1-.073-.152l2.338-6.608a.119.119,0,0,1,.225.079l-2.338,6.608a.119.119,0,0,1-.112.08" transform="translate(-168.43 -124.874)" fill="#15302b"/>
              <path id="Trazado_1356034" data-name="Trazado 1356034" d="M311.217,230.608a1.123,1.123,0,1,1-1.423-.706,1.123,1.123,0,0,1,1.423.706" transform="translate(-161.606 -120.196)" fill="#e55f78"/>
              <path id="Trazado_1356035" data-name="Trazado 1356035" d="M319.452,230.832a1.123,1.123,0,1,1-1.423-.706,1.123,1.123,0,0,1,1.423.706" transform="translate(-165.913 -120.313)" fill="#e55f78"/>
              <path id="Trazado_1356036" data-name="Trazado 1356036" d="M327.036,237.185a1.31,1.31,0,1,1-1.659-.823,1.309,1.309,0,0,1,1.659.823" transform="translate(-169.688 -123.569)" fill="#e55f78"/>
              <path id="Trazado_1356037" data-name="Trazado 1356037" d="M300.8,302.491l-.476-.035a122.754,122.754,0,0,1,5.017-27.666l.451.155a122.365,122.365,0,0,0-4.992,27.546" transform="translate(-157.054 -143.701)" fill="#162c29"/>
              <path id="Trazado_1356038" data-name="Trazado 1356038" d="M267.851,246.787a.6.6,0,0,1-.217-.039.613.613,0,0,1-.386-.423,2.318,2.318,0,0,1,.432-1.5c-.564.324-1.127.512-1.41.209-.433-.465-.039-1.148.261-1.479l.354.321c-.005.006-.5.579-.266.833.172.1,1.067-.391,1.839-1.008l1.642-1.313-1.305,1.647c-.518.654-1.2,1.756-1.087,2.162a.139.139,0,0,0,.1.1c.453.176,1.913-1.4,3-2.97l.124-.179.19.106c1.08.608,3,1.5,3.561,1.3.058-.021.069-.047.074-.061a.318.318,0,0,0-.039-.284,4.76,4.76,0,0,0-2.044-1.3h0c-.151-.02-.173-.078-.2-.15l-.069-.184.169-.1a.26.26,0,0,1,.145-.021v-.01h.016a9.091,9.091,0,0,0,2.117-.369,2.174,2.174,0,0,0-.736-.312l.113-.464c.345.084,1.147.333,1.137.83-.007.3-.367.474-1.328.637-.133.022-.253.042-.364.059a6.671,6.671,0,0,1,.993.626c.629.522.637.951.533,1.218a.575.575,0,0,1-.357.338c-.837.3-3-.809-3.767-1.227-.647.914-2.237,3.005-3.224,3.006" transform="translate(-139.145 -126.187)" fill="#162c29"/>
              <path id="Trazado_1356039" data-name="Trazado 1356039" d="M253.242,221.655a8.472,8.472,0,0,0,16.629-3.256,8.478,8.478,0,0,0-16.629,3.256" transform="translate(-132.355 -110.783)" fill="#fcc467"/>
              <path id="Trazado_1356040" data-name="Trazado 1356040" d="M268.26,233.763a8.623,8.623,0,0,1,5.764.859,8.51,8.51,0,0,1-6.166,5.09,8.374,8.374,0,0,1-5.825-1,8.55,8.55,0,0,1,6.227-4.945" transform="translate(-137.029 -122.159)" fill="#ee7e3c"/>
              <path id="Trazado_1356041" data-name="Trazado 1356041" d="M261.237,225.462l-.7-.676c-.142-.136-3.532-3.315-7.414-.6l-.274-.39a6.226,6.226,0,0,1,7.471.2,3.645,3.645,0,0,1,.261-2.119,2.746,2.746,0,0,1,1.678-1.382,3.286,3.286,0,0,1,3.82,1.272c.43-2.9,2.023-3.539,2.1-3.566l.169.446-.084-.223.086.223c-.017.006-1.627.676-1.865,3.833l-.067.888-.386-.8a2.989,2.989,0,0,0-3.617-1.617,2.286,2.286,0,0,0-1.4,1.14,3.645,3.645,0,0,0-.081,2.445Z" transform="translate(-132.224 -114.111)" fill="#162c29"/>
              <rect id="Rectángulo_457661" data-name="Rectángulo 457661" width="0.477" height="7.432" transform="translate(128.248 110.58) rotate(-18.472)" fill="#162c29"/>
              <rect id="Rectángulo_457662" data-name="Rectángulo 457662" width="7.864" height="0.477" transform="translate(133.727 116.219) rotate(-89.656)" fill="#162c29"/>
              <rect id="Rectángulo_457663" data-name="Rectángulo 457663" width="2.202" height="0.477" transform="matrix(0.015, -1, 1, 0.015, 131.566, 106.504)" fill="#162c29"/>
              <rect id="Rectángulo_457664" data-name="Rectángulo 457664" width="0.477" height="2.535" transform="translate(129.077 104.281) rotate(-15.75)" fill="#162c29"/>
              <rect id="Rectángulo_457665" data-name="Rectángulo 457665" width="0.477" height="4.513" transform="translate(126.744 106.329) rotate(-19.488)" fill="#162c29"/>
              <path id="Trazado_1356042" data-name="Trazado 1356042" d="M274.877,217.291a.723.723,0,1,0,.916-.455.723.723,0,0,0-.916.455" transform="translate(-143.726 -113.374)" fill="#e55f78"/>
              <path id="Trazado_1356043" data-name="Trazado 1356043" d="M269.574,217.435a.723.723,0,1,0,.916-.455.723.723,0,0,0-.916.455" transform="translate(-140.953 -113.449)" fill="#e55f78"/>
              <path id="Trazado_1356044" data-name="Trazado 1356044" d="M264.428,221.526A.843.843,0,1,0,265.5,221a.844.844,0,0,0-1.069.53" transform="translate(-138.259 -115.546)" fill="#e55f78"/>
              <path id="Trazado_1356045" data-name="Trazado 1356045" d="M279.383,265.228a.239.239,0,0,1-.238-.231,73.569,73.569,0,0,0-3.231-19.336.238.238,0,0,1,.451-.155,74.033,74.033,0,0,1,3.257,19.476.239.239,0,0,1-.231.246Z" transform="translate(-144.281 -128.303)" fill="#162c29"/>
              <path id="Trazado_1356046" data-name="Trazado 1356046" d="M262.511,302.019a10.148,10.148,0,0,0-3-8.831c-4.072-4.211-10.42-9.459-10.076-10.6s6.669,4.381,8.483,7.2c0,0,.708-6.231-8.11-11.153s-11.638-.911-12.7,1.275c0,0-7.809-4.373-12.574,7.308s2.487,13.725,2.487,13.725-.95-12.072,1.694-11.3-.86,10.748.628,15.136,8.838,10.891,11.89,10.426-2.619-13.542-.83-14.88-.484,10.112,7.411,15.95c2.9,2.146,7.82,2.542,12.88,2.184,0,0,3.944-9.722-.058-15.443s-14.024-12.376-12.962-14.914,14.831,13.911,14.831,13.911M233.589,292c-3.846.184-1.341-10.4,1.264-9.789,2.233.521,2.582,9.605-1.264,9.789m6.174,7.053c-3.288.252-2.345-8.674-.348-8.4s3.636,8.15.348,8.4m13.784.743c1.753-1.121,6.574,5.458,4.728,6.923s-6.445-5.825-4.728-6.923m-7.407-12.99c-1.534,2.036-5.455-2.758-3.953-4.415,1.321-1.457,5.488,2.379,3.953,4.415" transform="translate(-116.575 -144.486)" fill="#005c4f"/>
              <path id="Trazado_1356047" data-name="Trazado 1356047" d="M276.017,322.464c-1.459-4.737-8.727-15.348-13.537-22.37-.754-1.1-1.453-2.121-2.069-3.029-5-7.384-8.039-11.957-7.985-13.192l.239.01c-.054,1.245,3.831,6.978,7.944,13.047.615.908,1.314,1.928,2.068,3.028,4.818,7.033,12.1,17.663,13.569,22.435Z" transform="translate(-132.005 -148.45)" fill="#162c29"/>
              <path id="Trazado_1356048" data-name="Trazado 1356048" d="M212.011,295.937c2.884-.652.84,10.418-1.377,18.981,0,0,8.115-3.653,13.249-8.965,0,0,7.032-22.927-13.929-19.522,0,0-1.774-9.055-9.383-9.063s-13.887,6.412-13.887,6.412l-.907,2.023s12.073-7.063,13.811-3.531-9.546,2.688-16.037,10.308l-.776,3.54s11.292-6.765,12.16-3.461-10.485,5.507-12.809,9.972-.729,3.074-.729,3.074,7.357-5.936,8.329-4.853-7.83,8.8-7.83,8.8-.315,5.042,1.98,7.69c0,0,7.789,2.68,10.8.3s5.937-12.89,7.123-13.006-4.393,13.419-4.393,13.419,6.228.2,8.065-1.732c0,0,3.661-19.74,6.545-20.392m-16.041-3.421c-.953-1.4,5.531-5.3,6.156-3.437s-5.2,4.836-6.156,3.437m-.854,18.446c-2.655-.582,2.673-9.492,3.989-8.9s-1.334,9.485-3.989,8.9m16.957-16.7c-2.03,1.277-3.712-4.458-1.829-5.679s3.859,4.4,1.829,5.679" transform="translate(-94.581 -145.049)" fill="#76c479"/>
              <path id="Trazado_1356049" data-name="Trazado 1356049" d="M182.737,340.559a.239.239,0,0,1-.1-.457c.081-.035,8.119-3.572,11.146-4.781a.238.238,0,0,1,.177.442c-3.019,1.206-11.05,4.74-11.131,4.775a.244.244,0,0,1-.1.02" transform="translate(-95.437 -175.346)" fill="#162c29"/>
              <path id="Trazado_1356050" data-name="Trazado 1356050" d="M183.061,347.4a.239.239,0,0,1-.1-.457l7.813-3.465a.239.239,0,0,1,.194.436l-7.813,3.465a.24.24,0,0,1-.1.021" transform="translate(-95.607 -179.612)" fill="#162c29"/>
              <path id="Trazado_1356051" data-name="Trazado 1356051" d="M235.436,317.574a.238.238,0,0,1-.239-.229c-.2-5.46-3.244-11.057-3.274-11.113a.239.239,0,1,1,.418-.23c.031.057,3.13,5.75,3.333,11.325a.239.239,0,0,1-.229.248Z" transform="translate(-121.268 -159.958)" fill="#162c29"/>
              <path id="Trazado_1356052" data-name="Trazado 1356052" d="M230.086,333.718h-.014a.239.239,0,0,1-.224-.252,94.649,94.649,0,0,0-1.9-23.01.238.238,0,0,1,.18-.285.235.235,0,0,1,.285.18,95.074,95.074,0,0,1,1.913,23.144.239.239,0,0,1-.238.224" transform="translate(-119.201 -162.199)" fill="#162c29"/>
              <path id="Trazado_1356053" data-name="Trazado 1356053" d="M186.914,327.257a.238.238,0,0,1-.2-.367c7.309-11.482,25.922-30.758,26.11-30.951a.238.238,0,1,1,.343.332c-.187.193-18.766,19.435-26.049,30.876a.239.239,0,0,1-.2.11" transform="translate(-97.621 -154.722)" fill="#162c29"/>
              <g id="Grupo_1207375" data-name="Grupo 1207375" transform="translate(120.933 123.933)" opacity="0.3" style="mix-blend-mode: overlay;isolation: isolate">
                <g id="Grupo_1207374" data-name="Grupo 1207374">
                  <g id="Grupo_1207373" data-name="Grupo 1207373" clip-path="url(#clip-path-8)">
                    <path id="Trazado_1356054" data-name="Trazado 1356054" d="M272.646,261c6.711,5.69,4.47,21.161-9.178,18.2s-11.632-15.474-3.8-18.2,12.978,0,12.978,0" transform="translate(-253.5 -259.787)" fill="#fff"/>
                  </g>
                </g>
              </g>
              <g id="Grupo_1207378" data-name="Grupo 1207378" transform="translate(71.556 137.351)" opacity="0.3" style="mix-blend-mode: overlay;isolation: isolate">
                <g id="Grupo_1207377" data-name="Grupo 1207377">
                  <g id="Grupo_1207376" data-name="Grupo 1207376" clip-path="url(#clip-path-9)">
                    <path id="Trazado_1356055" data-name="Trazado 1356055" d="M151.96,288.6c2.766-2.425,5.918,2.113,3.737,4.858s-9.034-.213-3.737-4.858" transform="translate(-149.996 -287.914)" fill="#fff"/>
                  </g>
                </g>
              </g>
              <g id="Grupo_1207381" data-name="Grupo 1207381" transform="translate(132.281 44.881)" opacity="0.3" style="mix-blend-mode: overlay;isolation: isolate">
                <g id="Grupo_1207380" data-name="Grupo 1207380">
                  <g id="Grupo_1207379" data-name="Grupo 1207379" clip-path="url(#clip-path-10)">
                    <path id="Trazado_1356056" data-name="Trazado 1356056" d="M280.465,95.2c4.474-3.923,9.574,3.419,6.046,7.859s-14.615-.345-6.046-7.859" transform="translate(-277.287 -94.08)" fill="#fff"/>
                  </g>
                </g>
              </g>
              <g id="Grupo_1207384" data-name="Grupo 1207384" transform="translate(139.137 95.866)" opacity="0.3" style="mix-blend-mode: overlay;isolation: isolate">
                <g id="Grupo_1207383" data-name="Grupo 1207383">
                  <g id="Grupo_1207382" data-name="Grupo 1207382" clip-path="url(#clip-path-11)">
                    <path id="Trazado_1356057" data-name="Trazado 1356057" d="M295.893,202.44c5.96-5.226,12.753,4.553,8.053,10.468s-19.466-.46-8.053-10.468" transform="translate(-291.66 -200.954)" fill="#fff"/>
                  </g>
                </g>
              </g>
              <g id="Grupo_1207387" data-name="Grupo 1207387" transform="translate(43.739 106.175)" opacity="0.3" style="mix-blend-mode: overlay;isolation: isolate">
                <g id="Grupo_1207386" data-name="Grupo 1207386">
                  <g id="Grupo_1207385" data-name="Grupo 1207385" clip-path="url(#clip-path-12)">
                    <path id="Trazado_1356058" data-name="Trazado 1356058" d="M110.8,223.776c6.7,5.678,4.461,21.12-9.16,18.164S90.027,226.5,97.844,223.774s12.952,0,12.952,0" transform="translate(-91.686 -222.564)" fill="#fff"/>
                  </g>
                </g>
              </g>
              <g id="Grupo_1207390" data-name="Grupo 1207390" transform="translate(57.774 42.84)" opacity="0.3" style="mix-blend-mode: overlay;isolation: isolate">
                <g id="Grupo_1207389" data-name="Grupo 1207389">
                  <g id="Grupo_1207388" data-name="Grupo 1207388" clip-path="url(#clip-path-13)">
                    <path id="Trazado_1356059" data-name="Trazado 1356059" d="M130.727,90.413c3.372,2.859,2.245,10.631-4.611,9.143s-5.844-7.774-1.909-9.145a8.6,8.6,0,0,1,6.52,0" transform="translate(-121.107 -89.802)" fill="#fff"/>
                  </g>
                </g>
              </g>
              <g id="Grupo_1207393" data-name="Grupo 1207393" transform="translate(51.351 48.573)" opacity="0.3" style="mix-blend-mode: overlay;isolation: isolate">
                <g id="Grupo_1207392" data-name="Grupo 1207392">
                  <g id="Grupo_1207391" data-name="Grupo 1207391" clip-path="url(#clip-path-14)">
                    <path id="Trazado_1356060" data-name="Trazado 1356060" d="M112.226,102.109c1.606,1.362,1.07,5.064-2.2,4.356s-2.784-3.7-.909-4.356a4.1,4.1,0,0,1,3.106,0" transform="translate(-107.643 -101.818)" fill="#fff"/>
                  </g>
                </g>
              </g>
              <g id="Grupo_1207396" data-name="Grupo 1207396" transform="translate(25.727 116.534)" opacity="0.3" style="mix-blend-mode: overlay;isolation: isolate">
                <g id="Grupo_1207395" data-name="Grupo 1207395">
                  <g id="Grupo_1207394" data-name="Grupo 1207394" clip-path="url(#clip-path-14)">
                    <path id="Trazado_1356061" data-name="Trazado 1356061" d="M58.512,244.57c1.606,1.362,1.07,5.064-2.2,4.356s-2.784-3.7-.909-4.356a4.1,4.1,0,0,1,3.106,0" transform="translate(-53.929 -244.279)" fill="#fff"/>
                  </g>
                </g>
              </g>
              <g id="Grupo_1207399" data-name="Grupo 1207399" transform="translate(66.456 140.728)" opacity="0.3" style="mix-blend-mode: overlay;isolation: isolate">
                <g id="Grupo_1207398" data-name="Grupo 1207398">
                  <g id="Grupo_1207397" data-name="Grupo 1207397" clip-path="url(#clip-path-16)">
                    <path id="Trazado_1356062" data-name="Trazado 1356062" d="M142.835,296.234c4.969-4.357,10.631,3.8,6.713,8.726s-16.228-.383-6.713-8.726" transform="translate(-139.306 -294.995)" fill="#fff"/>
                  </g>
                </g>
              </g>
              <g id="Grupo_1207402" data-name="Grupo 1207402" transform="translate(161.208 103.133)" opacity="0.3" style="mix-blend-mode: overlay;isolation: isolate">
                <g id="Grupo_1207401" data-name="Grupo 1207401">
                  <g id="Grupo_1207400" data-name="Grupo 1207400" clip-path="url(#clip-path-17)">
                    <path id="Trazado_1356063" data-name="Trazado 1356063" d="M340.041,216.931c2.98-2.613,6.376,2.277,4.026,5.234s-9.733-.23-4.026-5.234" transform="translate(-337.924 -216.188)" fill="#fff"/>
                  </g>
                </g>
              </g>
              <path id="Trazado_1356064" data-name="Trazado 1356064" d="M9.412,124.209c.135.424-.43.98-1.26,1.244s-1.612.133-1.747-.291.43-.98,1.26-1.244,1.612-.133,1.746.291" transform="translate(-3.339 -64.732)" fill="#0d1f21"/>
              <path id="Trazado_1356065" data-name="Trazado 1356065" d="M32.5,113.146c.135.424-.43.98-1.26,1.244s-1.612.133-1.747-.291.43-.98,1.26-1.244,1.612-.133,1.746.291" transform="translate(-15.415 -58.946)" fill="#0d1f21"/>
              <path id="Trazado_1356066" data-name="Trazado 1356066" d="M3.026,178.018c.135.424-.43.98-1.26,1.244s-1.612.133-1.747-.291.43-.98,1.26-1.244,1.612-.133,1.746.291" transform="translate(0 -92.871)" fill="#0d1f21"/>
              <path id="Trazado_1356067" data-name="Trazado 1356067" d="M52.827,130.089c.135.424-.43.98-1.26,1.244s-1.612.133-1.746-.291.43-.98,1.26-1.244,1.612-.133,1.746.291" transform="translate(-26.043 -67.807)" fill="#0d1f21"/>
              <path id="Trazado_1356068" data-name="Trazado 1356068" d="M6.136,153.874c.226.586-.551,1.432-1.736,1.889s-2.328.352-2.555-.234S2.4,154.1,3.581,153.64s2.329-.352,2.555.234" transform="translate(-0.944 -80.197)" fill="#0d1f21"/>
              <path id="Trazado_1356069" data-name="Trazado 1356069" d="M26.107,151.648c.226.586-.551,1.432-1.736,1.889s-2.328.352-2.555-.234.551-1.432,1.736-1.889,2.329-.352,2.555.234" transform="translate(-11.388 -79.033)" fill="#0d1f21"/>
              <path id="Trazado_1356070" data-name="Trazado 1356070" d="M31.068,135.775c.13.286-.7.945-1.856,1.472s-2.2.723-2.328.437.7-.945,1.856-1.472,2.2-.723,2.328-.437" transform="translate(-14.052 -70.934)" fill="#0d1f21"/>
              <path id="Trazado_1356071" data-name="Trazado 1356071" d="M389.506,253.387c.135.424-.43.98-1.26,1.244s-1.612.133-1.747-.291.43-.98,1.26-1.244,1.612-.133,1.746.291" transform="translate(-202.108 -132.285)" fill="#0d1f21"/>
              <path id="Trazado_1356072" data-name="Trazado 1356072" d="M389.506,208.158c.135.424-.43.98-1.26,1.244s-1.612.133-1.746-.291.43-.98,1.26-1.244,1.612-.133,1.746.291" transform="translate(-202.108 -108.633)" fill="#0d1f21"/>
              <path id="Trazado_1356073" data-name="Trazado 1356073" d="M352.824,265.142c.135.424-.43.98-1.26,1.244s-1.612.133-1.746-.291.43-.98,1.26-1.244,1.612-.133,1.746.291" transform="translate(-182.926 -138.432)" fill="#0d1f21"/>
              <path id="Trazado_1356074" data-name="Trazado 1356074" d="M371.2,269.049c.134.424-.43.98-1.26,1.244s-1.612.133-1.746-.291.43-.98,1.26-1.244,1.612-.133,1.747.291" transform="translate(-192.536 -140.475)" fill="#0d1f21"/>
              <path id="Trazado_1356075" data-name="Trazado 1356075" d="M361.167,225.811c.226.586-.551,1.432-1.737,1.889s-2.328.352-2.555-.234.551-1.432,1.736-1.889,2.329-.352,2.556.234" transform="translate(-186.606 -117.816)" fill="#0d1f21"/>
              <path id="Trazado_1356076" data-name="Trazado 1356076" d="M359.539,246.288c.226.586-.551,1.432-1.736,1.889s-2.328.352-2.555-.234.551-1.432,1.736-1.889,2.328-.352,2.555.234" transform="translate(-185.755 -128.525)" fill="#0d1f21"/>
              <path id="Trazado_1356077" data-name="Trazado 1356077" d="M389.457,229.493c.13.286-.7.945-1.856,1.472s-2.2.723-2.328.437.7-.945,1.856-1.472,2.2-.723,2.328-.437" transform="translate(-201.47 -119.944)" fill="#0d1f21"/>
            </g>
          </g>
        </g>
      </g>
    </g>
  </g>
</svg>
