<svg xmlns="http://www.w3.org/2000/svg" width="51.028" height="58.667" viewBox="0 0 51.028 58.667">
  <g id="Grupo_1207591" data-name="Grupo 1207591" transform="translate(-706 -1804)">
    <path id="Trazado_1311244" data-name="Trazado 1311244" d="M84.091,15.587c-7.1-7.845-14.248-6.95-21.157-6.085-6.692.838-13.018,1.629-19.444-5.291V2.5c0-3.324-5.168-3.33-5.168,0V5.764a.861.861,0,0,0,1.721,0V2.5a.863.863,0,0,1,1.725,0l-.006,36.57H40.043V10.409a.861.861,0,0,0-1.721,0V39.065H37.315A4.036,4.036,0,0,0,33.283,43.1v4.074a4.045,4.045,0,0,0,1.281,2.948l2.953,2.755a2.314,2.314,0,0,1,.734,1.73c0,.005,0,.01,0,.015v3.187a.861.861,0,0,0,.861.861H49a.863.863,0,0,0,.8-1.17l-1.717-4.449V40.078a4.037,4.037,0,0,0-4.032-4.032H43.49V29.131a11.241,11.241,0,0,0,4.206.81c5.381,0,10.674-3.676,15.836-7.26,1.278-.888,2.6-1.805,3.894-2.646a.861.861,0,0,0-.937-1.444c-1.317.855-2.65,1.78-3.939,2.676-6.614,4.592-12.87,8.936-19.06,5.987V6.652c6.609,6.191,13.236,5.362,19.658,4.558,5.8-.726,11.325-1.418,16.879,2.916-2.852-.411-5.945.279-9.477,2.081a.861.861,0,0,0,.782,1.533c4.687-2.392,8.3-2.644,11.716-.816a.865.865,0,0,0,1.044-1.337ZM47.182,55.48l.566,1.466H39.973V55.48ZM44.056,37.767a2.313,2.313,0,0,1,2.311,2.311v13.13a.858.858,0,0,0,.058.31l.093.241H39.891a4.039,4.039,0,0,0-1.2-2.143L35.739,48.86A2.318,2.318,0,0,1,35,47.171V43.1a2.313,2.313,0,0,1,2.311-2.311h5.314a.861.861,0,0,0,.861-.867v-.13c0-.006,0-.012,0-.018v-2h.567Z" transform="translate(672.717 1804)" fill="#366400"/>
  </g>
</svg>
