<svg xmlns="http://www.w3.org/2000/svg" xmlns:xlink="http://www.w3.org/1999/xlink" width="1228" height="374" viewBox="0 0 1228 374">
  <defs>
    <clipPath id="clip-path">
      <rect id="Rectángulo_456750" data-name="Rectángulo 456750" width="1228" height="374" rx="20" transform="translate(186.371 6167)" fill="#dfdfa4"/>
    </clipPath>
  </defs>
  <g id="Grupo_1207588" data-name="Grupo 1207588" transform="translate(-186.711 -7518)">
    <rect id="Rectángulo_377703" data-name="Rectángulo 377703" width="1228" height="374" rx="20" transform="translate(186.711 7518)" fill="#dfdfa4"/>
    <g id="Enmascarar_grupo_1119252" data-name="Enmascarar grupo 1119252" transform="translate(0.34 1351)" clip-path="url(#clip-path)">
      <path id="Trazado_1279114" data-name="Trazado 1279114" d="M1013.5,89.457a2.394,2.394,0,0,0,1.812,1.061c-.908-.762-1.682-1.676-2.59-2.438-3.982,38.116-8.2,76.486-19.477,113.113-2.689,8.734-6,17.7-12.647,23.966-1.592,1.5-4.218,2.8-5.769,1.259a4.58,4.58,0,0,1-1.021-2.387,165.862,165.862,0,0,1,9.888-99.205c-8.362,12.117-17.025,24.13-27.506,34.469S933.258,178.3,919.17,182.578c-1.324-6.486,2.185-12.9,5.788-18.451a239.99,239.99,0,0,1,42.89-49.609c-3.522,3.52-8.079,5.8-12.658,7.757a132.253,132.253,0,0,1-79.491,7.559c7.63-7.522,18.346-10.821,28.619-13.866l45.137-13.375c-17.465,2.456-35.2-.27-52.614-3.057-20.088-3.215-40.525-6.632-58.676-15.818-1.488-.752-3.165-1.877-3.128-3.543.035-1.583,1.607-2.635,3.02-3.347,10.367-5.222,21.974-7.445,33.5-8.849a265.3,265.3,0,0,1,129.471,16.748c2.308.918,11.118,2.652,12.478,4.73" transform="translate(414.068 6089)" fill="#c9c993"/>
    </g>
  </g>
</svg>
