<svg xmlns="http://www.w3.org/2000/svg" width="571.957" height="49.632" viewBox="0 0 571.957 49.632">
  <g id="Grupo_1207590" data-name="Grupo 1207590" transform="translate(-185.496 -646.047)">
    <path id="Unión_63" data-name="Unión 63" d="M20019,11748.632c-.68-.006-1.367-.031-2.049-.052-1.857-.045-3.713-.132-5.57-.229-1.307-.066-2.619-.021-3.926.03a37.577,37.577,0,0,1-4.736-.03c-1.236-.111-2.482-.076-3.717-.138a3.938,3.938,0,0,1-1.816-.279,9.355,9.355,0,0,1-2.844.046c-1-.041-2-.056-3-.081-.234,0-.463-.006-.7-.016a36.139,36.139,0,0,1-3.84-.274.859.859,0,0,1-.7.355q-3.595-.129-7.193-.27a.652.652,0,0,1-.258-.092c-.076.01-.152.02-.23.031a18.612,18.612,0,0,1-3.486.093.481.481,0,0,1-.24.1,21.049,21.049,0,0,1-4.08-.163.5.5,0,0,1-.213-.117l-1.055-.046a1.222,1.222,0,0,1-1.352.018.81.81,0,0,0-.494.415,9.378,9.378,0,0,1-2.848.046c-2.514-.107-5.031-.036-7.533-.371a.171.171,0,0,1-.02-.016,21.055,21.055,0,0,0-2.248-.011c-.035.063-.068.14-.1.194a24.311,24.311,0,0,1-5.336-.062c0-.041.006-.082.008-.123a17.893,17.893,0,0,1-2.311.017l-.191-.014c0,.026,0,.053,0,.079l-1.246-.076c-.006-.026-.01-.054-.014-.077l-.059,0a.477.477,0,0,0-.076.014l-.053-.02a45.6,45.6,0,0,0-4.732.06,38.748,38.748,0,0,1-5.848-.1,4.39,4.39,0,0,1-2.133-.188.311.311,0,0,1-.014-.034l-.15-.017c-.906.611-1.7.132-2.49-.252-.279.011-.557.007-.836,0a.77.77,0,0,1-.742.521c-.443-.021-.885-.016-1.328,0a10.682,10.682,0,0,1-2.98-.244,1.3,1.3,0,0,1-1.16-.081,28.081,28.081,0,0,1-9.205.045c-.281.036-.555.066-.83.1-.178.1-.355.279-.523.274-1.363-.036-2.727-.107-4.09-.184-.111,0-.219-.137-.33-.213a23.582,23.582,0,0,1-5.422.081,2.188,2.188,0,0,1-2.463-.03l-1.652-.046a.625.625,0,0,1-.875.061,2.6,2.6,0,0,1-1.668.087,6.139,6.139,0,0,1-3.719.025,24.174,24.174,0,0,1-5.387.041,3.756,3.756,0,0,1-2.92.1,6.076,6.076,0,0,1-2.518-.03c-.158.117-.311.331-.473.336-.334,0-.668.02-1,.033-.012.089-.02.182-.039.267a25.69,25.69,0,0,0-7.178.2c-.2.03-.447.132-.6.061-1.113-.509-2.131.036-3.2.158a17.781,17.781,0,0,1-1.781.1h-.289c-.682-.006-1.363-.031-2.045-.052-1.857-.045-3.719-.132-5.576-.229-1.307-.066-2.613-.021-3.92.03a37.662,37.662,0,0,1-4.742-.03c-1.23-.111-2.477-.076-3.717-.138a3.962,3.962,0,0,1-1.816-.279,9.352,9.352,0,0,1-2.844.046c-1-.041-2-.056-3-.081-.229,0-.463-.006-.7-.016a36.139,36.139,0,0,1-3.84-.274.853.853,0,0,1-.691.355q-3.6-.129-7.193-.27a1.246,1.246,0,0,1-.381-.147.918.918,0,0,1-.758-.051,2.085,2.085,0,0,1-1.725-.086c-.285.04-.564.076-.85.122-.168.1-.336.289-.508.295a20.97,20.97,0,0,1-4.074-.163c-.123-.021-.23-.138-.342-.209-.273,0-.549-.01-.824-.02a1.275,1.275,0,0,1-1.668-.066h-.809a2.644,2.644,0,0,1-2.127.056,4.514,4.514,0,0,1-2.41-.143,10.9,10.9,0,0,1-3.041.407,30.609,30.609,0,0,0-5.754.03,13.752,13.752,0,0,0-3.875-.147,20.325,20.325,0,0,1-2.66.036,45.191,45.191,0,0,0-6.373-.036,41.393,41.393,0,0,1-7.4-.259c-.248-.025-.5-.057-.748-.082-.92.621-1.719.117-2.527-.27-.26-.01-.52-.025-.777-.035a.783.783,0,0,1-.758.569c-.443-.021-.891-.016-1.334,0a10.718,10.718,0,0,1-2.98-.244,1.3,1.3,0,0,1-1.16-.081,28.081,28.081,0,0,1-9.205.045c-.275.036-.555.066-.83.1-.172.1-.352.279-.523.274-1.363-.036-2.727-.107-4.084-.184-.117,0-.225-.137-.336-.213a23.577,23.577,0,0,1-5.422.081,2.179,2.179,0,0,1-2.457-.03l-1.658-.046a.625.625,0,0,1-.875.061,2.6,2.6,0,0,1-1.668.087,6.139,6.139,0,0,1-3.719.025,24.174,24.174,0,0,1-5.387.041,3.755,3.755,0,0,1-2.92.1,6.048,6.048,0,0,1-2.512-.03c-.158.117-.316.331-.473.336a10.857,10.857,0,0,1-3.652-.209,3.861,3.861,0,0,1-1.674.062c-.168.106-.336.3-.5.3-.361,0-.717.011-1.078.025a9.243,9.243,0,0,1-2.986-.218,24.258,24.258,0,0,1-5.33-.062,9.553,9.553,0,0,1-2.5-.041l-1.24-.076q-3.51-.167-7.029-.33c-.057-.188-.051-.483-.174-.545-.875-.452-1.551-1.317-2.711-1.2a.714.714,0,0,1-.488-.279.351.351,0,0,1,.143-.514,1.906,1.906,0,0,0,1.014-1.812.385.385,0,0,1,.619-.264c.279.178.51.438.773.646.6.473.84.417,1.227-.26.416-.732.584-.829,1.123-.314a2.72,2.72,0,0,0,2.264.5c.406-.015.463-.163.387-.458-.066-.259-.209-.514.051-.737.381-.33.229-.519-.162-.691a4.43,4.43,0,0,0-3.018-.138c-.518.138-.965.158-1.158-.442a1,1,0,0,0-.672-.687c-.387-.133-.764-.3-1.15-.447a.759.759,0,0,1-.555-.748,1.038,1.038,0,0,1,.719-1.089,8.974,8.974,0,0,1,1.434-.086c.219,0,.438.015.662.025a3.2,3.2,0,0,0,2.318-.474c.225-.173.52-.061.764.1a2.171,2.171,0,0,0,.7.387c.488.076.393-.447.611-.65a6.507,6.507,0,0,1,.914-.58c-.939-.4-1.773-.859-2.791-.458-.342.138-.662-.076-.992-.173-1.043-.315-2.1-.6-3.139-.91a1.466,1.466,0,0,0-1,.03c-.314.127-.641.265-.951-.056.625-.4.428-1.073.6-1.623.086-.285.371-.5.615-.3.736.595,1.236.595,1.693-.311.152-.3.754-.239,1.049-.569.172-.193.324.051.492.122.484.2,1.17.061,1.23-.229a.935.935,0,0,0-.508-.991c-.418-.265-.824-.509-1.266-.006a.628.628,0,0,1-.541.168,6.51,6.51,0,0,0-3.764-.56c-.336.071-.549-.366-.7-1.185a.62.62,0,0,0-.137-.356c-.957-.742,0-1.607-.174-2.421-.137-.636-.006-.661,2.029-1.068a1.7,1.7,0,0,0,.342-.147c-.336-.605-.678-1.19-1.562-.763a.848.848,0,0,1-.406.051c-.459,0-.865-.163-.865-.651a3.884,3.884,0,0,0-.676-2.034c-.748-1.308-.529-1.592,1.119-1.734.346-.031.7-.016.85-.4a.9.9,0,0,0-.652-1.083,3.425,3.425,0,0,0-.609-.107c-.2-.045-.422-.132-.336-.376a1.133,1.133,0,0,1,.391-.442,1.208,1.208,0,0,1,.906-.138,1.521,1.521,0,0,0,.875-.081,6.509,6.509,0,0,1,3.041-.366,22.457,22.457,0,0,0,5.352-.132,2.977,2.977,0,0,1,.818.056h2.264c.238,0,.482,0,.723.01a8.562,8.562,0,0,0,1.738-.071,12.3,12.3,0,0,1,2.662-.116.926.926,0,0,1,.787-.753c.361-.071.3-.32.111-.56a1.79,1.79,0,0,0-1.17-.677q-.809-.207-1.617-.422a.9.9,0,0,1-.67.361,4.754,4.754,0,0,1-1.145-.112,3.945,3.945,0,0,0-1.426-.071c-.365.066-.457-.392-.514-.717-.406-.011-.809-.025-1.215-.036a1.2,1.2,0,0,1-1.078.315c-.086,0-.174,0-.26,0-.533,0-1.068-.035-1.607-.076a10.118,10.118,0,0,0-3.107.092,4.771,4.771,0,0,0-3.012-.006.884.884,0,0,1-.594-.1,2.063,2.063,0,0,0-1.781-.081,1.4,1.4,0,0,1-1.465-.5.272.272,0,0,1,.086-.479,8.476,8.476,0,0,1,1.211-.132c.266-.026.574.015.691-.3.152-.4-.152-.6-.422-.8a5.857,5.857,0,0,1-.5-.335c-.264-.26-.156-.382.168-.55.418-.208.418-.509.072-.631-.383-.132-.779-.219-1.268-.351-.117-.723.5-1.389.26-2.091a2.638,2.638,0,0,1,.086-1.907c.082-.2-.076-.509-.172-.753a1.725,1.725,0,0,1,.574-1.968,1.272,1.272,0,0,1,.834-.412c.916-.143,1.918.03,2.721-.585.26.015.52.025.779.04a6.11,6.11,0,0,1,2.986-.137c.533.111,1.072.229,1.607.346.213.341.5.351.879.254a39.184,39.184,0,0,1,6.1-.712c1.5-.132,3.012-.066,4.379-.818a1.058,1.058,0,0,1,.59-.143,29.01,29.01,0,0,0,3.271-.265c.83,0,1.639-.106,2.451-.184.961.662,1.668-.219,2.492-.381a2.226,2.226,0,0,1,.412-.016c1.379.021,2.752.062,4.131.051.406,0,.818.011,1.227.03a10.793,10.793,0,0,0,2.807-.132,1.543,1.543,0,0,1,.818.046,5.409,5.409,0,0,0,3.215-.066,5.442,5.442,0,0,1,1.43-.157,25.327,25.327,0,0,0,3.1.1,5.865,5.865,0,0,1,3.012.122.884.884,0,0,0,.609-.051,6.608,6.608,0,0,1,2.66-.168,9.327,9.327,0,0,0,2.061.01,9.8,9.8,0,0,1,2.1-.219h.264c.643,0,1.283.046,1.924.092.768.051,1.535.1,2.3.087.688-.011,1.08.584,1.664.706a1.382,1.382,0,0,0,.982-.274,1.646,1.646,0,0,1,.936-.29c1.719.133,3.443.168,5.168.25a.776.776,0,0,1,.809.5c.168.569.488.712,1.072.519.719-.239,1.471-.371,2.184-.605a2.19,2.19,0,0,1,1.795.025,1.328,1.328,0,0,0,1.678-.32,1.579,1.579,0,0,1,1.883-.27,4.826,4.826,0,0,0,2.441.153c1.1-.138,1.109-.128,1.471.818.07.184.105.387.191.56.113.224.18.575.52.493a1.17,1.17,0,0,0,.625-.473,3.479,3.479,0,0,0,.357-.916.728.728,0,0,1,.732-.574,3.526,3.526,0,0,1,1.627.183,4.319,4.319,0,0,1,1.566.916,2.311,2.311,0,0,0,2.285.6,1.6,1.6,0,0,0,1.332-1.337c.086-.377.463-.469.824-.458,1.1.041,2.207.1,3.311.132,1.236.036,2.482.117,3.713.031a4.214,4.214,0,0,1,1.6.106c.641.193,1.4.076,1.852.717.691-.244,1.367-.539,2.074-.717a5.161,5.161,0,0,1,1.43-.087,32.03,32.03,0,0,0,4.258-.187,6.516,6.516,0,0,1,1.664.137,6.372,6.372,0,0,0,1.586.143,18.785,18.785,0,0,1,3.256-.427c.146.015.3,0,.463,0a1.889,1.889,0,0,1,.768.071c1.129.457,2.223.926,3.438.254.088-.046.266.041.387.1a1.5,1.5,0,0,0,1.2.046,3.572,3.572,0,0,1,2.406.173,2.369,2.369,0,0,0,1.23-.071,2.126,2.126,0,0,1,1.4-.015,3.292,3.292,0,0,0,1.588.091,33.785,33.785,0,0,1,5.131-.31,15.928,15.928,0,0,0,4.064.233c.973-.143,2-.534,3.016.016.184.1.52-.092.795-.122a2.341,2.341,0,0,1,1.006-.051,4.413,4.413,0,0,0,2.01.071,8.945,8.945,0,0,1,2.463.157c.248.041.5.092.758.138a13.985,13.985,0,0,1,1.357-.56,2.226,2.226,0,0,1,.412-.016c1.379.021,2.752.062,4.129.051.408,0,.82.011,1.232.03a10.756,10.756,0,0,0,2.8-.132,1.541,1.541,0,0,1,.818.046,5.422,5.422,0,0,0,3.219-.066,5.442,5.442,0,0,1,1.43-.157,25.291,25.291,0,0,0,3.1.1,5.869,5.869,0,0,1,3.012.122.871.871,0,0,0,.605-.051,6.611,6.611,0,0,1,2.66-.168,9.327,9.327,0,0,0,2.061.01,9.857,9.857,0,0,1,2.1-.219h.26c.646,0,1.287.046,1.928.092.768.051,1.531.1,2.3.087a1.555,1.555,0,0,1,.879.307c.426,0,.852.006,1.277,0,.234,0,.469,0,.7.009a1.4,1.4,0,0,1,.729-.177c.756.059,1.514.1,2.27.131.111-.019.223-.039.334-.064a1.561,1.561,0,0,1,.824.046q.108.041.217.073c.508.021,1.016.04,1.523.064a1.453,1.453,0,0,1,.264.032c.4-.055.809-.146,1.211-.236a5.442,5.442,0,0,1,1.43-.157,25.291,25.291,0,0,0,3.1.1,8.538,8.538,0,0,1,2.42-.067,2.047,2.047,0,0,1,.992.179l.037.015a1.093,1.093,0,0,0,.168-.055,6.611,6.611,0,0,1,2.66-.168,9.311,9.311,0,0,0,2.059.01,9.888,9.888,0,0,1,2.1-.219h.264c.641,0,1.283.046,1.924.092.768.051,1.535.1,2.3.087.678-.011,1.068.562,1.635.7,0-.013.006-.024.008-.037.082-.377.463-.469.824-.458l.6.023a1.222,1.222,0,0,1,.521-.085c1.719.133,3.443.168,5.168.25l.084,0c.215-.006.432-.016.648-.03a4.237,4.237,0,0,1,1.6.106,5.785,5.785,0,0,1,1.518.4c.068-.021.139-.042.207-.065a2.433,2.433,0,0,1,1.469-.108c.24-.083.482-.16.729-.222a5.114,5.114,0,0,1,1.422-.087,1.586,1.586,0,0,1,1.742-.147,2.808,2.808,0,0,0,.385.125c.715-.037,1.43-.1,2.143-.165a6.47,6.47,0,0,1,1.658.137,6.4,6.4,0,0,0,1.588.143l.072-.006a.786.786,0,0,1,.492-.172c.2-.006.4-.015.6-.012a6.811,6.811,0,0,1,2.086-.237c.148.015.311,0,.463,0a1.892,1.892,0,0,1,.77.071,4.327,4.327,0,0,0,2.9.483c.1-.334.465-.417.811-.407,1.1.041,2.2.1,3.3.132,1.242.036,2.482.117,3.719.031a4.214,4.214,0,0,1,1.6.106,4.463,4.463,0,0,0,.6.119,18.341,18.341,0,0,1,3.842-.2,8.43,8.43,0,0,1,.916,0,32.118,32.118,0,0,0,4.258-.187,5.106,5.106,0,0,1,1.246.069,2.778,2.778,0,0,1,.371-.009c.906.014,1.813.035,2.719.046a7.122,7.122,0,0,1,2.164-.254c.152.015.311,0,.463,0a1.879,1.879,0,0,1,.768.071c.2.082.4.164.605.239a7.261,7.261,0,0,0,1.445-.158,1.54,1.54,0,0,1,.818.046,3.428,3.428,0,0,0,.529.151l.045-.024c.074-.042.234.026.354.082a7.545,7.545,0,0,0,2.293-.275,5.39,5.39,0,0,1,1.424-.157,25.339,25.339,0,0,0,3.1.1,5.882,5.882,0,0,1,3.016.122.871.871,0,0,0,.605-.051,6.611,6.611,0,0,1,2.66-.168,9.328,9.328,0,0,0,2.061.01,9.831,9.831,0,0,1,2.1-.219h.26c.646,0,1.287.046,1.928.092.768.051,1.531.1,2.3.087.576-.009.943.4,1.385.609.244-.015.492-.044.746-.07.123-.013.246-.021.367-.025l.146-.082a1.679,1.679,0,0,1,.941-.29c1,.077,2,.121,3.008.161.041-.011.08-.021.121-.028a2.213,2.213,0,0,1,.412-.016c1.373.021,2.752.062,4.129.051.408,0,.82.011,1.227.03a10.8,10.8,0,0,0,2.809-.132,1.543,1.543,0,0,1,.818.046,3.14,3.14,0,0,0,.346.109,1.6,1.6,0,0,1,1.719-.125,2.784,2.784,0,0,0,.357.118c.266-.05.531-.109.8-.169a5.4,5.4,0,0,1,1.424-.157,25.327,25.327,0,0,0,3.1.1,5.889,5.889,0,0,1,3.018.122.874.874,0,0,0,.605-.051,6.611,6.611,0,0,1,2.66-.168,9.31,9.31,0,0,0,2.059.01,9.862,9.862,0,0,1,2.1-.219h.26c.641,0,1.281.046,1.922.092.768.051,1.537.1,2.3.087a1.631,1.631,0,0,1,.93.341,3.283,3.283,0,0,1,1.059.132,3.284,3.284,0,0,0,.416.091c.08-.041.16-.086.24-.132a1.679,1.679,0,0,1,.941-.29c1.719.133,3.443.168,5.162.25h.01c.951-.026,1.9-.105,2.844-.193a6.485,6.485,0,0,1,1.658.137,6.4,6.4,0,0,0,1.588.143c.713-.053,1.406-.266,2.115-.376a1.394,1.394,0,0,1,.408-.051,4.056,4.056,0,0,1,.73,0c.148.015.311,0,.463,0a1.892,1.892,0,0,1,.77.071c.271.11.541.221.811.316.156-.015.311-.032.465-.052.852-.105,1.049-.124,1.258.3a2.639,2.639,0,0,0,.91-.311c.08-.046.264.041.387.1a1.562,1.562,0,0,0,.719.148.729.729,0,0,1,.629-.326,3.544,3.544,0,0,1,1.627.183l.168.076c.154.043.307.09.463.138a2.351,2.351,0,0,0,1.227-.071,2.126,2.126,0,0,1,1.4-.015,3.3,3.3,0,0,0,1.592.091c.111,0,.221-.013.33-.021l.006-.02c.082-.377.457-.469.818-.458,1.1.041,2.207.1,3.311.132,1.236.036,2.482.117,3.715.031a4.237,4.237,0,0,1,1.6.106l.1.027a3.289,3.289,0,0,1,2.326.141c.184.1.523-.092.793-.122a3.518,3.518,0,0,1,.877-.084,6.018,6.018,0,0,1,1.26-.049,32.118,32.118,0,0,0,4.258-.187,6.492,6.492,0,0,1,1.658.137,6.4,6.4,0,0,0,1.586.143,18.835,18.835,0,0,1,3.256-.427c.148.015.3,0,.463,0a1.889,1.889,0,0,1,.768.071c1.131.457,2.229.926,3.439.254.086-.046.27.041.387.1a1.5,1.5,0,0,0,1.2.046,3.571,3.571,0,0,1,2.406.173,2.367,2.367,0,0,0,1.23-.071,2.131,2.131,0,0,1,1.4-.015,3.065,3.065,0,0,0,1.51.1c.115-.09.23-.18.352-.27.4.006.809.016,1.211.025a.881.881,0,0,0,.117.094,16.434,16.434,0,0,1,3.529-.164,15.933,15.933,0,0,0,4.064.233,9.874,9.874,0,0,1,2.014-.265,2.006,2.006,0,0,1,.295-.086,2.226,2.226,0,0,1,.412-.016c1.379.021,2.752.062,4.131.051.406,0,.818.011,1.225.03a10.8,10.8,0,0,0,2.809-.132,1.543,1.543,0,0,1,.818.046,5.41,5.41,0,0,0,3.215-.066,5.461,5.461,0,0,1,1.43-.157,25.343,25.343,0,0,0,3.1.1,5.869,5.869,0,0,1,3.012.122.874.874,0,0,0,.605-.051,6.611,6.611,0,0,1,2.66-.168,9.327,9.327,0,0,0,2.061.01,9.831,9.831,0,0,1,2.1-.219h.26c.641,0,1.281.046,1.922.092.77.051,1.537.1,2.3.087.691-.011,1.078.584,1.664.706a1.377,1.377,0,0,0,.98-.274,1.679,1.679,0,0,1,.941-.29c1.719.133,3.443.168,5.162.25a.774.774,0,0,1,.809.5c.168.569.488.712,1.074.519.717-.239,1.465-.371,2.182-.605a2.2,2.2,0,0,1,1.8.025,1.324,1.324,0,0,0,1.674-.32,1.577,1.577,0,0,1,1.881-.27,4.851,4.851,0,0,0,2.447.153c1.1-.138,1.1-.128,1.465.818a5.349,5.349,0,0,0,.2.56c.105.224.172.575.514.493a1.178,1.178,0,0,0,.625-.473,3.475,3.475,0,0,0,.355-.916.729.729,0,0,1,.738-.574,3.541,3.541,0,0,1,1.627.183,4.3,4.3,0,0,1,1.563.916,2.309,2.309,0,0,0,2.283.6,1.6,1.6,0,0,0,1.338-1.337c.082-.377.457-.469.818-.458,1.1.041,2.209.1,3.313.132,1.234.036,2.482.117,3.713.031a4.2,4.2,0,0,1,1.6.106c.643.193,1.4.076,1.857.717.688-.244,1.363-.539,2.07-.717a5.161,5.161,0,0,1,1.43-.087,32.133,32.133,0,0,0,4.262-.187,6.492,6.492,0,0,1,1.658.137,6.4,6.4,0,0,0,1.588.143,18.793,18.793,0,0,1,3.25-.427c.152.015.311,0,.467,0a1.9,1.9,0,0,1,.77.071c1.129.457,2.227.926,3.438.254.086-.046.27.041.387.1a1.5,1.5,0,0,0,1.2.046,3.564,3.564,0,0,1,2.4.173,2.376,2.376,0,0,0,1.232-.071,2.126,2.126,0,0,1,1.4-.015,3.285,3.285,0,0,0,1.586.091,33.8,33.8,0,0,1,5.133-.31,15.933,15.933,0,0,0,4.064.233c.971-.143,2-.534,3.016.016.184.1.523-.092.793-.122a2.35,2.35,0,0,1,1.008-.051,4.413,4.413,0,0,0,2.01.071,8.931,8.931,0,0,1,2.461.157,10.059,10.059,0,0,0,3.189.28,3.6,3.6,0,0,1,1.078.04,2.627,2.627,0,0,0,1.109.011,3.778,3.778,0,0,1,2.375.392,1.144,1.144,0,0,0,1.307-.173,1.243,1.243,0,0,1,.982-.209,6.507,6.507,0,0,1,2.426.361,1.839,1.839,0,0,0,1.766-.127c.748-.469.787-.407,1.348.33.381.5.7.56,1.189.2a1.064,1.064,0,0,0,.285-.279.989.989,0,0,1,1.424-.325,2.51,2.51,0,0,0,.789.218.76.76,0,0,0,.879-.655c.139-.107.281-.214.418-.321.406.006.809.016,1.215.025.586.529,1.375.214,2.025.453.035.447.355.687.7.926a.875.875,0,0,1,.443.85c-.234,1.271-.234,2.619-1.154,3.7-.691.818-.662.809-.088,1.678a3.688,3.688,0,0,0,.973,1.008,2.852,2.852,0,0,1,1,1.479.708.708,0,0,1-.488.941,10.716,10.716,0,0,1-1.221.106,7.581,7.581,0,0,0-1.225.1.616.616,0,0,0-.5.565.5.5,0,0,0,.3.473c.951.479,1.766,1.043,1.547,2.278a4.471,4.471,0,0,0-1.338.4,2.118,2.118,0,0,1-2.32.137c-.365-.173-.828-.137-1.184-.314a1.867,1.867,0,0,0-1.771,0c-.492.244-.961.473-1.49-.036-.273-.265-.752-.03-.9.209a2.6,2.6,0,0,1-2.191,1.043c.244.279.352.508.514.549a12.609,12.609,0,0,0,3.615.682,15.542,15.542,0,0,1,1.883.066,9.769,9.769,0,0,0,3.053-.082.5.5,0,0,1,.391.052c.545.625,1.348.574,2.055.783a1.515,1.515,0,0,1,1.1,1.276c.174.788.057,1.566.174,2.34a.549.549,0,0,1-.6.646,8.584,8.584,0,0,0-1.842.173,7.159,7.159,0,0,1-2.254.128,4.049,4.049,0,0,1-3.367-.295,1.065,1.065,0,0,0-1.16.035,2.478,2.478,0,0,1-2.369.239,1.7,1.7,0,0,0-1.715.193,1.018,1.018,0,0,1-1.316-.168.971.971,0,0,0-.916-.341c-.895.279-1.959.1-2.666.9a.678.678,0,0,1-.91.122c-.992-.463-1-.448-1.367.478a5.718,5.718,0,0,0-.27.748.676.676,0,0,0,.172.737c.244.178.52.056.754-.112a6.253,6.253,0,0,1,1.646-1.18,3.924,3.924,0,0,1,.977-.249c.4-.016.535.361.732.626.266.346.611.615,1.039.314.549-.386.844-.116,1.18.27.371.438.061.733-.178,1.043a3.259,3.259,0,0,1-.311.265c-.346.366-.041.58.213.809a3.222,3.222,0,0,1,.24.32c-.209.062-.24.128-.1.163.016,0,.066-.1.1-.157a1.7,1.7,0,0,1,.57.2c.365.336.641.661,1.18.163a1.729,1.729,0,0,1,2.08-.387c.32.168.523,0,.729-.179a.707.707,0,0,1,.559-.238c.463.081.895.392,1.4.238a1.335,1.335,0,0,0,.52-.289c.533-.494.9-.326,1.383.137a6.1,6.1,0,0,1,1.328,1.617,2.827,2.827,0,0,0,.336.494.213.213,0,0,0,.188.046c.111-.046.285-.1.3-.188a1.168,1.168,0,0,0,.016-.58c-.08-.325-.229-.677.133-.9.279-.167.707-.392.936-.295a13.1,13.1,0,0,0,2.645.417c.316.057.52.315.4.57-.59,1.317-.111,2.513.523,3.738-.615.106-1.145.361-1.535.234a2.426,2.426,0,0,0-1.795,0,.858.858,0,0,1-.605-.031,1.8,1.8,0,0,0-2.264.209c-.254.249-.641.071-.977-.041a2.025,2.025,0,0,0-.789-.117.4.4,0,0,0-.365.412c0,.2.02.407.238.5a2.059,2.059,0,0,0,1.6.056,2.027,2.027,0,0,1,1.414-.086c.352.127.615.351.3.728-.285.335-.285.7.146.727,1.131.076,2.32.564,3.367-.3a.591.591,0,0,1,.561,0c.783.742,1.785.6,2.736.671.529.041.977.184.971.789a1.72,1.72,0,0,0,.754,1.536,2.088,2.088,0,0,1,.762,1.587.953.953,0,0,0,.977,1.042c.412.046.561.336.605.692-.543.01-1.082.021-1.627.025-.152-.122-.3-.341-.469-.352a7.823,7.823,0,0,0-1.037.016,4.828,4.828,0,0,1-1.764-.106c-.352-.107-.8.387-.773.768.045.493.152.987.264,1.638,1.088-.371,1.725.315,2.426.84a.485.485,0,0,1-.045.834,1.684,1.684,0,0,1-.549.249c-.443.1-.475.274-.311.687.33.829.041,1.257-.846,1.267-.961,0-1.922-.061-2.883-.106a5.174,5.174,0,0,0-2.178.387,3.812,3.812,0,0,1-3.7-.265,1.448,1.448,0,0,0-1.867-.046,1.054,1.054,0,0,1-1.6-.163c-.285-.325-.656-.143-.9.1a2.7,2.7,0,0,1-2.27.677,15.908,15.908,0,0,0-3.27,0,23.532,23.532,0,0,1-4.309.061c-1.785-.061-3.57-.143-5.355-.219-.494-.025-.977-.051-1.256.458a9.35,9.35,0,0,1-2.844.046c-2.514-.107-5.035-.036-7.533-.371-.057-.041-.107-.1-.168-.112a61.293,61.293,0,0,0-7.486-.4c-.3-.011-.463.233-.617.452a.9.9,0,0,1-.752-.051c-.666-.707-.967-.723-1.729-.086-.285.04-.57.076-.85.122a11.023,11.023,0,0,0-4.609-.311c-.111,0-.213.152-.314.233-.275,0-.551-.01-.824-.02-.773-.575-.85-.575-1.664-.066h-.812c-.947-.707-1.379-.692-2.127.056a4.513,4.513,0,0,1-2.41-.143.859.859,0,0,0-1.16-.549,9.255,9.255,0,0,1-3.484.173,12.818,12.818,0,0,0-1.395-.28c-.812.046-1.617.29-2.43.347a3.6,3.6,0,0,1-1.055-.143,2.411,2.411,0,0,0-1.561-.03,4.888,4.888,0,0,1-2.045.147c-.346-.006-.691-.006-1.033-.036-2.664-.234-5.375.046-8.016-.569a.559.559,0,0,0-.387.051c-1.316.854-2.746.509-4.16.392-.545-.046-1.1-.056-1.648-.062a.741.741,0,0,0-.727.591c-.25-.025-.494-.057-.748-.082.432-.712-.346-1.19-.377-1.811-.029-.575-.371-.824-.941-.794a1.047,1.047,0,0,0-1.1.957c-.076.452-.07.92-.1,1.378-.264-.01-.523-.025-.783-.035-.57-.127-1.23.046-1.684-.483a.472.472,0,0,0-.7-.112,1.929,1.929,0,0,1-1.516.407c-.133,0-.26,0-.387,0a.84.84,0,0,0-.783.509,1.3,1.3,0,0,1-1.16-.081,1,1,0,0,0-1.354-.778,18.248,18.248,0,0,1-5.641.351,11.6,11.6,0,0,0-1.627-.01.573.573,0,0,0-.133.02.624.624,0,0,1-.285.214c-.061.076-.111.168-.168.249-.273.036-.549.066-.828.1a6.575,6.575,0,0,0-.916-.285c-.514-.021-1.033-.051-1.551-.076a5.185,5.185,0,0,0-2.178.387,4.012,4.012,0,0,1-3.148.051,25.682,25.682,0,0,1-2.568-.117c-.047-.025-.092-.051-.133-.076a1.006,1.006,0,0,1-1.316-.331c-.006,0-.012-.01-.012-.015a2.034,2.034,0,0,0-1,.392l-.213-.006a2.965,2.965,0,0,1-1.943.4,15.908,15.908,0,0,0-3.27,0,23.476,23.476,0,0,1-4.3.061c-1.791-.061-3.576-.143-5.361-.219-.494-.025-.977-.051-1.258.458a9.336,9.336,0,0,1-2.842.046c-2.514-.107-5.037-.036-7.533-.371-.057-.041-.107-.1-.168-.112-.3-.046-.6-.086-.9-.122-.361.036-.729.066-1.088.087-.082,0-.148.2-.219.315a24.274,24.274,0,0,1-5.332-.062,1.973,1.973,0,0,0-.035-.615c-.25.035-.391.254-.529.447a.9.9,0,0,1-.752-.051,2.655,2.655,0,0,0-.48-.423,1.322,1.322,0,0,1-.689.248c-.006.118-.008.236-.016.353l-1.236-.076a.558.558,0,0,1-.02-.086,1.131,1.131,0,0,0-.139.021,5.782,5.782,0,0,0-.771-.225,3.073,3.073,0,0,1-1.832.331,15.909,15.909,0,0,0-3.27,0,23.547,23.547,0,0,1-4.309.061c-1.785-.061-3.576-.143-5.361-.219-.488-.025-.977-.051-1.252.458a9.378,9.378,0,0,1-2.848.046c-2.508-.107-5.031-.036-7.533-.371-.057-.041-.107-.1-.168-.112a61.145,61.145,0,0,0-7.482-.4c-.3-.011-.463.233-.615.452a.918.918,0,0,1-.758-.051c-.666-.707-.967-.723-1.729-.086-.285.04-.564.076-.85.122a7.987,7.987,0,0,0-3.006-.4,1.241,1.241,0,0,0-.076.18c-.25-.025-.5-.057-.748-.082l.035-.062c-.271.016-.543.035-.814.053-.111,0-.207.152-.314.233-.275,0-.549-.01-.824-.02-.773-.575-.85-.575-1.664-.066h-.809c-.951-.707-1.383-.692-2.125.056a4.611,4.611,0,0,1-2.24-.083,1.341,1.341,0,0,1-.781-.176,1.667,1.667,0,0,0-.236-.489,1.164,1.164,0,0,0-.318.057,9.23,9.23,0,0,1-3.479.173,2.372,2.372,0,0,1-.51-.1,17.5,17.5,0,0,1-2-.027,12.2,12.2,0,0,1-1.318.2,3.6,3.6,0,0,1-1.049-.141,1.418,1.418,0,0,0-.3.379c-.275.036-.549.066-.828.1a6.773,6.773,0,0,0-1.182-.346,11.241,11.241,0,0,1-1.307-.021c-.182,0-.363,0-.547-.01a1.548,1.548,0,0,1-.236.609,2.006,2.006,0,0,0-.133.564,25.686,25.686,0,0,0-7.176.2c-.2.03-.443.132-.6.061-1.113-.509-2.137.036-3.205.158a17.733,17.733,0,0,1-1.785.1Zm-21.814-.7a.828.828,0,0,1,.59-.437A.816.816,0,0,0,19997.186,11747.935Zm-152.109,0a.832.832,0,0,1,.59-.437A.819.819,0,0,0,19845.076,11747.935Zm172.119-.168c.02,0,.041-.086.061-.138a.81.81,0,0,0-.152-.061h-.016C20016.957,11747.681,20017,11747.757,20017.2,11747.767Zm-152.109,0c.006,0,.01,0,.014-.013l-.084,0A.44.44,0,0,0,19865.086,11747.767Zm-141.809-.26a5.527,5.527,0,0,0-1.566-.213A5.527,5.527,0,0,1,19723.277,11747.507Zm5.758-.142c-.066-.021-.127-.041-.193-.057C19728.908,11747.324,19728.969,11747.345,19729.035,11747.365Zm151.875-.066a5.2,5.2,0,0,0-.656-.119A5.2,5.2,0,0,1,19880.91,11747.3Zm-152.1,0a6.318,6.318,0,0,0-1.512-.163A6.318,6.318,0,0,1,19728.807,11747.3Zm-7.121,0h0Zm164.875-.1Zm-152.113,0Zm151.982-.059a4.216,4.216,0,0,0-2.057-.038,10.275,10.275,0,0,1,1.182-.107A2.368,2.368,0,0,1,19886.43,11747.139Zm-152.119,0a4.167,4.167,0,0,0-2.041-.037,10.174,10.174,0,0,1,1.176-.107A2.33,2.33,0,0,1,19734.311,11747.138Zm158.252-.027a4.3,4.3,0,0,1,.75-.121h0A4.238,4.238,0,0,0,19892.563,11747.11Zm-150.939-.137h0Zm160.137-.082a1.7,1.7,0,0,0-.393-.046A1.7,1.7,0,0,1,19901.76,11746.892Zm-152.109,0a1.687,1.687,0,0,0-.387-.046A1.687,1.687,0,0,1,19749.65,11746.892Zm151.7-.046h0Zm-152.1,0h0Zm-40.143-1.562-.01-.01Zm-.02-.015c-.006,0-.01,0-.016-.011S19709.08,11745.265,19709.086,11745.27Zm-.025-.016c-.006,0-.006,0-.01,0S19709.055,11745.249,19709.061,11745.254Zm-.025-.016s-.006,0-.006,0S19709.035,11745.238,19709.035,11745.238Zm-.021-.01a.016.016,0,0,0-.014,0A.016.016,0,0,1,19709.014,11745.229Zm-.025-.016s-.01,0-.01,0S19708.984,11745.213,19708.988,11745.213Zm-.025-.01s-.01,0-.01,0S19708.959,11745.2,19708.963,11745.2Zm-.02-.01c-.01,0-.016,0-.016-.006S19708.934,11745.193,19708.943,11745.193Zm-.025-.006c-.01,0-.016,0-.02-.01S19708.908,11745.183,19708.918,11745.188Zm-.025-.01a.039.039,0,0,0-.02,0A.039.039,0,0,1,19708.893,11745.178Zm-.031-.01a.034.034,0,0,1-.02-.006A.034.034,0,0,0,19708.861,11745.168Zm-.025-.006s-.01,0-.02,0C19708.826,11745.157,19708.832,11745.157,19708.836,11745.162Zm-.025,0c-.01,0-.016,0-.025-.01C19708.795,11745.152,19708.8,11745.152,19708.811,11745.157Zm-.178-.035Zm-.082-.009h0Zm-.451-.007h.172c.088,0,.176,0,.262.006a4.259,4.259,0,0,0-.434-.006h0Zm-.32,0c-.012,0-.021,0-.031,0C19707.758,11745.1,19707.768,11745.106,19707.779,11745.106Zm-.047,0h0Zm-.045,0h0Zm-.057,0h0Zm-.035-.006h0Zm-.035,0c-.006,0-.016,0-.021,0S19707.555,11745.091,19707.561,11745.091Zm-.037,0h0Zm-.035,0h0Zm-.035,0h0Zm8.561-4.527-.168-.015Zm-.209-.015h0Zm.209-3.449h0Zm8.393-1.235c-.041,0-.082-.006-.127-.006C19724.324,11735.844,19724.365,11735.85,19724.406,11735.85Zm-.549,0c-.062,0-.123,0-.189-.006C19723.734,11735.85,19723.795,11735.85,19723.857,11735.85Zm-7.264-.769h0Zm-.123,0a1.2,1.2,0,0,1-.26-.056A1.2,1.2,0,0,0,19716.471,11735.076Zm-3.412-.285a2.379,2.379,0,0,0,1.012.244,2.379,2.379,0,0,1-1.012-.244,1.012,1.012,0,0,0-.443-.106A1.012,1.012,0,0,1,19713.059,11734.791Zm3.082.2a.328.328,0,0,1-.035-.016A.328.328,0,0,0,19716.141,11735Zm-.25-.1a1.368,1.368,0,0,0-.375-.07A1.368,1.368,0,0,1,19715.891,11734.893Zm-.451-.07h0Zm-2.834-.138h0Zm2.584-1.226h0Zm-3.887-1.374a.389.389,0,0,1-.051-.071A.263.263,0,0,0,19711.3,11732.085Zm4.441-.712-.031-.015Zm-3.256-.671a.352.352,0,0,0-.1-.016A.352.352,0,0,1,19712.488,11730.7Zm-4.211-2.849h0Zm-.035,0a2.552,2.552,0,0,1-.412-.041A2.552,2.552,0,0,0,19708.242,11727.854Zm-.7-.1c.092.021.172.04.248.056-.076-.016-.156-.035-.248-.056-.2-.046-.387-.153-.586-.179C19707.158,11727.6,19707.346,11727.706,19707.545,11727.752Zm-6.9-.412c.006-.011-.076-.046-.137-.076C19700.551,11727.432,19700.607,11727.462,19700.643,11727.34Zm-.311-.188c-.006.011.082.046.143.076-.031-.1-.061-.157-.092-.157C19700.367,11727.07,19700.348,11727.1,19700.332,11727.151Zm543.732-.91a.171.171,0,0,0-.041.147c.076.127.164.111.215-.03.01-.041-.031-.092-.047-.138C20244.146,11726.226,20244.08,11726.216,20244.064,11726.241Zm-531.8-1.262h0Zm-2.8-.254a.485.485,0,0,0-.143-.076A.485.485,0,0,1,19709.463,11724.726Zm-.24-.087h0Zm7.055-.1a1.364,1.364,0,0,1-.859-.453A1.364,1.364,0,0,0,19716.277,11724.537Zm-.936-.519a.659.659,0,0,0-.381-.143A.659.659,0,0,1,19715.342,11724.019Zm2.064-1.022h0Zm1.721,0a.614.614,0,0,0-.209-.29A.614.614,0,0,1,19719.127,11722.991Zm-1.807,0a1.461,1.461,0,0,1-.5-.147A1.461,1.461,0,0,0,19717.32,11722.991Zm-9.109-1.16a.4.4,0,0,1-.133-.041A.4.4,0,0,0,19708.211,11721.831Zm2.314-.732a1.846,1.846,0,0,0-.453-.071A1.846,1.846,0,0,1,19710.525,11721.1Zm-.482-.071h0Zm549.24-.336c.01-.015-.1-.061-.158-.091C20259.186,11720.794,20259.248,11720.824,20259.283,11720.691Zm-.793-.981a.819.819,0,0,0-.031.539c.107.26.4.3.666.341a2.125,2.125,0,0,0-.02-.569.917.917,0,0,0-.3-.428.071.071,0,0,0-.035-.01C20258.688,11719.583,20258.51,11719.649,20258.49,11719.71Zm-539.623-2.441c-.137,0-.27,0-.4-.01C19718.6,11717.264,19718.73,11717.269,19718.867,11717.269Zm526.963-1.76a.245.245,0,0,0,.264.351c.082,0,.158-.137.234-.213-.061-.087-.107-.234-.187-.25a.108.108,0,0,0-.041,0C20246,11715.392,20245.855,11715.447,20245.83,11715.509Zm-527.141-1.063h0Zm-.057,0c-.254,0-.5-.015-.758-.03C19718.129,11714.431,19718.379,11714.445,19718.633,11714.445Zm-7.492-1.525h0Zm-4.928-.778h0Zm-.047,0a1.239,1.239,0,0,1-.809-.352A1.239,1.239,0,0,0,19706.166,11712.142Zm2.666-.025a.27.27,0,0,1-.062,0A.27.27,0,0,0,19708.832,11712.116Zm4.4-.158a.554.554,0,0,0-.09,0A.554.554,0,0,1,19713.23,11711.958Zm-2.156-.061a1.223,1.223,0,0,0-.3-.107A1.223,1.223,0,0,1,19711.074,11711.9Zm-5.752-.133s-.006,0-.006-.01S19705.322,11711.76,19705.322,11711.765Zm-3.963-1.276h0Zm-.1,0a1.018,1.018,0,0,1-.818-.524A1.018,1.018,0,0,0,19701.258,11710.483Zm2.029-.127a.4.4,0,0,0-.32-.4A.4.4,0,0,1,19703.287,11710.356Zm-2.889-.463c-.025-.046-.051-.1-.076-.147C19700.348,11709.8,19700.373,11709.848,19700.4,11709.894Zm1.652-2.7a.177.177,0,0,1-.055-.01A.177.177,0,0,0,19702.051,11707.192Zm-.768-.178a3.8,3.8,0,0,0-.4-.057A3.8,3.8,0,0,1,19701.283,11707.015Zm-.428-.057h0Zm-.025,0h0Zm470.564-4.812c.025.082.2.112.316.163.055-.107.172-.234.146-.315s-.209-.112-.32-.163C20171.486,11701.938,20171.365,11702.065,20171.395,11702.146Zm-387.869,0c.031.082.209.112.32.163.057-.107.174-.234.143-.315s-.2-.112-.314-.163C19783.617,11701.938,19783.5,11702.065,19783.525,11702.146Z" transform="translate(-19510.371 -11053.453)" fill="#bdf783" stroke="rgba(0,0,0,0)" stroke-miterlimit="10" stroke-width="1"/>
  </g>
</svg>
