<svg xmlns="http://www.w3.org/2000/svg" xmlns:xlink="http://www.w3.org/1999/xlink" width="57.619" height="68.265" viewBox="0 0 57.619 68.265">
  <defs>
    <clipPath id="clip-path">
      <rect id="Rectángulo_456684" data-name="Rectángulo 456684" width="57.619" height="58.164" fill="#366400"/>
    </clipPath>
    <clipPath id="clip-path-2">
      <rect id="Rectángulo_456753" data-name="Rectángulo 456753" width="34.045" height="59.636" fill="none"/>
    </clipPath>
  </defs>
  <g id="Grupo_1207590" data-name="Grupo 1207590" transform="translate(-190.785 -630.533)">
    <g id="Grupo_1206548" data-name="Grupo 1206548" transform="translate(-124.674 -7583.365)">
      <g id="Grupo_1206544" data-name="Grupo 1206544" transform="translate(315.459 8224)">
        <g id="Grupo_1206514" data-name="Grupo 1206514" transform="translate(0 0)">
          <g id="Grupo_1206513" data-name="Grupo 1206513" clip-path="url(#clip-path)">
            <path id="Trazado_1294880" data-name="Trazado 1294880" d="M175.89,89.657c-.071-.454-.375-.2-.3-.213-.017.269.254.172.3.213" transform="translate(-118.271 -60.212)" fill="#366400"/>
            <path id="Trazado_1294881" data-name="Trazado 1294881" d="M172.07,75.239l.124.058-.382-.585Z" transform="translate(-115.735 -50.328)" fill="#366400"/>
            <path id="Trazado_1294882" data-name="Trazado 1294882" d="M170.007,66.486l.44.238c-.133-.425-.307-.906-.487-1.348A4.475,4.475,0,0,1,169.6,64.2c-.343.5.495,1.387.479,2.143Z" transform="translate(-114.193 -43.249)" fill="#366400"/>
            <path id="Trazado_1294883" data-name="Trazado 1294883" d="M170.237,57.187c-.036-.084-.081-.2-.147-.4-.117.2-.323-.393.139.507a.775.775,0,0,1,.008-.1" transform="translate(-114.475 -38.243)" fill="#366400"/>
            <path id="Trazado_1294884" data-name="Trazado 1294884" d="M170.847,57.865c.175.409.036-.325,0,0" transform="translate(-115.086 -38.921)" fill="#366400"/>
            <path id="Trazado_1294885" data-name="Trazado 1294885" d="M168.507,51.633c-.33-.514-.373-.351-.393.032l.388.465c.048-.154-.146-.642,0-.5" transform="translate(-113.245 -34.562)" fill="#366400"/>
            <path id="Trazado_1294886" data-name="Trazado 1294886" d="M166.65,51.569c.019-.067,0-.147-.192-.239l.1.118.093.121" transform="translate(-112.129 -34.577)" fill="#366400"/>
            <path id="Trazado_1294887" data-name="Trazado 1294887" d="M167.1,52.3c-.147.011.025.069.226.275l-.393-.518c-.033.109-.167.18.167.243" transform="translate(-112.413 -35.069)" fill="#366400"/>
            <path id="Trazado_1294888" data-name="Trazado 1294888" d="M168.025,54.74c.045.335.134.745-.233.277.465.989.723.72.233-.277" transform="translate(-113.028 -36.874)" fill="#366400"/>
            <path id="Trazado_1294889" data-name="Trazado 1294889" d="M168.4,64.779a1.218,1.218,0,0,1-.112-.452c-.029-.174-.067-.319-.131-.285v.217c0,.109-.006.219-.006.219Z" transform="translate(-113.27 -43.137)" fill="#366400"/>
            <path id="Trazado_1294890" data-name="Trazado 1294890" d="M163.138,42.976c-.046-.229-.224-.612-.115-.716-.1.022-.118.306-.2.408,0,0,.084.074.162.152l.156.156" transform="translate(-109.678 -28.467)" fill="#366400"/>
            <path id="Trazado_1294891" data-name="Trazado 1294891" d="M161.812,42.589l-.488-.446c.289.488.414.533.488.446" transform="translate(-108.671 -28.388)" fill="#366400"/>
            <path id="Trazado_1294892" data-name="Trazado 1294892" d="M165.084,51.777l.376.4-.419-.486c-.1-.122-.216-.238-.3-.325l-.138-.145.094.174s.2.187.384.385" transform="translate(-110.882 -34.501)" fill="#366400"/>
            <path id="Trazado_1294893" data-name="Trazado 1294893" d="M159.038,35.821l-.33-.165-.34-.153.27.155Z" transform="translate(-106.68 -23.915)" fill="#366400"/>
            <path id="Trazado_1294894" data-name="Trazado 1294894" d="M154.407,30.043c.324.085,0-.491.279-.348a3.415,3.415,0,0,0-1.034-.661,2.274,2.274,0,0,1,.755,1.008" transform="translate(-103.503 -19.558)" fill="#366400"/>
            <path id="Trazado_1294895" data-name="Trazado 1294895" d="M151.959,28.207a4.363,4.363,0,0,0,.553.271,2.089,2.089,0,0,0-.553-.271" transform="translate(-102.362 -19.001)" fill="#366400"/>
            <path id="Trazado_1294896" data-name="Trazado 1294896" d="M159.243,37.542l-.081.368.142.207a.692.692,0,0,0-.061-.575" transform="translate(-107.214 -25.289)" fill="#366400"/>
            <path id="Trazado_1294897" data-name="Trazado 1294897" d="M158.541,37.74l-.3-.45.3.462Z" transform="translate(-106.593 -25.119)" fill="#366400"/>
            <path id="Trazado_1294898" data-name="Trazado 1294898" d="M159.624,39.355l-.036-.052c-.008.036-.007.053.036.052" transform="translate(-107.499 -26.475)" fill="#366400"/>
            <path id="Trazado_1294899" data-name="Trazado 1294899" d="M161.065,45.982c.3.131.2-.305.681.059-.321-.246-.842-.816-.681-.059" transform="translate(-108.476 -30.719)" fill="#366400"/>
            <path id="Trazado_1294900" data-name="Trazado 1294900" d="M159.375,40.841s.084.145.158.3l.153.3c.055-.051.08-.212.244-.1l-.276-.25c-.136-.126-.279-.245-.279-.245" transform="translate(-107.358 -27.511)" fill="#366400"/>
            <path id="Trazado_1294901" data-name="Trazado 1294901" d="M158.572,40.179l.262.216-.124-.215Z" transform="translate(-106.817 -27.065)" fill="#366400"/>
            <path id="Trazado_1294902" data-name="Trazado 1294902" d="M152.2,30.107a3.7,3.7,0,0,1-.766-.619c.231.313.469.634.716.92.1-.018.33.007.05-.3" transform="translate(-102.011 -19.864)" fill="#366400"/>
            <path id="Trazado_1294903" data-name="Trazado 1294903" d="M156.323,34.84l-.053-.041c.006.046.02.076.053.041" transform="translate(-105.266 -23.441)" fill="#366400"/>
            <path id="Trazado_1294904" data-name="Trazado 1294904" d="M143.543,22.024l.01.076.041-.028Z" transform="translate(-96.693 -14.836)" fill="#366400"/>
            <path id="Trazado_1294905" data-name="Trazado 1294905" d="M153.546,32.39a.878.878,0,0,0,.487.41,5.827,5.827,0,0,1-.49-.493c-.046.008-.068.022,0,.083" transform="translate(-103.401 -21.763)" fill="#366400"/>
            <path id="Trazado_1294906" data-name="Trazado 1294906" d="M149.529,26.293c.071.146.16.3.25.466-.036-.172-.159-.482-.25-.466" transform="translate(-100.725 -17.711)" fill="#366400"/>
            <path id="Trazado_1294907" data-name="Trazado 1294907" d="M156.268,34.31a.447.447,0,0,1,.037.026c-.012-.113-.028-.085-.037-.026" transform="translate(-105.265 -23.077)" fill="#366400"/>
            <path id="Trazado_1294908" data-name="Trazado 1294908" d="M155.5,34.012a1.763,1.763,0,0,0-.371-.2,3.222,3.222,0,0,0,.371.321.435.435,0,0,1,0-.125" transform="translate(-104.5 -22.78)" fill="#366400"/>
            <path id="Trazado_1294909" data-name="Trazado 1294909" d="M144.543,22.884l.15.149L144.6,23l.22.166a3.806,3.806,0,0,1-.475-.9c-.432-.207-.564-.194-.644-.149l.5.456.342.314" transform="translate(-96.8 -14.878)" fill="#366400"/>
            <path id="Trazado_1294910" data-name="Trazado 1294910" d="M148.012,26.234c-.344.036-.9-.315-.827.173.573.537.552.228.971.483-.937-.881.369.16-.16-.626a5.167,5.167,0,0,1,.538.456c-.136-.193-.262-.386-.372-.577l.008.034,0,0,0,0c.014.065.011.094-.018.034a.1.1,0,0,1-.023-.016.276.276,0,0,1-.116.032c-.219-.313.011-.095.116-.032a.2.2,0,0,0,.041-.018v-.006s-.251-.211-.518-.405l-.524-.394a8.283,8.283,0,0,0,.885.855" transform="translate(-99.107 -17.096)" fill="#366400"/>
            <path id="Trazado_1294911" data-name="Trazado 1294911" d="M158.408,45.751a.071.071,0,0,1,.034-.068c-.073-.049-.109-.062-.034.068" transform="translate(-106.679 -30.749)" fill="#366400"/>
            <path id="Trazado_1294912" data-name="Trazado 1294912" d="M158.718,41.689l.031-.066c-.017-.011-.027.015-.031.066" transform="translate(-106.915 -28.036)" fill="#366400"/>
            <path id="Trazado_1294913" data-name="Trazado 1294913" d="M158.442,42.982c.066.26-.116.07-.186.13.16.107.5.424.322-.123l-.08-.055a3.24,3.24,0,0,1-.2-1.1,2.082,2.082,0,0,0-.2.828.617.617,0,0,1,.352.323" transform="translate(-106.492 -28.178)" fill="#366400"/>
            <path id="Trazado_1294914" data-name="Trazado 1294914" d="M152.2,34.245l-.4-.353.164.561.095-.114c.337.494.388.288.525.273l-.119-.116c-.071-.07-.165-.163-.267-.25" transform="translate(-102.26 -22.83)" fill="#366400"/>
            <path id="Trazado_1294915" data-name="Trazado 1294915" d="M142.886,20.888s-.185-.026-.378-.04l-.379-.031.457.2Z" transform="translate(-95.741 -14.023)" fill="#366400"/>
            <path id="Trazado_1294916" data-name="Trazado 1294916" d="M139.834,18.118s-.1-.026-.2-.049l-.2-.046.2.27Z" transform="translate(-93.927 -12.141)" fill="#366400"/>
            <path id="Trazado_1294917" data-name="Trazado 1294917" d="M36.905,14.785l.277.158a1.756,1.756,0,0,1,.685-.389c-.518.045-1.172.02-.963.231" transform="translate(-24.833 -9.804)" fill="#366400"/>
            <path id="Trazado_1294918" data-name="Trazado 1294918" d="M97.377,1.768a4.481,4.481,0,0,0-.974-.3c.465.222.814.513.974.3" transform="translate(-64.939 -0.992)" fill="#366400"/>
            <path id="Trazado_1294919" data-name="Trazado 1294919" d="M9.262,132.83c.141.144.233.187.285.151-.141-.149-.245-.221-.285-.151" transform="translate(-6.239 -89.459)" fill="#366400"/>
            <path id="Trazado_1294920" data-name="Trazado 1294920" d="M94.01,1.1A1.424,1.424,0,0,0,92.85,1c.069.034.137.054.207.083a3.663,3.663,0,0,1,.952.013" transform="translate(-62.545 -0.618)" fill="#366400"/>
            <path id="Trazado_1294921" data-name="Trazado 1294921" d="M173.616,102.457a1.78,1.78,0,0,0,.047-.54c0,.131-.025.341-.047.54" transform="translate(-116.951 -68.653)" fill="#366400"/>
            <path id="Trazado_1294922" data-name="Trazado 1294922" d="M125.312,9.49c.28.114.058-.01,0,0" transform="translate(-84.412 -6.392)" fill="#366400"/>
            <path id="Trazado_1294923" data-name="Trazado 1294923" d="M127.333,14.545a.186.186,0,0,0-.168.069.236.236,0,0,1,.168-.069" transform="translate(-85.661 -9.798)" fill="#366400"/>
            <path id="Trazado_1294924" data-name="Trazado 1294924" d="M125.748,9.95a2.456,2.456,0,0,0-.306-.25,2.866,2.866,0,0,0,.306.25" transform="translate(-84.501 -6.534)" fill="#366400"/>
            <path id="Trazado_1294925" data-name="Trazado 1294925" d="M126.395,10.014l.222.145c.055-.025.039-.067-.222-.145" transform="translate(-85.142 -6.746)" fill="#366400"/>
            <path id="Trazado_1294926" data-name="Trazado 1294926" d="M124.509,9.162,124.12,9a3.035,3.035,0,0,1,.432.228c-.046-.042-.061-.067-.043-.069" transform="translate(-83.609 -6.064)" fill="#366400"/>
            <path id="Trazado_1294927" data-name="Trazado 1294927" d="M56.665,33.8c-.1.255-.279-.049-.442-.021,0,0,.042-.1.1-.244L56.543,33l.219-.547c.06-.15.091-.252.091-.252-.2-.172-.177-.612-.15-1.037s.021-.836-.178-.927l.061.522c-.236-.356-.508-.121-.81.169l-.093.088c.029-.519.047-1.041.047-1.567a27.332,27.332,0,0,0-8.64-19.968.225.225,0,0,0,.053.029l.083-.123c-.246-.224-.482-.324-.384-.143-.217-.2-.441-.391-.665-.584.556.185.805-.676.683-1.393-.089.077-.149.143-.764-.143.107.242.9,1.185.333,1-.731-.455-.484-.511-.723-.884.069.415-.886-.141-1.2.086a27.385,27.385,0,0,0-4.35-2.614c.045-.022.061-.058.021-.122l-.452-.15c-.283-.439.984.016.488-.354a7.594,7.594,0,0,1,1.075.187,3.514,3.514,0,0,1,.57.2,2.981,2.981,0,0,1,.551.363l-.051.432c.043-.11-.4-.505-.681-.524.209.015.447.31.705.564s.536.479.848.372l-.2-.29c-.1-.149-.2-.284-.2-.284.337.074.724.152,1.119.263a2.442,2.442,0,0,1,1.079.582c-.083-.542-.178-.074-.405-.8.116.754-1.792-1.173-1.414-.217a1.443,1.443,0,0,0-.547-.746,3.137,3.137,0,0,1-.728-.756c-.039.128.135.353-.462-.026a.713.713,0,0,1-.19.034l-.038-.03.028.032c-.036,0-.04.006.01.011a.793.793,0,0,1,.226.341,2.1,2.1,0,0,1-.928-.153,5.042,5.042,0,0,0-.9-.222c-.347-.226.216-.069.069-.29l-.3-.007-.3.006c.065-.29-.842-.856.134-.655l-.819-.336A3.185,3.185,0,0,0,36.9,1.5c-.387-.177-1.105.023-.693-.1l-.692-.1-.7-.068,0-.074a12.238,12.238,0,0,0-2.1-.244A6.486,6.486,0,0,1,30.512.467c-.232.02-.468.041-.74.046a5.1,5.1,0,0,1-.965-.043L28.661.212A7.785,7.785,0,0,1,27.513.163c-.405-.031-.77-.044-.89.1A1.236,1.236,0,0,0,25.863.01a4.189,4.189,0,0,0-1.085.076c-.385.07-.781.141-1.143.229a6.1,6.1,0,0,1-.959.174L22.7.821a5.874,5.874,0,0,0-1.048.276c-.177.06-.358.127-.547.2s-.38.166-.584.258l.13.267a3.947,3.947,0,0,1-1.346.4c-.269.049-.553.1-.842.16a5.751,5.751,0,0,0-.849.279c.034-.134.331-.219.555-.235a2.473,2.473,0,0,0-1.105.209,6.076,6.076,0,0,0-.967.59c-.312.211-.6.456-.9.641a2.754,2.754,0,0,1-.954.385,1.173,1.173,0,0,1-.684.39.229.229,0,0,0,.062-.054,1.3,1.3,0,0,0-.117.064,3.947,3.947,0,0,0-.467.1,2.3,2.3,0,0,0,.405-.067,5.362,5.362,0,0,0-.785.634L12.35,5.14c-.023.02-.044.033-.068.055-.375.1-.164.282.13.374a1.769,1.769,0,0,0-.3.433c-.53-.238-.693.684-1.328.509-.019.182-.355.509-.659.858a1.675,1.675,0,0,0-.463.894,1.9,1.9,0,0,0-.836.812l-.4-.168-.135.5-.115.508c-.544.217-.809.29-.657-.315a9.932,9.932,0,0,1-.545,1.073,3.714,3.714,0,0,0-.407.968L6.4,11.435c-.238.319-.351,1.022-.666,1.078a6.616,6.616,0,0,0-1.8,2.16c-.661,1.087-1.337,2.355-1.995,3.32.441-.048.249.155.022.419s-.487.594-.228.743c-.216.058-.429.322-.439-.082a7.384,7.384,0,0,1-.493,1.343,1.581,1.581,0,0,0-.12,1.168c-.211.081-.185-.315-.32-.229.011.1.048.4-.089.494s-.1-.207-.122-.41a2.339,2.339,0,0,0-.089.726,1,1,0,0,0,.156.462,1.333,1.333,0,0,0,.653.446,1.51,1.51,0,0,0-.314.672,1.146,1.146,0,0,0,.175.643c-.2.171-.441.487-.371-.249l-.143.555-.1.4c-.026.143-.05.291-.07.436-.081.582-.1,1.124.111,1.165-.115.118-.075.572-.035.682-.05.459-.082.709-.091.958s-.02.5-.011.949l.075-.25c.486.361.111.747.189,1.474l-.052-.019a3.556,3.556,0,0,0-.088.847,1.21,1.21,0,0,0,.058.347,1.046,1.046,0,0,1,.048.343c0,.17-.023.422-.07.844l.3-.126c.344.037.29.4.2.882a2.722,2.722,0,0,0,.04,1.518l.113-.373c.152.234.012.629-.166,1.048a2.878,2.878,0,0,0-.359,1.131c-.023.128-.145-.154-.225-.3,0,1.472.445.073.82,1.05-.155.249-.617-.078-.443.616-.028.2.306.634.64,1.14a3.132,3.132,0,0,1,.705,1.59c.069-.263.141-.517.456-.131a7.692,7.692,0,0,1,.367,1.329c.136.481.311.944.721,1.1.006.1-.015.157-.05.181.206.209.471.587.77.907a2.424,2.424,0,0,0,.8.665A.775.775,0,0,0,5,45.941a4.327,4.327,0,0,0,.8.874,7.862,7.862,0,0,1,.776.752c.18.218.234.413.044.574,0,0,.291.324.594.636l.619.611-.1.038a3.075,3.075,0,0,0,.932.791,2.237,2.237,0,0,0,.708.226c.147.217-.055.165-.107.19a5.7,5.7,0,0,0,1.214,1.147,5.005,5.005,0,0,0,1.426.54l-.074.344c.2.031.6.477,1.175.954.142.121.293.248.453.371s.336.231.515.339a3.881,3.881,0,0,0,1.139.5.262.262,0,0,1-.224.048,13.477,13.477,0,0,1,2.582,1.376c.822.476,1.59.745,2.08.29,0,0,.3.032.6.037l.6.02c-1.419-.5.355-.431-.181-.787a1.8,1.8,0,0,1,.8.393c.181.151.2.287-.153.223l-.093-.088c-.421.546,1.759.65,1.639,1.033,1.471.282,2.934.509,4.391.663a22.264,22.264,0,0,0,4.324.042l-.187-.217-.185-.222s.061,0,.152-.01l.334-.033.485-.048c.268.078.4.326-.307.4.405.224,1.141-.375,1.136-.492,1.383-.05-.437.643-.023.581l.564-.137-.138-.032c.213-.137.32-.258.477-.361a2.248,2.248,0,0,1,.775-.274c.54-.026.333.226.543.2.007.033.08.033.319-.06,0,0,.077-.013.191-.043l.416-.1.607-.151-.583-.226c.476-.324,1.115-.3.449-.551a4.751,4.751,0,0,0,2.633-.528c.516-.2,1-.457,1.4-.632a3.863,3.863,0,0,1,.83-.348,3.933,3.933,0,0,1,.438-.4,5.336,5.336,0,0,1,.472-.358c.331-.225.7-.418,1.1-.662-.237.059-.573-.229.118-.611.113.441.482.337.916.107a2.886,2.886,0,0,1,1.4-.506c-.358.015.082-.362.471-.729s.7-.753.169-.678c.551-.383.242.224.764.044a8.78,8.78,0,0,1,.857-.937l1.016-.91c.175-.156.36-.308.534-.474l.519-.512a7.928,7.928,0,0,0,.952-1.142c-.072-.094-.415.058-.289-.379l.172-.074c.105-.043.241-.105.373-.171l.539-.262c.179-.363-.321-.661.394-1.045-.136.033-.338.078-.227-.162a15.733,15.733,0,0,0,2.79-5.188c.673-1.881,1.2-3.775,2.034-5.663-.315.5-.272.137-.21-.268M46.1,8.589q-.408-.348-.83-.68a1.348,1.348,0,0,1,.83.68m-.989-.828c0,.005-.009.008-.014.012l-.061-.048.075.036M37.758,2.092a.143.143,0,0,0-.027.007c-.422-.272-.274-.171.027-.007M32.686,1.8a6.144,6.144,0,0,1,.947-.081c1.068.068.375.441.572.4a3.41,3.41,0,0,0,1.116.151,3.335,3.335,0,0,0,.72-.1,1.713,1.713,0,0,1,1.537.3c.508.543-.2.669-.147.955a2.589,2.589,0,0,1-.963-.385,3.141,3.141,0,0,0-.761-.371l.633.352a2.005,2.005,0,0,1-1.121-.211.958.958,0,0,0,.251.166A27.285,27.285,0,0,0,31.58,2.23a2.05,2.05,0,0,1,.346-.194,3.427,3.427,0,0,1,.761-.234m-5.5-.029c-.028.1.071.208.148.282q-.418.015-.833.042a2.061,2.061,0,0,1,.685-.324m-5.7.216c.055,0,.467.032.906.081a4.156,4.156,0,0,1,1.093.24.3.3,0,0,1,.129.13c-.332.057-.664.117-.992.186L22.5,2.145l-.014.513c-.324.07-.647.142-.966.223a1.45,1.45,0,0,1-.033-.893M16.52,3.676l.3.1.38-.306c.191-.154.39-.292.39-.292-.147.306-.407.817-.693,1.344q-.691.317-1.362.669a3.232,3.232,0,0,1,.982-1.514M9.667,8.265a.358.358,0,0,0,.024.125c-.056-.045-.154,0-.024-.125M8.159,10.026a1.194,1.194,0,0,0,.424.4c-.163.169-.328.337-.486.51.008-.163.019-.316.028-.448.02-.275.034-.459.034-.459M1.064,23.367c.1-.122.212.024.34.244-.016-.083-.033-.163-.051-.226.1-.146.184-.188.265-.17-.042.183-.088.364-.127.548L1.4,23.611c.019.089.037.187.057.288-.017.082-.029.166-.046.249a4.234,4.234,0,0,0-.357.395s0-.294-.009-.588.015-.587.015-.587m34.12,33.922-.209-.036c.406-.187.306-.08.209.036" transform="translate(0 0)" fill="#366400"/>
            <path id="Trazado_1294928" data-name="Trazado 1294928" d="M132.523,13.281c.023-.061-.011-.189.094-.151-.056-.027-.146-.07-.243-.109l-.3-.128a1.131,1.131,0,0,1,.453.388" transform="translate(-88.965 -8.685)" fill="#366400"/>
            <path id="Trazado_1294929" data-name="Trazado 1294929" d="M133.841,13.665a.3.3,0,0,1,.027.014l-.027-.014" transform="translate(-90.158 -9.205)" fill="#366400"/>
            <path id="Trazado_1294930" data-name="Trazado 1294930" d="M133.747,13.619l.031.015a.314.314,0,0,0-.031-.015" transform="translate(-90.094 -9.174)" fill="#366400"/>
            <path id="Trazado_1294931" data-name="Trazado 1294931" d="M133.715,17.4c-.105.255.286.374.669.6a.519.519,0,0,1-.064-.045c.319-.231-.139-.407-.605-.552" transform="translate(-90.061 -11.723)" fill="#366400"/>
            <path id="Trazado_1294932" data-name="Trazado 1294932" d="M136.409,19.622c.129-.09-.118-.121-.337-.231a2.208,2.208,0,0,1,.337.231" transform="translate(-91.661 -13.062)" fill="#366400"/>
            <path id="Trazado_1294933" data-name="Trazado 1294933" d="M121.485,8.326c.168.151.26-.254.329-.1.355-.215-1.48-.211-.329.1" transform="translate(-81.575 -5.438)" fill="#366400"/>
            <path id="Trazado_1294934" data-name="Trazado 1294934" d="M132.581,19.488l.05-.356-.348.09Z" transform="translate(-89.108 -12.887)" fill="#366400"/>
            <path id="Trazado_1294935" data-name="Trazado 1294935" d="M124.531,14.326l.574.4c.017-.053.11-.041.218-.014-.374-.2-.763-.476-.791-.382" transform="translate(-83.886 -9.637)" fill="#366400"/>
            <path id="Trazado_1294936" data-name="Trazado 1294936" d="M127.468,15.763a2.877,2.877,0,0,0-.512-.227,1.626,1.626,0,0,0,.512.227" transform="translate(-85.52 -10.465)" fill="#366400"/>
            <path id="Trazado_1294937" data-name="Trazado 1294937" d="M101.032,6.943c.191-.045.475-.039.382-.165l-.761-.041c-.094.1.1.2.379.206" transform="translate(-67.786 -4.538)" fill="#366400"/>
            <path id="Trazado_1294938" data-name="Trazado 1294938" d="M175.352,94.079s.05-.149.086-.3l.077-.3-.234.38Z" transform="translate(-118.072 -62.97)" fill="#366400"/>
            <path id="Trazado_1294939" data-name="Trazado 1294939" d="M174.531,90.581l-.375-.362c.016.134.046.4-.053.5Z" transform="translate(-117.28 -60.773)" fill="#366400"/>
          </g>
        </g>
      </g>
    </g>
    <g id="Grupo_1206609" data-name="Grupo 1206609" transform="matrix(0.985, 0.174, -0.174, 0.985, 209.473, 630.533)">
      <path id="Trazado_1295817" data-name="Trazado 1295817" d="M17.263,21.12l20.246,2.064.578,1.463L37.2,63.792,13.107,61.884l1.67-37.452Z" transform="translate(-9.98 -16.082)" fill="#fff"/>
      <g id="Grupo_1206608" data-name="Grupo 1206608">
        <g id="Grupo_1206607" data-name="Grupo 1206607" clip-path="url(#clip-path-2)">
          <path id="Trazado_1295818" data-name="Trazado 1295818" d="M34.014,8.49a7.317,7.317,0,0,0-.535-1.846,10.445,10.445,0,0,0-3.244-4.407A5.06,5.06,0,0,0,28.589,1.4a30.208,30.208,0,0,0-5.77-.859L12.25.042C10.97.031,9.681-.034,8.4.025A6.123,6.123,0,0,0,3.835,2.058,5.561,5.561,0,0,0,2.512,4.932c-.135.87-.131,1.806-.184,2.686l-.322,5.76L.977,31.532.246,44.692.159,46.326A17.111,17.111,0,0,0,.01,48.844a6.941,6.941,0,0,0,.6,2.52,7.058,7.058,0,0,1,.424.78,8.681,8.681,0,0,1,.1,1.2,6.323,6.323,0,0,0,1.953,3.89,5.429,5.429,0,0,0,1.975,1.094,21.843,21.843,0,0,0,3.5.562,77.646,77.646,0,0,0,15.509.6l1.238-.1a7.229,7.229,0,0,0,5.208-2.5,8.042,8.042,0,0,0,1.607-3.829,52.068,52.068,0,0,0,.438-5.393l.386-7.575.786-20.159.249-7.98.049-2.117a10.069,10.069,0,0,0-.016-1.342m-6.808,5.759-.45,8.527L26.2,33.337l-.56,9.873c-.022.212-.046.629-.211.787l-.03.026a1.063,1.063,0,0,1-.608.137,29.818,29.818,0,0,1-3.43.087l-6.438-.35a66.1,66.1,0,0,1-10.1-1.289c.093-1.044.048-2.108.087-3.157l.3-6.646L6.355,14.994,6.7,9.775l.1-1.533a4.443,4.443,0,0,1,.08-.846.746.746,0,0,1,.435-.454l.023,0a18.243,18.243,0,0,1,2.207-.027l5.418.141,8.013.4a32.593,32.593,0,0,1,3.47.291,1.187,1.187,0,0,1,.547.243c.261.227.246.469.257.785Z" transform="translate(0 0)" fill="#151416"/>
          <path id="Trazado_1295819" data-name="Trazado 1295819" d="M34.594,9.834a3.9,3.9,0,0,0-1.12-2.843,4.535,4.535,0,0,0-2.02-1.007,24.516,24.516,0,0,0-3.9-.58l-5.97-.429c-2.535-.117-5.126-.269-7.661-.165-1.918.054-3.868-.087-5.3,1.439A4.677,4.677,0,0,0,7.4,8.751c-.074.474-.073.97-.1,1.45l-.175,3L6.511,24.352,5.437,43.628l-.278,5.464c-.071,1.176-.229,2.36-.188,3.538a3.92,3.92,0,0,0,1.161,2.881,4.175,4.175,0,0,0,1.685.939,24.166,24.166,0,0,0,4.508.71l5.95.447,7.267.153c1.956-.058,4.553-.031,5.991-1.566a4.29,4.29,0,0,0,1.106-2.359,22.606,22.606,0,0,0,.166-2.307l.2-3.544.734-14.977.65-14.151c.13-2.99.333-6.031.208-9.023m-3.608,8.051-.45,8.527-.552,10.561-.56,9.873c-.022.212-.046.629-.211.787l-.03.026a1.063,1.063,0,0,1-.608.137,29.818,29.818,0,0,1-3.43.087l-6.438-.35A66.1,66.1,0,0,1,8.6,46.244c.093-1.044.048-2.108.087-3.157l.3-6.646L10.135,18.63l.344-5.219.1-1.533a4.443,4.443,0,0,1,.08-.846.746.746,0,0,1,.435-.454l.023,0a18.243,18.243,0,0,1,2.207-.027l5.418.141,8.013.4a32.594,32.594,0,0,1,3.47.291,1.187,1.187,0,0,1,.547.243c.261.227.246.469.257.785Z" transform="translate(-3.78 -3.636)" fill="#dddda4"/>
          <path id="Trazado_1295820" data-name="Trazado 1295820" d="M38.87,25.161a6.744,6.744,0,0,1,1,2.983l-.1,4.677-.141,5.709L38.81,59.466l-.448,8.353a34.857,34.857,0,0,1-.38,4.126,6.943,6.943,0,0,1-1.7,3.731,6.094,6.094,0,0,1-2.5,1.467,12.815,12.815,0,0,1-2.83.363l-3.194.141a96.614,96.614,0,0,1-12.607-.754,15.929,15.929,0,0,1-2.859-.451,4.426,4.426,0,0,1-1.81-1.121A6.132,6.132,0,0,1,9.15,72.311a8.25,8.25,0,0,0,1.891.79,33.766,33.766,0,0,0,5.627.722,102.074,102.074,0,0,0,13.123.523c2.036-.083,4.2-.205,5.665-1.815A5.382,5.382,0,0,0,36.8,69.8c.11-.632.13-1.269.182-1.907l.252-4.588.514-10.168.719-15.079.357-7.755Z" transform="translate(-6.967 -19.159)" fill="#f8e67e"/>
          <path id="Trazado_1295821" data-name="Trazado 1295821" d="M83.759,238.21c.159-.013.3-.058.436.031a.4.4,0,0,1-.093.3,4.7,4.7,0,0,1-1.656.235l-1.865.04a.591.591,0,0,1-.4-.059l0-.182a.511.511,0,0,1,.091-.1c.1-.062,3.121-.234,3.487-.269" transform="translate(-61.055 -181.367)" fill="#151416"/>
          <path id="Trazado_1295822" data-name="Trazado 1295822" d="M109.21,226.962c.1-.013.119.012.207.052a.789.789,0,0,1-.035.282c-.48,1.621-2.519,2.136-3.839,2.855a.336.336,0,0,1-.208-.115c.029-.124.019-.161.135-.238a7.219,7.219,0,0,1,.878-.412,8.869,8.869,0,0,0,1.7-1,4.488,4.488,0,0,0,1.162-1.427" transform="translate(-80.207 -172.817)" fill="#151416"/>
          <path id="Trazado_1295823" data-name="Trazado 1295823" d="M23.421,234.319a.366.366,0,0,1,.1-.017,5.469,5.469,0,0,1,1.106.131l2.763.529,1.119.168a.942.942,0,0,1,.492.124l-.052.11a1.17,1.17,0,0,1-.667.067,21.651,21.651,0,0,1-2.708-.487,17.972,17.972,0,0,1-2.006-.332.382.382,0,0,1-.184-.133Z" transform="translate(-17.808 -178.407)" fill="#151416"/>
          <path id="Trazado_1295824" data-name="Trazado 1295824" d="M55.883,9.993a15.649,15.649,0,0,1,2.08.055l3.576.212a13.2,13.2,0,0,1,1.524.146.855.855,0,0,1,.58.389.835.835,0,0,1,.1.672,1.047,1.047,0,0,1-.6.676,13.205,13.205,0,0,1-2.017-.052l-3.361-.2L56.6,11.8a3.122,3.122,0,0,1-.745-.1.992.992,0,0,1-.541-.491.9.9,0,0,1,.568-1.214" transform="translate(-42.068 -7.592)" fill="#151416"/>
          <path id="Trazado_1295825" data-name="Trazado 1295825" d="M58.7,12.824a.272.272,0,0,1,.084-.03,6.4,6.4,0,0,1,1.207.07l4.318.258c.3.026.609.014.905.052a.663.663,0,0,1,.327.111c.04.155.073.182-.006.328-.522.083-6.769-.392-6.859-.461s-.063-.1-.078-.2Z" transform="translate(-44.623 -9.729)" fill="#f9faf9"/>
          <path id="Trazado_1295826" data-name="Trazado 1295826" d="M50.57,195.264a3.924,3.924,0,0,1,2.36.474,2.266,2.266,0,0,1,.922,1.349,2.847,2.847,0,0,1-.446,2.136A3,3,0,0,1,51.3,200.49a3.137,3.137,0,0,1-2.291-.39,2.458,2.458,0,0,1-.961-1.562,2.706,2.706,0,0,1,.554-2.078,2.814,2.814,0,0,1,1.968-1.2" transform="translate(-36.563 -148.668)" fill="#151416"/>
          <path id="Trazado_1295827" data-name="Trazado 1295827" d="M53.421,198.146a3.125,3.125,0,0,1,1.97.456,1.452,1.452,0,0,1,.529.961,2.268,2.268,0,0,1-.4,1.545,2.127,2.127,0,0,1-1.558.768,2.824,2.824,0,0,1-2.063-.37,1.466,1.466,0,0,1-.594-.986,2.309,2.309,0,0,1,2.111-2.373" transform="translate(-39.061 -150.87)" fill="#486417"/>
          <path id="Trazado_1295828" data-name="Trazado 1295828" d="M63.979,199.276l.06-.006a1.6,1.6,0,0,1,.959.421,1.541,1.541,0,0,1,.36,1.132,1.713,1.713,0,0,1-.522,1.2l-.107.041a.329.329,0,0,1-.275-.163c.016-.267.268-.42.35-.666a1.412,1.412,0,0,0-.09-1.049c-.163-.325-.335-.331-.632-.464-.128-.057-.147-.2-.191-.316Z" transform="translate(-48.651 -151.734)" fill="#f9faf9"/>
          <path id="Trazado_1295829" data-name="Trazado 1295829" d="M40.61,27a1.042,1.042,0,0,0-.469-.767c-.6-.455-3.488-.492-4.391-.551l-9.6-.466L19.9,25.121a1.5,1.5,0,0,0-1.024.718,1.748,1.748,0,0,0-.257.78l-.38,5.663-.681,10.957-.859,14.9-.1,2.949a5.215,5.215,0,0,0,.012,1.2.417.417,0,0,0,.2.268,2.171,2.171,0,0,0,.59.2c.5.135,1.01.231,1.522.321a85.238,85.238,0,0,0,9.634,1.057l5.985.242,1.86-.03a5.2,5.2,0,0,0,.856-.068c.506-.051,1.157-.063,1.505-.489a2.469,2.469,0,0,0,.459-1.3c.063-.654.038-1.332.045-1.989l.083-2.847.56-11.875L40.5,35.338l.194-4.418A26.657,26.657,0,0,0,40.61,27m-.791,6.379L39.37,41.9l-.552,10.561-.56,9.873c-.022.212-.046.629-.211.787l-.03.026a1.063,1.063,0,0,1-.608.137,29.816,29.816,0,0,1-3.43.087l-6.438-.35a66.1,66.1,0,0,1-10.1-1.289c.093-1.044.048-2.108.087-3.157l.3-6.646,1.141-17.811.344-5.219.1-1.533a4.443,4.443,0,0,1,.08-.846.746.746,0,0,1,.435-.454l.023,0a18.243,18.243,0,0,1,2.207-.027l5.418.141,8.013.4a32.594,32.594,0,0,1,3.47.291,1.187,1.187,0,0,1,.547.243c.261.227.246.469.257.785Z" transform="translate(-12.613 -19.128)" fill="#151416"/>
        </g>
      </g>
    </g>
  </g>
</svg>
