<svg xmlns="http://www.w3.org/2000/svg" xmlns:xlink="http://www.w3.org/1999/xlink" width="186.822" height="124.685" viewBox="0 0 186.822 124.685">
  <defs>
    <clipPath id="clip-path">
      <rect id="Rectángulo_457680" data-name="Rectángulo 457680" width="186.822" height="124.685" fill="none"/>
    </clipPath>
  </defs>
  <g id="Grupo_1207589" data-name="Grupo 1207589" transform="translate(-856.412 -3631.626)">
    <g id="Grupo_1207416" data-name="Grupo 1207416" transform="translate(856.412 3631.626)">
      <g id="Grupo_1207415" data-name="Grupo 1207415" clip-path="url(#clip-path)">
        <path id="Trazado_1356158" data-name="Trazado 1356158" d="M155.19,114.634s-5.531-3.537-21.97-.4-28.779,4.333-28.779,4.333l-4.028,9.409s18.662-2.609,26.077-3,21.587-3.527,23.979-3.784,4.722-6.553,4.722-6.553" transform="translate(-15.28 -17.186)" fill="#b5d8e3" fill-rule="evenodd"/>
        <path id="Trazado_1356159" data-name="Trazado 1356159" d="M75.4,13.149C71.261,30.3,67.592,47.264,64.874,64.374c-1.081,1.23-2.549,1.087-3.893,1.189-5.226.4-10.192,2-15.256,3.158a70.2,70.2,0,0,1-9.912,1.94c-5.924.473-11.43,2.278-16.892,4.386-1.137.439-2.264.9-3.289,1.313-1.145-.656-.521-1.451-.412-2.111.746-4.535,1.666-9.047,2.281-13.6a78.357,78.357,0,0,1,2.774-12.572c2.075-6.758,3.947-13.582,5.713-20.428A79.812,79.812,0,0,0,27.24,19.3c1.43-.464,2.85-1.028,4.321-1.379a68.485,68.485,0,0,1,8.1-1.682c8.545-.972,16.844-3.62,25.487-3.82,2.889-.067,5.782.4,8.681-.076.348-.056.775.38,1.578.81M50.4,54.111a18.6,18.6,0,0,0-.824,2.794c-.448,3.061,1.37,4.678,4.321,3.927a5.967,5.967,0,0,0,1.274-.47,3.106,3.106,0,0,0,1.1-4.953c-1.49-1.9-3.321-2.521-5.87-1.3m-14.439-10.8a3.2,3.2,0,0,0-.352.845,1.083,1.083,0,0,0,.248.815,2.105,2.105,0,0,0,2.837.639,1.262,1.262,0,0,0,.458-1.128c-.557-1.03-1.5-1.458-3.19-1.171M42.275,33.2c-.457.411-.748.669-1.037.928a3.777,3.777,0,0,0,.912.718c.147.058.659-.314.646-.458a4.365,4.365,0,0,0-.521-1.189m21.062,1.6a8.508,8.508,0,0,0,.752-.721c-.309-.425-.671-.811-1.021-1.206-.248.265-.757.669-.7.772a6.359,6.359,0,0,0,.971,1.155M42.411,49.085c.439-.312.67-.476.9-.64a16.026,16.026,0,0,0-1.02-1.284,2,2,0,0,0-.648.446,13.877,13.877,0,0,0,.765,1.479m9.1-19.605-.566-.419c-.055.124-.187.318-.151.357a3.494,3.494,0,0,0,.53.414c.062-.116.124-.234.187-.352m4.338-.192-.384-.086q.024.259.051.519a1.118,1.118,0,0,0,.354-.146c.043-.036-.011-.187-.02-.287" transform="translate(-2.275 -1.877)" fill="#f0f8e5" fill-rule="evenodd"/>
        <path id="Trazado_1356160" data-name="Trazado 1356160" d="M155.665,101.63c-4.339.17-7.975.17-11.582.482q-12.187,1.056-24.347,2.387a42.6,42.6,0,0,0-6.756,1.362,39.319,39.319,0,0,1-6.616.932,24.214,24.214,0,0,1,.29-3.029c1.671-7.028,3.385-14.044,5.086-21.065.074-.3.16-.594.243-.89,2.487-9.043,4.737-18.132,5.485-27.524a17.514,17.514,0,0,1,.337-1.82,67.805,67.805,0,0,1,8.561-2.033c6.933-1.346,13.973-2,20.88-3.541A88.681,88.681,0,0,1,159.136,45.5c2.591-.214,5.206-.147,7.81-.173a12.2,12.2,0,0,1,1.653.189c.132.494.321.8.264,1.048-1,4.342-1.838,8.736-3.106,13-4.119,13.854-6.8,28.059-10.092,42.061m-28.4-8.858a21.8,21.8,0,0,0-1.24-1.891,1.372,1.372,0,0,0-2.009-.269,1.516,1.516,0,0,0-.42,1.189,1.447,1.447,0,0,0,1.579,1.318,10.927,10.927,0,0,0,2.2-.5c.462.9.925,1.8,1.417,2.756l4.893-.909c.485-1.576-.109-2.778-1.225-2.678-1.724.153-3.654-.315-5.2.979m5.41-14.535a4.163,4.163,0,0,0,1.18-.494,7.075,7.075,0,0,0,1.553-1.651c1.34-2.222,2.528-4.538,3.9-6.739a6.783,6.783,0,0,0,.681-5.3c-1.041-4.7-4.384-5.853-8.249-3.88-2.4,1.223-3.855,3.846-3.245,6.012,1.073,3.816,2.314,7.585,3.513,11.365.078.247.394.418.666.69m17.689-15.546c.1,3.627.411,4.6,1.453,4.923a3.516,3.516,0,0,0,3.791-.82,3.175,3.175,0,0,0,.694-3.771,1.971,1.971,0,0,0-1.349-.979,9.073,9.073,0,0,0-2.426.5,22.032,22.032,0,0,1,1.228,2.056c.081.176-.12.61-.315.749a.847.847,0,0,1-.8.036c-.588-.6-1.1-1.274-2.274-2.7M133.2,79.632c-1.3.764-2.21,1.032-2.679,1.641a2.437,2.437,0,0,0-.005,2.984,2.745,2.745,0,0,0,1.9.826,1.346,1.346,0,0,0,1.352-1.507c-.047-1.031-.284-2.054-.571-3.944m16.656,6.182a5.52,5.52,0,0,0,3.3.443c.692-.017,1.2-.425,1.054-1.126a1.534,1.534,0,0,0-.915-.89c-1.49-.512-2.51.089-3.435,1.573m-4.646-.282c-.47,2.393-.745,3.793-1.013,5.151,1.288.6,2.1.171,2.221-.89.131-1.149-.134-2.342-1.208-4.261m8.85-7.379c-.66-.671-1.056-1.369-1.64-1.6-.746-.294-1.569.878-1.379,1.875.158.813.681,1.566,1.49,1.385.535-.12.909-.95,1.529-1.66m-2.8,2.956c-.572-.39-.881-.78-1.186-.774a1.487,1.487,0,0,0-1.217,1.885c.081.187.572.41.682.335a21.767,21.767,0,0,0,1.721-1.446m-10.134,10.85c-.254-.157-.581-.526-.928-.545a1.161,1.161,0,0,0-1.358,1.35c.028.281.577.7.915.727.871.075,1.388-.4,1.371-1.532M151.29,73.445c1.83-1.429,1.786-1.835-.3-2.789.105.974.194,1.8.3,2.789m-9.212,12.283c.3-.577.467-.908.637-1.238a4.748,4.748,0,0,0-1.074-.432c-.106-.018-.452.47-.4.614a4.976,4.976,0,0,0,.834,1.056m-20.817,1.3.632-.37c-.133-.214-.237-.566-.4-.6-.19-.039-.437.209-.66.331l.432.638M147.7,85.75l-.346-.264a4.639,4.639,0,0,0-.225.773c-.008.067.216.165.334.25.08-.254.159-.506.237-.76" transform="translate(-16.186 -6.898)" fill="#f0f8e5" fill-rule="evenodd"/>
        <path id="Trazado_1356161" data-name="Trazado 1356161" d="M98.623,101.634c-2-1.006-2.8-2.736-3.837-4.18C90.923,92.1,87.816,86.269,84.247,80.731c-2.573-4-5.384-7.838-7.968-11.575,1.493-14.19,7.56-44.63,9.98-50.214a1.2,1.2,0,0,1,.43-.081.677.677,0,0,1,.383.243Q94.687,29.5,102.3,39.9c.908,1.234,1.97,2.354,2.933,3.548,1.724,2.142,3.429,4.3,5.148,6.46-.259,1.5-.521,2.853-.719,4.214a14.48,14.48,0,0,0-.433,4.1c.414,2.711-.379,5.155-1.053,7.675-2.693,10.087-5.337,20.189-8.01,30.282-.466,1.758-.989,3.5-1.543,5.454m-2.7-24.466a3.325,3.325,0,0,0,2.491-4.849,2.881,2.881,0,0,0-3.142-1.354c-1.813.352-3.21,1.466-3.357,2.709a2.109,2.109,0,0,0,.071.9,4.092,4.092,0,0,0,3.936,2.6M87.76,64.234c1.21.055,1.6-.731,1.371-1.435-.761-2.293-1.679-4.536-2.619-6.762-.175-.415-.745-.662-1.486-1.284a19.906,19.906,0,0,0,2.734,9.481M82.239,47.175c-.11-.1-.258-.313-.325-.289a3.823,3.823,0,0,0-.668.372,3.865,3.865,0,0,0,.722.256c.07.011.18-.22.27-.339" transform="translate(-11.608 -2.869)" fill="#f0f8e5" fill-rule="evenodd"/>
        <path id="Trazado_1356162" data-name="Trazado 1356162" d="M192.292,118.686a7.934,7.934,0,0,1-2.048-.416c-5.614-3.7-12.271-5.627-17.3-10.353a44.623,44.623,0,0,0-5.74-3.948c3.836-19.139,8.712-37.985,13.775-57.168.922.642,1.63,1.1,2.307,1.607,3.58,2.641,7.22,5.207,10.7,7.969,2.276,1.805,4.315,3.91,6.479,5.858a3.889,3.889,0,0,1,1.3,3.3,6.786,6.786,0,0,1-.029.922c-1.385,6.919-1.34,14.107-3.663,20.836a52.715,52.715,0,0,0-2.393,13.57c-.43,6.014-2.464,11.621-3.389,17.823m-7.17-39.317a30.8,30.8,0,0,0,3.177-2.409c.277-.264.065-1.117-.048-1.675-.042-.207-.5-.526-.669-.475-.529.153-1.334.355-1.46.729a33.916,33.916,0,0,0-.875,3.936,6.586,6.586,0,0,0-.765.19c-.105.04-.174.185-.257.281.23.048.56.214.668.12.159-.135.161-.457.229-.7m11.811-6.939c-.955-2.476-.952-2.476-.415-5.545a2.174,2.174,0,0,0,.081-.906c-.163-.558-.292-1.359-.692-1.568-.935-.486-1.262.429-1.637,1.076-.292.505-.6,1-.854,1.43l-2.811-.341c1.167,1.956,1.627,3.521.839,5.234a4.435,4.435,0,0,0-.229,1.791c0,.264.2.692.407.755a1.656,1.656,0,0,0,1.259.008c.592-.451.933-1.314,1.564-1.609a8.12,8.12,0,0,1,2.486-.327M175.517,85.207c.328-.5.731-.828.727-1.155a.911.911,0,0,0-1.21-.94c-.26.077-.532.736-.477,1.08.052.322.524.579.961,1.015m4.92-2.331c-.13-.224-.215-.573-.4-.639-.2-.073-.5.121-.75.2l.5.908c.22-.155.438-.31.657-.468" transform="translate(-25.444 -7.122)" fill="#f0f8e5" fill-rule="evenodd"/>
        <path id="Trazado_1356163" data-name="Trazado 1356163" d="M11.021,78.149c2.538.176,4.118-.911,5.764-1.589a66.471,66.471,0,0,1,18.121-5.091c3.308-.363,6.513-1.646,9.772-2.493,1.475-.383,2.961-.734,4.448-1.073a13.4,13.4,0,0,0,2.689-.566c3.178-1.494,6.582-1.178,9.887-1.675.992,1.323.635,2.473.231,3.735-1.383,1.294-3.227,1.429-5.052,1.643C45.333,72.4,34.448,76.027,23.823,80.6c-4.7,2.021-14.376,6.185-19.324,6.8a10.039,10.039,0,0,1-.2-2.082c.259-2.444.566-4.885.935-7.316C6.27,71.17,7.214,64.316,8.456,57.517a98.566,98.566,0,0,1,3.307-13.88,204.288,204.288,0,0,0,7.573-30.382c.076-.442.222-.871.4-1.559a19.769,19.769,0,0,1,2.562-.42c7.273-.265,14.3-1.983,21.33-3.641C52.155,5.624,60.621,3.328,69.41,2.7c.92-.065,1.836-.214,2.755-.246a2.2,2.2,0,0,1,2.592,2.44A12.552,12.552,0,0,1,74.6,6.262c-.12.9-.248,1.791-.415,3.006-2.711-.231-5.248-.482-7.792-.643a19.785,19.785,0,0,0-3.214.112c-3.674.366-7.387.54-11,1.225-5.123.971-10.254,1.857-15.392,2.728-2.7.457-5.372,1.191-8.1,1.642a23.62,23.62,0,0,0-4.613,1.757c-1.739,10.793-5.137,20.98-8.2,31.263a96.726,96.726,0,0,0-2.262,10.811c-.721,4.085-1.327,8.191-1.881,12.3-.324,2.4-.449,4.825-.7,7.685" transform="translate(-0.651 -0.372)" fill="#b5d8e3" fill-rule="evenodd"/>
        <path id="Trazado_1356164" data-name="Trazado 1356164" d="M191.384,120.566a27.089,27.089,0,0,0,3.59-8.063c1.678-5.953,2.021-12.057,2.855-18.11a45.481,45.481,0,0,1,1.48-6.248,68.293,68.293,0,0,0,2.875-13c.334-3.964,1.111-7.892,1.68-11.837a4.577,4.577,0,0,0-.045-.9c-1.237-2.774-3.734-4.434-5.862-6.354-3.525-3.179-7.045-6.408-11.278-8.7a13.42,13.42,0,0,1-5-4.777c.272-1.183.544-2.363.811-3.514.428.006.785-.1.977.031,3.529,2.442,7.125,4.8,10.524,7.414,2.551,1.961,4.784,4.331,7.27,6.383a39.524,39.524,0,0,0,5.273,3.683,4.249,4.249,0,0,1,2.314,4.616c-1.1,6.97-.8,14.121-2.728,20.983a26.524,26.524,0,0,0-.968,4.029c-.873,7.519-3.144,14.7-5.363,21.876a50.359,50.359,0,0,0-2.06,10.288c-.127,1.344-.83,2.625-1.05,3.971a37.494,37.494,0,0,0-.183,4.329c-1.663-.627-2.966-.99-4.153-1.586-9.446-4.742-18.87-9.53-28.388-14.346.51-1.594.96-3.052,1.46-4.493.084-.242.393-.407.737-.744a15.857,15.857,0,0,1,5.677,3.641,25.7,25.7,0,0,0,8.452,5.417c2.117.809,3.953,2.333,5.964,3.451,1.586.881,3.248,1.63,5.14,2.567" transform="translate(-24.949 -5.938)" fill="#b5d8e3" fill-rule="evenodd"/>
        <path id="Trazado_1356165" data-name="Trazado 1356165" d="M112.661,44.524a27,27,0,0,1-3.03-2.735q-6.581-8.27-13.034-16.645c-2.142-2.794-4.091-5.736-6.181-8.569a6.625,6.625,0,0,1-1.261-6.028c.425-1.588.024-3.371,1.06-5,2.682,1.28,4.17,3.588,5.463,6.023.934,1.757,1.524,3.7,2.545,5.4q5.215,8.658,10.666,17.171a19.227,19.227,0,0,0,3.148,3.331c2.068,1.954,2.416,4.083.624,7.048" transform="translate(-13.528 -0.845)" fill="#b5d8e3" fill-rule="evenodd"/>
        <path id="Trazado_1356166" data-name="Trazado 1356166" d="M121.445,47.013a9.071,9.071,0,0,1,1.067-2.825,4.807,4.807,0,0,1,2.439-1.111,15.358,15.358,0,0,1,2.744-.318A126.685,126.685,0,0,0,151.647,38.1c5.328-1.458,10.825-2.29,16.25-3.379a8.227,8.227,0,0,1,1.837-.125c1.1.027,2.309.159,2.847,1.182a10.233,10.233,0,0,1,.642,2.8c-3.705,2.724-7.5,2.709-11.589,2.633-4.555-.086-9.134.968-13.7,1.56-.6.078-1.165.425-1.765.527q-12.012,2.031-24.032,4.014c-.124.021-.276-.114-.693-.3" transform="translate(-18.481 -5.264)" fill="#b5d8e3" fill-rule="evenodd"/>
        <path id="Trazado_1356167" data-name="Trazado 1356167" d="M95.513,120.95c-.968-1.077-1.633-1.706-2.16-2.432-.539-.742-.843-1.664-1.424-2.363-3.948-4.75-6.61-10.268-9.558-15.631a57,57,0,0,0-5.433-8,10.921,10.921,0,0,1-2.208-8.208,5.243,5.243,0,0,1,.7-1.425,9.291,9.291,0,0,1,1.346,1.278c4.152,6.089,8.825,11.82,12.239,18.416a79.706,79.706,0,0,0,4.824,7.272c.6.9,1.085,1.866,1.728,2.726a5.819,5.819,0,0,1,.817,6.071c-.23.565-.434,1.14-.872,2.293" transform="translate(-11.362 -12.614)" fill="#b5d8e3" fill-rule="evenodd"/>
        <path id="Trazado_1356168" data-name="Trazado 1356168" d="M61.327,65.353a8.787,8.787,0,0,1-1.869.9c-.284.065-.809-.363-1.031-.7a1.491,1.491,0,0,1,.286-2.011c.673-.649,1.4-.175,2.614,1.808" transform="translate(-8.85 -9.628)" fill="#dab930" fill-rule="evenodd"/>
        <path id="Trazado_1356169" data-name="Trazado 1356169" d="M138.584,76.159c-.844-2.176-1.386-3.572-2.027-5.221a20.683,20.683,0,0,0,3.149-.7,2.192,2.192,0,0,0,1.385-2.6,9.25,9.25,0,0,1-1.045-2.875c.487.468,1.224.853,1.417,1.42.7,2.064.943,4.154-.439,6.118-.688.977-1.283,2.018-2.438,3.856" transform="translate(-20.78 -9.856)" fill="#dc4d5b" fill-rule="evenodd"/>
        <path id="Trazado_1356170" data-name="Trazado 1356170" d="M140.168,68.823a9.151,9.151,0,0,1-1.766.576.848.848,0,0,1,.583-1.559c.292,0,.575.451,1.183.983" transform="translate(-21.001 -10.323)" fill="#f0f8e5" fill-rule="evenodd"/>
        <path id="Trazado_1356171" data-name="Trazado 1356171" d="M160.248,64.135c-3.255,0-3.255,5.047,0,5.047s3.255-5.047,0-5.047" transform="translate(-24.014 -9.76)" fill="#dab930" fill-rule="evenodd"/>
        <path id="Trazado_1356172" data-name="Trazado 1356172" d="M125.878,105.252c1.267-1.361,1.266-1.37,5.257-1.85,1.824-.22,3.656-.4,5.114-.554,1.518-1.523,1.63-3.012,1.8-4.656a14.781,14.781,0,0,0-7.675-1.344c-9.625,1.1-19.267,2.074-28.872,3.334-4.081.535-8.082,1.663-12.385,2.577a16.566,16.566,0,0,0-1.9,6.652c.465.082.789.245,1.05.174a102.907,102.907,0,0,1,27.355-3.163c2.093,0,4.187-.142,6.769-.237-2.473,1.842-4.761,2.668-7.266,2.394-4.336-.473-8.6.127-12.867.635-4.562.543-9.18.594-13.65,2.04-1.637.529-3.621-.01-5.349-.059a12.465,12.465,0,0,1-1.444-1.436c-4.68-6.626-9.961-12.848-13.206-20.43-.951-2.222-2.615-4.142-3.958-6.2-1.92-2.934-3.845-5.864-5.936-9.055-3-.564-6.18.07-9.279.812A148.167,148.167,0,0,0,22.4,83.918a101.819,101.819,0,0,1-17.3,6.3,17.3,17.3,0,0,1-1.79.427C1,90.969-.176,89.894.021,87.474c.211-2.6.5-5.2.889-7.778,1.253-8.2,2.485-16.408,3.893-24.582a85.879,85.879,0,0,1,3.805-14.23c2.011-5.639,3.7-11.395,5.416-17.135.966-3.234,1.757-6.521,2.5-9.813a44.92,44.92,0,0,0,.565-4.766,9.272,9.272,0,0,1,1.955-.191c4.354.418,8.588-.375,12.785-1.31,8.7-1.937,17.325-4.193,26.062-5.9C63,.769,68.264.572,73.589,0c1.835,1.238,3.784,2.466,5.637,3.828a21.489,21.489,0,0,1,6.475,8.26,101.049,101.049,0,0,0,9,15c.628.871,1.191,1.79,1.8,2.674a34.743,34.743,0,0,0,2.393,3.368,31.871,31.871,0,0,0,2.762,2.564c5.206-.76,10.069-1.362,14.892-2.2A90.4,90.4,0,0,0,128.7,30.839c6.486-2.087,13.246-2.719,19.826-4.251a9.526,9.526,0,0,1,8.242,1.878c2.079,1.562,4.42,2.772,6.613,4.186a87.331,87.331,0,0,1,11.564,9.138c2.606,2.383,5.193,4.814,8.38,6.452a6.24,6.24,0,0,1,3.476,6.471c-.1,1.683-.5,3.357-.51,5.035a74.055,74.055,0,0,1-3.655,21.731,2.093,2.093,0,0,0-.115.446c-.528,7.277-3.2,14.055-4.891,21.061a24.447,24.447,0,0,1-1.18,3.486c-2.139,5.213-3.18,10.563-2.181,16.2a2.157,2.157,0,0,1-.119,1.335,1.593,1.593,0,0,1-1.067.67,2.1,2.1,0,0,1-1.256-.347,341.967,341.967,0,0,0-30.781-16.687,12.539,12.539,0,0,1-2.812-1.561c-1.978-1.741-4.212-1.587-6.531-1.2-1.905.319-3.785,1.173-5.825.37M73.129,11.272c-.8-.43-1.23-.866-1.578-.809-2.9.471-5.792.008-8.681.075-8.644.2-16.942,2.849-25.487,3.82a68.3,68.3,0,0,0-8.1,1.683c-1.47.351-2.889.915-4.32,1.379a80.037,80.037,0,0,1-1.253,8.353C21.947,32.618,20.074,39.443,18,46.2a78.44,78.44,0,0,0-2.775,12.573c-.614,4.551-1.534,9.063-2.28,13.6-.109.659-.733,1.454.412,2.111,1.025-.41,2.152-.875,3.289-1.314,5.461-2.108,10.967-3.913,16.892-4.386a70.2,70.2,0,0,0,9.911-1.939c5.065-1.157,10.03-2.762,15.256-3.158,1.344-.1,2.813.041,3.893-1.189,2.718-17.11,6.388-34.074,10.532-51.226m66.349,83.461c3.289-14,5.975-28.207,10.093-42.062,1.268-4.265,2.1-8.661,3.106-13,.059-.248-.131-.554-.263-1.048a12.2,12.2,0,0,0-1.654-.19c-2.6.027-5.219-.04-7.809.174a88.4,88.4,0,0,0-11.89,1.388c-6.906,1.537-13.948,2.2-20.88,3.541a67.607,67.607,0,0,0-8.56,2.032,17.58,17.58,0,0,0-.337,1.821c-.749,9.391-3,18.48-5.485,27.524-.082.3-.17.591-.243.89-1.7,7.02-3.415,14.037-5.086,21.064a24.248,24.248,0,0,0-.29,3.03,39.206,39.206,0,0,0,6.616-.933,42.717,42.717,0,0,1,6.756-1.362q12.162-1.312,24.348-2.387c3.608-.312,7.243-.311,11.581-.482M87.015,98.766c.553-1.951,1.077-3.7,1.542-5.455,2.674-10.093,5.318-20.194,8.01-30.281.675-2.521,1.468-4.963,1.054-7.675a14.472,14.472,0,0,1,.432-4.1c.2-1.361.46-2.711.72-4.214-1.719-2.159-3.424-4.318-5.148-6.46-.963-1.195-2.025-2.315-2.933-3.549q-7.641-10.38-15.228-20.8a.681.681,0,0,0-.383-.244,1.2,1.2,0,0,0-.43.082c-2.42,5.584-8.487,36.024-9.981,50.213,2.584,3.738,5.4,7.58,7.969,11.575,3.569,5.539,6.676,11.373,10.538,16.724,1.041,1.443,1.834,3.173,3.837,4.18m79.834,12.8c.925-6.2,2.958-11.809,3.389-17.824a52.738,52.738,0,0,1,2.392-13.569c2.324-6.73,2.279-13.918,3.664-20.837a6.92,6.92,0,0,0,.029-.922,3.889,3.889,0,0,0-1.3-3.3c-2.165-1.948-4.2-4.053-6.479-5.858-3.484-2.761-7.123-5.328-10.7-7.968-.678-.5-1.385-.966-2.308-1.607-5.062,19.183-9.938,38.029-13.775,57.168A44.553,44.553,0,0,1,147.5,100.8c5.031,4.726,11.689,6.651,17.3,10.352a7.959,7.959,0,0,0,2.048.417M10.37,77.777c.253-2.86.38-5.284.7-7.684.554-4.112,1.16-8.218,1.881-12.3A96.723,96.723,0,0,1,15.216,46.98c3.063-10.282,6.46-20.47,8.2-31.263a23.627,23.627,0,0,1,4.614-1.757c2.73-.451,5.4-1.185,8.1-1.642,5.139-.872,10.27-1.758,15.393-2.728,3.615-.685,7.329-.859,11-1.225a19.884,19.884,0,0,1,3.214-.112c2.543.161,5.08.414,7.792.643.168-1.216.294-2.111.415-3.006a12.345,12.345,0,0,0,.157-1.373,2.2,2.2,0,0,0-2.591-2.44c-.92.032-1.836.181-2.755.247C59.969,2.956,51.5,5.251,42.978,7.262,35.95,8.921,28.921,10.639,21.647,10.9a19.612,19.612,0,0,0-2.561.419c-.179.688-.325,1.117-.4,1.559a204.286,204.286,0,0,1-7.572,30.382A98.715,98.715,0,0,0,7.8,57.144c-1.241,6.8-2.185,13.654-3.224,20.49q-.552,3.646-.934,7.316a10.037,10.037,0,0,0,.2,2.082c4.949-.616,14.627-4.78,19.324-6.8C33.8,75.656,44.68,72.024,56.23,70.666c1.826-.215,3.669-.349,5.052-1.643.4-1.261.761-2.412-.231-3.735-3.307.5-6.71.181-9.887,1.675a13.455,13.455,0,0,1-2.689.567c-1.488.338-2.972.689-4.448,1.073-3.259.848-6.464,2.131-9.773,2.493a66.445,66.445,0,0,0-18.121,5.092c-1.646.677-3.226,1.764-5.764,1.588m156.064,36.852c-1.893-.938-3.555-1.686-5.141-2.567-2.012-1.118-3.847-2.643-5.964-3.451a25.713,25.713,0,0,1-8.453-5.417,15.847,15.847,0,0,0-5.676-3.641c-.344.337-.653.5-.737.744-.5,1.44-.95,2.9-1.46,4.493,9.518,4.816,18.941,9.6,28.388,14.346,1.187.6,2.49.959,4.153,1.585a37.3,37.3,0,0,1,.183-4.328c.22-1.346.923-2.627,1.05-3.971a50.348,50.348,0,0,1,2.06-10.288c2.219-7.173,4.489-14.358,5.363-21.876a26.423,26.423,0,0,1,.968-4.029c1.931-6.861,1.625-14.013,2.727-20.983a4.248,4.248,0,0,0-2.313-4.616,39.415,39.415,0,0,1-5.273-3.683c-2.486-2.053-4.719-4.422-7.27-6.383-3.4-2.614-7-4.972-10.524-7.414-.192-.131-.549-.025-.977-.031-.266,1.151-.538,2.332-.811,3.514a13.422,13.422,0,0,0,5,4.777c4.232,2.293,7.752,5.522,11.278,8.7,2.127,1.919,4.625,3.58,5.863,6.354a4.64,4.64,0,0,1,.043.9c-.568,3.946-1.345,7.873-1.68,11.837a68.229,68.229,0,0,1-2.876,13,45.729,45.729,0,0,0-1.48,6.248c-.833,6.053-1.177,12.157-2.855,18.11a27.11,27.11,0,0,1-3.59,8.063m-67.3-70.949c1.792-2.965,1.444-5.094-.624-7.048A19.227,19.227,0,0,1,95.361,33.3Q89.908,24.792,84.7,16.13c-1.022-1.7-1.611-3.645-2.545-5.4-1.294-2.435-2.783-4.743-5.463-6.022-1.036,1.625-.635,3.409-1.06,5a6.624,6.624,0,0,0,1.261,6.027c2.09,2.833,4.039,5.775,6.181,8.569Q89.5,32.688,96.1,40.944a27,27,0,0,0,3.03,2.735m3.83-1.931c.418.187.569.322.694.3q12.02-1.989,24.032-4.014c.6-.1,1.164-.449,1.765-.527,4.564-.592,9.144-1.646,13.7-1.56,4.087.075,7.884.091,11.589-2.633a10.264,10.264,0,0,0-.642-2.8c-.539-1.022-1.75-1.155-2.848-1.182a8.234,8.234,0,0,0-1.837.125c-5.425,1.089-10.922,1.921-16.249,3.379a126.694,126.694,0,0,1-23.952,4.655,15.29,15.29,0,0,0-2.744.318,4.814,4.814,0,0,0-2.439,1.111,9.092,9.092,0,0,0-1.067,2.825M84.151,108.336c.437-1.153.642-1.729.872-2.293a5.819,5.819,0,0,0-.817-6.071c-.643-.86-1.133-1.83-1.728-2.726a79.706,79.706,0,0,1-4.824-7.272c-3.414-6.6-8.087-12.327-12.239-18.416a9.291,9.291,0,0,0-1.346-1.278,5.243,5.243,0,0,0-.7,1.425,10.921,10.921,0,0,0,2.208,8.208,57,57,0,0,1,5.433,8c2.948,5.363,5.61,10.881,9.558,15.631.581.7.884,1.621,1.424,2.363.527.726,1.192,1.355,2.16,2.432" transform="translate(0)" fill="#092a36" fill-rule="evenodd"/>
        <path id="Trazado_1356173" data-name="Trazado 1356173" d="M56.6,61.5c2.549-1.223,4.38-.6,5.87,1.3a3.107,3.107,0,0,1-1.1,4.953,5.966,5.966,0,0,1-1.274.47c-2.95.751-4.768-.866-4.321-3.927A18.572,18.572,0,0,1,56.6,61.5m4.354,3.49c-1.212-1.983-1.941-2.457-2.614-1.808a1.491,1.491,0,0,0-.286,2.011c.222.333.747.761,1.031.7a8.787,8.787,0,0,0,1.869-.9" transform="translate(-8.477 -9.262)" fill="#092a36" fill-rule="evenodd"/>
        <path id="Trazado_1356174" data-name="Trazado 1356174" d="M39.664,48.861c1.69-.288,2.633.141,3.19,1.17a1.265,1.265,0,0,1-.458,1.13,2.107,2.107,0,0,1-2.837-.64,1.084,1.084,0,0,1-.248-.816,3.174,3.174,0,0,1,.352-.844" transform="translate(-5.98 -7.422)" fill="#092a36" fill-rule="evenodd"/>
        <path id="Trazado_1356175" data-name="Trazado 1356175" d="M46.993,36.947a4.361,4.361,0,0,1,.521,1.188c.013.145-.5.516-.647.459a3.794,3.794,0,0,1-.912-.718c.29-.259.581-.518,1.038-.928" transform="translate(-6.993 -5.622)" fill="#092a36" fill-rule="evenodd"/>
        <path id="Trazado_1356176" data-name="Trazado 1356176" d="M71.846,38.488a6.4,6.4,0,0,1-.972-1.156c-.054-.1.454-.506.7-.772.35.394.711.781,1.021,1.206a8.237,8.237,0,0,1-.752.721" transform="translate(-10.785 -5.564)" fill="#092a36" fill-rule="evenodd"/>
        <path id="Trazado_1356177" data-name="Trazado 1356177" d="M47.2,55.335a13.877,13.877,0,0,1-.765-1.479,2,2,0,0,1,.647-.446A15.609,15.609,0,0,1,48.1,54.7l-.9.64" transform="translate(-7.067 -8.127)" fill="#092a36" fill-rule="evenodd"/>
        <path id="Trazado_1356178" data-name="Trazado 1356178" d="M57.943,32.483c-.064.118-.125.235-.187.351a3.489,3.489,0,0,1-.53-.413c-.036-.04.1-.233.151-.357.19.139.377.279.566.419" transform="translate(-8.707 -4.879)" fill="#092a36" fill-rule="evenodd"/>
        <path id="Trazado_1356179" data-name="Trazado 1356179" d="M63.121,32.315c.009.1.064.25.02.287a1.118,1.118,0,0,1-.354.146q-.027-.259-.051-.519l.384.086" transform="translate(-9.547 -4.904)" fill="#092a36" fill-rule="evenodd"/>
        <path id="Trazado_1356180" data-name="Trazado 1356180" d="M136.62,80.735c-.271-.271-.588-.443-.666-.689-1.2-3.78-2.44-7.55-3.513-11.366-.61-2.166.843-4.788,3.245-6.012,3.866-1.973,7.208-.824,8.25,3.88a6.782,6.782,0,0,1-.682,5.3c-1.373,2.2-2.56,4.516-3.9,6.739a7.078,7.078,0,0,1-1.553,1.652,4.155,4.155,0,0,1-1.179.493m1.317-5.035c1.156-1.838,1.751-2.879,2.438-3.856,1.382-1.964,1.136-4.054.438-6.118-.192-.567-.929-.952-1.417-1.419a9.254,9.254,0,0,0,1.046,2.874,2.192,2.192,0,0,1-1.385,2.6,20.706,20.706,0,0,1-3.149.7c.641,1.649,1.182,3.045,2.027,5.221m1.363-7.8c-.608-.532-.891-.979-1.183-.983a.848.848,0,0,0-.583,1.559A9.152,9.152,0,0,0,139.3,67.9" transform="translate(-20.133 -9.396)" fill="#092a36" fill-rule="evenodd"/>
        <path id="Trazado_1356181" data-name="Trazado 1356181" d="M158.258,65.689c1.179,1.423,1.686,2.1,2.275,2.7a.847.847,0,0,0,.8-.035c.194-.14.4-.574.315-.75a21.889,21.889,0,0,0-1.227-2.055,9.035,9.035,0,0,1,2.425-.5,1.969,1.969,0,0,1,1.349.979,3.176,3.176,0,0,1-.694,3.771,3.517,3.517,0,0,1-3.791.821c-1.042-.326-1.351-1.3-1.453-4.924" transform="translate(-24.083 -9.897)" fill="#092a36" fill-rule="evenodd"/>
        <path id="Trazado_1356182" data-name="Trazado 1356182" d="M131.021,101.1c1.535-1.287,3.466-.82,5.19-.972,1.116-.1,1.71,1.1,1.224,2.678l-4.892.909c-.492-.958-.955-1.857-1.417-2.756Z" transform="translate(-19.938 -15.236)" fill="#092a36" fill-rule="evenodd"/>
        <path id="Trazado_1356183" data-name="Trazado 1356183" d="M137.449,85.79c.287,1.89.524,2.913.571,3.943a1.347,1.347,0,0,1-1.353,1.508,2.743,2.743,0,0,1-1.9-.826,2.436,2.436,0,0,1,.005-2.984c.469-.61,1.383-.878,2.679-1.641" transform="translate(-20.43 -13.055)" fill="#092a36" fill-rule="evenodd"/>
        <path id="Trazado_1356184" data-name="Trazado 1356184" d="M157.667,92.767c.925-1.485,1.945-2.086,3.435-1.573a1.531,1.531,0,0,1,.915.889c.144.7-.362,1.11-1.053,1.127a5.521,5.521,0,0,1-3.3-.443" transform="translate(-23.993 -13.85)" fill="#092a36" fill-rule="evenodd"/>
        <path id="Trazado_1356185" data-name="Trazado 1356185" d="M152.006,92.748c1.074,1.92,1.34,3.112,1.208,4.261-.122,1.061-.934,1.494-2.221.89.268-1.357.543-2.759,1.013-5.151" transform="translate(-22.977 -14.114)" fill="#092a36" fill-rule="evenodd"/>
        <path id="Trazado_1356186" data-name="Trazado 1356186" d="M162.079,83.75c-.62.71-.994,1.54-1.529,1.66-.809.181-1.332-.571-1.49-1.384-.191-1,.634-2.169,1.379-1.875.584.23.98.928,1.641,1.6" transform="translate(-24.201 -12.494)" fill="#092a36" fill-rule="evenodd"/>
        <path id="Trazado_1356187" data-name="Trazado 1356187" d="M130.465,100.694a10.933,10.933,0,0,1-2.2.5,1.445,1.445,0,0,1-1.578-1.318,1.515,1.515,0,0,1,.419-1.189,1.371,1.371,0,0,1,2.009.269,22.45,22.45,0,0,1,1.244,1.887s.109-.145.109-.145" transform="translate(-19.277 -14.968)" fill="#092a36" fill-rule="evenodd"/>
        <path id="Trazado_1356188" data-name="Trazado 1356188" d="M158.875,87.393a21.582,21.582,0,0,1-1.721,1.446c-.109.075-.6-.148-.682-.334a1.488,1.488,0,0,1,1.217-1.886c.305-.006.614.384,1.186.774" transform="translate(-23.799 -13.181)" fill="#092a36" fill-rule="evenodd"/>
        <path id="Trazado_1356189" data-name="Trazado 1356189" d="M146.955,100.231c.017,1.13-.5,1.607-1.371,1.532-.338-.03-.887-.445-.915-.727a1.162,1.162,0,0,1,1.358-1.351c.347.02.674.388.928.545" transform="translate(-22.014 -15.169)" fill="#092a36" fill-rule="evenodd"/>
        <path id="Trazado_1356190" data-name="Trazado 1356190" d="M159.3,77.991c-.105-.985-.2-1.815-.3-2.79,2.085.956,2.129,1.362.3,2.79" transform="translate(-24.196 -11.444)" fill="#092a36" fill-rule="evenodd"/>
        <path id="Trazado_1356191" data-name="Trazado 1356191" d="M148.338,92.68a4.928,4.928,0,0,1-.834-1.056c-.055-.144.29-.631.4-.613a4.774,4.774,0,0,1,1.075.431l-.637,1.239" transform="translate(-22.445 -13.849)" fill="#092a36" fill-rule="evenodd"/>
        <path id="Trazado_1356192" data-name="Trazado 1356192" d="M123.858,94.343l-.432-.637c.224-.123.471-.371.66-.332.168.033.271.387.4.6l-.632.37" transform="translate(-18.782 -14.209)" fill="#092a36" fill-rule="evenodd"/>
        <path id="Trazado_1356193" data-name="Trazado 1356193" d="M155.017,92.958c-.078.254-.157.506-.237.76-.118-.085-.343-.183-.334-.25a4.639,4.639,0,0,1,.225-.773l.346.264" transform="translate(-23.503 -14.106)" fill="#092a36" fill-rule="evenodd"/>
        <path id="Trazado_1356194" data-name="Trazado 1356194" d="M98.73,86.512a4.094,4.094,0,0,1-3.936-2.6,2.113,2.113,0,0,1-.071-.9c.147-1.242,1.545-2.356,3.357-2.708a2.882,2.882,0,0,1,3.143,1.353,3.326,3.326,0,0,1-2.492,4.85" transform="translate(-14.412 -12.211)" fill="#092a36" fill-rule="evenodd"/>
        <path id="Trazado_1356195" data-name="Trazado 1356195" d="M89.33,70.677A19.906,19.906,0,0,1,86.6,61.2c.741.622,1.311.87,1.486,1.284.941,2.227,1.858,4.471,2.619,6.763.233.7-.16,1.49-1.371,1.435" transform="translate(-13.178 -9.312)" fill="#092a36" fill-rule="evenodd"/>
        <path id="Trazado_1356196" data-name="Trazado 1356196" d="M83.131,52.206c-.091.12-.2.35-.27.339a3.865,3.865,0,0,1-.722-.256,3.823,3.823,0,0,1,.668-.372c.067-.024.215.186.325.289" transform="translate(-12.499 -7.9)" fill="#092a36" fill-rule="evenodd"/>
        <path id="Trazado_1356197" data-name="Trazado 1356197" d="M201.134,75.566a8.094,8.094,0,0,0-2.486.327c-.631.3-.972,1.157-1.564,1.609a1.656,1.656,0,0,1-1.259-.008c-.2-.064-.407-.492-.407-.756a4.433,4.433,0,0,1,.229-1.791c.788-1.713.328-3.279-.839-5.234l2.811.341c.256-.428.562-.925.854-1.43.375-.648.7-1.562,1.637-1.076.4.209.529,1.01.692,1.568a2.174,2.174,0,0,1-.081.906c-.538,3.069-.54,3.069.415,5.545" transform="translate(-29.645 -10.258)" fill="#092a36" fill-rule="evenodd"/>
        <path id="Trazado_1356198" data-name="Trazado 1356198" d="M188.465,84.5a33.781,33.781,0,0,1,.874-3.935c.126-.374.931-.576,1.46-.729.173-.051.627.268.669.476.114.558.326,1.411.049,1.675A31,31,0,0,1,188.34,84.4Z" transform="translate(-28.661 -12.148)" fill="#092a36" fill-rule="evenodd"/>
        <path id="Trazado_1356199" data-name="Trazado 1356199" d="M176.836,91.716c-.437-.436-.909-.692-.961-1.015-.054-.344.217-1,.477-1.08a.911.911,0,0,1,1.209.941c.005.326-.4.658-.726,1.154" transform="translate(-26.763 -13.631)" fill="#092a36" fill-rule="evenodd"/>
        <path id="Trazado_1356200" data-name="Trazado 1356200" d="M182.606,89.236l-.657.466-.5-.908c.254-.078.549-.272.75-.2.187.066.272.415.4.641" transform="translate(-27.613 -13.479)" fill="#092a36" fill-rule="evenodd"/>
        <path id="Trazado_1356201" data-name="Trazado 1356201" d="M188.178,85.215c-.068.242-.07.564-.23.7-.108.093-.437-.073-.668-.12.084-.1.153-.242.258-.281a6.767,6.767,0,0,1,.765-.192l-.125-.105" transform="translate(-28.499 -12.968)" fill="#092a36" fill-rule="evenodd"/>
      </g>
    </g>
  </g>
</svg>
