<svg xmlns="http://www.w3.org/2000/svg" xmlns:xlink="http://www.w3.org/1999/xlink" width="119.948" height="129.31" viewBox="0 0 119.948 129.31">
  <defs>
    <clipPath id="clip-path">
      <rect id="Rectángulo_457682" data-name="Rectángulo 457682" width="119.948" height="129.31" fill="none"/>
    </clipPath>
  </defs>
  <g id="Grupo_1207591" data-name="Grupo 1207591" transform="translate(6945.974 8079.628)">
    <g id="Grupo_1207420" data-name="Grupo 1207420" transform="translate(-6945.974 -8079.628)">
      <g id="Grupo_1207419" data-name="Grupo 1207419" clip-path="url(#clip-path)">
        <path id="Trazado_1356220" data-name="Trazado 1356220" d="M95.71,143.933a.925.925,0,0,1-.7-.087c-.493-5.34-.176-10.77-.581-16.168s-.916-10.769-1.374-16.091c-.544-.168-.639.137-.75.387-.581,1.3-1.178,2.6-1.726,3.919a38.61,38.61,0,0,1-3.89,7.133,13.277,13.277,0,0,1-4.008,4.1,11.712,11.712,0,0,0-2.147,1.761,11.87,11.87,0,0,1-11.4,3.26,22.19,22.19,0,0,1-7.78-3.455,76.105,76.105,0,0,1-9.944-8.127,71.453,71.453,0,0,1-7.869-8.458,29.606,29.606,0,0,1-4.885-9.229,3.457,3.457,0,0,1-.131-2.645c.224.261.473.424.534.641a36.713,36.713,0,0,0,6.037,11.51,10.039,10.039,0,0,0,2.885,2.384c.215-.33.441-.655.642-.994a30.089,30.089,0,0,1,11.084-11.082,7.348,7.348,0,0,1,3.393-1.2c.182-.006.358-.166.523-.247,0-.19.055-.361-.007-.456a31.943,31.943,0,0,0-6.116-7.4,40.588,40.588,0,0,0-7.532-5.264A19.982,19.982,0,0,0,46.3,87.089a2.207,2.207,0,0,0-1.249.157,20.193,20.193,0,0,0-2.557,1.083,42.917,42.917,0,0,0-7.081,4.8,17.259,17.259,0,0,0-3.456,4.338A38.427,38.427,0,0,0,27.7,107.495c-.3,1.025-.659,2.031-.993,3.046-.245.745-.531,1.478-.731,2.234-.75,2.83-1.45,5.671-2.208,8.5-1.13,4.213-1.785,8.518-2.533,12.807a7.68,7.68,0,0,0-.073,1.708,11.834,11.834,0,0,1-.864,4.6,3.984,3.984,0,0,1-.3.654c3.9,1.332,33.02,5.716,43.664,5.82a228.891,228.891,0,0,0,30.217-2.289,7.422,7.422,0,0,0,1.834-.643" transform="translate(-4.034 -17.56)" fill="#95b856" fill-rule="evenodd"/>
        <path id="Trazado_1356221" data-name="Trazado 1356221" d="M56.216,106.952c2.655-6.313,10.045-12.834,15.435-13.59,2.309,3.049,4.588,6.222,6.685,9.224.231,1.141-.683,1.842-.33,2.729.042.1.215.156.452.315.1-.143.216-.3.317-.476,1.164-1.965,2.388-3.9,3.473-5.906,4.446-8.224,8.806-16.495,13.3-24.693a11.393,11.393,0,0,0,1.413-6.748,53.207,53.207,0,0,1-.337-7.476A19.631,19.631,0,0,1,98.6,52.947c.044-.094.227-.125.354-.189.391.073.345.422.325.658-.052.639-.184,1.27-.264,1.907a15.108,15.108,0,0,0-.179,1.91c0,.191.311.381.48.571.137-.137.358-.251.4-.412a10.685,10.685,0,0,0,.232-1.477,36.792,36.792,0,0,1,1.835-7.688,14.79,14.79,0,0,1,3.328-5.185A3,3,0,0,1,107.292,42a.924.924,0,0,1,.469,1.152c-.226,1.189-.462,2.379-.772,3.548a33.636,33.636,0,0,0-1.3,5.622,4.307,4.307,0,0,1-.361,1.219c-.568,1.377-1.165,2.744-1.739,4.119a1.356,1.356,0,0,0-.113.624c.022.2.106.5.243.554.279.109.507-.034.645-.358.418-.985.946-1.928,1.3-2.933a7.294,7.294,0,0,1,2.58-3.324,11.2,11.2,0,0,1,3.509-2.014,1.267,1.267,0,0,1,1.779.986,12.657,12.657,0,0,1,.02,1.995c-.916.712-1.87,1.443-2.812,2.191a12.069,12.069,0,0,0-3.647,5.2,2.2,2.2,0,0,0-.071,1.04c.016.14.279.25.551.472.382-.762.742-1.438,1.063-2.131a11.247,11.247,0,0,1,4.181-4.763,2.924,2.924,0,0,1,.949-.446,1.016,1.016,0,0,1,1.2,1.29,18.086,18.086,0,0,1-1.241,2.478c-1.019,1.718-2.106,3.4-3.128,5.113a13.261,13.261,0,0,0-.91,1.933,1.714,1.714,0,0,0-.01,1.632c.476.1.584-.248.76-.563q1.832-3.267,3.694-6.515a3.633,3.633,0,0,1,.6-.878c.176-.165.552-.321.723-.239a1.781,1.781,0,0,1,.676.718,1.058,1.058,0,0,1,.016.627A22.24,22.24,0,0,1,113.273,69c-1.365,2.174-2.554,4.458-3.849,6.676-.536.92-1.181,1.775-1.711,2.7a10.7,10.7,0,0,0-.859,1.941c-1.082,3.247-1.984,6.562-3.236,9.742-1.511,3.838-2.7,7.81-4.8,11.422-1.068,1.84-1.736,3.908-2.629,5.852a29.254,29.254,0,0,1-10.544,12.649,11.556,11.556,0,0,1-10.622,1.284,22.207,22.207,0,0,1-5-2.412A73.251,73.251,0,0,1,56.78,107.709a8.466,8.466,0,0,1-.564-.758" transform="translate(-11.341 -8.472)" fill="#ffe3d0" fill-rule="evenodd"/>
        <path id="Trazado_1356222" data-name="Trazado 1356222" d="M53.5,40.664c.586-1.08,1.442-.95,2.194-1.062,1.833-.273,3.679-.466,5.5-.815a150.386,150.386,0,0,0,15.3-3.994,4.218,4.218,0,0,1,2.063-.4,2.364,2.364,0,0,0,2.519-1.165c.137-.206.429-.31.8-.561.291.6.567,1.071.758,1.577a11.456,11.456,0,0,0,1.675,3.21,4.706,4.706,0,0,1,.552.912A94.481,94.481,0,0,1,90.164,51.2a19.892,19.892,0,0,1,.778,9.293A7.852,7.852,0,0,1,87.66,65.8a15.894,15.894,0,0,1-1.612,1.051,37.92,37.92,0,0,1-12.562,4.677,30.6,30.6,0,0,1-8.535.062,12.078,12.078,0,0,1-8.317-5.146,29.246,29.246,0,0,1-4.386-8.265A3.1,3.1,0,0,0,50,57.611a13.027,13.027,0,0,1-4.195-.745,5,5,0,0,1-2.873-7.144,1.325,1.325,0,0,1,1.577-.806,3.944,3.944,0,0,1,2.831,1.655,19.665,19.665,0,0,0,2.6,3.105,6.511,6.511,0,0,0,3.768,1.88c.211.03.42.092.632.105a2.158,2.158,0,0,0,2.546-2.224,5.96,5.96,0,0,0-.107-1.486,18.345,18.345,0,0,0-.474-1.866q-1.4-4.715-2.808-9.423M69.8,57.416c-.037.5-.154.8-.054.973a3.481,3.481,0,0,0,2.047,1.45A11.128,11.128,0,0,0,82.7,58.067a4.492,4.492,0,0,0,1.613-2.217,3.8,3.8,0,0,0,0-1.142,17.224,17.224,0,0,1-4.174,3.346,10.141,10.141,0,0,1-5.169,1.1,9.448,9.448,0,0,1-5.17-1.742m10.916-6.681A3.688,3.688,0,0,0,82.7,48.759a6.153,6.153,0,0,0,.9-3.248,2.046,2.046,0,0,0-1.33-2,10.187,10.187,0,0,0-2.049-.547A2.668,2.668,0,0,1,78.2,41.546c-.408-.748-.742-1.534-1.094-2.31-.176-.388-.3-.8-.483-1.182a.393.393,0,0,0-.355-.144c-.166.077-.393.231-.41.375a2.256,2.256,0,0,0,.057,1.046,25.821,25.821,0,0,0,1.268,2.93,3.614,3.614,0,0,0,2.864,1.989,5.844,5.844,0,0,1,1.043.211c1.049.327,1.4.873,1.068,1.936-.272.875-.732,1.691-1.092,2.539-.212.5-.7.924-.347,1.8M64.854,45.322c-.184.255-.489.494-.543.78a2.944,2.944,0,0,0,.708,2.542,1.289,1.289,0,0,0,.9.36c.494-.008.718-.448.739-.873a2.983,2.983,0,0,0-1.118-2.586,2.335,2.335,0,0,0-.689-.223m18.6-4.522a11.192,11.192,0,0,0-.687-1.825c-.116-.2-.628-.268-.932-.222-.164.026-.367.41-.392.648a2.306,2.306,0,0,0,.857,1.875.626.626,0,0,0,.566.131,2.735,2.735,0,0,0,.589-.607m-23.27,1.216c1.049-.121,1.454-.4,2.645-1.761-.514-.372-.96-.064-1.366.186a2.355,2.355,0,0,0-1.28,1.575" transform="translate(-8.542 -6.589)" fill="#ffe3d0" fill-rule="evenodd"/>
        <path id="Trazado_1356223" data-name="Trazado 1356223" d="M82.621,33.352c-.833-1.36-1.979-2.284-2.362-3.681,1.033-1.43,3.085-1.822,3.409-3.869a3.4,3.4,0,0,0-.738-.67c-.686-.33-1.481-.428-1.769-1.357-.067-.219-.75-.39-1.126-.348-1.842.2-3.7.379-5.509.758-2.791.584-5.577,1.228-8.315,2.016A49.61,49.61,0,0,0,42.1,41.407a21.664,21.664,0,0,0-3.914,6.1,5.18,5.18,0,0,0-.573,3.125c.314.506,1.059.464,1.288,1.257a5.235,5.235,0,0,0,3.6,3.393,11.131,11.131,0,0,0,5.986.579c.307.837.593,1.62.873,2.388A10.473,10.473,0,0,1,45.1,59.59a25.179,25.179,0,0,1-7.456-.461,15.119,15.119,0,0,1-7.194-4.017,4.828,4.828,0,0,1-1.4-5.431,23.183,23.183,0,0,1,7.315-11.112c1.428-1.166,2.867-2.321,4.339-3.43s3-2.193,4.525-3.248c1.82-1.256,3.639-2.519,5.509-3.7A43.159,43.159,0,0,1,63.9,22.666c3.469-.825,6.908-1.778,10.375-2.614A34.193,34.193,0,0,1,83,19.33a9.387,9.387,0,0,1,4.26,1.326,3.035,3.035,0,0,1,1.712,3.378,10.939,10.939,0,0,1-.7,2.454,15.249,15.249,0,0,1-3.721,5.183c-.573.535-1.183,1.031-1.933,1.68" transform="translate(-5.797 -3.897)" fill="#a99db8" fill-rule="evenodd"/>
        <path id="Trazado_1356224" data-name="Trazado 1356224" d="M1.555,136.81c.339-1.82.576-3.667,1.039-5.456,1.053-4.074,2.215-8.118,3.338-12.174.114-.413.275-.811.4-1.221A12.931,12.931,0,0,1,12.2,110.6a3.676,3.676,0,0,1,3.645-.307,19.782,19.782,0,0,1,5.088,3.122,1.915,1.915,0,0,1,.643,2.256c-1.181,4.334-2.36,8.671-3.388,13.042-.735,3.121-1.247,6.3-1.822,9.453a14.8,14.8,0,0,0-.142,2.133c-.028.783.017,1.572-.041,2.353-.216,2.957-2.223,4.454-5.118,3.838a4.141,4.141,0,0,1-.817-.248,19.84,19.84,0,0,1-6.936-4.9,6.666,6.666,0,0,1-1.753-4.533m16-17.168c-.243-.276-.315-.44-.424-.471a23.421,23.421,0,0,1-6.941-3.665,7.9,7.9,0,0,0-1.074-.683c-.12-.056-.348.117-.575.2a2.37,2.37,0,0,0,.326.595,20.587,20.587,0,0,0,6.086,3.864,3.213,3.213,0,0,0,2.6.158" transform="translate(-0.314 -22.181)" fill="#b6d1ae" fill-rule="evenodd"/>
        <path id="Trazado_1356225" data-name="Trazado 1356225" d="M72.268,11.33c-.6.16-1.195.324-1.794.481-1.65.435-3.343.75-4.943,1.327-3.282,1.184-6.544,2.434-9.756,3.793a45.587,45.587,0,0,0-9.554,5.642,33.328,33.328,0,0,0-6.276,6.091c-.345.441-.718.858-1.178,1.407a3.8,3.8,0,0,1-.419-.869c-.578-3.879-1.132-7.759-1.7-11.637a4.468,4.468,0,0,1,.269-2.3A11.274,11.274,0,0,1,39.3,11.244,33.825,33.825,0,0,1,54.866,1.881,11.237,11.237,0,0,1,63.9,3.111a25.609,25.609,0,0,1,8.206,7.671,2.326,2.326,0,0,1,.158.548" transform="translate(-7.383 -0.291)" fill="#a99db8" fill-rule="evenodd"/>
        <path id="Trazado_1356226" data-name="Trazado 1356226" d="M116.227,124.785c.113-.853.169-1.544.3-2.222a58.949,58.949,0,0,0,.909-15.987c-.171-2.2-.327-4.414-.605-6.606a20.387,20.387,0,0,0-.859-2.988c.8-2.21,1.681-4.618,2.533-7.037.354-1.007.634-2.042.964-3.059a13.346,13.346,0,0,1,.653-1.8c1.044-2.11,2.126-4.2,3.2-6.3a4.551,4.551,0,0,1,.552-.914,20.319,20.319,0,0,0,3.072-5.369,19.767,19.767,0,0,1,2.619-4.389c1.549-1.959,2.982-4.008,4.477-6.01.283-.379.622-.717,1.2-1.375a17.246,17.246,0,0,1-.156,1.827,22.831,22.831,0,0,1-2.689,6.733c-1.261,2.155-2.6,4.271-3.98,6.347A7.307,7.307,0,0,0,127.193,79c-.218,1.984-.569,3.954-.817,5.935a67.329,67.329,0,0,0-.79,7.228c-.073,4.229-.7,8.391-1.173,12.572-.232,2.056-.446,4.116-.682,6.172a26.331,26.331,0,0,1-3.768,10.611,8.185,8.185,0,0,1-2.787,2.912,6.553,6.553,0,0,1-.949.356" transform="translate(-23.396 -12.25)" fill="#ffe3d0" fill-rule="evenodd"/>
        <path id="Trazado_1356227" data-name="Trazado 1356227" d="M47.616,71.512c-.258.877-1.017,1.147-1.729,1.458-1.5.654-3.069,1.19-4.509,1.96-1.941,1.038-4.058,1.716-5.9,2.939a17.44,17.44,0,0,0-3.923,3.581c-.825,1.022-1.9,1.921-2.088,3.36a.865.865,0,0,1-.211.369c-1.467,1.839-2.054,4.119-3.07,6.183-.724,1.467-1.321,3-1.929,4.521a3.108,3.108,0,0,0-.146,1.235c.006.143.263.347.439.394a.664.664,0,0,0,.568-.136,3.636,3.636,0,0,0,.534-.909c.6-1.371,1.206-2.742,1.765-4.132a60.279,60.279,0,0,1,4.876-9.266,3.068,3.068,0,0,1,1.5-1.467c.177-.063.429-.277.43-.424.011-1.384,1.554-1.288,2.063-2.176,2.6-1.145,4.855-2.94,7.567-3.872,1.684-.579,3.315-1.308,4.987-1.923.6-.222.771-.017.964.958-.382.157-.766.337-1.164.474a18.753,18.753,0,0,0-5.56,3.146,43.441,43.441,0,0,0-10.136,11.5,75.7,75.7,0,0,0-5.946,13.006c-.347.928-.682,1.861-1.035,2.827a2.044,2.044,0,0,1-.655-.195,23.532,23.532,0,0,0-4.913-3.014,5.017,5.017,0,0,1-.584-.264,1.2,1.2,0,0,1-.557-1.472c.435-1.358.9-2.706,1.42-4.033.88-2.259,1.942-4.455,2.689-6.757,1.866-5.756,5.717-9.792,10.8-12.779A47.991,47.991,0,0,1,45.33,71.8a3.6,3.6,0,0,1,2.286-.289" transform="translate(-3.869 -14.405)" fill="#c7e8d0" fill-rule="evenodd"/>
        <path id="Trazado_1356228" data-name="Trazado 1356228" d="M55.274,76.746c1.2,1.632,3.131,2.646,4.865,3.88a8.536,8.536,0,0,0,2.974,1.126,2.734,2.734,0,0,1,1.745,1.111c4.752,6.844,8.968,13.937,10.273,22.362.1.6.1,1.221.168,2.182a7.321,7.321,0,0,1-1.91-2.392,67.275,67.275,0,0,0-7.9-11.43A30.39,30.39,0,0,0,52.1,84.3a5.431,5.431,0,0,0-4.171.048,53.617,53.617,0,0,0-4.908,2.594c-1.161.679-2.233,1.514-3.33,2.268-.423-.326-.1-.563.034-.747a39.917,39.917,0,0,1,9.39-9.6,31.965,31.965,0,0,1,3.343-1.894,3.234,3.234,0,0,1,2.816-.226" transform="translate(-7.965 -15.439)" fill="#88c2d0" fill-rule="evenodd"/>
        <path id="Trazado_1356229" data-name="Trazado 1356229" d="M53.542,37.864a28.533,28.533,0,0,0,1.441,9.559,29.479,29.479,0,0,1,1,3.5c.394,2.056-.344,2.676-2.332,2.111A6.1,6.1,0,0,1,50.9,51.44a36.239,36.239,0,0,1-2.378-2.748c-.616-.775-1.152-1.614-1.786-2.513l-.811.624-1.662-.5c.034-.192.014-.354.085-.447.694-.905,1.359-1.84,2.118-2.688a48.8,48.8,0,0,1,23.948-14.68c2.61-.72,5.281-1.225,7.9-1.906a8.584,8.584,0,0,1,4.85.09c.6.188,1.221.312,1.912.486a5.719,5.719,0,0,1-2.894,2.873c-2.1.887-4.187,1.847-6.36,2.518a138.3,138.3,0,0,1-16.589,4.212c-1.335.236-2.685.382-4.022.615a15.491,15.491,0,0,0-1.673.488" transform="translate(-8.929 -5.301)" fill="#bd7f31" fill-rule="evenodd"/>
        <path id="Trazado_1356230" data-name="Trazado 1356230" d="M84.3,107.062c-.663-2.721-1.183-5.085-1.82-7.418A30.483,30.483,0,0,0,79.8,93.117c-1.155-2.123-2.38-4.206-3.693-6.516a6.279,6.279,0,0,1,.956.166,17.512,17.512,0,0,0,6.951,1,9.34,9.34,0,0,0,7.465-4c.754-1.032,1.329-2.2,1.985-3.3.434-.73.866-1.462,1.4-2.368a7.773,7.773,0,0,1,.631.937c.239.517.412,1.065.634,1.591a6.325,6.325,0,0,1-.417,6.085c-3.6,6.249-6.979,12.622-10.454,18.944-.229.415-.534.789-.961,1.413" transform="translate(-15.354 -15.754)" fill="#95b856" fill-rule="evenodd"/>
        <path id="Trazado_1356231" data-name="Trazado 1356231" d="M39.647,35.148c.069-.475.01-.857.172-1.069a39.567,39.567,0,0,1,7.275-7.494,51.628,51.628,0,0,1,12.645-7.067c2.584-1.015,5.191-1.987,7.842-2.806,1.9-.586,3.877-.891,5.825-1.3a2.67,2.67,0,0,1,.712.066,7.837,7.837,0,0,1,1.7,2.73c-.774.247-1.422.493-2.087.659q-3.834.96-7.678,1.876a44.087,44.087,0,0,0-14.463,6.187c-3.436,2.3-6.781,4.726-10.168,7.094a6.455,6.455,0,0,1-1.779,1.128" transform="translate(-7.998 -3.106)" fill="#ffd170" fill-rule="evenodd"/>
        <path id="Trazado_1356232" data-name="Trazado 1356232" d="M92.561,78.215c-.849,1.471-1.628,2.989-2.562,4.4a8.2,8.2,0,0,1-7.008,3.8,17.352,17.352,0,0,1-4.654-.466,8.9,8.9,0,0,1-5.05-3.144,3.3,3.3,0,0,1,1.913-.25c.71-.038,1.423,0,2.132-.045.637-.038,1.272-.123,1.905-.207s1.268-.169,1.9-.288c.7-.132,1.393-.282,2.08-.461.619-.16,1.227-.36,1.834-.561s1.211-.412,1.8-.647,1.178-.5,1.763-.76c.649-.288,1.295-.585,1.941-.88q.856-.393,1.71-.786c.1.094.2.192.295.287" transform="translate(-14.784 -15.721)" fill="#ffe3d0" fill-rule="evenodd"/>
        <path id="Trazado_1356233" data-name="Trazado 1356233" d="M114.541,130.071c-.117-.842-.256-1.681-.346-2.527-.411-3.9-.805-7.794-1.209-11.693-.037-.354-.061-.71-.109-1.062a5.028,5.028,0,0,1,.58-3.285,29.467,29.467,0,0,0,1.262-2.914,5.95,5.95,0,0,1,.6,2.6c.383,6.326.775,12.653-.778,18.881" transform="translate(-22.759 -21.906)" fill="#88c2d0" fill-rule="evenodd"/>
        <path id="Trazado_1356234" data-name="Trazado 1356234" d="M141.752,42.7a8,8,0,0,1-1.248,4.726,2.41,2.41,0,0,1-3.5.938,6.385,6.385,0,0,1-1.957-1.609,7.885,7.885,0,0,1-1.788-5.775,3.36,3.36,0,0,1,.33-1.222,5.171,5.171,0,0,1,4.243-2.831,2.085,2.085,0,0,1,1.9.764,7.755,7.755,0,0,1,2.027,5.009m-6.5-1.422a7.432,7.432,0,0,0,1.217,4.676,1.851,1.851,0,0,0,2.946.3,5.322,5.322,0,0,0-.244-7.62,2.311,2.311,0,0,0-3.65.991,8.349,8.349,0,0,0-.27,1.655" transform="translate(-26.875 -7.447)" fill="#cfd4cc" fill-rule="evenodd"/>
        <path id="Trazado_1356235" data-name="Trazado 1356235" d="M122.481,41.2a2.358,2.358,0,0,1,.349-2.759c1.352-1.652,2.624-3.369,3.97-5.026a17.863,17.863,0,0,1,1.584-1.525,8.934,8.934,0,0,1,3.079,2.255,1.794,1.794,0,0,1,.82,1.582,7.1,7.1,0,0,1-1.211.53,4.6,4.6,0,0,0-2.712,1.951c-.729,1.041-1.416,2.11-2.208,3.3l-2.012-1.374c-.548.354-1.1.71-1.659,1.07m6.587-8.058a1.8,1.8,0,0,0-1.484,2.371,1.074,1.074,0,0,0,.982.679,1.594,1.594,0,0,0,1.5-.948,1.673,1.673,0,0,0-.49-1.9,2.027,2.027,0,0,0-.51-.206" transform="translate(-24.649 -6.432)" fill="#bbbdb7" fill-rule="evenodd"/>
        <path id="Trazado_1356236" data-name="Trazado 1356236" d="M132.048,65.23c.242-3.56.2-3.817-1.276-5.625l.7-2.178-1.9-1.869c.319-.437.565-.323.787-.132a3.913,3.913,0,0,0,3.575.947,6.022,6.022,0,0,1,1.548.093,10.205,10.205,0,0,1,3.529-2.9c.343.346.137.688-.021.973-.765,1.367-1.514,2.746-2.353,4.067-.611.96-1.385,1.817-2.033,2.757-.685.994-1.3,2.035-1.96,3.05-.182.283-.394.548-.592.821" transform="translate(-26.138 -10.805)" fill="#bbbdb7" fill-rule="evenodd"/>
        <path id="Trazado_1356237" data-name="Trazado 1356237" d="M131.161,40.482c-.117,6.073.4,7.286,4.584,10.747a10.619,10.619,0,0,1-1.342.979,2.236,2.236,0,0,1-2.748-.312,9.477,9.477,0,0,1-3.143-6.354,3.383,3.383,0,0,1,.1-1.058,7.212,7.212,0,0,1,2.55-4" transform="translate(-25.923 -8.167)" fill="#b1a79d" fill-rule="evenodd"/>
        <path id="Trazado_1356238" data-name="Trazado 1356238" d="M119.947,38.688a11.488,11.488,0,0,0-4.616,1.942,14.153,14.153,0,0,1,.923-1.329c1.4-1.61,2.781-3.247,4.271-4.774a4.784,4.784,0,0,1,3.892-1.62,14.446,14.446,0,0,1-2.2,2.866c-.732.961-1.482,1.909-2.267,2.915" transform="translate(-23.266 -6.638)" fill="#bbbdb7" fill-rule="evenodd"/>
        <path id="Trazado_1356239" data-name="Trazado 1356239" d="M104.512,76.041a3.524,3.524,0,0,1-.353,3.5c-.386.58-.714,1.2-1.015,1.707-.216.049-.3.095-.344.072a.314.314,0,0,1-.122-.17c-.692-1.772-1.382-3.546-2.119-5.439a7.645,7.645,0,0,1,3.953.329" transform="translate(-20.286 -15.251)" fill="#88c2d0" fill-rule="evenodd"/>
        <path id="Trazado_1356240" data-name="Trazado 1356240" d="M123.973,43.7l1.41,1.189c-.637,1.431-1.238,2.782-1.842,4.141-1.162-.631-1.5-1.375-1.055-2.445.378-.91.9-1.76,1.488-2.885" transform="translate(-24.671 -8.815)" fill="#ffd865" fill-rule="evenodd"/>
        <path id="Trazado_1356241" data-name="Trazado 1356241" d="M126.924,50.107h-1.652c.333-.784.631-1.486.986-2.318.82.713.577,1.482.667,2.318" transform="translate(-25.271 -9.641)" fill="#bbbdb7" fill-rule="evenodd"/>
        <path id="Trazado_1356242" data-name="Trazado 1356242" d="M122.3,51.592c-.359.6-.75.736-1.062.251a6.7,6.7,0,0,1-.5-1.463,2.846,2.846,0,0,1,1.563,1.213" transform="translate(-24.357 -10.163)" fill="#bbbdb7" fill-rule="evenodd"/>
        <path id="Trazado_1356243" data-name="Trazado 1356243" d="M112.438,47.067a4.987,4.987,0,0,1-.24.713c-.043.085-.22.1-.336.15-.038-.12-.141-.277-.1-.35a4.923,4.923,0,0,1,.465-.612l.212.1" transform="translate(-22.544 -9.475)" fill="#bbbdb7" fill-rule="evenodd"/>
        <path id="Trazado_1356244" data-name="Trazado 1356244" d="M137.225,41.846a13.176,13.176,0,0,1,.328-1.576A1.025,1.025,0,0,1,139,39.817a2.254,2.254,0,0,1,.491.4,4.2,4.2,0,0,1,.076,5.471.81.81,0,0,1-1.41-.077,6.924,6.924,0,0,1-.93-3.764" transform="translate(-27.683 -8.005)" fill="#8c8786" fill-rule="evenodd"/>
        <path id="Trazado_1356245" data-name="Trazado 1356245" d="M130.228,35.7a1.071,1.071,0,0,1-.1-.135c.085-.083.177-.157.27-.232l.185.251-.35.117" transform="translate(-26.25 -7.128)" fill="#fbe381" fill-rule="evenodd"/>
        <path id="Trazado_1356246" data-name="Trazado 1356246" d="M110.093,28.478a2.4,2.4,0,0,1-.661.049,41.383,41.383,0,0,1-3.591-3.291,2.491,2.491,0,0,0-2.876-.8q-2.556.765-5.062,1.7a4.876,4.876,0,0,0-1.594,1.028A41.18,41.18,0,0,0,87.7,38.3a4.611,4.611,0,0,0-.671,2.43,5.365,5.365,0,0,1-.543,2.475c-.6,1.45-1.127,2.93-1.709,4.386a5.243,5.243,0,0,1-.626.86,30.385,30.385,0,0,0-2-7.25c-1.241-3.038-2.629-6.016-3.951-9.021-.253-.573-.5-1.15-.765-1.771a6.192,6.192,0,0,1,.845-.769,14.365,14.365,0,0,0,5.534-6.9,8.2,8.2,0,0,0,.585-2.052,4.275,4.275,0,0,0-2.514-4.94A10.443,10.443,0,0,0,76.1,14.465c-1.566.132-3.138.209-4.7.32a3.946,3.946,0,0,1-2.4-.374c-.512-.819-1.08-1.724-1.645-2.63a6.586,6.586,0,0,0-.445-.706c-.953-1.155-1.941-2.281-2.876-3.451A24.243,24.243,0,0,0,54.855.761,7.379,7.379,0,0,0,51.111.026a23.664,23.664,0,0,0-4.232.568A35.054,35.054,0,0,0,31.15,10.181a11.528,11.528,0,0,0-3.013,6.055c-.187.989,1.375,10.3,1.812,13.27.176,1.189.4,2.372.612,3.59-.667.615-1.3,1.189-1.918,1.771A23.909,23.909,0,0,0,22.1,45.752a5.574,5.574,0,0,0,1.427,5.906,14.852,14.852,0,0,0,7.42,4.46c1.87.418,3.8.553,5.708.829.3.044.7-.16.942.361-1.694.764-3.377,1.5-5.042,2.28a32.544,32.544,0,0,0-8.487,5.734,18.145,18.145,0,0,0-4.561,6.412c-1.722,4.232-3.413,8.476-5.037,12.744a3.909,3.909,0,0,1-2.1,2.447,13.631,13.631,0,0,0-7.656,8.751c-.159.548-.351,1.086-.506,1.636-1.049,3.71-2.156,7.4-3.112,11.137a47.7,47.7,0,0,0-1.038,5.894,7.321,7.321,0,0,0,2.19,6.042A20.789,20.789,0,0,0,6.24,123.6a8.912,8.912,0,0,0,7.066,1.628,3.572,3.572,0,0,0,2.96-2.4,11.805,11.805,0,0,0,.864-4.6,7.689,7.689,0,0,1,.073-1.709c.748-4.287,1.4-8.593,2.533-12.807.757-2.827,1.458-5.669,2.207-8.5.2-.755.487-1.49.732-2.234.334-1.015.7-2.022.993-3.046a38.44,38.44,0,0,1,4.25-10.025,17.3,17.3,0,0,1,3.457-4.339,42.962,42.962,0,0,1,7.081-4.8,20.136,20.136,0,0,1,2.556-1.084,2.217,2.217,0,0,1,1.25-.156,20.034,20.034,0,0,1,3.672,1.039,40.636,40.636,0,0,1,7.533,5.265,31.96,31.96,0,0,1,6.116,7.4c.062.1.006.266.006.457-.164.081-.34.24-.522.247a7.339,7.339,0,0,0-3.393,1.2A30.077,30.077,0,0,0,44.591,96.215c-.2.339-.427.664-.642.994a10.052,10.052,0,0,1-2.885-2.384,36.68,36.68,0,0,1-6.037-11.51c-.061-.217-.31-.38-.535-.641a3.457,3.457,0,0,0,.132,2.645,29.561,29.561,0,0,0,4.885,9.228A71.256,71.256,0,0,0,47.377,103a75.993,75.993,0,0,0,9.945,8.127,22.169,22.169,0,0,0,7.78,3.455,11.87,11.87,0,0,0,11.4-3.259,11.734,11.734,0,0,1,2.146-1.761,13.274,13.274,0,0,0,4.009-4.1,38.624,38.624,0,0,0,3.89-7.133c.547-1.318,1.144-2.616,1.725-3.919.112-.251.206-.555.751-.388.458,5.323.967,10.7,1.374,16.092s-.009,11.4.485,16.736c.629.287,1.09-.49,1.14-1a13.447,13.447,0,0,0,.03-2.351,47.83,47.83,0,0,1,.113-8.969c.489-.244.93-.476,1.379-.686a9.452,9.452,0,0,0,4.082-3.679,26.945,26.945,0,0,0,3.991-10.765q.69-5.419,1.265-10.852c.242-2.269.4-4.549.578-6.825.167-2.137.231-4.284.486-6.408.358-2.976.892-5.93,1.268-8.9a6.463,6.463,0,0,1,1.441-3.451,29.569,29.569,0,0,0,5.8-10.888,10.081,10.081,0,0,0,.463-3.791,4.394,4.394,0,0,1,.5-2.809,4.511,4.511,0,0,0,.7-3.273,1.31,1.31,0,0,1,.4-1.163,8.028,8.028,0,0,0,1.473-3.526A9.192,9.192,0,0,0,114.2,30.04c-1.045-1.332-2.331-2.1-4.107-1.562m-6.358-3.025a8.934,8.934,0,0,1,3.079,2.255,1.793,1.793,0,0,1,.82,1.582,7.131,7.131,0,0,1-1.211.53,4.6,4.6,0,0,0-2.712,1.951c-.729,1.041-1.416,2.11-2.208,3.294-.651-.443-1.272-.868-2.012-1.373l-1.659,1.07A2.359,2.359,0,0,1,98.181,32c1.352-1.652,2.624-3.369,3.97-5.025a17.753,17.753,0,0,1,1.584-1.525m6.088,17.609a10.589,10.589,0,0,1-1.342.978,2.236,2.236,0,0,1-2.748-.311,9.48,9.48,0,0,1-3.142-6.354,3.382,3.382,0,0,1,.1-1.058,7.207,7.207,0,0,1,2.55-4c-.117,6.073.4,7.286,4.584,10.747M97.815,37.768c.378-.91.9-1.76,1.488-2.885l1.409,1.189c-.636,1.431-1.237,2.782-1.842,4.141-1.161-.631-1.5-1.375-1.055-2.445m.132,3.661c-.359.6-.75.737-1.062.251a6.63,6.63,0,0,1-.5-1.462,2.842,2.842,0,0,1,1.563,1.212m3.04-3.28c.821.713.577,1.482.667,2.318H100c.333-.784.631-1.486.986-2.318m-8-5.486c1.4-1.609,2.782-3.247,4.271-4.774a4.786,4.786,0,0,1,3.892-1.62,14.452,14.452,0,0,1-2.2,2.867c-.732.961-1.482,1.909-2.267,2.914a11.5,11.5,0,0,0-4.616,1.942,14.258,14.258,0,0,1,.923-1.329M89.219,38.1a4.773,4.773,0,0,1,.465-.612l.211.1a4.826,4.826,0,0,1-.24.713c-.042.085-.22.1-.336.15-.038-.12-.141-.277-.1-.35M61.713,71.013a17.5,17.5,0,0,0,6.951,1,9.341,9.341,0,0,0,7.465-4c.754-1.031,1.33-2.2,1.985-3.3.434-.73.866-1.462,1.4-2.368a7.861,7.861,0,0,1,.632.937c.238.518.411,1.065.633,1.592a6.327,6.327,0,0,1-.416,6.085c-3.6,6.248-6.98,12.622-10.455,18.944-.229.415-.534.789-.961,1.412-.663-2.721-1.183-5.085-1.82-7.418a30.474,30.474,0,0,0-2.678-6.527c-1.156-2.123-2.38-4.207-3.693-6.517a6.386,6.386,0,0,1,.955.166M58.5,67.092a3.294,3.294,0,0,1,1.913-.251c.71-.037,1.423,0,2.132-.045.637-.038,1.272-.123,1.905-.207s1.268-.169,1.9-.288c.7-.131,1.393-.282,2.08-.461.619-.16,1.227-.36,1.834-.561s1.211-.412,1.8-.647,1.178-.5,1.763-.76c.649-.288,1.295-.585,1.941-.88q.856-.393,1.71-.786l.295.287c-.849,1.471-1.628,2.989-2.562,4.4a8.2,8.2,0,0,1-7.008,3.8,17.319,17.319,0,0,1-4.654-.466,8.9,8.9,0,0,1-5.05-3.143m21.771-6.631a7.646,7.646,0,0,1,3.953.329,3.522,3.522,0,0,1-.354,3.5c-.386.58-.713,1.2-1.014,1.708-.216.049-.3.094-.344.072a.312.312,0,0,1-.122-.171c-.692-1.772-1.383-3.546-2.119-5.439m3.69-5.323a7.389,7.389,0,0,1,.252,4.123,3.465,3.465,0,0,1-2.263-.277c.4-.662.783-1.249,1.109-1.869.312-.594.56-1.222.9-1.977M81.623,44.616a19.878,19.878,0,0,1,.778,9.292,7.846,7.846,0,0,1-3.282,5.306,16,16,0,0,1-1.612,1.051,37.919,37.919,0,0,1-12.562,4.676A30.607,30.607,0,0,1,56.407,65a12.071,12.071,0,0,1-8.316-5.146A29.2,29.2,0,0,1,43.7,51.592a3.111,3.111,0,0,0-2.242-.57,13.014,13.014,0,0,1-4.2-.745A5,5,0,0,1,34.4,43.134a1.324,1.324,0,0,1,1.577-.805A3.941,3.941,0,0,1,38.8,43.983a19.658,19.658,0,0,0,2.6,3.105,6.516,6.516,0,0,0,3.767,1.88c.212.03.421.092.632.105a2.158,2.158,0,0,0,2.546-2.224,5.964,5.964,0,0,0-.107-1.486,18.4,18.4,0,0,0-.474-1.866q-.741-2.5-1.492-5.006c-.247-1.666-.618-3.313-.878-4.975a2.99,2.99,0,0,1,1.756-.5c1.833-.272,3.679-.465,5.5-.815a150.341,150.341,0,0,0,15.305-3.993,4.216,4.216,0,0,1,2.063-.4,2.365,2.365,0,0,0,2.519-1.165c.137-.206.429-.31.8-.562.291.6.567,1.072.757,1.577a11.464,11.464,0,0,0,1.676,3.209,4.746,4.746,0,0,1,.552.912,94.492,94.492,0,0,1,5.307,12.843M44.613,32.563c0,.091,0,.179,0,.268a5.8,5.8,0,0,0,.081,2.519,29.232,29.232,0,0,0,1.36,6.772,29.509,29.509,0,0,1,1,3.5c.394,2.056-.344,2.677-2.332,2.111a6.1,6.1,0,0,1-2.752-1.589,36.251,36.251,0,0,1-2.378-2.749c-.616-.775-1.152-1.613-1.786-2.513-.266.206-.473.365-.811.625L35.332,41c.034-.193.014-.354.085-.447.694-.905,1.359-1.84,2.118-2.689A48.8,48.8,0,0,1,61.484,23.187c2.61-.721,5.281-1.225,7.9-1.906a8.57,8.57,0,0,1,4.85.09c.6.188,1.221.312,1.912.485a5.721,5.721,0,0,1-2.894,2.874c-2.1.887-4.187,1.846-6.36,2.517A138.154,138.154,0,0,1,50.308,31.46c-1.335.237-2.685.382-4.022.615a15.5,15.5,0,0,0-1.673.489M66.121,12.369a7.852,7.852,0,0,1,1.7,2.731c-.774.247-1.422.492-2.088.658q-3.834.962-7.678,1.876A44.09,44.09,0,0,0,43.6,23.82c-3.437,2.3-6.781,4.726-10.168,7.094a6.449,6.449,0,0,1-1.779,1.128c.069-.475.01-.857.172-1.069A39.587,39.587,0,0,1,39.1,23.479a51.647,51.647,0,0,1,12.645-7.067c2.584-1.015,5.191-1.987,7.842-2.806,1.9-.585,3.877-.891,5.825-1.3a2.673,2.673,0,0,1,.712.066m-36.857,4.9a4.465,4.465,0,0,1,.269-2.3,11.284,11.284,0,0,1,2.388-4.018A33.83,33.83,0,0,1,47.483,1.589a11.24,11.24,0,0,1,9.038,1.229,25.612,25.612,0,0,1,8.206,7.672,2.275,2.275,0,0,1,.158.548c-.6.16-1.194.324-1.793.481-1.65.435-3.344.75-4.944,1.327C54.867,14.03,51.6,15.28,48.393,16.64a45.553,45.553,0,0,0-9.554,5.642,33.328,33.328,0,0,0-6.276,6.091c-.345.44-.718.857-1.178,1.407a3.849,3.849,0,0,1-.419-.869c-.578-3.878-1.132-7.758-1.7-11.637m2.582,37.96a15.123,15.123,0,0,1-7.194-4.017,4.829,4.829,0,0,1-1.4-5.431,23.188,23.188,0,0,1,7.314-11.112c1.429-1.166,2.868-2.321,4.34-3.43s3-2.193,4.524-3.248c1.82-1.256,3.64-2.519,5.51-3.7A43.143,43.143,0,0,1,58.1,18.77c3.469-.825,6.908-1.778,10.375-2.614a34.19,34.19,0,0,1,8.725-.722,9.381,9.381,0,0,1,4.26,1.326,3.034,3.034,0,0,1,1.713,3.378,10.94,10.94,0,0,1-.7,2.454,15.236,15.236,0,0,1-3.72,5.182c-.573.536-1.183,1.031-1.933,1.681-.833-1.36-1.979-2.284-2.363-3.681,1.033-1.43,3.085-1.822,3.409-3.869a3.4,3.4,0,0,0-.738-.67c-.687-.33-1.482-.428-1.769-1.357-.067-.22-.751-.39-1.126-.348-1.842.2-3.7.379-5.508.758-2.791.584-5.578,1.228-8.315,2.016A49.612,49.612,0,0,0,36.3,37.511a21.682,21.682,0,0,0-3.914,6.1,5.186,5.186,0,0,0-.572,3.125c.313.506,1.059.463,1.288,1.257a5.235,5.235,0,0,0,3.6,3.393,11.13,11.13,0,0,0,5.986.579c.307.837.593,1.62.873,2.388a10.473,10.473,0,0,1-4.26,1.341,25.183,25.183,0,0,1-7.457-.461M21.258,93.492c-1.181,4.334-2.36,8.671-3.388,13.043-.735,3.121-1.247,6.3-1.822,9.452a14.8,14.8,0,0,0-.141,2.133c-.028.783.017,1.573-.041,2.354-.216,2.957-2.223,4.454-5.118,3.837a4.192,4.192,0,0,1-.817-.247A19.842,19.842,0,0,1,3,119.163a6.666,6.666,0,0,1-1.753-4.533c.339-1.82.576-3.667,1.039-5.455C3.334,105.1,4.5,101.056,5.619,97c.114-.412.275-.811.4-1.221a12.924,12.924,0,0,1,5.868-7.356,3.674,3.674,0,0,1,3.645-.308,19.8,19.8,0,0,1,5.088,3.122,1.915,1.915,0,0,1,.643,2.256m7.815-18.615a75.716,75.716,0,0,0-5.946,13.005c-.347.928-.682,1.861-1.035,2.827a2.039,2.039,0,0,1-.655-.194A23.47,23.47,0,0,0,16.523,87.5a5.01,5.01,0,0,1-.584-.265,1.2,1.2,0,0,1-.558-1.472c.436-1.357.9-2.706,1.42-4.033.88-2.258,1.943-4.455,2.689-6.756,1.867-5.756,5.718-9.792,10.8-12.779a47.923,47.923,0,0,1,11.175-4.8,3.6,3.6,0,0,1,2.286-.289c-.258.877-1.017,1.146-1.729,1.458-1.5.654-3.069,1.189-4.509,1.96-1.941,1.038-4.058,1.716-5.9,2.939a17.44,17.44,0,0,0-3.923,3.581c-.825,1.022-1.9,1.921-2.089,3.359a.851.851,0,0,1-.21.369c-1.467,1.84-2.054,4.12-3.071,6.183-.723,1.467-1.321,3-1.929,4.521a3.11,3.11,0,0,0-.146,1.236c.006.142.263.346.439.394a.665.665,0,0,0,.568-.135,3.675,3.675,0,0,0,.534-.909c.6-1.371,1.206-2.743,1.764-4.132a60.323,60.323,0,0,1,4.876-9.267,3.075,3.075,0,0,1,1.5-1.467c.178-.063.429-.276.43-.423.012-1.385,1.555-1.288,2.064-2.176,2.6-1.145,4.854-2.941,7.567-3.872,1.684-.579,3.314-1.307,4.987-1.923.6-.222.77-.016.964.958-.382.158-.766.338-1.164.475a18.741,18.741,0,0,0-5.56,3.145,43.445,43.445,0,0,0-10.136,11.5m28.447,3.27a30.384,30.384,0,0,0-13.385-9.284,5.424,5.424,0,0,0-4.171.048A53.412,53.412,0,0,0,35.056,71.5c-1.161.679-2.233,1.514-3.33,2.269-.423-.327-.1-.564.034-.748a39.932,39.932,0,0,1,9.39-9.6,32.109,32.109,0,0,1,3.343-1.894,3.236,3.236,0,0,1,2.816-.226c1.2,1.632,3.131,2.646,4.865,3.88a8.52,8.52,0,0,0,2.974,1.126,2.734,2.734,0,0,1,1.745,1.111c4.752,6.844,8.968,13.937,10.273,22.363.1.6.1,1.22.168,2.182a7.313,7.313,0,0,1-1.91-2.392,67.268,67.268,0,0,0-7.9-11.43M87.478,93c-1.067,1.841-1.735,3.908-2.629,5.853a29.258,29.258,0,0,1-10.544,12.649,11.558,11.558,0,0,1-10.622,1.284,22.207,22.207,0,0,1-5-2.412A73.316,73.316,0,0,1,45.439,99.237a8.755,8.755,0,0,1-.563-.758c2.654-6.313,10.045-12.834,15.435-13.59C62.62,87.939,64.9,91.113,67,94.114c.231,1.141-.683,1.842-.33,2.728.041.105.215.156.452.315.1-.143.216-.3.317-.476,1.164-1.965,2.388-3.9,3.473-5.906,4.446-8.224,8.8-16.495,13.3-24.693a11.394,11.394,0,0,0,1.412-6.748,53.455,53.455,0,0,1-.337-7.476,19.646,19.646,0,0,1,1.984-7.386c.044-.094.227-.124.354-.188.391.073.345.422.326.658-.053.639-.184,1.27-.264,1.907a15.1,15.1,0,0,0-.179,1.91c0,.19.31.381.479.571.137-.137.359-.252.4-.412a10.686,10.686,0,0,0,.232-1.477,36.792,36.792,0,0,1,1.835-7.688,14.783,14.783,0,0,1,3.328-5.185,2.994,2.994,0,0,1,2.179-1.046.923.923,0,0,1,.468,1.152c-.226,1.189-.461,2.378-.772,3.547a33.66,33.66,0,0,0-1.3,5.623,4.335,4.335,0,0,1-.362,1.219c-.568,1.377-1.165,2.744-1.738,4.118a1.34,1.34,0,0,0-.113.625c.021.2.106.5.243.553.278.11.507-.033.645-.357.418-.985.946-1.928,1.3-2.933a7.3,7.3,0,0,1,2.58-3.325,11.2,11.2,0,0,1,3.509-2.013,1.267,1.267,0,0,1,1.779.986,12.752,12.752,0,0,1,.02,1.995c-.916.712-1.87,1.443-2.812,2.19a12.068,12.068,0,0,0-3.646,5.2,2.2,2.2,0,0,0-.072,1.04c.017.14.279.25.552.472.382-.762.742-1.438,1.062-2.131a11.238,11.238,0,0,1,4.182-4.763,2.913,2.913,0,0,1,.948-.446,1.017,1.017,0,0,1,1.2,1.29,18.09,18.09,0,0,1-1.241,2.478c-1.019,1.718-2.105,3.4-3.128,5.112a13.4,13.4,0,0,0-.911,1.933,1.716,1.716,0,0,0-.01,1.632c.477.095.584-.248.761-.563q1.832-3.267,3.694-6.515a3.679,3.679,0,0,1,.6-.878c.177-.165.552-.322.724-.239a1.787,1.787,0,0,1,.676.718,1.052,1.052,0,0,1,.015.627,22.23,22.23,0,0,1-2.875,8.657c-1.366,2.174-2.554,4.458-3.85,6.676-.535.92-1.181,1.775-1.711,2.7a10.749,10.749,0,0,0-.858,1.941c-1.083,3.247-1.984,6.562-3.236,9.742-1.511,3.837-2.7,7.809-4.8,11.421m4.3,15.16c-.117-.842-.255-1.681-.345-2.527-.411-3.9-.806-7.794-1.209-11.693-.037-.354-.061-.71-.109-1.062A5.029,5.029,0,0,1,90.7,89.6a29.471,29.471,0,0,0,1.262-2.914,5.95,5.95,0,0,1,.6,2.6c.383,6.326.774,12.653-.779,18.881M111.7,50.3a22.827,22.827,0,0,1-2.689,6.734c-1.262,2.154-2.6,4.27-3.98,6.347a7.307,7.307,0,0,0-1.228,3.364c-.218,1.984-.569,3.955-.818,5.935a67.353,67.353,0,0,0-.789,7.228c-.073,4.23-.7,8.391-1.173,12.573-.231,2.056-.445,4.115-.682,6.171a26.319,26.319,0,0,1-3.768,10.611,8.19,8.19,0,0,1-2.786,2.912,6.607,6.607,0,0,1-.95.356c.113-.853.17-1.544.3-2.222a58.948,58.948,0,0,0,.908-15.987c-.171-2.2-.326-4.414-.6-6.606a20.388,20.388,0,0,0-.86-2.987c.8-2.21,1.681-4.618,2.533-7.037.354-1.008.634-2.042.964-3.059a13.456,13.456,0,0,1,.653-1.8c1.045-2.111,2.127-4.2,3.2-6.3a4.546,4.546,0,0,1,.553-.915,20.29,20.29,0,0,0,3.071-5.368,19.749,19.749,0,0,1,2.619-4.389c1.549-1.959,2.983-4.008,4.477-6.01.283-.38.622-.718,1.2-1.375A17.423,17.423,0,0,1,111.7,50.3m1.153-6.571c-.765,1.367-1.514,2.745-2.353,4.066-.611.961-1.385,1.817-2.033,2.757-.685.994-1.3,2.035-1.96,3.05-.182.283-.394.548-.592.821.242-3.56.2-3.817-1.276-5.625.216-.669.449-1.4.7-2.178l-1.9-1.87c.319-.437.565-.322.787-.132a3.914,3.914,0,0,0,3.575.947,6,6,0,0,1,1.549.093,10.2,10.2,0,0,1,3.528-2.9c.343.347.137.688-.021.974m.782-3.748a2.412,2.412,0,0,1-3.505.938,6.391,6.391,0,0,1-1.956-1.609,7.878,7.878,0,0,1-1.788-5.775,3.359,3.359,0,0,1,.33-1.222,5.172,5.172,0,0,1,4.244-2.831,2.086,2.086,0,0,1,1.9.764,7.762,7.762,0,0,1,2.027,5.009,8.01,8.01,0,0,1-1.248,4.726" transform="translate(0 0)" fill="#1d262d" fill-rule="evenodd"/>
        <path id="Trazado_1356247" data-name="Trazado 1356247" d="M139.136,27.417a.55.55,0,0,0,.443-.313c.17-.744.282-1.5.413-2.254l-.045-.007a1.723,1.723,0,0,0,.067-.619c-.064-.233-.205-.562-.382-.613a.7.7,0,0,0-.611.343,6.055,6.055,0,0,0-.316,3.085.616.616,0,0,0,.433.378" transform="translate(-27.963 -4.762)" fill="#1d262d" fill-rule="evenodd"/>
        <path id="Trazado_1356248" data-name="Trazado 1356248" d="M144.828,26a4.339,4.339,0,0,0-1.347,3.659,8.109,8.109,0,0,0,1.99-3.2c.03-.151-.137-.374-.267-.51a.4.4,0,0,0-.377.055" transform="translate(-28.937 -5.227)" fill="#1d262d" fill-rule="evenodd"/>
        <path id="Trazado_1356249" data-name="Trazado 1356249" d="M147.674,34.85c.242.093.5.288.724.261.585-.073,1.055-.37,1.34-1.28a11.474,11.474,0,0,0-1.67.389c-.187.074-.266.413-.394.63" transform="translate(-29.791 -6.825)" fill="#1d262d" fill-rule="evenodd"/>
        <path id="Trazado_1356250" data-name="Trazado 1356250" d="M87.056,63.626a10.141,10.141,0,0,1-5.169,1.1,9.442,9.442,0,0,1-5.17-1.742c-.037.5-.154.8-.054.973a3.481,3.481,0,0,0,2.047,1.45,11.128,11.128,0,0,0,10.907-1.771,4.494,4.494,0,0,0,1.613-2.218,3.8,3.8,0,0,0,0-1.142,17.225,17.225,0,0,1-4.174,3.346" transform="translate(-15.457 -12.16)" fill="#1d262d" fill-rule="evenodd"/>
        <path id="Trazado_1356251" data-name="Trazado 1356251" d="M85.645,43.585a3.612,3.612,0,0,0,2.864,1.989,5.916,5.916,0,0,1,1.043.211c1.049.328,1.4.874,1.068,1.936-.272.876-.732,1.691-1.093,2.54-.211.5-.7.924-.346,1.8a3.685,3.685,0,0,0,1.978-1.977,6.16,6.16,0,0,0,.9-3.248,2.047,2.047,0,0,0-1.33-2,10.126,10.126,0,0,0-2.05-.546,2.67,2.67,0,0,1-2.015-1.42c-.407-.747-.742-1.533-1.094-2.31-.175-.387-.3-.8-.483-1.182a.39.39,0,0,0-.354-.143c-.166.077-.393.23-.41.375a2.256,2.256,0,0,0,.057,1.046,25.808,25.808,0,0,0,1.268,2.929" transform="translate(-17.003 -7.913)" fill="#1d262d" fill-rule="evenodd"/>
        <path id="Trazado_1356252" data-name="Trazado 1356252" d="M71.08,48.745a2.348,2.348,0,0,0-.689-.224c-.184.255-.489.494-.542.78a2.941,2.941,0,0,0,.707,2.542,1.294,1.294,0,0,0,.9.361c.493-.008.717-.448.738-.874a2.979,2.979,0,0,0-1.118-2.585" transform="translate(-14.08 -9.788)" fill="#1d262d" fill-rule="evenodd"/>
        <path id="Trazado_1356253" data-name="Trazado 1356253" d="M92.741,42.944a2.735,2.735,0,0,0,.589-.607,11.119,11.119,0,0,0-.687-1.825c-.116-.2-.628-.268-.932-.222-.164.026-.367.41-.392.647a2.306,2.306,0,0,0,.857,1.876.627.627,0,0,0,.565.131" transform="translate(-18.42 -8.125)" fill="#1d262d" fill-rule="evenodd"/>
        <path id="Trazado_1356254" data-name="Trazado 1356254" d="M65.97,42.316a2.355,2.355,0,0,0-1.28,1.575c1.049-.121,1.454-.4,2.645-1.761-.514-.373-.96-.064-1.366.186" transform="translate(-13.05 -8.464)" fill="#1d262d" fill-rule="evenodd"/>
        <path id="Trazado_1356255" data-name="Trazado 1356255" d="M18.9,120.4a23.411,23.411,0,0,1-6.941-3.665,7.772,7.772,0,0,0-1.075-.683c-.119-.057-.348.116-.574.2a2.37,2.37,0,0,0,.326.595,20.6,20.6,0,0,0,6.085,3.864,3.211,3.211,0,0,0,2.6.157c-.243-.276-.315-.44-.424-.471" transform="translate(-2.08 -23.409)" fill="#1d262d" fill-rule="evenodd"/>
        <path id="Trazado_1356256" data-name="Trazado 1356256" d="M139.68,38.939a2.312,2.312,0,0,0-3.65.991,8.348,8.348,0,0,0-.27,1.655,7.436,7.436,0,0,0,1.217,4.677,1.85,1.85,0,0,0,2.946.3,5.322,5.322,0,0,0-.244-7.62m-.411,6.494a.81.81,0,0,1-1.409-.077,6.938,6.938,0,0,1-.931-3.764,13.34,13.34,0,0,1,.329-1.576,1.025,1.025,0,0,1,1.445-.454,2.282,2.282,0,0,1,.492.4,4.2,4.2,0,0,1,.074,5.471" transform="translate(-27.387 -7.749)" fill="#1d262d" fill-rule="evenodd"/>
        <path id="Trazado_1356257" data-name="Trazado 1356257" d="M129.9,36.5a1.594,1.594,0,0,0,1.5-.947,1.672,1.672,0,0,0-.49-1.9,2.032,2.032,0,0,0-.51-.207,1.8,1.8,0,0,0-1.484,2.371,1.072,1.072,0,0,0,.982.679m.225-1.548.185.251-.35.117a1.254,1.254,0,0,1-.1-.134c.085-.084.178-.158.27-.233" transform="translate(-25.986 -6.749)" fill="#1d262d" fill-rule="evenodd"/>
      </g>
    </g>
  </g>
</svg>
