<svg xmlns="http://www.w3.org/2000/svg" xmlns:xlink="http://www.w3.org/1999/xlink" width="104.653" height="122.35" viewBox="0 0 104.653 122.35">
  <defs>
    <clipPath id="clip-path">
      <rect id="Rectángulo_457683" data-name="Rectángulo 457683" width="104.653" height="122.35" fill="none"/>
    </clipPath>
  </defs>
  <g id="Grupo_1207592" data-name="Grupo 1207592" transform="translate(6669.326 8076.148)">
    <g id="Grupo_1207422" data-name="Grupo 1207422" transform="translate(-6669.326 -8076.148)">
      <g id="Grupo_1207421" data-name="Grupo 1207421" clip-path="url(#clip-path)">
        <path id="Trazado_1356258" data-name="Trazado 1356258" d="M97.721,27.622c-2.415,3.957-2.048,8.213-1.648,12.55a25.309,25.309,0,0,0,2.552,9.268,4.116,4.116,0,0,1,.171,1.1c-.9.039-1.728.072-2.556.11a19.71,19.71,0,0,0-2.252.135,2.106,2.106,0,0,0-1.757,1.685c-.607,2.367.48,4.031,2.9,4.451,1.164.2,2.336.358,3.494.582a8.541,8.541,0,0,1,1.324.518c-.6.839-1.085,1.522-1.574,2.2-1.255,1.746-2.586,3.444-3.733,5.258a8.192,8.192,0,0,0-1.1,2.982c-.375,2.265-.1,2.713,2.107,4.368a17.147,17.147,0,0,1-1.6,2.988,14,14,0,0,0-2.377,5.247c-.639,2.269-1.56,4.445-2.07,6.766a12.925,12.925,0,0,1-1.7,3.449,5.562,5.562,0,0,1-3.261,2.491c-1.432.464-2.832,1.023-4.252,1.526a4.793,4.793,0,0,0-2.8,2.527c-.5,1.017-1.688,1.789-1.106,3.182-.77,2.459-1.5,4.933-2.331,7.373a26.312,26.312,0,0,1-1.443,3.236c-.62,1.237-1.5,2.107-3.059,1.838-.418-.072-.842-.09-1.331-.139-.313-.936-.614-1.83-.87-2.588-2.29-1.3-3.788.043-5.444,1.408a21.254,21.254,0,0,0-.871-2.221,2.885,2.885,0,0,0-4.63-.892A24.152,24.152,0,0,0,54,112.136c-1.144-.741-1.858-1.962-2.851-2.878a4.269,4.269,0,0,0-4.387-1.308c-.782,1.782-.008,3.679-.581,5.643a3.935,3.935,0,0,1-1.4-.34,7.528,7.528,0,0,0-5.819-1.6c-.859-2.376-1.769-4.658-2.5-7a10.677,10.677,0,0,0-3.2-5.121,14.968,14.968,0,0,1-1.59-1.609,5.036,5.036,0,0,0-2.687-1.671c-1.775-.44-3.516-1.045-5.31-1.371-2.969-.54-5.057-2.147-5.589-5.078a13.956,13.956,0,0,0-5.108-8.629,22.443,22.443,0,0,1-3.306-3.5,27.892,27.892,0,0,1-3.7-7.135c-.055-.139.12-.369.244-.711a14.794,14.794,0,0,1,2.877,2.542,13.172,13.172,0,0,0,6.023,3.611,12.872,12.872,0,0,0,2.865.321,1.392,1.392,0,0,0,1.326-2.027A11.576,11.576,0,0,0,15.8,68.962c-1-.784-1.792-1.832-2.734-2.7-1.578-1.46-3.195-2.879-4.8-4.3-.382-.338-.8-.632-1.5-1.174,1.142-.514,2-.866,2.821-1.278a26.475,26.475,0,0,0,2.549-1.393c1.482-.955,1.685-1.8.981-3.978a14.2,14.2,0,0,0-4.38-.163c-1.361.037-2.714.313-4.216.5a5.6,5.6,0,0,1,.647-3.522c1.655-3.8,1.524-7.777,1.408-11.763A2.4,2.4,0,0,0,5.2,36.687c-.953.361-2.008.762-3.3,1.252a10.277,10.277,0,0,1,1.183-5.209c.387-.768.868-1.5,1.178-2.29A37.986,37.986,0,0,1,16.033,14.921,43.228,43.228,0,0,1,27.712,8.143a12.3,12.3,0,0,1,1.437-.4c.629.45.33.829.121,1.195-.32.561-.684,1.1-.981,1.669-.389.753-1,1.571-.313,2.383.528.63,1.365.505,2.127.371a12.689,12.689,0,0,0,5.364-2.089c1.658-1.191,3.44-2.211,5.184-3.28a9.007,9.007,0,0,1,1.357-.534,13.767,13.767,0,0,1-.383,3.87c-.222,2.135-.39,4.275-.534,6.417-.046.68.208,1.409.97,1.426a2.244,2.244,0,0,0,1.686-.652c1.083-1.6,1.983-3.317,2.968-4.982.465-.789.586-1.841,1.849-2.349a9.528,9.528,0,0,1,.326,1.545c.127,3.842,2.424,6.573,4.761,9.261a1.588,1.588,0,0,0,2.527-.193,3.743,3.743,0,0,0,.956-2.662q-.069-2.584-.052-5.17a7.92,7.92,0,0,1,.224-1.355,1.028,1.028,0,0,1,1.3.42c2.05,2.233,4.822,2.693,7.6,3.142a2.993,2.993,0,0,0,.644.012,1.489,1.489,0,0,0,1.4-2.235c-.662-1.218-1.515-2.333-2.294-3.486C65.633,9.974,65.273,9.5,64.7,8.7a11.565,11.565,0,0,1,4.014,1.147,9.836,9.836,0,0,0,6.948-.224,1.371,1.371,0,0,0,.44-2.511c-.9-.733-1.89-1.362-2.848-2.043.424-.741,1-.434,1.412-.249,3.825,1.726,7.655,3.4,10.771,6.385a58.9,58.9,0,0,1,5.585,5.345A32.384,32.384,0,0,1,95.527,23.6c.609,1.363,1.427,2.632,2.195,4.023M15.134,47.5c0,1.486.061,2.868-.012,4.241-.234,4.383,1.276,8.218,3.535,11.862A6.233,6.233,0,0,0,23,66.645a32.026,32.026,0,0,0,8.012.739,18.844,18.844,0,0,0,2.211-.39c3.6-.707,6.073-3.033,8.337-5.717a13.368,13.368,0,0,0,3.155-8.605c.053-2.471-.069-4.948-.1-7.422-.017-1.389,0-2.779,0-4.441.479-.4,1.047-.894,1.636-1.362,1.713-1.362,2-3.2,1.834-5.231a2.92,2.92,0,0,0-1.218-2.169,3.7,3.7,0,0,0-3.357-.61c-.687.172-1.394.255-2.114.381-.333-1.018-.548-1.841-.87-2.62-1.4-3.4-3.354-4.024-6.549-2.136-.146.087-.389.011-.617.011-.209-.223-.432-.451-.642-.689-2.243-2.536-4.9-2.373-6.9.42-.361.5-.741,1-1.085,1.458a8.315,8.315,0,0,0-4.814-1,3.8,3.8,0,0,0-3.414,2,10.188,10.188,0,0,0-1.479,6.789c.112.912.59,1.835.068,2.921-.444,0-.856,0-1.269,0-3.929-.049-4.848.867-4.657,4.649.114,2.284,1.249,3.434,3.632,3.674.731.074,1.464.136,2.333.217M66.586,24.672c-1.265-.23-2.3-.5-3.36-.6-2.573-.241-5.3,1.256-4.8,4.886.144,1.031.237,2.069.351,3.091-.5.193-.784.331-1.084.412-1.7.458-2.867,1.357-3.068,3.259-.214,2,.2,3.664,2.16,4.579,1.242.58,2.537,1.047,3.95,1.622.046.753.157,1.6.142,2.445a22.22,22.22,0,0,0,1.257,7.606c.591,1.73,1.28,3.426,1.854,5.161a12.2,12.2,0,0,0,3.758,5.146,9.19,9.19,0,0,0,6.159,2.462c1.4.017,2.792.12,4.189.173a9.249,9.249,0,0,0,5.21-1.415,19.682,19.682,0,0,0,6.371-6.717c1.206-1.9,1.787-3.9.838-6.121a3.447,3.447,0,0,1-.23-1.259,27,27,0,0,0-1.274-6.636c-.2-.708-.285-1.447-.413-2.122.35-.454.593-.807.874-1.123a12.47,12.47,0,0,0,.906-.918,4.611,4.611,0,0,0,.964-1.629c.926-4.954-3.031-8.667-6.643-8.3a18.338,18.338,0,0,1-1.894.011c-.656-1.126-1.189-2.187-1.861-3.15-.942-1.349-2.052-1.528-3.635-.754-.54.263-1.1.485-1.75.771-.479-.827-.889-1.45-1.216-2.113-.849-1.721-2.338-1.973-4.058-2a3,3,0,0,0-3.115,2.268,6.663,6.663,0,0,1-.587.961m6.163,68.073c-.789-1.352-1.337-2.382-1.969-3.357a2.364,2.364,0,0,0-3.346-.893,12.987,12.987,0,0,0-1.725,1.228c-2.365-1.209-2.205-1.6-5.788.289-.266-.435-.571-.861-.8-1.325a2.162,2.162,0,0,0-3.05-.894,11.424,11.424,0,0,0-1.911,1.189c-.584.421-1.116.915-1.624,1.338a3.025,3.025,0,0,1-.431-.26c-.155-.151-.3-.314-.437-.478-1.5-1.764-2.25-1.909-4.049-.727-.591.387-1.14.841-1.666,1.233-2.679-2.412-4.071-2.529-6.667-.607a8.33,8.33,0,0,0-2.1,1.985c-.587.9-1.955.16-2.49,1.4,2.622,1.639,3.371,4.349,4.281,6.965a11.56,11.56,0,0,0,.46,1.208,2.6,2.6,0,0,0,3.145,1.631,27.831,27.831,0,0,0,2.807-.913c.482.74.922,1.472,1.414,2.165,2.243,3.148,3.736,3.4,6.912,1.182,3.586,1.285,3.586,1.285,5.86-1.714a16.5,16.5,0,0,0,1.408,1.242c1.267.9,1.94.874,3.185-.085.764-.59,1.486-1.231,2.291-1.9.5.04,1.033.068,1.559.129a3.171,3.171,0,0,0,3.6-2.088,28.148,28.148,0,0,0,1.53-3.887,5.55,5.55,0,0,1,1.14-2.24,12.433,12.433,0,0,0,1.528-2.448,1.158,1.158,0,0,0-.267-1.095,1.268,1.268,0,0,0-1.176.019,12.377,12.377,0,0,0-1.63,1.712M51.4,76.2A16.756,16.756,0,0,1,53.46,78.15a3.807,3.807,0,0,0,3.679,1.491c1.861-.114,2.537-.668,2.694-2.495A9.536,9.536,0,0,0,58.339,71a18.311,18.311,0,0,1-2.848-6.452c-.783-4.118-1.54-8.241-2.306-12.363-.3-1.582-.558-3.172-.892-4.746-.083-.387-.333-.813-1.091-.624a7.83,7.83,0,0,0-.325,1.037C49.862,53.342,48.767,58.82,47.9,64.334a27.667,27.667,0,0,1-2.508,8.618,6.49,6.49,0,0,0-.56,4.4,1.87,1.87,0,0,0,1.766,1.6,3.537,3.537,0,0,0,3-.867c.544-.509,1.037-1.071,1.815-1.885M27.76,88.624c-3.355.753-4.339.037-4.174-2.858a6.493,6.493,0,0,1,.094-.962,2.093,2.093,0,0,1,2.249-1.854c1.722-.055,3.462.113,5.167-.071,1.795-.193,3.8-.275,5.28-1.141a6.614,6.614,0,0,0,3.234-7.06c-.518.224-1.01.28-1.2.546a8.5,8.5,0,0,0-.795,1.743,4.551,4.551,0,0,1-3.98,3.288c-1.174.106-2.337.357-3.511.421a37.879,37.879,0,0,1-4.2.011c-2.76-.153-4,1.409-4.481,4.071a14.137,14.137,0,0,0-.02,3.223,2.8,2.8,0,0,0,1.27,2.144,7.291,7.291,0,0,0,5.867,1.032,1.886,1.886,0,0,0,1.189-.967,11.607,11.607,0,0,0,.79-2.77,1.545,1.545,0,0,0-.466-1.126,2.04,2.04,0,0,0-2.917-.314c.2.887.4,1.765.6,2.644m53.632-2.953a8.092,8.092,0,0,0-.342-1.77,1.238,1.238,0,0,0-.883-.676,1.267,1.267,0,0,0-.917.693c-.792,2.189.3,3.955,2.537,4.152a19.338,19.338,0,0,0,2.256.034c2.154-.065,3.25-1.23,3.558-3.344.566-3.89-4.755-8.332-8.044-7.064a19.107,19.107,0,0,1-2.155.667c-3.32.846-6.4.666-8.879-2.1a13.029,13.029,0,0,0-1.681-1.46c-.279-.219-.945.19-.951.569a1.772,1.772,0,0,0,.093.93c1.694,2.476,3.8,4.387,6.966,4.63a14.52,14.52,0,0,0,6.018-.785A4.676,4.676,0,0,1,85.034,82.8a2.485,2.485,0,0,1-.3,2.867Z" transform="translate(0.354 0.856)" fill="#eae7e7" fill-rule="evenodd"/>
        <path id="Trazado_1356259" data-name="Trazado 1356259" d="M2.945,52.46A20.158,20.158,0,0,1,11.669,58.5a27.014,27.014,0,0,0,2.7,2.72A5.788,5.788,0,0,1,16.791,65.1a5.652,5.652,0,0,1-1.465.076,10.812,10.812,0,0,1-4.919-2.924c-1.9-1.739-3.781-3.491-5.68-5.228-1.2-1.1-1.355-2.592-1.782-4.566" transform="translate(0.549 9.772)" fill="#ff7000" fill-rule="evenodd"/>
        <path id="Trazado_1356260" data-name="Trazado 1356260" d="M46.918,19.175C43.041,16.31,42.781,12.22,42.95,7.882c1.152-.856,2.387-.523,3.581-.33a19.131,19.131,0,0,1,.387,11.623" transform="translate(7.993 1.364)" fill="#ffc900" fill-rule="evenodd"/>
        <path id="Trazado_1356261" data-name="Trazado 1356261" d="M83.315,27.33a22.453,22.453,0,0,1,2.894,7.819c.187,2.675.367,5.351.507,8.029a7.677,7.677,0,0,1-.266,1.58c-1.542-1.235-1.542-1.235-2.4-3.7a30.944,30.944,0,0,1-.733-13.724" transform="translate(15.435 5.091)" fill="#ff7000" fill-rule="evenodd"/>
        <path id="Trazado_1356262" data-name="Trazado 1356262" d="M50.559,4.769c.54-1.84.612-1.944,1.686-1.865a16.057,16.057,0,0,1,6.517,1.6c1.609.86,3.246,1.671,4.845,2.55a8.976,8.976,0,0,1,1.286,1.108,4.179,4.179,0,0,1-3.84.51A31.917,31.917,0,0,1,58.018,7.6c-1.3-.493-2.6-1.026-3.9-1.521-1.184-.452-2.378-.875-3.56-1.31" transform="translate(9.418 0.537)" fill="#ffc900" fill-rule="evenodd"/>
        <path id="Trazado_1356263" data-name="Trazado 1356263" d="M55.47,101.465c-4.261,1.55-8.339.917-12.382.817a2.763,2.763,0,0,1-2.2-1.478,4.819,4.819,0,0,1,3.816-1.76c3.7-.276,7.47-.632,10.764,2.421" transform="translate(7.617 18.416)" fill="#ffc900" fill-rule="evenodd"/>
        <path id="Trazado_1356264" data-name="Trazado 1356264" d="M57.443,13.762a7.347,7.347,0,0,1-5.307-1.649,36.354,36.354,0,0,1-3.551-3.689c-1.065-1.257-.942-1.549.833-3.14a3.661,3.661,0,0,1,1.031.518c2.144,2.083,4.273,4.183,6.357,6.325.307.316.357.885.637,1.635" transform="translate(8.923 0.984)" fill="#ffae00" fill-rule="evenodd"/>
        <path id="Trazado_1356265" data-name="Trazado 1356265" d="M38.993,4.526c-1.365.8-2.195,1.259-3,1.759C33.9,7.593,31.8,8.9,29.727,10.239a6.1,6.1,0,0,1-3.976,1.255c.028-1.453.931-2.23,1.656-3.1,1.9-2.288,4.561-3.115,7.3-3.794,1.184-.3,2.349-.963,4.291-.072" transform="translate(4.797 0.76)" fill="#ffc900" fill-rule="evenodd"/>
        <path id="Trazado_1356266" data-name="Trazado 1356266" d="M38.846,3.99a4.719,4.719,0,0,1,1.278-.648c3.351-.336,6.679-1.2,10.284-.636a5.259,5.259,0,0,1-2.738,3.082,4.541,4.541,0,0,1-2.751.42A11.326,11.326,0,0,1,38.846,3.99" transform="translate(7.236 0.469)" fill="#ff3100" fill-rule="evenodd"/>
        <path id="Trazado_1356267" data-name="Trazado 1356267" d="M4.6,33.321c.542,4.851.413,8.926-1.992,12.852a6.911,6.911,0,0,1-.873-3.605c-.056-1.823,0-3.654.094-5.476.088-1.6.912-2.736,2.771-3.771" transform="translate(0.32 6.207)" fill="#ff7000" fill-rule="evenodd"/>
        <path id="Trazado_1356268" data-name="Trazado 1356268" d="M86.61,51.355c.2,2.167-.683,3.8-1.406,5.36a10.129,10.129,0,0,1-4.123,4.9,3.1,3.1,0,0,1,.241-3.625c1.3-1.941,2.7-3.82,4.089-5.7a6.72,6.72,0,0,1,1.2-.942" transform="translate(15.013 9.566)" fill="#ff7000" fill-rule="evenodd"/>
        <path id="Trazado_1356269" data-name="Trazado 1356269" d="M36.78,14.7a15.97,15.97,0,0,1,1.394-8.666c1.211-.437,1.847.406,2.86.845A24.546,24.546,0,0,1,36.78,14.7" transform="translate(6.834 1.101)" fill="#ffae00" fill-rule="evenodd"/>
        <path id="Trazado_1356270" data-name="Trazado 1356270" d="M11.173,48.224C8.7,50.019,6.127,51.3,3.022,50.783a1.3,1.3,0,0,1,.53-2.007,11.2,11.2,0,0,1,7.131-1.091c.161.033.273.292.49.54" transform="translate(0.514 8.845)" fill="#ffc900" fill-rule="evenodd"/>
        <path id="Trazado_1356271" data-name="Trazado 1356271" d="M40.823,92.985c2.574.824,3.542,2.711,4.713,4.89L41.8,99.05a11.958,11.958,0,0,1-.908-1.628,6.475,6.475,0,0,1-.065-4.438" transform="translate(7.537 17.32)" fill="#8edbc7" fill-rule="evenodd"/>
        <path id="Trazado_1356272" data-name="Trazado 1356272" d="M87.032,48.412c-2.421-.364-4.329-.641-6.231-.955a1.3,1.3,0,0,1-.828-.447,2.137,2.137,0,0,1-.31-1.179.94.94,0,0,1,.53-.709c2.406-.533,4.733-.459,6.618,1.388.268.262.126.944.221,1.9" transform="translate(14.839 8.351)" fill="#ffc900" fill-rule="evenodd"/>
        <path id="Trazado_1356273" data-name="Trazado 1356273" d="M46.844,97.97c.9-1.781,1.348-2.838,1.942-3.8a1.278,1.278,0,0,1,1.661-.572,1.99,1.99,0,0,1,.88,1.208c.225,1.028.273,2.1.415,3.335-1.485.4-2.822-.272-4.9-.168" transform="translate(8.726 17.41)" fill="#74c200" fill-rule="evenodd"/>
        <path id="Trazado_1356274" data-name="Trazado 1356274" d="M40.043,100.132a9.876,9.876,0,0,1-3.745-.756,6.62,6.62,0,0,1-1.553-1.05c-.512-.51-1.026-1.122-.7-1.955.2-.508,1.125-.631,2-.076,1.33.839,2.579,1.808,3.823,2.771.161.125.1.541.17,1.065" transform="translate(6.323 17.869)" fill="#74c200" fill-rule="evenodd"/>
        <path id="Trazado_1356275" data-name="Trazado 1356275" d="M54.7,100.089c-1.791-.809-2.211-1.338-1.709-2.152a17.312,17.312,0,0,1,2.18-2.736.965.965,0,0,1,1.516,1.053c-.566,1.259-1.259,2.459-1.987,3.834" transform="translate(9.834 17.703)" fill="#8edbc7" fill-rule="evenodd"/>
        <path id="Trazado_1356276" data-name="Trazado 1356276" d="M55.074,100.646c1.459-1.7,2.628-2.759,4.311-2.991a.955.955,0,0,1,.795.367,1,1,0,0,1-.074.875,2.5,2.5,0,0,1-.916.845,20.491,20.491,0,0,1-2.617,1.107c-.308.1-.713-.083-1.5-.2" transform="translate(10.259 18.19)" fill="#74c200" fill-rule="evenodd"/>
        <path id="Trazado_1356277" data-name="Trazado 1356277" d="M39.956,44.121c0,1.832-.065,3.664.018,5.492a9.175,9.175,0,0,1-1.393,5.22c-1.758,2.959-3.989,5.329-7.515,6.128-.943.214-1.87.5-2.8.76a6.13,6.13,0,0,1-4.11-.234,8.31,8.31,0,0,0-1.5-.588c-2.836-.577-4.24-2.639-5.543-4.978a17.41,17.41,0,0,1-1.925-10.3,22.9,22.9,0,0,1,6.265-14.513,12.056,12.056,0,0,1,5.832-3.3,10.464,10.464,0,0,1,12.728,9.846c.046,2.154.007,4.309.007,6.462Z" transform="translate(2.811 5.127)" fill="#b9b6b6" fill-rule="evenodd"/>
        <path id="Trazado_1356278" data-name="Trazado 1356278" d="M53.563,37.936c0-1.3.007-2.587,0-3.878-.024-3.75,2.07-6.221,5-8.135a3.947,3.947,0,0,1,2.122-.649,52.006,52.006,0,0,1,6.088.5,4.041,4.041,0,0,1,1.9,1.14c1.344,1.237,2.668,2.51,3.884,3.872a15.03,15.03,0,0,1,3.66,5.648c.206.7.8,1.287,1.064,1.982a17.97,17.97,0,0,1,1.37,4.274,75.257,75.257,0,0,1,.237,7.748,3.188,3.188,0,0,1-.55,1.8,19.09,19.09,0,0,1-5.141,5.29,9.439,9.439,0,0,1-6.774,1.54,31.3,31.3,0,0,1-5.263-1.486,6.03,6.03,0,0,1-3.766-3.751c-.985-2.848-2.247-5.622-2.978-8.532a53.064,53.064,0,0,1-.848-7.368" transform="translate(9.977 4.708)" fill="#b9b6b6" fill-rule="evenodd"/>
        <path id="Trazado_1356279" data-name="Trazado 1356279" d="M15.722,33.727c-1.663-1.929-1.407-4.6.663-7.93,3.2-.843,3.52-.73,4.873,1.763-.962.991-1.961,1.956-2.887,2.988s-1.762,2.109-2.649,3.179" transform="translate(2.726 4.717)" fill="#8edbc7" fill-rule="evenodd"/>
        <path id="Trazado_1356280" data-name="Trazado 1356280" d="M10.1,35.436c1.912-.656,3.259.1,4.567,1.179a2.229,2.229,0,0,1-.629,2.311,3.309,3.309,0,0,1-2.717.643c-1.418-.222-1.7-1.1-1.222-4.133" transform="translate(1.841 6.555)" fill="#ff3100" fill-rule="evenodd"/>
        <path id="Trazado_1356281" data-name="Trazado 1356281" d="M35.492,29.539c.792-.273,1.467-.562,2.17-.735,1.19-.3,1.9.195,2.023,1.354.171,1.6-.071,3-1.96,3.658-1.279-1.09-1.6-2.675-2.233-4.277" transform="translate(6.611 5.349)" fill="#ff3100" fill-rule="evenodd"/>
        <path id="Trazado_1356282" data-name="Trazado 1356282" d="M27.015,25.906a14.407,14.407,0,0,1-3.88.552,3.02,3.02,0,0,1,1.517-3.03,1.593,1.593,0,0,1,2.221.58,2.312,2.312,0,0,1,.269.915,4.787,4.787,0,0,1-.127.983" transform="translate(4.306 4.319)" fill="#ff3100" fill-rule="evenodd"/>
        <path id="Trazado_1356283" data-name="Trazado 1356283" d="M30.025,25.837c1.132-1.746,1.927-1.89,2.792-.628a4.142,4.142,0,0,1,.491,1.141c.052.172-.055.393-.089.591-1.437-.089-1.437-.089-3.195-1.1" transform="translate(5.593 4.541)" fill="#8edbc7" fill-rule="evenodd"/>
        <path id="Trazado_1356284" data-name="Trazado 1356284" d="M74.5,33.724c-1.219-1.389-2.454-2.706-3.581-4.11a1.8,1.8,0,0,1,.142-2.593,2.037,2.037,0,0,1,2.343-.47,4.983,4.983,0,0,1,3.116,5.394c-.1.983-.647,1.537-2.02,1.779" transform="translate(13.12 4.912)" fill="#ff3100" fill-rule="evenodd"/>
        <path id="Trazado_1356285" data-name="Trazado 1356285" d="M52.774,29.129A5.874,5.874,0,0,1,51.2,24.738a2.069,2.069,0,0,1,1.973-2.09,3.239,3.239,0,0,1,2.93.86,1.643,1.643,0,0,1-.047,2.709c-.994.942-2.047,1.821-3.284,2.912" transform="translate(9.535 4.211)" fill="#8edbc7" fill-rule="evenodd"/>
        <path id="Trazado_1356286" data-name="Trazado 1356286" d="M52.679,30.851c-.2,1.273-.389,2.514-.6,3.865a3.91,3.91,0,0,1-3.713-1.494,2.166,2.166,0,0,1-.253-2.4,1.879,1.879,0,0,1,1.777-1.146,2.862,2.862,0,0,1,2.787,1.176" transform="translate(8.917 5.526)" fill="#ff3100" fill-rule="evenodd"/>
        <path id="Trazado_1356287" data-name="Trazado 1356287" d="M58.406,24.459a19.308,19.308,0,0,1,.028-2.686,1.443,1.443,0,0,1,1.241-1.279,1.978,1.978,0,0,1,2.247.773,4.364,4.364,0,0,1,.885,2.886c-.654.1-1.332.24-2.017.3-.632.051-1.272.009-2.384.009" transform="translate(10.873 3.807)" fill="#ff3100" fill-rule="evenodd"/>
        <path id="Trazado_1356288" data-name="Trazado 1356288" d="M68.984,27.481c-1.912-.988-3.769-1.4-3.851-3.855l1.834-1.037C68.891,24.556,69,24.8,68.984,27.481" transform="translate(12.132 4.208)" fill="#8edbc7" fill-rule="evenodd"/>
        <path id="Trazado_1356289" data-name="Trazado 1356289" d="M38.922,82.659l6.133.732c.721,2.006,1.11,4.008-.146,6.017a1.364,1.364,0,0,1-2.179.37,8.912,8.912,0,0,1-1.789-2.227c-.717-1.414-1.225-2.929-2.019-4.892" transform="translate(7.25 15.397)" fill="#fff7e0" fill-rule="evenodd"/>
        <path id="Trazado_1356290" data-name="Trazado 1356290" d="M50.149,82.057a9.664,9.664,0,0,1-4.766.088,8.061,8.061,0,0,1,1.348-4.377,3.223,3.223,0,0,1,2.179-1.508c1.419,1.673,1.365,3.629,1.24,5.8" transform="translate(8.452 14.205)" fill="#fff7e0" fill-rule="evenodd"/>
        <path id="Trazado_1356291" data-name="Trazado 1356291" d="M51.266,82.981a9.93,9.93,0,0,1,4.218-.692c.483,2.17.935,4.243-.977,5.988-.9.823-1.875.668-2.268-.5a16.055,16.055,0,0,1-.973-4.8" transform="translate(9.549 15.318)" fill="#fff7e0" fill-rule="evenodd"/>
        <path id="Trazado_1356292" data-name="Trazado 1356292" d="M46.4,83.235h3.561a7.015,7.015,0,0,1,.106,1.87,27.129,27.129,0,0,1-1.106,3.63,1.267,1.267,0,0,1-.944.679,1.333,1.333,0,0,1-.986-.647,8.273,8.273,0,0,1-.631-5.532" transform="translate(8.605 15.504)" fill="#fff7e0" fill-rule="evenodd"/>
        <path id="Trazado_1356293" data-name="Trazado 1356293" d="M32.674,79.769a5.26,5.26,0,0,1,3.494-3.135,1.352,1.352,0,0,1,1.8.873c.333,1.1.559,2.233.878,3.552-2.354.2-4.364.19-6.169-1.289" transform="translate(6.086 14.257)" fill="#fff7e0" fill-rule="evenodd"/>
        <path id="Trazado_1356294" data-name="Trazado 1356294" d="M61.092,82.648c-.527,1.095-1.02,2.274-1.649,3.376a1.423,1.423,0,0,1-2.413-.107,3.913,3.913,0,0,1-.437-1.2c-.154-.918-.647-1.925.358-2.67,1.263-.937,2.456-.781,4.14.6" transform="translate(10.494 15.173)" fill="#fff7e0" fill-rule="evenodd"/>
        <path id="Trazado_1356295" data-name="Trazado 1356295" d="M43.967,81.965a5.382,5.382,0,0,1-3.694-.195c-.8-2.409-.5-3.191,1.947-5.031,1.792,1.285,1.823,3.144,1.747,5.226" transform="translate(7.428 14.294)" fill="#fff7e0" fill-rule="evenodd"/>
        <path id="Trazado_1356296" data-name="Trazado 1356296" d="M33.529,81.937c1.75-.333,3.222.26,4.727.486a4.066,4.066,0,0,1-.73,3.53,1.454,1.454,0,0,1-2.439-.046,13.481,13.481,0,0,1-1.559-3.97" transform="translate(6.245 15.244)" fill="#fff7e0" fill-rule="evenodd"/>
        <path id="Trazado_1356297" data-name="Trazado 1356297" d="M54.032,77.158A4.3,4.3,0,0,1,55.218,80.4a4.445,4.445,0,0,1-3.148.957c-.489-2.063-.133-2.861,1.962-4.2" transform="translate(9.663 14.372)" fill="#fff7e0" fill-rule="evenodd"/>
        <path id="Trazado_1356298" data-name="Trazado 1356298" d="M56.825,80.547c.228-1.4.26-2.771,1.406-3.9,1.358.735,1.607,1.932,1.951,3.182a2.939,2.939,0,0,1-3.357.72" transform="translate(10.585 14.277)" fill="#fff7e0" fill-rule="evenodd"/>
        <path id="Trazado_1356299" data-name="Trazado 1356299" d="M39.933,66.868a10.18,10.18,0,0,1,.031-2.511,14.952,14.952,0,0,1,3.22-5.5,2.934,2.934,0,0,1,4.68.306A37.8,37.8,0,0,1,50.11,63.05a5.4,5.4,0,0,1,.053,4.533c-.651-.134-1.374-.079-1.779-.41a16.016,16.016,0,0,1-2.179-2.341c-1.511-1.841-1.667-1.859-3.413-.071-.523.535-1.006,1.113-1.558,1.616a5.152,5.152,0,0,1-1.3.491" transform="translate(7.426 10.772)" fill="#b9b6b6" fill-rule="evenodd"/>
        <path id="Trazado_1356300" data-name="Trazado 1356300" d="M44.473,47.4c.662,3.419,1.324,6.836,1.981,10.224-1.9.681-1.9.681-4.428.515-.107-2.211,1-8.392,2.447-10.739" transform="translate(7.827 8.83)" fill="#ffc900" fill-rule="evenodd"/>
        <path id="Trazado_1356301" data-name="Trazado 1356301" d="M.032,48.288c0-1.83.056-3.663-.009-5.494C-.4,30.974,4.968,21.928,13.539,14.375A47.1,47.1,0,0,1,31.318,4.8c1.854-.565,3.712-1.119,5.554-1.72C43.6.887,50.564.307,57.566.007a20.352,20.352,0,0,1,3.2.267C63.01.535,65.25.86,67.5,1.09A35.174,35.174,0,0,1,78.675,4.055,44.567,44.567,0,0,1,95.681,18.07,23.9,23.9,0,0,1,97.389,20.8q1.591,2.808,3.112,5.651a12.048,12.048,0,0,1,1.053,2.349c1.816,6.44,3.415,12.921,3.044,19.7-.076,1.393-.268,2.781-.332,4.174-.095,2.039-.25,4.088-.152,6.122.183,3.795-1.288,7.156-2.56,10.57a27.842,27.842,0,0,1-1.737,3.456A6.87,6.87,0,0,1,98.595,74.7a10.493,10.493,0,0,0-2.168,3.169,5.411,5.411,0,0,1-1.648,2.329c-1.484.817-1.693,2.123-1.926,3.489a32.161,32.161,0,0,0-.422,3.482c-.184,2.97-1.792,5.262-3.569,7.433a5.6,5.6,0,0,1-3.517,2.126,18.991,18.991,0,0,0-2.792.773c-1.6.5-3.081,1.138-3.118,3.179-2.228,4.449-3.508,9.243-5.132,13.915a12.965,12.965,0,0,1-1.6,2.758c-.292.439-.811.73-1.106,1.167-1.677,2.511-4.144,3.291-6.985,3.225-2.378-.053-4.727.463-7.059.514-3.728.085-7.516.314-11.22-.509a5.478,5.478,0,0,1-1.792-.7c-4.781-3.114-8.288-7.2-9.283-12.979a17.952,17.952,0,0,0-2.025-5.394,4.666,4.666,0,0,0-3.515-2.561,24.492,24.492,0,0,1-7.2-2.73c-.954-.492-1.973-.858-2.929-1.348a5.13,5.13,0,0,1-3.222-4.8,10.471,10.471,0,0,0-4.337-8.565,24.508,24.508,0,0,1-6.064-7.055C2.661,69.711.254,63.558.152,56.69c-.042-2.8-.007-5.6-.007-8.4Zm98.043-19.81c-.768-1.39-1.586-2.66-2.195-4.023a32.413,32.413,0,0,0-4.505-7.049,58.885,58.885,0,0,0-5.585-5.344C82.674,9.075,78.843,7.4,75.019,5.677c-.408-.184-.988-.492-1.412.249.959.681,1.948,1.31,2.848,2.043a1.371,1.371,0,0,1-.44,2.511,9.836,9.836,0,0,1-6.948.225,11.539,11.539,0,0,0-4.014-1.148c.574.8.934,1.274,1.268,1.766.779,1.153,1.632,2.268,2.294,3.486a1.489,1.489,0,0,1-1.4,2.235,2.993,2.993,0,0,1-.644-.012c-2.779-.45-5.552-.909-7.6-3.142a1.029,1.029,0,0,0-1.3-.42,7.92,7.92,0,0,0-.224,1.355q-.02,2.585.052,5.17a3.743,3.743,0,0,1-.956,2.662,1.588,1.588,0,0,1-2.527.193c-2.338-2.688-4.634-5.418-4.762-9.261a9.378,9.378,0,0,0-.325-1.543c-1.263.507-1.384,1.56-1.849,2.348-.985,1.666-1.885,3.384-2.968,4.982a2.239,2.239,0,0,1-1.686.652c-.763-.017-1.017-.746-.97-1.426.144-2.14.312-4.281.534-6.417a13.762,13.762,0,0,0,.383-3.87A9.136,9.136,0,0,0,41,8.851c-1.744,1.069-3.526,2.089-5.184,3.28a12.689,12.689,0,0,1-5.364,2.089c-.762.134-1.6.259-2.127-.37-.683-.814-.076-1.631.313-2.384.3-.572.661-1.108.981-1.669.209-.365.508-.745-.121-1.195a12.54,12.54,0,0,0-1.437.4,43.259,43.259,0,0,0-11.679,6.778A37.986,37.986,0,0,0,4.621,31.3c-.31.795-.791,1.522-1.178,2.29A10.277,10.277,0,0,0,2.26,38.795c1.288-.49,2.344-.891,3.3-1.252A2.4,2.4,0,0,1,6.924,40.05c.116,3.985.247,7.966-1.408,11.763a5.6,5.6,0,0,0-.647,3.521c1.5-.189,2.855-.466,4.216-.5a14.235,14.235,0,0,1,4.38.163c.7,2.173.5,3.023-.981,3.978a26.486,26.486,0,0,1-2.549,1.394c-.824.41-1.679.763-2.821,1.276.7.542,1.119.836,1.5,1.174,1.61,1.424,3.227,2.841,4.8,4.3.942.87,1.731,1.918,2.734,2.7a11.576,11.576,0,0,1,3.508,5.316,1.392,1.392,0,0,1-1.326,2.027,12.8,12.8,0,0,1-2.865-.321,13.172,13.172,0,0,1-6.023-3.611,14.75,14.75,0,0,0-2.877-2.541c-.125.34-.3.571-.244.709a27.872,27.872,0,0,0,3.7,7.135,22.451,22.451,0,0,0,3.306,3.5,13.95,13.95,0,0,1,5.108,8.629c.531,2.931,2.619,4.537,5.589,5.077,1.794.326,3.535.931,5.31,1.371a5.043,5.043,0,0,1,2.687,1.671,14.968,14.968,0,0,0,1.59,1.609,10.677,10.677,0,0,1,3.2,5.121c.732,2.337,1.642,4.619,2.5,7a7.527,7.527,0,0,1,5.819,1.6,3.935,3.935,0,0,0,1.4.34c.573-1.964-.2-3.861.581-5.643a4.269,4.269,0,0,1,4.387,1.308c.993.916,1.707,2.136,2.851,2.878a24.051,24.051,0,0,1,2.507-3.11,2.885,2.885,0,0,1,4.63.893,21.122,21.122,0,0,1,.871,2.22c1.656-1.365,3.154-2.711,5.444-1.408.255.758.556,1.652.87,2.588.489.049.913.068,1.331.139,1.555.27,2.439-.6,3.059-1.838a26.232,26.232,0,0,0,1.443-3.236c.829-2.439,1.561-4.914,2.331-7.373-.582-1.392.609-2.165,1.106-3.182a4.793,4.793,0,0,1,2.8-2.527c1.419-.5,2.82-1.062,4.252-1.526a5.56,5.56,0,0,0,3.261-2.49,12.931,12.931,0,0,0,1.7-3.45c.51-2.322,1.431-4.5,2.07-6.766A14,14,0,0,1,94.4,76.681,17.1,17.1,0,0,0,96,73.692c-2.2-1.655-2.482-2.1-2.107-4.368A8.192,8.192,0,0,1,95,66.342c1.147-1.814,2.478-3.511,3.733-5.258.489-.68.975-1.363,1.574-2.2a8.587,8.587,0,0,0-1.324-.518c-1.158-.224-2.33-.381-3.494-.582-2.422-.42-3.51-2.084-2.9-4.451a2.106,2.106,0,0,1,1.757-1.685,19.443,19.443,0,0,1,2.252-.134c.828-.039,1.656-.072,2.556-.112a4.116,4.116,0,0,0-.171-1.1,25.309,25.309,0,0,1-2.552-9.268c-.4-4.337-.769-8.592,1.648-12.55M3.494,62.232C3.921,64.2,4.073,65.7,5.275,66.8c1.9,1.738,3.783,3.489,5.68,5.229a10.812,10.812,0,0,0,4.919,2.924,5.7,5.7,0,0,0,1.465-.076,5.785,5.785,0,0,0-2.426-3.883,27.036,27.036,0,0,1-2.7-2.721,20.166,20.166,0,0,0-8.724-6.038M54.911,20.539a19.131,19.131,0,0,0-.386-11.623c-1.2-.193-2.431-.527-3.581.33-.168,4.338.091,8.43,3.967,11.293M98.75,32.421a30.945,30.945,0,0,0,.733,13.724c.86,2.469.86,2.469,2.4,3.7a7.68,7.68,0,0,0,.266-1.579c-.14-2.679-.319-5.354-.507-8.029a22.436,22.436,0,0,0-2.894-7.819M59.977,5.306c1.18.434,2.375.858,3.56,1.308,1.3.495,2.594,1.028,3.9,1.522,1,.381,2,.8,3.034,1.074A4.173,4.173,0,0,0,74.309,8.7a8.975,8.975,0,0,0-1.285-1.108c-1.6-.88-3.236-1.69-4.846-2.55a16.047,16.047,0,0,0-6.516-1.6c-1.074-.079-1.146.025-1.686,1.865m3.109,114.575c-3.292-3.053-7.059-2.7-10.762-2.421a4.822,4.822,0,0,0-3.817,1.762,2.766,2.766,0,0,0,2.2,1.477c4.044.1,8.121.734,12.381-.817m3.28-105.134c-.28-.75-.33-1.318-.637-1.633-2.084-2.144-4.214-4.242-6.357-6.326a3.725,3.725,0,0,0-1.031-.518c-1.775,1.592-1.9,1.883-.833,3.14a36.367,36.367,0,0,0,3.551,3.69,7.351,7.351,0,0,0,5.307,1.648M43.79,5.286c-1.941-.892-3.107-.224-4.29.071-2.736.68-5.4,1.507-7.3,3.795-.725.871-1.626,1.649-1.656,3.1A6.1,6.1,0,0,0,34.525,11C36.6,9.656,38.7,8.351,40.792,7.045c.8-.5,1.632-.96,3-1.759m2.292-.827a11.345,11.345,0,0,0,6.073,2.218,4.56,4.56,0,0,0,2.751-.42,5.263,5.263,0,0,0,2.738-3.082c-3.605-.567-6.933.3-10.284.635a4.766,4.766,0,0,0-1.278.649M4.923,39.528C3.064,40.563,2.24,41.7,2.152,43.3c-.1,1.822-.149,3.653-.094,5.476a6.911,6.911,0,0,0,.873,3.605c2.4-3.927,2.534-8,1.992-12.852m96.7,21.393a6.73,6.73,0,0,0-1.2.942c-1.391,1.878-2.788,3.756-4.089,5.7a3.1,3.1,0,0,0-.241,3.626,10.138,10.138,0,0,0,4.123-4.905c.722-1.561,1.605-3.192,1.406-5.36M43.613,15.8A24.575,24.575,0,0,0,47.868,7.98c-1.013-.439-1.65-1.282-2.861-.845A15.992,15.992,0,0,0,43.613,15.8M11.687,57.069c-.217-.247-.33-.507-.49-.539a11.192,11.192,0,0,0-7.131,1.09,1.3,1.3,0,0,0-.53,2.007c3.106.521,5.68-.764,8.151-2.559m36.674,53.236a6.468,6.468,0,0,0,.065,4.438,11.888,11.888,0,0,0,.908,1.628l3.74-1.176c-1.171-2.179-2.139-4.065-4.713-4.89m53.51-53.542c-.095-.957.047-1.639-.219-1.9-1.886-1.846-4.214-1.919-6.619-1.388a.942.942,0,0,0-.53.709,2.148,2.148,0,0,0,.31,1.18,1.309,1.309,0,0,0,.828.447c1.9.314,3.81.59,6.231.954M55.57,115.38c2.076-.1,3.413.566,4.9.17-.142-1.237-.19-2.307-.415-3.335a2,2,0,0,0-.88-1.209,1.28,1.28,0,0,0-1.661.572c-.594.966-1.046,2.021-1.942,3.8m-9.2,2.62c-.074-.524-.008-.941-.168-1.065-1.246-.962-2.495-1.932-3.825-2.771-.878-.554-1.8-.432-2,.076-.33.833.184,1.446.7,1.955a6.609,6.609,0,0,0,1.553,1.05,9.876,9.876,0,0,0,3.745.756m18.171-.209c.727-1.375,1.42-2.577,1.987-3.834a.966.966,0,0,0-1.516-1.055,17.352,17.352,0,0,0-2.18,2.736c-.5.815-.082,1.344,1.709,2.153m.8,1.044c.786.12,1.191.3,1.5.2a20.492,20.492,0,0,0,2.617-1.107,2.5,2.5,0,0,0,.916-.845,1,1,0,0,0,.074-.875.955.955,0,0,0-.795-.367c-1.683.231-2.852,1.3-4.311,2.991" transform="translate(0 0)" fill="#36252c" fill-rule="evenodd"/>
        <path id="Trazado_1356302" data-name="Trazado 1356302" d="M14,44.365c-.87-.081-1.6-.144-2.333-.217-2.382-.241-3.518-1.39-3.632-3.674-.191-3.782.728-4.7,4.657-4.65.413.006.826,0,1.269,0,.522-1.084.044-2.007-.068-2.921a10.2,10.2,0,0,1,1.479-6.789,3.8,3.8,0,0,1,3.414-2,8.314,8.314,0,0,1,4.814,1c.345-.46.725-.953,1.087-1.457,2-2.794,4.656-2.957,6.9-.42.211.238.434.466.642.688.228,0,.471.076.617-.011,3.2-1.887,5.145-1.267,6.549,2.136.321.779.536,1.6.87,2.622.72-.126,1.427-.21,2.114-.382a3.7,3.7,0,0,1,3.358.611,2.911,2.911,0,0,1,1.217,2.167c.165,2.03-.121,3.871-1.833,5.231-.588.467-1.157.961-1.636,1.362,0,1.662-.014,3.052,0,4.441.028,2.476.151,4.951.1,7.424a13.376,13.376,0,0,1-3.157,8.605c-2.265,2.682-4.736,5.01-8.336,5.717a18.86,18.86,0,0,1-2.212.389,32.066,32.066,0,0,1-8.011-.738,6.237,6.237,0,0,1-4.348-3.04c-2.259-3.642-3.769-7.478-3.535-11.862.074-1.373.012-2.753.012-4.24m27.279.887h.061c0-2.153.038-4.307-.007-6.462A10.464,10.464,0,0,0,28.6,28.946a12.036,12.036,0,0,0-5.831,3.3A22.894,22.894,0,0,0,16.5,46.756a17.407,17.407,0,0,0,1.925,10.3c1.3,2.338,2.707,4.4,5.543,4.978a8.4,8.4,0,0,1,1.5.588,6.137,6.137,0,0,0,4.11.235c.935-.257,1.86-.548,2.8-.76,3.524-.8,5.757-3.171,7.514-6.129a9.164,9.164,0,0,0,1.393-5.218c-.082-1.828-.018-3.662-.018-5.494m-24.32-10.8c.887-1.071,1.732-2.159,2.649-3.179s1.925-2,2.887-2.988c-1.354-2.494-1.671-2.606-4.873-1.763-2.07,3.331-2.326,6-.663,7.93M10.451,38c-.478,3.032-.2,3.912,1.222,4.134a3.312,3.312,0,0,0,2.717-.643,2.229,2.229,0,0,0,.629-2.312C13.709,38.095,12.363,37.34,10.451,38m30.161-7.1c.632,1.6.954,3.185,2.233,4.277,1.889-.662,2.131-2.059,1.96-3.658-.125-1.159-.833-1.65-2.023-1.354-.7.173-1.376.461-2.17.735M29.83,26.231a4.8,4.8,0,0,0,.128-.983,2.331,2.331,0,0,0-.269-.916,1.6,1.6,0,0,0-2.222-.58,3.024,3.024,0,0,0-1.517,3.03,14.36,14.36,0,0,0,3.88-.55m4.3.152c1.758,1.015,1.758,1.015,3.195,1.1.034-.2.141-.419.089-.591a4.142,4.142,0,0,0-.491-1.141c-.866-1.262-1.661-1.119-2.792.628" transform="translate(1.491 3.995)" fill="#36252c" fill-rule="evenodd"/>
        <path id="Trazado_1356303" data-name="Trazado 1356303" d="M58.314,22.027a6.557,6.557,0,0,0,.587-.961A3,3,0,0,1,62.017,18.8c1.72.027,3.209.279,4.058,2,.329.663.737,1.286,1.217,2.113.649-.285,1.209-.507,1.749-.771,1.582-.773,2.693-.594,3.635.754.674.962,1.205,2.024,1.862,3.15a18.682,18.682,0,0,0,1.894-.009c3.612-.367,7.57,3.345,6.642,8.3a4.593,4.593,0,0,1-.964,1.629,12.694,12.694,0,0,1-.905.918c-.282.317-.526.669-.875,1.123.128.675.217,1.414.414,2.122a27.059,27.059,0,0,1,1.273,6.636,3.448,3.448,0,0,0,.231,1.259c.948,2.217.368,4.223-.837,6.121a19.693,19.693,0,0,1-6.371,6.717,9.253,9.253,0,0,1-5.211,1.415c-1.4-.053-2.791-.157-4.188-.173a9.185,9.185,0,0,1-6.16-2.462,12.188,12.188,0,0,1-3.757-5.146c-.575-1.736-1.265-3.432-1.855-5.161a22.184,22.184,0,0,1-1.256-7.605c.014-.845-.1-1.693-.144-2.446-1.412-.574-2.708-1.042-3.95-1.622-1.959-.915-2.373-2.583-2.16-4.578.2-1.9,1.374-2.8,3.068-3.259.3-.082.585-.219,1.085-.413-.115-1.023-.209-2.061-.352-3.091-.507-3.63,2.225-5.127,4.8-4.886,1.055.1,2.095.365,3.36.6m-3.4,17.116a53.063,53.063,0,0,0,.848,7.368c.731,2.91,1.994,5.683,2.978,8.532a6.032,6.032,0,0,0,3.768,3.751A31.252,31.252,0,0,0,67.77,60.28a9.434,9.434,0,0,0,6.774-1.541,19.07,19.07,0,0,0,5.141-5.288,3.188,3.188,0,0,0,.55-1.8A75.255,75.255,0,0,0,80,43.9a18.027,18.027,0,0,0-1.371-4.274c-.263-.7-.858-1.278-1.064-1.982A15.016,15.016,0,0,0,73.9,32c-1.215-1.362-2.54-2.635-3.884-3.872a4.041,4.041,0,0,0-1.9-1.14,52.006,52.006,0,0,0-6.088-.5,3.943,3.943,0,0,0-2.121.649c-2.927,1.915-5.02,4.386-5,8.135.009,1.291,0,2.581,0,3.878m24.079-4.008c1.374-.242,1.916-.8,2.02-1.779A4.981,4.981,0,0,0,77.9,27.961a2.037,2.037,0,0,0-2.343.47,1.8,1.8,0,0,0-.142,2.593c1.127,1.4,2.362,2.721,3.581,4.11m-25.31-5.3c1.237-1.091,2.29-1.969,3.284-2.912a1.642,1.642,0,0,0,.047-2.709,3.239,3.239,0,0,0-2.93-.86,2.072,2.072,0,0,0-1.973,2.091,5.878,5.878,0,0,0,1.572,4.39m-.713,3.037A2.862,2.862,0,0,0,50.184,31.7a1.879,1.879,0,0,0-1.777,1.146,2.166,2.166,0,0,0,.253,2.4,3.913,3.913,0,0,0,3.713,1.494c.209-1.351.4-2.592.6-3.865m7.683-8.111c1.113,0,1.752.042,2.384-.009.684-.055,1.363-.2,2.017-.3a4.364,4.364,0,0,0-.885-2.886,1.98,1.98,0,0,0-2.247-.773,1.443,1.443,0,0,0-1.241,1.279,19.308,19.308,0,0,0-.028,2.686M72.49,28.187c.015-2.683-.093-2.925-2.017-4.892L68.64,24.332c.082,2.452,1.938,2.867,3.851,3.855" transform="translate(8.626 3.501)" fill="#36252c" fill-rule="evenodd"/>
        <path id="Trazado_1356304" data-name="Trazado 1356304" d="M67.6,79.727a12.332,12.332,0,0,1,1.63-1.713,1.275,1.275,0,0,1,1.176-.019,1.158,1.158,0,0,1,.267,1.095,12.441,12.441,0,0,1-1.528,2.45A5.543,5.543,0,0,0,68,83.779a28.148,28.148,0,0,1-1.53,3.887,3.172,3.172,0,0,1-3.6,2.087c-.526-.061-1.057-.088-1.558-.129-.805.673-1.528,1.316-2.292,1.9-1.246.96-1.918.983-3.185.087a16.725,16.725,0,0,1-1.408-1.243c-2.274,3-2.274,3-5.86,1.715C45.392,94.3,43.9,94.053,41.656,90.9c-.492-.693-.932-1.425-1.414-2.165a27.831,27.831,0,0,1-2.807.913,2.6,2.6,0,0,1-3.145-1.631,11.439,11.439,0,0,1-.46-1.206c-.91-2.617-1.66-5.325-4.281-6.966.535-1.244,1.9-.5,2.49-1.4a8.309,8.309,0,0,1,2.1-1.985c2.6-1.922,3.988-1.8,6.667.606.526-.391,1.075-.845,1.666-1.233,1.8-1.182,2.545-1.037,4.049.728.14.163.281.327.437.477a2.808,2.808,0,0,0,.431.26c.508-.424,1.04-.917,1.624-1.338a11.417,11.417,0,0,1,1.911-1.187,2.163,2.163,0,0,1,3.05.893c.23.464.535.89.8,1.326,3.583-1.89,3.422-1.5,5.788-.291a13.208,13.208,0,0,1,1.725-1.228,2.365,2.365,0,0,1,3.346.893c.632.975,1.18,2.006,1.969,3.358M40.668,84.181c.794,1.962,1.3,3.478,2.018,4.891A8.923,8.923,0,0,0,44.475,91.3a1.365,1.365,0,0,0,2.18-.37c1.256-2.01.867-4.012.146-6.018-1.949-.233-3.724-.442-6.133-.731M53.1,82.386c.126-2.169.179-4.125-1.24-5.8a3.228,3.228,0,0,0-2.18,1.508,8.067,8.067,0,0,0-1.346,4.377,9.664,9.664,0,0,0,4.766-.088m2.215,2.037a16.018,16.018,0,0,0,.973,4.8c.393,1.167,1.367,1.322,2.268.5,1.912-1.746,1.46-3.819.977-5.988a9.89,9.89,0,0,0-4.218.692m-5.81.44a8.274,8.274,0,0,0,.631,5.532,1.328,1.328,0,0,0,.986.645,1.262,1.262,0,0,0,.944-.677,27.093,27.093,0,0,0,1.106-3.631,7.009,7.009,0,0,0-.106-1.868ZM33.256,80.15c1.8,1.479,3.815,1.486,6.169,1.289-.32-1.319-.546-2.451-.878-3.552a1.353,1.353,0,0,0-1.8-.873,5.263,5.263,0,0,0-3.494,3.135m32.825,3.795c-1.685-1.38-2.878-1.536-4.14-.6-1,.745-.514,1.752-.358,2.67a3.91,3.91,0,0,0,.435,1.2,1.424,1.424,0,0,0,2.414.107c.629-1.1,1.121-2.281,1.649-3.376m-20.19-1.562c.076-2.082.045-3.941-1.747-5.226C41.7,79,41.4,79.779,42.2,82.188a5.382,5.382,0,0,0,3.694.195M34.27,83.3a13.43,13.43,0,0,0,1.56,3.969,1.452,1.452,0,0,0,2.438.047A4.064,4.064,0,0,0,39,83.79c-1.505-.225-2.978-.819-4.727-.485m23.92-5.65c-2.095,1.339-2.451,2.138-1.962,4.2a4.455,4.455,0,0,0,3.148-.957,4.3,4.3,0,0,0-1.186-3.243m3.715,3.293a2.939,2.939,0,0,0,3.357-.72c-.344-1.249-.593-2.446-1.951-3.182-1.146,1.131-1.178,2.5-1.406,3.9" transform="translate(5.504 13.876)" fill="#36252c" fill-rule="evenodd"/>
        <path id="Trazado_1356305" data-name="Trazado 1356305" d="M44.688,69.576c-.777.814-1.27,1.376-1.814,1.885a3.538,3.538,0,0,1-3,.867,1.869,1.869,0,0,1-1.766-1.6,6.482,6.482,0,0,1,.559-4.4,27.637,27.637,0,0,0,2.509-8.618c.872-5.514,1.967-10.992,2.98-16.483a7.877,7.877,0,0,1,.326-1.037c.757-.189,1.008.237,1.09.624.336,1.574.6,3.164.892,4.747.768,4.121,1.523,8.245,2.307,12.362a18.3,18.3,0,0,0,2.848,6.452,9.53,9.53,0,0,1,1.492,6.148c-.155,1.826-.833,2.38-2.694,2.495a3.812,3.812,0,0,1-3.679-1.492,16.67,16.67,0,0,0-2.056-1.953m-4.4.585a5.217,5.217,0,0,0,1.3-.49c.552-.5,1.034-1.081,1.558-1.617,1.746-1.787,1.9-1.769,3.413.072a16.068,16.068,0,0,0,2.179,2.339c.406.331,1.128.276,1.779.41a5.4,5.4,0,0,0-.053-4.532,37.8,37.8,0,0,0-2.247-3.891,2.933,2.933,0,0,0-4.68-.307,14.962,14.962,0,0,0-3.22,5.5,10.182,10.182,0,0,0-.031,2.511M45.23,48.756C43.783,51.1,42.676,57.284,42.783,59.5c2.526.166,2.526.166,4.428-.515-.657-3.388-1.319-6.806-1.981-10.224" transform="translate(7.07 7.478)" fill="#36252c" fill-rule="evenodd"/>
        <path id="Trazado_1356306" data-name="Trazado 1356306" d="M24.707,77.62c-.2-.879-.4-1.757-.6-2.644a2.04,2.04,0,0,1,2.917.314,1.542,1.542,0,0,1,.466,1.125,11.591,11.591,0,0,1-.79,2.77,1.888,1.888,0,0,1-1.189.968,7.291,7.291,0,0,1-5.867-1.032,2.8,2.8,0,0,1-1.27-2.144,14.148,14.148,0,0,1,.02-3.224c.482-2.661,1.72-4.223,4.481-4.07a38.169,38.169,0,0,0,4.2-.011c1.174-.064,2.337-.316,3.511-.422a4.548,4.548,0,0,0,3.98-3.288,8.495,8.495,0,0,1,.795-1.741c.186-.266.677-.321,1.2-.546a6.616,6.616,0,0,1-3.234,7.06c-1.482.866-3.485.948-5.28,1.141-1.706.184-3.445.017-5.167.07A2.094,2.094,0,0,0,20.626,73.8a6.509,6.509,0,0,0-.094.963c-.165,2.894.82,3.611,4.174,2.858" transform="translate(3.407 11.861)" fill="#36252c" fill-rule="evenodd"/>
        <path id="Trazado_1356307" data-name="Trazado 1356307" d="M71.346,74.657h3.337a2.485,2.485,0,0,0,.3-2.867,4.676,4.676,0,0,0-6.067-2.658,14.52,14.52,0,0,1-6.018.785c-3.164-.243-5.272-2.154-6.966-4.63a1.772,1.772,0,0,1-.093-.93c.006-.38.673-.789.951-.569a13.028,13.028,0,0,1,1.681,1.46c2.483,2.766,5.559,2.947,8.879,2.1a19.107,19.107,0,0,0,2.155-.667c3.29-1.268,8.61,3.174,8.044,7.064-.307,2.114-1.4,3.279-3.558,3.344a19.338,19.338,0,0,1-2.256-.034c-2.235-.2-3.33-1.963-2.537-4.152a1.267,1.267,0,0,1,.917-.693,1.238,1.238,0,0,1,.883.676,8.092,8.092,0,0,1,.342,1.77" transform="translate(10.4 11.87)" fill="#36252c" fill-rule="evenodd"/>
      </g>
    </g>
  </g>
</svg>
