<svg xmlns="http://www.w3.org/2000/svg" xmlns:xlink="http://www.w3.org/1999/xlink" width="80.895" height="122.35" viewBox="0 0 80.895 122.35">
  <defs>
    <clipPath id="clip-path">
      <rect id="Rectángulo_456846" data-name="Rectángulo 456846" width="80.895" height="122.35" fill="none"/>
    </clipPath>
  </defs>
  <g id="Grupo_1207593" data-name="Grupo 1207593" transform="translate(6382.746 8076.148)">
    <g id="Grupo_1206975" data-name="Grupo 1206975" transform="translate(-6382.746 -8076.148)">
      <g id="Grupo_1206855" data-name="Grupo 1206855" clip-path="url(#clip-path)">
        <path id="Trazado_1296725" data-name="Trazado 1296725" d="M77.427,15.963c.682.907,1.367,1.81,1.988,2.762a9.562,9.562,0,0,1,1.4,6.51,69.722,69.722,0,0,1-1.995,9.6c-.922,3.588-1.86,7.172-2.871,10.736-1.594,5.618-3.064,11.27-4.756,16.861-1.489,4.918-2.958,9.844-4.158,14.845-.794,3.313-1.964,6.517-2.862,9.8-1.691,6.182-3.572,12.31-5.783,18.325A68.576,68.576,0,0,1,53,117.436a12.545,12.545,0,0,1-2.907,3.524,5.534,5.534,0,0,1-2.813,1.176,47.3,47.3,0,0,1-6.193.2,69.419,69.419,0,0,1-14.622-1.4,71.414,71.414,0,0,1-15.824-5.27,16.521,16.521,0,0,1-6.911-6.334A25.636,25.636,0,0,1,.064,97.412,34.442,34.442,0,0,1,1.507,85.943c1.711-6.381,3.626-12.708,5.521-19.038,2.087-6.969,4.185-13.937,6.08-20.962.486-1.805,1-3.6,1.589-5.377,1.037-3.1,1.962-6.24,2.9-9.372,1.928-6.427,4.314-12.7,6.5-19.037a28.627,28.627,0,0,1,4.557-8.183,10.987,10.987,0,0,1,4.262-3.4A6.617,6.617,0,0,1,36.536.061c3.506.462,7.021.89,10.483,1.62A108.554,108.554,0,0,1,65.693,6.92,31.608,31.608,0,0,1,73.98,11.7a9.562,9.562,0,0,1,1.939,2.14c.477.724,1,1.416,1.509,2.121" transform="translate(0 0)" fill-rule="evenodd"/>
        <path id="Trazado_1296726" data-name="Trazado 1296726" d="M6.463,105.281a11.671,11.671,0,0,1-2.021-8.764,64.558,64.558,0,0,1,2.036-9.894c3.429-11.584,6.886-23.162,10.184-34.784,2.105-7.419,4.408-14.777,6.751-22.119,1.551-4.858,3.268-9.674,5.048-14.46A29.032,29.032,0,0,1,32.74,7.714,11.2,11.2,0,0,1,34.668,5.83,6.575,6.575,0,0,1,39.93,4.438,145.715,145.715,0,0,1,54.7,7.144c2.1.535,4.2,1.074,6.3,1.644a52.878,52.878,0,0,1,10.631,4.09A23.229,23.229,0,0,1,76.312,16.1a5.47,5.47,0,0,1,1.948,5.081,158.309,158.309,0,0,1-4.877,23.492c-1.329,4.618-2.517,9.277-3.746,13.923-.538,2.035-1.213,4.027-1.866,6.025C66.093,69.764,64.73,75,63.133,80.164c-1.617,5.23-3.323,10.43-5.079,15.614-1.564,4.615-3.172,9.214-4.979,13.74-.445,1.115-.941,2.211-1.439,3.3a10.175,10.175,0,0,1-2.457,3.254,7.365,7.365,0,0,1-4.448,2.068,19.779,19.779,0,0,1-5.179-.125c-4.634-.82-9.286-1.536-13.837-2.771a75.942,75.942,0,0,1-10.852-3.808,31.424,31.424,0,0,1-7-4.6,12.855,12.855,0,0,1-1.4-1.56" transform="translate(-2.871 -2.904)" fill="#b6c1a2" fill-rule="evenodd"/>
        <path id="Trazado_1296727" data-name="Trazado 1296727" d="M170.591,53.787a8.985,8.985,0,0,1,2.294,7.361,75.327,75.327,0,0,1-1.793,8.617q-1.3,5.09-2.713,10.152c-1.675,5.974-3.234,11.981-5.039,17.92-1.64,5.394-3.026,10.863-4.589,16.278-1.775,6.152-3.4,12.351-5.456,18.423-1.059,3.127-1.932,6.317-3.162,9.387-.806,2.013-1.617,4.025-2.472,6.017a39.823,39.823,0,0,1-3.194,5.886c-.9,1.394-1,1.377-1.964.1-.682-.907-1.346-1.827-2.023-2.737-.2-.264-.325-.5.008-.765,2.484-1.944,3.574-4.758,4.693-7.55,2.508-6.26,4.6-12.667,6.753-19.053,2.439-7.243,4.567-14.581,6.7-21.918.857-2.947,1.913-5.836,2.746-8.789,1.368-4.848,2.555-9.748,3.956-14.586,1.356-4.685,2.541-9.406,3.428-14.2.589-3.18,1.193-6.361,1.57-9.577a2,2,0,0,1,.257-.965" transform="translate(-93.542 -35.866)" fill="#b2c48a" fill-rule="evenodd"/>
        <path id="Trazado_1296728" data-name="Trazado 1296728" d="M54.214,327.926a5.157,5.157,0,0,1-2.378.631,77.879,77.879,0,0,1-8.4.084A66.381,66.381,0,0,1,33,327.484a73.017,73.017,0,0,1-16.04-5.238,15.145,15.145,0,0,1-6.624-6.313,21.059,21.059,0,0,1-1.566-3.013c-.131-.338-.246-.683-.446-1.243a5.807,5.807,0,0,1,1.192,1.113,28.3,28.3,0,0,0,8.208,5.265,79.876,79.876,0,0,0,13.516,4.332c3.776.873,7.595,1.5,11.427,2.047a19.7,19.7,0,0,0,5.289.058,7.73,7.73,0,0,0,2.576-.764c.248-.127.487-.27.7.028.987,1.374,1.969,2.751,2.984,4.171" transform="translate(-5.548 -207.831)" fill="#b2c48a" fill-rule="evenodd"/>
        <path id="Trazado_1296729" data-name="Trazado 1296729" d="M84.15,39.208a6.3,6.3,0,0,1,.925,2.667,25.128,25.128,0,0,1-.571,8.347c-.915,5.032-2.366,9.931-3.652,14.87-1.16,4.456-2.421,8.886-3.607,13.335-1.686,6.32-3.313,12.655-5.025,18.968a88.618,88.618,0,0,1-4.353,12.781c-.715,1.614-1.527,3.186-2.317,4.766a5.954,5.954,0,0,1-5.259,3.273,19.713,19.713,0,0,1-4.867-.485A109.11,109.11,0,0,1,41.766,114.2c-4.219-1.265-8.423-2.577-12.54-4.153-.964-.369-1.955-.669-2.937-.99a7.535,7.535,0,0,1-1.925-1.051,2.388,2.388,0,0,1-.94-1.809,11.255,11.255,0,0,1,.083-3.29c.714-3.98,1.8-7.868,2.869-11.763,2.247-8.21,4.919-16.287,7.563-24.374.466-1.425.838-2.884,1.2-4.342,1.169-4.764,2.425-9.508,3.818-14.208a87.975,87.975,0,0,1,6.561-16.211c1.5-2.84,3.918-3.964,6.974-3.977a31.641,31.641,0,0,1,8.7,1.236,127.668,127.668,0,0,1,13.351,4.56,73.658,73.658,0,0,1,6.78,2.971,8.49,8.49,0,0,1,2.835,2.409" transform="translate(-15.565 -18.692)" fill-rule="evenodd"/>
        <path id="Trazado_1296730" data-name="Trazado 1296730" d="M200.893,37.985a3.619,3.619,0,0,1,2.89,1.453,8.18,8.18,0,0,1,1.633,3.823,30.7,30.7,0,0,1,.249,8.078,57.618,57.618,0,0,1-3.039,13.743c-.828,2.607-1.624,5.224-2.455,7.83a4.472,4.472,0,0,1-1.079,2.161c-.309-.312-.158-.644-.115-.94a40.035,40.035,0,0,1,1.212-4.954,84,84,0,0,0,2.548-10.907,74.3,74.3,0,0,0,1.155-12.741,12.544,12.544,0,0,0-1.018-5.058,5.468,5.468,0,0,0-1.385-1.678,1.4,1.4,0,0,1-.6-.81" transform="translate(-132.63 -25.329)" fill="#fdfffd" fill-rule="evenodd"/>
        <path id="Trazado_1296731" data-name="Trazado 1296731" d="M157.216,19.031a1.272,1.272,0,0,1,.179,1.32,6.5,6.5,0,0,1-1.012,1.716c-.443.572-1.012.641-1.788.263a43.533,43.533,0,0,0-8.234-3.061,43.832,43.832,0,0,0-6.828-1.5,1.065,1.065,0,0,1-1.032-1.391,12.651,12.651,0,0,1,.986-2.613c.239-.543.8-.527,1.316-.419,1.435.3,2.88.56,4.3.925a63.407,63.407,0,0,1,9.091,3.052,18.141,18.141,0,0,1,2.25,1.083,2.255,2.255,0,0,1,.772.621" transform="translate(-92.333 -8.862)" fill="#060606" fill-rule="evenodd"/>
        <path id="Trazado_1296732" data-name="Trazado 1296732" d="M68.64,295.7a2.934,2.934,0,0,1,.318,2.267,12.648,12.648,0,0,1-1.86,4.072,1.738,1.738,0,0,1-1.463.738,7.347,7.347,0,0,1-2.665-.344c-2.478-.791-4.954-1.59-7.419-2.42a2.306,2.306,0,0,1-1.875-2.6,9.265,9.265,0,0,1,1.241-4.582,1.532,1.532,0,0,1,1.639-.907,41.517,41.517,0,0,1,10.557,2.595A3.366,3.366,0,0,1,68.64,295.7" transform="translate(-35.791 -194.651)" fill="#060606" fill-rule="evenodd"/>
        <path id="Trazado_1296733" data-name="Trazado 1296733" d="M18.75,257.154a1.711,1.711,0,0,1-1.219-.479,12.96,12.96,0,0,1-5.26-9.072,35.472,35.472,0,0,1,1.013-12.3,40.219,40.219,0,0,1,1.725-5.744,7.852,7.852,0,0,1,1.2-2.182c.108-.129.212-.286.4-.231.247.071.234.305.229.494a4.259,4.259,0,0,1-.249,1.168,53.657,53.657,0,0,0-2.309,18.769,12.911,12.911,0,0,0,3.564,8.276,4.239,4.239,0,0,1,.9,1.3" transform="translate(-8.062 -151.457)" fill="#fdfffd" fill-rule="evenodd"/>
        <path id="Trazado_1296734" data-name="Trazado 1296734" d="M86.848,10.55a28.125,28.125,0,0,0-2.635,1.62,13.717,13.717,0,0,0-4.051,4.742,28.7,28.7,0,0,0-2.033,4.449c-.13.356-.214,1-.621.887-.495-.137-.209-.752-.146-1.134A15.478,15.478,0,0,1,78.488,17.5a13.356,13.356,0,0,1,3.738-5.469,14.54,14.54,0,0,1,4.2-2.253,1.257,1.257,0,0,1,.292-.065c.261-.025.575-.108.68.226.088.28-.2.376-.378.509-.053.04-.113.071-.17.106" transform="translate(-51.493 -6.456)" fill="#fcfdfc" fill-rule="evenodd"/>
        <path id="Trazado_1296735" data-name="Trazado 1296735" d="M116.466,9.519a2.809,2.809,0,0,1,3.868.83,2.729,2.729,0,0,1-.573,3.821,2.857,2.857,0,0,1-3.881-.835,2.715,2.715,0,0,1,.587-3.816" transform="translate(-76.918 -6.046)" fill="#060606" fill-rule="evenodd"/>
        <path id="Trazado_1296736" data-name="Trazado 1296736" d="M186.526,171.483c-.238.189-.391.115-.466-.129a3.042,3.042,0,0,1-.056-1.289,36.45,36.45,0,0,1,.815-4.022c.411-1.685.663-3.409,1.224-5.058a9,9,0,0,1,.7-1.55c.136-.239.33-.454.641-.361a.648.648,0,0,1,.433.618,3.247,3.247,0,0,1-.037.7,13.481,13.481,0,0,1-.624,2.729c-.86,2.424-1.542,4.9-2.2,7.385a2.355,2.355,0,0,1-.426.979" transform="translate(-124.002 -106.058)" fill="#fcfdfd" fill-rule="evenodd"/>
        <path id="Trazado_1296737" data-name="Trazado 1296737" d="M125.521,318.959a1.25,1.25,0,0,1,.105,1.107c-.513,2.73-3.4,6.486-7.333,6.4a7.084,7.084,0,0,1-1.985-.113c-.181-.056-.414-.122-.394-.376s.254-.267.453-.285a8.923,8.923,0,0,0,2.919-.621,11.374,11.374,0,0,0,5.77-5.428c.112-.23.115-.529.465-.688" transform="translate(-77.293 -212.687)" fill="#fbfcfc" fill-rule="evenodd"/>
        <path id="Trazado_1296738" data-name="Trazado 1296738" d="M28.758,190.2a1.025,1.025,0,0,1,.031.784q-.231,1.071-.482,2.139-.723,3.108-1.452,6.215a4.037,4.037,0,0,1-.529,1.285.525.525,0,0,1-.584.285.56.56,0,0,1-.436-.491,3.2,3.2,0,0,1,.018-1.191c.166-.746.308-1.5.537-2.228.632-2,1.3-3.982,1.965-5.968a5.439,5.439,0,0,1,.405-.908c.128-.23.311-.208.527.079" transform="translate(-16.843 -126.671)" fill="#fafcfb" fill-rule="evenodd"/>
        <path id="Trazado_1296739" data-name="Trazado 1296739" d="M104.011,338.3c.053.2.04.375-.138.45a1.191,1.191,0,0,1-.576.123c-.759-.1-1.514-.238-2.269-.369a.3.3,0,0,1-.279-.244A.251.251,0,0,1,101,338a12.345,12.345,0,0,1,2.783.154c.087.015.162.1.229.149" transform="translate(-67.181 -225.37)" fill="#e8f3ed" fill-rule="evenodd"/>
        <path id="Trazado_1296740" data-name="Trazado 1296740" d="M51.51,33.406a7.228,7.228,0,0,1,4.261-.987,31.2,31.2,0,0,1,7.7,1.155,125.665,125.665,0,0,1,13.35,4.555c2.163.879,4.334,1.732,6.463,2.7a5.223,5.223,0,0,1,3.192,4.58,27,27,0,0,1-.715,7.94c-1,5.423-2.513,10.725-3.988,16.024C78.9,79.69,76.376,90.1,73.48,100.414A81.3,81.3,0,0,1,67.447,116.5c-.016.03-.029.06-.042.091-.959,2.338-2.851,3.12-5.208,3.1a23.189,23.189,0,0,1-3.372-.434A76.8,76.8,0,0,1,48.9,116.88c-5.507-1.617-11-3.281-16.407-5.208-1.256-.448-2.486-.971-3.745-1.408a1.68,1.68,0,0,1-1.206-1.84,14.438,14.438,0,0,1,.223-2.589c.669-3.3,1.5-6.57,2.388-9.822.554-2.027,1.025-4.083,1.683-6.076,2.124-6.432,3.909-12.97,6.155-19.362.731-2.08,1.155-4.249,1.747-6.369,1.54-5.526,2.747-11.147,4.7-16.557a108.88,108.88,0,0,1,5-11.89,9.111,9.111,0,0,1,2.068-2.353" transform="translate(-18.367 -21.615)" fill="#def2f9" fill-rule="evenodd"/>
        <path id="Trazado_1296741" data-name="Trazado 1296741" d="M142.9,19.035c.063-.2.107-.364.16-.52.125-.369.149-.9.406-1.065.38-.244.9.029,1.354.122a41.858,41.858,0,0,1,5.707,1.517,77.19,77.19,0,0,1,7.441,2.932c.12.058.239.119.355.185a.774.774,0,0,1,.03,1.386c-.175.125-.323.041-.466-.023-.519-.229-1.025-.486-1.547-.708a54.269,54.269,0,0,0-13.162-3.723,1.926,1.926,0,0,1-.278-.1" transform="translate(-95.289 -11.57)" fill="#b8b8b8" fill-rule="evenodd"/>
        <path id="Trazado_1296742" data-name="Trazado 1296742" d="M59.138,296.656a.845.845,0,0,1,.61-.141,14.6,14.6,0,0,1,3.928.638,30.9,30.9,0,0,1,5.539,1.676c1.282.573,1.532,1.083,1.1,2.427a16.186,16.186,0,0,1-1.276,2.706.8.8,0,0,1-.826.428,7.775,7.775,0,0,1-2.16-.372q-3.467-1.13-6.931-2.271c-.914-.3-1.05-.487-1.046-1.44a8.486,8.486,0,0,1,.876-3.357,2.087,2.087,0,0,1,.182-.294" transform="translate(-38.729 -197.718)" fill="#dead6c" fill-rule="evenodd"/>
        <path id="Trazado_1296743" data-name="Trazado 1296743" d="M122.353,15.069c-.338.848-.685,1.1-1.355.967a1.542,1.542,0,0,1-1.218-1.4,1.018,1.018,0,0,1,.592-1.066,1.038,1.038,0,0,1,1.344.265.485.485,0,0,1-.24.157c-.285.1-.772-.044-.769.412,0,.493.492.532.869.619.255.058.522-.038.777.05" transform="translate(-79.87 -8.958)" fill="#b2b2b2" fill-rule="evenodd"/>
        <path id="Trazado_1296744" data-name="Trazado 1296744" d="M123.427,15.771c-.622.465-1.184.149-1.731-.155a.557.557,0,0,1-.278-.679.611.611,0,0,1,.59-.448,7.178,7.178,0,0,1,.782.045c.416.308.812.626.637,1.238" transform="translate(-80.944 -9.659)" fill="#f8f8f8" fill-rule="evenodd"/>
        <path id="Trazado_1296745" data-name="Trazado 1296745" d="M62.421,302.157c-.633-.457-.5-1.037-.247-1.6a2.513,2.513,0,0,1,2.583-1.5,7.4,7.4,0,0,1,2.8.681c.528.279,1.11.455,1.646.72a2.194,2.194,0,0,1,1.06.845c-.392.292-.688.078-.995-.016a26.034,26.034,0,0,0-3.568-.948c-1.954-.308-2.628.046-3.278,1.826" transform="translate(-41.318 -199.403)" fill="#f9f9f9" fill-rule="evenodd"/>
        <path id="Trazado_1296746" data-name="Trazado 1296746" d="M90.36,125.818c-.4.241-.768-.02-1.138-.066-.49-.061-.977-.152-1.462-.245a.343.343,0,0,1-.306-.337c0-.187.149-.278.315-.334a2.607,2.607,0,0,1,2.592.982" transform="translate(-58.316 -83.193)" fill="#eed8d8" fill-rule="evenodd"/>
        <path id="Trazado_1296747" data-name="Trazado 1296747" d="M94.068,104.9c-7.844-2.006-16.1,2.037-19.9,9.089a17.148,17.148,0,0,0-1.75,12.468c.827,2.911,3.079,6.641,6.247,7.324-.757,1.728-.72,3.716-.895,5.6-.265,2.87-.46,5.742-.607,8.621a.725.725,0,0,0,1.3.477,64.944,64.944,0,0,1,4.857-6.23c1.75-2.095,3.523-5,5.858-6.429a1.1,1.1,0,0,0,.279-.242c3.194.8,7.015-1.021,9.56-2.823a15.643,15.643,0,0,0,6.341-9.406,15.309,15.309,0,0,0-11.3-18.453m4.518,27.257A10.425,10.425,0,0,1,95,133.565c-.123-.462-.322-.9-.426-1.372a5.7,5.7,0,0,1-.106-1.756.143.143,0,0,0-.284-.025,5.731,5.731,0,0,0,.256,3.255c-.379.062-.759.11-1.142.15.01-.311-.015-.629-.03-.919a2.8,2.8,0,0,0-.369-1.58.1.1,0,0,0-.175.031,3.757,3.757,0,0,0-.017,1.426c.019.351-.009.73,0,1.1-1.185.105-2.4.172-3.7.38a.554.554,0,0,0-.215.084.692.692,0,0,0-.687.5c-.953,2.371-3.428,4.608-5.068,6.523-1.413,1.65-2.8,3.332-4.323,4.887.142-2.248.3-4.495.485-6.739.158-1.884.584-3.8.224-5.647a.436.436,0,0,0,.352-.616c-1.253-2.408-3.5-4.056-4.782-6.533a13.114,13.114,0,0,1-.447-11.438,15.633,15.633,0,0,1,29.981,7.343,12.718,12.718,0,0,1-5.943,9.539" transform="translate(-47.946 -69.606)"/>
        <path id="Trazado_1296748" data-name="Trazado 1296748" d="M105.557,133.921c-2.684,1.251-3.845,5.922-3.2,8.488.839,3.315,6,4.989,8.57,2.74,2.66-2.331,4.238-6.36,2.14-9.545-1.141-1.733-6.1-3.763-7.514-1.682m3.958,10.555a3.947,3.947,0,0,1-3.418-.555,3.169,3.169,0,0,1-1.981-3.547,10.258,10.258,0,0,1,.8-3.363,9.858,9.858,0,0,1,.792-1.291.516.516,0,0,0,.457-.221,2.972,2.972,0,0,1,1.342-1.055.575.575,0,0,1,.154.125.149.149,0,0,0,.247-.159l-.031-.078c2.314-.551,5.248,1.758,5.6,3.947a5.989,5.989,0,0,1-3.958,6.2" transform="translate(-68.139 -88.712)"/>
        <path id="Trazado_1296749" data-name="Trazado 1296749" d="M145.525,175.509c-.17-.115-.41.119-.253.275.294.292.7.9,1.143.915a.2.2,0,0,0,.213-.236c-.1-.446-.748-.713-1.1-.954" transform="translate(-96.836 -117.011)"/>
        <path id="Trazado_1296750" data-name="Trazado 1296750" d="M151,167.392c-.277-.165-.575-.2-.787-.465-.188-.235-.509.055-.35.294.234.348.691.678,1.112.456a.167.167,0,0,0,.025-.285" transform="translate(-99.902 -111.252)"/>
        <path id="Trazado_1296751" data-name="Trazado 1296751" d="M103.46,196.277c-.512-.112-.687.214-1.031.526-.094.085-.027.278.113.24.456-.125.837-.1,1.02-.6a.122.122,0,0,0-.1-.161" transform="translate(-68.272 -130.866)"/>
        <path id="Trazado_1296752" data-name="Trazado 1296752" d="M104.539,190.417a.251.251,0,0,0-.175.471,2.236,2.236,0,0,0,.78.231.225.225,0,0,0,.148-.4,2.2,2.2,0,0,0-.753-.3" transform="translate(-69.485 -126.964)"/>
        <path id="Trazado_1296753" data-name="Trazado 1296753" d="M83.51,149.273c-.2-.057-.32.245-.115.31a2.266,2.266,0,0,0,.963.191c.074-.008.08-.1.032-.144a2.211,2.211,0,0,0-.88-.357" transform="translate(-55.537 -99.533)"/>
        <path id="Trazado_1296754" data-name="Trazado 1296754" d="M138.476,115.812a.583.583,0,0,0-.411,1.042.194.194,0,0,0,.241-.031.229.229,0,0,0,.145.1c.585.107.591-1.005.025-1.107" transform="translate(-91.909 -77.219)"/>
        <path id="Trazado_1296755" data-name="Trazado 1296755" d="M141.937,124.627a1.561,1.561,0,0,0-.429.137c-.219.092-.061.412.156.33a1.579,1.579,0,0,0,.4-.2c.132-.1.015-.288-.127-.27" transform="translate(-94.29 -83.103)"/>
      </g>
    </g>
  </g>
</svg>
