<svg xmlns="http://www.w3.org/2000/svg" xmlns:xlink="http://www.w3.org/1999/xlink" width="188" height="175.498" viewBox="0 0 188 175.498">
  <defs>
    <clipPath id="clip-path">
      <rect id="Rectángulo_457678" data-name="Rectángulo 457678" width="180.006" height="172.498" fill="none"/>
    </clipPath>
  </defs>
  <g id="Grupo_1207592" data-name="Grupo 1207592" transform="translate(-1225.711 -1487.502)">
    <g id="Grupo_1207591" data-name="Grupo 1207591">
      <g id="Grupo_1207411" data-name="Grupo 1207411">
        <rect id="Rectángulo_457185" data-name="Rectángulo 457185" width="188" height="163" rx="20" transform="translate(1225.711 1500)" fill="#f0b068"/>
        <g id="Grupo_1207410" data-name="Grupo 1207410" transform="translate(1226 1487.502)">
          <g id="Grupo_1207409" data-name="Grupo 1207409" clip-path="url(#clip-path)">
            <path id="Trazado_1356078" data-name="Trazado 1356078" d="M195.644,174.644c-.2-2.021-.3-4.054-.441-6.081-.026-.354-.084-.707-.138-1.136-.221.161-.361.209-.4.3-1.043,2.261-2.2,4.48-3.066,6.807a35.077,35.077,0,0,1-2.775,5.62,25.041,25.041,0,0,1-4.3,5.1,2.789,2.789,0,0,1-1.764.723,5.4,5.4,0,0,1-4.62-1.691,24.626,24.626,0,0,1-3.506-4.482,47.156,47.156,0,0,1-5.06-11.481c-.907-3.01-1.712-6.05-2.584-9.073-.379-1.317-.807-2.622-1.193-3.877-.925-.558-1.774-1.05-2.6-1.579a12.03,12.03,0,0,1-3.623-3.556,51.593,51.593,0,0,0-3.576-4.913,5.963,5.963,0,0,1-1.244-2.425,3.76,3.76,0,0,0-1.213-2.126,4.425,4.425,0,0,1-1.266-2.187,1.914,1.914,0,0,1,.946-2.354,6.5,6.5,0,0,1,1.831-.645,9.848,9.848,0,0,1,1.581-.1l3.553-2.114c-.722-1.736-1.427-3.476-3.077-4.62-1.075-.745-2.136-1.515-3.174-2.311a25.312,25.312,0,0,1-2.083-1.775,2.736,2.736,0,0,1-.584-1.007,1.233,1.233,0,0,1,.859-1.7,5.633,5.633,0,0,1,4.206.3,21.414,21.414,0,0,1,5.889,4.213c1.476,1.488,2.84,3.085,4.264,4.628.576.624,1.176,1.227,1.761,1.839,1.038,1.093,2.143,2.13,3.1,3.292a17.537,17.537,0,0,1,3.234,7.312c.4,1.716.613,3.482.863,5.234a4.633,4.633,0,0,0,.549,1.856c1.479,2.4,2.925,4.819,4.382,7.229.1.167.2.331.441.715a12.1,12.1,0,0,0,.351-1.17q.777-4.457,1.527-8.91a1.965,1.965,0,0,0,.066-.959,8.1,8.1,0,0,1-.174-3.891,66.5,66.5,0,0,1,1.909-11.428c.211-.753.466-1.5.745-2.234.08-.211.316-.364.67-.751a34.7,34.7,0,0,1-.9,5.033c-.242,1.554-.538,3.1-.742,4.66-.21,1.613-.451,3.227-.536,4.857a16.647,16.647,0,0,0,4.106,1.017,20.539,20.539,0,0,1,6.094,1.47,11.265,11.265,0,0,1,4.247,2.77,3.753,3.753,0,0,0,.53.42c.14-.117.225-.154.227-.194.243-4.515.574-9.028.682-13.546a72.978,72.978,0,0,0-.6-11.776,20.217,20.217,0,0,0-4.384-9.749c-.067-.085-.221-.1-.348-.159-.4.184-.218.551-.234.844-.052,1.044-.026,2.1-.141,3.137a4.083,4.083,0,0,1-1.538,2.871,1.306,1.306,0,0,1-1.636.147c-.218-.142-.434-.293-.654-.435a1.361,1.361,0,0,0-1.311-.132l-1.095.44a3.475,3.475,0,0,1-2.682-.066,6.724,6.724,0,0,1-1.041-.55,2.22,2.22,0,0,0-2.4-.032c-1.263.67-1.444.6-2.337-.411a8.274,8.274,0,0,0-.636-.748,2.7,2.7,0,0,0-3.063-.67c-.121.053-.239.107-.359.159a1.707,1.707,0,0,1-2.238-.656c-.278-.363-.5-.773-.785-1.128a10.914,10.914,0,0,0-.85-.842c-.388.231-.73.411-1.045.629-.27.184-.5.432-.766.615-.78.531-1.432.271-1.555-.635-.072-.518-.079-1.046-.1-1.57-.014-.382,0-.767,0-1.123-.666-.267-.871.286-1.209.529a2.219,2.219,0,0,1-2.08.653,15.007,15.007,0,0,1-1.613-5.1,52.463,52.463,0,0,1-.133-5.46c-1.61.86-3.125,1.728-4.693,2.485-1.533.739-3.126,1.354-4.683,2.047-1.5.664-2.98,1.36-4.473,2.034a13.443,13.443,0,0,0-7.26,8.343,26.157,26.157,0,0,0-1.473,5.278,2.506,2.506,0,0,0,.606,2.346,3.614,3.614,0,0,1,1.1,3.013,1.479,1.479,0,0,0,.286.915,12.607,12.607,0,0,1,1.967,4.643,5.537,5.537,0,0,0,.536-.885,30.889,30.889,0,0,0,1.694-6.855,20.758,20.758,0,0,1,.374-2.129c.069-.317.213-.624.625-.618.063.108.18.219.17.313a37.267,37.267,0,0,1-1.94,10A28.623,28.623,0,0,0,144.5,139.2a4.084,4.084,0,0,0-.062,2.126,7.153,7.153,0,0,1-.211,4.437,4.166,4.166,0,0,0,.19,2.837c1.494,3.778,2.985,7.556,4.435,11.353a30.221,30.221,0,0,1,1.171,3.748c.564,2.369.007,4.177-1.124,6.394a7.185,7.185,0,0,1-4.733,3.681s.2,9.76.264,9.992c.12.014,6.311,3.157,23.93,3.947s27.273-.4,28.4-.79c.005-3.124-.806-9.178-1.113-12.283" transform="translate(-20.762 -15.482)" fill="#ff6590"/>
            <path id="Trazado_1356079" data-name="Trazado 1356079" d="M110.593,120.8a11.356,11.356,0,0,0-5.443,4.7,7.787,7.787,0,0,0-.851,1.545,1.66,1.66,0,0,0,.75,2.2,16.614,16.614,0,0,0,1.495.736,6.809,6.809,0,0,0-.55,1.067,5.272,5.272,0,0,0-.308,1.519c-.01,1.836.906,2.659,2.707,2.481.378-.037.75-.139,1.214-.227-.766,1.18-1.469,2.265-2.3,3.545-1.4.179-3.023.319-4.619.6-1.671.3-3.318.752-4.982,1.118a35.728,35.728,0,0,0-4.937,1.1c.367.26.555.5.754.509a9.536,9.536,0,0,0,2.146-.087c1.86-.377,3.7-.833,5.55-1.272,1.968-.467,3.934-.951,5.906-1.431a6.268,6.268,0,0,0,.982,1.492,6.742,6.742,0,0,0,1.642.75,2.4,2.4,0,0,0,1.147,2.5c.273.152.387.653.5,1.016a116.253,116.253,0,0,1,3.352,13.538c.71,4.065,1.277,8.154,1.934,12.23a27.964,27.964,0,0,0,1.832,7.015,5.766,5.766,0,0,1,.236,1.247c-.379.062-.677.135-.98.157-1.5.107-3.012.152-4.509.309a79.847,79.847,0,0,1-20.192-.616,6.179,6.179,0,0,0-3.812.4,17.861,17.861,0,0,1-2.837.77c-2.263.658-4.512,1.366-6.777,2.017a65.587,65.587,0,0,1-8.263,1.737c-.84.129-1.667.33-2.666.529a5.525,5.525,0,0,0-3.056-.577c-2.1,0-4.193-.006-6.289-.009a69.853,69.853,0,0,1-10.381-.753c-1.034-.156-2.047-.452-3.079-.618a3.786,3.786,0,0,0-1.723-.028,7.9,7.9,0,0,1-2.718.267,50.335,50.335,0,0,0-9.588.708,1.811,1.811,0,0,1-.5-.1c-.089-.3-.224-.662-.3-1.032-.66-3.14-1.372-6.271-1.949-9.425a114.151,114.151,0,0,0-3.453-12.283c-.417-1.378-.9-2.74-1.315-4.118a2.453,2.453,0,0,1,.007-1.906,3.409,3.409,0,0,0,.126-1.144c.024-.252-.05-.6.088-.74.722-.733.441-1.582.364-2.414-.095-1.038-.183-2.074-.276-3.132.7-.683,1.389-1.309,1.316-2.351a4.667,4.667,0,0,0-1.032-2.7c-.738-.917-1.419-1.879-2.2-2.917a10.224,10.224,0,0,0,1.079-.777A5.914,5.914,0,0,0,25,136.664a1.5,1.5,0,0,0-.4-2.111c-1.184-.929-2.4-1.82-3.661-2.645a4.307,4.307,0,0,0-3.74-.461c-3.323-4.281-14.093-24.972-15.614-30.013a2.664,2.664,0,0,1,1.453-.253,3.253,3.253,0,0,0,2.337-.832,1.611,1.611,0,0,1,.885-.317,106.156,106.156,0,0,0,15.315-3.488,23.532,23.532,0,0,1,9.521-.739c5.934.574,11.87,1.163,17.809,1.689,1.564.138,3.144.093,4.716.078A14.108,14.108,0,0,0,58.4,96.534c2.211-.812,4.468-1.5,6.644-2.392,1.933-.792,3.8-1.748,5.661-2.706a94.222,94.222,0,0,1,15.46-6.266,5.52,5.52,0,0,1,2.874-.122,142.561,142.561,0,0,0,14.716,2.53,32.882,32.882,0,0,0,5.491.169,4.99,4.99,0,0,1,3.844,1.284,6.254,6.254,0,0,1-.114,1.076,49.731,49.731,0,0,0-1.3,8.144c-.255,2.673-.382,5.359-.584,8.039a7.96,7.96,0,0,1-.285,1.934,10.8,10.8,0,0,0-.45,3.884q.12,3.637.242,7.271c.013.451,0,.9,0,1.428M25.869,103.6a8.014,8.014,0,0,0,.156,1.093c.385,1.248.773,2.5,1.2,3.732,2.642,7.593,5.434,15.136,7.676,22.865.4,1.38.94,2.717,1.431,4.069a3.36,3.36,0,0,0,.852,1.483c.132-.161.281-.267.264-.333C34.627,125.4,30.525,114.72,26.427,104.04c-.053-.139-.269-.216-.559-.436m11.774,44.184c.057.445.1.9.178,1.338,1.014,5.6,2.074,11.2,3.04,16.814.668,3.872,1.205,7.764,1.809,11.646a4.283,4.283,0,0,0,.269.918c.026.067.215.082.333.1a.175.175,0,0,0,.138-.1,2.341,2.341,0,0,0,.135-.745c-.174-1.5-.361-2.989-.572-4.482-.906-6.42-2.151-12.782-3.424-19.138a23.835,23.835,0,0,0-1.906-6.352m26.381-2.878-.411-.009c0,.512-.042,1.026.007,1.532.311,3.19.626,6.38.974,9.568q.693,6.338,1.44,12.674c.224,1.882.509,3.755.816,5.626.048.286.035.8.733.757-.84-9.864-2.358-19.627-3.344-29.448a3.739,3.739,0,0,0-.216-.7m28.224,5.776a1.184,1.184,0,0,0-.578.933c-.157,1.69-.424,3.381-.422,5.073,0,2.743.2,5.487.294,8.23.1,2.68.151,5.36.248,8.038a7.957,7.957,0,0,0,.324,2.651c.631-.1.574-.547.573-.914-.012-2.875.054-5.758-.088-8.628-.235-4.7-.448-9.407-.25-14.116a11.078,11.078,0,0,0-.1-1.267M61.964,132.3a6.691,6.691,0,0,0,0-.938c-1.752-8.328-3.447-16.666-4.785-25.074a15.976,15.976,0,0,0-.44-1.653,4.638,4.638,0,0,0-.087,1.795c.685,5.589,1.481,11.162,2.643,16.676.487,2.305.974,4.61,1.476,6.913a3.886,3.886,0,0,0,1.2,2.281m26.683-34.81h-.2a17.308,17.308,0,0,0-.156,1.926c.071,2.614.1,5.231.295,7.838.261,3.517.67,7.024.993,10.541.3,3.318.583,6.641.885,9.961.026.295-.043.68.554.84a30.553,30.553,0,0,0-.051-4.062q-.8-8.3-1.6-16.59a86.7,86.7,0,0,1-.622-9.39,9.53,9.53,0,0,0-.1-1.063M40.665,144.972a2.41,2.41,0,0,0,1.912.435c2.081-.209,4.169-.379,6.23-.716,3.805-.623,7.553-1.575,11.405-1.929a18.147,18.147,0,0,0,1.863-.361,2.008,2.008,0,0,0-1.193-.258,51.777,51.777,0,0,0-8.373.93,73.25,73.25,0,0,1-11.049,1.6,3.634,3.634,0,0,0-.8.3m25.664-2.943c1.488.165,2.971.437,4.463.477,3.72.1,7.445.135,11.166.134,1.631,0,3.263-.129,4.89-.238a3.028,3.028,0,0,0,1.985-.7c-1.546,0-2.782,0-4.018,0s-2.482.011-3.723.012-2.481,0-3.722-.005-2.483,0-3.723-.015-2.483-.061-3.723-.049c-1.191.009-2.4-.526-3.6.382m-29.961,4c-.3-.44-.35-.607-.44-.631a35.128,35.128,0,0,0-6.967-.757c-.161-.011-.346.3-.519.462.167.169.32.467.5.488,1.618.173,3.24.319,4.862.428.771.054,1.547.011,2.561.011" transform="translate(-0.235 -12.58)" fill="#e0efe2" fill-rule="evenodd"/>
            <path id="Trazado_1356080" data-name="Trazado 1356080" d="M190.467,108.349a4.754,4.754,0,0,1-.67-.348,2.331,2.331,0,0,0-2.41-.319c-.182.071-.389.083-.564.166a3.063,3.063,0,0,1-3-.256c-.171-.1-.348-.183-.522-.276a3.006,3.006,0,0,0-3-.041c-.229.116-.474.2-.71.3-.823-.367-1.162-1.264-2.051-1.527a6.153,6.153,0,0,0-3.271-.269,1.566,1.566,0,0,1-1.831-.8,10.593,10.593,0,0,0-.913-1.28,1.532,1.532,0,0,0-2.107-.4c-.451.224-.873.5-1.293.75-.147-.193-.279-.287-.28-.382-.006-.981-.061-1.969.031-2.942.228-2.477.529-4.949.792-7.424.082-.782.191-1.564.2-2.349.092-6.226.292-12.457-.184-18.677-.285-3.725-.55-7.452-.931-11.165a49.274,49.274,0,0,0-2.771-12.438,5.324,5.324,0,0,0-1.141-2.212c-.595.428.059.885-.16,1.281-.107.027-.262.116-.325.074-.691-.495-1.392-.98-2.041-1.527a11.819,11.819,0,0,0-3.742-2.462c-1.511-1.42-3.544-1.953-5.23-3.075-1.09-.725-2.216-1.409-3.23-2.231a5.784,5.784,0,0,1-2.426-3.593,5.565,5.565,0,0,0-.957.906c-2.41,3.978-4.867,7.926-6.452,12.345A28.644,28.644,0,0,0,137.95,55.3a36.193,36.193,0,0,0,2.336,16.2,16.859,16.859,0,0,0,1.491,2.975c1.793,2.889,3.369,5.954,6.063,8.166a30.485,30.485,0,0,0,3.324,2.436,10.713,10.713,0,0,0,8.656,1.477,5.117,5.117,0,0,1,.808-.084,7.713,7.713,0,0,1,1.237,4.084,7.906,7.906,0,0,1-3.423,2.587c-1.909.861-3.853,1.653-5.779,2.479-1.144.491-2.293.97-3.424,1.491a17.551,17.551,0,0,0-7.152,5.36,4.824,4.824,0,0,1-.694.641,3.482,3.482,0,0,1-.768-2.019c-.119-1.239-.3-2.479-.313-3.723A65.524,65.524,0,0,0,139.3,88.2c-.555-3.694-1.191-7.375-1.85-11.051-.323-1.8-.847-3.571-1.159-5.377-.736-4.257-1.4-8.527-2.1-12.791a41.209,41.209,0,0,1-.506-8.622c.256-5.415.39-6.036,2.508-11.009a8.99,8.99,0,0,1,.942-1.718A30.427,30.427,0,0,1,146.159,29a45.7,45.7,0,0,1,11.6-5.232,18.427,18.427,0,0,1,12.672.894c4.17,1.858,9.884,7.229,11.986,11.295a34.092,34.092,0,0,1,2.986,8.3,100.327,100.327,0,0,1,2.488,17.692c.073,1.825.461,3.635.655,5.459.272,2.541.506,5.086.736,7.631.434,4.834,1.19,9.622,1.929,14.417a55.385,55.385,0,0,1,.911,9.382c-.02,1.174.181,2.35.253,3.527a11.427,11.427,0,0,1-.175,3.717,2.872,2.872,0,0,1-1.73,2.27m-6.616-10.441.358.013c.042-.913.106-1.828.121-2.742a133.978,133.978,0,0,0-.549-13.95c-.579-6.661-1.346-13.3-2.161-19.939a89.03,89.03,0,0,0-5.227-19.916c-.047-.129-.243-.2-.626-.5.2.9.314,1.531.491,2.139.382,1.323.793,2.633,1.2,3.947a72.713,72.713,0,0,1,3.026,13.2c.571,4.882,1.228,9.755,1.759,14.642.4,3.649.7,7.31.957,10.971.215,3.138.282,6.287.433,9.43.043.9.142,1.8.218,2.7m-7.612-1.124c.109-.01.219-.024.326-.034.023-.256.066-.511.066-.768-.007-.851-.018-1.7-.043-2.551-.262-8.576-.832-17.131-1.666-25.672-.457-4.692-.9-9.381-1.642-14.038a67.292,67.292,0,0,0-2-8.6,1.444,1.444,0,0,0-.656-1.021c-.074.168-.129.23-.121.284.059.386.106.778.2,1.153a101.974,101.974,0,0,1,2.631,15.669c.348,3.781.716,7.56,1.026,11.345.342,4.175.631,8.355.941,12.534q.4,5.386.8,10.773c.021.31.084.617.13.927M140.795,78.476c.335,1.256.694,2.508,1,3.77a62.1,62.1,0,0,1,1.171,8.555,16.935,16.935,0,0,0,.641,3.459c.526-5.644-.761-13.146-2.808-15.784m14.778-49.562a7.824,7.824,0,0,0,2.222,1.4c.664.415,1.357.787,2,1.23.7.478,1.367,1.006,2.03,1.536.611.491,1.183,1.03,1.8,1.512a7.519,7.519,0,0,0,1.908,1.447c-1.738-3.3-6.882-7.064-9.959-7.128M135.986,48.408c.2-.187.331-.255.371-.361.609-1.578,1.151-3.188,1.826-4.736.906-2.088,1.913-4.132,2.874-6.2a.27.27,0,0,0-.009-.182.5.5,0,0,0-.115-.129c-1.5,1.418-2.4,3.019-3.873,7.105a10.939,10.939,0,0,0-1.074,4.5M162.4,41.623c-.436-.476-.865-.96-1.31-1.424q-2.782-2.9-5.568-5.781c-.409-.421-.825-.836-1.256-1.232-.206-.191-.444-.23-.63.057,2.027,3.165,6.2,7.325,8.765,8.38m9.259-6.65a14.914,14.914,0,0,0-6.388-7,9.815,9.815,0,0,0-1.795-.773,4.329,4.329,0,0,0-1.122-.014c1.381.846,2.543,1.451,3.577,2.222a31.863,31.863,0,0,1,3.086,2.717c.924.9,1.765,1.895,2.642,2.846" transform="translate(-19.8 -3.414)" fill="#ef9559" fill-rule="evenodd"/>
            <path id="Trazado_1356081" data-name="Trazado 1356081" d="M92.5,51.874a12.876,12.876,0,0,0,.03,5.5,117.822,117.822,0,0,0,3.055,12.59c.218.754.541,1.475.814,2.212a5.19,5.19,0,0,1,.093,3.833,3.573,3.573,0,0,1-.815.05,8.486,8.486,0,0,0-4.423.553q-3.419,1.23-6.839,2.452c-.239.085-.49.129-.7.181-.145-.152-.269-.227-.313-.337-.814-2.056-1.62-4.116-2.409-6.13,1.822-1.647,3.728-3.158,5.364-4.919a49.162,49.162,0,0,0,3.612-4.877.645.645,0,0,0,.037-.383c0-.054-.069-.106-.175-.256-.187.083-.458.126-.595.285a34.074,34.074,0,0,0-2.86,3.487,11.748,11.748,0,0,1-3.046,3.3A28.165,28.165,0,0,1,72.917,74.29a10.214,10.214,0,0,1-6.689-.769A27.449,27.449,0,0,1,58.811,68.1a4.57,4.57,0,0,1-.622-.757,58.224,58.224,0,0,1-5.077-8.626,34.049,34.049,0,0,1-2.121-7.139,48.97,48.97,0,0,1-1.164-9.541,12.46,12.46,0,0,1,.411-3.3,34.182,34.182,0,0,1,2.194-6.085,4.012,4.012,0,0,1,3.348-2.349c.777-.1,1.56-.2,2.323-.375a6.73,6.73,0,0,1,5.266.946c1.269.8,2.589,1.527,3.859,2.33a5.071,5.071,0,0,1,.995.933c.742.833,1.434,1.707,2.2,2.518a18.093,18.093,0,0,0,2,1.889A5.83,5.83,0,0,0,77.591,39.7a11.8,11.8,0,0,0,1.149-.271,5.513,5.513,0,0,1,4.879.687q.926.56,1.846,1.125c1.681,1.038,3.389,1.4,5.29.132.2-.381.483-.9.745-1.42.116-.233.159-.5.287-.725a1.668,1.668,0,0,1,2.648-.582,4.561,4.561,0,0,1,1.929,3.292A11.011,11.011,0,0,1,92.5,51.874M66.979,61.731c-.244-.094-.467-.19-.7-.267-1.9-.629-2.288-1.12-2.317-3.106-.015-1.177.06-2.357.09-3.534a16.883,16.883,0,0,0-.405-4.874,13.951,13.951,0,0,0-.779-2c-.043-.1-.331-.127-.5-.114-.069,0-.157.191-.186.307a.754.754,0,0,0,.01.387,21.655,21.655,0,0,1,.582,8.173,24.746,24.746,0,0,0,.005,2.551,3.433,3.433,0,0,0,1.168,2.411,2.268,2.268,0,0,0,1.6.647c.521,0,1.066.039,1.434-.579M65.052,66.41c.291.435.4.8.635.913a11.069,11.069,0,0,0,2.341.9c3.186.667,7.208-2.336,8.142-4.652a5.111,5.111,0,0,0,.121-1.161c-.457.364-.716.543-.942.754-.664.624-1.286,1.3-1.983,1.888-2.253,1.892-4.709,2.758-7.568,1.367-.1-.049-.242-.007-.746-.007m8.691-13.521a1.548,1.548,0,0,0,1.371-1.811,1.331,1.331,0,0,0-1.486-1.228,1.44,1.44,0,0,0-1.265,1.677,1.36,1.36,0,0,0,1.38,1.361m-15.079,2.65a4.048,4.048,0,0,0-.04-.468,1.184,1.184,0,0,0-1.022-1,1.209,1.209,0,0,0-1.3.91,2.382,2.382,0,0,0-.016.947,1.36,1.36,0,0,0,1.477,1.21c.61-.1.9-.59.9-1.6M93.406,40.875c-.107-.092-.216-.181-.321-.274a3.57,3.57,0,0,0-1.421,2.287c-.251.813-.633,1.7.158,2.555.547-1.576,1.065-3.073,1.584-4.568m-23.232,1.8a21.456,21.456,0,0,0,3.994-.563,4.425,4.425,0,0,0-3.015-.354c-.415.066-.913.2-.98.917M53.1,46.611A3.912,3.912,0,0,0,55.9,45.6a2.822,2.822,0,0,0-2.44.167c-.274.144-.559.344-.36.84" transform="translate(-7.382 -4.408)" fill="#ffe0c4" fill-rule="evenodd"/>
            <path id="Trazado_1356082" data-name="Trazado 1356082" d="M95.733,34.48c-.589-.436-1.03-.814-1.519-1.118a2.533,2.533,0,0,0-3.73.862c-.21.327-.33.715-.531,1.049a2.871,2.871,0,0,1-3.545,1.274A9.986,9.986,0,0,1,85,35.865c-.573-.317-1.122-.675-1.689-1a6.616,6.616,0,0,0-5.46-.828c-.373.114-.776.13-1.153.234a4.844,4.844,0,0,1-4.729-1.206c-.684-.607-1.335-1.257-1.961-1.925-.67-.718-1.3-1.469-1.935-2.224a6.493,6.493,0,0,0-3.338-2.294,8.822,8.822,0,0,1-2-.821,10.482,10.482,0,0,0-7.816-.747c-1.526.361-3.02.866-4.521,1.32a2.648,2.648,0,0,0-.556.375c.423.324.713.545,1,.763C48.191,33.636,47.6,37.4,48.076,40.566A8.888,8.888,0,0,1,46.8,38.594a30.714,30.714,0,0,1-1.739-16.589,10.65,10.65,0,0,1,.609-1.842,3.614,3.614,0,0,0,.374-2.634,1.549,1.549,0,0,1,.161-.935,19.578,19.578,0,0,1,5.61-8.169A9.322,9.322,0,0,1,58.117,6.1c1.18.013,2.36-.015,3.536.069A5.065,5.065,0,0,0,65.3,5.009c.461-.368.93-.728,1.4-1.076a12.429,12.429,0,0,1,7.307-2.515c.85-.014,1.7-.021,2.554,0a6.656,6.656,0,0,1,4.781,1.975,19.8,19.8,0,0,0,4.261,3.121c1.463.867,2.853,1.854,4.281,2.782a8.462,8.462,0,0,1,3.644,5.18c.656,2.533,1.28,5.076,1.813,7.639.479,2.306.825,4.64,1.209,6.966a8.94,8.94,0,0,1-.821,5.4m-7.17-8.626a4.675,4.675,0,0,0-.238-.814c-.674-1.118-1.442-2.188-2.028-3.349a8.647,8.647,0,0,0-5.317-4.63c-.373-.118-.726-.311-1.1-.4a6.1,6.1,0,0,1-3.868-2.787,9.3,9.3,0,0,0-4.033-3.334A23.269,23.269,0,0,0,66,8.672a9.176,9.176,0,0,0-2.146,0c-.215.013-.411.242-.609.365.274.615.774.569,1.212.6a20.992,20.992,0,0,1,5.512,1.336A10.018,10.018,0,0,1,75.5,15.13a5.54,5.54,0,0,0,3.62,2.5c.887.217,1.768.478,2.642.75a4.682,4.682,0,0,1,2.812,2.3c.344.631.624,1.3.94,1.941s.614,1.3.974,1.921a2.578,2.578,0,0,0,2.078,1.314M53.6,18.254c.552-.037.855-.027,1.145-.083a21.185,21.185,0,0,1,5.064-.477A9.95,9.95,0,0,1,65.517,19.5,15.868,15.868,0,0,1,67.9,21.814a29.965,29.965,0,0,0,4.22,4.083,10.625,10.625,0,0,0,3.071,1.711,3.178,3.178,0,0,0,2.085.138c-1.084-.649-2.106-1.2-3.07-1.842A25.267,25.267,0,0,1,68.6,20.739a11.29,11.29,0,0,0-7.749-4.145,16.569,16.569,0,0,0-5.264.319,5.749,5.749,0,0,0-1.448.573c-.18.094-.266.367-.535.768m35.61,1.155a5.79,5.79,0,0,0-.012-1.2c-.379-1.457-.8-2.9-1.2-4.356-.879-3.27-3.592-4.464-6.347-5.6a.361.361,0,0,0-.321.15c-.046.162-.073.447.014.509a10.5,10.5,0,0,0,1.487.927c3.4,1.665,3.929,2.3,4.614,5.782a18.422,18.422,0,0,0,.995,2.967c.1.255.4.437.768.823" transform="translate(-6.607 -0.208)" fill="#ffb30c" fill-rule="evenodd"/>
            <path id="Trazado_1356083" data-name="Trazado 1356083" d="M162.273,152.358c.589-.344,1.048-.377,1.42.174a7.916,7.916,0,0,0,.555.808,3.3,3.3,0,0,0,4.253.85,3.93,3.93,0,0,0,2.446-2.387c.44-1.519.049-2.2-1.52-2.463-.241-.043-.482-.1-.7-.14-.207-1.393.763-2.569.444-3.907-.2.066-.388.068-.434.151a19.818,19.818,0,0,0-1.636,5.213,5.176,5.176,0,0,0-.017,1.291c1.078-.05.726-1.182,1.482-1.624l1.3.075c.106.226.223.349.206.452a3.283,3.283,0,0,1-2.864,2.764,2.774,2.774,0,0,1-2.828-1.715,4.308,4.308,0,0,1-.361-3.574,37.018,37.018,0,0,1,2.208-5.034c.216-.4.43-.795.066-1.235-1.987,1.486-3.827,5.989-3.656,8.912-.791.254-1.181-.354-1.641-.777a2.233,2.233,0,0,1-.814-1.72,10.648,10.648,0,0,1,1.071-4.95c.58-1.095,1.323-2.1,1.981-3.156.19-.3.348-.628.574-1.046-1.23.261-1.741.6-2.7,2.135a12.818,12.818,0,0,0-1.433,3,25.531,25.531,0,0,0-.584,3.486c-.572-.027-.67-.516-.891-.88a3.062,3.062,0,0,1-.306-2.81c.342-.92.591-1.876.946-2.792a5.867,5.867,0,0,1,4.281-3.932c.638-.147,1.274-.3,1.9-.505.207-.067.365-.286.765-.617-.985-.049-1.682-.083-2.454-.124a9.675,9.675,0,0,1-.656-1.147c-1.127-2.735-3.284-4.494-5.677-6.027a8.88,8.88,0,0,1-2.427-1.969c-.581-.763-.359-1.337.6-1.555a3.879,3.879,0,0,1,2.3.3,13.06,13.06,0,0,1,3.875,2.293,50.353,50.353,0,0,1,6.381,6.4c.328.411.653.822.986,1.228a3.849,3.849,0,0,0,.641.743c3.769,2.778,5.5,6.729,6.389,11.146.283,1.411.483,2.843.634,4.276a4.89,4.89,0,0,0,1.057,2.647,32.382,32.382,0,0,1,2.678,4.344c1.711,3.1,3.356,6.234,5.046,9.343a10.522,10.522,0,0,0,.985,1.456.519.519,0,0,0,.507.049.562.562,0,0,0,.176-.49,3.782,3.782,0,0,0-.37-.9c-.338-.635-.705-1.256-1.055-1.888-1.426-2.571-1.532-2.713-1.089-5.592.588-3.82,1.309-7.619,1.989-11.426a6.09,6.09,0,0,1,.338-.938c4.126.515,8.152,1.01,11.664,3.329.439.288.87.586,1.288.9.256.193.482.427.722.642a53.083,53.083,0,0,1-1.609,8.5,114.61,114.61,0,0,1-7.741,19.107,22.693,22.693,0,0,1-3.615,5.125,6.549,6.549,0,0,1-1.888,1.377,3.043,3.043,0,0,1-3.347-.178,13.1,13.1,0,0,1-2.321-2.1,22.874,22.874,0,0,1-2.167-3.036,47.345,47.345,0,0,1-5.757-14.141c-.117-.51-.256-1.017-.408-1.519-.746-2.442-1.542-4.869-2.228-7.328a2.382,2.382,0,0,0-.955-1.408c-.745-.534-1.494-1.065-2.261-1.565a12.01,12.01,0,0,1-3.287-3.073,7.59,7.59,0,0,1-.455-.846" transform="translate(-22.852 -18.594)" fill="#ffe0c4" fill-rule="evenodd"/>
            <path id="Trazado_1356084" data-name="Trazado 1356084" d="M146.908,39.16a7.112,7.112,0,0,1,.743.653,22.542,22.542,0,0,0,7.843,5.776c.056.03.13.034.183.069,2.989,1.965,6.342,3.388,8.884,6.023a5.216,5.216,0,0,1,1.383,2.3,60.415,60.415,0,0,1,1.825,10.242c.52,5.086.785,10.19.927,15.3a4.065,4.065,0,0,1-1.2,3.165,28.59,28.59,0,0,1-4.7,3.858,8.444,8.444,0,0,1-8.07.832,17.028,17.028,0,0,1-7.479-5.567,53.586,53.586,0,0,1-4.89-7.118,11.852,11.852,0,0,1-1.279-3.277c-.328-1.6-.761-3.188-1.049-4.8a42.844,42.844,0,0,1-.32-10.779,18.233,18.233,0,0,1,.869-3.82c1.369-4.559,3.8-8.6,6.339-12.866m2.474,38.746c.292.325.625.679.941,1.046.34.4.647.819.99,1.21a6.393,6.393,0,0,0,6.408,1.948,4.888,4.888,0,0,0,4.152-4.121,8.992,8.992,0,0,0,.188-1.551,1.285,1.285,0,0,0-1.583-1.48,17.4,17.4,0,0,0-2.694.453c-2.771.716-5.527,1.481-8.288,2.234-.037.009-.051.106-.114.261m-1.03-16.4a2.115,2.115,0,0,0-.555,1.769,17.931,17.931,0,0,1-.9,6.162,8.375,8.375,0,0,0-.394,1.907,3.1,3.1,0,0,0,2.947,3.447c.275.028.664.129.8-.44a8.481,8.481,0,0,0-1.055-.725,2.491,2.491,0,0,1-1.412-3.084c.168-.763.374-1.517.547-2.279a15.383,15.383,0,0,0,.025-6.758m10.042.034c-.164.137-.523.291-.6.538a5.163,5.163,0,0,0-.2,1.513.9.9,0,0,0,.806.934,1.253,1.253,0,0,0,1.389-.417,1.881,1.881,0,0,0-1.389-2.568m-13.742,4.183c-.021-.353-.019-.611-.056-.863a.966.966,0,0,0-.924-.823.912.912,0,0,0-.971.756,6.93,6.93,0,0,0-.054,1.526c.034.443.4.642.805.7a.9.9,0,0,0,.974-.469,3.6,3.6,0,0,0,.227-.827M157.1,51.706c.123.158.24.43.347.426a14.681,14.681,0,0,1,3,0c.037.006.224-.348.175-.461a1.017,1.017,0,0,0-.481-.549,2.693,2.693,0,0,0-3.037.586m-12.5,1.8c-.715-.119-1.049-.28-1.293-.2-.658.232-1.407.338-1.843.983a.418.418,0,0,0-.006.364.378.378,0,0,0,.294.193,6.834,6.834,0,0,0,2.849-1.344" transform="translate(-20.669 -5.802)" fill="#ffe0c4" fill-rule="evenodd"/>
            <path id="Trazado_1356085" data-name="Trazado 1356085" d="M130.312,150.192c3.022-.653,5.827-1.257,8.633-1.87.437-.1.923-.174.962-.92a2.72,2.72,0,0,0-.863-.153c-2.076.292-4.149.6-6.214.951a4.9,4.9,0,0,0-1.276.5,2.619,2.619,0,0,1-2.406-.036,1.664,1.664,0,0,1,.786-2.366c1.2-.666,2.339-1.443,3.556-2.072a7.819,7.819,0,0,1,3.777-.95.883.883,0,0,0,.98-.618,2.7,2.7,0,0,0-.724-.247,8.391,8.391,0,0,0-4.559.912c-.962.561-1.93,1.11-2.894,1.666-.567.327-1.116.691-1.7.975a1.294,1.294,0,0,1-1.7-.443,8.837,8.837,0,0,1,1.906-3.677c.518-.67,1.2-1.214,1.745-1.862a4.278,4.278,0,0,1,2.344-1.336c.8-.2,1.607-.377,2.734-.64a6.922,6.922,0,0,0-1.336-.553,5.261,5.261,0,0,0-3.375.812c-.684.39-1.324.865-2.034,1.19a10.112,10.112,0,0,1-2.222.739c-.955.187-1.469-.342-1.472-1.321a2.3,2.3,0,0,1,.615-1.618,17.581,17.581,0,0,1,5.392-4.2,4.015,4.015,0,0,1,2.107-.355c.5.048,1.014.065,1.474.095a.473.473,0,0,0-.244-.72,3.755,3.755,0,0,0-3.59-.175c-1,.479-1.931,1.093-2.878,1.669-.561.34-1.059.785-1.642,1.072a2.2,2.2,0,0,1-2.665-.354c-.029-.2-.1-.346-.058-.447a13.385,13.385,0,0,1,3.457-4.708,5.8,5.8,0,0,1,1.546-.8c.409-.187.865-.286,1.256-.5a3.115,3.115,0,0,1,2.664-.188,14.58,14.58,0,0,1,2.283,1.115c.623.36,1.178.83,1.771,1.238,1.26.866,2.142,1.912,1.892,3.585a1.8,1.8,0,0,0,.414,1.242,12.256,12.256,0,0,1,2.25,7.572,7.151,7.151,0,0,0,.089,1.955,7.572,7.572,0,0,1-1.642,6.6c-.738.919-1.5,1.819-2.3,2.687a2.8,2.8,0,0,1-2.987,1.022,2.3,2.3,0,0,0-.761.061,1.818,1.818,0,0,0,2.4,1.057,5.6,5.6,0,0,0,2.458-1.565c.756-.9,1.526-1.781,2.4-2.8a7.694,7.694,0,0,1,.471.87c1.262,3.377,2.539,6.747,3.754,10.138a47.79,47.79,0,0,1,1.508,4.879,8.44,8.44,0,0,1-.793,6.283c-1.366,2.465-3.585,3.183-6.384,2.59a17.056,17.056,0,0,1-2.895-1.2,1.891,1.891,0,0,1-1.147-1.678q-.687-4.567-1.47-9.121a121.994,121.994,0,0,0-3.012-12.406c-.122-.433-.213-.875-.38-1.567" transform="translate(-18.289 -18.878)" fill="#ffe0c4" fill-rule="evenodd"/>
            <path id="Trazado_1356086" data-name="Trazado 1356086" d="M140.251,114.493c-1.021,2.782-2.276,5.531-2.327,8.808-2.258-1.412-4.274-3.008-7.012-2.194a8.182,8.182,0,0,1-.319-2.428c.081-2.419.083-4.843.209-7.258.2-3.856.423-7.713.738-11.559a38.057,38.057,0,0,1,1.706-9.378,4.757,4.757,0,0,1,.825.388,11.134,11.134,0,0,1,1.04.9,7.342,7.342,0,0,1,2.538,4.7c.335,3.054.908,6.082,1.295,9.132.181,1.425.148,2.875.241,4.313a14.206,14.206,0,0,0,.267,2.339,20.005,20.005,0,0,0,.8,2.238" transform="translate(-19.347 -13.405)" fill="#799740" fill-rule="evenodd"/>
            <path id="Trazado_1356087" data-name="Trazado 1356087" d="M16.168,145.5c.952,0,1.728.027,2.5,0a6.482,6.482,0,0,1,5.465,2.573,28.959,28.959,0,0,1,1.991,2.676,2.382,2.382,0,0,1,.312,2.81,3.992,3.992,0,0,1-1.635-1.31c-.3-.343-.563-.73-.89-1.047a3.243,3.243,0,0,0-1.079-.824c-1.36-.463-2.748-.845-4.135-1.228a3.529,3.529,0,0,0-.974.113,6.312,6.312,0,0,0,.848.549c.671.258,1.349.5,2.035.718,3.121.98,4.626,3.249,5.084,6.351a13.208,13.208,0,0,1,.008,1.575c-1.136-1.129-1.861-2.28-3.093-2.78a14.55,14.55,0,0,0-2.61-.83,23.344,23.344,0,0,0-2.665-.262c-.241.607.146.676.418.749a39.058,39.058,0,0,1,3.792.971,5.349,5.349,0,0,1,3.514,4.157c.037.189.124.433.045.569-.151.26-.41.664-.612.658a16.375,16.375,0,0,1-6.319-.966,5,5,0,0,1-3.187-3.916,10.259,10.259,0,0,1-.283-1.925,5.942,5.942,0,0,0-.488-2.663,2.925,2.925,0,0,1-.113-1.929,10.393,10.393,0,0,1,.534-2.086,4.45,4.45,0,0,0,.371-2.28,2.58,2.58,0,0,1,.706-1.969c.526-.583.95-1.263,1.507-1.807a8.723,8.723,0,0,1,1.726-1.272,3.064,3.064,0,0,1,3.35.116c1.1.7,2.211,1.394,3.286,2.133a.819.819,0,0,1,.289,1.049,2.5,2.5,0,0,1-3.079,1.406,3.558,3.558,0,0,1-.7-.353c-1.7-1.065-3.51-.87-5.324-.447-.216.052-.356.419-.6.724" transform="translate(-2.073 -20.804)" fill="#ffe0c4" fill-rule="evenodd"/>
            <path id="Trazado_1356088" data-name="Trazado 1356088" d="M166.668,96.137c2-1.626,3.866-3.139,5.736-4.655.394.2.27.566.27.86.006,3.935.036,7.869-.032,11.8-.026,1.435-.287,2.866-.442,4.3a2.057,2.057,0,0,1-.078.385,6.611,6.611,0,0,1-3.134,3.194,15.44,15.44,0,0,1-1.36-6.227c.057-1.9.019-3.8-.021-5.7a10.558,10.558,0,0,0-.263-2.143,14.773,14.773,0,0,0-.676-1.817" transform="translate(-24.692 -13.553)" fill="#ffe0c4" fill-rule="evenodd"/>
            <path id="Trazado_1356089" data-name="Trazado 1356089" d="M84.914,83.209A27.835,27.835,0,0,1,86.8,87.732c-2.965,1.49-5.81,3.043-8.833,4.378a10.08,10.08,0,0,1,2.046-5.418,12.508,12.508,0,0,1,4.9-3.483" transform="translate(-11.551 -12.327)" fill="#a7b340" fill-rule="evenodd"/>
            <path id="Trazado_1356090" data-name="Trazado 1356090" d="M113.613,84.643c-2.448-.214-4.8-.717-7.223-1.115-.207-1.716-.408-3.377-.627-5.189a4.08,4.08,0,0,1,.751.215c1.44.77,2.854,1.6,4.32,2.322a5.562,5.562,0,0,1,2.822,3.119,1.925,1.925,0,0,1-.043.648" transform="translate(-15.669 -11.606)" fill="#a7b340" fill-rule="evenodd"/>
            <path id="Trazado_1356091" data-name="Trazado 1356091" d="M115.3,82.566c3.027.48,8.392,2.369,10.115,3.546a1.974,1.974,0,0,1-.514.209,42.324,42.324,0,0,1-7.411-.518,1.327,1.327,0,0,1-1.17-.9c-.285-.721-.618-1.423-1.02-2.339" transform="translate(-17.082 -12.232)" fill="#799740" fill-rule="evenodd"/>
            <path id="Trazado_1356092" data-name="Trazado 1356092" d="M69.919,95.718a18.452,18.452,0,0,1,6.041-4.782,10.619,10.619,0,0,1-1,2.764,1.463,1.463,0,0,1-.678.644c-1.321.522-2.662,1-4,1.47-.1.034-.237-.06-.358-.1" transform="translate(-10.358 -13.472)" fill="#799740" fill-rule="evenodd"/>
            <path id="Trazado_1356093" data-name="Trazado 1356093" d="M157.115,146.034a4.1,4.1,0,0,1-1.356-1.853,1.1,1.1,0,0,1,.594-1.609c.575-.262,1.2-.423,1.975-.687a3.473,3.473,0,0,1-.009.869c-.359,1.034-.754,2.061-1.2,3.28" transform="translate(-23.054 -21.02)" fill="#ffe0c4" fill-rule="evenodd"/>
            <path id="Trazado_1356094" data-name="Trazado 1356094" d="M16.029,141.754c.124-2.374.262-2.852,1.134-3.9.288.687.556,1.326.839,2a8.362,8.362,0,0,1-1.973,1.9" transform="translate(-2.375 -20.423)" fill="#ffe0c4" fill-rule="evenodd"/>
            <path id="Trazado_1356095" data-name="Trazado 1356095" d="M153.568,84.744c2.834-1.021,5.741-1.691,8.612-2.479a4.3,4.3,0,0,1,1.015-.011,4.675,4.675,0,0,1-.7,3.239,3.436,3.436,0,0,1-2.271,1.732c-2.255.536-4.845.555-6.654-2.481" transform="translate(-22.751 -12.182)" fill="#ff9293" fill-rule="evenodd"/>
            <path id="Trazado_1356096" data-name="Trazado 1356096" d="M179.493,110.668a19.722,19.722,0,0,0-3.523-10.48,20.459,20.459,0,0,0-1.9-2.507,4.4,4.4,0,0,1-1.2-3.607,27.472,27.472,0,0,0-.371-6.461c-.4-2.92-.831-5.839-1.278-8.754-1.055-6.88-1.355-13.831-1.871-20.757A113.524,113.524,0,0,0,167.6,44.268a46.941,46.941,0,0,0-3.024-10.356,20.819,20.819,0,0,0-3.528-5.646,44.1,44.1,0,0,0-6.713-6.047,18.578,18.578,0,0,0-13.388-3.471A30.367,30.367,0,0,0,130.5,22.055c-1.972,1.031-3.892,2.176-5.77,3.372a24.65,24.65,0,0,0-9.557,10.945c-.345.779-.7,1.554-1.075,2.319a7.367,7.367,0,0,0-.774,3.022c-.021.588-.119,1.174-.165,1.763a48.443,48.443,0,0,0,.139,11.185c.309,2.006.651,4.01.982,6.014.316,1.941.6,3.887.958,5.817.532,2.831,1.128,5.653,1.682,8.481.151.773.273,1.551.371,2.33.036.28.205.641-.317.9-.3-.26-.65-.54-.975-.845a15.916,15.916,0,0,0-3.947-2.855c-1.471-.7-2.82-1.682-4.32-2.312a42.579,42.579,0,0,0-8.959-2.9,18.408,18.408,0,0,1-5.662-2.14c-.917-.509-1.811-1.068-2.761-1.5a2.788,2.788,0,0,1-1.6-2.075C88.1,60.9,87.314,58.259,86.7,55.579a22.047,22.047,0,0,1-.435-7.363,16.091,16.091,0,0,0,1.887-2.048,12.179,12.179,0,0,0,2.007-9.352,3.581,3.581,0,0,1,.169-2.275,10.676,10.676,0,0,0,.643-6.36c-.5-2.439-.87-4.9-1.417-7.333q-.846-3.734-1.934-7.41a8.939,8.939,0,0,0-3.493-4.865C82.676,7.553,81.28,6.458,79.795,5.5a26.263,26.263,0,0,1-4.379-3.309A7.647,7.647,0,0,0,70.08.014c-.917-.021-1.836-.013-2.753,0a13.518,13.518,0,0,0-7.886,2.645c-.428.306-.854.613-1.253.952a4.506,4.506,0,0,1-3.441,1.137c-1.11-.087-2.228-.051-3.344-.053a10.419,10.419,0,0,0-7.015,2.653,18.24,18.24,0,0,0-5.521,8.224,3.681,3.681,0,0,0-.33,1.521,7.371,7.371,0,0,1-.683,3.6,10.968,10.968,0,0,0-.474,2.106,27.762,27.762,0,0,0,.137,9.979c.676,3.281,1.488,6.532,3.817,9.144a2.408,2.408,0,0,1,.473,1.049c.145.637.213,1.292.3,1.941a37.626,37.626,0,0,0,3.677,12.374A29.057,29.057,0,0,0,58.618,70.148a10.583,10.583,0,0,0,7.249.928,31.652,31.652,0,0,0,5.406-1.78,3.941,3.941,0,0,1,.914-.307.578.578,0,0,1,.433.308.569.569,0,0,1-.1.509,2.845,2.845,0,0,1-.644.434,14.483,14.483,0,0,0-5.318,4.848,3.392,3.392,0,0,1-1.118,1.063,44.209,44.209,0,0,0-7.748,6.339A4.706,4.706,0,0,1,54.2,83.926a131.3,131.3,0,0,1-16.476-1.009q-4.792-.492-9.6-.87a9.633,9.633,0,0,0-2.54.163c-1.67.32-3.321.745-4.98,1.132Q12.285,85.28,3.96,87.223a28.669,28.669,0,0,0-2.828.766A1.591,1.591,0,0,0,0,89.192c.543,1.113,1.149,2.341,1.743,3.575.311.649.6,1.308.9,1.963.378.831.716,1.683,1.141,2.49,1.189,2.262,2.448,4.488,3.621,6.756,2.1,4.066,3.919,8.28,6.475,12.1-.313,1.02-.615,2.02-.929,3.017a13.767,13.767,0,0,0-.219,3.114c-.083,1.009-.8,1.933-.76,3.009a7.684,7.684,0,0,1-.6,3.066,5.4,5.4,0,0,0,.043,4.208,4.184,4.184,0,0,1,.4,1.691,10.93,10.93,0,0,0,.656,3.432,4.3,4.3,0,0,0,2.184,2.653,11.927,11.927,0,0,0,4.642,1.506c1.221.128,2.44.268,3.592.394.886,3.01,1.716,5.9,2.594,8.776a91.552,91.552,0,0,1,2.324,8.935c.394,1.992.913,3.961,1.3,5.953.4,2.015,1.075,3.981.962,6.225a16.311,16.311,0,0,1,6.466-1.253c2.745-.159,5.482-.431,8.224-.614a5.6,5.6,0,0,1,1.34.219c1.609.295,3.211.655,4.828.879a78.447,78.447,0,0,0,12.176.443c1.306-.022,2.614.116,3.924.164a24.221,24.221,0,0,0,3.521.07,47.954,47.954,0,0,0,8.674-1.676c3.006-.918,6.019-1.837,8.962-2.935,1.283-.48,2.6-.1,3.86-.549a3.707,3.707,0,0,1,1.543.133c1.428.191,2.849.451,4.285.578a80.238,80.238,0,0,0,11,.385c2.094-.1,4.177-.39,6.272-.468,1.389-.052,2.866-.5,4.136.578.29.25.806-.2.716-.623a9.9,9.9,0,0,0-.48-1.7,37.756,37.756,0,0,1-2.044-7.575,5.3,5.3,0,0,1-.006-.868c.392.124.692.2.98.314a18.385,18.385,0,0,0,2.011.785,9.021,9.021,0,0,0,2.527.283c-.244,3.381.251,6.8.286,10.187a.648.648,0,0,0,1.295,0c-.036-3.421-.393-6.865-.758-10.268a6.115,6.115,0,0,0,4.661-3.448,9.711,9.711,0,0,0,.779-6.876,30.086,30.086,0,0,0-1.171-3.749c-1.449-3.8-2.94-7.574-4.434-11.353a4.16,4.16,0,0,1-.191-2.837,7.153,7.153,0,0,0,.211-4.437,4.085,4.085,0,0,1,.062-2.126,28.7,28.7,0,0,1,1.112-3.769,37.268,37.268,0,0,0,1.94-10c.01-.094-.106-.2-.17-.313-.412-.006-.556.3-.624.617a20.576,20.576,0,0,0-.375,2.129,30.83,30.83,0,0,1-1.694,6.855,5.439,5.439,0,0,1-.536.885,12.62,12.62,0,0,0-1.966-4.643,1.466,1.466,0,0,1-.286-.915,3.615,3.615,0,0,0-1.1-3.012,2.5,2.5,0,0,1-.606-2.346,26.1,26.1,0,0,1,1.472-5.278,13.44,13.44,0,0,1,7.261-8.343c1.492-.674,2.974-1.371,4.473-2.035,1.556-.692,3.149-1.307,4.683-2.046,1.568-.758,3.083-1.626,4.693-2.485a52.243,52.243,0,0,0,.133,5.46,15.008,15.008,0,0,0,1.613,5.1,2.22,2.22,0,0,0,2.081-.652c.336-.244.542-.8,1.209-.53,0,.356-.012.742,0,1.124.02.523.029,1.051.1,1.57.122.906.773,1.166,1.554.635.269-.183.5-.431.766-.616.315-.217.658-.4,1.045-.628a10.618,10.618,0,0,1,.85.842c.29.355.509.765.786,1.128a1.706,1.706,0,0,0,2.237.657l.359-.16a2.7,2.7,0,0,1,3.062.67,8.276,8.276,0,0,1,.636.748c.893,1.009,1.073,1.083,2.337.412a2.218,2.218,0,0,1,2.4.032,6.755,6.755,0,0,0,1.041.549,3.473,3.473,0,0,0,2.682.066l1.095-.439a1.359,1.359,0,0,1,1.311.131c.221.142.436.294.655.436a1.308,1.308,0,0,0,1.636-.148,4.082,4.082,0,0,0,1.538-2.87c.115-1.038.089-2.093.141-3.138.016-.293-.17-.659.235-.844.126.055.281.075.348.159a20.208,20.208,0,0,1,4.384,9.75,72.87,72.87,0,0,1,.6,11.775c-.108,4.519-.44,9.032-.681,13.546,0,.04-.088.078-.227.194a3.844,3.844,0,0,1-.53-.419,11.252,11.252,0,0,0-4.246-2.77,20.552,20.552,0,0,0-6.095-1.471,16.619,16.619,0,0,1-4.106-1.017c.086-1.63.327-3.245.536-4.856.2-1.56.5-3.107.742-4.66a34.653,34.653,0,0,0,.9-5.033c-.353.388-.589.541-.669.752-.279.733-.534,1.48-.745,2.234a66.388,66.388,0,0,0-1.91,11.428,8.089,8.089,0,0,0,.175,3.89,1.975,1.975,0,0,1-.067.959q-.754,4.457-1.527,8.91a12.1,12.1,0,0,1-.351,1.17c-.239-.384-.34-.547-.44-.715-1.457-2.41-2.9-4.83-4.383-7.229a4.614,4.614,0,0,1-.548-1.856c-.25-1.751-.459-3.517-.864-5.233a17.537,17.537,0,0,0-3.234-7.312c-.954-1.162-2.059-2.2-3.1-3.292-.584-.612-1.184-1.216-1.761-1.84-1.423-1.543-2.787-3.139-4.264-4.627a21.374,21.374,0,0,0-5.889-4.214,5.631,5.631,0,0,0-4.2-.3,1.232,1.232,0,0,0-.859,1.7,2.738,2.738,0,0,0,.584,1.008,25.5,25.5,0,0,0,2.084,1.775c1.037.795,2.1,1.566,3.173,2.31,1.651,1.145,2.355,2.884,3.077,4.62-1.133.675-2.192,1.306-3.553,2.115a9.653,9.653,0,0,0-1.581.1,6.445,6.445,0,0,0-1.83.645,1.914,1.914,0,0,0-.947,2.353,4.423,4.423,0,0,0,1.267,2.188,3.761,3.761,0,0,1,1.212,2.126,5.973,5.973,0,0,0,1.244,2.425,51.848,51.848,0,0,1,3.577,4.913,12.033,12.033,0,0,0,3.623,3.557c.827.528,1.676,1.021,2.6,1.578.387,1.255.814,2.56,1.194,3.877.871,3.023,1.676,6.063,2.583,9.073a47.174,47.174,0,0,0,5.06,11.481,24.661,24.661,0,0,0,3.506,4.482A5.4,5.4,0,0,0,162,170.5a2.787,2.787,0,0,0,1.765-.723,25.068,25.068,0,0,0,4.3-5.1,35.041,35.041,0,0,0,2.774-5.62c.864-2.327,2.023-4.545,3.066-6.807.044-.092.183-.141.405-.3.053.428.111.781.138,1.135.146,2.027.24,4.058.44,6.08a86.92,86.92,0,0,1,.6,10.007,20.558,20.558,0,0,0,.089,2.159c.02.211.21.41.376.714a3.263,3.263,0,0,0,.572-2.152,54.055,54.055,0,0,0-.427-10.4,64.876,64.876,0,0,1-.461-10.8,10.488,10.488,0,0,1,.382-2.516,59.374,59.374,0,0,0,2.1-8.581,3.753,3.753,0,0,1,.82-1.925,3.551,3.551,0,0,0,.534-1.834c.1-.909.06-1.833.1-2.75.149-3.077.451-6.153.428-9.229-.03-3.734-.336-7.461-.513-11.2M108.336,73.88a1.952,1.952,0,0,1-.513.209,42.247,42.247,0,0,1-7.412-.518,1.327,1.327,0,0,1-1.17-.9c-.285-.721-.618-1.423-1.02-2.339,3.027.48,8.392,2.369,10.115,3.546m-17.49-6.934c1.44.771,2.854,1.6,4.32,2.323a5.562,5.562,0,0,1,2.822,3.119,1.925,1.925,0,0,1-.043.648c-2.448-.214-4.8-.717-7.223-1.115-.207-1.716-.408-3.378-.627-5.189a4.088,4.088,0,0,1,.751.214M41.469,40.359a8.911,8.911,0,0,1-1.279-1.973A30.719,30.719,0,0,1,38.45,21.8a10.635,10.635,0,0,1,.609-1.843,3.608,3.608,0,0,0,.374-2.633,1.549,1.549,0,0,1,.161-.935,19.6,19.6,0,0,1,5.61-8.17A9.332,9.332,0,0,1,51.51,5.889c1.18.014,2.361-.015,3.537.07A5.064,5.064,0,0,0,58.693,4.8c.461-.368.931-.728,1.4-1.077A12.425,12.425,0,0,1,67.4,1.211c.85-.014,1.7-.022,2.554,0A6.655,6.655,0,0,1,74.74,3.183,19.819,19.819,0,0,0,79,6.3c1.464.867,2.853,1.854,4.281,2.782a8.462,8.462,0,0,1,3.644,5.18c.656,2.533,1.28,5.076,1.813,7.639.479,2.306.825,4.64,1.209,6.965a8.936,8.936,0,0,1-.821,5.4c-.589-.437-1.03-.814-1.519-1.118a2.533,2.533,0,0,0-3.73.861c-.21.328-.329.715-.531,1.049A2.872,2.872,0,0,1,79.8,36.339a9.986,9.986,0,0,1-1.41-.681c-.573-.317-1.121-.675-1.689-1a6.616,6.616,0,0,0-5.46-.827c-.373.113-.776.13-1.153.234a4.845,4.845,0,0,1-4.729-1.206c-.684-.607-1.334-1.257-1.961-1.926-.67-.717-1.3-1.469-1.935-2.223a6.488,6.488,0,0,0-3.338-2.294,8.822,8.822,0,0,1-2-.821,10.481,10.481,0,0,0-7.816-.747c-1.526.361-3.02.865-4.52,1.32a2.629,2.629,0,0,0-.557.375c.423.324.713.545,1,.763-2.658,6.127-3.246,9.893-2.772,13.058M65.535,69.883a10.21,10.21,0,0,1-6.689-.77,27.449,27.449,0,0,1-7.417-5.422,4.571,4.571,0,0,1-.622-.756,58.342,58.342,0,0,1-5.077-8.626,34.011,34.011,0,0,1-2.12-7.139,48.913,48.913,0,0,1-1.164-9.541,12.43,12.43,0,0,1,.41-3.3,34.174,34.174,0,0,1,2.194-6.084A4.013,4.013,0,0,1,48.4,25.9c.776-.1,1.56-.2,2.322-.375a6.73,6.73,0,0,1,5.266.946c1.269.8,2.589,1.527,3.859,2.329a5.054,5.054,0,0,1,.995.934c.742.833,1.435,1.707,2.2,2.518a18.25,18.25,0,0,0,2,1.889,5.827,5.827,0,0,0,5.178,1.153,11.791,11.791,0,0,0,1.149-.27,5.514,5.514,0,0,1,4.879.687c.617.373,1.233.747,1.845,1.125,1.681,1.038,3.389,1.4,5.291.131.2-.38.483-.9.745-1.42.115-.232.158-.5.286-.724a1.668,1.668,0,0,1,2.649-.582,4.561,4.561,0,0,1,1.929,3.292,11.009,11.009,0,0,1-3.863,9.934,12.889,12.889,0,0,0,.03,5.5A117.837,117.837,0,0,0,88.2,65.558c.218.753.541,1.475.814,2.211a5.19,5.19,0,0,1,.094,3.833,3.532,3.532,0,0,1-.815.051,8.487,8.487,0,0,0-4.424.552q-3.418,1.23-6.839,2.452a7.138,7.138,0,0,1-.7.182c-.145-.152-.27-.227-.313-.337-.814-2.056-1.621-4.116-2.41-6.131,1.822-1.647,3.728-3.158,5.364-4.918a49.049,49.049,0,0,0,3.613-4.878.642.642,0,0,0,.036-.382c0-.054-.069-.106-.175-.257-.187.084-.458.127-.595.285A34.1,34.1,0,0,0,79,61.711a11.736,11.736,0,0,1-3.047,3.3,28.166,28.166,0,0,1-10.418,4.877m2.928,4.482a12.509,12.509,0,0,1,4.9-3.482,27.706,27.706,0,0,1,1.886,4.522c-2.964,1.49-5.81,3.043-8.833,4.379a10.082,10.082,0,0,1,2.047-5.419m-2.861,3.1a10.589,10.589,0,0,1-1,2.764,1.457,1.457,0,0,1-.677.644c-1.321.522-2.662,1-4.005,1.471-.1.034-.236-.061-.358-.1A18.472,18.472,0,0,1,65.6,77.464M14.788,117.429c.288.687.556,1.326.839,2.005a8.342,8.342,0,0,1-1.973,1.9c.124-2.374.262-2.851,1.134-3.9m8.839,20.22c-1.136-1.13-1.861-2.28-3.093-2.78a14.552,14.552,0,0,0-2.61-.831,23.341,23.341,0,0,0-2.665-.262c-.241.607.146.676.419.749a38.793,38.793,0,0,1,3.792.97,5.349,5.349,0,0,1,3.514,4.157c.037.19.124.434.046.569-.152.261-.41.664-.612.658a16.39,16.39,0,0,1-6.319-.965A5,5,0,0,1,12.912,136a10.121,10.121,0,0,1-.283-1.925,5.945,5.945,0,0,0-.489-2.663,2.917,2.917,0,0,1-.112-1.929,10.343,10.343,0,0,1,.533-2.087,4.446,4.446,0,0,0,.371-2.279,2.578,2.578,0,0,1,.707-1.969c.525-.582.949-1.262,1.507-1.807a8.636,8.636,0,0,1,1.726-1.271,3.061,3.061,0,0,1,3.349.116c1.1.7,2.211,1.394,3.286,2.133a.818.818,0,0,1,.289,1.048,2.5,2.5,0,0,1-3.079,1.406,3.543,3.543,0,0,1-.7-.353c-1.7-1.065-3.51-.869-5.324-.446-.216.051-.355.418-.6.724.952,0,1.728.027,2.5,0a6.479,6.479,0,0,1,5.465,2.573,28.857,28.857,0,0,1,1.991,2.677,2.38,2.38,0,0,1,.312,2.81,3.987,3.987,0,0,1-1.635-1.311c-.3-.343-.563-.729-.89-1.047a3.237,3.237,0,0,0-1.079-.824c-1.36-.463-2.748-.845-4.135-1.227a3.465,3.465,0,0,0-.974.113A6.393,6.393,0,0,0,16.5,129c.671.259,1.349.5,2.035.719,3.121.979,4.626,3.248,5.084,6.35a13.22,13.22,0,0,1,.008,1.576m94.647,27.223a5.717,5.717,0,0,1,.236,1.246c-.379.063-.676.136-.98.158-1.5.107-3.012.152-4.509.308a79.848,79.848,0,0,1-20.192-.615,6.176,6.176,0,0,0-3.811.4,17.848,17.848,0,0,1-2.838.771c-2.263.658-4.511,1.366-6.777,2.017a65.526,65.526,0,0,1-8.263,1.737c-.839.128-1.667.33-2.666.529a5.515,5.515,0,0,0-3.056-.578c-2.1.005-4.193-.006-6.288-.008a69.862,69.862,0,0,1-10.382-.753c-1.034-.156-2.046-.453-3.079-.618a3.789,3.789,0,0,0-1.724-.028,7.891,7.891,0,0,1-2.717.267,50.349,50.349,0,0,0-9.588.709,1.8,1.8,0,0,1-.5-.1c-.089-.3-.224-.661-.3-1.032-.661-3.139-1.373-6.27-1.95-9.424a114.289,114.289,0,0,0-3.453-12.283c-.417-1.378-.9-2.74-1.315-4.118a2.449,2.449,0,0,1,.007-1.906,3.388,3.388,0,0,0,.125-1.144c.024-.252-.049-.6.088-.74.722-.733.441-1.583.364-2.414-.094-1.038-.183-2.075-.275-3.132.7-.684,1.388-1.309,1.315-2.352a4.676,4.676,0,0,0-1.031-2.7c-.739-.917-1.419-1.879-2.2-2.916a10.364,10.364,0,0,0,1.08-.777,5.888,5.888,0,0,0,1.17-1.285,1.5,1.5,0,0,0-.4-2.112c-1.183-.929-2.4-1.819-3.661-2.644a4.307,4.307,0,0,0-3.74-.461C13.642,114.587,2.872,93.9,1.349,88.854A2.681,2.681,0,0,1,2.8,88.6,3.251,3.251,0,0,0,5.14,87.77a1.6,1.6,0,0,1,.884-.317A106.14,106.14,0,0,0,21.34,83.964a23.529,23.529,0,0,1,9.52-.739c5.935.574,11.871,1.162,17.809,1.688,1.564.138,3.145.094,4.716.079a14.114,14.114,0,0,0,4.778-1.038c2.21-.811,4.468-1.5,6.644-2.391,1.932-.792,3.8-1.748,5.66-2.706A94.309,94.309,0,0,1,85.928,72.59a5.526,5.526,0,0,1,2.873-.121A142.809,142.809,0,0,0,103.518,75a33.056,33.056,0,0,0,5.49.169,4.992,4.992,0,0,1,3.845,1.284,6.256,6.256,0,0,1-.115,1.076,49.727,49.727,0,0,0-1.3,8.144c-.256,2.673-.382,5.359-.584,8.039a7.885,7.885,0,0,1-.285,1.934,10.8,10.8,0,0,0-.45,3.884q.121,3.635.242,7.271c.014.451,0,.9,0,1.428a11.345,11.345,0,0,0-5.442,4.7,7.764,7.764,0,0,0-.851,1.545,1.66,1.66,0,0,0,.749,2.2c.43.269.914.454,1.495.736a6.761,6.761,0,0,0-.549,1.067,5.239,5.239,0,0,0-.308,1.519c-.009,1.835.907,2.658,2.707,2.48.379-.036.75-.138,1.214-.227l-2.3,3.545c-1.4.179-3.024.319-4.619.6-1.672.3-3.319.752-4.983,1.117a35.767,35.767,0,0,0-4.937,1.1c.367.26.556.5.754.509a9.6,9.6,0,0,0,2.147-.088c1.86-.377,3.7-.832,5.549-1.271,1.969-.468,3.935-.951,5.906-1.431a6.313,6.313,0,0,0,.982,1.491,6.724,6.724,0,0,0,1.642.75,2.4,2.4,0,0,0,1.147,2.5c.272.152.387.653.5,1.016a116.084,116.084,0,0,1,3.351,13.538c.71,4.064,1.277,8.154,1.935,12.229a27.959,27.959,0,0,0,1.831,7.016m1.773-50.176a1.8,1.8,0,0,0,.415,1.242,12.261,12.261,0,0,1,2.249,7.572,7.185,7.185,0,0,0,.089,1.955,7.575,7.575,0,0,1-1.642,6.6c-.737.919-1.5,1.819-2.3,2.687a2.805,2.805,0,0,1-2.988,1.022,2.324,2.324,0,0,0-.761.061,1.818,1.818,0,0,0,2.4,1.057,5.6,5.6,0,0,0,2.457-1.565c.756-.9,1.526-1.781,2.4-2.8a7.693,7.693,0,0,1,.471.87c1.262,3.377,2.539,6.747,3.755,10.138a47.849,47.849,0,0,1,1.507,4.879,8.444,8.444,0,0,1-.792,6.283c-1.367,2.465-3.585,3.183-6.385,2.59a17.056,17.056,0,0,1-2.895-1.2,1.891,1.891,0,0,1-1.147-1.678q-.687-4.567-1.469-9.121a122.446,122.446,0,0,0-3.012-12.406c-.123-.433-.213-.875-.381-1.567,3.022-.653,5.827-1.257,8.633-1.87.438-.1.923-.174.962-.92a2.72,2.72,0,0,0-.863-.153c-2.075.292-4.149.6-6.214.951a4.911,4.911,0,0,0-1.276.5,2.617,2.617,0,0,1-2.406-.036,1.664,1.664,0,0,1,.786-2.366c1.2-.666,2.339-1.443,3.556-2.072a7.821,7.821,0,0,1,3.777-.95.885.885,0,0,0,.981-.618,2.711,2.711,0,0,0-.725-.247,8.393,8.393,0,0,0-4.559.912c-.961.561-1.93,1.11-2.894,1.666-.567.327-1.116.691-1.7.975a1.294,1.294,0,0,1-1.7-.443,8.837,8.837,0,0,1,1.906-3.677c.519-.67,1.2-1.214,1.745-1.862a4.281,4.281,0,0,1,2.344-1.336c.8-.2,1.607-.377,2.734-.64a6.977,6.977,0,0,0-1.335-.553,5.262,5.262,0,0,0-3.376.812c-.684.39-1.324.865-2.034,1.19a10.112,10.112,0,0,1-2.222.739c-.954.188-1.469-.342-1.472-1.321a2.3,2.3,0,0,1,.615-1.617,17.581,17.581,0,0,1,5.392-4.2,4.017,4.017,0,0,1,2.107-.355c.5.048,1.013.065,1.473.095a.473.473,0,0,0-.244-.72,3.755,3.755,0,0,0-3.59-.175c-1,.479-1.93,1.093-2.878,1.669-.561.34-1.059.785-1.642,1.072a2.2,2.2,0,0,1-2.665-.354c-.03-.2-.1-.346-.059-.447a13.4,13.4,0,0,1,3.457-4.708,5.8,5.8,0,0,1,1.546-.8c.41-.187.865-.286,1.256-.5a3.115,3.115,0,0,1,2.664-.188,14.579,14.579,0,0,1,2.283,1.115c.623.36,1.178.83,1.772,1.238,1.259.866,2.142,1.912,1.891,3.585m-1.469-4.8c-2.258-1.412-4.274-3.008-7.012-2.194a8.177,8.177,0,0,1-.319-2.427c.081-2.419.083-4.843.209-7.259.2-3.855.423-7.712.738-11.558a38.019,38.019,0,0,1,1.707-9.378,4.778,4.778,0,0,1,.824.388,11.144,11.144,0,0,1,1.04.9,7.342,7.342,0,0,1,2.538,4.7c.335,3.054.908,6.083,1.295,9.133.181,1.425.148,2.875.241,4.313a14.225,14.225,0,0,0,.267,2.339,20.126,20.126,0,0,0,.8,2.238c-1.021,2.781-2.276,5.531-2.327,8.807m29.373-19.3c-.025,1.435-.287,2.866-.442,4.3a2.042,2.042,0,0,1-.077.385A6.617,6.617,0,0,1,144.3,98.47a15.44,15.44,0,0,1-1.36-6.227c.058-1.9.02-3.8-.021-5.7a10.5,10.5,0,0,0-.263-2.143,14.5,14.5,0,0,0-.676-1.817c2-1.626,3.866-3.139,5.736-4.655.394.2.269.566.269.86.006,3.935.036,7.869-.032,11.8m-13.9-9.007a17.035,17.035,0,0,1-7.479-5.567,53.541,53.541,0,0,1-4.89-7.119,11.837,11.837,0,0,1-1.279-3.276c-.328-1.6-.761-3.188-1.049-4.8a42.845,42.845,0,0,1-.32-10.779,18.242,18.242,0,0,1,.869-3.821c1.369-4.558,3.8-8.6,6.339-12.866a7.234,7.234,0,0,1,.743.653,22.555,22.555,0,0,0,7.843,5.777c.056.03.13.034.183.069,2.989,1.964,6.342,3.387,8.884,6.023a5.216,5.216,0,0,1,1.383,2.3A60.414,60.414,0,0,1,147.1,58.428c.52,5.086.785,10.189.927,15.3a4.066,4.066,0,0,1-1.2,3.166,28.59,28.59,0,0,1-4.7,3.858,8.446,8.446,0,0,1-8.07.832M172.4,102.665a2.87,2.87,0,0,1-1.73,2.27,4.747,4.747,0,0,1-.67-.348,2.331,2.331,0,0,0-2.41-.319c-.182.071-.389.083-.564.165a3.062,3.062,0,0,1-3-.256c-.171-.1-.348-.183-.522-.277a3.01,3.01,0,0,0-3-.041c-.228.116-.474.2-.71.3-.822-.367-1.161-1.263-2.05-1.527a6.146,6.146,0,0,0-3.272-.268,1.566,1.566,0,0,1-1.831-.8,10.66,10.66,0,0,0-.913-1.28,1.531,1.531,0,0,0-2.107-.4c-.451.223-.873.5-1.293.749-.147-.193-.28-.287-.28-.382-.006-.98-.061-1.968.031-2.941.228-2.477.529-4.95.792-7.425.082-.782.191-1.564.2-2.349.092-6.225.291-12.457-.184-18.676-.285-3.725-.55-7.452-.931-11.166a49.313,49.313,0,0,0-2.771-12.437,5.314,5.314,0,0,0-1.141-2.212c-.595.428.059.885-.16,1.281-.107.026-.262.116-.325.074-.692-.495-1.392-.981-2.042-1.527a11.818,11.818,0,0,0-3.741-2.463c-1.512-1.42-3.544-1.953-5.23-3.074-1.09-.726-2.216-1.41-3.23-2.231a5.788,5.788,0,0,1-2.427-3.593,5.621,5.621,0,0,0-.957.9c-2.411,3.978-4.867,7.927-6.452,12.346a28.637,28.637,0,0,0-1.326,7.127,36.188,36.188,0,0,0,2.336,16.2,16.83,16.83,0,0,0,1.491,2.975c1.793,2.889,3.369,5.954,6.063,8.167a30.556,30.556,0,0,0,3.323,2.436,10.712,10.712,0,0,0,8.656,1.476,5.228,5.228,0,0,1,.808-.083,7.715,7.715,0,0,1,1.237,4.083,7.92,7.92,0,0,1-3.423,2.588c-1.909.86-3.853,1.653-5.779,2.479-1.145.491-2.293.97-3.424,1.491a17.545,17.545,0,0,0-7.152,5.36,4.823,4.823,0,0,1-.694.641,3.482,3.482,0,0,1-.768-2.019c-.119-1.239-.3-2.479-.313-3.723a65.52,65.52,0,0,0-1.009-9.169c-.555-3.694-1.191-7.375-1.85-11.052-.323-1.8-.848-3.57-1.159-5.376-.736-4.257-1.4-8.527-2.1-12.791a41.265,41.265,0,0,1-.505-8.622c.256-5.415.39-6.037,2.508-11.01a9.054,9.054,0,0,1,.941-1.717,30.437,30.437,0,0,1,9.018-8.638,45.747,45.747,0,0,1,11.6-5.233,18.432,18.432,0,0,1,12.672.894c4.17,1.859,9.884,7.229,11.986,11.3a34.122,34.122,0,0,1,2.986,8.3,100.335,100.335,0,0,1,2.488,17.693c.073,1.824.461,3.634.655,5.459.272,2.54.506,5.086.735,7.631.434,4.834,1.191,9.623,1.929,14.417a55.365,55.365,0,0,1,.911,9.381c-.02,1.174.18,2.35.252,3.528a11.4,11.4,0,0,1-.175,3.717m-39.693,20.5a1.1,1.1,0,0,1,.594-1.61c.575-.262,1.2-.423,1.975-.687a3.479,3.479,0,0,1-.009.869c-.359,1.035-.754,2.061-1.2,3.28a4.092,4.092,0,0,1-1.355-1.852m43.145,20.186a114.464,114.464,0,0,1-7.741,19.107,22.622,22.622,0,0,1-3.615,5.125,6.549,6.549,0,0,1-1.888,1.377,3.041,3.041,0,0,1-3.346-.178,13.072,13.072,0,0,1-2.321-2.1,22.875,22.875,0,0,1-2.167-3.036,47.325,47.325,0,0,1-5.758-14.141c-.117-.51-.256-1.017-.407-1.519-.746-2.442-1.543-4.869-2.228-7.328a2.382,2.382,0,0,0-.955-1.408c-.745-.534-1.494-1.065-2.261-1.565a12.019,12.019,0,0,1-3.286-3.073,7.594,7.594,0,0,1-.456-.846c.589-.344,1.049-.377,1.42.174a7.924,7.924,0,0,0,.555.808,3.3,3.3,0,0,0,4.253.85,3.928,3.928,0,0,0,2.445-2.387c.44-1.519.05-2.2-1.519-2.463-.241-.043-.483-.1-.7-.14-.207-1.393.763-2.569.444-3.907-.2.066-.388.068-.434.151a19.86,19.86,0,0,0-1.636,5.213,5.177,5.177,0,0,0-.016,1.291c1.078-.05.725-1.182,1.481-1.624l1.3.075c.106.226.223.349.207.453a3.285,3.285,0,0,1-2.865,2.763,2.775,2.775,0,0,1-2.828-1.715,4.311,4.311,0,0,1-.361-3.574,37.126,37.126,0,0,1,2.208-5.034c.216-.4.431-.795.066-1.235-1.987,1.486-3.827,5.989-3.656,8.912-.791.254-1.18-.354-1.641-.777a2.236,2.236,0,0,1-.814-1.72,10.658,10.658,0,0,1,1.071-4.95c.581-1.095,1.323-2.1,1.981-3.156.19-.3.348-.627.574-1.046-1.229.261-1.741.6-2.7,2.135a12.848,12.848,0,0,0-1.432,3,25.52,25.52,0,0,0-.584,3.487c-.572-.028-.67-.517-.891-.881a3.062,3.062,0,0,1-.3-2.81c.341-.92.59-1.876.946-2.792a5.869,5.869,0,0,1,4.282-3.932c.638-.147,1.274-.3,1.9-.505.207-.067.366-.286.765-.617-.985-.049-1.681-.083-2.453-.124a9.679,9.679,0,0,1-.657-1.147c-1.126-2.735-3.283-4.494-5.677-6.027a8.864,8.864,0,0,1-2.426-1.969c-.581-.763-.359-1.337.6-1.555a3.88,3.88,0,0,1,2.3.3,13.071,13.071,0,0,1,3.875,2.293,50.41,50.41,0,0,1,6.381,6.4c.327.411.652.822.986,1.228a3.849,3.849,0,0,0,.641.743c3.769,2.778,5.5,6.729,6.39,11.146.282,1.411.482,2.843.633,4.276a4.9,4.9,0,0,0,1.057,2.648,32.411,32.411,0,0,1,2.679,4.343c1.711,3.1,3.355,6.234,5.046,9.343a10.4,10.4,0,0,0,.985,1.456.522.522,0,0,0,.507.05.567.567,0,0,0,.176-.491,3.751,3.751,0,0,0-.371-.9c-.337-.635-.705-1.256-1.055-1.888-1.427-2.571-1.532-2.713-1.09-5.592.589-3.82,1.31-7.619,1.99-11.426a6.09,6.09,0,0,1,.338-.938c4.126.515,8.151,1.01,11.664,3.329.44.288.871.587,1.288.9.256.193.482.427.722.643a53.092,53.092,0,0,1-1.61,8.5" transform="translate(0 0)" fill="#1d262d" fill-rule="evenodd"/>
            <path id="Trazado_1356097" data-name="Trazado 1356097" d="M30.092,106.855c.29.22.506.3.559.436,4.1,10.681,8.2,21.36,11.023,32.473.016.066-.133.172-.265.332a3.363,3.363,0,0,1-.852-1.483c-.491-1.352-1.032-2.688-1.431-4.068-2.241-7.73-5.034-15.273-7.676-22.866-.429-1.233-.817-2.483-1.2-3.732a7.829,7.829,0,0,1-.157-1.092" transform="translate(-4.458 -15.831)" fill="#1d262d" fill-rule="evenodd"/>
            <path id="Trazado_1356098" data-name="Trazado 1356098" d="M43.914,158.722a23.866,23.866,0,0,1,1.906,6.352c1.274,6.356,2.518,12.718,3.424,19.139.211,1.493.4,2.985.572,4.482a2.323,2.323,0,0,1-.136.745.175.175,0,0,1-.137.1c-.118-.015-.307-.029-.333-.1a4.291,4.291,0,0,1-.269-.919c-.6-3.881-1.142-7.773-1.809-11.645-.967-5.614-2.027-11.212-3.04-16.815-.079-.442-.121-.894-.178-1.338" transform="translate(-6.506 -23.515)" fill="#1d262d" fill-rule="evenodd"/>
            <path id="Trazado_1356099" data-name="Trazado 1356099" d="M74.809,155.342a3.677,3.677,0,0,1,.216.7c.986,9.823,2.5,19.585,3.344,29.449-.7.046-.687-.472-.734-.758-.308-1.871-.592-3.745-.816-5.626q-.754-6.333-1.44-12.673c-.348-3.188-.662-6.379-.974-9.569-.049-.505-.006-1.019-.006-1.532l.41.009" transform="translate(-11.02 -23.012)" fill="#1d262d" fill-rule="evenodd"/>
            <path id="Trazado_1356100" data-name="Trazado 1356100" d="M107.842,162.125a10.7,10.7,0,0,1,.1,1.267c-.2,4.709.016,9.411.25,14.116.141,2.87.076,5.753.089,8.628,0,.367.057.818-.573.914a7.913,7.913,0,0,1-.324-2.651c-.1-2.678-.153-5.358-.248-8.038-.094-2.743-.29-5.487-.295-8.23,0-1.692.266-3.383.422-5.073a1.186,1.186,0,0,1,.578-.933" transform="translate(-15.829 -24.019)" fill="#1d262d" fill-rule="evenodd"/>
            <path id="Trazado_1356101" data-name="Trazado 1356101" d="M71.532,135.734a3.886,3.886,0,0,1-1.2-2.281c-.5-2.3-.988-4.608-1.476-6.913-1.162-5.514-1.958-11.087-2.643-16.676a4.639,4.639,0,0,1,.087-1.795,15.976,15.976,0,0,1,.44,1.653c1.337,8.409,3.033,16.747,4.785,25.074a6.691,6.691,0,0,1,0,.938" transform="translate(-9.803 -16.01)" fill="#1d262d" fill-rule="evenodd"/>
            <path id="Trazado_1356102" data-name="Trazado 1356102" d="M103.726,99.681a9.53,9.53,0,0,1,.1,1.063,86.7,86.7,0,0,0,.622,9.39q.781,8.3,1.6,16.59a30.566,30.566,0,0,1,.051,4.063c-.6-.161-.527-.546-.554-.841-.3-3.319-.581-6.643-.885-9.961-.324-3.516-.733-7.023-.993-10.54-.193-2.608-.224-5.224-.295-7.838a17.323,17.323,0,0,1,.156-1.927Z" transform="translate(-15.315 -14.768)" fill="#1d262d" fill-rule="evenodd"/>
            <path id="Trazado_1356103" data-name="Trazado 1356103" d="M47.462,154.925a3.619,3.619,0,0,1,.8-.3,73.239,73.239,0,0,0,11.048-1.6,51.777,51.777,0,0,1,8.373-.93,2.008,2.008,0,0,1,1.193.258,18.147,18.147,0,0,1-1.863.361c-3.852.354-7.6,1.306-11.4,1.929-2.061.337-4.149.508-6.23.716a2.41,2.41,0,0,1-1.912-.435" transform="translate(-7.031 -22.533)" fill="#1d262d" fill-rule="evenodd"/>
            <path id="Trazado_1356104" data-name="Trazado 1356104" d="M77.589,151.87c1.193-.909,2.4-.372,3.6-.382,1.24-.012,2.481.04,3.723.049s2.48.01,3.723.015,2.481.006,3.722.005,2.481-.01,3.723-.012,2.473,0,4.018,0a3.025,3.025,0,0,1-1.985.7c-1.628.108-3.259.237-4.89.237-3.722,0-7.447-.028-11.167-.133-1.492-.041-2.975-.313-4.463-.478" transform="translate(-11.495 -22.421)" fill="#1d262d" fill-rule="evenodd"/>
            <path id="Trazado_1356105" data-name="Trazado 1356105" d="M41.038,156.421c-1.014,0-1.79.043-2.561-.011-1.623-.108-3.245-.255-4.862-.428-.182-.021-.336-.319-.5-.488.174-.162.359-.473.52-.462a35.127,35.127,0,0,1,6.967.757c.089.024.14.191.44.631" transform="translate(-4.906 -22.968)" fill="#1d262d" fill-rule="evenodd"/>
            <path id="Trazado_1356106" data-name="Trazado 1356106" d="M191.176,101.009c-.076-.9-.175-1.8-.218-2.7-.151-3.143-.218-6.292-.433-9.43-.253-3.661-.562-7.322-.957-10.971-.532-4.885-1.187-9.76-1.758-14.642a72.748,72.748,0,0,0-3.027-13.2c-.407-1.314-.819-2.625-1.2-3.947-.176-.609-.286-1.237-.49-2.14.382.3.578.37.625.5a89.03,89.03,0,0,1,5.228,19.916c.815,6.639,1.581,13.279,2.16,19.939a133.743,133.743,0,0,1,.549,13.95c-.015.914-.078,1.829-.121,2.743-.119-.006-.24-.01-.358-.014" transform="translate(-27.125 -6.515)" fill="#1d262d" fill-rule="evenodd"/>
            <path id="Trazado_1356107" data-name="Trazado 1356107" d="M182.649,100.446c-.046-.309-.109-.617-.13-.927q-.408-5.387-.8-10.773c-.31-4.18-.6-8.36-.941-12.534-.31-3.786-.678-7.564-1.026-11.346A101.963,101.963,0,0,0,177.12,49.2c-.1-.377-.143-.768-.2-1.154-.008-.053.047-.115.121-.284a1.445,1.445,0,0,1,.656,1.022,67.241,67.241,0,0,1,2,8.6c.739,4.656,1.185,9.347,1.642,14.038.834,8.541,1.4,17.1,1.666,25.671.026.85.037,1.7.043,2.552,0,.256-.043.511-.066.768l-.326.033" transform="translate(-26.21 -7.076)" fill="#1d262d" fill-rule="evenodd"/>
            <path id="Trazado_1356108" data-name="Trazado 1356108" d="M142.038,88.117c2.047,2.638,3.334,10.139,2.808,15.783a16.873,16.873,0,0,1-.64-3.458,62.233,62.233,0,0,0-1.171-8.555c-.3-1.263-.661-2.514-1-3.77" transform="translate(-21.043 -13.054)" fill="#1d262d" fill-rule="evenodd"/>
            <path id="Trazado_1356109" data-name="Trazado 1356109" d="M159.387,29.934c3.076.064,8.22,3.829,9.958,7.128a7.529,7.529,0,0,1-1.907-1.447c-.615-.481-1.187-1.021-1.8-1.511-.663-.531-1.331-1.059-2.03-1.537-.643-.443-1.337-.814-2-1.23a7.813,7.813,0,0,1-2.222-1.4" transform="translate(-23.613 -4.435)" fill="#1d262d" fill-rule="evenodd"/>
            <path id="Trazado_1356110" data-name="Trazado 1356110" d="M136.392,50.8a10.935,10.935,0,0,1,1.074-4.5c1.477-4.086,2.376-5.688,3.873-7.105a.489.489,0,0,1,.114.129.266.266,0,0,1,.01.182c-.961,2.064-1.969,4.108-2.874,6.2-.676,1.549-1.218,3.158-1.826,4.735-.041.106-.175.174-.371.362" transform="translate(-20.205 -5.807)" fill="#1d262d" fill-rule="evenodd"/>
            <path id="Trazado_1356111" data-name="Trazado 1356111" d="M165.877,43.361c-2.569-1.054-6.737-5.214-8.765-8.38.187-.287.424-.248.63-.056.431.4.848.81,1.256,1.231q2.787,2.886,5.568,5.781c.445.464.874.948,1.31,1.424" transform="translate(-23.276 -5.152)" fill="#1d262d" fill-rule="evenodd"/>
            <path id="Trazado_1356112" data-name="Trazado 1356112" d="M176.652,35.689c-.877-.952-1.717-1.942-2.642-2.846a31.862,31.862,0,0,0-3.086-2.717c-1.034-.772-2.2-1.377-3.577-2.222a4.329,4.329,0,0,1,1.122.014,9.816,9.816,0,0,1,1.795.773,14.914,14.914,0,0,1,6.388,7" transform="translate(-24.792 -4.13)" fill="#1d262d" fill-rule="evenodd"/>
            <path id="Trazado_1356113" data-name="Trazado 1356113" d="M69.124,64.876c-.368.618-.912.577-1.434.579a2.268,2.268,0,0,1-1.6-.647A3.433,3.433,0,0,1,64.925,62.4a24.746,24.746,0,0,1-.005-2.551,21.655,21.655,0,0,0-.582-8.173.754.754,0,0,1-.01-.387c.029-.116.117-.3.186-.307.171-.013.458.014.5.114a13.851,13.851,0,0,1,.779,2,16.883,16.883,0,0,1,.405,4.874c-.03,1.177-.106,2.357-.09,3.534.029,1.986.42,2.477,2.317,3.106.232.077.454.173.7.267" transform="translate(-9.527 -7.552)" fill="#1d262d" fill-rule="evenodd"/>
            <path id="Trazado_1356114" data-name="Trazado 1356114" d="M67.7,72.09c.5,0,.648-.042.746.007,2.858,1.391,5.315.525,7.568-1.368.7-.587,1.319-1.262,1.983-1.887.227-.211.485-.39.941-.754a5.073,5.073,0,0,1-.12,1.161c-.934,2.316-4.957,5.319-8.142,4.652a11.069,11.069,0,0,1-2.341-.9c-.233-.11-.344-.478-.635-.913" transform="translate(-10.03 -10.087)" fill="#1d262d" fill-rule="evenodd"/>
            <path id="Trazado_1356115" data-name="Trazado 1356115" d="M77.66,56.383a1.361,1.361,0,0,1-1.38-1.361,1.439,1.439,0,0,1,1.264-1.677,1.33,1.33,0,0,1,1.486,1.228,1.547,1.547,0,0,1-1.371,1.811" transform="translate(-11.3 -7.902)" fill="#1d262d" fill-rule="evenodd"/>
            <path id="Trazado_1356116" data-name="Trazado 1356116" d="M59.779,59.767c0,1.008-.291,1.494-.9,1.6A1.36,1.36,0,0,1,57.4,60.154a2.362,2.362,0,0,1,.016-.946,1.208,1.208,0,0,1,1.3-.911,1.186,1.186,0,0,1,1.022,1,4.06,4.06,0,0,1,.04.469" transform="translate(-8.498 -8.636)" fill="#1d262d" fill-rule="evenodd"/>
            <path id="Trazado_1356117" data-name="Trazado 1356117" d="M100.627,42.761c-.52,1.5-1.038,2.993-1.584,4.568-.791-.854-.409-1.742-.158-2.555a3.562,3.562,0,0,1,1.421-2.286c.106.092.214.182.321.273" transform="translate(-14.603 -6.295)" fill="#1d262d" fill-rule="evenodd"/>
            <path id="Trazado_1356118" data-name="Trazado 1356118" d="M73.713,44.745c.066-.718.565-.851.98-.917a4.425,4.425,0,0,1,3.015.354,21.456,21.456,0,0,1-3.994.563" transform="translate(-10.921 -6.477)" fill="#1d262d" fill-rule="evenodd"/>
            <path id="Trazado_1356119" data-name="Trazado 1356119" d="M53.657,49.334c-.2-.5.086-.7.36-.84a2.822,2.822,0,0,1,2.44-.167,3.912,3.912,0,0,1-2.8,1.007" transform="translate(-7.939 -7.131)" fill="#1d262d" fill-rule="evenodd"/>
            <path id="Trazado_1356120" data-name="Trazado 1356120" d="M91.805,27.107a2.579,2.579,0,0,1-2.078-1.315c-.359-.618-.657-1.277-.974-1.921s-.6-1.31-.941-1.941A4.678,4.678,0,0,0,85,19.63c-.876-.273-1.756-.532-2.642-.75a5.541,5.541,0,0,1-3.62-2.5,10.025,10.025,0,0,0-5.529-4.158A21.032,21.032,0,0,0,67.7,10.89c-.438-.033-.938.012-1.213-.6.2-.123.4-.352.61-.365a9.176,9.176,0,0,1,2.146,0,23.252,23.252,0,0,1,5.975,1.866,9.3,9.3,0,0,1,4.034,3.334,6.1,6.1,0,0,0,3.868,2.786c.379.09.732.285,1.1.4a8.65,8.65,0,0,1,5.317,4.629c.586,1.161,1.354,2.232,2.028,3.349a4.675,4.675,0,0,1,.238.814" transform="translate(-9.85 -1.461)" fill="#1d262d" fill-rule="evenodd"/>
            <path id="Trazado_1356121" data-name="Trazado 1356121" d="M55.166,20.88c.268-.4.355-.674.535-.767a5.7,5.7,0,0,1,1.448-.573,16.569,16.569,0,0,1,5.264-.319,11.282,11.282,0,0,1,7.748,4.144,25.305,25.305,0,0,0,5.608,5.165c.964.639,1.987,1.193,3.071,1.843a3.177,3.177,0,0,1-2.085-.139,10.591,10.591,0,0,1-3.071-1.71,30.06,30.06,0,0,1-4.22-4.083,15.791,15.791,0,0,0-2.383-2.311,9.945,9.945,0,0,0-5.707-1.808,21.141,21.141,0,0,0-5.064.476,11.378,11.378,0,0,1-1.145.083" transform="translate(-8.173 -2.834)" fill="#1d262d" fill-rule="evenodd"/>
            <path id="Trazado_1356122" data-name="Trazado 1356122" d="M95.591,20.6c-.371-.386-.669-.568-.768-.823a18.423,18.423,0,0,1-.995-2.967c-.686-3.482-1.219-4.117-4.614-5.782a10.5,10.5,0,0,1-1.487-.927c-.088-.061-.06-.347-.014-.509a.362.362,0,0,1,.321-.15c2.755,1.141,5.468,2.334,6.347,5.6.394,1.452.819,2.9,1.2,4.356a5.791,5.791,0,0,1,.012,1.2" transform="translate(-12.988 -1.398)" fill="#1d262d" fill-rule="evenodd"/>
            <path id="Trazado_1356123" data-name="Trazado 1356123" d="M151.1,84.131c.064-.155.077-.251.114-.262,2.761-.753,5.517-1.519,8.289-2.234a17.567,17.567,0,0,1,2.694-.453,1.285,1.285,0,0,1,1.582,1.48,8.91,8.91,0,0,1-.188,1.552,4.886,4.886,0,0,1-4.152,4.12,6.391,6.391,0,0,1-6.408-1.948c-.342-.391-.65-.813-.989-1.21-.316-.366-.65-.72-.942-1.045m2.1.457c1.808,3.035,4.4,3.016,6.654,2.481a3.436,3.436,0,0,0,2.271-1.732,4.675,4.675,0,0,0,.7-3.239,4.3,4.3,0,0,0-1.015.011c-2.871.788-5.778,1.458-8.612,2.479" transform="translate(-22.385 -12.025)" fill="#1d262d" fill-rule="evenodd"/>
            <path id="Trazado_1356124" data-name="Trazado 1356124" d="M149.565,65.39a15.4,15.4,0,0,1-.025,6.759c-.173.761-.379,1.515-.547,2.278a2.491,2.491,0,0,0,1.412,3.085,8.474,8.474,0,0,1,1.055.724c-.137.57-.526.469-.8.441a3.1,3.1,0,0,1-2.947-3.447,8.381,8.381,0,0,1,.394-1.908,17.928,17.928,0,0,0,.9-6.162,2.116,2.116,0,0,1,.555-1.769" transform="translate(-21.882 -9.687)" fill="#1d262d" fill-rule="evenodd"/>
            <path id="Trazado_1356125" data-name="Trazado 1356125" d="M161.537,65.43A1.881,1.881,0,0,1,162.926,68a1.252,1.252,0,0,1-1.389.416.9.9,0,0,1-.806-.934,5.115,5.115,0,0,1,.2-1.513c.081-.245.44-.4.6-.538" transform="translate(-23.812 -9.693)" fill="#1d262d" fill-rule="evenodd"/>
            <path id="Trazado_1356126" data-name="Trazado 1356126" d="M145.193,70.048a3.616,3.616,0,0,1-.227.828.9.9,0,0,1-.973.468c-.405-.057-.771-.256-.8-.7a6.929,6.929,0,0,1,.054-1.526.912.912,0,0,1,.971-.756.967.967,0,0,1,.924.823c.037.252.035.51.056.863" transform="translate(-21.21 -10.128)" fill="#1d262d" fill-rule="evenodd"/>
            <path id="Trazado_1356127" data-name="Trazado 1356127" d="M160.155,53.749a2.693,2.693,0,0,1,3.037-.585,1.009,1.009,0,0,1,.481.549c.049.113-.137.468-.174.461a14.75,14.75,0,0,0-3,0c-.106,0-.223-.267-.347-.426" transform="translate(-23.727 -7.845)" fill="#1d262d" fill-rule="evenodd"/>
            <path id="Trazado_1356128" data-name="Trazado 1356128" d="M144.924,55.96a6.834,6.834,0,0,1-2.849,1.344.378.378,0,0,1-.294-.193.418.418,0,0,1,.006-.364c.436-.645,1.185-.751,1.843-.983.244-.084.578.077,1.293.2" transform="translate(-20.999 -8.258)" fill="#1d262d" fill-rule="evenodd"/>
          </g>
        </g>
      </g>
    </g>
  </g>
</svg>
