<svg xmlns="http://www.w3.org/2000/svg" xmlns:xlink="http://www.w3.org/1999/xlink" width="93.513" height="129.31" viewBox="0 0 93.513 129.31">
  <defs>
    <clipPath id="clip-path">
      <rect id="Rectángulo_457679" data-name="Rectángulo 457679" width="93.513" height="129.31" fill="none"/>
    </clipPath>
  </defs>
  <g id="Grupo_1207588" data-name="Grupo 1207588" transform="translate(-638.217 -3618.5)">
    <g id="Grupo_1207414" data-name="Grupo 1207414" transform="translate(638.217 3618.5)">
      <g id="Grupo_1207413" data-name="Grupo 1207413" clip-path="url(#clip-path)">
        <path id="Trazado_1356133" data-name="Trazado 1356133" d="M177.572,30.31c-21.485,0-28.985.19-44.026-1.077-.181-.017-.378-.057-.562-.057q0-.8.052-1.589a.141.141,0,0,0,.015-.205,50.438,50.438,0,0,1,1.355-7.138c13.347-2.446,12.546-2.269,12.546-2.428a17.288,17.288,0,0,1,1.036-6.313c3.147-7.053,12.178-5.275,14.6-.21a18.18,18.18,0,0,1,1.117,7.342c-.032.77-.265-.36,13.014,2.41.767,2.451.9,6.725.848,9.264m-19.6-16.729a2.511,2.511,0,0,0-2.222-2.076c-2.541-.127-3.7,2.485-1.853,4.171a2.422,2.422,0,0,0,4.075-2.1" transform="translate(-103.927 -5.342)" fill="#ed4c4c"/>
        <path id="Trazado_1356134" data-name="Trazado 1356134" d="M297.253,338.306q-.046,1.619-.094,3.243c-.054,1.834-.067,2.316-.188,6.465-.931.142-.59.094-13.986-.9q.243-4.979.483-9.959,2.314.19,4.626.385l7.571.629q.8.066,1.589.133" transform="translate(-221.152 -263.489)" fill="#ffc466"/>
        <path id="Trazado_1356135" data-name="Trazado 1356135" d="M200.064,246.248q-.052,1.622-.107,3.243-.085,2.671-.175,5.342c-.013.374-.026.747-.037,1.121a14.8,14.8,0,0,1-2.983-.039q-1.6-.108-3.2-.212l-6.35-.417-3.437-.225.551-9.962,5.277.387,8.62.629,1.842.133" transform="translate(-143.62 -191.544)" fill="#ffc466"/>
        <path id="Trazado_1356136" data-name="Trazado 1356136" d="M105.133,323.206c0,.027-.279,9.686-.28,9.708-.785.122-.21.153-13.989-.9q.243-4.979.485-9.959l13.783,1.147" transform="translate(-71.011 -251.688)" fill="#ffc466"/>
        <path id="Trazado_1356137" data-name="Trazado 1356137" d="M195.613,406.616l-.249,8.585-.033,1.123a11.743,11.743,0,0,1-2.642-.046l-2.775-.208-5.554-.417q-1.508-.111-3.015-.225.243-4.979.483-9.959l12.2,1.014q.8.066,1.589.133" transform="translate(-141.721 -316.873)" fill="#ffc466"/>
        <path id="Trazado_1356138" data-name="Trazado 1356138" d="M53.978,99.439c4.152.146,8.3.332,12.452.533-.039.566-.059,1.134-.052,1.7a.141.141,0,0,0,.135.138c11.3,1.073,20.47,1.107,28.3,1.123,17.587.031,16.691.087,16.691-.12.009-.308.011-.616.011-.924q5.464.1,10.929.074c-.2,9.54-1.64,73.954-2.419,83.518-3.8,2.815-7.528,3.169-12.625,3.321a.146.146,0,0,0-.118.068,28.88,28.88,0,0,1-9.446,9.959c-8.009-.185-21.527-1.595-49.738-3.889,1.572-19.669,5.873-75.715,5.873-95.5M113.972,152.4a.141.141,0,0,0-.138-.135l-4.755-.4-7.571-.629-1.728-.144a.136.136,0,0,0-.135.135c-.545,11.2-.565,10.357-.363,10.37,12.613.946,14.4,1.187,14.4.752q.049-1.685.1-3.367.079-2.671.155-5.342c.013-.415.024-.828.037-1.243M94.316,132.289a.138.138,0,0,0-.135-.135l-5.406-.4-8.62-.629-1.984-.144a.136.136,0,0,0-.135.135q-.285,5.119-.568,10.235a.14.14,0,0,0,.138.135l12.861.846a15.451,15.451,0,0,0,3.422.037.1.1,0,0,0,.1-.116.04.04,0,0,0,0-.015l.111-3.367.177-5.342.039-1.243m-2.69,34.9L79.3,166.167c-1.8-.15-1.857-.209-1.864-.009l-.5,10.235a.138.138,0,0,0,.135.135l11.273.846a12.218,12.218,0,0,0,3.028.037.107.107,0,0,0,.1-.116.04.04,0,0,0,0-.015q.049-1.685.1-3.367.079-2.671.155-5.342c.042-1.32.086-1.362-.1-1.379m-19.77-18.225c-15.115-1.251-14.182-1.263-14.19-1.031l-.5,10.232c-.005.194-.492.088,11.408.981a12.323,12.323,0,0,0,3.028.039.119.119,0,0,0,.1-.133c.168-5.762.1-3.545.253-8.709.011-.415.088-1.362-.1-1.379" transform="translate(-37.594 -77.711)" fill="#fff"/>
        <path id="Trazado_1356139" data-name="Trazado 1356139" d="M299.714,494.869a11.462,11.462,0,0,1-3.081,6.857c-4.556,4.91-11.879,6.24-18.568,6.142A29.454,29.454,0,0,0,287.2,498.1c4.909-.152,8.722-.5,12.511-3.234" transform="translate(-217.307 -386.739)" fill="#b2b6c1"/>
        <path id="Trazado_1356140" data-name="Trazado 1356140" d="M97.308,81.31c.806,36.983-3.649,75.5-3.649,107.462-38.878-1.7-59.183-2.055-86.754-4.049C8.6,146.276,9.471,117.95,13.456,78.1c7.213,0,14.423-.188,21.634,0a31.113,31.113,0,0,0-.837,4.859c-13.592-.658-12.741-.582-12.741-.4-.686,28.726-4.249,78.55-5.889,95.77-.01.115,41.988,3.866,49.952,4.042a.122.122,0,0,0,.133,0c5.121.105,10.079-.429,14.777-2.908,3.387-1.785,6.284-4.619,7.263-8.415a30.581,30.581,0,0,0,.57-6.112c.431-9.1.892-25.663,1.134-34.722,1.285-48.481,1.084-45.263.94-45.263q-5.532.029-11.065-.074c0-1.557-.075-3.131-.218-4.645a.125.125,0,0,0,.081.035q9.059.495,18.118,1.044" transform="translate(-5.396 -60.97)" fill="#c4986b"/>
        <path id="Trazado_1356141" data-name="Trazado 1356141" d="M29.866,71.223c-7.31-.193-14.619,0-21.929,0a1.4,1.4,0,0,0-1.366,1.366Q5.431,83.92,4.521,95.272q-.85,10.616-1.508,21.246-.634,10.168-1.129,20.344Q1.39,146.85.971,156.84.54,166.867.115,176.893q-.056,1.29-.113,2.581a1.392,1.392,0,0,0,1.366,1.366q8.16.572,16.327,1.044,7.338.42,14.681.749,7.462.338,14.927.621,8.531.333,17.063.659,10.492.41,20.983.859l3.052.132a1.382,1.382,0,0,0,1.366-1.366c-.005-6.445.171-12.889.427-19.329.274-6.858.639-13.711,1.02-20.564.4-7.174.815-14.348,1.182-21.524.371-7.266.692-14.536.894-21.809s.287-14.554.173-21.831q-.021-1.337-.051-2.674a1.4,1.4,0,0,0-1.366-1.366q-9.125-.547-18.252-1.054a1.366,1.366,0,1,0,0,2.731q9.128.5,18.252,1.054l-1.366-1.366c.161,7.262.118,14.527-.053,21.789-.172,7.278-.471,14.553-.828,21.824-.354,7.2-.767,14.4-1.171,21.6-.387,6.9-.767,13.794-1.063,20.7-.28,6.5-.489,13.01-.526,19.52q-.006,1.152-.005,2.3l1.366-1.366q-10.855-.474-21.712-.9-8.727-.344-17.454-.675-7.544-.292-15.086-.616-7.307-.323-14.61-.724-7.976-.443-15.946-.993l-2.225-.154,1.366,1.366q.445-10.1.866-20.205.427-9.986.9-19.97.49-10.138,1.094-20.271.639-10.56,1.453-21.108.87-11.195,1.965-22.371.145-1.48.294-2.96L7.937,73.955c7.31,0,14.62-.193,21.929,0,1.758.047,1.757-2.685,0-2.731" transform="translate(0 -55.593)" fill="#092a36"/>
        <path id="Trazado_1356142" data-name="Trazado 1356142" d="M173.694,25.1c.039-1.626,0-3.256-.123-4.877a21.763,21.763,0,0,0-.8-5,1.37,1.37,0,0,0-.954-.954q-4.572-.958-9.2-1.644c-1.382-.205-2.767-.392-4.156-.537l1.366,1.366a20.586,20.586,0,0,0-.034-2.411,17.761,17.761,0,0,0-.907-4.966,9.083,9.083,0,0,0-4.473-4.907A10.473,10.473,0,0,0,147.58.2a8.889,8.889,0,0,0-5.8,4.291,15.914,15.914,0,0,0-1.7,7.792c0,.062,0,.125,0,.187l1-1.317-4.228.78L130.1,13.182l-1.552.286a1.33,1.33,0,0,0-.954.954c-.315,1.49-.7,2.963-.994,4.458a25.465,25.465,0,0,0-.5,5.083,1.4,1.4,0,0,0,1.366,1.366c1.519.144,3.042.26,4.564.37q5.434.394,10.881.594c4.286.153,8.572.151,12.86.159q5.5.011,11,.015c1.825,0,3.652.031,5.477,0h.076a1.366,1.366,0,1,0,0-2.731l-4.5,0q-5.278,0-10.556-.013c-4.264-.008-8.53.014-12.793-.111q-5.691-.167-11.373-.569c-1.856-.128-3.707-.309-5.562-.439l-.077-.007,1.366,1.366a22.128,22.128,0,0,1,.114-2.484,2.879,2.879,0,0,1,.064-.553q-.043.317-.012.091c0-.03.009-.06.013-.09q.023-.157.047-.313c.058-.366.123-.731.195-1.095.289-1.465.668-2.911.977-4.372l-.954.954,4.228-.78,6.743-1.244,1.552-.286a1.375,1.375,0,0,0,1-1.317c0-.775.05-1.553.124-2.324q.023-.235.05-.469.013-.111.027-.222c.038-.3-.042.292,0-.012.05-.342.108-.682.179-1.02s.155-.679.259-1.012q.068-.219.149-.433c.025-.067.052-.133.079-.2.114-.287-.123.27,0,0a9.614,9.614,0,0,1,.9-1.585c.036-.051.074-.1.111-.152.13-.178-.214.265-.043.057.09-.11.18-.219.275-.324a7.523,7.523,0,0,1,.562-.564q.15-.135.307-.262c.188-.152-.032.07-.1.073.046,0,.14-.1.182-.133a7.221,7.221,0,0,1,.636-.4q.156-.087.316-.167l.173-.083c.059-.028.317-.138.061-.031s-.044.019.013,0l.177-.067q.178-.065.359-.121.347-.107.7-.18.171-.035.343-.063c.061-.01.316-.045.031-.007s0,0,.058,0a8.506,8.506,0,0,1,1.446-.024q.188.013.374.033c.064.007.278.035.005,0s-.014,0,.058.01q.358.057.711.142a11.181,11.181,0,0,1,1.4.455c.082.032-.346-.152-.13-.054l.17.077q.169.079.334.164.329.17.644.366t.586.4c.091.067.267.231-.09-.071.04.034.082.065.122.1q.141.115.277.236.269.24.517.5.113.122.222.248l.1.118c.038.046.206.262.036.042s-.02-.023.015.025l.088.124q.1.146.194.3a6.669,6.669,0,0,1,.34.621c.022.045.043.092.064.137l.041.092s-.122-.3-.089-.21c.046.128.1.254.142.383.128.374.236.754.328,1.139s.174.8.239,1.2q.021.127.04.255c.008.053.011.116.024.168,0,.011-.039-.308-.021-.154.023.191.047.382.066.573a23.158,23.158,0,0,1,.114,3.136c0,.054,0,.108-.007.162a1.369,1.369,0,0,0,.4.966,1.561,1.561,0,0,0,.966.4q.851.089,1.7.2l.382.049c.087.012.391.064-.022,0,.057.009.114.016.171.023q.45.062.9.127,1.7.249,3.4.541,2.562.437,5.112.946c.329.066.657.132.985.2l-.954-.954a13.859,13.859,0,0,1,.47,2.1q.024.154.046.308c.055.384-.026-.221,0,.03.026.215.052.429.075.644q.068.64.114,1.282c.116,1.594.156,3.2.117,4.794a1.378,1.378,0,0,0,1.366,1.366,1.392,1.392,0,0,0,1.366-1.366" transform="translate(-98.548 0)" fill="#092a36"/>
        <path id="Trazado_1356143" data-name="Trazado 1356143" d="M223.879,23.818a3.547,3.547,0,0,0-3.516,2.138,3.445,3.445,0,0,0,.987,3.664,3.547,3.547,0,0,0,4.09.488,3.29,3.29,0,0,0,1.583-3.512,3.628,3.628,0,0,0-.96-1.8,3.326,3.326,0,0,0-2.184-.981,1.1,1.1,0,0,0-1.092,1.093A1.12,1.12,0,0,0,223.879,26c.239.018-.262-.061-.033-.008.051.012.1.021.153.034s.1.031.147.045c.213.059-.231-.123-.038-.019.087.047.173.091.255.146.031.021.063.05.1.067-.267-.14-.086-.066,0,.016.068.065.123.149.193.209-.168-.143-.121-.167-.068-.087.031.047.064.092.093.14a2.7,2.7,0,0,1,.134.242c.016.034.1.205.011.019s.005.028.019.07a2.4,2.4,0,0,1,.066.25c.058.277-.017-.268,0,0a1.915,1.915,0,0,1,0,.232c-.005.1-.071.258.01-.03-.017.06-.023.125-.038.186-.024.1-.073.194-.094.291.056-.261.064-.147.009-.045-.023.043-.048.085-.074.127a1.392,1.392,0,0,0-.082.12c.116-.234.1-.129.023-.043-.026.028-.053.056-.081.083s-.227.188-.064.065,0,0-.031.016c-.049.032-.1.062-.15.09-.034.019-.07.035-.1.054-.193.1.253-.083.042-.018-.1.03-.191.062-.29.085-.05.011-.1.016-.152.029q-.129.021.135-.018l-.127.01c-.11.006-.217,0-.327,0-.232,0,.2.044.057.011-.054-.012-.108-.021-.161-.034s-.124-.038-.187-.056c-.107-.03-.051-.077.082.039a3.246,3.246,0,0,0-.334-.184l-.052-.036q-.138-.1.07.056a.613.613,0,0,0-.1-.083c-.078-.071-.146-.149-.22-.225-.157-.163.141.213.016.024-.029-.043-.059-.086-.087-.13-.067-.106-.115-.22-.177-.328-.071-.125.092.267.029.062-.018-.058-.039-.115-.055-.174-.027-.1-.033-.2-.063-.293.005.017.021.287.02.114,0-.058-.006-.115-.005-.173,0-.038,0-.075.005-.112,0-.189-.063.3,0,.015.009-.036.019-.072.029-.108s.023-.071.036-.106q.062-.158-.045.106a3.3,3.3,0,0,0,.172-.294c.058-.09.084-.024-.065.084a1.808,1.808,0,0,0,.16-.171c.029-.028.059-.053.088-.08q.13-.108-.08.058c.033-.024.066-.047.1-.07.086-.057.266-.107.328-.182-.013.016-.256.092-.083.036.073-.024.145-.05.22-.07.054-.015.109-.028.164-.04s.09-.018.135-.025q-.245.03-.116.017c.16-.007.315-.015.475-.007a1.1,1.1,0,0,0,1.093-1.093,1.117,1.117,0,0,0-1.093-1.093" transform="translate(-172.059 -18.61)" fill="#092a36"/>
        <path id="Trazado_1356144" data-name="Trazado 1356144" d="M106.978,98.426q5.584.1,11.168.076l-1.093-1.093q-.061,2.9-.126,5.806-.162,7.314-.334,14.628-.229,9.712-.479,19.423-.259,10.012-.555,20.023c-.167,5.53-.342,11.061-.568,16.589-.078,1.911-.162,3.822-.269,5.731a18.989,18.989,0,0,1-.311,3.038A10.647,10.647,0,0,1,111.8,187.6a18.416,18.416,0,0,1-9.277,5.017c-1.021.251-2.072.355-3.09.595.457-.108.014,0-.125.014s-.282.033-.423.048q-.418.044-.838.077c-.617.048-1.235.078-1.854.1-1.5.042-3,.012-4.493-.045-4.792-.185-9.576-.6-14.353-1-8.491-.707-16.978-1.452-25.468-2.159q-4.182-.348-8.365-.689l1.093,1.093q.33-4.123.649-8.246.764-9.831,1.493-19.665.868-11.734,1.658-23.473.892-13.449,1.484-26.913c.243-5.739.454-11.481.6-17.223,0-.083,0-.166.006-.249L49.4,95.971c4.261.15,8.521.34,12.78.547a1.093,1.093,0,1,0,0-2.185c-4.259-.207-8.519-.4-12.78-.547a1.108,1.108,0,0,0-1.093,1.093c-.112,4.757-.284,9.512-.472,14.267q-.542,13.7-1.436,27.381-.76,11.713-1.632,23.418-.753,10.268-1.549,20.532-.262,3.387-.529,6.774c-.085,1.084-.212,2.174-.258,3.262,0,.046-.007.092-.011.137a1.112,1.112,0,0,0,1.093,1.093q14.557,1.185,29.106,2.449c5.517.47,11.036.966,16.565,1.278a64.748,64.748,0,0,0,9.047.056,27.376,27.376,0,0,0,10.49-2.914c3.6-1.9,6.663-4.962,7.7-8.988a31.7,31.7,0,0,0,.6-6.366c.239-5.03.4-10.064.565-15.1q.314-9.811.568-19.624.268-10.017.506-20.034.2-8.148.378-16.3.094-4.214.185-8.427l.008-.368a1.106,1.106,0,0,0-1.093-1.093q-5.584.03-11.168-.076a1.093,1.093,0,0,0,0,2.185" transform="translate(-33.15 -73.293)" fill="#092a36"/>
        <path id="Trazado_1356145" data-name="Trazado 1356145" d="M135.247,165.527a42.861,42.861,0,0,1-.111-5.807q.07-1.425.235-2.843.025-.21.051-.42c.006-.045.046-.347.016-.129q.05-.367.107-.732.113-.731.252-1.458l-1.053.8c.481.008.962.016,1.441.055.115.01.23.023.345.034-.193-.019.028,0,.1.017a6.076,6.076,0,0,1,.719.165c.111.033.218.072.327.109.186.064-.026.009-.021-.012,0,0,.1.048.11.051a5,5,0,0,1,.525.308c.02.013.135.093.02.011s.019.017.047.042q.108.092.207.192c.057.057.109.117.163.177.152.167-.031-.026-.022-.034s.083.12.09.13a2.727,2.727,0,0,1,.139.238c.124.24-.024-.12.03.063.026.088.055.175.076.265a.436.436,0,0,0,.023.116q-.026-.219-.014-.092c0,.027,0,.053.005.08,0,.094,0,.186,0,.279-.006.158-.046-.01.009-.055a.458.458,0,0,0-.024.116c-.021.09-.051.177-.076.266-.007.024-.048.157,0,.018.051-.155-.027.054-.044.088q-.065.125-.141.244c-.022.034-.045.067-.067.1-.088.137.029,0,.025-.026.016.083-.329.356-.394.413a.768.768,0,0,1-.125.106s.163-.114.059-.047c-.08.051-.156.108-.238.157s-.175.1-.265.145c-.042.021-.085.039-.126.061.192-.1.009,0-.04.015a5.227,5.227,0,0,1-.716.209c-.122.027-.246.045-.369.069s.043,0,.057-.006c-.078.009-.156.018-.234.025-.251.024-.5.036-.755.04-.126,0-.252,0-.378,0a1.014,1.014,0,0,0-.141,0c.52-.071.874.615.711,1.055l-.281.482.028-.023-.482.281.047-.012a1.093,1.093,0,0,0-.581-2.107,1.176,1.176,0,0,0-.886,1.157,1.418,1.418,0,0,0,.776,1.176,3.833,3.833,0,0,0,2.035.128,5.863,5.863,0,0,0,3.538-1.448,3.861,3.861,0,0,0,1.2-3.475,4.143,4.143,0,0,0-2.123-2.721,9.046,9.046,0,0,0-4.305-.812,1.1,1.1,0,0,0-1.053.8,43.932,43.932,0,0,0-.628,11.97,1.093,1.093,0,0,0,2.185,0" transform="translate(-103.864 -119.377)" fill="#092a36"/>
        <path id="Trazado_1356146" data-name="Trazado 1356146" d="M179.084,156.009q-.157,5.718-.7,11.415a1.1,1.1,0,0,0,1.093,1.093,43.126,43.126,0,0,1,5.32.326,1.094,1.094,0,0,0,1.093-1.093,1.126,1.126,0,0,0-1.093-1.092,43.12,43.12,0,0,0-5.32-.326l1.093,1.092q.548-5.694.7-11.415a1.1,1.1,0,0,0-1.093-1.092,1.114,1.114,0,0,0-1.092,1.092" transform="translate(-139.4 -121.066)" fill="#092a36"/>
        <path id="Trazado_1356147" data-name="Trazado 1356147" d="M228.208,173.769q2.051-5.509,3.722-11.148h-2.107q1.888,5.68,3.444,11.462a1.093,1.093,0,0,0,2.107-.581q-1.556-5.779-3.444-11.462a1.093,1.093,0,0,0-2.107,0q-1.671,5.635-3.722,11.148a1.1,1.1,0,0,0,.763,1.344,1.122,1.122,0,0,0,1.344-.763" transform="translate(-176.658 -126.007)" fill="#092a36"/>
        <path id="Trazado_1356148" data-name="Trazado 1356148" d="M233.739,201.039l4.659.447a1.1,1.1,0,0,0,1.092-1.093A1.122,1.122,0,0,0,238.4,199.3l-4.659-.447a1.1,1.1,0,0,0-1.092,1.092,1.122,1.122,0,0,0,1.092,1.093" transform="translate(-181.812 -155.401)" fill="#092a36"/>
        <path id="Trazado_1356149" data-name="Trazado 1356149" d="M286.394,174.572q.1-5.6.754-11.165l-2.036.552a81.267,81.267,0,0,1,6.159,11.229,1.094,1.094,0,0,0,1.234.5,1.127,1.127,0,0,0,.8-1.053c.037-1.869.074-3.738.194-5.6.059-.912.136-1.823.244-2.731q.022-.183.045-.366.01-.078.02-.157-.024.175,0-.022c.03-.208.06-.416.092-.624q.114-.727.259-1.448a1.093,1.093,0,1,0-2.107-.581,64.932,64.932,0,0,0-.936,11.533l2.036-.551A81.29,81.29,0,0,0,287,162.855a1.118,1.118,0,0,0-1.234-.5,1.157,1.157,0,0,0-.8,1.053q-.656,5.56-.754,11.165a1.092,1.092,0,1,0,2.185,0" transform="translate(-222.108 -126.844)" fill="#092a36"/>
        <path id="Trazado_1356150" data-name="Trazado 1356150" d="M195.158,250.586c-.041.006-.212.017-.014,0l-.153.014c-.119.01-.238.017-.358.021-.257.009-.513,0-.77-.007-.51-.021-1.02-.061-1.53-.094l-3.2-.211-6.349-.418-3.582-.236,1.093,1.092q.283-5.117.567-10.233l-1.093,1.093,5.406.395,8.62.629,1.983.145-1.092-1.092q-.055,1.684-.111,3.368L194.4,250.4q-.021.621-.041,1.241a1.1,1.1,0,0,0,1.093,1.092,1.114,1.114,0,0,0,1.092-1.092q.056-1.684.111-3.368l.176-5.343.041-1.241a1.114,1.114,0,0,0-1.092-1.092l-5.406-.395-8.62-.63-1.983-.145a1.109,1.109,0,0,0-1.093,1.092q-.283,5.117-.567,10.233a1.112,1.112,0,0,0,1.092,1.093l12.862.846a16.6,16.6,0,0,0,3.676,0,1.1,1.1,0,0,0,.763-1.344,1.126,1.126,0,0,0-1.344-.763" transform="translate(-139.19 -187.108)" fill="#092a36"/>
        <path id="Trazado_1356151" data-name="Trazado 1356151" d="M100.273,327.536c-.088.017-.179.026-.266.045.437-.094.2-.022-.009-.012-.321.016-.645,0-.966-.016-1.919-.1-3.835-.269-5.751-.415q-3.491-.267-6.982-.529l1.093,1.093q.249-5.117.5-10.233L86.8,318.561l4.755.4,7.571.63,1.728.144-1.093-1.093-.1,3.368-.155,5.343-.036,1.241a1.1,1.1,0,0,0,1.093,1.092,1.114,1.114,0,0,0,1.092-1.092l.1-3.368.155-5.343.036-1.241a1.116,1.116,0,0,0-1.093-1.092l-4.755-.4-7.571-.63-1.728-.144a1.108,1.108,0,0,0-1.093,1.093q-.249,5.117-.5,10.233a1.114,1.114,0,0,0,1.093,1.093c3.458.259,6.916.53,10.374.786a30.556,30.556,0,0,0,3.257.177,6.118,6.118,0,0,0,.922-.114,1.1,1.1,0,0,0,.763-1.344,1.121,1.121,0,0,0-1.344-.763" transform="translate(-66.589 -247.245)" fill="#092a36"/>
        <path id="Trazado_1356152" data-name="Trazado 1356152" d="M190.751,410.942c-.011,0-.18.031-.06.013s-.049,0-.06.005c-.1.008-.206.016-.31.02-.242.009-.484,0-.725-.01-.444-.022-.886-.061-1.329-.094l-2.777-.208-5.554-.416-3.158-.236,1.092,1.092q.249-5.117.5-10.233l-1.093,1.092,4.755.4,7.571.63,1.728.144-1.092-1.092-.1,3.368-.155,5.343L189.949,412a1.1,1.1,0,0,0,1.093,1.092A1.114,1.114,0,0,0,192.134,412l.1-3.368.155-5.343.036-1.241a1.116,1.116,0,0,0-1.093-1.092l-4.755-.4-7.571-.63-1.728-.144a1.108,1.108,0,0,0-1.093,1.092q-.249,5.117-.5,10.233a1.114,1.114,0,0,0,1.093,1.092l11.271.844a13.111,13.111,0,0,0,3.283,0,1.1,1.1,0,0,0,.763-1.344,1.123,1.123,0,0,0-1.344-.763" transform="translate(-137.297 -312.426)" fill="#092a36"/>
        <path id="Trazado_1356153" data-name="Trazado 1356153" d="M292.39,342.632c-.088.017-.179.026-.266.045.437-.094.2-.022-.009-.012-.321.016-.645,0-.966-.016-1.919-.1-3.835-.269-5.751-.415q-3.491-.266-6.982-.529l1.093,1.092q.249-5.117.5-10.233l-1.093,1.093,4.755.4,7.571.63,1.728.144-1.092-1.092-.1,3.368-.155,5.343-.036,1.241a1.1,1.1,0,0,0,1.092,1.093,1.114,1.114,0,0,0,1.093-1.093l.1-3.368.155-5.343.036-1.241a1.116,1.116,0,0,0-1.093-1.092l-4.755-.4-7.571-.63-1.728-.144a1.108,1.108,0,0,0-1.093,1.093q-.249,5.117-.5,10.233a1.114,1.114,0,0,0,1.093,1.093c3.458.259,6.916.53,10.374.786a30.508,30.508,0,0,0,3.257.177,6.094,6.094,0,0,0,.922-.114,1.1,1.1,0,0,0,.763-1.344,1.121,1.121,0,0,0-1.344-.763" transform="translate(-216.728 -259.042)" fill="#092a36"/>
        <path id="Trazado_1356154" data-name="Trazado 1356154" d="M211.454,291.842q.142,9.3-.275,18.607-.117,2.61-.279,5.217a1.1,1.1,0,0,0,1.092,1.092,1.118,1.118,0,0,0,1.093-1.092q.575-9.288.591-18.6,0-2.612-.036-5.224a1.093,1.093,0,1,0-2.185,0" transform="translate(-164.816 -227.219)" fill="#092a36"/>
        <path id="Trazado_1356155" data-name="Trazado 1356155" d="M254,269.58c3.471.534,6.986.607,10.479.925q.693.063,1.385.142c.234.027.468.057.7.086-.231-.03.088.012.17.024l.364.055-.8-1.054a96.042,96.042,0,0,1-.279,10.491q-.11,1.429-.263,2.853a1.1,1.1,0,0,0,1.092,1.093,1.124,1.124,0,0,0,1.093-1.093,101.821,101.821,0,0,0,.58-10.479q.007-1.432-.038-2.865a1.107,1.107,0,0,0-.8-1.053c-3.471-.534-6.986-.607-10.479-.925q-.693-.063-1.385-.142c-.234-.027-.468-.057-.7-.086.231.029-.088-.012-.17-.024l-.364-.055a1.121,1.121,0,0,0-1.344.763A1.105,1.105,0,0,0,254,269.58" transform="translate(-197.884 -209.016)" fill="#092a36"/>
        <path id="Trazado_1356156" data-name="Trazado 1356156" d="M119.145,274.1l1.132-12.112-1.092,1.093c3.135.336,6.282.5,9.434.588q1.5.041,2.992.067a1.093,1.093,0,1,0,0-2.185c-3.243-.061-6.488-.147-9.722-.4q-1.353-.107-2.7-.253a1.081,1.081,0,0,0-.773.32,1.236,1.236,0,0,0-.32.772L116.96,274.1a1.1,1.1,0,0,0,1.093,1.092,1.122,1.122,0,0,0,1.093-1.092" transform="translate(-91.401 -203.884)" fill="#092a36"/>
        <path id="Trazado_1356157" data-name="Trazado 1356157" d="M272.352,503.986a24.168,24.168,0,0,0,4.349-3.358,32.972,32.972,0,0,0,4-4.524,19.863,19.863,0,0,0,1.613-2.561l-.943.541c3.728-.115,7.562-.359,10.951-2.062a15.806,15.806,0,0,0,2.358-1.474,1.121,1.121,0,0,0,.392-1.495,1.1,1.1,0,0,0-1.495-.392,16.062,16.062,0,0,1-2.052,1.316c-.343.183-.693.348-1.049.5-.091.04-.117,0,.073-.031a.732.732,0,0,0-.126.052q-.127.051-.254.1-.288.109-.58.207a17.374,17.374,0,0,1-2.33.591q-.293.054-.588.1l-.3.046-.152.022c-.209.03.163-.02.021,0-.455.055-.909.106-1.366.146-1.165.1-2.334.152-3.5.189a1.1,1.1,0,0,0-.944.541,19.114,19.114,0,0,1-1.346,2.19q-.192.272-.391.54c-.067.09-.135.18-.2.27-.121.159-.008.01.015-.019l-.159.2q-.431.544-.887,1.067a31.605,31.605,0,0,1-4.094,3.957c-.093.075-.185.152-.282.222.234-.172-.091.068-.152.113q-.273.2-.553.4c-.366.255-.741.5-1.126.72a1.093,1.093,0,1,0,1.1,1.887" transform="translate(-211.557 -381.761)" fill="#092a36"/>
      </g>
    </g>
  </g>
</svg>
