<svg xmlns="http://www.w3.org/2000/svg" width="114.877" height="125.119" viewBox="0 0 114.877 125.119">
  <g id="Grupo_1207599" data-name="Grupo 1207599" transform="translate(-3216.562 9832.648)">
    <g id="Grupo_1207518" data-name="Grupo 1207518" transform="translate(3171.679 -9859.243)">
      <path id="Trazado_1356835" data-name="Trazado 1356835" d="M57.4,70.281H110.26a6.126,6.126,0,0,1,6.114,6.114V153.66H57.765a6.126,6.126,0,0,1-6.114-6.114V76.034A5.764,5.764,0,0,1,57.4,70.281Z" transform="translate(-4.873 -31.453)" fill="#ccc" fill-rule="evenodd"/>
      <path id="Trazado_1356836" data-name="Trazado 1356836" d="M196.541,411.941l3.656,4.735H142.9l3.656-4.736c2.736-3.544,7.55-5.588,13.16-5.588h23.669C188.991,406.353,193.8,408.4,196.541,411.941Z" transform="translate(-70.567 -273.416)" fill="#a37767" fill-rule="evenodd"/>
      <path id="Trazado_1356837" data-name="Trazado 1356837" d="M117.3,435.262h67.478a2.9,2.9,0,0,1,2.889,2.889v3.01a2.9,2.9,0,0,1-2.889,2.889H117.3a2.9,2.9,0,0,1-2.889-2.889v-3.01A2.9,2.9,0,0,1,117.3,435.262Z" transform="translate(-50.056 -294.229)" fill="#f0b16e" fill-rule="evenodd"/>
      <path id="Trazado_1356838" data-name="Trazado 1356838" d="M320.97,338.267l1.069-1.069a2.526,2.526,0,0,1,3.562,0l29.781,29.782a2.526,2.526,0,0,1,0,3.562l-1.069,1.069a2.526,2.526,0,0,1-3.562,0L320.97,341.829A2.526,2.526,0,0,1,320.97,338.267Z" transform="translate(-198.247 -223.097)" fill="#f0b16e" fill-rule="evenodd"/>
      <path id="Trazado_1356839" data-name="Trazado 1356839" d="M0,0H29.422V21.361H0Z" transform="translate(101.387 113.584) rotate(-45)" fill="#a37767" fill-rule="evenodd"/>
      <path id="Trazado_1356840" data-name="Trazado 1356840" d="M231.485,328.363l1.728-1.728a2.1,2.1,0,0,1,2.957,0l16.779,16.779a2.1,2.1,0,0,1,0,2.957L251.22,348.1a2.1,2.1,0,0,1-2.957,0l-16.779-16.779A2.1,2.1,0,0,1,231.485,328.363Z" transform="translate(-133.909 -215.582)" fill="#f0b16e" fill-rule="evenodd"/>
      <path id="Trazado_1356841" data-name="Trazado 1356841" d="M310.406,249.441l1.728-1.728a2.1,2.1,0,0,1,2.957,0l16.779,16.779a2.1,2.1,0,0,1,0,2.957l-1.728,1.728a2.1,2.1,0,0,1-2.957,0L310.406,252.4A2.1,2.1,0,0,1,310.406,249.441Z" transform="translate(-190.731 -158.76)" fill="#f0b16e" fill-rule="evenodd"/>
      <path id="Trazado_1356842" data-name="Trazado 1356842" d="M113.846,131.247A20.819,20.819,0,0,1,134.6,152.005v3.472H93.088v-3.472A20.819,20.819,0,0,1,113.846,131.247Z" transform="translate(-34.706 -75.347)" fill="#ffbf31" fill-rule="evenodd"/>
      <path id="Trazado_1356843" data-name="Trazado 1356843" d="M214.027,163.829a20.606,20.606,0,0,1,3.592,11.634v3.472H208.69C207.568,173.083,209.644,166.839,214.027,163.829Z" transform="translate(-117.721 -98.805)" fill="#a37767" fill-rule="evenodd"/>
      <path id="Trazado_1356844" data-name="Trazado 1356844" d="M102.016,178.934H93.088v-3.472a20.608,20.608,0,0,1,3.592-11.634C101.063,166.839,103.138,173.082,102.016,178.934Z" transform="translate(-34.706 -98.804)" fill="#a37767" fill-rule="evenodd"/>
      <path id="Trazado_1356845" data-name="Trazado 1356845" d="M84.395,206.393H130.78v6.276H84.395Z" transform="translate(-28.448 -129.45)" fill="#ffbf31" fill-rule="evenodd"/>
      <path id="Trazado_1356846" data-name="Trazado 1356846" d="M150.132,136.146,153.7,122.16a3.911,3.911,0,0,0-3.8-4.892h-9.194a3.911,3.911,0,0,0-3.8,4.892l3.569,13.985Z" transform="translate(-66.163 -65.282)" fill="#a37767" fill-rule="evenodd"/>
      <path id="Trazado_1356847" data-name="Trazado 1356847" d="M129.507,40.254H135.7a4.018,4.018,0,1,1,5.645,0h6.193a1.9,1.9,0,0,1,1.894,1.894v3.126a1.9,1.9,0,0,1-1.894,1.894H129.507a1.9,1.9,0,0,1-1.894-1.894V42.148A1.9,1.9,0,0,1,129.507,40.254Z" transform="translate(-59.563 -4.883)" fill="#a37767" fill-rule="evenodd"/>
      <path id="Trazado_1356848" data-name="Trazado 1356848" d="M100.436,78.836H57.84v2.484h42.6ZM60.349,75.045H65.59a12.824,12.824,0,0,0-3.148-7.131A18.87,18.87,0,0,0,60.349,75.045ZM64.567,64.7A18.963,18.963,0,0,1,69.68,60.36l2.8,10.97a1.9,1.9,0,0,0,1.837,1.428h9.65A1.882,1.882,0,0,0,85.8,71.33l2.8-10.97A18.957,18.957,0,0,1,93.709,64.7a16.543,16.543,0,0,0-4.841,10.347H69.408A16.461,16.461,0,0,0,64.567,64.7Zm8.021-8.291,3.2,12.56h6.711L85.7,56.407a2.026,2.026,0,0,0-1.965-2.528h-9.2A2.01,2.01,0,0,0,72.587,56.407ZM95.834,67.914a12.825,12.825,0,0,0-3.147,7.131h5.241a18.591,18.591,0,0,0-2.093-7.131Zm6.5,17.2H55.955a1.9,1.9,0,0,1-1.9-1.895V76.941a1.9,1.9,0,0,1,1.9-1.9h.591A22.694,22.694,0,0,1,68.753,56.538a5.807,5.807,0,0,1,5.784-6.45h9.2a5.8,5.8,0,0,1,5.784,6.45A22.661,22.661,0,0,1,101.73,75.045h.607a1.893,1.893,0,0,1,1.885,1.9v6.276a1.892,1.892,0,0,1-1.885,1.895Zm53.636,60.551a.6.6,0,0,0-.176-.441l-26.57-26.572-1.949,1.951,26.57,26.57a.627.627,0,0,0,.879,0L155.8,146.1A.6.6,0,0,0,155.973,145.663ZM112.818,134.83H89.14c-4.713,0-8.756,1.561-11.2,4.306h46.079c-2.445-2.745-6.487-4.306-11.2-4.306Zm21.9,8.1a1.011,1.011,0,0,1,.99.992v3.009a1.012,1.012,0,0,1-.99.994H67.235a1.012,1.012,0,0,1-.99-.994V143.92a1.011,1.011,0,0,1,.99-.992ZM99.461,120.31H52.888a4.23,4.23,0,0,1-4.218-4.219V44.579a3.87,3.87,0,0,1,3.867-3.857H66.165a3.8,3.8,0,0,0,3.771,3.456H87.974a3.781,3.781,0,0,0,3.771-3.456h13.645a4.229,4.229,0,0,1,4.218,4.218V102.7l-6.551,6.557a4.006,4.006,0,0,0-5.1.459l-1.726,1.726a4,4,0,0,0,0,5.64ZM69.935,37.265l.016,3.123,18.022,0V37.261l-6.183,0a1.9,1.9,0,0,1-1.342-3.245,2.124,2.124,0,1,0-2.988,0,1.893,1.893,0,0,1-1.326,3.245ZM121.015,92.3l16.776,16.778a.2.2,0,0,0,.272,0l1.741-1.729v-.276L123.028,90.292a.215.215,0,0,0-.288,0l-1.726,1.726a.228.228,0,0,0,0,.279ZM118.2,124.311l-12.43-12.422,14.747-14.734,12.414,12.424ZM100.915,112.39a.2.2,0,0,0-.272,0l-1.726,1.729a.189.189,0,0,0,0,.276l16.776,16.778a.194.194,0,0,0,.272,0l1.726-1.726a.184.184,0,0,0,0-.278Zm58.844,33.273c0,2.057-1.094,2.938-2.349,4.189a4.43,4.43,0,0,1-6.247,0l-26.57-26.57-3.755,3.756a4,4,0,0,1-.463,5.089l-.144.147a15.655,15.655,0,0,1,7.238,5.09l1.374,1.772h5.88a4.785,4.785,0,0,1,4.777,4.784v3.009a4.785,4.785,0,0,1-4.777,4.785H67.235a4.785,4.785,0,0,1-4.777-4.785V143.92a4.785,4.785,0,0,1,4.777-4.784h5.88l1.374-1.772c3.1-4.02,8.436-6.324,14.651-6.324H110.2l-6.934-6.939H52.888a8.02,8.02,0,0,1-8-8.011V44.579a7.66,7.66,0,0,1,7.653-7.648H66.165a3.806,3.806,0,0,1,3.771-3.457h3.2a5.911,5.911,0,1,1,11.663,0h3.179a3.782,3.782,0,0,1,3.771,3.457h13.645a8.018,8.018,0,0,1,8,8.009V98.907l4.49-4.482a3.988,3.988,0,0,1,.447-5.087l1.726-1.729a4,4,0,0,1,5.64,0l16.776,16.779a3.988,3.988,0,0,1,0,5.638l-1.726,1.727a3.98,3.98,0,0,1-5.081.457l-3.755,3.759,26.57,26.57A4.378,4.378,0,0,1,159.76,145.663ZM98.71,95.253H59.566a1.9,1.9,0,1,0,0,3.791H98.71a1.9,1.9,0,1,0,0-3.791Zm-8.34,13.926a1.894,1.894,0,0,0-1.9-1.9h-28.9a1.9,1.9,0,1,0,0,3.791h28.9A1.9,1.9,0,0,0,90.37,109.179Z" fill-rule="evenodd"/>
    </g>
  </g>
</svg>
