<svg xmlns="http://www.w3.org/2000/svg" width="127.997" height="122.663" viewBox="0 0 127.997 122.663">
  <g id="Grupo_1207592" data-name="Grupo 1207592" transform="translate(-620.711 -1482.194)">
    <g id="Grupo_1207463" data-name="Grupo 1207463" transform="translate(620.712 1472.193)">
      <path id="Trazado_1356687" data-name="Trazado 1356687" d="M130.126,143.459c-13.617-3.411-5.314-27.161-18.085-40.14C104.508,95.66,89.82,92.183,78.655,98.97a6.82,6.82,0,0,0-1.621,10.25,20.5,20.5,0,0,0-6.413,10.168,4.979,4.979,0,0,0,8.861,4.232c7.306-10.552,23.661-4.141,22.429,8.45-1.827,18.655-30.183,15.786-32.044,34.271C68,147.856,39.648,150.725,37.821,132.07c-1.232-12.592,15.122-19,22.429-8.45a4.979,4.979,0,0,0,8.861-4.232A20.5,20.5,0,0,0,62.7,109.22a6.822,6.822,0,0,0-1.621-10.25c-11.165-6.786-25.853-3.309-33.386,4.349-12.749,12.956-4.485,36.74-18.085,40.14A2.126,2.126,0,0,0,8,145.526V168.77a2.135,2.135,0,0,0,3.176,1.861,113.065,113.065,0,0,1,12.984-6.165,12.761,12.761,0,0,1,9.205-.083c11.642,4.456,19.709-2.184,28.938,5.93a4.567,4.567,0,0,0,7.562-2.941,4.567,4.567,0,0,0,7.562,2.941c9.229-8.114,17.3-1.475,28.938-5.93a12.761,12.761,0,0,1,9.205.083,113.1,113.1,0,0,1,12.985,6.166,2.134,2.134,0,0,0,3.175-1.862V145.525A2.126,2.126,0,0,0,130.126,143.459Z" transform="translate(-5.868 -62.585)" fill="#c79a83"/>
      <g id="Grupo_1207461" data-name="Grupo 1207461" transform="translate(64.007 32.771)">
        <path id="Trazado_1356688" data-name="Trazado 1356688" d="M277.405,220.1c-1.3,13.253-15.985,15.643-25.049,22.543-4.95,3.768-6.878,8.573-7,11.754a2.128,2.128,0,0,1-3.271,1.691,4.487,4.487,0,0,1-2.033-3.13c-.046-.308.023-.483-.012-1.053a2.337,2.337,0,0,1,.005-.4c2.045-18.264,30.2-15.483,32.023-34.071a13.111,13.111,0,0,0-.078-3.265,2.134,2.134,0,0,1,3.992-1.3,12.337,12.337,0,0,1,1.419,7.233Z" transform="translate(-240.037 -180.72)" fill="#e0b7a3"/>
        <path id="Trazado_1356689" data-name="Trazado 1356689" d="M273.43,137.293c-10.3-3.8-21.671.151-25.727,10.942a2.492,2.492,0,0,1-4.021.948,4.963,4.963,0,0,1-1.387-5c4.072-14.286,19.844-18.868,32.7-11.666a2.12,2.12,0,0,0,.213.1,2.549,2.549,0,0,1,1.585,2.146,2.5,2.5,0,0,1-3.366,2.531Z" transform="translate(-241.55 -120.147)" fill="#e0b7a3"/>
        <path id="Trazado_1356690" data-name="Trazado 1356690" d="M283.083,95.943a1.6,1.6,0,0,1-.358,3.168,25.863,25.863,0,0,0-14.39,3.609,6.756,6.756,0,0,0-3.141,4.544,19.769,19.769,0,0,0-2.811,1.989A6.823,6.823,0,0,1,264,99,26.849,26.849,0,0,1,283.083,95.943Z" transform="translate(-255.225 -95.389)" fill="#e0b7a3"/>
      </g>
      <path id="Trazado_1356691" data-name="Trazado 1356691" d="M69.866,167.373a4.567,4.567,0,0,1-7.562,2.941c-9.229-8.114-17.3-1.475-28.938-5.93a12.761,12.761,0,0,0-9.205.083,113.068,113.068,0,0,0-12.984,6.165A2.135,2.135,0,0,1,8,168.77V145.526a2.126,2.126,0,0,1,1.605-2.067c13.625-3.406,5.308-27.155,18.085-40.14,7.533-7.658,22.221-11.136,33.386-4.349A6.822,6.822,0,0,1,62.7,109.22a20.5,20.5,0,0,1,6.413,10.168,4.979,4.979,0,0,1-8.861,4.232c-7.306-10.552-23.661-4.141-22.429,8.45C39.648,150.725,68,147.856,69.866,166.341a5.132,5.132,0,0,0,0,1.032Z" transform="translate(-5.868 -62.585)" fill="#ffebd2"/>
      <path id="Trazado_1356692" data-name="Trazado 1356692" d="M165.7,296.113a1.6,1.6,0,0,1-2.359,1.992c-7.689-5.363-18.639-8.11-22.614-16.525a1.6,1.6,0,0,1,2.361-1.992C150.8,284.98,161.762,287.716,165.7,296.113Z" transform="translate(-103.082 -197.482)" fill="#fff3e4"/>
      <path id="Trazado_1356693" data-name="Trazado 1356693" d="M62.7,109.253A6.819,6.819,0,0,0,61.078,99c-10.994-6.683-26.165-3.552-33.932,4.926-11.993,13.111-4.116,36.206-17.538,39.563A2.137,2.137,0,0,0,8,145.6c.013,1.219.032,2.434,0,3.653a2.137,2.137,0,0,0,2.323,2.219,13.522,13.522,0,0,0,9.521-4.984c3.232-4.132,3.86-10.232,4.767-15.768A21.868,21.868,0,0,1,37.668,114c8.07-3.355,17.657-2.334,25.827,2.43A2.133,2.133,0,0,0,66.35,113.4a20.177,20.177,0,0,0-3.651-4.151Z" transform="translate(-5.869 -62.619)" fill="#fff3e4"/>
      <g id="Grupo_1207462" data-name="Grupo 1207462" transform="translate(-0.001 10.001)">
        <path id="Trazado_1356694" data-name="Trazado 1356694" d="M2.131,140.038a12.344,12.344,0,0,0,3.942-.946c13.144-5.557,5.469-28.113,17.271-40.107,6.728-6.838,20.4-10.32,30.756-4.021a4.676,4.676,0,0,1,2.059,5.262c-8.084-5.388-19.211-5.12-28.5.915a2.133,2.133,0,1,0,2.324,3.578c8.511-5.528,18.746-5.407,25.47.3a2.129,2.129,0,0,0,3-.242,8.921,8.921,0,0,0-2.137-13.458C44.748,84.282,28.923,87.231,20.3,95.992c-13.579,13.8-5.04,38.531-18.37,39.788a2.133,2.133,0,0,0,.2,4.257Z" transform="translate(0 -66.756)"/>
        <path id="Trazado_1356695" data-name="Trazado 1356695" d="M276.235,93.812c10.127-4.809,22.575-1.183,28.757,5.1,11.79,11.983,4.134,34.553,17.271,40.108a12.634,12.634,0,0,0,3.739.936,2.133,2.133,0,1,0,.4-4.248c-13.366-1.261-4.744-25.94-18.37-39.788-7.129-7.246-21.336-11.8-33.628-5.962a2.133,2.133,0,0,0,1.83,3.854Z" transform="translate(-200.338 -66.683)"/>
        <path id="Trazado_1356696" data-name="Trazado 1356696" d="M126.992,189.665a111.558,111.558,0,0,0-16.51-8.2,14.84,14.84,0,0,0-10.745-.089c-11.042,4.224-19.608-2.453-29.586,6.319a2.433,2.433,0,0,1-4.01-1.407,7.262,7.262,0,0,0-.024-1.2c-2.021-19.834-30.374-17.231-32.04-34.242a10.179,10.179,0,0,1,6.8-10.758,9.737,9.737,0,0,1,11.754,3.732,7.106,7.106,0,0,0,11.364.372,7.12,7.12,0,0,0,11.372-.372,9.737,9.737,0,0,1,11.754-3.732,10.179,10.179,0,0,1,6.8,10.758c-1.179,12.042-15.488,14.138-24.652,21.392a2.133,2.133,0,1,0,2.648,3.345c8.722-6.9,24.807-9.572,26.25-24.322,1.437-14.678-17.694-22.306-26.305-9.871a2.845,2.845,0,0,1-5.055-2.433c3.877-13.594,19.246-17.2,31.212-9.425a2.133,2.133,0,0,0,2.324-3.578c-14.365-9.33-32.964-4.557-37.639,11.833-.032.113-.055.227-.081.341a2.128,2.128,0,0,0-1.326,1.819,2.845,2.845,0,0,1-5.157,1.443c-8.622-12.449-27.742-4.793-26.306,9.871,1.956,19.98,30.183,17.447,32.025,34.133a7.258,7.258,0,0,0,0,.894,2.433,2.433,0,0,1-4.01,1.407c-9.977-8.772-18.562-2.1-29.586-6.319a14.838,14.838,0,0,0-10.745.089A111.517,111.517,0,0,0,1,189.665a2.133,2.133,0,0,0,2.259,3.62,106.829,106.829,0,0,1,15.81-7.849,10.583,10.583,0,0,1,7.662-.075c12.168,4.656,19.872-1.865,28.293,5.539A6.7,6.7,0,0,0,64,190.806a6.7,6.7,0,0,0,8.971.093c8.407-7.392,16.144-.89,28.293-5.539a10.584,10.584,0,0,1,7.662.075,106.764,106.764,0,0,1,15.81,7.849,2.133,2.133,0,0,0,2.259-3.619Z" transform="translate(0.001 -91.569)"/>
        <path id="Trazado_1356697" data-name="Trazado 1356697" d="M234.134,29.2a2.133,2.133,0,0,0,2.133-2.133V12.134a2.133,2.133,0,1,0-4.267,0V27.067A2.133,2.133,0,0,0,234.134,29.2Z" transform="translate(-170.136 -10.001)"/>
        <path id="Trazado_1356698" data-name="Trazado 1356698" d="M234.134,408A2.133,2.133,0,0,0,232,410.134V422.4a2.133,2.133,0,1,0,4.267,0V410.134A2.133,2.133,0,0,0,234.134,408Z" transform="translate(-170.136 -301.871)"/>
        <path id="Trazado_1356699" data-name="Trazado 1356699" d="M127.443,36.235a2.133,2.133,0,0,0,3.775-1.989l-3.35-6.356a2.133,2.133,0,0,0-3.775,1.989Z" transform="translate(-90.822 -22.284)"/>
        <path id="Trazado_1356700" data-name="Trazado 1356700" d="M328.73,37.128a2.134,2.134,0,0,0,2.882-.893l3.35-6.356a2.133,2.133,0,1,0-3.775-1.989l-3.349,6.356A2.133,2.133,0,0,0,328.73,37.128Z" transform="translate(-240.236 -22.284)"/>
        <path id="Trazado_1356701" data-name="Trazado 1356701" d="M130.318,393.658a2.134,2.134,0,0,0-2.882.893l-3.35,6.356a2.133,2.133,0,1,0,3.774,1.989l3.35-6.356a2.133,2.133,0,0,0-.893-2.882Z" transform="translate(-90.815 -291.171)"/>
        <path id="Trazado_1356702" data-name="Trazado 1356702" d="M331.612,394.55a2.133,2.133,0,0,0-3.775,1.989l3.349,6.356a2.133,2.133,0,1,0,3.774-1.989Z" transform="translate(-240.235 -291.171)"/>
      </g>
    </g>
  </g>
</svg>
