<svg xmlns="http://www.w3.org/2000/svg" width="126.219" height="103.293" viewBox="0 0 126.219 103.293">
  <g id="Grupo_1207593" data-name="Grupo 1207593" transform="translate(-894 -1489.349)">
    <g id="Grupo_1207485" data-name="Grupo 1207485" transform="translate(894 1442.849)">
      <g id="Grupo_1207483" data-name="Grupo 1207483" transform="translate(1.848 48.349)">
        <g id="Grupo_1207466" data-name="Grupo 1207466" transform="translate(23.099 0)">
          <path id="Trazado_1356703" data-name="Trazado 1356703" d="M146.633,65.429H137.2a.7.7,0,0,1-.674-.52l-2.459-9.351A2.091,2.091,0,0,0,132.041,54H103.285a2.091,2.091,0,0,0-2.091,2.091V76.859h4.369a6.163,6.163,0,0,1,11.833,0h17.02a6.163,6.163,0,0,1,11.833,0h3.869V68.914A3.485,3.485,0,0,0,146.633,65.429Z" transform="translate(-101.194 -54)" fill="#fd5426"/>
          <path id="Trazado_1356704" data-name="Trazado 1356704" d="M107.443,73.93V56.091A2.091,2.091,0,0,1,109.534,54h-6.249a2.091,2.091,0,0,0-2.091,2.091V76.859h4.369a6.163,6.163,0,0,1,1.88-2.929Z" transform="translate(-101.194 -54)" fill="#ef4424"/>
          <g id="Grupo_1207464" data-name="Grupo 1207464" transform="translate(6.163 6.163)">
            <path id="Trazado_1356705" data-name="Trazado 1356705" d="M133.048,79h-6.114a.74.74,0,0,0-.74.74v4.835a.74.74,0,0,0,.74.74h6.114a.74.74,0,0,0,.74-.74V79.74A.74.74,0,0,0,133.048,79Z" transform="translate(-126.194 -79)" fill="#99e6fc"/>
          </g>
          <g id="Grupo_1207465" data-name="Grupo 1207465" transform="translate(20.21 6.163)">
            <path id="Trazado_1356706" data-name="Trazado 1356706" d="M190.1,79h-6.186a.74.74,0,0,0-.74.74v4.835a.74.74,0,0,0,.74.74h7.458a.739.739,0,0,0,.715-.928l-1.271-4.835A.739.739,0,0,0,190.1,79Z" transform="translate(-183.176 -79)" fill="#99e6fc"/>
          </g>
          <path id="Trazado_1356707" data-name="Trazado 1356707" d="M122.364,140.808q2.8-.71,5.7-1.215a6.162,6.162,0,1,0-5.7,1.215Z" transform="translate(-113.794 -110.304)" fill="#6354b1"/>
          <path id="Trazado_1356708" data-name="Trazado 1356708" d="M122.363,140.808q1.276-.323,2.57-.6a6.158,6.158,0,0,1,1.128-11.151,6.163,6.163,0,1,0-3.7,11.755Z" transform="translate(-113.794 -110.304)" fill="#54469c"/>
          <path id="Trazado_1356709" data-name="Trazado 1356709" d="M245.129,139.564a6.163,6.163,0,1,0-9-1.052A83.415,83.415,0,0,1,245.129,139.564Z" transform="translate(-201.978 -110.304)" fill="#6354b1"/>
          <path id="Trazado_1356710" data-name="Trazado 1356710" d="M240.379,138.884a6.161,6.161,0,0,1,2.714-9.832,6.162,6.162,0,0,0-6.962,9.46Q238.264,138.645,240.379,138.884Z" transform="translate(-201.979 -110.304)" fill="#54469c"/>
        </g>
        <path id="Trazado_1356711" data-name="Trazado 1356711" d="M60.561,181.724a3.091,3.091,0,0,1,3.091-3.091h42.515a3.091,3.091,0,0,1,2.989,2.3l1.019,3.875h16.156l-7.711-5.441c-21.981-15.511-59.727-15.511-81.708,0l-4.495,3.172a1.249,1.249,0,0,0,.72,2.269H60.561v-3.088Z" transform="translate(-25.873 -139.699)" fill="#fccd7f"/>
        <g id="Grupo_1207467" data-name="Grupo 1207467" transform="translate(6.013 28.042)">
          <path id="Trazado_1356712" data-name="Trazado 1356712" d="M44.991,182.552l4.495-3.171c9.445-6.665,21.8-10.464,34.568-11.4-16.942-1.244-34.6,2.555-47.14,11.4l-4.495,3.171a1.249,1.249,0,0,0,.72,2.27H45.711A1.249,1.249,0,0,1,44.991,182.552Z" transform="translate(-31.887 -167.75)" fill="#fbc56d"/>
        </g>
        <g id="Grupo_1207476" data-name="Grupo 1207476" transform="translate(34.688 38.934)">
          <path id="Trazado_1356713" data-name="Trazado 1356713" d="M215.382,228.83H201.43a1.03,1.03,0,0,1-1-.768L196.8,214.237a3.091,3.091,0,0,0-2.989-2.3H151.294a3.091,3.091,0,0,0-3.091,3.091v30.7h6.033a9.521,9.521,0,0,1,18.347,0h24.31a9.521,9.521,0,0,1,18.347,0h5.294V233.982A5.152,5.152,0,0,0,215.382,228.83Z" transform="translate(-148.203 -211.932)" fill="#01d0fb"/>
          <g id="Grupo_1207468" data-name="Grupo 1207468" transform="translate(0 0)">
            <path id="Trazado_1356714" data-name="Trazado 1356714" d="M157.552,211.933h-6.258a3.091,3.091,0,0,0-3.091,3.091v30.7h6.258V215.024A3.091,3.091,0,0,1,157.552,211.933Z" transform="translate(-148.203 -211.933)" fill="#01c0fa"/>
          </g>
          <path id="Trazado_1356715" data-name="Trazado 1356715" d="M306.711,228.831H292.758a1.03,1.03,0,0,1-1-.768l-3.635-13.825a3.091,3.091,0,0,0-2.989-2.3H269.412v33.8h18.81a9.522,9.522,0,0,1,18.347,0h5.294V233.983a5.152,5.152,0,0,0-5.152-5.152Z" transform="translate(-239.531 -211.933)" fill="#01d0fb"/>
          <g id="Grupo_1207469" data-name="Grupo 1207469" transform="translate(66.149 16.898)">
            <path id="Trazado_1356716" data-name="Trazado 1356716" d="M417.563,280.478h-1.031v4.946a3.091,3.091,0,0,0,3.091,3.091h3.091V285.63A5.152,5.152,0,0,0,417.563,280.478Z" transform="translate(-416.532 -280.478)" fill="#fed402"/>
          </g>
          <g id="Grupo_1207470" data-name="Grupo 1207470" transform="translate(29.88 0)">
            <path id="Trazado_1356717" data-name="Trazado 1356717" d="M269.411,211.933h6.258v33.8h-6.258Z" transform="translate(-269.411 -211.933)" fill="#01c0fa"/>
          </g>
          <g id="Grupo_1207475" data-name="Grupo 1207475" transform="translate(5.152 5.152)">
            <g id="Grupo_1207471" data-name="Grupo 1207471" transform="translate(29.88)">
              <path id="Trazado_1356718" data-name="Trazado 1356718" d="M290.927,244.576H301.58a.618.618,0,0,0,.6-.776l-2.763-10.51a.618.618,0,0,0-.6-.461h-7.89a.618.618,0,0,0-.618.618v10.51A.618.618,0,0,0,290.927,244.576Z" transform="translate(-290.309 -232.83)" fill="#fff"/>
            </g>
            <g id="Grupo_1207472" data-name="Grupo 1207472" transform="translate(29.88)">
              <path id="Trazado_1356719" data-name="Trazado 1356719" d="M294.422,243.958v-10.51a.618.618,0,0,1,.618-.618h-4.113a.618.618,0,0,0-.618.618v10.51a.618.618,0,0,0,.618.618h4.113A.618.618,0,0,1,294.422,243.958Z" transform="translate(-290.309 -232.83)" fill="#f2fbff"/>
            </g>
            <g id="Grupo_1207473" data-name="Grupo 1207473" transform="translate(0)">
              <path id="Trazado_1356720" data-name="Trazado 1356720" d="M187.707,232.83H169.719a.618.618,0,0,0-.618.618v10.51a.618.618,0,0,0,.618.618h17.987a.618.618,0,0,0,.618-.618v-10.51A.618.618,0,0,0,187.707,232.83Z" transform="translate(-169.101 -232.83)" fill="#fff"/>
            </g>
            <g id="Grupo_1207474" data-name="Grupo 1207474">
              <path id="Trazado_1356721" data-name="Trazado 1356721" d="M173.271,243.958v-10.51a.618.618,0,0,1,.618-.618h-4.17a.618.618,0,0,0-.618.618v10.51a.618.618,0,0,0,.618.618h4.17A.618.618,0,0,1,173.271,243.958Z" transform="translate(-169.101 -232.83)" fill="#f2fbff"/>
            </g>
          </g>
          <path id="Trazado_1356722" data-name="Trazado 1356722" d="M174.178,337.125a60.445,60.445,0,0,1,11.241,1.465,9.524,9.524,0,1,0-11.241-1.465Z" transform="translate(-165.578 -293.924)" fill="#6354b1"/>
          <path id="Trazado_1356723" data-name="Trazado 1356723" d="M174.177,337.125a60.44,60.44,0,0,1,7.052.666,9.519,9.519,0,0,1,2.7-16.508,9.52,9.52,0,0,0-9.748,15.842Z" transform="translate(-165.577 -293.924)" fill="#54469c"/>
          <path id="Trazado_1356724" data-name="Trazado 1356724" d="M199.68,352.506a3.34,3.34,0,1,1,3.34-3.34A3.344,3.344,0,0,1,199.68,352.506Z" transform="translate(-184.473 -312.818)" fill="#fff"/>
          <path id="Trazado_1356725" data-name="Trazado 1356725" d="M360.716,336.834a9.521,9.521,0,1,0-16.077-4.037A41.871,41.871,0,0,1,360.716,336.834Z" transform="translate(-295.956 -293.924)" fill="#6354b1"/>
          <path id="Trazado_1356726" data-name="Trazado 1356726" d="M351.178,333.622a9.527,9.527,0,0,1,5.778-12.342A9.521,9.521,0,0,0,344.638,332.8,42.012,42.012,0,0,1,351.178,333.622Z" transform="translate(-295.956 -293.923)" fill="#54469c"/>
          <path id="Trazado_1356727" data-name="Trazado 1356727" d="M372.715,352.506a3.34,3.34,0,1,1,3.34-3.34A3.344,3.344,0,0,1,372.715,352.506Z" transform="translate(-314.851 -312.818)" fill="#fff"/>
        </g>
        <g id="Grupo_1207482" data-name="Grupo 1207482" transform="translate(0 77.758)">
          <g id="Grupo_1207477" data-name="Grupo 1207477" transform="translate(0 4.337)">
            <path id="Trazado_1356728" data-name="Trazado 1356728" d="M13.2,398.5l-5.185,3.757a1.247,1.247,0,0,0,.732,2.257h83.61l-8.3-6.014A60.382,60.382,0,0,0,13.2,398.5Z" transform="translate(-7.495 -387.013)" fill="#e9b665"/>
          </g>
          <g id="Grupo_1207478" data-name="Grupo 1207478" transform="translate(0 4.339)">
            <path id="Trazado_1356729" data-name="Trazado 1356729" d="M20.462,402.263l5.185-3.757a60.269,60.269,0,0,1,29.2-11.162A60.337,60.337,0,0,0,13.2,398.506l-5.185,3.757a1.247,1.247,0,0,0,.732,2.257H21.194A1.247,1.247,0,0,1,20.462,402.263Z" transform="translate(-7.495 -387.022)" fill="#d8aa5e"/>
          </g>
          <g id="Grupo_1207481" data-name="Grupo 1207481" transform="translate(37.664)">
            <g id="Grupo_1207479" data-name="Grupo 1207479">
              <path id="Trazado_1356730" data-name="Trazado 1356730" d="M179.41,377.4l-19.132,13.862h83.61A1.247,1.247,0,0,0,244.62,389L228.6,377.4a41.92,41.92,0,0,0-49.192,0Z" transform="translate(-160.278 -369.421)" fill="#fccd7f"/>
            </g>
            <g id="Grupo_1207480" data-name="Grupo 1207480" transform="translate(0 0.001)">
              <path id="Trazado_1356731" data-name="Trazado 1356731" d="M210.259,369.894a41.9,41.9,0,0,0-30.849,7.5l-19.132,13.862h12.505L191.916,377.4A41.833,41.833,0,0,1,210.259,369.894Z" transform="translate(-160.278 -369.426)" fill="#fbc56d"/>
            </g>
          </g>
        </g>
      </g>
      <g id="Grupo_1207484" data-name="Grupo 1207484" transform="translate(0 46.5)">
        <path id="Trazado_1356732" data-name="Trazado 1356732" d="M9.048,314.411a7.921,7.921,0,0,0,7.912,7.912h18.7a1.849,1.849,0,1,0,0-3.7H16.96a4.214,4.214,0,1,1,2.716-7.437,1.849,1.849,0,1,0,2.385-2.826,7.912,7.912,0,0,0-13.012,6.048Z" transform="translate(-6.818 -242.404)"/>
        <path id="Trazado_1356733" data-name="Trazado 1356733" d="M118.695,74.088v4.835a2.591,2.591,0,0,0,2.589,2.588H127.4a2.591,2.591,0,0,0,2.588-2.588V74.088A2.591,2.591,0,0,0,127.4,71.5h-6.114A2.591,2.591,0,0,0,118.695,74.088Zm3.7,1.109h3.9v2.616h-3.9Z" transform="translate(-89.434 -65.337)"/>
        <path id="Trazado_1356734" data-name="Trazado 1356734" d="M185.723,81.511a2.588,2.588,0,0,0,2.5-3.247l-1.272-4.834a2.59,2.59,0,0,0-2.5-1.93h-6.186a2.591,2.591,0,0,0-2.588,2.588v4.835a2.591,2.591,0,0,0,2.588,2.588ZM179.374,75.2H183.6l.688,2.616h-4.91Z" transform="translate(-132.368 -65.337)"/>
        <circle id="Elipse_13792" data-name="Elipse 13792" cx="1.849" cy="1.849" r="1.849" transform="translate(33.383 24.585)"/>
        <path id="Trazado_1356735" data-name="Trazado 1356735" d="M254.3,149.924a1.849,1.849,0,1,0-1.849-1.849A1.851,1.851,0,0,0,254.3,149.924Z" transform="translate(-190.218 -121.641)"/>
        <path id="Trazado_1356736" data-name="Trazado 1356736" d="M297.882,239.813a2.451,2.451,0,0,0,.432-2.134l-2.764-10.51a2.469,2.469,0,0,0-2.386-1.839h-7.89a2.47,2.47,0,0,0-2.467,2.467v10.51a2.47,2.47,0,0,0,2.467,2.467h10.653A2.449,2.449,0,0,0,297.882,239.813Zm-11.376-2.737v-8.048h5.71l2.116,8.048h-7.826Z" transform="translate(-213.09 -181.244)"/>
        <path id="Trazado_1356737" data-name="Trazado 1356737" d="M184.522,238.307V227.8a2.47,2.47,0,0,0-2.467-2.467H164.067A2.47,2.47,0,0,0,161.6,227.8v10.51a2.47,2.47,0,0,0,2.467,2.467h17.987A2.47,2.47,0,0,0,184.522,238.307Zm-3.7-1.231H165.3v-8.048h15.526Z" transform="translate(-121.762 -181.244)"/>
        <path id="Trazado_1356738" data-name="Trazado 1356738" d="M194.029,338.326a5.189,5.189,0,1,0,5.189,5.189A5.195,5.195,0,0,0,194.029,338.326Zm0,6.68a1.491,1.491,0,1,1,1.491-1.491A1.493,1.493,0,0,1,194.029,345.006Z" transform="translate(-142.287 -266.385)"/>
        <path id="Trazado_1356739" data-name="Trazado 1356739" d="M288.573,298.5h-3.916a1.849,1.849,0,0,0,0,3.7h3.916a1.849,1.849,0,1,0,0-3.7Z" transform="translate(-213.09 -236.376)"/>
        <path id="Trazado_1356740" data-name="Trazado 1356740" d="M124.938,144.189l-16.017-11.605a44.212,44.212,0,0,0-4.82-3.039,11.287,11.287,0,0,0,1.668-5.915c0-.236-.01-.47-.024-.7h5.434a1.849,1.849,0,1,0,0-3.7h-.465v-9.9a7.009,7.009,0,0,0-7-7H90.393l-1.846-7.02h25.838a1.849,1.849,0,1,0,0-3.7H102.892l-7.231-5.1c-.974-.687-2.018-1.37-3.105-2.03a1.849,1.849,0,0,0-1.919,3.161c1.014.616,1.987,1.252,2.891,1.89l2.95,2.081h-8.9l-.656-2.5a4.943,4.943,0,0,0-4.778-3.683H39.626a4.945,4.945,0,0,0-4.94,4.94v1.24H11l2.95-2.081C22.639,83.4,34.461,79.481,47.241,78.49c12.6-.978,25.348.924,35.9,5.353a1.849,1.849,0,0,0,1.431-3.409A73.288,73.288,0,0,0,71.33,76.35a7.968,7.968,0,0,0,.764-3.294h3.341a1.848,1.848,0,0,0,.284-3.674v-6.12a5.339,5.339,0,0,0-5.334-5.333H61.836L59.6,49.438a3.942,3.942,0,0,0-3.81-2.938H39.936a1.849,1.849,0,1,0,0,3.7H55.793a.242.242,0,0,1,.234.18l2.459,9.35a2.547,2.547,0,0,0,2.462,1.9h9.437a1.638,1.638,0,0,1,1.636,1.636v6.1h-.77a8.007,8.007,0,0,0-14.334,0H42.4a8.007,8.007,0,0,0-14.334,0H26.8V50.439a.242.242,0,0,1,.242-.242h4.27a1.849,1.849,0,0,0,0-3.7h-4.27A3.944,3.944,0,0,0,23.1,50.439v19.11a1.848,1.848,0,0,0,.814,3.507h3.313a7.966,7.966,0,0,0,1.308,4.259H11.239a4.214,4.214,0,1,1,2.716-7.437,1.849,1.849,0,1,0,2.385-2.826,7.912,7.912,0,1,0-5.1,13.96H21.6a57.506,57.506,0,0,0-9.776,5.5L7.326,89.682a3.1,3.1,0,0,0,1.786,5.629H34.687v23.948a1.848,1.848,0,0,0,.319,3.668H40.4c-.014.233-.024.467-.024.7a11.3,11.3,0,0,0,1.153,4.983A61.824,61.824,0,0,0,6.466,140.432l-5.185,3.757a3.1,3.1,0,0,0,1.817,5.6H96.885a1.849,1.849,0,0,0,0-3.7H45.215l14.514-10.516a39.988,39.988,0,0,1,47.023,0l14.514,10.516H105.513a1.849,1.849,0,0,0,0,3.7h17.609a3.1,3.1,0,0,0,1.816-5.6ZM64.084,68.62a4.31,4.31,0,0,1,3.362,7.012c-2.385-.384-4.809-.667-7.256-.848a4.271,4.271,0,0,1-.42-1.849A4.319,4.319,0,0,1,64.084,68.62Zm-8.008,4.437a8.018,8.018,0,0,0,.172,1.524,87.609,87.609,0,0,0-9.293.222q-2.039.158-4.046.413a8,8,0,0,0,.331-2.159ZM35.232,68.62a4.309,4.309,0,0,1,3.107,7.3q-2.4.439-4.723,1.012a4.312,4.312,0,0,1,1.616-8.311Zm63.151,58.33a5.187,5.187,0,1,0-9.069-2.287q-1.272-.179-2.551-.281c-.024-.247-.038-.5-.038-.751a7.673,7.673,0,1,1,14.036,4.28q-1.179-.517-2.379-.961Zm-5.475-3.319a1.491,1.491,0,1,1,1.491,1.491A1.493,1.493,0,0,1,92.908,123.63Zm11.625-17.494a3.306,3.306,0,0,1,2.484,3.2v1.036h-1.242a1.244,1.244,0,0,1-1.242-1.242Zm-36.269-17H82.141a1.243,1.243,0,0,1,1.2.926l3.635,13.825a2.881,2.881,0,0,0,2.784,2.146h11.073v3.1a4.946,4.946,0,0,0,4.94,4.94h1.242v5.163h-2.135a11.37,11.37,0,0,0-20.969,0H68.265v-30.1Zm-29.88,30.1V90.374a1.244,1.244,0,0,1,1.242-1.242H64.567v30.1H62.226a11.37,11.37,0,0,0-20.969,0H38.384Zm7.581,9.437a7.67,7.67,0,1,1,10.088,1.3A62.253,62.253,0,0,0,45.965,128.667Zm-7.052,17.428H4.954l3.682-2.668a58.647,58.647,0,0,1,47.329-9.687Zm21.939-15.676a11.3,11.3,0,0,0,2.261-6.788c0-.236-.01-.47-.024-.7H83.052c-.014.233-.024.467-.024.7,0,.2.006.407.017.608A43.662,43.662,0,0,0,60.852,130.419Z" transform="translate(0 -46.5)"/>
        <path id="Trazado_1356741" data-name="Trazado 1356741" d="M72.837,292.2a1.849,1.849,0,1,0,0-3.7h-.493a1.849,1.849,0,1,0,0,3.7Z" transform="translate(-53.117 -228.842)"/>
        <path id="Trazado_1356742" data-name="Trazado 1356742" d="M34.837,272.2a1.849,1.849,0,0,0,0-3.7h-.493a1.849,1.849,0,0,0,0,3.7Z" transform="translate(-24.484 -213.772)"/>
        <path id="Trazado_1356743" data-name="Trazado 1356743" d="M62.344,101.2h.493a1.849,1.849,0,1,0,0-3.7h-.493a1.849,1.849,0,0,0,0,3.7Z" transform="translate(-45.582 -84.927)"/>
        <path id="Trazado_1356744" data-name="Trazado 1356744" d="M36.344,80.2h.493a1.849,1.849,0,0,0,0-3.7h-.493a1.849,1.849,0,0,0,0,3.7Z" transform="translate(-25.991 -69.104)"/>
      </g>
    </g>
  </g>
</svg>
