<svg xmlns="http://www.w3.org/2000/svg" width="108.47" height="104.563" viewBox="0 0 108.47 104.563">
  <g id="Grupo_1207595" data-name="Grupo 1207595" transform="translate(-2955.212 10219.063)">
    <g id="Grupo_1207506" data-name="Grupo 1207506" transform="translate(2955.212 -10228.286)">
      <g id="Grupo_1207504" data-name="Grupo 1207504" transform="translate(1.589 10.813)">
        <g id="Grupo_1207488" data-name="Grupo 1207488" transform="translate(0 12.902)">
          <path id="Trazado_1356773" data-name="Trazado 1356773" d="M21.16,98.553V78.631a70.532,70.532,0,0,1-10.844-.975A2.413,2.413,0,0,0,7.5,80.036V98.553Z" transform="translate(-7.5 -77.622)" fill="#e9b665"/>
        </g>
        <g id="Grupo_1207489" data-name="Grupo 1207489" transform="translate(21.217 7.957)">
          <path id="Trazado_1356774" data-name="Trazado 1356774" d="M143.953,56.731a69.7,69.7,0,0,1-36.305,2V96.124h81.709a2.366,2.366,0,0,0,2.366-2.366V64.79a4.368,4.368,0,0,0-2.582-3.989C182.3,57.742,162.929,50.516,143.953,56.731Z" transform="translate(-107.648 -54.285)" fill="#d8aa5e"/>
        </g>
        <g id="Grupo_1207490" data-name="Grupo 1207490" transform="translate(7.627)">
          <path id="Trazado_1356775" data-name="Trazado 1356775" d="M73.047,16.724H68.861a.215.215,0,0,0-.212.179l-.721,4.191a.215.215,0,0,1-.212.179H63.6a.215.215,0,0,1-.21-.168l-.951-4.213a.215.215,0,0,0-.21-.168H56.737a.215.215,0,0,0-.21.168L55.576,21.1a.215.215,0,0,1-.21.168H51.25a.215.215,0,0,1-.212-.179L50.317,16.9a.215.215,0,0,0-.212-.179H45.919a.215.215,0,0,0-.215.2L43.5,53.948H75.466l-2.2-37.022a.215.215,0,0,0-.215-.2Z" transform="translate(-43.5 -16.724)" fill="#fddeb0"/>
        </g>
        <g id="Grupo_1207491" data-name="Grupo 1207491" transform="translate(7.627 0)">
          <path id="Trazado_1356776" data-name="Trazado 1356776" d="M73.261,16.927a.215.215,0,0,0-.215-.2H68.861a.215.215,0,0,0-.212.179l-.406,2.36.219,3.674A10.281,10.281,0,0,1,58.2,33.829H44.7L43.5,53.948H75.466Z" transform="translate(-43.5 -16.724)" fill="#fccd7f"/>
        </g>
        <g id="Grupo_1207492" data-name="Grupo 1207492" transform="translate(20.084 13.792)">
          <path id="Trazado_1356777" data-name="Trazado 1356777" d="M107.424,93.161h-3.2a1.926,1.926,0,0,1-1.926-1.926V83.752a1.926,1.926,0,0,1,1.926-1.926h3.2a1.926,1.926,0,0,1,1.926,1.926v7.482A1.926,1.926,0,0,1,107.424,93.161Z" transform="translate(-102.298 -81.826)" fill="#4a4545"/>
        </g>
        <g id="Grupo_1207493" data-name="Grupo 1207493" transform="translate(0 22.547)">
          <path id="Trazado_1356778" data-name="Trazado 1356778" d="M112.793,178.036V145.813a1.351,1.351,0,0,0-1.351-1.351H86.509a41.076,41.076,0,0,1-23.2-7.181l-3.159-2.162L51.2,129.481a41.077,41.077,0,0,0-36.327-3.714l-6.5,2.437a1.351,1.351,0,0,0-.877,1.265v48.567H112.793Z" transform="translate(-7.5 -123.152)" fill="#678d98"/>
        </g>
        <g id="Grupo_1207494" data-name="Grupo 1207494" transform="translate(65.83 38.568)">
          <path id="Trazado_1356779" data-name="Trazado 1356779" d="M348.3,198.77h-4.26a.219.219,0,0,0-.216.182l-.734,4.266a.219.219,0,0,1-.216.182h-4.188a.219.219,0,0,1-.214-.171l-.968-4.288a.219.219,0,0,0-.214-.171H331.7a.219.219,0,0,0-.214.171l-.968,4.288a.219.219,0,0,1-.214.171h-4.188a.219.219,0,0,1-.216-.182l-.734-4.266a.219.219,0,0,0-.216-.182h-4.26a.219.219,0,0,0-.219.206L318.228,249h32.535l-2.244-50.024A.219.219,0,0,0,348.3,198.77Z" transform="translate(-318.228 -198.77)" fill="#fddeb0"/>
        </g>
        <g id="Grupo_1207495" data-name="Grupo 1207495" transform="translate(65.83 38.568)">
          <path id="Trazado_1356780" data-name="Trazado 1356780" d="M348.518,198.977a.219.219,0,0,0-.219-.206h-4.26a.219.219,0,0,0-.216.182l-.734,4.266a.219.219,0,0,1-.216.182l-.25,3.994A16.155,16.155,0,0,1,326.5,222.543h-7.086L318.227,249h32.535Z" transform="translate(-318.227 -198.771)" fill="#fccd7f"/>
        </g>
        <g id="Grupo_1207496" data-name="Grupo 1207496" transform="translate(0 61.715)">
          <path id="Trazado_1356781" data-name="Trazado 1356781" d="M112.793,345.332v-37.3s-25.1,16.827-57.523,6.209c-23.579-7.723-47.77,5.309-47.77,5.309v25.785A2.366,2.366,0,0,0,9.866,347.7h100.56A2.366,2.366,0,0,0,112.793,345.332Z" transform="translate(-7.5 -308.028)" fill="#d8aa5e"/>
        </g>
        <g id="Grupo_1207497" data-name="Grupo 1207497" transform="translate(9.977 41.376)">
          <path id="Trazado_1356782" data-name="Trazado 1356782" d="M90.518,212.025H85.429a.262.262,0,0,0-.258.217l-.877,5.1a.262.262,0,0,1-.258.217h-5a.262.262,0,0,1-.255-.2l-1.156-5.122a.262.262,0,0,0-.255-.2H70.686a.262.262,0,0,0-.255.2l-1.156,5.122a.262.262,0,0,1-.255.2h-5a.262.262,0,0,1-.258-.217l-.877-5.1a.262.262,0,0,0-.258-.217H57.534a.261.261,0,0,0-.261.246l-2.68,59.762H93.46l-2.68-59.762a.262.262,0,0,0-.261-.246Z" transform="translate(-54.592 -212.025)" fill="#fddeb0"/>
        </g>
        <g id="Grupo_1207498" data-name="Grupo 1207498" transform="translate(9.977 41.376)">
          <path id="Trazado_1356783" data-name="Trazado 1356783" d="M90.78,212.272a.262.262,0,0,0-.261-.246H85.429a.262.262,0,0,0-.258.217l-.021.125.964,21.491A21.138,21.138,0,0,1,65,255.944H55.314l-.722,16.091H93.46Z" transform="translate(-54.592 -212.026)" fill="#fccd7f"/>
        </g>
        <g id="Grupo_1207499" data-name="Grupo 1207499" transform="translate(19.48 71.38)">
          <path id="Trazado_1356784" data-name="Trazado 1356784" d="M119.311,383.655H99.451l1.568-22.212a8.383,8.383,0,0,1,16.724,0Z" transform="translate(-99.451 -353.651)" fill="#d77f4a"/>
        </g>
        <g id="Grupo_1207500" data-name="Grupo 1207500" transform="translate(25.525 54.191)">
          <path id="Trazado_1356785" data-name="Trazado 1356785" d="M133.109,283.851h-3.2a1.926,1.926,0,0,1-1.926-1.926v-7.481a1.926,1.926,0,0,1,1.926-1.926h3.2a1.926,1.926,0,0,1,1.926,1.926v7.481A1.926,1.926,0,0,1,133.109,283.851Z" transform="translate(-127.983 -272.517)" fill="#4a4545"/>
        </g>
        <g id="Grupo_1207501" data-name="Grupo 1207501" transform="translate(78.571 50.856)">
          <path id="Trazado_1356786" data-name="Trazado 1356786" d="M383.494,268.105h-3.2a1.926,1.926,0,0,1-1.926-1.926V258.7a1.926,1.926,0,0,1,1.926-1.926h3.2a1.926,1.926,0,0,1,1.926,1.926v7.482A1.926,1.926,0,0,1,383.494,268.105Z" transform="translate(-378.368 -256.771)" fill="#4a4545"/>
        </g>
        <g id="Grupo_1207502" data-name="Grupo 1207502" transform="translate(19.48 76.86)">
          <path id="Trazado_1356787" data-name="Trazado 1356787" d="M117.246,379.517a21.093,21.093,0,0,1-16.659,8.43l-1.136,16.094h19.86l-1.568-22.212A8.381,8.381,0,0,0,117.246,379.517Z" transform="translate(-99.451 -379.517)" fill="#c86d36"/>
        </g>
        <g id="Grupo_1207503" data-name="Grupo 1207503" transform="translate(33.496 81.01)">
          <path id="Trazado_1356788" data-name="Trazado 1356788" d="M203.989,407.873l-2.711-4.984a7.25,7.25,0,0,0-6.369-3.785h-6.762a7.25,7.25,0,0,0-6.011,3.2l-.986,1.462a7.25,7.25,0,0,1-3.793,2.849l-6.718,2.159a7.25,7.25,0,0,0-5.032,6.9v3.8h52.128a7.25,7.25,0,0,0-5.332-6.992l-3.961-1.087A7.248,7.248,0,0,1,203.989,407.873Z" transform="translate(-165.607 -399.104)" fill="#678d98"/>
        </g>
      </g>
      <g id="Grupo_1207505" data-name="Grupo 1207505" transform="translate(0 9.224)">
        <path id="Trazado_1356789" data-name="Trazado 1356789" d="M104.948,23.836c-7.493-3.35-27.006-10.459-46.331-4.13a68.782,68.782,0,0,1-17.333,3.316l-.721-12.1a1.806,1.806,0,0,0-1.8-1.7H34.577a1.8,1.8,0,0,0-1.778,1.5l-.525,3.05h-1.86l-.709-3.141a1.8,1.8,0,0,0-1.76-1.407H22.452a1.8,1.8,0,0,0-1.76,1.407l-.709,3.142h-1.86L17.6,10.722a1.8,1.8,0,0,0-1.778-1.5H11.635a1.806,1.806,0,0,0-1.8,1.7l-.706,11.86c-1.489-.152-2.984-.351-4.46-.6A4,4,0,0,0,0,26.129v83.7a3.959,3.959,0,0,0,3.955,3.955h100.56a3.96,3.96,0,0,0,3.955-3.955V29.276a5.964,5.964,0,0,0-3.523-5.44ZM89.732,78.117A69.737,69.737,0,0,1,69.86,80.629l1.33-29.659h1.8l.539,3.128a1.8,1.8,0,0,0,1.782,1.5H79.5a1.8,1.8,0,0,0,1.764-1.41l.727-3.219h3.4l.727,3.219a1.8,1.8,0,0,0,1.764,1.41h4.189a1.8,1.8,0,0,0,1.782-1.5l.539-3.128h1.8l1.1,24.587a70.478,70.478,0,0,1-7.552,2.56ZM100.4,74.2,99.6,56.26h5.693V71.645A53.2,53.2,0,0,1,100.4,74.2ZM52.411,24.684v8.064a1.589,1.589,0,1,0,3.178,0V23.914q2.02-.536,4.017-1.188.761-.249,1.523-.468v13.5a1.589,1.589,0,1,0,3.178,0v-14.3a55.031,55.031,0,0,1,18.087-.67V34.915a1.589,1.589,0,0,0,3.178,0V21.25c1.938.328,3.792.726,5.54,1.165V31.9a1.589,1.589,0,1,0,3.178,0V23.286c1.862.554,3.563,1.135,5.069,1.7v13.28a1.589,1.589,0,0,0,3.178,0V26.251c.4.169.769.332,1.114.486a2.782,2.782,0,0,1,1.642,2.539V53.082H99.457l-.16-3.566c0-.007,0-.015,0-.022a1.81,1.81,0,0,0-1.8-1.7h-4.26a1.8,1.8,0,0,0-1.782,1.5l-.539,3.128H88.972L88.245,49.2a1.8,1.8,0,0,0-1.764-1.41H80.891a1.8,1.8,0,0,0-1.764,1.41L78.4,52.421H76.461l-.539-3.128a1.8,1.8,0,0,0-1.782-1.5h-4.26a1.811,1.811,0,0,0-1.805,1.7v.024l-.067,1.5a39.4,39.4,0,0,1-9.716-4.841A1.589,1.589,0,1,0,56.5,48.8,42.574,42.574,0,0,0,67.86,54.311L66.686,80.491a68.322,68.322,0,0,1-16.227-3.074L49.341,52.489v-.022a1.853,1.853,0,0,0-1.847-1.741H42.4a1.847,1.847,0,0,0-1.824,1.537l-.687,3.994H37.067l-.922-4.087a1.84,1.84,0,0,0-1.805-1.444H27.66a1.84,1.84,0,0,0-1.805,1.443l-.923,4.087H22.108l-.687-3.994A1.847,1.847,0,0,0,19.6,50.725H14.507a1.853,1.853,0,0,0-1.847,1.74v.024L11.5,78.319A77.887,77.887,0,0,0,3.178,81.51V39.841l6.345-2.379a39.489,39.489,0,0,1,34.922,3.571l5.238,3.3a1.589,1.589,0,1,0,1.695-2.688l-5.238-3.3a42.264,42.264,0,0,0-4.078-2.263l-.589-9.887a71.181,71.181,0,0,0,10.938-1.511ZM27.136,31.94q-1.932-.17-3.875-.163V26.532a.338.338,0,0,1,.337-.337h3.2a.338.338,0,0,1,.337.337ZM14.663,12.4l.525,3.051a1.8,1.8,0,0,0,1.778,1.5h4.115a1.794,1.794,0,0,0,1.76-1.407L23.55,12.4h3.3l.709,3.141a1.8,1.8,0,0,0,1.76,1.407h4.115a1.8,1.8,0,0,0,1.778-1.5l.525-3.05h1.734l1.325,22.257a42.957,42.957,0,0,0-8.48-2.318V26.532A3.519,3.519,0,0,0,26.8,23.016H23.6a3.519,3.519,0,0,0-3.515,3.515v5.378a42.974,42.974,0,0,0-8.405,1.505L12.93,12.4ZM3.469,25.5a.817.817,0,0,1,.672-.184c1.587.267,3.2.479,4.8.64l-.508,8.523-.024.008L3.178,36.448V26.129a.814.814,0,0,1,.292-.63Zm-.292,84.332V85.024a71.024,71.024,0,0,1,8.17-3.308l-.187,4.174a1.589,1.589,0,1,0,3.175.142L15.776,53.9h2.7l.687,3.994a1.847,1.847,0,0,0,1.824,1.537h5A1.841,1.841,0,0,0,27.8,57.991l.923-4.087h4.557l.923,4.088a1.841,1.841,0,0,0,1.805,1.443h5A1.846,1.846,0,0,0,42.834,57.9l.687-3.994h2.7l1.926,42.942a5.668,5.668,0,0,1-1.8.973l-4.734,1.521-.668-9.467a9.972,9.972,0,0,0-19.894,0l-1.464,20.735H13.233l.743-16.565A1.589,1.589,0,1,0,10.8,93.9l-.749,16.707h-6.1a.778.778,0,0,1-.777-.778ZM33.5,108.393v2.215H22.775L24.223,90.1a6.794,6.794,0,0,1,13.554,0l.729,10.33A8.808,8.808,0,0,0,33.5,108.393Zm3.178,2.215v-2.215A5.644,5.644,0,0,1,40.6,103l6.718-2.159a8.877,8.877,0,0,0,4.624-3.474l.986-1.462a5.654,5.654,0,0,1,4.694-2.5h6.762a5.657,5.657,0,0,1,4.973,2.956l2.711,4.984a8.883,8.883,0,0,0,5.426,4.3l3.962,1.086a5.678,5.678,0,0,1,3.935,3.871H36.674Zm68.619-.777a.778.778,0,0,1-.777.777H88.655a8.865,8.865,0,0,0-6.355-6.935l-3.962-1.086a5.689,5.689,0,0,1-3.476-2.754l-2.711-4.983a8.833,8.833,0,0,0-7.765-4.615H57.625a8.822,8.822,0,0,0-6.465,2.817l-.55-12.258A71.479,71.479,0,0,0,79.6,83.324c0,.03,0,.06,0,.09V97.32a1.589,1.589,0,0,0,3.178,0V83.414a1.586,1.586,0,0,0-.088-.518c1.827-.293,3.552-.64,5.157-1.018v9.079a1.589,1.589,0,0,0,3.178,0V81.3A1.6,1.6,0,0,0,91,81.06c2.013-.57,3.872-1.187,5.56-1.812V93.972a1.589,1.589,0,0,0,3.178,0V77.985c2.334-.993,4.206-1.938,5.552-2.674Z" transform="translate(0 -9.224)"/>
        <path id="Trazado_1356790" data-name="Trazado 1356790" d="M124,279.529h3.2a3.519,3.519,0,0,0,3.515-3.515v-7.481a3.519,3.519,0,0,0-3.515-3.515H124a3.519,3.519,0,0,0-3.515,3.515v7.481A3.519,3.519,0,0,0,124,279.529Zm-.337-11a.338.338,0,0,1,.337-.337h3.2a.338.338,0,0,1,.337.337v7.482a.338.338,0,0,1-.337.338H124a.338.338,0,0,1-.337-.338Z" transform="translate(-94.958 -210.826)"/>
        <path id="Trazado_1356791" data-name="Trazado 1356791" d="M377.583,249.271h-3.2a3.519,3.519,0,0,0-3.515,3.515v7.481a3.519,3.519,0,0,0,3.515,3.515h3.2a3.519,3.519,0,0,0,3.515-3.515v-7.481A3.519,3.519,0,0,0,377.583,249.271Zm.338,11a.338.338,0,0,1-.338.337h-3.2a.338.338,0,0,1-.338-.337v-7.481a.338.338,0,0,1,.338-.337h3.2a.338.338,0,0,1,.338.337Z" transform="translate(-292.297 -198.415)"/>
      </g>
    </g>
  </g>
</svg>
