<svg xmlns="http://www.w3.org/2000/svg" width="83.324" height="106.563" viewBox="0 0 83.324 106.563">
  <g id="Grupo_1207596" data-name="Grupo 1207596" transform="translate(-3232.338 10219.063)">
    <g id="Grupo_1207508" data-name="Grupo 1207508" transform="translate(3176.512 -10219.063)">
      <g id="Grupo_1207507" data-name="Grupo 1207507" transform="translate(57.88 23.953)">
        <path id="Trazado_1356792" data-name="Trazado 1356792" d="M181.143,116.7v66.473a7.648,7.648,0,0,0,.655,3.092l3.734,8.39c.442,1,.13,1.481-.956,1.481H117.2V115.088h62.332A1.411,1.411,0,0,1,181.143,116.7Z" transform="translate(-106.477 -115.088)" fill="#ce9875" fill-rule="evenodd"/>
        <path id="Trazado_1356793" data-name="Trazado 1356793" d="M399.082,116.7v66.473a7.648,7.648,0,0,0,.655,3.092l3.734,8.39c.442,1,.13,1.481-.956,1.481h-5.05c1.085,0,1.4-.484.956-1.481l-3.734-8.39a7.664,7.664,0,0,1-.661-3.092V116.7a1.407,1.407,0,0,0-1.611-1.617h5.05A1.411,1.411,0,0,1,399.082,116.7Z" transform="translate(-324.415 -115.088)" fill="#c6865c" fill-rule="evenodd"/>
        <path id="Trazado_1356794" data-name="Trazado 1356794" d="M71.872,115.088H82.58v68.09a7.572,7.572,0,0,0,.655,3.092l4.4,9.87H66.821c-.973,0-1.381-.531-.961-1.481l3.734-8.39a7.664,7.664,0,0,0,.661-3.092V116.7A1.486,1.486,0,0,1,71.872,115.088Z" transform="translate(-65.696 -115.088)" fill="#c6865c" fill-rule="evenodd"/>
        <path id="Trazado_1356795" data-name="Trazado 1356795" d="M122.553,115.088H127.6v68.09a7.572,7.572,0,0,0,.655,3.092l4.4,9.87H127.6l-4.4-9.87a7.572,7.572,0,0,1-.655-3.092v-68.09Z" transform="translate(-110.719 -115.088)" fill="#c17d4f" fill-rule="evenodd"/>
        <path id="Trazado_1356796" data-name="Trazado 1356796" d="M234.722,230.686A13.386,13.386,0,0,1,248.1,244.073c0,6.8-7.416,17.092-12.213,22.968a1.434,1.434,0,0,1-2.336,0c-4.8-5.876-12.213-16.165-12.213-22.968A13.383,13.383,0,0,1,234.722,230.686Z" transform="translate(-188.947 -206.627)" fill="#e27f84" fill-rule="evenodd"/>
        <path id="Trazado_1356797" data-name="Trazado 1356797" d="M276.025,230.686a13.386,13.386,0,0,1,13.381,13.387c0,6.8-7.416,17.092-12.213,22.968a1.434,1.434,0,0,1-2.336,0c-.437-.531-.891-1.1-1.357-1.693,4.72-6.012,10.855-15.086,10.855-21.275A13.383,13.383,0,0,0,273.5,230.928,13.15,13.15,0,0,1,276.025,230.686Z" transform="translate(-230.249 -206.627)" fill="#c9646d" fill-rule="evenodd"/>
        <path id="Trazado_1356798" data-name="Trazado 1356798" d="M261.39,277.128a6.369,6.369,0,1,0-6.372-6.372A6.387,6.387,0,0,0,261.39,277.128Z" transform="translate(-215.614 -233.316)" fill="#ffe07d" fill-rule="evenodd"/>
        <path id="Trazado_1356799" data-name="Trazado 1356799" d="M276.025,264.391a6.369,6.369,0,1,1-2.525,12.218,6.375,6.375,0,0,0,0-11.7A6.323,6.323,0,0,1,276.025,264.391Z" transform="translate(-230.25 -233.317)" fill="#ffd064" fill-rule="evenodd"/>
        <path id="Trazado_1356800" data-name="Trazado 1356800" d="M226.951,146.638a4.546,4.546,0,1,1-4.543,4.549A4.547,4.547,0,0,1,226.951,146.638Zm-29.493,0a4.546,4.546,0,1,1-4.549,4.549A4.546,4.546,0,0,1,197.458,146.638Z" transform="translate(-166.432 -140.072)" fill="#365e7d" fill-rule="evenodd"/>
      </g>
      <path id="Trazado_1356801" data-name="Trazado 1356801" d="M109.3,75.754a1.556,1.556,0,1,1,2.584,1.735c-.9,1.351-1.834,2.661-2.749,3.882-.525.708-1.044,1.392-1.552,2.036h7.239a1.563,1.563,0,0,1,0,3.127H92.481a1.563,1.563,0,0,1,0-3.127h7.245A82.52,82.52,0,0,1,92.021,71.86c-1.953-3.67-3.31-7.345-3.31-10.46a14.941,14.941,0,1,1,29.882,0,15.753,15.753,0,0,1-.778,4.572,33.607,33.607,0,0,1-2.218,5.292,1.56,1.56,0,0,1-2.773-1.428,30.216,30.216,0,0,0,2.018-4.779,12.709,12.709,0,0,0,.631-3.658,11.82,11.82,0,1,0-23.641,0c0,2.543,1.209,5.729,2.944,9a85.011,85.011,0,0,0,8.879,12.944c.92-1.133,1.935-2.425,2.973-3.823.891-1.192,1.794-2.46,2.667-3.764ZM104.517,22.4V7.623a4.522,4.522,0,0,0-4.5-4.5h-5.05a4.532,4.532,0,0,0-4.5,4.5V22.4ZM88.824,3.121H82.64a4.533,4.533,0,0,0-4.5,4.5V22.4h9.2V7.623a7.552,7.552,0,0,1,1.481-4.5ZM75.018,22.4V7.623A7.644,7.644,0,0,1,82.64,0h29.7a7.635,7.635,0,0,1,7.623,7.623V22.4h12.584a1.556,1.556,0,0,1,1.557,1.557v6.065a1.56,1.56,0,0,1-3.121,0v-4.5H119.963v3.646a6.1,6.1,0,1,1-3.121,0V25.517H90.464v3.646a6.1,6.1,0,1,1-3.121,0V25.517H76.322V93.341l4.5,10.1H135.2l-4.018-9.033a1.543,1.543,0,0,1-.194-.749V37.086a1.56,1.56,0,0,1,3.121,0V93.341l4.909,11.027a1.558,1.558,0,0,1-.785,2.059,1.671,1.671,0,0,1-.655.136H57.39a1.561,1.561,0,0,1-1.563-1.557,1.527,1.527,0,0,1,.194-.749l4.856-10.915V87.595a1.561,1.561,0,0,1,3.121,0v5.988a1.823,1.823,0,0,1-.136.708l-4.077,9.151H77.413L73.4,94.409a1.543,1.543,0,0,1-.195-.749V25.517H64v55.01a1.561,1.561,0,0,1-3.121,0V23.953A1.561,1.561,0,0,1,62.439,22.4ZM106.163,3.121a7.589,7.589,0,0,1,1.475,4.5V22.4h9.2V7.623a4.522,4.522,0,0,0-4.5-4.5h-6.177Zm13.8,29.924a1.561,1.561,0,1,1-3.121,0v-.519a2.764,2.764,0,0,0-.549.431,2.982,2.982,0,1,0,4.218,0,2.75,2.75,0,0,0-.548-.431v.519Zm-29.5-.519v.519a1.561,1.561,0,1,1-3.121,0v-.519a2.764,2.764,0,0,0-.549.431,2.985,2.985,0,1,0,4.224,0A2.8,2.8,0,0,0,90.464,32.526Zm13.192,20.938a7.936,7.936,0,1,1-5.611,2.324,7.906,7.906,0,0,1,5.611-2.324Zm3.4,4.531a4.807,4.807,0,1,0,1.41,3.4A4.773,4.773,0,0,0,107.054,58Z"/>
    </g>
  </g>
</svg>
