<svg xmlns="http://www.w3.org/2000/svg" width="128.5" height="125.119" viewBox="0 0 128.5 125.119">
  <g id="Grupo_1207598" data-name="Grupo 1207598" transform="translate(-2941.75 9832.648)">
    <g id="Grupo_1207517" data-name="Grupo 1207517" transform="translate(2941.752 -9839.383)">
      <g id="Grupo_1207515" data-name="Grupo 1207515" transform="translate(1.878 8.617)">
        <g id="Grupo_1207512" data-name="Grupo 1207512" transform="translate(42.367 0)">
          <path id="Trazado_1356825" data-name="Trazado 1356825" d="M239.366,33.061a3.993,3.993,0,0,0-5.189,2.456l-.014.022,3.037-8.9a4.022,4.022,0,0,0-2.377-5.062l-.3-.113a4,4,0,0,0-5.209,2.507L223.109,42.94a1.727,1.727,0,0,1-3.347-.8c.576-3.774,2.544-16.637,3.549-23.211A4.015,4.015,0,0,0,220,14.348l-.37-.06a4,4,0,0,0-4.6,3.355l-3.546,23.149a1.735,1.735,0,0,1-1.712,1.476h-.732a1.736,1.736,0,0,1-1.732-1.74V18.57a4.009,4.009,0,0,0-4-4.018h-.375a4.009,4.009,0,0,0-4,4.018v25.3a3.437,3.437,0,0,1-.715,2.1,3.4,3.4,0,0,1-5.11.325l-5.675-5.7a7.2,7.2,0,0,0-10.219,0,3.2,3.2,0,0,0,0,4.514L188.6,56.535a14.516,14.516,0,0,1,3.972,7.541l.568,3a17.555,17.555,0,0,0,6.37,10.52,13.728,13.728,0,0,1,2.522,7.932v50.059h27.21V79.129a19.424,19.424,0,0,0,4.594-12.55,36.249,36.249,0,0,1,2.1-12.15l5.788-16.268a4.012,4.012,0,0,0-2.353-5.1Z" transform="translate(-176.288 -14.235)" fill="#fdb0a0"/>
          <g id="Grupo_1207511" data-name="Grupo 1207511" transform="translate(25.743 73.949)">
            <path id="Trazado_1356826" data-name="Trazado 1356826" d="M278.853,308.863v11.914l3.278,3.293a14.515,14.515,0,0,1,3.972,7.541l.568,3a17.555,17.555,0,0,0,6.37,10.52l2.545,2.008a5.184,5.184,0,0,1,1.97,4.07v5.058h8.507V308.863Z" transform="translate(-278.853 -308.863)" fill="#f89f8e"/>
          </g>
          <path id="Trazado_1356827" data-name="Trazado 1356827" d="M364.091,134.54a19.424,19.424,0,0,0,4.594-12.55,36.249,36.249,0,0,1,2.1-12.15l5.788-16.268a4,4,0,0,0-6.152-4.559l-.007.007-.049.039-7.346,20.781a36.184,36.184,0,0,0-2.1,12.149,19.438,19.438,0,0,1-3.29,10.823,7.579,7.579,0,0,0-1.3,4.217V191h7.765V134.54Z" transform="translate(-311.137 -69.647)" fill="#f89f8e"/>
        </g>
        <g id="Grupo_1207514" data-name="Grupo 1207514" transform="translate(0 30.921)">
          <g id="Grupo_1207513" data-name="Grupo 1207513">
            <path id="Trazado_1356828" data-name="Trazado 1356828" d="M70.565,156.257a3.993,3.993,0,0,0-5.189,2.456l0,.006,3.027-8.882a4.023,4.023,0,0,0-2.377-5.062l-.3-.113a4,4,0,0,0-5.209,2.507l-6.207,18.967a1.727,1.727,0,0,1-3.347-.8c.576-3.774,2.544-16.637,3.55-23.211a4.015,4.015,0,0,0-3.312-4.576l-.37-.06a4,4,0,0,0-4.6,3.355l-3.546,23.149a1.735,1.735,0,0,1-1.712,1.476h-.732a1.736,1.736,0,0,1-1.732-1.74V141.765a4.009,4.009,0,0,0-4-4.018h-.375a4.009,4.009,0,0,0-4,4.018v25.3a3.438,3.438,0,0,1-.715,2.1,3.4,3.4,0,0,1-5.11.325l-5.675-5.7a7.2,7.2,0,0,0-10.219,0,3.2,3.2,0,0,0,0,4.514L19.8,179.731a14.516,14.516,0,0,1,3.972,7.541l.568,3a17.554,17.554,0,0,0,6.37,10.52l2.545,2.008a5.184,5.184,0,0,1,1.97,4.07v20.992H60.44v-25.54a19.424,19.424,0,0,0,4.594-12.549,36.249,36.249,0,0,1,2.1-12.15l5.788-16.268a4.012,4.012,0,0,0-2.353-5.1Z" transform="translate(-7.487 -137.431)" fill="#c86f5c"/>
            <path id="Trazado_1356829" data-name="Trazado 1356829" d="M195.29,257.735a19.425,19.425,0,0,0,4.594-12.55,36.249,36.249,0,0,1,2.1-12.15l5.788-16.268a4,4,0,0,0-6.129-4.576c-.029.025-.056.047-.078.064l-7.346,20.781a36.187,36.187,0,0,0-2.1,12.149,19.437,19.437,0,0,1-3.334,10.889,7.406,7.406,0,0,0-1.258,4.151v23.049h7.765v-25.54Z" transform="translate(-142.336 -192.841)" fill="#ba5d4f"/>
          </g>
          <path id="Trazado_1356830" data-name="Trazado 1356830" d="M305.943,184.256a3.993,3.993,0,0,0-5.189,2.456l0,.006,3.027-8.882a4.023,4.023,0,0,0-2.377-5.062l-.3-.113a4,4,0,0,0-5.209,2.507l-6.207,18.967a1.727,1.727,0,0,1-3.347-.8c.575-3.774,2.544-16.637,3.549-23.211a4.015,4.015,0,0,0-3.312-4.576l-.37-.061a4,4,0,0,0-4.6,3.355l-3.546,23.149a1.735,1.735,0,0,1-1.712,1.476h-.732a1.736,1.736,0,0,1-1.732-1.74V169.764a4.009,4.009,0,0,0-4-4.018h-.375a4.009,4.009,0,0,0-4,4.018v25.3a3.438,3.438,0,0,1-.715,2.1,3.4,3.4,0,0,1-5.11.325l-5.675-5.7a7.2,7.2,0,0,0-10.219,0,3.2,3.2,0,0,0,0,4.514l11.38,11.431a14.516,14.516,0,0,1,3.972,7.541l.568,3a17.555,17.555,0,0,0,6.37,10.52l2.545,2.008a5.184,5.184,0,0,1,1.97,4.07v13.965h25.217V230.324a19.424,19.424,0,0,0,4.594-12.55,36.25,36.25,0,0,1,2.1-12.15l5.788-16.268A4.012,4.012,0,0,0,305.943,184.256Z" transform="translate(-183.787 -158.403)" fill="#ffcec0"/>
          <path id="Trazado_1356831" data-name="Trazado 1356831" d="M430.668,285.735a19.424,19.424,0,0,0,4.594-12.549,36.249,36.249,0,0,1,2.1-12.15l5.788-16.268a4,4,0,0,0-6.174-4.541l-.033.028-7.346,20.781a36.184,36.184,0,0,0-2.1,12.149,19.438,19.438,0,0,1-3.334,10.889,7.406,7.406,0,0,0-1.258,4.151v16.021h7.765V285.735Z" transform="translate(-318.637 -213.814)" fill="#fdb0a0"/>
        </g>
      </g>
      <g id="Grupo_1207516" data-name="Grupo 1207516" transform="translate(-0.002 6.734)">
        <path id="Trazado_1356832" data-name="Trazado 1356832" d="M273.235,423.237a1.882,1.882,0,0,0-1.882,1.882v16.816a1.882,1.882,0,1,0,3.765,0V425.119A1.882,1.882,0,0,0,273.235,423.237Z" transform="translate(-203.246 -318.699)"/>
        <path id="Trazado_1356833" data-name="Trazado 1356833" d="M28.81,268.037l-2.545-2.007a15.667,15.667,0,0,1-5.686-9.392l-.568-3a16.333,16.333,0,0,0-4.487-8.519L4.143,233.686a1.319,1.319,0,0,1,0-1.858,5.34,5.34,0,0,1,6.365-.9,1.882,1.882,0,1,0,1.836-3.287,9.119,9.119,0,0,0-10.869,1.528,5.092,5.092,0,0,0,0,7.17l11.38,11.43a12.58,12.58,0,0,1,3.456,6.563l.568,3a19.433,19.433,0,0,0,7.054,11.647l2.545,2.007a3.282,3.282,0,0,1,1.254,2.593v20.992a1.882,1.882,0,1,0,3.765,0V273.585a7.025,7.025,0,0,0-2.687-5.549Z" transform="translate(0.002 -171.34)"/>
        <path id="Trazado_1356834" data-name="Trazado 1356834" d="M171.29,63.63a5.854,5.854,0,0,0-2.3-.377l1.252-3.674a5.878,5.878,0,0,0-3.494-7.431l-.3-.112a5.879,5.879,0,0,0-7.663,3.683l-5.62,17.176c.779-5.1,2.389-15.619,3.266-21.353a5.928,5.928,0,0,0-2.8-5.96l4.414-12.406a5.924,5.924,0,0,0-3.462-7.493,5.856,5.856,0,0,0-2.3-.378l1.253-3.674a5.878,5.878,0,0,0-3.493-7.43l-.3-.113a5.879,5.879,0,0,0-7.663,3.683l-5.62,17.176c.779-5.1,2.389-15.619,3.266-21.353a5.916,5.916,0,0,0-4.869-6.719l-.371-.061a5.885,5.885,0,0,0-6.759,4.928L124.2,34.767h-.452V12.952a5.9,5.9,0,0,0-5.882-5.9h-.375a5.9,5.9,0,0,0-5.882,5.9v25.3a1.563,1.563,0,0,1-.323.949,1.52,1.52,0,0,1-2.286.146l-5.675-5.7a9.032,9.032,0,0,0-6.443-2.68h0a9.032,9.032,0,0,0-6.443,2.68,5.076,5.076,0,0,0-1.4,4.414,5.9,5.9,0,0,0-3.675,4.6L81.828,65.688h-.452V43.872a5.9,5.9,0,0,0-5.882-5.9h-.375a5.9,5.9,0,0,0-5.882,5.9v25.3a1.564,1.564,0,0,1-.323.949,1.521,1.521,0,0,1-2.286.146l-1.209-1.214a1.882,1.882,0,0,0-2.668,2.656l1.209,1.214A5.3,5.3,0,0,0,73,69.17v-25.3a2.129,2.129,0,0,1,2.117-2.135h.375a2.129,2.129,0,0,1,2.118,2.135V65.83a3.623,3.623,0,0,0,3.615,3.623h.732A3.6,3.6,0,0,0,85.53,66.38l3.546-23.149a2.124,2.124,0,0,1,.855-1.407,2.091,2.091,0,0,1,1.576-.376l.371.061a2.138,2.138,0,0,1,1.754,2.433c-1.006,6.574-2.974,19.438-3.55,23.212a3.609,3.609,0,0,0,7,1.674l6.207-18.967a2.111,2.111,0,0,1,1.1-1.26,2.083,2.083,0,0,1,1.653-.071l.3.113a2.129,2.129,0,0,1,1.26,2.694L99.87,74.016a1.882,1.882,0,1,0,3.564,1.214l4.7-13.8a2.112,2.112,0,0,1,1.106-1.24,2.082,2.082,0,0,1,1.635-.066,2.131,2.131,0,0,1,1.247,2.708l-2.482,6.977a9.116,9.116,0,0,0-2.5,1.784,5.09,5.09,0,0,0-.481,6.6l-.324.908a37.994,37.994,0,0,0-2.2,12.782,17.555,17.555,0,0,1-4.147,11.331,1.883,1.883,0,0,0-.446,1.216v25.541a1.882,1.882,0,0,0,3.765,0V105.1A21.33,21.33,0,0,0,107.9,91.881a34.237,34.237,0,0,1,1.695-10.657l5.1,5.126v18.444a1.882,1.882,0,1,0,3.765,0V90.133l.061.062a12.579,12.579,0,0,1,3.457,6.563l.568,3a19.435,19.435,0,0,0,7.054,11.647l2.545,2.007a3.282,3.282,0,0,1,1.253,2.592v13.965a1.882,1.882,0,1,0,3.765,0V116.007a7.024,7.024,0,0,0-2.687-5.548l-2.545-2.007a15.669,15.669,0,0,1-5.686-9.392l-.568-3a16.332,16.332,0,0,0-4.488-8.519l-11.38-11.431a1.319,1.319,0,0,1,0-1.858,5.32,5.32,0,0,1,7.55,0l5.675,5.7a5.285,5.285,0,0,0,7.935-.5,5.346,5.346,0,0,0,1.106-3.249V66.166a1.882,1.882,0,1,0-3.765,0V76.2a1.564,1.564,0,0,1-.323.949,1.52,1.52,0,0,1-2.286.146l-5.675-5.7a9.026,9.026,0,0,0-6.074-2.671l1.718-4.83a5.892,5.892,0,0,0-5.764-7.867l1.252-3.674a5.878,5.878,0,0,0-3.494-7.43l-.3-.113a5.814,5.814,0,0,0-4.608.2A5.894,5.894,0,0,0,101.2,46.3l-3.919-3.937a5.919,5.919,0,0,0-4.388-4.481A1.316,1.316,0,0,1,93.1,36.3a5.32,5.32,0,0,1,7.55,0l5.675,5.7a5.285,5.285,0,0,0,7.935-.5,5.347,5.347,0,0,0,1.106-3.249v-25.3a2.129,2.129,0,0,1,2.117-2.135h.375a2.129,2.129,0,0,1,2.118,2.135V34.909a3.623,3.623,0,0,0,3.615,3.623h.732a3.6,3.6,0,0,0,3.573-3.073l3.546-23.149A2.125,2.125,0,0,1,132.3,10.9a2.09,2.09,0,0,1,1.576-.376l.371.061A2.138,2.138,0,0,1,136,13.022c-1.006,6.574-2.974,19.438-3.55,23.212a3.609,3.609,0,0,0,7,1.674l6.207-18.967a2.11,2.11,0,0,1,1.1-1.26,2.084,2.084,0,0,1,1.651-.072l.3.113a2.128,2.128,0,0,1,1.26,2.693l-7.543,22.11a1.883,1.883,0,1,0,3.564,1.216l4.519-13.234a2.111,2.111,0,0,1,1.1-1.238,2.083,2.083,0,0,1,1.638-.065,2.139,2.139,0,0,1,1.244,2.708l-4.546,12.778a5.89,5.89,0,0,0-5.515,5l-3.527,23.027h-.452V50.9a5.9,5.9,0,0,0-5.882-5.9H134.2a5.9,5.9,0,0,0-5.882,5.9v6.9a1.882,1.882,0,1,0,3.765,0V50.9a2.129,2.129,0,0,1,2.117-2.135h.375a2.129,2.129,0,0,1,2.117,2.135V72.858A3.623,3.623,0,0,0,140.3,76.48h.732a3.6,3.6,0,0,0,3.573-3.073l3.546-23.149a2.124,2.124,0,0,1,.855-1.407,2.089,2.089,0,0,1,1.576-.376l.371.061a2.138,2.138,0,0,1,1.754,2.433c-1.006,6.574-2.974,19.438-3.55,23.212a3.609,3.609,0,0,0,7,1.674l6.207-18.967a2.111,2.111,0,0,1,1.1-1.26,2.085,2.085,0,0,1,1.653-.071l.3.112a2.129,2.129,0,0,1,1.26,2.694l-7.729,22.68a1.882,1.882,0,1,0,3.564,1.214l4.695-13.775a2.18,2.18,0,0,1,1.116-1.266,2.086,2.086,0,0,1,1.637-.065A2.139,2.139,0,0,1,171.2,69.86l-5.788,16.268a38.028,38.028,0,0,0-2.205,12.781,17.56,17.56,0,0,1-4.148,11.333,1.883,1.883,0,0,0-.445,1.216v18.512a1.882,1.882,0,1,0,3.765,0V112.13a21.333,21.333,0,0,0,4.594-13.221,34.27,34.27,0,0,1,1.988-11.519l5.788-16.268a5.923,5.923,0,0,0-3.462-7.492Zm-74.368-16.3,2.431,2.442L94.088,65.865c.664-4.345,1.931-12.63,2.834-18.533Z" transform="translate(-46.59 -6.734)"/>
      </g>
    </g>
  </g>
</svg>
