<svg xmlns="http://www.w3.org/2000/svg" xmlns:xlink="http://www.w3.org/1999/xlink" width="120.017" height="121.152" viewBox="0 0 120.017 121.152">
  <defs>
    <clipPath id="clip-path">
      <rect id="Rectángulo_456684" data-name="Rectángulo 456684" width="120.017" height="121.152" fill="#ffe878"/>
    </clipPath>
    <clipPath id="clip-path-2">
      <rect id="Rectángulo_457285" data-name="Rectángulo 457285" width="68.604" height="101.629" fill="none"/>
    </clipPath>
  </defs>
  <g id="Grupo_1207593" data-name="Grupo 1207593" transform="translate(-843.074 -1070)">
    <g id="Grupo_1207036" data-name="Grupo 1207036" transform="translate(843.074 1070)">
      <g id="Grupo_1206514" data-name="Grupo 1206514">
        <g id="Grupo_1206513" data-name="Grupo 1206513" clip-path="url(#clip-path)">
          <path id="Trazado_1294880" data-name="Trazado 1294880" d="M176.23,89.952c-.149-.945-.78-.417-.633-.443-.036.56.529.359.633.443" transform="translate(-56.214 -28.618)" fill="#ffe878"/>
          <path id="Trazado_1294881" data-name="Trazado 1294881" d="M172.35,75.809l.258.122-.8-1.218Z" transform="translate(-55.008 -23.92)" fill="#ffe878"/>
          <path id="Trazado_1294882" data-name="Trazado 1294882" d="M170.532,68.958l.916.5c-.277-.884-.64-1.887-1.015-2.808a9.325,9.325,0,0,1-.738-2.442c-.714,1.046,1.031,2.89,1,4.464Z" transform="translate(-54.276 -20.556)" fill="#ffe878"/>
          <path id="Trazado_1294883" data-name="Trazado 1294883" d="M170.557,57.636c-.075-.174-.169-.417-.307-.839-.245.409-.672-.819.29,1.056a1.61,1.61,0,0,1,.017-.218" transform="translate(-54.41 -18.177)" fill="#ffe878"/>
          <path id="Trazado_1294884" data-name="Trazado 1294884" d="M170.847,57.958c.364.851.075-.676,0,0" transform="translate(-54.7 -18.499)" fill="#ffe878"/>
          <path id="Trazado_1294885" data-name="Trazado 1294885" d="M168.932,51.984c-.687-1.07-.778-.731-.818.067l.808.968c.1-.322-.3-1.337.01-1.035" transform="translate(-53.825 -16.427)" fill="#ffe878"/>
          <path id="Trazado_1294886" data-name="Trazado 1294886" d="M166.858,51.827c.039-.139,0-.307-.4-.5l.206.245.194.252" transform="translate(-53.294 -16.434)" fill="#ffe878"/>
          <path id="Trazado_1294887" data-name="Trazado 1294887" d="M167.341,52.567c-.305.023.052.143.47.572l-.819-1.078c-.069.226-.347.375.349.506" transform="translate(-53.429 -16.668)" fill="#ffe878"/>
          <path id="Trazado_1294888" data-name="Trazado 1294888" d="M168.277,54.74c.094.7.279,1.552-.485.577.969,2.061,1.507,1.5.485-.577" transform="translate(-53.722 -17.526)" fill="#ffe878"/>
          <path id="Trazado_1294889" data-name="Trazado 1294889" d="M168.667,65.582a2.538,2.538,0,0,1-.233-.942c-.061-.362-.139-.664-.273-.593l0,.453c0,.226-.013.455-.013.455Z" transform="translate(-53.836 -20.503)" fill="#ffe878"/>
          <path id="Trazado_1294890" data-name="Trazado 1294890" d="M163.481,43.752c-.1-.477-.466-1.275-.239-1.492-.216.046-.246.636-.423.849,0,0,.174.154.337.317l.325.326" transform="translate(-52.13 -13.53)" fill="#ffe878"/>
          <path id="Trazado_1294891" data-name="Trazado 1294891" d="M162.34,43.072l-1.016-.929c.6,1.017.863,1.111,1.016.929" transform="translate(-51.651 -13.493)" fill="#ffe878"/>
          <path id="Trazado_1294892" data-name="Trazado 1294892" d="M165.6,52.383l.783.827-.872-1.012c-.212-.254-.449-.495-.62-.677l-.287-.3.2.362s.42.389.8.8" transform="translate(-52.701 -16.398)" fill="#ffe878"/>
          <path id="Trazado_1294893" data-name="Trazado 1294893" d="M159.764,36.164l-.688-.343-.708-.318.563.322Z" transform="translate(-50.704 -11.367)" fill="#ffe878"/>
          <path id="Trazado_1294894" data-name="Trazado 1294894" d="M155.224,31.135c.676.177,0-1.023.582-.724a7.113,7.113,0,0,0-2.154-1.376,4.736,4.736,0,0,1,1.572,2.1" transform="translate(-49.194 -9.296)" fill="#ffe878"/>
          <path id="Trazado_1294895" data-name="Trazado 1294895" d="M151.959,28.207a9.092,9.092,0,0,0,1.151.564,4.351,4.351,0,0,0-1.151-.564" transform="translate(-48.652 -9.031)" fill="#ffe878"/>
          <path id="Trazado_1294896" data-name="Trazado 1294896" d="M159.33,37.542l-.168.766.3.431a1.442,1.442,0,0,0-.128-1.2" transform="translate(-50.958 -12.02)" fill="#ffe878"/>
          <path id="Trazado_1294897" data-name="Trazado 1294897" d="M158.867,38.227l-.627-.937.623.963Z" transform="translate(-50.663 -11.939)" fill="#ffe878"/>
          <path id="Trazado_1294898" data-name="Trazado 1294898" d="M159.667,39.412l-.074-.109c-.018.074-.016.109.074.109" transform="translate(-51.094 -12.584)" fill="#ffe878"/>
          <path id="Trazado_1294899" data-name="Trazado 1294899" d="M161.1,46.392c.616.273.418-.636,1.418.122-.669-.513-1.755-1.7-1.418-.122" transform="translate(-51.558 -14.6)" fill="#ffe878"/>
          <path id="Trazado_1294900" data-name="Trazado 1294900" d="M159.375,40.841s.174.3.33.617l.319.621c.114-.106.166-.441.508-.206l-.575-.521c-.283-.262-.582-.511-.582-.511" transform="translate(-51.027 -13.076)" fill="#ffe878"/>
          <path id="Trazado_1294901" data-name="Trazado 1294901" d="M158.572,40.179l.546.45-.258-.449Z" transform="translate(-50.77 -12.864)" fill="#ffe878"/>
          <path id="Trazado_1294902" data-name="Trazado 1294902" d="M153.033,30.778a7.718,7.718,0,0,1-1.6-1.29c.482.651.977,1.32,1.492,1.917.21-.037.687.014.1-.627" transform="translate(-48.485 -9.441)" fill="#ffe878"/>
          <path id="Trazado_1294903" data-name="Trazado 1294903" d="M156.379,34.885l-.109-.086c.013.1.041.158.109.086" transform="translate(-50.033 -11.141)" fill="#ffe878"/>
          <path id="Trazado_1294904" data-name="Trazado 1294904" d="M143.543,22.024l.022.158.086-.058Z" transform="translate(-45.958 -7.051)" fill="#ffe878"/>
          <path id="Trazado_1294905" data-name="Trazado 1294905" d="M153.6,32.48a1.829,1.829,0,0,0,1.015.853,12.141,12.141,0,0,1-1.021-1.026c-.1.016-.142.045.006.173" transform="translate(-49.146 -10.344)" fill="#ffe878"/>
          <path id="Trazado_1294906" data-name="Trazado 1294906" d="M149.529,26.293c.147.3.332.627.521.971-.075-.358-.33-1-.521-.971" transform="translate(-47.874 -8.418)" fill="#ffe878"/>
          <path id="Trazado_1294907" data-name="Trazado 1294907" d="M156.268,34.365c.026.018.051.033.076.055-.026-.235-.058-.177-.076-.055" transform="translate(-50.032 -10.969)" fill="#ffe878"/>
          <path id="Trazado_1294908" data-name="Trazado 1294908" d="M155.9,34.224a3.672,3.672,0,0,0-.772-.407,6.718,6.718,0,0,0,.774.668.907.907,0,0,1,0-.261" transform="translate(-49.668 -10.827)" fill="#ffe878"/>
          <path id="Trazado_1294909" data-name="Trazado 1294909" d="M145.454,23.746l.313.309-.2-.075.459.345a7.928,7.928,0,0,1-.988-1.871c-.9-.431-1.175-.4-1.341-.311l1.04.949.713.653" transform="translate(-46.008 -7.072)" fill="#ffe878"/>
          <path id="Trazado_1294910" data-name="Trazado 1294910" d="M148.97,27.161c-.716.074-1.882-.657-1.723.36,1.194,1.118,1.15.475,2.023,1.007-1.951-1.836.769.333-.334-1.3a10.765,10.765,0,0,1,1.12.95c-.284-.4-.546-.8-.776-1.2l.017.071.01.007-.009,0c.029.136.024.2-.037.07a.2.2,0,0,1-.048-.033.576.576,0,0,1-.242.067c-.455-.652.022-.2.242-.067a.414.414,0,0,0,.085-.037v-.012s-.524-.441-1.079-.844l-1.092-.82a17.249,17.249,0,0,0,1.843,1.782" transform="translate(-47.105 -8.126)" fill="#ffe878"/>
          <path id="Trazado_1294911" data-name="Trazado 1294911" d="M158.453,45.862a.147.147,0,0,1,.071-.141c-.152-.1-.227-.13-.071.141" transform="translate(-50.704 -14.615)" fill="#ffe878"/>
          <path id="Trazado_1294912" data-name="Trazado 1294912" d="M158.718,41.764c.021-.046.042-.091.065-.138-.035-.023-.056.032-.065.138" transform="translate(-50.816 -13.325)" fill="#ffe878"/>
          <path id="Trazado_1294913" data-name="Trazado 1294913" d="M158.824,44.228c.138.542-.241.145-.388.271.332.224,1.044.882.672-.257l-.167-.114a6.75,6.75,0,0,1-.424-2.3,4.336,4.336,0,0,0-.427,1.725,1.286,1.286,0,0,1,.734.672" transform="translate(-50.615 -13.393)" fill="#ffe878"/>
          <path id="Trazado_1294914" data-name="Trazado 1294914" d="M152.634,34.628l-.827-.736.341,1.169.2-.238c.7,1.03.808.6,1.093.569l-.247-.242c-.148-.145-.344-.34-.555-.521" transform="translate(-48.604 -10.851)" fill="#ffe878"/>
          <path id="Trazado_1294915" data-name="Trazado 1294915" d="M143.7,20.966s-.386-.054-.787-.084l-.789-.065.952.427Z" transform="translate(-45.505 -6.665)" fill="#ffe878"/>
          <path id="Trazado_1294916" data-name="Trazado 1294916" d="M140.264,18.221s-.2-.055-.413-.1l-.414-.1.418.562Z" transform="translate(-44.643 -5.77)" fill="#ffe878"/>
          <path id="Trazado_1294917" data-name="Trazado 1294917" d="M36.949,15.035l.577.33a3.658,3.658,0,0,1,1.428-.811c-1.079.093-2.441.041-2,.481" transform="translate(-11.803 -4.66)" fill="#ffe878"/>
          <path id="Trazado_1294918" data-name="Trazado 1294918" d="M98.431,2.088A9.332,9.332,0,0,0,96.4,1.472c.969.463,1.7,1.069,2.028.616" transform="translate(-30.865 -0.471)" fill="#ffe878"/>
          <path id="Trazado_1294919" data-name="Trazado 1294919" d="M9.262,132.859c.294.3.485.39.593.315-.294-.309-.511-.46-.593-.315" transform="translate(-2.965 -42.519)" fill="#ffe878"/>
          <path id="Trazado_1294920" data-name="Trazado 1294920" d="M95.265,1.294a2.966,2.966,0,0,0-2.415-.2c.143.071.286.111.432.173a7.631,7.631,0,0,1,1.984.028" transform="translate(-29.728 -0.294)" fill="#ffe878"/>
          <path id="Trazado_1294921" data-name="Trazado 1294921" d="M173.616,103.041a3.708,3.708,0,0,0,.1-1.124c0,.273-.053.71-.1,1.124" transform="translate(-55.586 -32.63)" fill="#ffe878"/>
          <path id="Trazado_1294922" data-name="Trazado 1294922" d="M125.312,9.49c.583.238.12-.021,0,0" transform="translate(-40.121 -3.038)" fill="#ffe878"/>
          <path id="Trazado_1294923" data-name="Trazado 1294923" d="M127.515,14.545a.388.388,0,0,0-.35.143.492.492,0,0,1,.35-.143" transform="translate(-40.714 -4.657)" fill="#ffe878"/>
          <path id="Trazado_1294924" data-name="Trazado 1294924" d="M126.079,10.221a5.116,5.116,0,0,0-.636-.521,5.965,5.965,0,0,0,.636.521" transform="translate(-40.163 -3.106)" fill="#ffe878"/>
          <path id="Trazado_1294925" data-name="Trazado 1294925" d="M126.395,10.014l.463.3c.115-.052.08-.139-.463-.3" transform="translate(-40.468 -3.206)" fill="#ffe878"/>
          <path id="Trazado_1294926" data-name="Trazado 1294926" d="M124.93,9.334,124.12,9a6.321,6.321,0,0,1,.9.475c-.1-.087-.128-.139-.089-.143" transform="translate(-39.739 -2.882)" fill="#ffe878"/>
          <path id="Trazado_1294927" data-name="Trazado 1294927" d="M118.03,70.411c-.2.53-.581-.1-.92-.044,0,0,.087-.2.211-.508s.29-.717.456-1.127l.456-1.14c.125-.313.19-.524.19-.524-.424-.358-.369-1.274-.313-2.16s.044-1.741-.37-1.93l.127,1.086c-.492-.741-1.059-.252-1.687.351l-.194.183c.061-1.081.1-2.168.1-3.265a56.931,56.931,0,0,0-18-41.592.468.468,0,0,0,.11.061l.172-.257c-.513-.466-1-.676-.8-.3-.452-.415-.918-.815-1.384-1.216,1.157.386,1.677-1.408,1.423-2.9-.186.16-.31.3-1.591-.3.223.5,1.874,2.468.693,2.092-1.522-.948-1.008-1.064-1.506-1.841.144.865-1.846-.294-2.49.18a57.042,57.042,0,0,0-9.062-5.444c.094-.046.128-.122.044-.254l-.942-.313c-.59-.914,2.05.033,1.017-.737a15.818,15.818,0,0,1,2.239.39,7.32,7.32,0,0,1,1.186.418,6.209,6.209,0,0,1,1.147.756l-.107.9c.089-.228-.831-1.052-1.419-1.092.434.031.931.645,1.469,1.175s1.116,1,1.767.776l-.409-.605c-.2-.309-.425-.591-.425-.591.7.154,1.508.316,2.331.548A5.086,5.086,0,0,1,93.8,12.4c-.172-1.129-.37-.154-.844-1.659.241,1.57-3.734-2.444-2.945-.452A3.007,3.007,0,0,0,88.87,8.738a6.535,6.535,0,0,1-1.517-1.574c-.081.267.281.735-.963-.055a1.486,1.486,0,0,1-.395.07l-.079-.063.058.066c-.075.008-.084.013.022.024a1.651,1.651,0,0,1,.471.711,4.374,4.374,0,0,1-1.933-.32,10.5,10.5,0,0,0-1.881-.462c-.723-.47.45-.143.144-.6l-.624-.014-.63.012c.136-.6-1.754-1.783.279-1.365l-1.706-.7a6.634,6.634,0,0,0-3.25-1.338c-.807-.368-2.3.048-1.444-.205l-1.441-.205-1.448-.141.008-.154a25.491,25.491,0,0,0-4.37-.508A13.509,13.509,0,0,1,63.555.972c-.484.042-.974.086-1.54.1A10.622,10.622,0,0,1,60,.977L59.7.441a16.215,16.215,0,0,1-2.391-.1c-.844-.064-1.6-.092-1.853.216A2.574,2.574,0,0,0,53.871.021a8.726,8.726,0,0,0-2.26.158c-.8.145-1.628.294-2.381.477a12.708,12.708,0,0,1-2,.362l.05.691a12.235,12.235,0,0,0-2.184.576c-.369.126-.746.264-1.139.413s-.791.346-1.216.536l.271.556a8.221,8.221,0,0,1-2.8.829c-.56.1-1.152.2-1.753.332a11.98,11.98,0,0,0-1.769.581c.071-.279.689-.456,1.156-.489a5.151,5.151,0,0,0-2.3.436,12.656,12.656,0,0,0-2.014,1.23c-.649.44-1.246.95-1.877,1.335a5.736,5.736,0,0,1-1.988.8,2.444,2.444,0,0,1-1.426.812.477.477,0,0,0,.129-.111,2.7,2.7,0,0,0-.245.133,8.221,8.221,0,0,0-.973.216,4.779,4.779,0,0,0,.844-.139,11.17,11.17,0,0,0-1.634,1.32l-.637-.369c-.049.041-.092.068-.142.114-.78.214-.343.588.271.779a3.685,3.685,0,0,0-.615.9c-1.1-.5-1.444,1.426-2.766,1.06-.039.379-.739,1.061-1.373,1.788a3.49,3.49,0,0,0-.964,1.861A3.952,3.952,0,0,0,18.394,18.9l-.838-.351s-.141.521-.281,1.042c-.12.53-.239,1.059-.239,1.059-1.133.453-1.685.605-1.368-.656a20.688,20.688,0,0,1-1.135,2.236,7.736,7.736,0,0,0-.847,2.017l-.347-.429c-.5.664-.731,2.129-1.388,2.245-.949.43-2.327,2.262-3.74,4.5-1.376,2.264-2.785,4.906-4.154,6.915.919-.1.519.324.046.873S3.089,39.587,3.628,39.9c-.45.12-.894.671-.914-.17a15.38,15.38,0,0,1-1.027,2.8,3.294,3.294,0,0,0-.249,2.432c-.439.168-.385-.656-.667-.477.023.214.1.841-.186,1.029s-.206-.43-.255-.854a4.871,4.871,0,0,0-.185,1.512,2.08,2.08,0,0,0,.326.963,2.777,2.777,0,0,0,1.36.93,3.144,3.144,0,0,0-.655,1.4A2.386,2.386,0,0,0,1.541,50.8c-.424.356-.918,1.014-.774-.519l-.3,1.155-.2.842c-.054.3-.1.606-.146.909C-.048,54.4-.1,55.525.352,55.61.112,55.857.2,56.8.279,57.032c-.1.957-.17,1.477-.189,2S.049,60.06.067,61l.156-.521c1.012.751.23,1.555.394,3.069l-.109-.039a7.407,7.407,0,0,0-.184,1.765A2.521,2.521,0,0,0,.444,66a2.18,2.18,0,0,1,.1.714c-.01.354-.049.878-.147,1.759l.623-.262c.717.077.605.837.415,1.837a5.669,5.669,0,0,0,.083,3.163l.236-.777c.316.488.026,1.31-.347,2.183A5.994,5.994,0,0,0,.66,76.971c-.048.266-.3-.321-.468-.633-.007,3.065.927.153,1.707,2.187-.322.519-1.284-.162-.922,1.282-.058.408.638,1.322,1.334,2.374A6.523,6.523,0,0,1,3.78,85.495c.143-.547.293-1.076.949-.272a16.022,16.022,0,0,1,.765,2.768c.284,1,.648,1.967,1.5,2.287.013.217-.031.327-.1.377.429.436.98,1.222,1.6,1.889a5.048,5.048,0,0,0,1.675,1.385,1.614,1.614,0,0,0,.242,1.763,9.012,9.012,0,0,0,1.662,1.821,16.379,16.379,0,0,1,1.617,1.567c.376.455.488.86.091,1.2,0,0,.606.674,1.237,1.324l1.29,1.272-.218.08a6.4,6.4,0,0,0,1.942,1.647,4.659,4.659,0,0,0,1.475.47c.305.452-.116.344-.222.395a11.872,11.872,0,0,0,2.528,2.388,10.425,10.425,0,0,0,2.97,1.126l-.154.717c.424.064,1.251.993,2.448,1.988.3.253.61.517.943.773s.7.482,1.072.707a8.084,8.084,0,0,0,2.373,1.037.545.545,0,0,1-.466.1c1.837.523,3.645,1.9,5.377,2.867,1.713.991,3.313,1.552,4.333.6,0,0,.623.067,1.257.077l1.254.042c-2.955-1.038.74-.9-.378-1.638a3.742,3.742,0,0,1,1.67.819c.378.314.422.6-.32.465L44,117.353c-.877,1.137,3.664,1.355,3.414,2.152,3.065.587,6.112,1.061,9.147,1.381a46.375,46.375,0,0,0,9.006.087l-.389-.452-.385-.463s.127,0,.316-.02l.695-.068,1.01-.1c.559.162.823.68-.64.825.844.467,2.376-.781,2.367-1.024,2.881-.1-.91,1.34-.049,1.211l1.174-.285-.287-.067c.445-.286.666-.538.993-.751a4.682,4.682,0,0,1,1.614-.57c1.124-.054.694.47,1.131.408.014.069.167.068.665-.124,0,0,.161-.026.4-.089l.867-.216,1.264-.315L75.1,118.4c.991-.676,2.323-.632.936-1.148,1.016.4,3.348-.217,5.484-1.1,1.076-.423,2.083-.951,2.918-1.317a8.047,8.047,0,0,1,1.728-.725,8.193,8.193,0,0,1,.912-.836,11.124,11.124,0,0,1,.982-.745c.689-.469,1.466-.87,2.29-1.379-.494.122-1.193-.478.245-1.272.235.918,1,.7,1.908.223a6.01,6.01,0,0,1,2.91-1.054c-.745.032.171-.754.981-1.518s1.46-1.569.353-1.412c1.147-.8.5.466,1.591.091a18.286,18.286,0,0,1,1.786-1.952l2.117-1.895c.364-.326.749-.642,1.113-.987l1.081-1.067a16.517,16.517,0,0,0,1.982-2.379c-.15-.2-.864.122-.6-.789l.358-.154c.219-.09.5-.22.777-.356l1.122-.547c.373-.756-.668-1.376.82-2.178-.283.069-.7.163-.474-.337a32.77,32.77,0,0,0,5.811-10.807c1.4-3.918,2.494-7.862,4.237-11.8-.655,1.035-.567.285-.436-.559M96.022,17.891q-.849-.725-1.728-1.415a2.808,2.808,0,0,1,1.728,1.415m-2.061-1.725c-.005.011-.019.018-.03.025l-.126-.1.156.074M78.647,4.357a.3.3,0,0,0-.056.014c-.879-.567-.57-.356.056-.014M68.083,3.752a12.8,12.8,0,0,1,1.972-.169c2.224.141.782.919,1.192.829a7.1,7.1,0,0,0,2.324.315,6.947,6.947,0,0,0,1.5-.207,3.569,3.569,0,0,1,3.2.631c1.058,1.131-.422,1.393-.306,1.989a5.393,5.393,0,0,1-2.006-.8,6.543,6.543,0,0,0-1.585-.772L75.7,6.3A4.177,4.177,0,0,1,73.36,5.86a2,2,0,0,0,.523.345,56.833,56.833,0,0,0-8.1-1.561,4.271,4.271,0,0,1,.721-.4,7.139,7.139,0,0,1,1.585-.488m-11.465-.06c-.059.2.149.434.308.587q-.871.031-1.735.087a4.294,4.294,0,0,1,1.427-.674m-11.871.449c.115.01.973.067,1.887.169a8.657,8.657,0,0,1,2.277.5.621.621,0,0,1,.269.271c-.692.12-1.383.243-2.066.388l-.256-1-.029,1.069c-.674.146-1.348.3-2.013.465a3.02,3.02,0,0,1-.068-1.859M34.41,7.656l.632.205.791-.637c.4-.321.812-.608.812-.608-.305.638-.848,1.7-1.443,2.8q-1.44.661-2.838,1.394A6.733,6.733,0,0,1,34.41,7.656M20.135,17.216a.746.746,0,0,0,.05.261c-.116-.094-.322-.01-.05-.261m-3.141,3.668a2.486,2.486,0,0,0,.883.826c-.34.352-.683.7-1.013,1.063.018-.34.039-.657.059-.933.042-.573.071-.956.071-.956M2.217,48.672c.2-.254.441.051.708.508-.033-.173-.068-.339-.105-.47.2-.3.383-.392.552-.354-.088.381-.183.758-.264,1.141l-.183-.317c.04.186.077.389.118.6-.035.171-.061.347-.1.519a8.82,8.82,0,0,0-.744.823S2.2,50.508,2.186,49.9s.031-1.224.031-1.224m71.07,70.658-.436-.075c.846-.389.638-.166.436.075" transform="translate(0 0)" fill="#ffe878"/>
          <path id="Trazado_1294928" data-name="Trazado 1294928" d="M133.014,13.7c.048-.128-.024-.393.2-.315-.117-.057-.3-.145-.505-.226l-.635-.267a2.357,2.357,0,0,1,.944.808" transform="translate(-42.284 -4.128)" fill="#ffe878"/>
          <path id="Trazado_1294929" data-name="Trazado 1294929" d="M133.841,13.665a.629.629,0,0,1,.056.029l-.056-.029" transform="translate(-42.852 -4.375)" fill="#ffe878"/>
          <path id="Trazado_1294930" data-name="Trazado 1294930" d="M133.747,13.619l.064.031a.653.653,0,0,0-.064-.031" transform="translate(-42.821 -4.36)" fill="#ffe878"/>
          <path id="Trazado_1294931" data-name="Trazado 1294931" d="M133.734,17.4c-.22.532.6.779,1.394,1.243a1.083,1.083,0,0,1-.133-.094c.664-.481-.29-.848-1.261-1.15" transform="translate(-42.806 -5.572)" fill="#ffe878"/>
          <path id="Trazado_1294932" data-name="Trazado 1294932" d="M136.774,19.872c.268-.188-.245-.253-.7-.481a4.6,4.6,0,0,1,.7.481" transform="translate(-43.566 -6.208)" fill="#ffe878"/>
          <path id="Trazado_1294933" data-name="Trazado 1294933" d="M121.9,8.6c.351.314.543-.53.685-.218.74-.449-3.083-.44-.685.218" transform="translate(-38.772 -2.585)" fill="#ffe878"/>
          <path id="Trazado_1294934" data-name="Trazado 1294934" d="M132.9,19.874l.1-.742-.725.188Z" transform="translate(-42.353 -6.125)" fill="#ffe878"/>
          <path id="Trazado_1294935" data-name="Trazado 1294935" d="M124.531,14.347l1.2.824c.035-.111.228-.086.453-.029-.78-.425-1.589-.992-1.649-.8" transform="translate(-39.871 -4.581)" fill="#ffe878"/>
          <path id="Trazado_1294936" data-name="Trazado 1294936" d="M128.023,16.01a5.99,5.99,0,0,0-1.067-.474,3.388,3.388,0,0,0,1.067.474" transform="translate(-40.647 -4.974)" fill="#ffe878"/>
          <path id="Trazado_1294937" data-name="Trazado 1294937" d="M101.469,7.166c.4-.094.99-.08.8-.344l-1.585-.085c-.2.2.2.418.79.429" transform="translate(-32.218 -2.157)" fill="#ffe878"/>
          <path id="Trazado_1294938" data-name="Trazado 1294938" d="M175.429,94.727s.1-.309.178-.621l.161-.625-.487.792Z" transform="translate(-56.119 -29.93)" fill="#ffe878"/>
          <path id="Trazado_1294939" data-name="Trazado 1294939" d="M174.994,90.972l-.78-.753c.033.279.1.825-.109,1.033Z" transform="translate(-55.742 -28.885)" fill="#ffe878"/>
        </g>
      </g>
    </g>
    <g id="Grupo_1207038" data-name="Grupo 1207038" transform="translate(868.781 1079.762)">
      <g id="Grupo_1207037" data-name="Grupo 1207037" clip-path="url(#clip-path-2)">
        <path id="Trazado_1311477" data-name="Trazado 1311477" d="M35.124.088c1.755.05,4.835-.519,6.034.719a7.453,7.453,0,0,1,5.453,2.941c2.123,2.382,1.74,4.643,1.711,7.555l.034,10.505c-.007,1.039.081,1.98-.007,3.037,2.881.307,5.825-.282,8.7.051,7.375.855,10,6.34,10.261,12.849L68.568,80.65a26.158,26.158,0,0,1-.036,3.337A11.64,11.64,0,0,1,60,92.976c-2.423.6-7.75.315-10.346.343l-16.51.288c-7.187-.044-14.521.35-21.721.395C5.386,94.038-.207,88.221.006,82.192c.093-2.619.15-5.244.209-7.873L.96,37.189A11.361,11.361,0,0,1,7.172,26.846c2.577-1.312,4.855-1.23,7.665-1.234h5.276V12.895c.007-6.513-.628-10.3,6.814-11.866.763-1.115,2.1-.741,3.3-.795,1.632-.073,3.265-.057,4.9-.147M64.452,35.271c-2.882-5.525-7.642-4.043-12.731-3.913l-27.309.507c-3.146.062-10.364-.361-13.107,1.1C6.219,35.675,7.707,41.335,7.434,46c-.154,2.642-.065,5.16-.167,7.765l-.221,5.362c-.157,3.66-.045,7.3-.121,10.966l-.31,10.713c-.065,2.013-.175,4.023-.138,6.04.025,1.391.891,2.125,1.349,3.327,2.276,1.384,13,.89,16.128.769,3.9-.222,8.423-.219,12.379-.22l19.219-.269c9.1-.155,10.362-3.626,10.093-12.08L64.89,50.508c-.158-5.042-.393-10.2-.439-15.237m-37.69-31.4c-4.987.757-3.92,5.1-3.939,8.874l0,12.868c.415.006.813.012,1.228,0,.927-3.5,1.646-3.869,3.668-6.332,2.516-1.429,4.362-2.409,7.438-2.108a11.629,11.629,0,0,1,9.454,7.861h.972c.063-.9,0-2.01,0-2.937l.007-12.008c.021-3.966-.321-5.515-4.431-6.62C40.8,5.8,36.524,5,34.578,5.031l-4.2.025c-1.709,0-2.6.364-3.621-1.185M29.9,25.357c.965-3.443,7.625-3.461,10.437-2.312a5.3,5.3,0,0,0,1.093.431C37.788,16.8,28.582,18.7,26.761,25.357a28.233,28.233,0,0,0,3.141,0" transform="translate(0 0)"/>
        <path id="Trazado_1311478" data-name="Trazado 1311478" d="M80.449,205.132a76.46,76.46,0,0,1,14.212,1.215c5.4.966,8.453,3.027,9.821,8.574,2.323,9.417,2.325,26.3.571,35.617-4.046,1.086-10.591,1.284-14.84,1.567a56.344,56.344,0,0,0-5.952.4c-4.968-.479-21.528.8-23.595-1.095-1.611-1.479-1.953-12.476-2.009-15.089-.138-6.511-.4-21.731,4.153-26.422,3.667-3.778,12.333-4.688,17.639-4.762M61.516,230.067a67.356,67.356,0,0,1,9.945-.59,9.622,9.622,0,0,1,9.578-9.458c-.008-.712-.039-1.556,0-2.257a19.6,19.6,0,0,0-3.445.225c-.272-.178-.805-.564-.81-.894-.042-2.52,5.334-2.182,6.788-2.172.855.079,1.919.267,2.65.349,1.249.142,2.05,1.422.826,1.984a22.886,22.886,0,0,1-3.857.507c-.007.758-.012,1.5,0,2.257,5.537.334,9.325,3.778,9.153,9.313a97.6,97.6,0,0,0,11.445.332c.657-3.6-.812-14.535-2.759-17.374-3.09-4.506-14.657-4.539-19.437-4.31-3.93.062-13.789.832-16.615,3.725-3.274,3.352-3.476,13.809-3.46,18.361m20.406-7.455c-4.207.513-6.852,2-7.544,6.721h6.686c1.017,0,2.2-.04,3.2,0,2.3,0,5.2.09,7.453,0-1.355-5.479-4.287-6.934-9.792-6.721m-19.86,27.133a35.9,35.9,0,0,0,3.85,0c.537-.007-.5-.849-.634-1.016-3.079-3.88-2.5-12.914,3.044-14.321,1.4-.356,7.934-.132,9.754-.192l14.036-.5c2.8-.12,7.773-1.222,9.639,1.219,1.354,1.771.255,6.82-.1,9.221-.457,3.043-.612,3.762-3.087,5.586,2.175-.009,4.181.143,6.253.156-1.365-4.376-.963-9.38-1.01-13.918a33.444,33.444,0,0,0-.014-4.964c-7.139.412-14.493.548-21.658.806-6.727.242-13.957.652-20.675.611.065,4.739-.279,12.928.607,17.309" transform="translate(-48.447 -169.594)"/>
        <path id="Trazado_1311479" data-name="Trazado 1311479" d="M88.929,384.49c.537-.007-.5-.849-.634-1.016-3.079-3.88-2.5-12.914,3.044-14.321,1.4-.356,7.935-.132,9.754-.192l14.036-.5c2.8-.12,7.772-1.222,9.639,1.219,1.354,1.771.255,6.82-.1,9.221-.457,3.043-.612,3.762-3.087,5.586a20.605,20.605,0,0,0-2.627,0l-27.445.009c-.654,0-1.993.061-2.575,0" transform="translate(-71.464 -304.339)" fill="#bdf783"/>
        <path id="Trazado_1311480" data-name="Trazado 1311480" d="M133.2,404.415c1.736,0,10.884-.141,11.8.821.33.347-.934.7-1.157.75a66.265,66.265,0,0,1-13.463,1.121c-2.14,0-4.3.036-6.436-.151-15.8-1.384,6.126-2.544,9.256-2.542" transform="translate(-97.784 -334.347)"/>
        <path id="Trazado_1311481" data-name="Trazado 1311481" d="M21.729,221.6a7.709,7.709,0,0,1-2.851-2.172c-2.734-3.192-1.968-6.775-1.957-10.628l.621-34.63c.069-4.621-.7-9.055,3.158-12.344,2.241-1.912,4.321-1.943,7.09-2.007l40.059-.836c4.077-.134,7.79.586,9.726,4.762a8.675,8.675,0,0,1,.778,2.953c-2.882-5.525-7.642-4.043-12.731-3.913l-27.309.507c-3.146.061-10.364-.361-13.107,1.1-5.085,2.709-3.6,8.369-3.87,13.033-.154,2.642-.065,5.16-.167,7.765l-.221,5.362c-.157,3.66-.046,7.3-.121,10.966l-.31,10.713c-.065,2.013-.175,4.023-.138,6.04.026,1.391.891,2.125,1.35,3.327" transform="translate(-13.901 -131.43)" fill="#bdf783"/>
        <path id="Trazado_1311482" data-name="Trazado 1311482" d="M172.6,132.077c.965-3.443,7.625-3.461,10.437-2.312a5.3,5.3,0,0,0,1.093.431,5.44,5.44,0,0,1,.817,1.757c-3.847-.28-8.423.13-12.347.124" transform="translate(-142.702 -106.721)" fill="#bdf783"/>
        <path id="Trazado_1311483" data-name="Trazado 1311483" d="M303.873,542.182H304l.066.09c-.337,1.263-1.534,2.017-.971,3.626.5,1.42,2.726,1.782,3.364.506.486-.974.83-2.585,1.256-3.7,1.545,1.15,1.731,2.72,1.216,4.447a4.344,4.344,0,0,1-6.88,1.661c-2.367-2.056-1.842-6.6,1.826-6.633" transform="translate(-248.532 -448.252)"/>
        <path id="Trazado_1311484" data-name="Trazado 1311484" d="M50.181,545.219l.14.009c.29.427-1.481,3.462.823,4.41,3.016,1.241,3.139-2.55,4.038-4.419a3.683,3.683,0,0,1,1.033,4.447c-2.638,5.8-11.085,1.2-7.984-3.411a3.091,3.091,0,0,1,1.951-1.036" transform="translate(-39.317 -450.764)"/>
      </g>
    </g>
  </g>
</svg>
