<svg xmlns="http://www.w3.org/2000/svg" xmlns:xlink="http://www.w3.org/1999/xlink" width="164.434" height="215" viewBox="0 0 164.434 215">
  <defs>
    <clipPath id="clip-path">
      <rect id="Rectángulo_457287" data-name="Rectángulo 457287" width="164.434" height="215" fill="none"/>
    </clipPath>
  </defs>
  <g id="Grupo_1207593" data-name="Grupo 1207593" transform="translate(-209.566 -3278)">
    <g id="Grupo_1207047" data-name="Grupo 1207047" transform="translate(209.566 3278)">
      <g id="Grupo_1207046" data-name="Grupo 1207046" clip-path="url(#clip-path)">
        <path id="Trazado_1311511" data-name="Trazado 1311511" d="M48.06,99.672c2.469-1.454,4.6-2.673,6.693-3.951A66.833,66.833,0,0,1,68.02,89.334c.647-.221,1.331-.34,2.015-.51,1.162,1.082,1.356,2.537,1.925,3.786,1.016,2.237,1.865,4.554,2.963,6.747a13.566,13.566,0,0,0,2.3,3.054,2.111,2.111,0,0,0,2.606.33,12.13,12.13,0,0,0,1.767-1.147q4.08-3.051,8.139-6.13a73.336,73.336,0,0,1,11.1-7.389c.818-.414,1.605-1.046,2.619-.472.817,1.088.326,2.258.131,3.378-.941,5.3-1.993,10.587-2.889,15.9q-1.758,10.392-3.311,20.816a9.49,9.49,0,0,1-2.859,5.773,105.269,105.269,0,0,0-7.176,8.183,13.776,13.776,0,0,0-1.969,3.3c-.758,1.754-.395,2.7,1.217,3.893.372.276.8.484,1.165.7.552,2.263.552,2.263,2.073,3.9-1.659,4-.638,3.893,1.589,5.6-.547,1.333-1.435,2.874-.233,4.181a20.847,20.847,0,0,0,3.6,2.523q.806,4.739,1.745,10.28a38.188,38.188,0,0,1-3.678,3.05A153.59,153.59,0,0,0,75.61,192.352c-.877.762-1.871,1.385-2.737,2.019a5.338,5.338,0,0,1-4.558-2.479c-1.638-2.42-3.187-4.9-4.734-7.384-.726-1.168-.461-2.517-.394-3.775.192-3.627.508-7.245.761-10.868.038-.554.006-1.114.006-1.981-.517.376-.923.514-.964.725-.29,1.491-.576,2.989-.733,4.5q-.418,4.019-.667,8.053a3.186,3.186,0,0,1-1.085,2.5c-2.821,2.077-5.258,4.7-8.54,6.129-.41.176-.851.282-1.364.452a11.915,11.915,0,0,1-1.036-4.854c-.336-9.832-1.074-19.653-.809-29.5.317-11.842-.56-23.661-.756-35.492-.1-6.092-.066-12.186-.077-18.278,0-.814.089-1.628.136-2.439m24.913,80.679c.973-.2,1.02-.842,1.084-1.388.538-4.656,1.17-9.3,1.536-13.972.758-9.7,1.334-19.4,2.057-29.1.583-7.829,1.29-15.649,1.893-23.479a26.742,26.742,0,0,0,.124-5.984c-1.208.278-1.129,1.206-1.2,1.973-.5,5.132-.958,10.268-1.429,15.4a80.144,80.144,0,0,0-.713,8.4c.125,8.465-1.1,16.828-1.727,25.234-.457,6.073-1.172,12.125-1.735,18.192a11.84,11.84,0,0,0,.113,4.722M69.039,92.3c-.14-.032-.283-.067-.425-.1a5.337,5.337,0,0,0-.654,1.453c-.546,4.411-1.244,8.818-1.494,13.247-.384,6.889-.551,13.794-.632,20.7q-.153,12.644-1.238,25.237a26.408,26.408,0,0,0-.049,3.848c.022.389.5.749.936,1.346.161-.718.266-1.05.3-1.391A215.132,215.132,0,0,0,67.2,134.577c.1-7.721.126-15.45.454-23.163.24-5.72.916-11.422,1.382-17.134.054-.655.007-1.319.007-1.98" transform="translate(9.581 17.467)" fill="#fff9e5" fill-rule="evenodd"/>
        <path id="Trazado_1311512" data-name="Trazado 1311512" d="M38.494,79.594a7.144,7.144,0,0,1,3.053,3.054c2.711,3.967,5.364,7.973,8.021,11.976,1.812,2.731,3.5,5.557,6.114,7.739a9.069,9.069,0,0,1,.122,1.368c-.514,8.554-.28,17.1.007,25.661.28,8.318.426,16.645.355,24.965s0,16.642.522,24.956c.26,4.193.359,8.4.546,12.964a14.533,14.533,0,0,1-1.533-1.616c-2.94-4.381-5.824-8.8-8.779-13.163a4.948,4.948,0,0,1-.775-2.633c-.122-1.987-.288-3.971-.462-5.953a2.318,2.318,0,0,0-.5-1.249,47.758,47.758,0,0,0-.506,9.635c-4.923,2.2-9.691,4.326-14.653,6.541-1.214-3.341-1.4-6.62-2.106-9.777s-1.006-6.4-2.119-9.772c-.655,2.021-.654,2.021-.2,4.84.244,1.5.481,3.008.725,4.51.263,1.621.536,3.237.788,4.857.226,1.446.43,2.9.738,5-3.794-3.219-7.077-6.006-10.575-8.975,0-3.788-.15-7.769.068-11.732.1-1.815,1.025-3.573.708-5.484a.407.407,0,0,1,.121-.322c2.363-1.86.66-3.869.078-5.71-.493-1.553-1.151-2.948-.814-4.688a5.856,5.856,0,0,0-1.009-4.019c-.592-1-1.224-1.979-1.979-3.191.652-.234,1.156-.392,1.64-.6a1.892,1.892,0,0,0,1.255-1.925,21.877,21.877,0,0,0-.4-4.53,84,84,0,0,0-4.387-13.333,36.012,36.012,0,0,1-2.035-6.7Q6.693,96.224,2.965,80.132c-.556-2.375-1.034-4.765-1.722-7.959a12.333,12.333,0,0,1,1.592,1.7c1.824,3.409,3.638,6.82,5.383,10.27a18.445,18.445,0,0,0,3.924,5.64c2.8-.787,5.482-2.19,8.283-3.276,2.731-1.056,5.407-2.245,8.119-3.347a80.688,80.688,0,0,1,8.713-3.327,12.425,12.425,0,0,1,.472,1.808c.485,5.606.931,11.214,1.406,16.819.568,6.656,1.177,13.309,1.725,19.968q.949,11.564,1.825,23.134c.324,4.208.571,8.421.912,12.627.12,1.506.4,3,.7,5.113.523-.845.9-1.172.9-1.5-.007-1.638-.078-3.278-.185-4.914-.562-8.773-1.044-17.551-1.747-26.313-.616-7.709-1.49-15.4-2.247-23.1-.606-6.181-1.2-12.365-1.817-18.546-.164-1.611-.422-3.218-.707-5.341m-12.513,79c0-.906.061-1.819-.01-2.721a182.183,182.183,0,0,0-3.41-22.184c-1.946-9.512-4.157-18.968-6.249-28.45-.606-2.743-1.154-5.5-1.809-8.227a6.23,6.23,0,0,0-1.8-3.719,11.047,11.047,0,0,0,.01,1.61c.472,2.531.936,5.062,1.474,7.579,2.1,9.842,4.233,19.671,6.328,29.513a74.7,74.7,0,0,0,1.511,7.561,42.041,42.041,0,0,1,1.855,10.331c.131,1.985.359,3.965.55,5.944a3,3,0,0,0,1.555,2.762" transform="translate(0.248 14.429)" fill="#fff9e5" fill-rule="evenodd"/>
        <path id="Trazado_1311513" data-name="Trazado 1311513" d="M93,48.345c-.353,2.18-.75,4.243-1.01,6.324a69.457,69.457,0,0,1-3.758,14.91,16.693,16.693,0,0,1-6.411,8.149,33.917,33.917,0,0,1-14.68,5.446,35.417,35.417,0,0,1-10.161.067c-6.015-.83-10.817-3.581-13.953-8.948a14.456,14.456,0,0,1-1.884-5.241,94.142,94.142,0,0,1-.274-22.429c.347-3.837,1.112-7.639,1.74-11.447a14.89,14.89,0,0,1,.7-2.2c4.478-1.717,8.8-3.372,13.558-5.193-.373.864-.6,1.354-.8,1.851A14.363,14.363,0,0,0,55.2,31.9a1.982,1.982,0,0,0,1.947,2.673,9.882,9.882,0,0,0,3.456-.336c2.1-.7,4.133-1.616,6.166-2.505.955-.416,1.845-.976,2.749-1.461.936.845.08,1.573.025,2.306-.122,1.664.917,2.777,2.525,2.469a10.451,10.451,0,0,0,2.618-.958c1.152-.57,2.237-1.274,3.366-1.893,1.111-.608,2.243-1.178,3.521-1.847a16.9,16.9,0,0,1,.736,1.8c1.151,4.23,3.307,7.989,5.444,11.758a10.379,10.379,0,0,0,.984,1.451c1.234,1.52,2.477,1.375,3.1-.419a27.936,27.936,0,0,0,1.316-4.729A7.164,7.164,0,0,1,94.9,36.864a2.352,2.352,0,0,1,2.789-.9,5.591,5.591,0,0,1,3.932,4.121,4.28,4.28,0,0,1-1.2,3.869A14.252,14.252,0,0,1,93,48.345m-32.11-5.613-.648-.216a6.718,6.718,0,0,0-.923,1.3,27.4,27.4,0,0,0-1.134,3.3,4.624,4.624,0,0,1-3.6,3.755c-2.447.629-3.115,2.639-2.063,4.95a4.585,4.585,0,0,0,.332.614,13.593,13.593,0,0,0,5.079,4.687,4.437,4.437,0,0,0,1.448.136c-1.387-3-5.046-4.2-5.344-7.838a8.315,8.315,0,0,1,1.921-.89,4.335,4.335,0,0,0,3.558-3.419c.5-1.671.984-3.351,1.416-5.041a4.81,4.81,0,0,0-.041-1.339M53.864,68.6c.42.656.565,1.168.886,1.325a7.607,7.607,0,0,0,2.282.763c6.853.948,12.56-1.5,17.522-6.038.265-.242.3-.74.635-1.664-1.114.475-1.733.677-2.292.991-1.421.8-2.789,1.692-4.22,2.471a17.854,17.854,0,0,1-12.785,2.168,11.04,11.04,0,0,0-2.028-.016M75.831,43.932C73.9,45.442,73.193,47.005,73.862,49a1.829,1.829,0,0,0,1.133,1.1,1.688,1.688,0,0,0,1.361-.721c1.025-1.745.935-3.477-.524-5.443m-26.29,2.352c-.089-.706-.042-.994-.162-1.158a3.645,3.645,0,0,0-1.094-1.2c-.55-.271-1.349.334-1.627,1.01a3.977,3.977,0,0,0,.277,3.381c.284.589,1.513.695,1.8.113a18.654,18.654,0,0,0,.808-2.15M47.11,35.54a47.168,47.168,0,0,0,5.226,1.6,3.845,3.845,0,0,0-3.54-2.324c-.342-.04-.725.3-1.686.722m31.785.289a2.467,2.467,0,0,0-2.76.24c-.407.252-.632.649,0,1.193.653-.205,1.4-.415,2.123-.682.173-.064.276-.314.638-.751" transform="translate(8.064 5.553)" fill="#ffe3d0" fill-rule="evenodd"/>
        <path id="Trazado_1311514" data-name="Trazado 1311514" d="M127.059,96.732a20.33,20.33,0,0,1-.022,2.535c-.122,1.022-.089,2.346-.7,2.965-1.243,1.25.322,1.5.472,2.216a29.722,29.722,0,0,1,.532,3.109,25.351,25.351,0,0,1,.019,2.615,5.222,5.222,0,0,1,1.843.584c2.175,1.784,4.364,1.26,6.584.218a14.948,14.948,0,0,0,4.9-3.927,30.064,30.064,0,0,1,2.337-2.175,7.255,7.255,0,0,1,.032-2.179,24.469,24.469,0,0,0,.624-9.069c-.085-1.146-.515-2.355.82-2.951-1.024-1.526-1.776-2.841-2.723-4A39.137,39.137,0,0,0,138.8,83.7c.03-.376.058-.826.089-1.262-.311-.06-.636-.2-.7-.124a4.518,4.518,0,0,1-3.74,1.5c-1.831.056-3.638.805-5.371.086a8.74,8.74,0,0,1-1.584,1.891,16.623,16.623,0,0,0-6.654,7.97c-.5,1.267-1.649,1.482-2.816,2.636.607.294,1.112.541,1.578.768-.242,2.329-.472,4.509-.714,6.817.425.96.995,2.1,1.438,3.276a18.321,18.321,0,0,0,4.377,6.721,7.975,7.975,0,0,0,6.614,2.657c.541-.055,1.091-.008,2.118-.008a9.212,9.212,0,0,1-8.534.437,4.761,4.761,0,0,1-3.061-3.083c-.955-2.763-2.2-5.426-3.361-8.115-.419-.966-1.006-1.859-1.4-2.832-2.21-5.4-6.662-8.224-11.758-10.353-1.785-.748-3.919-.708-5.272-2.543-.325-.44-1.539-.294-2.347-.292-.684,0-1.416.392-2.049.256-3.765-.826-7.618-1.124-11.336-2.293-5.205-1.637-7.409-5.41-8.06-10.419a32.579,32.579,0,0,1-.028-4.3,57.466,57.466,0,0,0,4.641-5.182,56.105,56.105,0,0,0,3.259-6.049,9.827,9.827,0,0,1,4,.032c3.235.514,6.489.988,9.673,1.741q11.8,2.793,23.528,5.842a46.609,46.609,0,0,1,15.756,7.575,24.133,24.133,0,0,1,8.267,28.835,18.72,18.72,0,0,1-6.832,7.825,2.212,2.212,0,0,1-.931.476c-2.553.259-5.109.6-7.669.648a5.46,5.46,0,0,1-3.419-1.658c-7.576-6.385-7.054-19.524,1.048-25.21a13.665,13.665,0,0,1,9-2.369,4.252,4.252,0,0,1,4.011,2.9,16.749,16.749,0,0,1,.592,2.017,26.239,26.239,0,0,1,.526,8.393,12.009,12.009,0,0,1-5.776,9.568,8.7,8.7,0,0,1-3.247,1.216c-2.153.325-3.552-.991-3.62-3.207a44.782,44.782,0,0,1-.041-5.617c.312-3.272,1.592-6.073,4.524-7.846,3.174,2.036,3.264,3.635.618,9.459.166.83.881.539,1.392.664.528.128,1.063.239,1.663.373-.259-2.5-.259-2.5,1.513-3.943-.394-1.764-.77-3.578-1.216-5.374a3.967,3.967,0,0,0-.71-1.531c-1.835-2.216-3.488-2.346-5.676-.406a27.683,27.683,0,0,0-2.087,2.363c-.526.592-1.075,1.166-1.947,2.108" transform="translate(15.226 12.327)" fill="#afced0" fill-rule="evenodd"/>
        <path id="Trazado_1311515" data-name="Trazado 1311515" d="M88.652,161.219c1.114-.161,2.023-.281,2.929-.421,2.307-.356,4.647-.58,6.909-1.122a10.176,10.176,0,0,0,6.165-3.774,8.676,8.676,0,0,1,.977-.968c2.64,2.027,4.145,5.2,7.352,6.355.666-.956.059-1.444-.4-1.928-1.688-1.787-3.375-3.577-5.106-5.32a5.184,5.184,0,0,1-1.531-3.747c-.124-3.621-.391-7.237-2.231-10.536a3.9,3.9,0,0,1-.164-2.366,6.239,6.239,0,0,0-1.919-5.74,19.472,19.472,0,0,1-1.68-2.183c-.049-.066.014-.217.049-.6,1.458-.613,3.092-1.18,4.606-1.973a32.01,32.01,0,0,0,4.441-2.813,34.374,34.374,0,0,0,3.912-3.517,52.593,52.593,0,0,0,3.4-4.019c1.067-1.344,2.063-2.747,3.3-4.41,1.121,2.364,1.261,4.57,1.667,6.678a196.236,196.236,0,0,1,3.673,39.451,56.844,56.844,0,0,1-1.473,13.239,29.433,29.433,0,0,1-12.245,17.411,9.167,9.167,0,0,1-8.386,1.1,13.011,13.011,0,0,1-7.859-6.619c-3.379-6.546-5.329-13.494-6.39-22.18" transform="translate(17.723 22.418)" fill="#ffe3d0" fill-rule="evenodd"/>
        <path id="Trazado_1311516" data-name="Trazado 1311516" d="M54.765,11.644c0-.085-.043-.224.008-.3A25.939,25.939,0,0,1,65.96,2.063a8.726,8.726,0,0,1,5.527-.444A29.752,29.752,0,0,1,75.54,2.746c5.019,1.947,10.036,3.9,15,6a26.122,26.122,0,0,1,5.175,2.925,12.6,12.6,0,0,1,5.511,10.47,54.93,54.93,0,0,1-2.156,15.247,11.333,11.333,0,0,1-.828,1.927,4.779,4.779,0,0,1-.516.728l-5.63-.97c-2.4-3.755-5.907-6.8-9.691-9.581-2.928-2.149-5.841-4.316-8.767-6.468A95.187,95.187,0,0,0,56.45,12.814a17.074,17.074,0,0,1-1.525-.833c-.083-.049-.1-.205-.16-.337" transform="translate(10.945 0.273)" fill="#e87e61" fill-rule="evenodd"/>
        <path id="Trazado_1311517" data-name="Trazado 1311517" d="M99.45,131.75c-.684-.848-1.15-1.522-1.711-2.1-1.436-1.482-2.964-2.631-5.269-1.848-.92.311-1.571-.419-1.429-1.4.977-6.722,1.922-13.449,2.982-20.157.767-4.861,1.682-9.7,2.559-14.539a9.777,9.777,0,0,1,1.081-3.721,15.51,15.51,0,0,1,6.931,2.389,48.905,48.905,0,0,1,5.389,3.935,6.355,6.355,0,0,1,1.471,1.935,87.444,87.444,0,0,1,6.252,14.5,5.837,5.837,0,0,1-.359,5.059c-4.233,7.093-9.56,13.011-17.9,15.946" transform="translate(18.197 17.589)" fill="#5ea9b6" fill-rule="evenodd"/>
        <path id="Trazado_1311518" data-name="Trazado 1311518" d="M132.038,107.619c.106,1.093.244,1.881.251,2.671a237.262,237.262,0,0,1-2.948,40.942c-1.382,8.317-2.9,16.6-5.047,24.758-.385,1.466-.943,2.889-1.367,4.347a6.506,6.506,0,0,1-4.872,4.582,13.178,13.178,0,0,1-1.7.419,13.217,13.217,0,0,1-1.7.014,15.242,15.242,0,0,1,.853-1.965,41.079,41.079,0,0,0,4.327-8.018,18.935,18.935,0,0,0,.708-3.038c.3-1.733.57-3.467.769-5.211a112.962,112.962,0,0,0,.356-16.836,213.019,213.019,0,0,0-5.385-38.906c-.1-.438-.167-.884-.236-1.26.626-.71,1.172-.221,1.667-.052a11.7,11.7,0,0,0,7.591-.142c2.111-.691,4.2-1.439,6.73-2.306" transform="translate(22.922 21.515)" fill="#9dab93" fill-rule="evenodd"/>
        <path id="Trazado_1311519" data-name="Trazado 1311519" d="M42.961,59.937c.493,3.253.779,6.631,2.682,9.616A24.726,24.726,0,0,0,52.325,76.5c-.35,3.985-1.456,5.587-4.939,6.387a76.621,76.621,0,0,1-7.742,1C38.9,83.059,38.2,82.3,37.52,81.519a3.015,3.015,0,0,0-3.139-1.1,32.205,32.205,0,0,0-4.021,1.217c-3.266,1.267-6.5,2.617-9.757,3.939A3.716,3.716,0,0,1,19.009,82.2a29.518,29.518,0,0,1,1.857-12.75A11.239,11.239,0,0,1,25.4,64.221a43.655,43.655,0,0,1,10.4-5.031c2.411-.766,4.8-.983,7.16.748" transform="translate(3.789 11.718)" fill="#afced0" fill-rule="evenodd"/>
        <path id="Trazado_1311520" data-name="Trazado 1311520" d="M95.31,122.29a4.3,4.3,0,0,1,3.881,4.127,5.537,5.537,0,0,0,1.923,3.955c1.721,1.506,2.579,3.245,1.907,5.623a2.87,2.87,0,0,0,.4,2.309c2.5,2.875,2.3,6.254,2.077,9.668-.029.466-.172.931-.155,1.391a5.266,5.266,0,0,1-3.369,5.274c-4.329,2.051-8.793,3.254-13.607,1.914a3.207,3.207,0,0,1-2.4-1.529,3.136,3.136,0,0,1,3.054-2.7,27.26,27.26,0,0,0,8.456-2.226,30.392,30.392,0,0,0,3.111-1.752,13.484,13.484,0,0,0-1.992.012c-2.172.479-4.317,1.114-6.511,1.459a34.977,34.977,0,0,1-5.574.331,6.98,6.98,0,0,1-2.121-.854c.491-.7.758-1.409,1.267-1.721a17.686,17.686,0,0,1,3.179-1.436,33.871,33.871,0,0,0,9.173-5.347,6,6,0,0,0-3.437.764c-1.938.829-3.879,1.652-5.81,2.495a7.829,7.829,0,0,1-4.142.466,1.418,1.418,0,0,1-.98-2.347,11.949,11.949,0,0,1,1.784-1.681c3.17-2.412,6.372-4.78,9.542-7.191.616-.468,1.49-.794,1.373-1.839-.871-.618-1.593-.072-2.228.39-3.122,2.28-6.211,4.6-9.3,6.921a16.024,16.024,0,0,1-1.655,1.294,1.6,1.6,0,0,1-1.952-.208,1.237,1.237,0,0,1-.095-1.61,10.122,10.122,0,0,1,1.121-1.779c2.059-2.555,4.091-5.133,6.256-7.593.982-1.114,2.319-1.9,3.372-2.961.979-.986,1.788-2.141,2.7-3.2.138-.163.4-.221.762-.412" transform="translate(16.164 24.448)" fill="#ffe3d0" fill-rule="evenodd"/>
        <path id="Trazado_1311521" data-name="Trazado 1311521" d="M45.148,81.637a25.854,25.854,0,0,0,2.567-3.047,25.33,25.33,0,0,0,1.53-3.647,35.056,35.056,0,0,0,15.931,1.778,49.3,49.3,0,0,0,15.186-4.576,20.586,20.586,0,0,0,2.2,9.789A11.616,11.616,0,0,1,76.9,87.024a35.463,35.463,0,0,1-15.336,3.1A25,25,0,0,1,49.1,85.9a11.677,11.677,0,0,1-3.949-4.261" transform="translate(9.026 14.423)" fill="#ffe3d0" fill-rule="evenodd"/>
        <path id="Trazado_1311522" data-name="Trazado 1311522" d="M83.837,29.623C79.821,31.1,76.9,33.561,73.524,34.888a1.278,1.278,0,0,1-.245-1.773c.726-1.572,1.475-3.133,2.353-4.986-.838-.055-1.467-.3-1.869-.09-1.25.629-2.379,1.5-3.619,2.145-2.487,1.294-4.984,2.576-7.547,3.7a4.682,4.682,0,0,1-4.059.269c-.1-1.479.821-2.463,1.488-3.531.619-.99,1.388-1.889,1.986-2.892a1.438,1.438,0,0,0,.046-1.272,1.3,1.3,0,0,0-1.192-.286c-.995.325-1.938.815-2.906,1.223-2.907,1.231-5.778,2.574-8.745,3.642a56.189,56.189,0,0,1-7.7,2.166,9.94,9.94,0,0,1-7.923-1.294,7.952,7.952,0,0,1,1.075-2.205,28.436,28.436,0,0,1,4.7-4.178c3.06-1.922,6.291-3.595,9.529-5.214a10.888,10.888,0,0,1,8.806-.3c4.525,1.58,9.157,2.858,13.686,4.424,3.422,1.182,6.763,2.605,10.126,3.949.637.254,1.219.641,2.324,1.234" transform="translate(6.715 3.845)" fill="#ed9510" fill-rule="evenodd"/>
        <path id="Trazado_1311523" data-name="Trazado 1311523" d="M37.4,7.4a6.952,6.952,0,0,1,4.161-.046,114.106,114.106,0,0,1,14.045,4.376c8.884,3.3,16.645,8.456,24.11,14.146,2.007,1.53,4.033,3.035,6.158,4.63-1.049.524-1.623-.094-2.189-.362A122.142,122.142,0,0,0,64.929,23.28C59.2,21.62,53.515,19.833,48.245,16.937a38.427,38.427,0,0,1-8.864-6.242C38.5,9.814,37.472,8.965,37.4,7.4" transform="translate(7.477 1.411)" fill="#e27a56" fill-rule="evenodd"/>
        <path id="Trazado_1311524" data-name="Trazado 1311524" d="M74.67,101.845c-2.306-2.091-4.232-6.068-6.327-13.1,1.6-1.423,3.953-1.3,5.637-2.537s3.273-2.6,5.046-4.016a1.69,1.69,0,0,1,.752.234c3.162,2.719,6.95,3.713,10.98,4.007,1.38.1,2.784-.006,3.947.938a1.361,1.361,0,0,1-.091.354.683.683,0,0,1-.241.241C87.581,91.91,81.828,97.3,75.329,101.645a2.368,2.368,0,0,1-.659.2" transform="translate(13.663 16.432)" fill="#5ea9b6" fill-rule="evenodd"/>
        <path id="Trazado_1311525" data-name="Trazado 1311525" d="M49.938,98.739A6.3,6.3,0,0,1,46.969,96.2c-2.517-3.254-8.6-12.78-9.454-14.856,1.178-.109,2.3-.19,3.413-.329,1.152-.14,2.3-.338,3.429-.51,1.733,1.773,3.229,3.779,5.169,5.162a28.206,28.206,0,0,0,6.85,3.413,57.27,57.27,0,0,0,7.047,1.613c-.025.085-.023.4-.161.484q-6.661,3.81-13.325,7.565" transform="translate(7.5 16.094)" fill="#5ea9b6" fill-rule="evenodd"/>
        <path id="Trazado_1311526" data-name="Trazado 1311526" d="M14.571,129.357a2.574,2.574,0,0,1-3.2-.962,22.511,22.511,0,0,1-5.419-16.206,5.192,5.192,0,0,1,1.093-2.516c.346-.466,1.128-.607,1.8-.932.8,2.568,1.469,4.911,2.253,7.215.793,2.322,1.739,4.591,2.55,6.907a14.456,14.456,0,0,1,.925,6.5" transform="translate(1.179 21.739)" fill="#ffe3d0" fill-rule="evenodd"/>
        <path id="Trazado_1311527" data-name="Trazado 1311527" d="M76.241,28.3c4.63,1.885,6.334,3.03,9.284,6.182-.76,2.885-1.557,5.907-2.442,9.255-.539-.485-1.02-.749-1.241-1.154-.662-1.223-1.178-2.525-1.83-3.755A36.193,36.193,0,0,1,76.241,28.3" transform="translate(15.242 5.657)" fill="#ed9510" fill-rule="evenodd"/>
        <path id="Trazado_1311528" data-name="Trazado 1311528" d="M6.183,122.017c.422.218.7.27.811.434q3.195,4.818,6.345,9.659c.874,1.349,1.791,2.707,1.519,4.6a5.066,5.066,0,0,1-1.447-.022,8.17,8.17,0,0,1-4.14-3.108,21.038,21.038,0,0,1-3.667-9.745c-.065-.565.365-1.188.578-1.823" transform="translate(1.119 24.393)" fill="#ffe3d0" fill-rule="evenodd"/>
        <path id="Trazado_1311529" data-name="Trazado 1311529" d="M16.405,142.973c-5.088-2.33-8.3-5.2-9.37-10.109.9-.41,1.086.332,1.478.6a28.91,28.91,0,0,0,3.423,2.381c2.7,1.327,3.614,3.669,4.468,7.124" transform="translate(1.406 26.538)" fill="#ffe3d0" fill-rule="evenodd"/>
        <path id="Trazado_1311530" data-name="Trazado 1311530" d="M8.614,139.1c1.887,1.3,3.278,2.141,4.542,3.146,1.3,1.034,2.281,2.3,1.713,4.241-1.643.078-2.513-.935-3.354-1.839a9.951,9.951,0,0,1-2.9-5.547" transform="translate(1.722 27.808)" fill="#ffe3d0" fill-rule="evenodd"/>
        <path id="Trazado_1311531" data-name="Trazado 1311531" d="M152.752,87.3a44.624,44.624,0,0,0-14.844-7.07c-8.515-2.15-17.054-4.215-25.6-6.276a46.691,46.691,0,0,0-10.782-1.441,9.754,9.754,0,0,1-1.485-.252q1.478-8.193,2.917-16.162c1.094-.653,2.161-1.171,3.092-1.866a28.007,28.007,0,0,0,3.743-3.165,6.09,6.09,0,0,0,1.157-7.443c-.265-.521-.558-1.026-.774-1.42a37.944,37.944,0,0,0,1.877-4.65,57.893,57.893,0,0,0,2.064-14.583,14.753,14.753,0,0,0-6.478-12.611,29.7,29.7,0,0,0-5.834-3.2C97.055,5.171,92.23,3.348,87.422,1.492A26.187,26.187,0,0,0,84.07.448a12.5,12.5,0,0,0-9.531,1.138A28.614,28.614,0,0,0,69.92,4.769C67.662,6.778,65.591,9,63.281,11.287c-.324-.1-.871-.257-1.418-.424-3.583-1.1-7.132-2.327-10.76-3.257a21.782,21.782,0,0,0-5.9-.613c-2.107.05-2.837,1.611-1.693,3.444a12.117,12.117,0,0,0,2.7,3.2c2.4,1.857,4.932,3.569,7.5,5.2a10.943,10.943,0,0,1,3.516,2.893c-.906.353-1.782.672-2.641,1.033a44.844,44.844,0,0,0-11,6.178A24.556,24.556,0,0,0,39.2,33.447c-1.345,1.842-.683,3.564,1.355,4.627a11.217,11.217,0,0,0,5.139.936c1.142.024,2.285,0,3.385,0a2.1,2.1,0,0,1,.1.539c-.166.916-.344,1.829-.52,2.744A111.612,111.612,0,0,0,46.5,65.366c.02,1.23.341,2.532-.352,3.876a11.4,11.4,0,0,0-7.637.116,50.185,50.185,0,0,0-10.1,4.909A14.431,14.431,0,0,0,21.9,83.512a21.73,21.73,0,0,0-.506,2.407c-.4,3.492-.928,6.986,0,10.481.169.64.248,1.3.38,2.017l-8.453,3.465c-1.727-.785-2.247-2.271-2.973-3.6C8.369,94.693,6.433,91.079,4.4,87.521a19.547,19.547,0,0,0-2.34-3.063C1.59,83.927.943,83.574,0,84.42a32.46,32.46,0,0,0,.344,3.595c.92,4.6,1.9,9.179,2.9,13.761.846,3.895,1.459,7.868,2.676,11.643a50.332,50.332,0,0,1,2.745,15.537c-2.888,2.136-3.477,5.151-3.131,8.458.143,1.393.524,2.759.713,4.147a3.744,3.744,0,0,1-.068,2.025c-1.432,2.856-.872,5.707-.186,8.578.326,1.364,1.034,2.753.934,4.081-.275,3.611.961,6.952,1.572,10.385a12.649,12.649,0,0,0,6.164,9.005c.4.234.764.53,1.216.846,0,3.041.008,6.079,0,9.119,0,.935-.095,1.873-.1,2.809A3.02,3.02,0,0,0,17,190.816c3.5,2.949,6.944,5.948,10.425,8.912,1.436,1.221,1.778,1.194,3.438.359,3.764-1.9,7.535-3.785,11.334-5.612,1.238-.6,2.575-.99,3.99-1.52.853,1.346,1.593,2.526,2.347,3.7q3.519,5.473,7.042,10.941a7.2,7.2,0,0,0,3.541,3.018c1.97-1.262,4.372-1.844,6.318-3.445a54.809,54.809,0,0,1,5.974-4.635c.77,1.331,1.451,2.411,2.036,3.539a30.147,30.147,0,0,0,5.046,6.735c1.769,1.873,2.677,2.015,4.894.612a27.2,27.2,0,0,0,3.656-2.733,171.224,171.224,0,0,1,18.186-13.824,10.853,10.853,0,0,1,1.373-.664c.4,1.159.679,2.153,1.078,3.1,1.052,2.48,2.053,4.986,3.264,7.385a15.422,15.422,0,0,0,5.656,6.136,12.235,12.235,0,0,0,14.459-.36c1.049-.749,2-1.627,2.987-2.457.616-.52,1.213-1.058,1.826-1.595.674.1,1.247.211,1.826.259a9.722,9.722,0,0,0,10.268-6.234,44.309,44.309,0,0,0,1.927-6.015A259.569,259.569,0,0,0,156.44,156.2a193.628,193.628,0,0,0,.205-29.306,11.331,11.331,0,0,1,1.3-1.455c3.777-3.078,5.53-7.258,6.164-11.891,1.512-10.994-2.281-19.814-11.358-26.239M65.717,11.619A25.939,25.939,0,0,1,76.905,2.336a8.714,8.714,0,0,1,5.526-.443,29.546,29.546,0,0,1,4.055,1.126c5.019,1.946,10.035,3.9,15,6a26.118,26.118,0,0,1,5.174,2.927,12.6,12.6,0,0,1,5.511,10.47,54.936,54.936,0,0,1-2.156,15.247,11.316,11.316,0,0,1-.827,1.926,4.711,4.711,0,0,1-.517.73l-5.629-.968c-2.4-3.757-5.908-6.806-9.691-9.583-2.929-2.149-5.841-4.316-8.768-6.468A95.141,95.141,0,0,0,67.395,13.086a16.634,16.634,0,0,1-1.526-.833c-.082-.049-.1-.2-.16-.336,0-.084-.043-.224.008-.3m35.05,28.516c-.761,2.883-1.559,5.906-2.442,9.255-.539-.486-1.02-.75-1.241-1.154-.662-1.223-1.178-2.526-1.83-3.755a36.178,36.178,0,0,1-3.771-10.529c4.63,1.886,6.334,3.03,9.284,6.183M55.722,18.348a38.394,38.394,0,0,1-8.863-6.242c-.884-.881-1.91-1.73-1.983-3.293a6.952,6.952,0,0,1,4.161-.046,114.106,114.106,0,0,1,14.045,4.376c8.884,3.3,16.645,8.456,24.11,14.147,2.007,1.529,4.033,3.033,6.158,4.629-1.048.524-1.623-.094-2.189-.362a122.174,122.174,0,0,0-18.755-6.867c-5.734-1.659-11.415-3.446-16.685-6.343m-7.5,18.7A9.937,9.937,0,0,1,40.3,35.759a7.952,7.952,0,0,1,1.074-2.205,28.34,28.34,0,0,1,4.7-4.178c3.06-1.922,6.29-3.595,9.527-5.214a10.888,10.888,0,0,1,8.806-.3c4.526,1.58,9.157,2.858,13.687,4.424,3.421,1.182,6.762,2.605,10.126,3.949.636.254,1.219.641,2.324,1.234-4.016,1.482-6.936,3.938-10.313,5.265a1.278,1.278,0,0,1-.245-1.773c.725-1.572,1.473-3.133,2.353-4.986-.839-.055-1.467-.3-1.871-.09-1.25.629-2.378,1.5-3.619,2.145-2.487,1.294-4.984,2.576-7.547,3.7A4.679,4.679,0,0,1,65.252,38c-.1-1.479.82-2.463,1.488-3.531.618-.99,1.388-1.889,1.985-2.892a1.438,1.438,0,0,0,.046-1.272,1.305,1.305,0,0,0-1.19-.287c-.995.326-1.938.816-2.907,1.224-2.907,1.231-5.776,2.574-8.744,3.642a56.205,56.205,0,0,1-7.7,2.166m.708,15.124c.347-3.837,1.114-7.639,1.74-11.447a15.178,15.178,0,0,1,.7-2.2l13.559-5.193c-.374.864-.6,1.354-.8,1.851a14.362,14.362,0,0,0-.875,2.271,1.982,1.982,0,0,0,1.947,2.673,9.879,9.879,0,0,0,3.456-.336c2.1-.7,4.134-1.616,6.166-2.5.955-.418,1.845-.977,2.749-1.463.936.845.08,1.573.026,2.306-.124,1.664.916,2.777,2.523,2.469a10.477,10.477,0,0,0,2.619-.958c1.152-.57,2.235-1.274,3.365-1.893,1.111-.608,2.243-1.178,3.521-1.847a16.742,16.742,0,0,1,.736,1.8c1.151,4.23,3.307,7.989,5.444,11.758a10.576,10.576,0,0,0,.985,1.452c1.234,1.519,2.475,1.374,3.1-.419a28.088,28.088,0,0,0,1.315-4.73,7.164,7.164,0,0,1,1.753-3.342,2.355,2.355,0,0,1,2.79-.9,5.6,5.6,0,0,1,3.932,4.121,4.286,4.286,0,0,1-1.2,3.87,14.254,14.254,0,0,1-7.418,4.389c-.353,2.18-.75,4.243-1.009,6.324A69.527,69.527,0,0,1,96.3,75.132a16.714,16.714,0,0,1-6.411,8.15A33.921,33.921,0,0,1,75.2,88.727a35.417,35.417,0,0,1-10.161.067c-6.016-.83-10.818-3.581-13.953-8.948a14.414,14.414,0,0,1-1.884-5.24,94.215,94.215,0,0,1-.275-22.43m36.991,49.271a35.463,35.463,0,0,1-15.336,3.1,25,25,0,0,1-12.465-4.226,11.687,11.687,0,0,1-3.949-4.261,25.854,25.854,0,0,0,2.567-3.047,25.33,25.33,0,0,0,1.53-3.647A35.06,35.06,0,0,0,74.2,91.146a49.3,49.3,0,0,0,15.185-4.576,20.586,20.586,0,0,0,2.2,9.789,11.616,11.616,0,0,1-5.666,5.089m6.765-2.823a1.69,1.69,0,0,1,.752.234c3.162,2.72,6.95,3.713,10.98,4.007,1.38.1,2.783-.006,3.947.938a1.361,1.361,0,0,1-.091.354.683.683,0,0,1-.241.241c-6.792,3.944-12.545,9.331-19.044,13.679a2.368,2.368,0,0,1-.659.2c-2.306-2.091-4.232-6.068-6.327-13.1,1.6-1.423,3.951-1.3,5.637-2.538s3.273-2.6,5.046-4.016m-21.765,8.161c-.025.085-.023.4-.161.482q-6.661,3.81-13.325,7.567a6.305,6.305,0,0,1-2.969-2.543c-2.517-3.253-8.6-12.779-9.454-14.856,1.178-.109,2.3-.188,3.413-.328,1.152-.142,2.3-.338,3.429-.51,1.733,1.773,3.229,3.777,5.169,5.161a28.209,28.209,0,0,0,6.85,3.414,57.49,57.49,0,0,0,7.047,1.613M24.656,81.165a11.233,11.233,0,0,1,4.536-5.226,43.654,43.654,0,0,1,10.4-5.031c2.411-.766,4.8-.983,7.16.748.493,3.253.779,6.631,2.682,9.616a24.739,24.739,0,0,0,6.681,6.943c-.35,3.985-1.454,5.587-4.938,6.387a76.621,76.621,0,0,1-7.742,1c-.743-.824-1.448-1.583-2.124-2.365a3.017,3.017,0,0,0-3.14-1.1,32.188,32.188,0,0,0-4.02,1.217c-3.266,1.267-6.5,2.617-9.757,3.939A3.716,3.716,0,0,1,22.8,93.915a29.5,29.5,0,0,1,1.857-12.75M7.134,133.928a5.2,5.2,0,0,1,1.093-2.516c.344-.466,1.128-.606,1.794-.932.8,2.568,1.47,4.911,2.255,7.215.792,2.322,1.737,4.591,2.549,6.908a14.449,14.449,0,0,1,.926,6.494,2.574,2.574,0,0,1-3.2-.962,22.511,22.511,0,0,1-5.419-16.206m-.41,14.305c-.064-.566.366-1.189.58-1.824.421.22.7.271.81.436q3.2,4.816,6.346,9.658c.874,1.35,1.791,2.707,1.519,4.6a5.114,5.114,0,0,1-1.447-.02,8.167,8.167,0,0,1-4.14-3.108,21.053,21.053,0,0,1-3.668-9.745m9.868,26.057c-1.643.079-2.513-.934-3.354-1.839a9.943,9.943,0,0,1-2.9-5.547c1.887,1.3,3.278,2.141,4.542,3.146,1.3,1.034,2.281,2.3,1.713,4.241M8.441,159.4c.9-.41,1.085.332,1.477.6a28.641,28.641,0,0,0,3.425,2.381c2.7,1.328,3.614,3.669,4.467,7.124-5.088-2.33-8.3-5.2-9.369-10.109m47.508,45.69c-2.94-4.381-5.824-8.8-8.779-13.162A4.955,4.955,0,0,1,46.4,189.3c-.122-1.987-.288-3.971-.462-5.953a2.318,2.318,0,0,0-.5-1.249,47.766,47.766,0,0,0-.506,9.637c-4.923,2.2-9.691,4.325-14.653,6.54-1.214-3.341-1.4-6.62-2.106-9.777s-1.006-6.4-2.119-9.772c-.655,2.021-.654,2.021-.2,4.84.244,1.5.481,3.008.725,4.51.263,1.621.536,3.237.788,4.858.226,1.445.43,2.894.739,5-3.8-3.221-7.078-6.007-10.576-8.977,0-3.788-.15-7.769.068-11.732.1-1.814,1.025-3.573.709-5.484a.4.4,0,0,1,.12-.322c2.363-1.859.66-3.869.078-5.71-.493-1.553-1.151-2.947-.814-4.688A5.856,5.856,0,0,0,16.685,157c-.592-1-1.224-1.979-1.979-3.191.653-.234,1.156-.392,1.64-.6a1.892,1.892,0,0,0,1.255-1.925,21.858,21.858,0,0,0-.4-4.528,83.968,83.968,0,0,0-4.387-13.335,36.012,36.012,0,0,1-2.035-6.7Q6.942,110.653,3.213,94.562C2.658,92.187,2.179,89.8,1.491,86.6a12.333,12.333,0,0,1,1.592,1.7c1.824,3.409,3.638,6.82,5.383,10.27a18.43,18.43,0,0,0,3.924,5.64c2.8-.787,5.482-2.19,8.283-3.276,2.731-1.056,5.407-2.245,8.119-3.347A80.688,80.688,0,0,1,37.5,94.262a12.465,12.465,0,0,1,.472,1.808c.485,5.606.931,11.216,1.406,16.819.568,6.656,1.177,13.309,1.725,19.969q.949,11.562,1.825,23.133c.324,4.208.572,8.421.912,12.627.12,1.506.4,3,.7,5.113.523-.845.9-1.172.9-1.5-.007-1.638-.078-3.277-.185-4.914-.562-8.773-1.044-17.551-1.747-26.313-.616-7.709-1.49-15.4-2.247-23.1-.606-6.181-1.2-12.365-1.817-18.546-.164-1.611-.422-3.218-.707-5.341A7.144,7.144,0,0,1,41.8,97.077c2.711,3.967,5.364,7.973,8.021,11.976,1.812,2.732,3.5,5.557,6.114,7.739a9.069,9.069,0,0,1,.122,1.368c-.514,8.554-.28,17.1.007,25.661.28,8.318.426,16.645.355,24.965s0,16.642.522,24.956c.26,4.193.359,8.4.546,12.964a14.533,14.533,0,0,1-1.533-1.616m46.5-8.543a153.5,153.5,0,0,0-17.258,13.271c-.877.761-1.871,1.385-2.736,2.019a5.333,5.333,0,0,1-4.558-2.48c-1.639-2.419-3.188-4.9-4.735-7.383-.726-1.169-.46-2.517-.394-3.775.192-3.627.508-7.246.761-10.869.038-.553.006-1.112.006-1.98-.517.376-.923.512-.964.725-.29,1.491-.576,2.989-.733,4.5q-.418,4.019-.667,8.053a3.184,3.184,0,0,1-1.085,2.5c-2.821,2.077-5.258,4.7-8.539,6.129-.412.176-.852.282-1.366.452a11.9,11.9,0,0,1-1.034-4.854c-.337-9.832-1.075-19.653-.81-29.5.317-11.842-.56-23.661-.756-35.492-.1-6.092-.066-12.186-.076-18.278,0-.815.088-1.628.134-2.441,2.469-1.453,4.6-2.672,6.693-3.951A66.873,66.873,0,0,1,77.6,106.8c.647-.221,1.33-.341,2.013-.511,1.162,1.084,1.356,2.538,1.925,3.787,1.016,2.237,1.866,4.554,2.964,6.747a13.526,13.526,0,0,0,2.3,3.054,2.111,2.111,0,0,0,2.606.33,12.13,12.13,0,0,0,1.767-1.147q4.082-3.051,8.139-6.13a73.336,73.336,0,0,1,11.1-7.389c.818-.414,1.605-1.046,2.619-.472.817,1.088.326,2.258.131,3.378-.941,5.3-1.993,10.587-2.889,15.9q-1.758,10.392-3.311,20.816a9.484,9.484,0,0,1-2.859,5.772,105.762,105.762,0,0,0-7.176,8.185,13.776,13.776,0,0,0-1.969,3.3c-.758,1.754-.395,2.7,1.217,3.891a13.188,13.188,0,0,0,1.166.706c.551,2.263.551,2.263,2.072,3.9-1.659,3.995-.638,3.893,1.589,5.6-.547,1.333-1.435,2.874-.233,4.181a20.847,20.847,0,0,0,3.6,2.523q.8,4.739,1.745,10.28a38.026,38.026,0,0,1-3.677,3.05m17.137-33.8c2.5,2.875,2.3,6.253,2.077,9.668-.029.466-.172.931-.155,1.391a5.264,5.264,0,0,1-3.369,5.272c-4.329,2.051-8.793,3.255-13.607,1.915a3.209,3.209,0,0,1-2.4-1.529,3.137,3.137,0,0,1,3.054-2.7,27.294,27.294,0,0,0,8.456-2.226,30.508,30.508,0,0,0,3.113-1.752,13.5,13.5,0,0,0-1.993.012c-2.172.479-4.317,1.114-6.51,1.459a35,35,0,0,1-5.575.331,6.994,6.994,0,0,1-2.12-.854c.49-.7.757-1.409,1.266-1.721A17.686,17.686,0,0,1,105,170.579a33.871,33.871,0,0,0,9.173-5.347,6,6,0,0,0-3.437.764c-1.938.829-3.879,1.652-5.81,2.495a7.829,7.829,0,0,1-4.142.466,1.418,1.418,0,0,1-.979-2.347,11.884,11.884,0,0,1,1.783-1.681c3.17-2.412,6.372-4.78,9.542-7.191.616-.468,1.49-.794,1.374-1.839-.872-.618-1.595-.072-2.229.39-3.121,2.28-6.211,4.6-9.3,6.921a16.028,16.028,0,0,1-1.655,1.294,1.6,1.6,0,0,1-1.952-.208,1.239,1.239,0,0,1-.095-1.61,10.177,10.177,0,0,1,1.121-1.781c2.059-2.553,4.091-5.132,6.256-7.592.982-1.114,2.319-1.9,3.372-2.961.979-.986,1.788-2.141,2.7-3.2.139-.163.4-.221.762-.412a4.3,4.3,0,0,1,3.881,4.127,5.537,5.537,0,0,0,1.923,3.955c1.722,1.506,2.579,3.245,1.907,5.623a2.87,2.87,0,0,0,.4,2.309m-3.65-15.514c-1.436-1.482-2.965-2.633-5.27-1.848-.919.311-1.569-.419-1.428-1.4.976-6.721,1.921-13.447,2.981-20.156.768-4.861,1.683-9.7,2.561-14.541a9.748,9.748,0,0,1,1.08-3.72,15.5,15.5,0,0,1,6.932,2.389,48.905,48.905,0,0,1,5.389,3.935,6.359,6.359,0,0,1,1.471,1.935,87.443,87.443,0,0,1,6.252,14.5,5.843,5.843,0,0,1-.359,5.058c-4.235,7.094-9.56,13.012-17.9,15.947-.685-.848-1.15-1.521-1.711-2.1m13.074,64.095a9.167,9.167,0,0,1-8.386,1.105,13.013,13.013,0,0,1-7.859-6.62c-3.379-6.544-5.329-13.494-6.39-22.18,1.114-.161,2.023-.281,2.929-.421,2.307-.356,4.647-.58,6.909-1.122a10.176,10.176,0,0,0,6.165-3.774,8.676,8.676,0,0,1,.977-.968c2.64,2.028,4.145,5.2,7.352,6.355.666-.956.059-1.442-.4-1.928-1.688-1.787-3.375-3.576-5.106-5.32a5.18,5.18,0,0,1-1.531-3.747c-.124-3.621-.391-7.237-2.231-10.535a3.9,3.9,0,0,1-.164-2.367,6.235,6.235,0,0,0-1.919-5.739,19.488,19.488,0,0,1-1.68-2.184c-.049-.066.014-.216.049-.6,1.458-.613,3.092-1.18,4.606-1.973a32,32,0,0,0,4.441-2.811,34.6,34.6,0,0,0,3.912-3.517c1.219-1.26,2.313-2.643,3.4-4.019,1.067-1.345,2.063-2.748,3.3-4.41,1.121,2.364,1.261,4.57,1.667,6.676a196.253,196.253,0,0,1,3.673,39.451,56.844,56.844,0,0,1-1.473,13.239,29.43,29.43,0,0,1-12.245,17.411m23.251-38.586c-1.382,8.318-2.9,16.6-5.047,24.758-.385,1.467-.943,2.889-1.365,4.347a6.511,6.511,0,0,1-4.873,4.584,13.325,13.325,0,0,1-1.7.418,12.958,12.958,0,0,1-1.7.016,15.087,15.087,0,0,1,.854-1.967,40.966,40.966,0,0,0,4.326-8.017,18.666,18.666,0,0,0,.708-3.039c.3-1.733.571-3.467.77-5.21a113.126,113.126,0,0,0,.356-16.836,213.153,213.153,0,0,0-5.386-38.907c-.1-.438-.166-.884-.236-1.26.628-.709,1.174-.221,1.668-.052a11.689,11.689,0,0,0,7.589-.142c2.112-.691,4.206-1.439,6.73-2.305.106,1.092.244,1.881.251,2.67a237.254,237.254,0,0,1-2.948,40.942m8.312-54.536a18.728,18.728,0,0,1-6.832,7.825,2.219,2.219,0,0,1-.931.476c-2.555.259-5.109.6-7.669.648a5.457,5.457,0,0,1-3.419-1.658c-7.576-6.385-7.054-19.524,1.048-25.21a13.661,13.661,0,0,1,9-2.369,4.25,4.25,0,0,1,4.011,2.9,16.972,16.972,0,0,1,.592,2.017,26.239,26.239,0,0,1,.526,8.393,12.009,12.009,0,0,1-5.776,9.568,8.7,8.7,0,0,1-3.247,1.216c-2.153.325-3.552-.991-3.62-3.207a44.782,44.782,0,0,1-.041-5.617c.312-3.272,1.591-6.073,4.524-7.846,3.173,2.036,3.264,3.635.617,9.459.167.83.882.539,1.393.664.528.128,1.062.239,1.662.373-.258-2.5-.258-2.5,1.514-3.943-.394-1.764-.77-3.578-1.217-5.374a3.947,3.947,0,0,0-.709-1.531c-1.835-2.216-3.489-2.346-5.676-.406a27.683,27.683,0,0,0-2.087,2.363c-.527.592-1.075,1.166-1.947,2.108a20.33,20.33,0,0,1-.022,2.535c-.122,1.022-.089,2.346-.7,2.965-1.243,1.25.322,1.5.472,2.216a29.722,29.722,0,0,1,.532,3.109,25.691,25.691,0,0,1,.019,2.615,5.229,5.229,0,0,1,1.843.584c2.175,1.784,4.364,1.26,6.584.218a14.96,14.96,0,0,0,4.9-3.927,29.844,29.844,0,0,1,2.337-2.175,7.255,7.255,0,0,1,.032-2.179,24.443,24.443,0,0,0,.623-9.069c-.084-1.146-.514-2.355.821-2.951-1.025-1.526-1.776-2.841-2.724-4a38.9,38.9,0,0,0-2.979-2.971c.029-.376.058-.826.089-1.262-.311-.06-.636-.2-.7-.124a4.518,4.518,0,0,1-3.74,1.5c-1.831.056-3.638.805-5.372.086a8.7,8.7,0,0,1-1.583,1.891,16.623,16.623,0,0,0-6.654,7.97c-.5,1.267-1.649,1.482-2.816,2.636l1.578.768c-.242,2.329-.473,4.509-.714,6.816.425.961.994,2.1,1.438,3.277a18.321,18.321,0,0,0,4.377,6.721,7.975,7.975,0,0,0,6.614,2.657c.541-.055,1.091-.008,2.118-.008a9.212,9.212,0,0,1-8.534.437,4.761,4.761,0,0,1-3.061-3.083c-.955-2.763-2.2-5.426-3.362-8.115-.418-.966-1-1.859-1.4-2.832-2.21-5.4-6.662-8.224-11.758-10.353-1.787-.748-3.919-.708-5.272-2.543-.325-.44-1.539-.294-2.347-.292-.684,0-1.417.392-2.049.256-3.767-.826-7.619-1.124-11.336-2.294-5.205-1.635-7.409-5.409-8.06-10.418a32.579,32.579,0,0,1-.028-4.3,57.65,57.65,0,0,0,4.641-5.182,56.529,56.529,0,0,0,3.259-6.049,9.827,9.827,0,0,1,4,.032c3.235.514,6.489.988,9.673,1.741q11.8,2.793,23.528,5.842A46.593,46.593,0,0,1,152.3,89.375a24.132,24.132,0,0,1,8.269,28.835" transform="translate(0 0)" fill="#1d262d" fill-rule="evenodd"/>
        <path id="Trazado_1311532" data-name="Trazado 1311532" d="M74.339,105.224c-.494,5.132-.958,10.268-1.428,15.4a80.142,80.142,0,0,0-.713,8.4c.124,8.465-1.1,16.828-1.728,25.234-.456,6.073-1.171,12.125-1.735,18.192a11.84,11.84,0,0,0,.114,4.722c.972-.2,1.019-.842,1.082-1.388.538-4.656,1.171-9.3,1.536-13.972.758-9.7,1.336-19.4,2.057-29.1.584-7.829,1.29-15.649,1.893-23.479a26.8,26.8,0,0,0,.125-5.983c-1.21.277-1.129,1.2-1.2,1.971" transform="translate(13.705 20.642)" fill="#1d262d" fill-rule="evenodd"/>
        <path id="Trazado_1311533" data-name="Trazado 1311533" d="M65.854,91.394a5.378,5.378,0,0,0-.655,1.453c-.545,4.411-1.244,8.817-1.493,13.246-.384,6.89-.551,13.8-.632,20.7q-.153,12.646-1.24,25.238a26.749,26.749,0,0,0-.049,3.848c.023.388.5.749.937,1.346.16-.718.265-1.05.3-1.391a215.13,215.13,0,0,0,1.409-22.058c.1-7.721.127-15.45.454-23.163.241-5.72.916-11.422,1.384-17.134.054-.655.007-1.319.007-1.98-.142-.032-.284-.067-.425-.1" transform="translate(12.342 18.271)" fill="#1d262d" fill-rule="evenodd"/>
        <path id="Trazado_1311534" data-name="Trazado 1311534" d="M20.657,130.169c-1.945-9.511-4.157-18.968-6.249-28.45-.606-2.743-1.153-5.5-1.809-8.225a6.226,6.226,0,0,0-1.8-3.72,11.068,11.068,0,0,0,.01,1.611c.473,2.529.936,5.061,1.474,7.579,2.1,9.841,4.235,19.671,6.328,29.512a74.4,74.4,0,0,0,1.512,7.562,42.077,42.077,0,0,1,1.855,10.33c.131,1.985.358,3.965.55,5.944a3,3,0,0,0,1.554,2.762c0-.906.061-1.818-.008-2.721a182.421,182.421,0,0,0-3.411-22.184" transform="translate(2.153 17.947)" fill="#1d262d" fill-rule="evenodd"/>
        <path id="Trazado_1311535" data-name="Trazado 1311535" d="M50.571,53.366a4.379,4.379,0,0,0,.331.614,13.6,13.6,0,0,0,5.08,4.688,4.5,4.5,0,0,0,1.448.136c-1.387-3-5.046-4.2-5.344-7.839a8.358,8.358,0,0,1,1.92-.89,4.33,4.33,0,0,0,3.558-3.419c.5-1.671.984-3.35,1.417-5.04a4.855,4.855,0,0,0-.041-1.339l-.648-.216a6.689,6.689,0,0,0-.924,1.3,27.462,27.462,0,0,0-1.133,3.3,4.624,4.624,0,0,1-3.6,3.753c-2.447.63-3.116,2.639-2.063,4.95" transform="translate(10.014 8.009)" fill="#1d262d" fill-rule="evenodd"/>
        <path id="Trazado_1311536" data-name="Trazado 1311536" d="M53.638,62.75a11.04,11.04,0,0,0-2.028-.016c.42.656.565,1.168.886,1.325a7.607,7.607,0,0,0,2.282.763c6.853.948,12.56-1.5,17.522-6.039.264-.241.3-.739.635-1.663-1.114.475-1.733.677-2.292.991-1.421.8-2.789,1.692-4.22,2.471A17.855,17.855,0,0,1,53.638,62.75" transform="translate(10.318 11.419)" fill="#1d262d" fill-rule="evenodd"/>
        <path id="Trazado_1311537" data-name="Trazado 1311537" d="M69.45,47.4a1.686,1.686,0,0,0,1.361-.722c1.025-1.745.935-3.476-.524-5.442-1.926,1.509-2.637,3.073-1.969,5.066a1.832,1.832,0,0,0,1.133,1.1" transform="translate(13.609 8.245)" fill="#1d262d" fill-rule="evenodd"/>
        <path id="Trazado_1311538" data-name="Trazado 1311538" d="M47.724,45.756a18.653,18.653,0,0,0,.808-2.15c-.089-.706-.042-.994-.162-1.159a3.669,3.669,0,0,0-1.094-1.2c-.55-.27-1.349.334-1.627,1.01a3.969,3.969,0,0,0,.277,3.381c.283.589,1.513.695,1.8.114" transform="translate(9.073 8.233)" fill="#1d262d" fill-rule="evenodd"/>
        <path id="Trazado_1311539" data-name="Trazado 1311539" d="M47.667,33.646c-.342-.041-.725.3-1.686.722a47.168,47.168,0,0,0,5.226,1.6,3.845,3.845,0,0,0-3.54-2.324" transform="translate(9.192 6.726)" fill="#1d262d" fill-rule="evenodd"/>
        <path id="Trazado_1311540" data-name="Trazado 1311540" d="M70.235,35.974c.653-.205,1.4-.415,2.123-.682.173-.064.276-.313.638-.751a2.471,2.471,0,0,0-2.76.24c-.407.252-.632.649,0,1.193" transform="translate(13.962 6.841)" fill="#1d262d" fill-rule="evenodd"/>
      </g>
    </g>
  </g>
</svg>
