<svg xmlns="http://www.w3.org/2000/svg" width="314" height="319" viewBox="0 0 314 319">
  <g id="Grupo_1207590" data-name="Grupo 1207590" transform="translate(-230.827 -851)">
    <path id="Trazado_1357569" data-name="Trazado 1357569" d="M0,0H312V317H0Z" transform="translate(231.827 852)" fill="#fff" stroke="#604629" stroke-width="2"/>
    <path id="Trazado_1357570" data-name="Trazado 1357570" d="M0,0H311.789" transform="translate(231.827 989.5)" fill="none" stroke="#604629" stroke-width="2"/>
    <path id="Trazado_1357571" data-name="Trazado 1357571" d="M0,0H312.211" transform="translate(231.616 1141.5)" fill="none" stroke="#604629" stroke-width="2"/>
    <path id="Trazado_1357572" data-name="Trazado 1357572" d="M0,0V28" transform="translate(311.827 1141.5)" fill="none" stroke="#604629" stroke-width="2"/>
    <path id="Trazado_1357573" data-name="Trazado 1357573" d="M-17,0h-.844V-6.4H-17Zm2.18-4.755.022.527a1.756,1.756,0,0,1,1.411-.615,1.359,1.359,0,0,1,1.358.765,1.8,1.8,0,0,1,.617-.554,1.824,1.824,0,0,1,.9-.211q1.564,0,1.591,1.657V0h-.813V-3.138A1.092,1.092,0,0,0-9.969-3.9a1.026,1.026,0,0,0-.782-.253,1.078,1.078,0,0,0-.751.27,1.1,1.1,0,0,0-.347.727V0h-.817V-3.116a.907.907,0,0,0-1.015-1.037,1.088,1.088,0,0,0-1.094.681V0h-.813V-4.755ZM-4.761,0a1.708,1.708,0,0,1-.114-.5A1.814,1.814,0,0,1-6.229.088a1.678,1.678,0,0,1-1.154-.4,1.287,1.287,0,0,1-.45-1.009,1.344,1.344,0,0,1,.565-1.154A2.662,2.662,0,0,1-5.68-2.883h.791v-.374a.913.913,0,0,0-.255-.679A1.024,1.024,0,0,0-5.9-4.188a1.185,1.185,0,0,0-.729.22.647.647,0,0,0-.294.532h-.817a1.122,1.122,0,0,1,.253-.688A1.725,1.725,0,0,1-6.8-4.649a2.306,2.306,0,0,1,.951-.193,1.88,1.88,0,0,1,1.288.411A1.482,1.482,0,0,1-4.076-3.3v2.188A2.676,2.676,0,0,0-3.909-.07V0ZM-6.111-.62a1.429,1.429,0,0,0,.725-.2,1.2,1.2,0,0,0,.5-.514v-.976h-.637q-1.494,0-1.494.875a.74.74,0,0,0,.255.6A.98.98,0,0,0-6.111-.62Zm.751-6.13h.984L-5.552-5.458l-.655,0Zm2.364,4.333a2.8,2.8,0,0,1,.514-1.769,1.644,1.644,0,0,1,1.362-.657A1.636,1.636,0,0,1,.24-4.228l.04-.527h.743V-.114A1.934,1.934,0,0,1,.475,1.34,2.019,2.019,0,0,1-1,1.872,2.446,2.446,0,0,1-2,1.652a1.732,1.732,0,0,1-.751-.6l.422-.488a1.59,1.59,0,0,0,1.279.646A1.246,1.246,0,0,0-.127.875,1.277,1.277,0,0,0,.2-.066V-.475A1.671,1.671,0,0,1-1.127.088,1.624,1.624,0,0,1-2.479-.584,2.938,2.938,0,0,1-2.995-2.417Zm.817.092a2.132,2.132,0,0,0,.33,1.263A1.071,1.071,0,0,0-.925-.6,1.191,1.191,0,0,0,.2-1.3V-3.472A1.2,1.2,0,0,0-.916-4.153a1.081,1.081,0,0,0-.927.461A2.322,2.322,0,0,0-2.177-2.325ZM4.221.088A2.078,2.078,0,0,1,2.648-.547a2.357,2.357,0,0,1-.606-1.7V-2.4a2.853,2.853,0,0,1,.27-1.263,2.108,2.108,0,0,1,.756-.87A1.9,1.9,0,0,1,4.12-4.843a1.781,1.781,0,0,1,1.441.611,2.645,2.645,0,0,1,.514,1.749v.338H2.854a1.69,1.69,0,0,0,.411,1.136,1.292,1.292,0,0,0,1,.433,1.416,1.416,0,0,0,.729-.176,1.833,1.833,0,0,0,.523-.466l.5.387A2,2,0,0,1,4.221.088Zm-.1-4.263a1.084,1.084,0,0,0-.826.358,1.741,1.741,0,0,0-.413,1H5.262v-.062a1.548,1.548,0,0,0-.334-.96A1.021,1.021,0,0,0,4.12-4.175Zm3.665-.58.026.6a1.733,1.733,0,0,1,1.424-.686q1.507,0,1.521,1.7V0H9.943V-3.146a1.1,1.1,0,0,0-.235-.76.942.942,0,0,0-.719-.246,1.173,1.173,0,0,0-.694.211,1.432,1.432,0,0,0-.466.554V0H7.016V-4.755ZM16.8,0h-.817V-5.418l-1.639.6v-.738l2.329-.875H16.8Z" transform="translate(387.327 985)" fill="#262626"/>
    <path id="Trazado_1357574" data-name="Trazado 1357574" d="M-10.459-2.826h-2.685V0h-.844V-6.4h3.964v.69h-3.12v2.193h2.685ZM-6.3-.47A1.727,1.727,0,0,1-7.695.088,1.478,1.478,0,0,1-8.853-.354a1.912,1.912,0,0,1-.4-1.307V-4.755h.813v3.072q0,1.081.879,1.081A1.217,1.217,0,0,0-6.324-1.3V-4.755h.813V0h-.773Zm4,.558A2.078,2.078,0,0,1-3.876-.547a2.357,2.357,0,0,1-.606-1.7V-2.4a2.853,2.853,0,0,1,.27-1.263,2.108,2.108,0,0,1,.756-.87A1.9,1.9,0,0,1-2.4-4.843a1.781,1.781,0,0,1,1.441.611A2.645,2.645,0,0,1-.448-2.483v.338H-3.669a1.69,1.69,0,0,0,.411,1.136,1.292,1.292,0,0,0,1,.433,1.416,1.416,0,0,0,.729-.176,1.833,1.833,0,0,0,.523-.466l.5.387A2,2,0,0,1-2.3.088Zm-.1-4.263a1.084,1.084,0,0,0-.826.358,1.741,1.741,0,0,0-.413,1h2.382v-.062a1.548,1.548,0,0,0-.334-.96A1.021,1.021,0,0,0-2.4-4.175Zm3.665-.58.026.6a1.733,1.733,0,0,1,1.424-.686q1.507,0,1.521,1.7V0H3.419V-3.146a1.1,1.1,0,0,0-.235-.76.942.942,0,0,0-.719-.246,1.173,1.173,0,0,0-.694.211,1.432,1.432,0,0,0-.466.554V0H.492V-4.755Zm5.3-1.151v1.151h.888v.628H6.561v2.952a.66.66,0,0,0,.119.429.5.5,0,0,0,.4.143,1.968,1.968,0,0,0,.387-.053V0a2.371,2.371,0,0,1-.624.087,1.012,1.012,0,0,1-.822-.33,1.416,1.416,0,0,1-.277-.936V-4.126H4.882v-.628h.866V-5.906ZM10.371.088A2.078,2.078,0,0,1,8.8-.547a2.357,2.357,0,0,1-.606-1.7V-2.4a2.853,2.853,0,0,1,.27-1.263,2.108,2.108,0,0,1,.756-.87,1.9,1.9,0,0,1,1.052-.314,1.781,1.781,0,0,1,1.441.611,2.645,2.645,0,0,1,.514,1.749v.338H9a1.69,1.69,0,0,0,.411,1.136,1.292,1.292,0,0,0,1,.433,1.416,1.416,0,0,0,.729-.176,1.833,1.833,0,0,0,.523-.466l.5.387A2,2,0,0,1,10.371.088Zm-.1-4.263a1.084,1.084,0,0,0-.826.358,1.741,1.741,0,0,0-.413,1h2.382v-.062a1.548,1.548,0,0,0-.334-.96A1.021,1.021,0,0,0,10.27-4.175ZM13.14-.426a.509.509,0,0,1,.125-.352.477.477,0,0,1,.376-.141.492.492,0,0,1,.38.141.5.5,0,0,1,.13.352.472.472,0,0,1-.13.338.5.5,0,0,1-.38.136.486.486,0,0,1-.376-.136A.481.481,0,0,1,13.14-.426Zm0-3.88a.509.509,0,0,1,.125-.352.477.477,0,0,1,.376-.141.492.492,0,0,1,.38.141.5.5,0,0,1,.13.352.472.472,0,0,1-.13.338.5.5,0,0,1-.38.136.486.486,0,0,1-.376-.136A.481.481,0,0,1,13.144-4.307Z" transform="translate(250.327 1151)" fill="#262626"/>
    <path id="Trazado_1357575" data-name="Trazado 1357575" d="M-17,0h-.844V-6.4H-17Zm2.18-4.755.022.527a1.756,1.756,0,0,1,1.411-.615,1.359,1.359,0,0,1,1.358.765,1.8,1.8,0,0,1,.617-.554,1.824,1.824,0,0,1,.9-.211q1.564,0,1.591,1.657V0h-.813V-3.138A1.092,1.092,0,0,0-9.969-3.9a1.026,1.026,0,0,0-.782-.253,1.078,1.078,0,0,0-.751.27,1.1,1.1,0,0,0-.347.727V0h-.817V-3.116a.907.907,0,0,0-1.015-1.037,1.088,1.088,0,0,0-1.094.681V0h-.813V-4.755ZM-4.761,0a1.708,1.708,0,0,1-.114-.5A1.814,1.814,0,0,1-6.229.088a1.678,1.678,0,0,1-1.154-.4,1.287,1.287,0,0,1-.45-1.009,1.344,1.344,0,0,1,.565-1.154A2.662,2.662,0,0,1-5.68-2.883h.791v-.374a.913.913,0,0,0-.255-.679A1.024,1.024,0,0,0-5.9-4.188a1.185,1.185,0,0,0-.729.22.647.647,0,0,0-.294.532h-.817a1.122,1.122,0,0,1,.253-.688A1.725,1.725,0,0,1-6.8-4.649a2.306,2.306,0,0,1,.951-.193,1.88,1.88,0,0,1,1.288.411A1.482,1.482,0,0,1-4.076-3.3v2.188A2.676,2.676,0,0,0-3.909-.07V0ZM-6.111-.62a1.429,1.429,0,0,0,.725-.2,1.2,1.2,0,0,0,.5-.514v-.976h-.637q-1.494,0-1.494.875a.74.74,0,0,0,.255.6A.98.98,0,0,0-6.111-.62Zm.751-6.13h.984L-5.552-5.458l-.655,0Zm2.364,4.333a2.8,2.8,0,0,1,.514-1.769,1.644,1.644,0,0,1,1.362-.657A1.636,1.636,0,0,1,.24-4.228l.04-.527h.743V-.114A1.934,1.934,0,0,1,.475,1.34,2.019,2.019,0,0,1-1,1.872,2.446,2.446,0,0,1-2,1.652a1.732,1.732,0,0,1-.751-.6l.422-.488a1.59,1.59,0,0,0,1.279.646A1.246,1.246,0,0,0-.127.875,1.277,1.277,0,0,0,.2-.066V-.475A1.671,1.671,0,0,1-1.127.088,1.624,1.624,0,0,1-2.479-.584,2.938,2.938,0,0,1-2.995-2.417Zm.817.092a2.132,2.132,0,0,0,.33,1.263A1.071,1.071,0,0,0-.925-.6,1.191,1.191,0,0,0,.2-1.3V-3.472A1.2,1.2,0,0,0-.916-4.153a1.081,1.081,0,0,0-.927.461A2.322,2.322,0,0,0-2.177-2.325ZM4.221.088A2.078,2.078,0,0,1,2.648-.547a2.357,2.357,0,0,1-.606-1.7V-2.4a2.853,2.853,0,0,1,.27-1.263,2.108,2.108,0,0,1,.756-.87A1.9,1.9,0,0,1,4.12-4.843a1.781,1.781,0,0,1,1.441.611,2.645,2.645,0,0,1,.514,1.749v.338H2.854a1.69,1.69,0,0,0,.411,1.136,1.292,1.292,0,0,0,1,.433,1.416,1.416,0,0,0,.729-.176,1.833,1.833,0,0,0,.523-.466l.5.387A2,2,0,0,1,4.221.088Zm-.1-4.263a1.084,1.084,0,0,0-.826.358,1.741,1.741,0,0,0-.413,1H5.262v-.062a1.548,1.548,0,0,0-.334-.96A1.021,1.021,0,0,0,4.12-4.175Zm3.665-.58.026.6a1.733,1.733,0,0,1,1.424-.686q1.507,0,1.521,1.7V0H9.943V-3.146a1.1,1.1,0,0,0-.235-.76.942.942,0,0,0-.719-.246,1.173,1.173,0,0,0-.694.211,1.432,1.432,0,0,0-.466.554V0H7.016V-4.755ZM18.319,0H14.126V-.584l2.215-2.461a5.262,5.262,0,0,0,.679-.907,1.515,1.515,0,0,0,.187-.723,1.148,1.148,0,0,0-.3-.822,1.06,1.06,0,0,0-.809-.321,1.256,1.256,0,0,0-.943.345,1.318,1.318,0,0,0-.336.96H14a1.887,1.887,0,0,1,.569-1.428,2.11,2.11,0,0,1,1.523-.545,2.027,2.027,0,0,1,1.411.468,1.6,1.6,0,0,1,.519,1.246,3.66,3.66,0,0,1-1.2,2.25L15.106-.664h3.212Z" transform="translate(387.327 1136)" fill="#262626"/>
  </g>
</svg>
