<svg xmlns="http://www.w3.org/2000/svg" width="84" height="84" viewBox="0 0 84 84">
  <g id="Grupo_1207699" data-name="Grupo 1207699" transform="translate(-185.711 -2219)">
    <g id="Grupo_1207589" data-name="Grupo 1207589">
      <circle id="Elipse_13790" data-name="Elipse 13790" cx="42" cy="42" r="42" transform="translate(185.711 2219)" fill="#f0b068"/>
      <g id="Grupo_1207588" data-name="Grupo 1207588" transform="translate(200.711 2233.996)">
        <path id="Trazado_1357569" data-name="Trazado 1357569" d="M36.943,78.031a12.986,12.986,0,0,0,.21-7.638,10.708,10.708,0,0,0-.615-1.727c9.388-3.727,15.223,2.418,15.512,2.731a.836.836,0,1,0,1.233-1.13A15.194,15.194,0,0,0,48.489,67.1V63.853l.245.245a.836.836,0,1,0,1.182-1.184l-1.426-1.429V60.5l.245.245a.836.836,0,1,0,1.182-1.184L48.244,57.89a.834.834,0,0,0-1.182,0l-1.671,1.675a.836.836,0,1,0,1.182,1.184l.245-.245v.981l-1.426,1.429A.836.836,0,1,0,46.573,64.1l.245-.245V66.49a15.471,15.471,0,0,0-5.431-.622V62.6l.245.245a.836.836,0,0,0,1.182-1.184l-1.426-1.429v-.981l.245.245a.836.836,0,0,0,1.182-1.184l-1.671-1.674a.834.834,0,0,0-1.182,0l-1.671,1.674a.836.836,0,0,0,1.182,1.184l.245-.245v.981l-1.426,1.429a.836.836,0,0,0,1.182,1.184l.245-.245v3.421c0,.013,0,.026,0,.039a18.735,18.735,0,0,0-3.962,1.131,7.837,7.837,0,0,1-.385-1.516c-.2-1.126-.437-2.4-1.836-3.116a4.792,4.792,0,0,0-2.473-.524,1.6,1.6,0,0,1-1.308-.366c-1.658-1.425-7.207-1.119-9.037-.761a28.818,28.818,0,0,1-5.929-.262c-1.213-.126-2.26-.235-2.9-.235-3.113,0-7.5,1.1-9.63,4.218C-.22,68.254-.029,71.265.192,74.752a35.766,35.766,0,0,1-.158,7.9A5.764,5.764,0,0,0,.022,83.8c.007.121.013.241.017.359a2.276,2.276,0,0,0,1.443,2.117.837.837,0,0,0,.275.047H6.076a.836.836,0,0,0,.836-.837,2.706,2.706,0,0,0-1.636-2.728c-.03-.211-.067-.528-.106-1a3.406,3.406,0,0,1,1.978-3.379c0,.505-.007,1.1-.022,1.791a7.068,7.068,0,0,1-.14,1.272,11.013,11.013,0,0,0-.247,2.522l0,.089a2.366,2.366,0,0,0,1.472,2.2.824.824,0,0,0,.281.049h4.482a.836.836,0,0,0,.836-.837,2.851,2.851,0,0,0-1.567-2.8v-.332a4.433,4.433,0,0,1,.121-1.02c.15-.633.371-1.662.655-3.052a4.388,4.388,0,0,0,1.754.376,4.162,4.162,0,0,0,1.258-.2c.052.4.114.784.178,1.173.061.372.123.753.178,1.164a7.736,7.736,0,0,1,.049,1.8c-.048.481-.055,1.444-.054,1.475a2.387,2.387,0,0,0,1.349,2.21.831.831,0,0,0,.312.061h4.035a.836.836,0,0,0,.836-.837,2.928,2.928,0,0,0-1.418-2.8l-.059-4.993a4.869,4.869,0,0,1,.9-2.853l.929-1.3a.836.836,0,0,0-1.358-.976l-.929,1.3A6.56,6.56,0,0,0,19.766,77.7l.066,5.585a.81.81,0,0,0,.734.821.76.76,0,0,1,.547.538H18.279a.866.866,0,0,1-.226-.616c0-.134.011-.939.047-1.288a9.391,9.391,0,0,0-.055-2.187c-.057-.428-.122-.825-.185-1.213a15.335,15.335,0,0,1-.012-5.863.835.835,0,1,0-1.649-.269,19.831,19.831,0,0,0-.295,3.485,2.658,2.658,0,0,1-2.586-.162,10.215,10.215,0,0,0-.323-4.777.836.836,0,1,0-1.546.638,10.063,10.063,0,0,1,.007,5.177c-.394,1.941-.607,2.9-.716,3.357a6.114,6.114,0,0,0-.166,1.406v.955a.837.837,0,0,0,.769.835.833.833,0,0,1,.638.509H8.7a.771.771,0,0,1-.284-.625l0-.086a9.368,9.368,0,0,1,.213-2.138A8.731,8.731,0,0,0,8.8,80.209c.051-2.313,0-3.65,0-3.705a.841.841,0,0,0-.178-.486L6.113,72.823A.836.836,0,1,0,4.8,73.858l2.168,2.764A5.189,5.189,0,0,0,3.5,81.9a4.871,4.871,0,0,0,.337,1.952.878.878,0,0,0,.641.417.772.772,0,0,1,.569.381h-3.1a.669.669,0,0,1-.246-.54c0-.131-.011-.266-.019-.4a4.639,4.639,0,0,1,0-.811,37.2,37.2,0,0,0,.172-8.249c-.218-3.438-.376-5.922,1.779-9.076,2.317-3.392,7.65-3.489,8.251-3.489.552,0,1.608.11,2.725.226a27.841,27.841,0,0,0,6.422.24,17.689,17.689,0,0,1,2.679-.255,4.571,4.571,0,0,0-1.5,1.9c-.326,1.368,1.05,2.746,3.537,4.663A4.555,4.555,0,0,0,28.188,70a1.433,1.433,0,0,0,.738-.195c.331-.194.859-.706.678-1.943a7.316,7.316,0,0,1-.077-2.408.836.836,0,1,0-1.607-.46,7.881,7.881,0,0,0,.03,3.111c.009.063.015.118.018.164a4.915,4.915,0,0,1-1.2-.738C24,65.4,23.827,64.734,23.834,64.6a9.828,9.828,0,0,1,2.557-2.24,4.838,4.838,0,0,1,2.273.576,3.211,3.211,0,0,0,2.405.77,3.2,3.2,0,0,1,1.707.342c.634.323.756.853.951,1.924a6.956,6.956,0,0,0,.967,2.784,7.215,7.215,0,0,1,.845,2.071,11.316,11.316,0,0,1-.174,6.654A6.618,6.618,0,0,1,33.4,80.556a2.39,2.39,0,0,1-1.783.643,2.233,2.233,0,0,1-1.129-.551.84.84,0,0,0,.656-.268.818.818,0,0,0,.124-.171,1.469,1.469,0,0,0,.872.086,1.419,1.419,0,0,0,.924-.642,11.408,11.408,0,0,0,1.2-3.637c.485-2.474-1.581-4.029-2.742-4.506a.837.837,0,1,0-.637,1.548c.085.036,2.08.9,1.739,2.635a11.422,11.422,0,0,1-.86,2.858,1.443,1.443,0,0,0-1.477.046,1.347,1.347,0,0,0-.379.36,1.823,1.823,0,0,0-.809.286,1.5,1.5,0,0,0-.41.414c-.182-1.414-.423-3.283-.653-5.073a6.266,6.266,0,0,0,1.845.927.837.837,0,1,0,.443-1.614,3.967,3.967,0,0,1-2.752-2.919c0-.025-.013-.047-.02-.071s-.011-.049-.02-.072a.829.829,0,0,0-.049-.106c-.007-.012-.012-.025-.019-.037a.832.832,0,0,0-.09-.124v0a.827.827,0,0,0-.395-.25l-.012,0a.813.813,0,0,0-.121-.021c-.016,0-.032-.005-.048-.006a.831.831,0,0,0-.1,0c-.02,0-.039,0-.059,0l-.017,0h-.018c-.022,0-.042.012-.063.018a.843.843,0,0,0-.084.023c-.025.009-.049.022-.073.033a.821.821,0,0,0-.075.038c-.023.014-.043.03-.064.046s-.045.032-.065.051-.035.037-.053.056a.829.829,0,0,0-.054.063c-.015.02-.027.042-.04.064a.83.83,0,0,0-.042.074c-.011.023-.018.047-.027.07a.822.822,0,0,0-.028.081c-.006.025-.009.051-.013.077a.82.82,0,0,0-.011.084c0,.028,0,.056,0,.084s0,.045,0,.068c.42,3.271,1.4,10.891,1.421,11.023l.155.921a.837.837,0,0,0,.889.7.732.732,0,0,1,.6.37l-2.437.4a.652.652,0,0,1-.757-.473s0-.009,0-.014c-.033-.168-1.527-7.823-1.55-7.94l-.821.157h-.836c0,.083,0,.083.791,4.136l.709,3.633c.021.1.043.219.075.332l-.009,0,.011.056a2.3,2.3,0,0,0,2.266,1.8,2.448,2.448,0,0,0,.395-.032l3.419-.562a.838.838,0,0,0,.688-.967A2.847,2.847,0,0,0,29.049,82.3L29,81.985c-.005-.036-.03-.228-.071-.536a4.159,4.159,0,0,0,2.473,1.41,3.983,3.983,0,0,0,3.048-1,8.238,8.238,0,0,0,2.5-3.833Z" transform="translate(0 -32.817)" fill="#595941"/>
        <path id="Trazado_1357570" data-name="Trazado 1357570" d="M20.961,54.773l-.528,0a.776.776,0,0,0,.528,0Z" transform="translate(-11.893 -31.876)" fill="#595941"/>
        <path id="Trazado_1357571" data-name="Trazado 1357571" d="M.895,35.906a.831.831,0,0,0,.583-.238L5.8,31.444,10.1,35.613a.836.836,0,0,0,1.163-1.2l-.711-.69L15.66,28.7l4.29,4.165a.836.836,0,1,0,1.163-1.2l-1.547-1.5,7.64-7.326,7.157,6.983-1.055,1.064a.836.836,0,0,0,1.186,1.18l3.723-3.756,4.951,5.069-.666.664a.837.837,0,0,0,1.179,1.187l4.4-4.392,4,4.38a.836.836,0,1,0,1.233-1.131L48.73,29.061a.836.836,0,0,0-.6-.271.815.815,0,0,0-.609.243L44.353,32.2l-5.534-5.666a.835.835,0,0,0-.594-.252.921.921,0,0,0-.6.247l-2.088,2.106-7.747-7.558a.835.835,0,0,0-1.161-.005L18.365,29l-2.126-2.064a.834.834,0,0,0-1.166,0L9.347,32.555l-2.966-2.88a.834.834,0,0,0-1.165,0l-4.9,4.792a.837.837,0,0,0,.583,1.437Z" transform="translate(-0.035 -12.124)" fill="#595941"/>
        <path id="Trazado_1357572" data-name="Trazado 1357572" d="M106.956,53.854h-.271A.712.712,0,0,0,106.956,53.854Z" transform="translate(-62.092 -31.341)" fill="#595941"/>
        <path id="Trazado_1357573" data-name="Trazado 1357573" d="M99.939,15.876a2.93,2.93,0,1,0-2.925-2.93,2.93,2.93,0,0,0,2.925,2.93Zm0-4.186a1.256,1.256,0,1,1-1.253,1.256,1.256,1.256,0,0,1,1.253-1.256Z" transform="translate(-56.464 -5.827)" fill="#595941"/>
        <path id="Trazado_1357574" data-name="Trazado 1357574" d="M102.848,2.514a.836.836,0,0,0,.836-.837V.84a.836.836,0,1,0-1.671,0v.837A.836.836,0,0,0,102.848,2.514Z" transform="translate(-59.372 0)" fill="#595941"/>
        <path id="Trazado_1357575" data-name="Trazado 1357575" d="M102.012,28.882v.837a.836.836,0,1,0,1.671,0v-.837a.836.836,0,1,0-1.671,0Z" transform="translate(-59.372 -16.321)" fill="#595941"/>
        <path id="Trazado_1357576" data-name="Trazado 1357576" d="M115.006,15.86a.836.836,0,0,0,.836.837h.836a.837.837,0,0,0,0-1.674h-.836A.836.836,0,0,0,115.006,15.86Z" transform="translate(-66.935 -8.741)" fill="#595941"/>
        <path id="Trazado_1357577" data-name="Trazado 1357577" d="M87.853,16.7h.836a.837.837,0,1,0,0-1.674h-.836a.837.837,0,0,0,0,1.674Z" transform="translate(-50.644 -8.741)" fill="#595941"/>
        <path id="Trazado_1357578" data-name="Trazado 1357578" d="M112.034,26.252a.837.837,0,0,0,1.182-1.184l-.591-.592a.837.837,0,0,0-1.182,1.184Z" transform="translate(-64.719 -14.1)" fill="#595941"/>
        <path id="Trazado_1357579" data-name="Trazado 1357579" d="M92.245,6.423a.836.836,0,0,0,1.182-1.184l-.591-.592a.836.836,0,0,0-1.182,1.184Z" transform="translate(-53.201 -2.56)" fill="#595941"/>
        <path id="Trazado_1357580" data-name="Trazado 1357580" d="M112.035,6.668a.832.832,0,0,0,.591-.245l.591-.592a.836.836,0,0,0-1.182-1.184l-.591.592a.837.837,0,0,0,.591,1.429Z" transform="translate(-64.719 -2.56)" fill="#595941"/>
        <path id="Trazado_1357581" data-name="Trazado 1357581" d="M92.244,24.475l-.591.592a.837.837,0,0,0,1.182,1.184l.591-.592a.837.837,0,0,0-1.182-1.184Z" transform="translate(-53.201 -14.1)" fill="#595941"/>
        <path id="Trazado_1357582" data-name="Trazado 1357582" d="M95.357,108.805a.836.836,0,0,0-.836-.837H92.85a.837.837,0,1,0,0,1.674h1.671A.836.836,0,0,0,95.357,108.805Z" transform="translate(-53.553 -62.836)" fill="#595941"/>
        <path id="Trazado_1357583" data-name="Trazado 1357583" d="M100.027,116.817a.836.836,0,0,0-.836-.837H95.849a.837.837,0,1,0,0,1.674h3.342A.836.836,0,0,0,100.027,116.817Z" transform="translate(-55.298 -67.499)" fill="#595941"/>
        <path id="Trazado_1357584" data-name="Trazado 1357584" d="M120.181,95.949h-3.342a.837.837,0,0,0,0,1.674h3.342a.837.837,0,1,0,0-1.674Z" transform="translate(-67.515 -55.841)" fill="#595941"/>
        <path id="Trazado_1357585" data-name="Trazado 1357585" d="M84.526,123.992H82.855a.837.837,0,1,0,0,1.674h1.671a.837.837,0,1,0,0-1.674Z" transform="translate(-47.736 -72.163)" fill="#595941"/>
        <path id="Trazado_1357586" data-name="Trazado 1357586" d="M104.516,123.992h-1.671a.837.837,0,1,0,0,1.674h1.671a.837.837,0,0,0,0-1.674Z" transform="translate(-59.37 -72.163)" fill="#595941"/>
        <path id="Trazado_1357587" data-name="Trazado 1357587" d="M106.515,102.96h-1.671a.837.837,0,1,0,0,1.674h1.671a.837.837,0,1,0,0-1.674Z" transform="translate(-60.533 -59.922)" fill="#595941"/>
        <path id="Trazado_1357588" data-name="Trazado 1357588" d="M115.348,110.808a.836.836,0,0,0-.836-.837h-1.671a.837.837,0,1,0,0,1.674h1.671A.836.836,0,0,0,115.348,110.808Z" transform="translate(-65.188 -64.002)" fill="#595941"/>
        <path id="Trazado_1357589" data-name="Trazado 1357589" d="M95.521,96.951H93.85a.837.837,0,0,0,0,1.674h1.671a.837.837,0,1,0,0-1.674Z" transform="translate(-54.135 -56.424)" fill="#595941"/>
        <path id="Trazado_1357590" data-name="Trazado 1357590" d="M120.181,118.984h-3.342a.837.837,0,1,0,0,1.674h3.342a.837.837,0,1,0,0-1.674Z" transform="translate(-67.515 -69.248)" fill="#595941"/>
        <ellipse id="Elipse_13800" data-name="Elipse 13800" cx="0.836" cy="0.837" rx="0.836" ry="0.837" transform="translate(30.941 32.991)" fill="#595941"/>
      </g>
    </g>
  </g>
</svg>
