<svg xmlns="http://www.w3.org/2000/svg" xmlns:xlink="http://www.w3.org/1999/xlink" width="292" height="167" viewBox="0 0 292 167">
  <defs>
    <clipPath id="clip-path">
      <rect id="Rectángulo_457339" data-name="Rectángulo 457339" width="177.736" height="167" fill="none"/>
    </clipPath>
  </defs>
  <g id="Grupo_1207588" data-name="Grupo 1207588" transform="translate(-185.711 -576)">
    <g id="Grupo_1207112" data-name="Grupo 1207112">
      <rect id="Rectángulo_457324" data-name="Rectángulo 457324" width="292" height="147" rx="20" transform="translate(185.711 582)" fill="#f0b068"/>
      <g id="Grupo_1207111" data-name="Grupo 1207111" transform="translate(244.932 576)">
        <g id="Grupo_1207110" data-name="Grupo 1207110" clip-path="url(#clip-path)">
          <path id="Trazado_1311573" data-name="Trazado 1311573" d="M62.363,44.138h0l-1.408-.005,1.492-1.012a.364.364,0,0,0-.409-.6l-2.014,1.365.044-2.351a.364.364,0,0,0-.357-.371h0a.365.365,0,0,0-.369.358L59.3,43.593l-1.231-1.336a.364.364,0,0,0-.536.494L58.8,44.125l-2.333-.008a.364.364,0,0,0-.006.728h0l2.128.007L56.93,45.98a.364.364,0,0,0,.409.6l1.929-1.309-.044,2.37a.364.364,0,0,0,.357.371h0a.365.365,0,0,0,.369-.358l.042-2.238,1.312,1.424a.364.364,0,1,0,.536-.494l-1.375-1.491,1.892.007a.364.364,0,0,0,0-.728" transform="translate(-15.247 -11.186)" fill="#261d2a"/>
          <path id="Trazado_1311574" data-name="Trazado 1311574" d="M209.876,33.367s2.047-6.5,2.606-5.7a52.525,52.525,0,0,1,2.233,5.147s5.891,1.853,5.737,2.223-5.286,2.316-5.286,2.316-1.66,5.65-2.591,5.095-2.543-5.063-2.543-5.063-5.274-.476-4.622-1.6,4.466-2.418,4.466-2.418" transform="translate(-55.81 -7.5)" fill="#ffe878"/>
          <path id="Trazado_1311575" data-name="Trazado 1311575" d="M192.829,7.461s1.341-4.275,1.707-3.753A34.75,34.75,0,0,1,196,7.1s3.86,1.219,3.759,1.463a26.105,26.105,0,0,1-3.463,1.524s-1.088,3.719-1.7,3.353-1.666-3.332-1.666-3.332-3.455-.312-3.028-1.05,2.926-1.592,2.926-1.592" transform="translate(-51.601 -0.996)" fill="#ffe878"/>
          <path id="Trazado_1311576" data-name="Trazado 1311576" d="M126.028,4.711s-.719-5.454,4.532-3.69,3.54,6.759,1.538,5.05,1.754-7.505,5.772-4.924,3.119,7.589.269,7.959,1.724-5.832,5.315-2S139.206,17.915,136,15.348s-.7-6.71.072-4.185-1.3,5-6.99,4.9-3.1-8.845-1.11-6.3-1.312,5.42-5.323,2.421.564-9.2,3.378-7.477" transform="translate(-32.905 -0.134)" fill="#fdfeff"/>
          <path id="Trazado_1311577" data-name="Trazado 1311577" d="M129.257,16.3c-.106,0-.212,0-.32,0a3.552,3.552,0,0,1-3.638-2.637,6.4,6.4,0,0,1-3.005-1.314c-2.311-1.728-2.039-4.428-.744-6.338.942-1.39,2.52-2.41,3.943-2a4.151,4.151,0,0,1,1.18-3.219c.883-.727,2.183-.81,3.865-.243a7.117,7.117,0,0,1,1.905.945,4.167,4.167,0,0,1,5.486-.781A5.857,5.857,0,0,1,140.8,5.357a3.992,3.992,0,0,1,2.779,1.363c1.628,1.737,1.27,4.383-.912,6.743-1.976,2.136-5.112,3.573-7.035,2.035a5.1,5.1,0,0,1-.677-.65,9.565,9.565,0,0,1-5.7,1.451m-3.187-2.612a2.788,2.788,0,0,0,2.88,1.881c2.485.046,4.413-.416,5.577-1.3a3.848,3.848,0,0,1-.419-3.3c.249-.68.695-1.079,1.17-1.082.259.007.732.152,1,1.044a3.412,3.412,0,0,1-.514,3.124,3.644,3.644,0,0,1-.269.318,4.427,4.427,0,0,0,.589.565c1.522,1.218,4.268-.041,6.045-1.961,1.514-1.637,2.549-4.007.916-5.75a3.2,3.2,0,0,0-2.264-1.142,4.478,4.478,0,0,1-.09.566,3.239,3.239,0,0,1-2.649,2.69c-.911.117-1.178-.356-1.251-.564-.267-.761.559-2.04,1.8-2.794a4.207,4.207,0,0,1,1.478-.567,5.142,5.142,0,0,0-2.542-4.089,3.421,3.421,0,0,0-4.53.634,3.907,3.907,0,0,1,1.262,2.5,2.075,2.075,0,0,1-.925,2.067,1.44,1.44,0,0,1-1.619-.3c-1.13-.965-.731-2.816.251-4.165a6.449,6.449,0,0,0-1.668-.817c-1.427-.479-2.492-.44-3.169.114-1.16.953-.889,3.16-.886,3.184a.363.363,0,0,1-.163.352.367.367,0,0,1-.388.006c-1.165-.716-2.667.229-3.548,1.528-1.1,1.623-1.349,3.906.577,5.347a5.935,5.935,0,0,0,2.425,1.143c-.186-1.682.452-3.531,1.439-3.991a1.2,1.2,0,0,1,1.528.5,2.5,2.5,0,0,1,0,3.422,3.08,3.08,0,0,1-2.048.856m9.187-3.081c-.077,0-.3.151-.465.605a3.15,3.15,0,0,0,.279,2.544c.041-.049.08-.1.117-.147a2.663,2.663,0,0,0,.4-2.473c-.116-.382-.262-.527-.327-.529Zm-8.2-1.073a.373.373,0,0,0-.16.04c-.589.275-1.241,1.818-1,3.4a2.394,2.394,0,0,0,1.7-.648,1.783,1.783,0,0,0-.052-2.464c-.2-.262-.368-.325-.485-.325m12.984-3.38a3.708,3.708,0,0,0-1.069.443c-1.092.663-1.594,1.641-1.492,1.931.036.1.275.108.47.083a2.532,2.532,0,0,0,2.032-2.127c.024-.106.044-.217.059-.331m-7.509-3.638c-.875,1.221-1.024,2.562-.34,3.146a.761.761,0,0,0,.817.207A1.416,1.416,0,0,0,133.54,4.5a3.152,3.152,0,0,0-1-1.988" transform="translate(-32.766 0)" fill="#261d2a"/>
          <path id="Trazado_1311578" data-name="Trazado 1311578" d="M6.134,58.676l38.592,6.579S80.161,51.341,83.06,51.864s27.942,1.293,32.573.414S143.4,38.019,147,41.873s14.851,82.217,14.851,82.217l-36.633,17.6s-33.153-.465-35.024-.275S60.325,154.98,56.257,153.881s-43.251-7.263-45.317-11.542S6.134,58.676,6.134,58.676" transform="translate(-1.667 -11.191)" fill="#604629"/>
          <path id="Trazado_1311579" data-name="Trazado 1311579" d="M17.229,69.364l34.2,5.084S81.474,62.936,84.043,63.341s32.385-.794,36.5-1.55S138.03,47.4,141.189,50.528c1.575,1.56,4.991,19.244,8.021,36.595L146.6,92.673l4.789,7.217c2.036,12.19,3.533,21.831,3.533,21.831l-25.478,13.946s-34.963,1.483-36.625,1.654-29.061,11.788-32.664,10.92-37.521-6.888-39.321-10.378c-.545-1.056-1.089-7.747-1.585-16.566l2.656-8.6-3.4-6.91c-.755-17.833-1.271-36.426-1.271-36.426" transform="translate(-4.682 -13.606)" fill="#eeebd6"/>
          <path id="Trazado_1311580" data-name="Trazado 1311580" d="M69.753,136.15c21.767,8.308,30.506-7.639,43.136-21.973,10.234-11.617,31.336-4.406,38.972-1.254-.678-4.061-1.416-8.4-2.178-12.767-19.369-5.517-40.373-.212-50.965,14.181-12.73,17.3-22.606,12.133-37.713,3.1-14.321-8.564-34.519-1.7-42.031,1.388.23,5.443.484,10.813.751,15.564,10.446-15.262,30.157-5.821,50.028,1.763" transform="translate(-5.157 -26.639)" fill="#76ada1"/>
          <path id="Trazado_1311581" data-name="Trazado 1311581" d="M167.865,140.271a.364.364,0,0,1-.361-.32l-8.9-73.875a.364.364,0,0,1,.723-.087l8.9,73.875a.364.364,0,0,1-.318.4l-.044,0" transform="translate(-43.105 -17.847)" fill="#261d2a"/>
          <path id="Trazado_1311582" data-name="Trazado 1311582" d="M117.789,142.176a.365.365,0,0,1-.362-.323l-8.313-74.861a.364.364,0,1,1,.724-.081l8.314,74.86a.364.364,0,0,1-.322.4l-.041,0" transform="translate(-29.654 -18.097)" fill="#261d2a"/>
          <path id="Trazado_1311583" data-name="Trazado 1311583" d="M67.806,74.962s10.339-29.617,14.33-29.4c2.58.138,12.906,12.665,12.906,12.665s12.715-32.417,19.229-24.114,21.923,36.047,20.838,38.217-67.351,4.872-67.3,2.635" transform="translate(-18.428 -8.9)" fill="#366400"/>
          <path id="Trazado_1311584" data-name="Trazado 1311584" d="M113.84,42.032s5.652-13.775,12.088-11.325c4.042,1.539,10.247,15.971,8.359,15.959s-5.407-7.957-5.861-6.191,1.817,11.853-.681,11.349-3.407-9.761-4.315-9.672-2.382,10.068-4.653,8.414c-.805-.586.974-9.447-.275-8.9s-7.054,6.469-4.662.368" transform="translate(-30.784 -8.266)" fill="#eaefe5"/>
          <path id="Trazado_1311585" data-name="Trazado 1311585" d="M79.084,56.65s3.994-9.475,6.151-8.466,9.136,9,8,10-6.3-3.82-6.525-2.937,1.817,8.322.568,8.448-2.385-5.3-3.179-5.926S82.4,64.2,80.921,63.7s1.113-4.98-.136-5.245-4.416,4.025-1.7-1.8" transform="translate(-21.203 -13.075)" fill="#eaefe5"/>
          <path id="Trazado_1311586" data-name="Trazado 1311586" d="M31.872,49.335s1.837,36.839,1.021,37.349-5.308,0-5.308,0,0-36.585,1.02-37.349,3.267,0,3.267,0" transform="translate(-7.497 -13.316)" fill="#d47e3a"/>
          <path id="Trazado_1311587" data-name="Trazado 1311587" d="M25.692,43.278s-3.981-8.575-11.33-.816,7.86,2.756,8.166,2.756-6.839.2-7.35,9.187,9.187-5,9.187-5-1.021,5.308,2.45,8.677,2.756-10.514,2.756-10.514,6.328,10.31,7.962,6.941S39.878,42.729,30.387,44.2c0,0,7.885-1.328,8.128-2.45S31.2,33.581,25.692,43.278" transform="translate(-3.358 -10.389)" fill="#76ada1"/>
          <path id="Trazado_1311588" data-name="Trazado 1311588" d="M17.581,46.578a.36.36,0,0,1-.25-.1.364.364,0,0,1-.015-.515,5.722,5.722,0,0,1,4.076-2.086h.023a4.636,4.636,0,0,1,3.127,1.288.364.364,0,0,1-.524.505,3.967,3.967,0,0,0-2.6-1.065h-.028a5.042,5.042,0,0,0-3.541,1.858.364.364,0,0,1-.264.114" transform="translate(-4.679 -11.925)" fill="#261d2a"/>
          <path id="Trazado_1311589" data-name="Trazado 1311589" d="M20.872,55.293h-.017a.364.364,0,0,1-.347-.38c.213-4.679,5.052-5.441,5.1-5.448a.364.364,0,0,1,.106.721c-.176.025-4.294.687-4.479,4.76a.364.364,0,0,1-.363.348" transform="translate(-5.573 -13.442)" fill="#261d2a"/>
          <path id="Trazado_1311590" data-name="Trazado 1311590" d="M32.4,45.938a.386.386,0,0,1-.117-.019.364.364,0,0,1-.229-.461c1.823-5.417,7.479-3.673,7.536-3.655a.364.364,0,0,1-.221.694c-.206-.065-5.033-1.538-6.625,3.193a.364.364,0,0,1-.345.248" transform="translate(-8.707 -11.284)" fill="#261d2a"/>
          <path id="Trazado_1311591" data-name="Trazado 1311591" d="M41.952,52.639a.364.364,0,0,1-.344-.244c-.051-.145-1.3-3.533-5.832-2.32a.364.364,0,0,1-.188-.7c5.205-1.385,6.695,2.744,6.708,2.786a.364.364,0,0,1-.225.462.38.38,0,0,1-.119.02" transform="translate(-9.598 -13.341)" fill="#261d2a"/>
          <path id="Trazado_1311592" data-name="Trazado 1311592" d="M32.49,56.59h-.013a.364.364,0,0,1-.351-.376c.074-2.19-.235-5.874-1.384-6.438a.365.365,0,0,1,.321-.655c1.944.956,1.812,6.489,1.79,7.118a.364.364,0,0,1-.363.351" transform="translate(-8.3 -13.34)" fill="#261d2a"/>
          <path id="Trazado_1311593" data-name="Trazado 1311593" d="M32.587,69.4H27.642a.364.364,0,1,1,0-.728h4.945a.364.364,0,1,1,0,.728" transform="translate(-7.414 -18.664)" fill="#261d2a"/>
          <path id="Trazado_1311594" data-name="Trazado 1311594" d="M32.713,77.321H28.107a.364.364,0,0,1,0-.728h4.606a.364.364,0,1,1,0,.728" transform="translate(-7.54 -20.816)" fill="#261d2a"/>
          <path id="Trazado_1311595" data-name="Trazado 1311595" d="M33.035,84.973h-4.76a.364.364,0,1,1,0-.728h4.76a.364.364,0,0,1,0,.728" transform="translate(-7.585 -22.896)" fill="#261d2a"/>
          <path id="Trazado_1311596" data-name="Trazado 1311596" d="M170.654,26.027s1.837,36.839,1.021,37.349-5.308,0-5.308,0,0-36.585,1.02-37.349,3.267,0,3.267,0" transform="translate(-45.215 -6.981)" fill="#d47e3a"/>
          <path id="Trazado_1311597" data-name="Trazado 1311597" d="M164.475,19.97s-3.981-8.574-11.33-.816S161,21.91,161.31,21.91s-6.839.2-7.35,9.187,9.187-5,9.187-5-1.021,5.309,2.45,8.677,2.756-10.514,2.756-10.514,6.328,10.31,7.962,6.941,2.346-11.777-7.145-10.309c0,0,7.885-1.328,8.128-2.45s-7.311-8.166-12.823,1.531" transform="translate(-41.076 -4.055)" fill="#76ada1"/>
          <path id="Trazado_1311598" data-name="Trazado 1311598" d="M156.363,23.271a.36.36,0,0,1-.25-.1.364.364,0,0,1-.015-.515,5.722,5.722,0,0,1,4.076-2.086h.023a4.636,4.636,0,0,1,3.127,1.288.364.364,0,0,1-.524.505,4.134,4.134,0,0,0-2.632-1.065,5.042,5.042,0,0,0-3.541,1.858.364.364,0,0,1-.264.114" transform="translate(-42.397 -5.591)" fill="#261d2a"/>
          <path id="Trazado_1311599" data-name="Trazado 1311599" d="M159.654,31.985h-.017a.363.363,0,0,1-.347-.379c.213-4.68,5.052-5.441,5.1-5.449a.369.369,0,0,1,.413.307.365.365,0,0,1-.307.414c-.175.025-4.293.687-4.479,4.76a.364.364,0,0,1-.363.347" transform="translate(-43.291 -7.108)" fill="#261d2a"/>
          <path id="Trazado_1311600" data-name="Trazado 1311600" d="M171.185,22.631a.386.386,0,0,1-.117-.019.364.364,0,0,1-.229-.461c1.822-5.417,7.48-3.673,7.537-3.655a.364.364,0,0,1-.222.694c-.205-.066-5.033-1.539-6.625,3.193a.364.364,0,0,1-.345.248" transform="translate(-46.425 -4.95)" fill="#261d2a"/>
          <path id="Trazado_1311601" data-name="Trazado 1311601" d="M180.734,29.331a.365.365,0,0,1-.344-.244c-.051-.145-1.3-3.533-5.832-2.319a.368.368,0,0,1-.446-.258.364.364,0,0,1,.258-.446c5.21-1.387,6.694,2.743,6.708,2.785a.364.364,0,0,1-.225.462.38.38,0,0,1-.119.02" transform="translate(-47.316 -7.006)" fill="#261d2a"/>
          <path id="Trazado_1311602" data-name="Trazado 1311602" d="M171.272,33.282h-.013a.364.364,0,0,1-.351-.377c.074-2.189-.234-5.873-1.383-6.437a.365.365,0,0,1,.321-.655c1.944.956,1.811,6.489,1.789,7.118a.364.364,0,0,1-.363.351" transform="translate(-46.017 -7.005)" fill="#261d2a"/>
          <path id="Trazado_1311603" data-name="Trazado 1311603" d="M171.369,46.1h-4.945a.364.364,0,0,1,0-.728h4.945a.364.364,0,1,1,0,.728" transform="translate(-45.131 -12.33)" fill="#261d2a"/>
          <path id="Trazado_1311604" data-name="Trazado 1311604" d="M171.5,54.013h-4.606a.364.364,0,1,1,0-.728H171.5a.364.364,0,1,1,0,.728" transform="translate(-45.257 -14.482)" fill="#261d2a"/>
          <path id="Trazado_1311605" data-name="Trazado 1311605" d="M171.817,61.665h-4.76a.364.364,0,1,1,0-.728h4.76a.364.364,0,1,1,0,.728" transform="translate(-45.303 -16.561)" fill="#261d2a"/>
          <path id="Trazado_1311606" data-name="Trazado 1311606" d="M22.132,100.244l12.906-.469s4.232-4.5,3.28-7.805-5.055,4.137-5.055,4.137,2.667-6.593,0-7.228-5.015,7.562-5.015,7.562-.192-8.372-2.625-7.6-1.164,8.6-1.164,8.6-2.01-7.041-4.232-5.478,1.9,8.274,1.9,8.274" transform="translate(-5.319 -24.132)" fill="#403955"/>
          <path id="Trazado_1311607" data-name="Trazado 1311607" d="M173.534,76l-9.508.573s-3.829-4.442-3.088-7.012,3.934,3.219,3.934,3.219-2.076-5.132,0-5.626,3.9,5.885,3.9,5.885.149-6.515,2.043-5.912.906,6.7.906,6.7,1.564-5.479,3.293-4.262S173.534,76,173.534,76" transform="translate(-43.713 -18.233)" fill="#403955"/>
          <path id="Trazado_1311608" data-name="Trazado 1311608" d="M122.189,86.578s1.376,22.1.765,22.4-3.976,0-3.976,0,0-21.945.765-22.4a4.207,4.207,0,0,1,2.447,0" transform="translate(-32.335 -23.474)" fill="#d47e3a"/>
          <path id="Trazado_1311609" data-name="Trazado 1311609" d="M117.56,82.092s-2.982-6.423-8.487-.612,5.888,2.065,6.117,2.065-5.123.153-5.505,6.882,6.882-3.747,6.882-3.747-.765,3.976,1.835,6.5,2.065-7.876,2.065-7.876,4.741,7.723,5.964,5.2,1.756-8.822-5.352-7.723c0,0,5.907-.994,6.089-1.835s-5.477-6.117-9.606,1.147" transform="translate(-29.235 -21.282)" fill="#76ada1"/>
          <path id="Trazado_1311610" data-name="Trazado 1311610" d="M111.45,84.622a.36.36,0,0,1-.25-.1.364.364,0,0,1-.015-.515,4.37,4.37,0,0,1,3.119-1.59h.017a3.573,3.573,0,0,1,2.408.992.364.364,0,0,1-.524.506,3.051,3.051,0,0,0-1.907-.77,3.687,3.687,0,0,0-2.585,1.363.364.364,0,0,1-.264.114" transform="translate(-30.191 -22.399)" fill="#261d2a"/>
          <path id="Trazado_1311611" data-name="Trazado 1311611" d="M113.916,91.149H113.9a.363.363,0,0,1-.347-.379c.163-3.58,3.862-4.163,3.9-4.168a.368.368,0,0,1,.412.307.364.364,0,0,1-.307.413c-.127.02-3.142.507-3.277,3.48a.364.364,0,0,1-.363.348" transform="translate(-30.861 -23.535)" fill="#261d2a"/>
          <path id="Trazado_1311612" data-name="Trazado 1311612" d="M122.553,84.143a.386.386,0,0,1-.117-.019.364.364,0,0,1-.229-.461c1.393-4.141,5.717-2.808,5.76-2.8a.364.364,0,0,1-.222.694c-.149-.047-3.685-1.122-4.848,2.333a.364.364,0,0,1-.345.248" transform="translate(-33.208 -21.92)" fill="#261d2a"/>
          <path id="Trazado_1311613" data-name="Trazado 1311613" d="M129.706,89.161a.364.364,0,0,1-.344-.245c-.037-.1-.947-2.566-4.259-1.68a.364.364,0,0,1-.188-.7c3.978-1.06,5.125,2.113,5.135,2.146a.364.364,0,0,1-.226.462.375.375,0,0,1-.119.02" transform="translate(-33.876 -23.459)" fill="#261d2a"/>
          <path id="Trazado_1311614" data-name="Trazado 1311614" d="M122.618,92.12h-.013a.364.364,0,0,1-.351-.376c.059-1.737-.208-4.355-.986-4.737a.365.365,0,0,1,.322-.655c1.477.726,1.419,4.64,1.392,5.417a.364.364,0,0,1-.363.351" transform="translate(-32.903 -23.458)" fill="#261d2a"/>
          <path id="Trazado_1311615" data-name="Trazado 1311615" d="M122.691,102.218h-3.7a.364.364,0,1,1,0-.728h3.7a.364.364,0,1,1,0,.728" transform="translate(-32.239 -27.583)" fill="#261d2a"/>
          <path id="Trazado_1311616" data-name="Trazado 1311616" d="M122.51,109.923h-3.45a.364.364,0,1,1,0-.728h3.45a.364.364,0,1,1,0,.728" transform="translate(-32.259 -29.677)" fill="#261d2a"/>
          <path id="Trazado_1311617" data-name="Trazado 1311617" d="M188.421,54.231s1.376,22.1.765,22.4-3.976,0-3.976,0,0-21.944.765-22.4a4.213,4.213,0,0,1,2.447,0" transform="translate(-50.336 -14.683)" fill="#d47e3a"/>
          <path id="Trazado_1311618" data-name="Trazado 1311618" d="M183.792,49.746s-2.982-6.423-8.487-.612,5.888,2.065,6.117,2.065-5.123.153-5.505,6.882,6.882-3.747,6.882-3.747-.765,3.976,1.835,6.5,2.065-7.876,2.065-7.876,4.741,7.723,5.964,5.2,1.756-8.822-5.352-7.723c0,0,5.907-.994,6.089-1.835s-5.477-6.117-9.606,1.147" transform="translate(-47.236 -12.491)" fill="#76ada1"/>
          <path id="Trazado_1311619" data-name="Trazado 1311619" d="M177.682,52.275a.36.36,0,0,1-.25-.1.364.364,0,0,1-.015-.515,4.37,4.37,0,0,1,3.119-1.59h.017a3.568,3.568,0,0,1,2.408.992.364.364,0,0,1-.523.506,2.911,2.911,0,0,0-1.907-.77,3.687,3.687,0,0,0-2.585,1.363.364.364,0,0,1-.264.114" transform="translate(-48.191 -13.608)" fill="#261d2a"/>
          <path id="Trazado_1311620" data-name="Trazado 1311620" d="M180.147,58.8h-.017a.363.363,0,0,1-.347-.379c.163-3.58,3.862-4.163,3.9-4.168a.369.369,0,0,1,.412.307.364.364,0,0,1-.307.413c-.128.02-3.142.507-3.278,3.48a.364.364,0,0,1-.363.348" transform="translate(-48.861 -14.744)" fill="#261d2a"/>
          <path id="Trazado_1311621" data-name="Trazado 1311621" d="M188.785,51.8a.386.386,0,0,1-.117-.019.364.364,0,0,1-.229-.461c1.393-4.141,5.716-2.809,5.76-2.8a.364.364,0,0,1-.221.694c-.151-.047-3.685-1.123-4.848,2.333a.364.364,0,0,1-.345.248" transform="translate(-51.208 -13.128)" fill="#261d2a"/>
          <path id="Trazado_1311622" data-name="Trazado 1311622" d="M195.938,56.815a.364.364,0,0,1-.344-.245c-.036-.1-.947-2.565-4.259-1.68a.364.364,0,0,1-.188-.7c3.98-1.058,5.125,2.113,5.135,2.146a.364.364,0,0,1-.226.462.376.376,0,0,1-.119.02" transform="translate(-51.876 -14.668)" fill="#261d2a"/>
          <path id="Trazado_1311623" data-name="Trazado 1311623" d="M188.849,59.775h-.013a.364.364,0,0,1-.351-.376c.059-1.737-.208-4.356-.985-4.737a.365.365,0,0,1,.321-.655c1.477.726,1.419,4.64,1.392,5.417a.364.364,0,0,1-.363.351" transform="translate(-50.903 -14.668)" fill="#261d2a"/>
          <path id="Trazado_1311624" data-name="Trazado 1311624" d="M188.923,69.871h-3.7a.364.364,0,0,1,0-.728h3.7a.364.364,0,1,1,0,.728" transform="translate(-50.239 -18.791)" fill="#261d2a"/>
          <path id="Trazado_1311625" data-name="Trazado 1311625" d="M188.742,77.577h-3.45a.364.364,0,0,1,0-.728h3.45a.364.364,0,1,1,0,.728" transform="translate(-50.259 -20.886)" fill="#261d2a"/>
          <path id="Trazado_1311626" data-name="Trazado 1311626" d="M56.284,68.734s1.376,22.1.765,22.4-3.976,0-3.976,0,0-21.945.765-22.4a4.207,4.207,0,0,1,2.447,0" transform="translate(-14.424 -18.625)" fill="#d47e3a"/>
          <path id="Trazado_1311627" data-name="Trazado 1311627" d="M51.655,64.248s-2.982-6.423-8.487-.612S49.055,65.7,49.285,65.7s-5.123.153-5.505,6.882,6.882-3.747,6.882-3.747-.765,3.976,1.835,6.5,2.065-7.876,2.065-7.876,4.741,7.723,5.964,5.2,1.757-8.822-5.352-7.723c0,0,5.907-.994,6.089-1.835s-5.477-6.117-9.606,1.147" transform="translate(-11.324 -16.432)" fill="#76ada1"/>
          <path id="Trazado_1311628" data-name="Trazado 1311628" d="M45.545,66.778a.36.36,0,0,1-.25-.1.364.364,0,0,1-.015-.515,4.37,4.37,0,0,1,3.119-1.59,3.521,3.521,0,0,1,2.426.992.364.364,0,0,1-.524.506,2.887,2.887,0,0,0-1.885-.77h-.022a3.686,3.686,0,0,0-2.585,1.363.364.364,0,0,1-.264.114" transform="translate(-12.279 -17.549)" fill="#261d2a"/>
          <path id="Trazado_1311629" data-name="Trazado 1311629" d="M48.01,73.3h-.017a.363.363,0,0,1-.347-.379c.163-3.58,3.862-4.162,3.9-4.168a.364.364,0,0,1,.106.72c-.128.02-3.142.506-3.278,3.479a.364.364,0,0,1-.363.348" transform="translate(-12.949 -18.685)" fill="#261d2a"/>
          <path id="Trazado_1311630" data-name="Trazado 1311630" d="M56.648,66.3a.386.386,0,0,1-.117-.019.364.364,0,0,1-.229-.461c1.393-4.143,5.715-2.809,5.76-2.8a.364.364,0,0,1-.222.694c-.15-.047-3.686-1.124-4.848,2.333a.364.364,0,0,1-.345.248" transform="translate(-15.297 -17.07)" fill="#261d2a"/>
          <path id="Trazado_1311631" data-name="Trazado 1311631" d="M63.8,71.316a.364.364,0,0,1-.344-.245c-.037-.1-.949-2.564-4.259-1.679a.364.364,0,1,1-.188-.7c3.983-1.063,5.125,2.113,5.135,2.145a.364.364,0,0,1-.226.462.375.375,0,0,1-.119.02" transform="translate(-15.964 -18.609)" fill="#261d2a"/>
          <path id="Trazado_1311632" data-name="Trazado 1311632" d="M56.712,74.277H56.7a.364.364,0,0,1-.351-.377c.059-1.736-.208-4.355-.985-4.736a.365.365,0,0,1,.321-.655c1.477.726,1.419,4.64,1.392,5.417a.364.364,0,0,1-.363.351" transform="translate(-14.991 -18.609)" fill="#261d2a"/>
          <path id="Trazado_1311633" data-name="Trazado 1311633" d="M56.786,84.374h-3.7a.364.364,0,0,1,0-.728h3.7a.364.364,0,0,1,0,.728" transform="translate(-14.327 -22.733)" fill="#261d2a"/>
          <path id="Trazado_1311634" data-name="Trazado 1311634" d="M56.605,92.079h-3.45a.364.364,0,0,1,0-.728h3.45a.364.364,0,1,1,0,.728" transform="translate(-14.347 -24.827)" fill="#261d2a"/>
          <path id="Trazado_1311635" data-name="Trazado 1311635" d="M105.091,137.711s1.376,22.1.765,22.4-3.976,0-3.976,0,0-21.945.765-22.4a4.207,4.207,0,0,1,2.447,0" transform="translate(-27.689 -37.371)" fill="#59512a"/>
          <path id="Trazado_1311636" data-name="Trazado 1311636" d="M100.462,133.225s-2.982-6.423-8.487-.612,5.888,2.065,6.117,2.065-5.123.153-5.505,6.882,6.882-3.747,6.882-3.747-.765,3.976,1.835,6.5,2.065-7.876,2.065-7.876,4.741,7.723,5.964,5.2,1.757-8.822-5.352-7.723c0,0,5.907-.994,6.088-1.835s-5.476-6.117-9.605,1.147" transform="translate(-24.589 -35.179)" fill="#ffe878"/>
          <path id="Trazado_1311637" data-name="Trazado 1311637" d="M94.353,135.754a.36.36,0,0,1-.25-.1.364.364,0,0,1-.015-.515,4.368,4.368,0,0,1,3.119-1.59,3.5,3.5,0,0,1,2.426.992.364.364,0,0,1-.524.506,2.749,2.749,0,0,0-1.907-.77,3.687,3.687,0,0,0-2.585,1.363.364.364,0,0,1-.264.114" transform="translate(-25.544 -36.295)" fill="#261d2a"/>
          <path id="Trazado_1311638" data-name="Trazado 1311638" d="M96.818,142.282H96.8a.363.363,0,0,1-.347-.379c.163-3.581,3.862-4.163,3.9-4.168a.364.364,0,0,1,.106.72c-.128.02-3.142.507-3.277,3.48a.364.364,0,0,1-.363.348" transform="translate(-26.214 -37.432)" fill="#261d2a"/>
          <path id="Trazado_1311639" data-name="Trazado 1311639" d="M105.455,135.274a.386.386,0,0,1-.117-.019.364.364,0,0,1-.229-.461c1.393-4.143,5.716-2.809,5.76-2.8a.364.364,0,0,1-.222.694c-.15-.047-3.686-1.123-4.848,2.333a.364.364,0,0,1-.345.248" transform="translate(-28.561 -35.816)" fill="#261d2a"/>
          <path id="Trazado_1311640" data-name="Trazado 1311640" d="M112.608,140.294a.364.364,0,0,1-.344-.245c-.037-.1-.946-2.564-4.259-1.679a.364.364,0,1,1-.188-.7c3.985-1.06,5.125,2.113,5.135,2.145a.365.365,0,0,1-.226.463.376.376,0,0,1-.119.02" transform="translate(-29.229 -37.355)" fill="#261d2a"/>
          <path id="Trazado_1311641" data-name="Trazado 1311641" d="M105.52,143.253h-.013a.364.364,0,0,1-.351-.376c.059-1.737-.208-4.356-.986-4.737a.365.365,0,0,1,.322-.655c1.477.726,1.419,4.64,1.392,5.417a.364.364,0,0,1-.363.351" transform="translate(-28.256 -37.355)" fill="#261d2a"/>
          <path id="Trazado_1311642" data-name="Trazado 1311642" d="M105.593,153.35h-3.7a.364.364,0,0,1,0-.728h3.7a.364.364,0,0,1,0,.728" transform="translate(-27.592 -41.479)" fill="#261d2a"/>
          <path id="Trazado_1311643" data-name="Trazado 1311643" d="M105.412,161.056h-3.45a.364.364,0,1,1,0-.728h3.45a.364.364,0,1,1,0,.728" transform="translate(-27.612 -43.573)" fill="#261d2a"/>
          <path id="Trazado_1311644" data-name="Trazado 1311644" d="M77.622,115.084l17.8-.768s3.483-4.626,3.841-9.647-6.111,5.453-6.111,4.969,1.513-7.406-.527-8.375-3.978,8.312-3.978,8.312,1.719-9.7-.468-9.813-3.477,9.813-3.477,9.813-1.363-11.074-3.3-8.994,0,8.994,0,8.994-3.1-8.747-5.135-6.253S77.4,111.01,77.4,111.01s-4.674-6.873-6.038-4.025,6.264,8.1,6.264,8.1" transform="translate(-19.349 -27.113)" fill="#403955"/>
          <path id="Trazado_1311645" data-name="Trazado 1311645" d="M155.15,101.612s1.837,36.839,1.021,37.349-5.308,0-5.308,0,0-36.585,1.02-37.349,3.267,0,3.267,0" transform="translate(-41.001 -27.523)" fill="#59512a"/>
          <path id="Trazado_1311646" data-name="Trazado 1311646" d="M148.971,95.555s-3.981-8.575-11.33-.816,7.86,2.756,8.166,2.756-6.839.2-7.35,9.187,9.187-5,9.187-5-1.021,5.308,2.45,8.677,2.756-10.514,2.756-10.514,6.328,10.31,7.962,6.941,2.346-11.776-7.145-10.309c0,0,7.885-1.327,8.128-2.45s-7.311-8.166-12.823,1.531" transform="translate(-36.863 -24.596)" fill="#ffe878"/>
          <path id="Trazado_1311647" data-name="Trazado 1311647" d="M140.859,98.855a.364.364,0,0,1-.264-.614,5.722,5.722,0,0,1,4.076-2.086,4.453,4.453,0,0,1,3.15,1.288.363.363,0,0,1-.009.513.366.366,0,0,1-.515-.008,3.967,3.967,0,0,0-2.6-1.065h-.028a5.039,5.039,0,0,0-3.541,1.858.363.363,0,0,1-.264.113" transform="translate(-38.183 -26.133)" fill="#261d2a"/>
          <path id="Trazado_1311648" data-name="Trazado 1311648" d="M144.15,107.57h-.017a.363.363,0,0,1-.347-.379c.213-4.68,5.052-5.441,5.1-5.449a.368.368,0,0,1,.412.307.364.364,0,0,1-.307.414c-.175.025-4.294.687-4.479,4.76a.364.364,0,0,1-.363.348" transform="translate(-39.077 -27.65)" fill="#261d2a"/>
          <path id="Trazado_1311649" data-name="Trazado 1311649" d="M155.681,98.215a.381.381,0,0,1-.117-.018.365.365,0,0,1-.229-.462c1.823-5.417,7.48-3.671,7.537-3.654a.364.364,0,0,1-.222.694c-.205-.066-5.033-1.539-6.625,3.193a.364.364,0,0,1-.345.248" transform="translate(-42.211 -25.493)" fill="#261d2a"/>
          <path id="Trazado_1311650" data-name="Trazado 1311650" d="M165.23,104.915a.365.365,0,0,1-.344-.244c-.051-.145-1.3-3.533-5.832-2.319a.364.364,0,1,1-.188-.7c5.21-1.387,6.694,2.743,6.708,2.785a.365.365,0,0,1-.225.462.4.4,0,0,1-.119.019" transform="translate(-43.102 -27.548)" fill="#261d2a"/>
          <path id="Trazado_1311651" data-name="Trazado 1311651" d="M155.768,108.867h-.013a.364.364,0,0,1-.351-.376c.074-2.19-.235-5.874-1.384-6.437a.365.365,0,0,1,.322-.655c1.944.956,1.811,6.489,1.789,7.118a.364.364,0,0,1-.363.351" transform="translate(-41.804 -27.547)" fill="#261d2a"/>
          <path id="Trazado_1311652" data-name="Trazado 1311652" d="M155.866,121.68h-4.945a.364.364,0,1,1,0-.728h4.945a.364.364,0,1,1,0,.728" transform="translate(-40.918 -32.872)" fill="#261d2a"/>
          <path id="Trazado_1311653" data-name="Trazado 1311653" d="M155.992,129.6h-4.606a.364.364,0,0,1,0-.728h4.606a.364.364,0,1,1,0,.728" transform="translate(-41.044 -35.024)" fill="#261d2a"/>
          <path id="Trazado_1311654" data-name="Trazado 1311654" d="M156.313,137.25h-4.76a.364.364,0,1,1,0-.728h4.76a.364.364,0,0,1,0,.728" transform="translate(-41.089 -37.103)" fill="#261d2a"/>
          <path id="Trazado_1311655" data-name="Trazado 1311655" d="M140.211,150.131l18.718-.443a19.129,19.129,0,0,0,3.461-9.1c.358-5.021-6.111,5.453-6.111,4.969s1.513-7.406-.527-8.375-3.978,8.312-3.978,8.312,1.718-9.7-.468-9.814-3.477,9.814-3.477,9.814-1.363-11.075-3.3-9,0,9,0,9-3.1-8.747-5.136-6.253,1.132,7.688,1.132,7.688-4.674-6.874-6.037-4.026,5.723,7.224,5.723,7.224" transform="translate(-36.503 -36.876)" fill="#403955"/>
          <path id="Trazado_1311656" data-name="Trazado 1311656" d="M72.831,128.829a.363.363,0,0,1-.263-.112,12.228,12.228,0,0,0-12.14-3.242.365.365,0,0,1-.234-.69,12.977,12.977,0,0,1,12.9,3.428.364.364,0,0,1-.263.616" transform="translate(-16.292 -33.777)" fill="#fdfeff"/>
          <path id="Trazado_1311657" data-name="Trazado 1311657" d="M84.051,137.3h-.007a16.631,16.631,0,0,1-9.464-3.624,18.7,18.7,0,0,0-7.051-4.018.365.365,0,0,1,.152-.713c.13.028,3.232.717,7.366,4.172a16.184,16.184,0,0,0,9.012,3.454.364.364,0,0,1-.007.728" transform="translate(-18.274 -35.043)" fill="#fdfeff"/>
          <path id="Trazado_1311658" data-name="Trazado 1311658" d="M123.8,129.381a.364.364,0,0,1-.213-.66c.068-.05,6.805-4.9,8.391-8.222a.364.364,0,1,1,.657.314c-1.666,3.486-8.34,8.3-8.623,8.5a.358.358,0,0,1-.211.068" transform="translate(-33.546 -32.693)" fill="#fdfeff"/>
          <path id="Trazado_1311659" data-name="Trazado 1311659" d="M124.517,134.682a.364.364,0,0,1-.081-.719c7.121-1.628,10.843-10.623,10.88-10.713a.364.364,0,1,1,.674.273c-.155.384-3.9,9.436-11.392,11.149a.351.351,0,0,1-.082.009" transform="translate(-33.742 -33.435)" fill="#fdfeff"/>
          <path id="Trazado_1311660" data-name="Trazado 1311660" d="M191.071,107.3a.361.361,0,0,1-.259-.108c-.044-.044-4.382-4.3-13.045-2.228a.362.362,0,0,1-.439-.269.366.366,0,0,1,.269-.439c9.09-2.176,13.549,2.238,13.734,2.426a.364.364,0,0,1-.26.619" transform="translate(-48.191 -28.17)" fill="#fdfeff"/>
          <path id="Trazado_1311661" data-name="Trazado 1311661" d="M22.18,134.9a.365.365,0,0,1-.321-.535,8.253,8.253,0,0,1,8.314-3.868.364.364,0,0,1,.313.409.359.359,0,0,1-.409.313,7.382,7.382,0,0,0-7.576,3.487.365.365,0,0,1-.322.193" transform="translate(-5.929 -35.444)" fill="#fdfeff"/>
          <path id="Trazado_1311662" data-name="Trazado 1311662" d="M99.28,75.257a.36.36,0,0,1-.182-.049.364.364,0,0,1-.133-.5l4.216-7.3a.364.364,0,1,1,.631.364l-4.216,7.3a.365.365,0,0,1-.316.182" transform="translate(-26.883 -18.271)" fill="#261d2a"/>
          <path id="Trazado_1311663" data-name="Trazado 1311663" d="M72.782,157.568a.364.364,0,0,1-.361-.321L63.7,83.455a.364.364,0,0,1,.723-.086l8.723,73.792a.364.364,0,0,1-.319.4.284.284,0,0,1-.043,0" transform="translate(-17.311 -22.57)" fill="#261d2a"/>
          <path id="Trazado_1311664" data-name="Trazado 1311664" d="M41.6,113.187s1.837,36.839,1.021,37.349-5.308,0-5.308,0,0-36.585,1.02-37.349,3.267,0,3.267,0" transform="translate(-10.14 -30.669)" fill="#59512a"/>
          <path id="Trazado_1311665" data-name="Trazado 1311665" d="M35.418,107.131s-3.981-8.575-11.33-.816,7.86,2.756,8.166,2.756-6.839.2-7.35,9.187,9.187-5,9.187-5-1.021,5.308,2.45,8.677S39.3,111.418,39.3,111.418s6.328,10.31,7.962,6.941,2.346-11.777-7.145-10.309c0,0,7.885-1.328,8.128-2.45s-7.311-8.166-12.823,1.531" transform="translate(-6.002 -27.742)" fill="#ffe878"/>
          <path id="Trazado_1311666" data-name="Trazado 1311666" d="M27.307,110.431a.36.36,0,0,1-.25-.1.364.364,0,0,1-.015-.515,5.72,5.72,0,0,1,4.076-2.086h.023a4.636,4.636,0,0,1,3.127,1.287.364.364,0,0,1-.524.505,3.967,3.967,0,0,0-2.6-1.065h-.028a5.042,5.042,0,0,0-3.541,1.858.364.364,0,0,1-.264.114" transform="translate(-7.323 -29.279)" fill="#261d2a"/>
          <path id="Trazado_1311667" data-name="Trazado 1311667" d="M30.6,119.145H30.58a.362.362,0,0,1-.347-.379c.214-4.68,5.052-5.441,5.1-5.449a.368.368,0,0,1,.412.308.363.363,0,0,1-.307.413c-.175.025-4.294.687-4.479,4.76a.364.364,0,0,1-.363.347" transform="translate(-8.216 -30.796)" fill="#261d2a"/>
          <path id="Trazado_1311668" data-name="Trazado 1311668" d="M42.128,109.791a.386.386,0,0,1-.117-.019.364.364,0,0,1-.229-.461c1.823-5.417,7.479-3.673,7.536-3.655a.364.364,0,0,1-.221.694c-.205-.066-5.033-1.537-6.625,3.193a.364.364,0,0,1-.345.248" transform="translate(-11.35 -28.638)" fill="#261d2a"/>
          <path id="Trazado_1311669" data-name="Trazado 1311669" d="M51.678,116.491a.365.365,0,0,1-.344-.244c-.051-.145-1.3-3.535-5.833-2.32a.364.364,0,0,1-.188-.7c5.208-1.388,6.695,2.744,6.709,2.785a.365.365,0,0,1-.225.462.377.377,0,0,1-.119.02" transform="translate(-12.242 -30.694)" fill="#261d2a"/>
          <path id="Trazado_1311670" data-name="Trazado 1311670" d="M42.215,120.443H42.2a.364.364,0,0,1-.351-.376c.074-2.19-.235-5.875-1.384-6.439a.364.364,0,1,1,.322-.653c1.944.956,1.811,6.489,1.789,7.118a.364.364,0,0,1-.363.351" transform="translate(-10.943 -30.693)" fill="#261d2a"/>
          <path id="Trazado_1311671" data-name="Trazado 1311671" d="M42.313,133.256H37.368a.364.364,0,1,1,0-.728h4.945a.364.364,0,1,1,0,.728" transform="translate(-10.057 -36.018)" fill="#261d2a"/>
          <path id="Trazado_1311672" data-name="Trazado 1311672" d="M42.439,141.173H37.832a.364.364,0,1,1,0-.728h4.607a.364.364,0,1,1,0,.728" transform="translate(-10.183 -38.17)" fill="#261d2a"/>
          <path id="Trazado_1311673" data-name="Trazado 1311673" d="M42.76,148.826H38a.364.364,0,1,1,0-.728h4.76a.364.364,0,1,1,0,.728" transform="translate(-10.228 -40.249)" fill="#261d2a"/>
          <path id="Trazado_1311674" data-name="Trazado 1311674" d="M59.668,134.955s1.376,22.1.765,22.4-3.976,0-3.976,0,0-21.945.765-22.4a4.207,4.207,0,0,1,2.447,0" transform="translate(-15.344 -36.622)" fill="#59512a"/>
          <path id="Trazado_1311675" data-name="Trazado 1311675" d="M55.039,130.469s-2.982-6.423-8.487-.612,5.888,2.065,6.117,2.065-5.123.153-5.505,6.882,6.882-3.747,6.882-3.747-.765,3.976,1.835,6.5,2.065-7.876,2.065-7.876,4.741,7.723,5.964,5.2,1.757-8.822-5.352-7.723c0,0,5.907-.994,6.089-1.835s-5.477-6.117-9.606,1.147" transform="translate(-12.244 -34.43)" fill="#ffe878"/>
          <path id="Trazado_1311676" data-name="Trazado 1311676" d="M48.93,133a.364.364,0,0,1-.264-.614,4.37,4.37,0,0,1,3.119-1.591H51.8a3.573,3.573,0,0,1,2.408.991.364.364,0,0,1-.523.508,2.88,2.88,0,0,0-1.885-.77H51.78a3.692,3.692,0,0,0-2.585,1.363.361.361,0,0,1-.264.114" transform="translate(-13.199 -35.546)" fill="#261d2a"/>
          <path id="Trazado_1311677" data-name="Trazado 1311677" d="M51.395,139.526h-.017a.363.363,0,0,1-.347-.379c.163-3.581,3.862-4.163,3.9-4.168a.368.368,0,0,1,.412.307.364.364,0,0,1-.306.413c-.128.02-3.142.507-3.278,3.48a.364.364,0,0,1-.363.348" transform="translate(-13.869 -36.683)" fill="#261d2a"/>
          <path id="Trazado_1311678" data-name="Trazado 1311678" d="M60.032,132.519a.381.381,0,0,1-.117-.018.365.365,0,0,1-.229-.462c1.393-4.141,5.716-2.809,5.76-2.795a.364.364,0,0,1-.221.693c-.15-.047-3.685-1.123-4.848,2.333a.364.364,0,0,1-.345.248" transform="translate(-16.216 -35.067)" fill="#261d2a"/>
          <path id="Trazado_1311679" data-name="Trazado 1311679" d="M67.185,137.538a.365.365,0,0,1-.344-.245c-.039-.109-.95-2.563-4.259-1.68a.364.364,0,0,1-.188-.7c3.979-1.06,5.125,2.114,5.135,2.145a.365.365,0,0,1-.226.463.376.376,0,0,1-.119.02" transform="translate(-16.884 -36.607)" fill="#261d2a"/>
          <path id="Trazado_1311680" data-name="Trazado 1311680" d="M60.1,140.5h-.013a.364.364,0,0,1-.351-.377c.059-1.736-.208-4.355-.985-4.737a.364.364,0,0,1,.321-.654c1.477.726,1.419,4.64,1.392,5.417a.364.364,0,0,1-.363.351" transform="translate(-15.911 -36.606)" fill="#261d2a"/>
          <path id="Trazado_1311681" data-name="Trazado 1311681" d="M60.17,150.6h-3.7a.364.364,0,1,1,0-.728h3.7a.364.364,0,1,1,0,.728" transform="translate(-15.247 -40.73)" fill="#261d2a"/>
          <path id="Trazado_1311682" data-name="Trazado 1311682" d="M59.99,158.3H56.539a.364.364,0,0,1,0-.728H59.99a.364.364,0,1,1,0,.728" transform="translate(-15.267 -42.824)" fill="#261d2a"/>
          <path id="Trazado_1311683" data-name="Trazado 1311683" d="M34.077,165.853h18.9a23.1,23.1,0,0,0,3.281-9.54c.358-5.02-6.111,5.454-6.111,4.971s1.513-7.407-.527-8.375-3.978,8.311-3.978,8.311,1.1-8.2-1.858-8.478c-2.18-.2-2.086,8.478-2.086,8.478s-.9-9.393-2.839-7.313-.461,7.313-.461,7.313-2.429-7.743-4.465-5.25.46,6.684.46,6.684-3.19-5.685-4.553-2.836,4.239,6.034,4.239,6.034" transform="translate(-8.051 -41.511)" fill="#403955"/>
          <path id="Trazado_1311684" data-name="Trazado 1311684" d="M212.861,151.139c10.689-4.055,6.176-29.562-.074-33.434s-6.936,3.056-6.936,3.056c-7.06-9.629-9.118-.038-9.118-.038-5.829-8.673-10.124,5.789-10.124,5.789s-5.181-36.24-14.893-27.163,8.549,34.87,6.609,40.326-14.953-10.923-24.761,1.933c-5.446,7.137,24.066,11.04,24.066,11.04s1.822,17.886,4.811,18.964,32.255-4.828,33.656-6.534-3.236-13.94-3.236-13.94" transform="translate(-41.553 -26.604)" fill="#dd988b"/>
          <path id="Trazado_1311685" data-name="Trazado 1311685" d="M160.013,161.222a14.562,14.562,0,0,1-2.9-1,.366.366,0,0,1-.17-.486.37.37,0,0,1,.486-.17c1.317.632,4.907,1.93,5.7.379a.752.752,0,0,0,.018-.7c-.56-1.227-3.737-2.258-4.915-2.552a.364.364,0,0,1-.265-.441.384.384,0,0,1,.441-.265c.468.116,4.6,1.19,5.4,2.956a1.486,1.486,0,0,1-.032,1.33c-.64,1.258-2.268,1.263-3.755.944" transform="translate(-42.642 -42.394)" fill="#261d2a"/>
          <path id="Trazado_1311686" data-name="Trazado 1311686" d="M181.492,111.548c-.062-.013-.125-.03-.191-.05-3.375-1.058-4.219-6.794-4.253-7.038a.364.364,0,1,1,.721-.1c.008.055.813,5.524,3.75,6.444a.75.75,0,0,0,.8-.111c1.226-1.055.757-6.049.472-7.884a.364.364,0,0,1,.719-.111c.111.716,1.036,7.04-.716,8.548a1.444,1.444,0,0,1-1.3.3" transform="translate(-48.117 -27.827)" fill="#261d2a"/>
          <path id="Trazado_1311687" data-name="Trazado 1311687" d="M214.1,138.414a.337.337,0,0,1-.111-.044.364.364,0,0,1-.125-.5c1.747-2.909-1.2-8.533-1.225-8.589a.364.364,0,0,1,.643-.341c.13.245,3.165,6.044,1.206,9.306a.364.364,0,0,1-.388.168" transform="translate(-57.778 -34.99)" fill="#261d2a"/>
          <path id="Trazado_1311688" data-name="Trazado 1311688" d="M227.729,138.952a.36.36,0,0,1-.157-.076.365.365,0,0,1-.045-.513,4.722,4.722,0,0,0,1.215-3.682c-.354-2.91-3.446-5.2-3.477-5.225a.364.364,0,0,1,.429-.588c.138.1,3.375,2.5,3.771,5.722a5.425,5.425,0,0,1-1.38,4.241.363.363,0,0,1-.356.122" transform="translate(-61.181 -35.004)" fill="#261d2a"/>
          <path id="Trazado_1311689" data-name="Trazado 1311689" d="M185.052,129.016a4.821,4.821,0,0,1-1.376-.511.364.364,0,0,1,.384-.619c.131.08,3.223,1.918,5.581-1.813a.369.369,0,0,1,.5-.113.365.365,0,0,1,.113.5c-1.717,2.718-3.842,2.845-5.2,2.553" transform="translate(-49.872 -34.218)" fill="#261d2a"/>
          <path id="Trazado_1311690" data-name="Trazado 1311690" d="M185.743,133.243a.364.364,0,0,1,.082-.72c.915.013,3.433-.223,4.092-1.461a.364.364,0,0,1,.643.343c-1,1.883-4.594,1.849-4.746,1.846a.33.33,0,0,1-.071-.008" transform="translate(-50.402 -35.567)" fill="#261d2a"/>
          <path id="Trazado_1311691" data-name="Trazado 1311691" d="M176.807,164.852a.364.364,0,0,1-.124-.661,2.876,2.876,0,0,0,1.4-1.8,2.288,2.288,0,0,0-.347-1.595.364.364,0,0,1,.588-.43,2.992,2.992,0,0,1,.478,2.144,3.556,3.556,0,0,1-1.716,2.291.363.363,0,0,1-.277.052" transform="translate(-47.973 -43.543)" fill="#261d2a"/>
          <path id="Trazado_1311692" data-name="Trazado 1311692" d="M44.018,189.9s4.786-9.723-2.866-15.087c-6.665-4.672-12.732-4.432-12.732-4.432s9.978-15.1,6.566-21.009-23.275,14.664-23.3,21.647c0,0-3.581-22.68-4.865-30.523-.119-.728-9.479,11.762-6.073,25.54C5.22,184.138,13.913,192.148,13.913,203c0,4.842,29.583.241,32.168-.864S44.018,189.9,44.018,189.9" transform="translate(0 -38.175)" fill="#dd988b"/>
          <path id="Trazado_1311693" data-name="Trazado 1311693" d="M37.64,158.439a5.884,5.884,0,0,1-3.743-1.673.364.364,0,0,1,.518-.512,4.948,4.948,0,0,0,3.7,1.421c1.311-.194,2.471-1.226,3.445-3.069a.364.364,0,0,1,.644.342c-1.091,2.059-2.432,3.219-3.988,3.448a3.834,3.834,0,0,1-.571.042" transform="translate(-9.184 -41.966)" fill="#261d2a"/>
          <path id="Trazado_1311694" data-name="Trazado 1311694" d="M55.557,209.931a.364.364,0,0,1-.22-.655c.046-.034,4.578-3.5,4.907-7.5a.364.364,0,0,1,.726.06c-.357,4.33-5,7.876-5.194,8.026a.364.364,0,0,1-.219.074" transform="translate(-15 -54.746)" fill="#261d2a"/>
          <path id="Trazado_1311695" data-name="Trazado 1311695" d="M18,193.582a.365.365,0,0,1-.277-.127c-4.005-4.678-2.377-11-2.3-11.263a.364.364,0,1,1,.7.188c-.016.062-1.6,6.22,2.156,10.6a.364.364,0,0,1-.277.6" transform="translate(-4.085 -49.442)" fill="#261d2a"/>
          <path id="Trazado_1311696" data-name="Trazado 1311696" d="M25.922,172.134a2.542,2.542,0,0,1-1.268-.314,3.219,3.219,0,0,1-1.42-2.587.364.364,0,1,1,.723-.091,2.556,2.556,0,0,0,1.052,2.042,2.533,2.533,0,0,0,2,.007.364.364,0,0,1,.293.667,3.755,3.755,0,0,1-1.379.275" transform="translate(-6.314 -45.882)" fill="#261d2a"/>
          <path id="Trazado_1311697" data-name="Trazado 1311697" d="M224.22,89.327l-.009-.007a2.554,2.554,0,1,1,.009.007m2.631-3.41a1.79,1.79,0,0,0-2.194,2.828l.007,0a1.794,1.794,0,0,0,2.505-.322,1.79,1.79,0,0,0-.318-2.511" transform="translate(-60.671 -23.051)" fill="#261d2a"/>
          <path id="Trazado_1311698" data-name="Trazado 1311698" d="M9.882,33.447l-.009-.007a2.555,2.555,0,1,1,.009.007m2.631-3.41a1.79,1.79,0,0,0-2.193,2.828l.006,0a1.794,1.794,0,0,0,2.505-.322,1.79,1.79,0,0,0-.318-2.511" transform="translate(-2.419 -7.864)" fill="#261d2a"/>
        </g>
      </g>
    </g>
  </g>
</svg>
