<svg xmlns="http://www.w3.org/2000/svg" width="84" height="84" viewBox="0 0 84 84">
  <g id="Grupo_1207590" data-name="Grupo 1207590" transform="translate(-221.711 -6799)">
    <g id="Grupo_1207531" data-name="Grupo 1207531">
      <circle id="Elipse_13789" data-name="Elipse 13789" cx="42" cy="42" r="42" transform="translate(221.711 6799)" fill="#f0b068"/>
      <g id="Grupo_1207530" data-name="Grupo 1207530" transform="translate(231.711 6809.005)">
        <path id="Trazado_1356870" data-name="Trazado 1356870" d="M37.32,14.47H2.5V58.96H37.32ZM10.67,22.86l3.87-2.21a.485.485,0,0,1,.39-.04l7.46,2.24,2.45-2.45a3.94,3.94,0,0,1,1.44-.92c.02,0,.03-.02.05-.02a4,4,0,0,1,.57-.15c.12-.02.22-.03.32-.04.22-.02.41-.02.59-.02a3.623,3.623,0,0,1,.68.08c.13.03.23.05.29.07a.84.84,0,0,1,.12.04.527.527,0,0,1,.31.31s.03.09.03.1c.02.08.05.17.07.29a4.233,4.233,0,0,1,.08.69c0,.19,0,.39-.02.59a3.106,3.106,0,0,1-.04.32,2.909,2.909,0,0,1-.15.58.212.212,0,0,1-.03.07,3.877,3.877,0,0,1-.91,1.43l-2.45,2.45,2.24,7.46a.529.529,0,0,1-.04.39l-2.21,3.87a.5.5,0,0,1-.43.25h-.03a.489.489,0,0,1-.43-.31l-3.13-7.79A37.607,37.607,0,0,1,18.1,33.2l.28,3.19a.948.948,0,0,1-.66,1,.961.961,0,0,1-1.13-.41L15.2,34.74a3.168,3.168,0,0,1-.8-.24.571.571,0,0,1-.26-.25,3.056,3.056,0,0,1-.24-.8l-2.24-1.39a.957.957,0,0,1-.41-1.13.938.938,0,0,1,1-.66l3.19.28a40.5,40.5,0,0,1,3.06-3.66l-7.79-3.13a.489.489,0,0,1-.31-.43.507.507,0,0,1,.25-.47ZM28.73,54.19H11.1a2.27,2.27,0,1,1,0-4.54H28.73a2.27,2.27,0,0,1,0,4.54Zm0-8.57H11.1a2.27,2.27,0,0,1,0-4.54H28.73a2.27,2.27,0,0,1,0,4.54Z" fill="#f4da7a"/>
        <path id="Trazado_1356871" data-name="Trazado 1356871" d="M38.14,13.58a.513.513,0,0,1,.15.23.185.185,0,0,0,.02.07c0,.03.02.06.02.09V49.53H61.5V5.04H27.59Zm5.95-1.42H55.73a2.27,2.27,0,1,1,0,4.54H44.09a2.27,2.27,0,0,1,0-4.54Zm0,8.57H55.73a2.27,2.27,0,1,1,0,4.54H44.09a2.27,2.27,0,0,1,0-4.54Zm0,8.57H55.73a2.27,2.27,0,1,1,0,4.54H44.09a2.27,2.27,0,1,1,0-4.54Zm0,8.57H55.73a2.27,2.27,0,1,1,0,4.54H44.09a2.27,2.27,0,0,1,0-4.54Z" fill="#fef096"/>
        <path id="Trazado_1356872" data-name="Trazado 1356872" d="M62,4.04H26.18l-.09.03a.3.3,0,0,0-.13.02c-.01,0-.02.02-.03.03a.345.345,0,0,0-.09.08.642.642,0,0,0-.1.13c0,.02-.03.02-.03.04v.08c0,.03-.03.06-.03.09v8.92H2a.5.5,0,0,0-.5.5V59.45a.5.5,0,0,0,.5.5H37.82a.5.5,0,0,0,.5-.5V50.53H62a.5.5,0,0,0,.5-.5V4.54a.5.5,0,0,0-.5-.5ZM26.68,5.59l9.74,7.88H26.68ZM2.5,14.47H37.32V58.96H2.5Zm59,35.06H38.33V13.97a.814.814,0,0,0-.02-.09.084.084,0,0,0-.02-.07.513.513,0,0,0-.15-.23L27.59,5.04H61.5Z"/>
        <path id="Trazado_1356873" data-name="Trazado 1356873" d="M36.42,13.47,26.68,5.59v7.88Z" fill="#437399"/>
        <path id="Trazado_1356874" data-name="Trazado 1356874" d="M19.57,26.23a.483.483,0,0,1,.3.35.469.469,0,0,1-.12.45,39.36,39.36,0,0,0-3.62,4.31.468.468,0,0,1-.46.22l-3.48-.31,2.49,1.47a.5.5,0,0,1,.23.52.919.919,0,0,0,.1.4,1.12,1.12,0,0,0,.43.1.456.456,0,0,1,.49.23l1.53,2.47-.37-3.46a.5.5,0,0,1,.22-.46,39.36,39.36,0,0,0,4.31-3.62.484.484,0,0,1,.34-.13.41.41,0,0,1,.11.01.5.5,0,0,1,.35.3l3.01,7.5,1.59-2.79-2.23-7.43c-.22-.29-.04-.48.68-1.19l2.08-2.08a2.949,2.949,0,0,0,.7-1.11c0-.02.02-.04.02-.06a2.369,2.369,0,0,0,.09-.36,1.121,1.121,0,0,0,.03-.24,2.3,2.3,0,0,0,.01-.45,2.423,2.423,0,0,0-.06-.53v-.03h-.02a3.708,3.708,0,0,0-.53-.06c-.15,0-.3,0-.45.01a1.967,1.967,0,0,0-.24.03,2.369,2.369,0,0,0-.36.09.212.212,0,0,0-.07.03,2.83,2.83,0,0,0-1.11.7L23.6,23.07c-.88.88-1.03,1.03-1.31.79l-7.43-2.23-2.79,1.59Z" fill="#c21e64"/>
        <path id="Trazado_1356875" data-name="Trazado 1356875" d="M10.73,23.75l7.79,3.13a37.607,37.607,0,0,0-3.06,3.66l-3.19-.28a.948.948,0,0,0-1,.66.966.966,0,0,0,.41,1.13l2.24,1.39a3.056,3.056,0,0,0,.24.8.457.457,0,0,0,.26.25,3.056,3.056,0,0,0,.8.24l1.39,2.24a.969.969,0,0,0,1.79-.59l-.28-3.19a40.5,40.5,0,0,0,3.66-3.06l3.13,7.79a.489.489,0,0,0,.43.31h.03a.5.5,0,0,0,.43-.25l2.21-3.87a.485.485,0,0,0,.04-.39l-2.24-7.46,2.45-2.45a3.8,3.8,0,0,0,.91-1.43c.01-.02.02-.05.03-.07a3.8,3.8,0,0,0,.15-.58,3.106,3.106,0,0,0,.04-.32c.02-.2.02-.4.02-.59a4.372,4.372,0,0,0-.08-.69c-.02-.11-.05-.21-.07-.29,0,0-.03-.09-.03-.1a.5.5,0,0,0-.31-.31.84.84,0,0,1-.12-.04c-.07-.02-.16-.04-.29-.07a4.9,4.9,0,0,0-.68-.08c-.18,0-.37,0-.59.02a1.994,1.994,0,0,0-.32.04,3,3,0,0,0-.57.15.076.076,0,0,0-.05.02,3.739,3.739,0,0,0-1.44.92l-2.45,2.45L14.95,20.6a.529.529,0,0,0-.39.04l-3.87,2.21a.5.5,0,0,0-.25.47.489.489,0,0,0,.31.43Zm11.55.1c.28.23.43.09,1.31-.79l1.96-1.96a2.949,2.949,0,0,1,1.11-.7.212.212,0,0,0,.07-.03c.12-.04.24-.06.36-.09l.24-.03a3.454,3.454,0,0,1,.45-.01,2.672,2.672,0,0,1,.53.06h.02v.03a3.251,3.251,0,0,1,.06.53c0,.14,0,.28-.01.45a2.245,2.245,0,0,1-.03.24,2.369,2.369,0,0,1-.09.36c0,.02-.02.04-.02.06a2.83,2.83,0,0,1-.7,1.11l-2.08,2.08c-.71.71-.9.9-.68,1.19l2.23,7.43-1.59,2.79-3.01-7.5a.483.483,0,0,0-.35-.3c-.04,0-.07-.01-.11-.01a.533.533,0,0,0-.34.13,38.421,38.421,0,0,1-4.31,3.62.5.5,0,0,0-.22.46l.37,3.46-1.53-2.47a.442.442,0,0,0-.49-.23,1.509,1.509,0,0,1-.43-.1.919.919,0,0,1-.1-.4.491.491,0,0,0-.23-.52l-2.49-1.47,3.48.31a.487.487,0,0,0,.46-.22,39.36,39.36,0,0,1,3.62-4.31.5.5,0,0,0,.12-.45.5.5,0,0,0-.3-.35l-7.5-3.01,2.79-1.59Z"/>
        <path id="Trazado_1356876" data-name="Trazado 1356876" d="M30,43.34a1.272,1.272,0,0,0-1.27-1.27H11.1a1.27,1.27,0,0,0,0,2.54H28.73A1.272,1.272,0,0,0,30,43.34Z" fill="#c21e64"/>
        <path id="Trazado_1356877" data-name="Trazado 1356877" d="M28.73,41.07H11.1a2.27,2.27,0,0,0,0,4.54H28.73a2.27,2.27,0,0,0,0-4.54ZM9.82,43.34a1.272,1.272,0,0,1,1.27-1.27H28.72a1.27,1.27,0,1,1,0,2.54H11.1a1.272,1.272,0,0,1-1.27-1.27Z"/>
        <path id="Trazado_1356878" data-name="Trazado 1356878" d="M42.82,14.43a1.272,1.272,0,0,0,1.27,1.27H55.73a1.27,1.27,0,1,0,0-2.54H44.09A1.272,1.272,0,0,0,42.82,14.43Z" fill="#fc4283"/>
        <path id="Trazado_1356879" data-name="Trazado 1356879" d="M44.09,16.7H55.73a2.27,2.27,0,1,0,0-4.54H44.09a2.27,2.27,0,0,0,0,4.54Zm11.64-3.55a1.27,1.27,0,1,1,0,2.54H44.09a1.27,1.27,0,0,1,0-2.54Z"/>
        <path id="Trazado_1356880" data-name="Trazado 1356880" d="M42.82,23a1.272,1.272,0,0,0,1.27,1.27H55.73a1.27,1.27,0,1,0,0-2.54H44.09A1.272,1.272,0,0,0,42.82,23Z" fill="#fc4283"/>
        <path id="Trazado_1356881" data-name="Trazado 1356881" d="M44.09,25.28H55.73a2.27,2.27,0,0,0,0-4.54H44.09a2.27,2.27,0,0,0,0,4.54Zm11.64-3.55a1.27,1.27,0,1,1,0,2.54H44.09a1.27,1.27,0,1,1,0-2.54Z"/>
        <path id="Trazado_1356882" data-name="Trazado 1356882" d="M42.82,31.57a1.272,1.272,0,0,0,1.27,1.27H55.73a1.27,1.27,0,1,0,0-2.54H44.09A1.272,1.272,0,0,0,42.82,31.57Z" fill="#fc4283"/>
        <path id="Trazado_1356883" data-name="Trazado 1356883" d="M44.09,33.85H55.73a2.27,2.27,0,1,0,0-4.54H44.09a2.27,2.27,0,0,0,0,4.54ZM55.73,30.3a1.27,1.27,0,1,1,0,2.54H44.09a1.27,1.27,0,1,1,0-2.54Z"/>
        <path id="Trazado_1356884" data-name="Trazado 1356884" d="M42.82,40.14a1.272,1.272,0,0,0,1.27,1.27H55.73a1.27,1.27,0,1,0,0-2.54H44.09A1.272,1.272,0,0,0,42.82,40.14Z" fill="#fc4283"/>
        <path id="Trazado_1356885" data-name="Trazado 1356885" d="M44.09,42.42H55.73a2.27,2.27,0,0,0,0-4.54H44.09a2.27,2.27,0,0,0,0,4.54Zm11.64-3.55a1.27,1.27,0,1,1,0,2.54H44.09a1.27,1.27,0,0,1,0-2.54Z"/>
        <path id="Trazado_1356886" data-name="Trazado 1356886" d="M30,51.91a1.272,1.272,0,0,0-1.27-1.27H11.1a1.27,1.27,0,0,0,0,2.54H28.73A1.272,1.272,0,0,0,30,51.91Z" fill="#c21e64"/>
        <path id="Trazado_1356887" data-name="Trazado 1356887" d="M28.73,49.64H11.1a2.27,2.27,0,0,0,0,4.54H28.73a2.27,2.27,0,0,0,0-4.54ZM9.82,51.91a1.272,1.272,0,0,1,1.27-1.27H28.72a1.27,1.27,0,1,1,0,2.54H11.1a1.272,1.272,0,0,1-1.27-1.27Z"/>
      </g>
    </g>
  </g>
</svg>
