<svg xmlns="http://www.w3.org/2000/svg" xmlns:xlink="http://www.w3.org/1999/xlink" width="107.873" height="123.592" viewBox="0 0 107.873 123.592">
  <defs>
    <clipPath id="clip-path">
      <rect id="Rectángulo_457681" data-name="Rectángulo 457681" width="107.873" height="123.592" transform="translate(0 0)" fill="none"/>
    </clipPath>
  </defs>
  <g id="Grupo_1207590" data-name="Grupo 1207590" transform="translate(-1172.711 -3632.719)">
    <g id="Grupo_1207418" data-name="Grupo 1207418" transform="translate(1172.711 3632.719)">
      <g id="Grupo_1207417" data-name="Grupo 1207417" clip-path="url(#clip-path)">
        <path id="Trazado_1356202" data-name="Trazado 1356202" d="M101.935,26.752c-3.143-1.105-6.021-2.745-9.059-4.005a43.568,43.568,0,0,1-7.185-3.771,23.875,23.875,0,0,0-6.154-2.784c-3.11-.957-6.564-.841-9.281-3.042-.311-.252-.875-.181-1.316-.282-7.064-1.609-14.15-3.131-20.976-5.639C44,5.771,39.993,4.407,35.99,3.04a23.594,23.594,0,0,0-2.642-.573c-.468,1.376-1.137,2.482-1.166,3.606a20.565,20.565,0,0,1-1.6,7.029c-1.261,3.23-2.607,6.427-3.954,9.624-1.408,3.339-2.926,6.631-4.274,10-3.594,8.967-7.194,17.933-10.648,26.954C9.118,66.443,6.7,73.278,4.326,80.124A16.406,16.406,0,0,0,3.516,85a3.349,3.349,0,0,0,1.889,3.349c3.244,1.506,6.156,3.874,10.024,3.745a5.594,5.594,0,0,1,1.749.445,302.585,302.585,0,0,1,33.769,13.084c4.119,1.867,8.2,3.857,12.434,5.42a20.826,20.826,0,0,1,7.358,4.107,2.564,2.564,0,0,0,2.225,2.955c1.15-2.76,2.374-5.305,3.262-8.026q6.043-18.523,12.2-37.01a14.407,14.407,0,0,1,1.309-3.366c2.576-3.951,4.126-8.407,5.868-12.7,3.293-8.105,5.94-16.476,8.8-24.757.852-2.474-.016-4.642-2.462-5.5" fill="#acd6e7"/>
        <path id="Trazado_1356203" data-name="Trazado 1356203" d="M45.7,106.562c-5.022-2.039-9.955-4.422-15.141-5.913C23.184,98.53,15.62,97.074,8.131,95.364c-1.155-.263-2.371-.588-3.668.669.291,1.056.629,2.277.968,3.508,4.62.623,8.958,1.109,13.256,1.819a86.4,86.4,0,0,1,11.466,2.359c6.614,2.047,13.093,4.523,19.645,6.773,1.27.437,2.614.661,3.925.982q.148-.358.3-.717a18.4,18.4,0,0,0-2.141-1.408c-2.036-.979-4.087-1.937-6.18-2.787" fill="#e3e3e3"/>
        <path id="Trazado_1356204" data-name="Trazado 1356204" d="M34.821,106.771c-2.566-1.064-5.107-2.185-7.971-2.327,2.341,1.91,5.228,1.82,7.971,2.327" fill="#e3e3e3"/>
        <path id="Trazado_1356205" data-name="Trazado 1356205" d="M63.258,115.808c1.3,1.829,3.239,2.548,5.18,3.751-.549-4.305-.666-4.384-5.18-3.751" fill="#e3e3e3"/>
        <path id="Trazado_1356206" data-name="Trazado 1356206" d="M32.948,0C44.072,3.6,54.83,7.576,66.04,10.089c4.1.92,8.2,1.907,12.255,3a28.22,28.22,0,0,1,9.131,3.863c2.236,1.569,4.921,2.338,7.235,3.667,3.591,2.065,7.463,3.212,11.592,4.706.419,1.058.931,2.289,1.4,3.539a4.343,4.343,0,0,1-.131,3.066c-2.4,7-4.711,14.036-7.06,21.056a42.382,42.382,0,0,1-1.676,4.693c-4.222,8.919-6.841,18.4-9.8,27.76A19,19,0,0,1,86.246,91.1,19.438,19.438,0,0,0,83.8,95.92c-2.379,6.53-4.651,13.1-6.949,19.662a13.864,13.864,0,0,0-.754,2.6,6.115,6.115,0,0,1-4.571,5.407A14.174,14.174,0,0,1,66,121.287a40.309,40.309,0,0,0-9.84-4.533,13,13,0,0,1-5.51-2.963c-.856-.882-2.375-1.218-3.659-1.568q-12.241-3.329-24.518-6.544c-4.819-1.271-9.641-2.547-14.491-3.7a55.349,55.349,0,0,0-5.651-.746c-.593-1.279.127-3.21-1.439-4.271A1.306,1.306,0,0,1,.629,95.71c1.228-1.977.086-3.859-.26-5.7a22.144,22.144,0,0,1,.968-11.528C2.808,74.2,4.2,69.881,5.742,65.617c.921-2.553,2.071-5.023,3.094-7.541.91-2.237,1.765-4.5,2.685-6.731.976-2.369,2-4.721,3.009-7.077.475-1.11,1.043-2.187,1.441-3.323,2.1-5.984,3.848-12.119,7.008-17.664C26.531,17.052,28.3,10.155,30.729,3.5c.452-1.238.61-2.7,2.219-3.5M70.783,115.194l-.038-.1a2.569,2.569,0,0,0,2.219,3.013c1.15-2.761,2.374-5.306,3.262-8.027q6.043-18.522,12.2-37.009a14.39,14.39,0,0,1,1.309-3.366c2.576-3.951,4.126-8.407,5.868-12.7,3.293-8.106,5.94-16.476,8.8-24.757.852-2.474-.016-4.643-2.462-5.5-3.143-1.105-6.021-2.745-9.06-4.005a43.6,43.6,0,0,1-7.184-3.771,23.838,23.838,0,0,0-6.154-2.783c-3.11-.957-6.564-.842-9.281-3.043-.311-.251-.875-.181-1.316-.281C61.876,11.26,54.79,9.738,47.964,7.23,44,5.771,39.993,4.407,35.99,3.04a23.6,23.6,0,0,0-2.642-.572c-.468,1.376-1.137,2.482-1.166,3.606a20.559,20.559,0,0,1-1.6,7.028c-1.261,3.23-2.607,6.428-3.954,9.624-1.408,3.34-2.926,6.632-4.274,10-3.594,8.967-7.194,17.933-10.648,26.955C9.118,66.443,6.7,73.278,4.326,80.124a16.412,16.412,0,0,0-.81,4.882,3.35,3.35,0,0,0,1.889,3.349c3.244,1.5,6.156,3.873,10.024,3.744a5.594,5.594,0,0,1,1.749.445,302.785,302.785,0,0,1,33.769,13.085c4.119,1.867,8.2,3.857,12.434,5.42a20.739,20.739,0,0,1,7.4,4.145m-17.06-3.72.3-.717a18.327,18.327,0,0,0-2.142-1.408c-2.036-.979-4.087-1.936-6.179-2.787-5.023-2.039-9.955-4.422-15.141-5.913C23.184,98.53,15.62,97.074,8.13,95.364c-1.154-.263-2.371-.588-3.668.669.291,1.056.629,2.277.969,3.508,4.619.623,8.957,1.109,13.256,1.819a86.4,86.4,0,0,1,11.466,2.359c6.614,2.047,13.093,4.523,19.644,6.773,1.271.437,2.615.661,3.926.982m-26.873-7.03c2.341,1.91,5.228,1.82,7.971,2.327-2.567-1.064-5.107-2.185-7.971-2.327m41.588,15.115c-.549-4.305-.666-4.384-5.18-3.751,1.3,1.829,3.239,2.548,5.18,3.751" fill="#092a36" fill-rule="evenodd"/>
        <path id="Trazado_1356207" data-name="Trazado 1356207" d="M71.832,27.431a1.838,1.838,0,0,1,2.448,1.583,42.375,42.375,0,0,1,.3,4.345c1.607-2.127,2.764-4.471,5.73-3.4,1.812,4.767-.521,8.878-1.791,13.126a2.105,2.105,0,0,1-2.067,1.467,2.376,2.376,0,0,1-2.362-1.76c-.387-1.424-.618-2.89-1.077-5.114-.723,1.7-1.171,2.71-1.587,3.737a2.189,2.189,0,0,1-2.057,1.5c-.838.026-1.506-1.042-1.522-2.417a11.781,11.781,0,0,1,.175-3.144,39.611,39.611,0,0,1,3.814-9.928m4.531,13.107A11.81,11.81,0,0,0,79.03,34c.05-.9-.187-1.817-1.64-1.837-1.016,2.471-2.166,4.948-1.027,8.374" fill="#092a36" fill-rule="evenodd"/>
        <path id="Trazado_1356208" data-name="Trazado 1356208" d="M79.637,90.8c1.743-5.136,3.274-10.358,5.282-15.388,2.806-7.025,5.174-14.183,7.475-21.378,2.392-7.482,5.089-14.868,6.041-22.729a2.04,2.04,0,0,1,1.82-2c.168.466.555.991.5,1.46-.413,3.288-.565,6.666-1.471,9.822a126.367,126.367,0,0,1-5.617,16.251c-1.652,3.738-3.157,7.5-4.486,11.351a50.647,50.647,0,0,1-3.85,9.155c-1.345,2.319-2.017,5.033-2.942,7.588-.716,1.98-1.362,3.986-2.038,5.98l-.71-.107" fill="#092a36" fill-rule="evenodd"/>
        <path id="Trazado_1356209" data-name="Trazado 1356209" d="M48.575,19.663l.913-2.329c1.734.968,3.3,1.764,4.783,2.7a2.238,2.238,0,0,0,2.47.361,2.6,2.6,0,0,1,1.733-.086c1.1.324,2.794.463,2.749,1.838-.06,1.835-1.732,1.033-2.831,1.068a5,5,0,0,0-1.062.332c-.369,1.089-.788,2.32-1.145,3.374.922,1.667,3.852,1.08,3.473,4.033l-4.5-.774c-.382,1.13-.746,2.2-1.067,3.145.309.424.43.745.656.866.528.283,1.118.446,1.661.7.686.321,1.4.688,1.235,1.621-.126.711-1.227,1.068-2.328.736-1.26-.379-2.5-.835-3.839-1.291-.179-4.689,2.624-8.652,3.037-13.152-1.213-.964-2.062-.365-2.465.7-1.38,3.647-3.216,7.157-3.564,11.142-.049.558-.223,1.206-1.272.86a2.679,2.679,0,0,1-.227-1.074q1.3-6.166,2.695-12.314A2.052,2.052,0,0,0,48.538,19.5Z" fill="#092a36" fill-rule="evenodd"/>
        <path id="Trazado_1356210" data-name="Trazado 1356210" d="M58.737,38.937c.763-5.288,3.056-10.074,4.717-15.042a10.985,10.985,0,0,1,1.568-2.407c1.2.471.774,1.507,1.168,1.993,2.172,2.677,1.942,5.187-.318,7.57.171,1.155.307,2.2.485,3.23.342,2-.5,3.39-1.989,4.709-1.745,1.542-3.34,1.841-5.631-.053m2.817-1.729c2.955-1.208,3.162-1.784,1.759-4.786a13.661,13.661,0,0,0-.835,1.643c-.337.98-.59,1.99-.924,3.143m2.933-8.1c1.205-1.807,1.205-1.807.732-3.09-.227.961-.376,1.584-.732,3.09" fill="#092a36" fill-rule="evenodd"/>
        <path id="Trazado_1356211" data-name="Trazado 1356211" d="M33.989,19.457c-2.232,3.314-2.794,7.068-4.892,10.206.229-4.392,2.138-8.306,3.477-12.37a11.122,11.122,0,0,1,3.26-5.517c1.566,3.126-.646,6.339.647,9.593,1.488-2.546,2.814-4.811,4.408-7.539.235.9.586,1.46.441,1.814q-2.727,6.668-5.605,13.27a4.359,4.359,0,0,1-1.2,1.28c-.323.288-1.432-.2-1.436-.641a14.551,14.551,0,0,1,.116-2.22c.3-2.083.684-4.157.966-6.242a6.69,6.69,0,0,0-.182-1.634" fill="#092a36" fill-rule="evenodd"/>
        <path id="Trazado_1356212" data-name="Trazado 1356212" d="M86.264,31.908c-.429,1.989-.855,3.979-1.309,6.084,1.9.607,3.284-.828,4.889-.783,1.013.028,1.245.619,1.158,1.664L86.3,41.637c.546,3.42.678,6.815-.571,10.082-.071.187-.5.236-.78.356-.819-.062-.906-.8-.893-1.3.038-1.5.357-2.995.329-4.486-.013-.775-.525-1.541-1.079-3.026-.893,2.407-1.488,4.087-2.144,5.743-.3.765-.848,1.222-1.746.814.208-2.962,3.4-12.382,6.852-17.911" fill="#092a36" fill-rule="evenodd"/>
        <path id="Trazado_1356213" data-name="Trazado 1356213" d="M48.537,19.5c-1.04,2.813-2.124,5.611-3.1,8.444a6.172,6.172,0,0,1-3.982,4.005A2.335,2.335,0,0,1,38.176,29.5a12.909,12.909,0,0,1,.662-3.08c.526-1.57,1.276-3.068,1.761-4.649a8.923,8.923,0,0,1,3.551-4.511c1.463-1.1,2.687-.886,3.709.715a10.509,10.509,0,0,1,.712,1.677c0,.016-.034-.143-.034-.143m-2.9-1.368c-3.305,2.541-3.278,5.627-4.267,8.211-.245.641-.572,1.452.626,2.036a4.977,4.977,0,0,0,.958-1.25c.937-2.674,2.325-5.22,2.683-9" fill="#092a36" fill-rule="evenodd"/>
        <path id="Trazado_1356214" data-name="Trazado 1356214" d="M65.914,79.977a1.322,1.322,0,0,1-2.04.255,7.709,7.709,0,0,0-4.526-1.674,35.171,35.171,0,0,1-11.069-3.692,11.743,11.743,0,0,0-4.7-1.326,22.617,22.617,0,0,1-9.1-2.376,47.439,47.439,0,0,1-6.5-3.211,7.489,7.489,0,0,1,1.666.147c3.72,1.192,7.413,2.479,11.147,3.629,1.421.437,2.95.515,4.394.893,3.78.993,7.582,1.935,11.291,3.152a17.162,17.162,0,0,0,5.638,1.2,3.513,3.513,0,0,1,3.8,3.006" fill="#092a36" fill-rule="evenodd"/>
        <path id="Trazado_1356215" data-name="Trazado 1356215" d="M33.266,41.586c3.869-.414,7.457.5,11.02,1.735,8.823,3.054,17.691,5.977,26.539,8.965a20.188,20.188,0,0,1,3.362,1.3,16.189,16.189,0,0,1,2.494,2.441c-5.512-1.956-10.1-3.6-14.7-5.215-4.83-1.7-9.637-3.474-14.51-5.041-4.7-1.511-9.465-2.8-14.2-4.186" fill="#092a36" fill-rule="evenodd"/>
        <path id="Trazado_1356216" data-name="Trazado 1356216" d="M70.783,115.194c-.123-4.314,1.421-8.239,2.883-12.176a3.409,3.409,0,0,1,1.047-1.388,1.559,1.559,0,0,1,1.174-.086c.2.048.375.43.456.694a1.5,1.5,0,0,1,.042.878c-1.142,3.246-2.227,6.517-3.531,9.7-.363.888-1.4,1.5-2.115,2.263.006.021.044.117.044.117" fill="#092a36" fill-rule="evenodd"/>
        <path id="Trazado_1356217" data-name="Trazado 1356217" d="M40.487,76.533a10.187,10.187,0,0,0,7.368,3.625,16.179,16.179,0,0,1,6.332,2.04c-.025,1.072-.789,1.083-1.234.909-3.124-1.221-6.439-1.453-9.691-2.032-2.077-.37-2.387-.926-2.775-4.542" fill="#092a36" fill-rule="evenodd"/>
        <path id="Trazado_1356218" data-name="Trazado 1356218" d="M31.062,77.614c-.532.351-.862.745-1.21.758a5.251,5.251,0,0,1-1.595-.363c-.063-.019-.111-.324-.1-.329a6.377,6.377,0,0,1,1.6-.554c.355-.037.747.266,1.3.488" fill="#092a36" fill-rule="evenodd"/>
        <path id="Trazado_1356219" data-name="Trazado 1356219" d="M61.562,85.706c-.8.133-1.332.363-1.474.216a5.99,5.99,0,0,1-.8-1.381c.363-.1.837-.383,1.062-.249a6.664,6.664,0,0,1,1.207,1.414" fill="#092a36" fill-rule="evenodd"/>
      </g>
    </g>
  </g>
</svg>
