<svg xmlns="http://www.w3.org/2000/svg" xmlns:xlink="http://www.w3.org/1999/xlink" width="130.705" height="134.456" viewBox="0 0 130.705 134.456">
  <defs>
    <clipPath id="clip-path">
      <rect id="Rectángulo_457689" data-name="Rectángulo 457689" width="130.705" height="134.456" fill="none"/>
    </clipPath>
  </defs>
  <g id="Grupo_1207594" data-name="Grupo 1207594" transform="translate(6951.352 7714.148)">
    <g id="Grupo_1207433" data-name="Grupo 1207433" transform="translate(-6951.352 -7714.148)">
      <g id="Grupo_1207433-2" data-name="Grupo 1207433" clip-path="url(#clip-path)">
        <path id="Trazado_1356430" data-name="Trazado 1356430" d="M100.413,84.47l-13.5,1.855a14.019,14.019,0,0,0-1.746.256q-5.1,1.4-10.192,2.855a7.691,7.691,0,0,0-1.377.517c-5.813,2.931-12.123,4.517-18.191,6.756-3.587,1.324-7.142,2.736-10.712,4.105-.359.138-.722.26-1.267.455a50.994,50.994,0,0,1-5.662-9.264,10.86,10.86,0,0,1-.7-3.136c-.211-2.239-.295-4.488-.43-6.722,6.421-4,11.152-9.6,15.171-15.81A126.158,126.158,0,0,0,62,47.774a114.034,114.034,0,0,0,4.66-12.706c.187-.631.443-1.244.786-2.194.283.515.466.7.487.911A28.4,28.4,0,0,0,69.7,40.608,130.621,130.621,0,0,0,82.082,65.636a58.037,58.037,0,0,0,10.371,12c2.531,2.3,5.189,4.463,7.96,6.834" transform="translate(-6.964 -6.25)" fill="#9accdb" fill-rule="evenodd"/>
        <path id="Trazado_1356431" data-name="Trazado 1356431" d="M96.7,66.829a23.29,23.29,0,0,1,2.647-2.9,17.193,17.193,0,0,1,4.212-2.61,3.4,3.4,0,0,0,2.4-4.144c-.857-5.385-2.815-10.2-7.332-13.639-.858-.653-1.692-1.339-2.512-2.039a4.155,4.155,0,0,0-2.689-1.029,2.339,2.339,0,0,0-2.4,1.336c-.3.616-.65,1.21-.98,1.813a19.187,19.187,0,0,1-1.287,2.308c-.75,1.012-1.627,1.928-2.383,2.807-.81-.016-.919-.582-1.085-.994-1.9-4.734-3.777-9.479-5.66-14.221-.036-.09-.113-.181-.109-.269.089-2.541.148-5.085.328-7.62.022-.31.654-.732,1.064-.821a3.511,3.511,0,0,1,1.732.093c2.24.709,4.463,1.474,6.677,2.263a4.937,4.937,0,0,1,1.233.786,66.068,66.068,0,0,1,16.011,17.908c.993,1.579,2.075,3.1,3.152,4.625a40.564,40.564,0,0,1,3.959,6.883c.841,1.882,1.779,3.72,2.673,5.578a23.508,23.508,0,0,1,2.182,12.613,14.591,14.591,0,0,1-.7,3.15c-.489,1.5-1.058,1.857-2.595,1.9a8.943,8.943,0,0,1-6.068-1.873c-2.217-1.786-4.415-3.6-6.507-5.532-1.8-1.661-3.455-3.487-5.154-5.26a9.169,9.169,0,0,1-.8-1.118" transform="translate(-15.116 -4.704)" fill="#7da6b2" fill-rule="evenodd"/>
        <path id="Trazado_1356432" data-name="Trazado 1356432" d="M36.4,126.441c.644-1.3,1.116-2.247,1.658-3.341.677.033,1.338.03,1.99.1,1.065.119,2.121.312,3.187.43a3.1,3.1,0,0,0,3.465-2.843c.07-.476.091-.959.149-1.594,1.024-.346,2.021-.706,3.034-1.017.9-.274,1.715-.9,2.928-.741-1.618,6.7-1.025,12.886,3.623,18.218a.808.808,0,0,1,.053.283c-.523,2.787-.226,3.34,2.256,4.126.279.089.583.1.862.181a3.338,3.338,0,0,1,.584.334,16.037,16.037,0,0,0-1.014,1.733c-.678,1.561-.144,2.835,1.486,3.122.377.066.749.155,1.3.27a8.686,8.686,0,0,1-.221,1.409c-.084.257-.458.419-.543.675-.91,2.775-3.179,3.851-5.716,4.518a23.32,23.32,0,0,1-7.242,1.033c-1.6-.088-1.6-.07-3.437-1.715,0-2-.042-4.159.011-6.311a26,26,0,0,0-1.232-8.411,23.553,23.553,0,0,0-5.962-9.664,7.1,7.1,0,0,0-1.215-.8" transform="translate(-6.919 -22.322)" fill="#c9e0db" fill-rule="evenodd"/>
        <path id="Trazado_1356433" data-name="Trazado 1356433" d="M19.879,99.725c0,1.375.028,2.446-.007,3.516a6.96,6.96,0,0,0,.787,3.4c1.005,2.021,1.933,4.079,2.869,6.132a6.993,6.993,0,0,0,2.445,2.883,8.221,8.221,0,0,1,2.659,2.652c-.346,1.681-1.432,2.792-2.428,4.022-1.292,1.595-2.724,2.879-4.8,3.074-2.541.237-5.2.547-7.483-.854a19.025,19.025,0,0,1-4.192-3.634,49.205,49.205,0,0,1-3.394-4.8c-.39-.564-.748-1.153-1.154-1.706a5.292,5.292,0,0,1,.125-6.958,8.488,8.488,0,0,1,1.239-1.255c1.54-1.216,3.141-2.357,4.658-3.6a7.619,7.619,0,0,1,3.656-1.769c1.541-.255,3.058-.662,5.02-1.1" transform="translate(-0.749 -18.959)" fill="#7da6b2" fill-rule="evenodd"/>
        <path id="Trazado_1356434" data-name="Trazado 1356434" d="M93.856,51.873c.284,1.337.448,2.186.648,3.027a6.452,6.452,0,0,0,2.229,3.666c1.727,1.423,3.309,3.025,4.927,4.575a9.447,9.447,0,0,1,.925,1.263c-2.612.984-4.167,2.957-5.682,5.321-.572-.721-1.023-1.2-1.37-1.742q-3.3-5.174-6.111-10.606c.782-1.071,1.442-2.039,2.168-2.954.6-.756,1.281-1.449,2.266-2.55" transform="translate(-17 -9.862)" fill="#b3c7c3" fill-rule="evenodd"/>
        <path id="Trazado_1356435" data-name="Trazado 1356435" d="M31.475,96.108a8.367,8.367,0,0,1,.31,1.88c-.458,4.964,1.212,9.224,4.209,13.068,1.075,1.379,2.123,2.778,3.3,4.322a6.352,6.352,0,0,1-4.193-1.2c-.163-.1-.273-.284-.432-.4a11.081,11.081,0,0,1-4.5-5.917,13.365,13.365,0,0,0-1.441-2.881,7.171,7.171,0,0,1-.795-3.367c-.19-2.561.765-4.351,3.538-5.51" transform="translate(-5.307 -18.271)" fill="#ffcc2a" fill-rule="evenodd"/>
        <path id="Trazado_1356436" data-name="Trazado 1356436" d="M105.611,60.324c-1.858-1.715-3.723-3.421-5.565-5.153a2.37,2.37,0,0,1-.634-.961c-.525-1.657-1-3.33-1.621-5.442,5,2.586,7.246,6.5,7.82,11.555" transform="translate(-18.591 -9.272)" fill="#c9e0db" fill-rule="evenodd"/>
        <path id="Trazado_1356437" data-name="Trazado 1356437" d="M104.484,61.1c-1.493-3.095-3.1-6.136-4.708-9.174a31.419,31.419,0,0,0-4.56-6.5,13.341,13.341,0,0,1-1.594-2.1A83.177,83.177,0,0,0,81.054,27.777a21.775,21.775,0,0,0-8.114-5.222A27.542,27.542,0,0,1,69.722,21.1c-2.183-1.129-4.262-.432-6.125.6-1.5.828-2.494,2.421-4.074,3.253a1.96,1.96,0,0,0-.688.93,58.9,58.9,0,0,0-2.452,5.671,123.668,123.668,0,0,1-6.815,16.61,125.191,125.191,0,0,1-9.7,16.156A85.111,85.111,0,0,1,26.488,78.688c-2.729-.683-4.351,1.423-6.2,2.9a5.973,5.973,0,0,0-3.48.134c-1.148.266-2.318.444-3.458.735a9.216,9.216,0,0,0-2.775.928,54.252,54.252,0,0,0-8.515,6.74c-.207.2-.347.478-.544.695C.062,92.4,0,94.341,0,96.344a6.36,6.36,0,0,0,1.629,4.87A7.993,7.993,0,0,1,2.8,102.9a30.162,30.162,0,0,0,6.692,8.14,10.61,10.61,0,0,0,6.4,2.6,25.951,25.951,0,0,0,4.417,0c2.652-.285,5.233-.854,7.029-3.459a7.238,7.238,0,0,1,.931.562,7.494,7.494,0,0,1,1.037,1.04c3.122,4.072,5.179,8.548,5.183,13.793,0,2.653-.009,5.306.01,7.96,0,.769.092,1.539.138,2.264a10.386,10.386,0,0,0,6.861,2.527,25.81,25.81,0,0,0,11.693-2.5,5.948,5.948,0,0,0,2.09-1.58,40.624,40.624,0,0,0,2.769-3.789,3.29,3.29,0,0,0,.407-1.393c.286-2.247,0-3.066-1.663-5.059.622-3.568.522-3.757-3.112-5.93.022-2.11.062-2.159-1.527-3.449a9.042,9.042,0,0,1-2.742-4.088,19.865,19.865,0,0,1-.82-8.43c.1-1.44.333-2.869.53-4.493.376-.161.89-.427,1.433-.607,2.98-.989,5.99-1.9,8.947-2.952,2.4-.855,4.73-1.9,7.107-2.814A29.855,29.855,0,0,1,71.326,89.6c4.13-.833,8.057-2.5,12.326-2.79,3.209-.219,6.362-1.031,9.614-.995a11.215,11.215,0,0,0,5.872-1.583,6.686,6.686,0,0,1,2.693-1.036,4.462,4.462,0,0,0,3.75-2.954,18.575,18.575,0,0,0,1.317-4.8A26.041,26.041,0,0,0,104.484,61.1M25.456,107.273c-1.293,1.594-2.724,2.879-4.8,3.073-2.54.237-5.2.547-7.483-.854a19.065,19.065,0,0,1-4.192-3.635,49.238,49.238,0,0,1-3.393-4.8c-.39-.564-.748-1.153-1.154-1.706a5.289,5.289,0,0,1,.125-6.957A8.533,8.533,0,0,1,5.8,91.137c1.54-1.216,3.14-2.357,4.658-3.6a7.613,7.613,0,0,1,3.656-1.77c1.541-.255,3.057-.662,5.019-1.1,0,1.375.028,2.446-.006,3.516a6.964,6.964,0,0,0,.786,3.4c1.005,2.021,1.933,4.08,2.869,6.133a6.991,6.991,0,0,0,2.445,2.883,8.216,8.216,0,0,1,2.658,2.652c-.345,1.681-1.432,2.792-2.427,4.023M24.865,93.5a13.328,13.328,0,0,0-1.441-2.881,7.171,7.171,0,0,1-.795-3.367c-.19-2.561.765-4.351,3.538-5.51a8.367,8.367,0,0,1,.31,1.88c-.458,4.964,1.212,9.224,4.209,13.068,1.075,1.378,2.123,2.777,3.3,4.321a6.349,6.349,0,0,1-4.194-1.2c-.162-.1-.273-.284-.432-.4a11.087,11.087,0,0,1-4.5-5.917m24.644,23.739a.809.809,0,0,1,.053.283c-.523,2.787-.226,3.34,2.256,4.127.279.088.583.095.862.181a3.234,3.234,0,0,1,.583.334,16.156,16.156,0,0,0-1.013,1.732c-.678,1.562-.144,2.835,1.485,3.122.377.066.75.155,1.3.27a8.682,8.682,0,0,1-.221,1.41c-.084.257-.458.418-.543.675-.91,2.775-3.179,3.851-5.716,4.518a23.349,23.349,0,0,1-7.242,1.034c-1.6-.089-1.6-.07-3.437-1.715,0-2-.042-4.159.011-6.31a26,26,0,0,0-1.232-8.412,23.553,23.553,0,0,0-5.962-9.664,7.1,7.1,0,0,0-1.215-.8c.644-1.3,1.116-2.247,1.658-3.341.677.033,1.338.03,1.99.1,1.065.12,2.121.312,3.186.43a3.1,3.1,0,0,0,3.466-2.843c.07-.476.091-.959.149-1.594,1.023-.345,2.021-.706,3.034-1.016.9-.275,1.715-.9,2.928-.741-1.618,6.7-1.025,12.885,3.623,18.217M79.947,83.977a13.868,13.868,0,0,0-1.746.257q-5.1,1.4-10.192,2.854a7.754,7.754,0,0,0-1.377.517c-5.813,2.931-12.123,4.517-18.191,6.756C44.854,95.685,41.3,97.1,37.729,98.466c-.359.138-.722.26-1.267.455A50.966,50.966,0,0,1,30.8,89.658a10.86,10.86,0,0,1-.7-3.136c-.211-2.238-.295-4.488-.43-6.721,6.421-4,11.152-9.6,15.172-15.81a126.238,126.238,0,0,0,10.2-18.565A114.079,114.079,0,0,0,59.7,32.72c.187-.632.443-1.244.786-2.195.283.515.466.7.487.911a28.4,28.4,0,0,0,1.759,6.823A130.614,130.614,0,0,0,75.118,63.287a58.041,58.041,0,0,0,10.371,12c2.531,2.3,5.189,4.462,7.96,6.833l-13.5,1.855m-.214-31.371c1.727,1.423,3.308,3.024,4.927,4.575a9.447,9.447,0,0,1,.925,1.263c-2.612.984-4.167,2.956-5.682,5.321-.573-.721-1.024-1.2-1.37-1.743q-3.3-5.173-6.111-10.605c.782-1.071,1.441-2.039,2.168-2.954.6-.756,1.28-1.449,2.266-2.55.283,1.337.448,2.186.648,3.027a6.45,6.45,0,0,0,2.229,3.666M79.2,43.4c5.005,2.585,7.246,6.5,7.82,11.555-1.858-1.714-3.723-3.42-5.565-5.152a2.381,2.381,0,0,1-.634-.962c-.525-1.656-1-3.329-1.621-5.441m24.206,31.358a14.608,14.608,0,0,1-.7,3.15c-.489,1.5-1.057,1.856-2.595,1.9a8.947,8.947,0,0,1-6.068-1.872c-2.216-1.787-4.415-3.6-6.507-5.532-1.8-1.661-3.455-3.487-5.153-5.259a9.16,9.16,0,0,1-.8-1.118,23.28,23.28,0,0,1,2.647-2.9,17.2,17.2,0,0,1,4.212-2.611,3.4,3.4,0,0,0,2.4-4.143c-.857-5.386-2.815-10.2-7.331-13.639-.858-.652-1.693-1.339-2.512-2.039a4.162,4.162,0,0,0-2.69-1.028,2.337,2.337,0,0,0-2.4,1.336c-.3.616-.65,1.209-.979,1.812a19.241,19.241,0,0,1-1.288,2.308c-.75,1.012-1.627,1.928-2.383,2.807-.81-.016-.919-.582-1.084-.994-1.9-4.734-3.778-9.478-5.66-14.221-.036-.089-.113-.18-.11-.269.089-2.541.149-5.084.328-7.62.022-.31.654-.732,1.065-.821a3.518,3.518,0,0,1,1.731.093c2.24.71,4.463,1.475,6.678,2.264a4.948,4.948,0,0,1,1.233.786A66.094,66.094,0,0,1,91.441,45.058c.992,1.579,2.074,3.1,3.152,4.625a40.677,40.677,0,0,1,3.958,6.883c.841,1.882,1.779,3.72,2.673,5.578a23.508,23.508,0,0,1,2.182,12.613" transform="translate(0 -3.902)" fill-rule="evenodd"/>
        <path id="Trazado_1356438" data-name="Trazado 1356438" d="M150.908,26.807c-.207.268-.456.921-.9,1.114-3.666,1.595-7.1,3.757-11.1,4.567-.949.193-1.847.632-2.786.892a.872.872,0,0,1-1.186-.556,1.562,1.562,0,0,1,.261-1.3c1.64-1.206,3.044-2.723,5.061-3.445,1.926-.69,3.734-1.706,5.608-2.55a6.1,6.1,0,0,1,3.4-.743,1.9,1.9,0,0,1,1.646,2.022" transform="translate(-25.646 -4.704)" fill-rule="evenodd"/>
        <path id="Trazado_1356439" data-name="Trazado 1356439" d="M127.514,2.1c-.113.5-.217,1.184-.419,1.835a52.788,52.788,0,0,1-4.356,9.317,5.616,5.616,0,0,1-1.613,1.665,1.753,1.753,0,0,1-2.186-.063,1.666,1.666,0,0,1-.318-2.149c.723-1.5,1.512-2.974,2.284-4.453.909-1.74,1.793-3.494,2.757-5.2A20.511,20.511,0,0,1,125.481.391,1.409,1.409,0,0,1,126.511,0c.594.017.73.562.841,1.043.067.286.091.581.161,1.052" transform="translate(-22.505 0)" fill-rule="evenodd"/>
        <path id="Trazado_1356440" data-name="Trazado 1356440" d="M149.836,52.132c2.027.271,4.062.5,6.077.841a4.375,4.375,0,0,1,1.82.846,1.649,1.649,0,0,1,.47,1.875,1.59,1.59,0,0,1-1.5,1.2,6.849,6.849,0,0,1-1.737-.162c-2.775-.544-5.545-1.115-8.316-1.68a3.365,3.365,0,0,1-.558-.172,1.259,1.259,0,0,1-.905-1.34,1.157,1.157,0,0,1,1.108-1.161c1.167-.067,2.342-.019,3.514-.019.01-.076.019-.151.028-.228" transform="translate(-27.6 -9.911)" fill-rule="evenodd"/>
      </g>
    </g>
  </g>
</svg>
