<svg xmlns="http://www.w3.org/2000/svg" xmlns:xlink="http://www.w3.org/1999/xlink" width="101.044" height="134.456" viewBox="0 0 101.044 134.456">
  <defs>
    <clipPath id="clip-path">
      <rect id="Rectángulo_457688" data-name="Rectángulo 457688" width="101.044" height="134.456" fill="none"/>
    </clipPath>
  </defs>
  <g id="Grupo_1207595" data-name="Grupo 1207595" transform="translate(6669.326 7698.148)">
    <g id="Grupo_1207432" data-name="Grupo 1207432" transform="translate(-6669.326 -7698.148)">
      <g id="Grupo_1207431" data-name="Grupo 1207431" clip-path="url(#clip-path)">
        <path id="Trazado_1356360" data-name="Trazado 1356360" d="M73.542,170.743a5.816,5.816,0,0,1-4.608,1.435c-1.57-.06-3.146-.022-4.718-.016a6.8,6.8,0,0,0-3.32.528,4.031,4.031,0,0,1-1.789.224q-6.817.022-13.633-.006a6.576,6.576,0,0,1-2.061-.247,13.115,13.115,0,0,0-4.4-.538q-13.9.08-27.79.144c-.427,0-.853-.049-1.416-.084a7.262,7.262,0,0,1-.512-1.722,97.325,97.325,0,0,0-1.262-9.866c-.49-3.544-.853-7.12-.989-10.693-.219-5.766-.559-11.515-1.126-17.259-.283-2.862-.293-5.754-.369-8.635-.072-2.708-.078-5.418-.1-8.128-.005-.853.049-1.708.079-2.65,1.376-.172,2.574-.372,3.78-.466,6.966-.541,13.937-.98,20.928-.941,2.972.016,5.945.064,8.915,0a56.836,56.836,0,0,1,10.685.936,51.94,51.94,0,0,0,6.767.683c3.58.122,7.165.077,10.748.066.868,0,1.734-.152,2.6-.223.679-.056,1.36-.093,2.144-.146.094.742.193,1.332.241,1.927.193,2.422-.06,4.882.779,7.252a6.559,6.559,0,0,1,.063,2.085c-.007,5.068,0,10.138-.03,15.206-.056,8.129,0,16.254.372,24.376.105,2.262.016,4.532.016,6.762M34.02,121.2c-.089,1.247-.083,2.292-.25,3.31-.512,3.128-.2,6.269-.223,9.4a6.979,6.979,0,0,0,.233,1.284,51.84,51.84,0,0,1,.991,5.64c.108,1.505.632,2.446,1.764,2.859a14.541,14.541,0,0,1,2.18-.611c.863-.094,1.744,0,2.616-.034.849-.036,1.893.313,2.454-.5a12.294,12.294,0,0,0,1.255-2.822,4.071,4.071,0,0,0,.038-1.3c0-4.365,0-8.731-.015-13.1-.012-3.3-.117-3.384-3.355-3.426a7.1,7.1,0,0,1-2.829-.24,8.658,8.658,0,0,0-4.858-.459m-18.877.7a4.536,4.536,0,0,0-.171.853q.1,8.763.22,17.527a5.012,5.012,0,0,0,.024.522,2.235,2.235,0,0,0,2.161,2.208c2.44.075,4.884.046,7.325,0a1.4,1.4,0,0,0,1.416-1.29,3.925,3.925,0,0,0,.075-.78c-.012-2.267-.01-4.536-.068-6.8a4.6,4.6,0,0,0-.37-1.776,6.467,6.467,0,0,1-.456-2.809c-.008-1.744.028-3.492-.06-5.232a2.3,2.3,0,0,0-2.342-2.311c-.693-.056-1.394-.019-2.092-.029-1.819-.025-3.638-.052-5.661-.082m46.266,12.282H61.4c0-2.44.025-4.881-.007-7.322a3.914,3.914,0,0,0-3.821-4.065,5.162,5.162,0,0,1-1.771-.319c-1.512-.755-3.081-.365-4.626-.377a.961.961,0,0,0-.864,1.1c.275,1.8.574,3.6.837,5.4a62.88,62.88,0,0,1,.985,7.487,31.422,31.422,0,0,0,1,5.611,2.233,2.233,0,0,0,2.169,1.931c1.566.051,3.137.043,4.7-.014a1.3,1.3,0,0,0,1.345-1.322,16.694,16.694,0,0,0,.058-1.827c.007-2.092,0-4.184,0-6.277M18.174,168.433c.167.082.321.224.477.226,3.043.036,6.086.082,9.128.062.83,0,1.253-.46,1.242-1.367a48.829,48.829,0,0,0-.294-5.711c-.117-.886.094-1.721.011-2.531a14.126,14.126,0,0,0-1.033-2.612,7.964,7.964,0,0,1-.217-1.8c-.041-.519-.013-1.046-.078-1.561a1.2,1.2,0,0,0-1.193-1.149,12.291,12.291,0,0,0-1.3-.044c-1.131,0-2.265-.044-3.393.013-1.193.06-2.382.213-3.572.334-.65.066-1,.441-1.01,1.26-.035,2-.026,4-.02,6a2.756,2.756,0,0,0,.122,1.284c.89,1.542.594,3.21.657,4.845.036.938-.188,1.928.478,2.75m47.059-15.887c-1.472-.942-2.659-1.592-4.151-1.483a3.12,3.12,0,0,1-1.507-.279c-1.512-.721-3.052-.452-4.591-.235-.209.029-.381.317-.459.387.05,1.5.128,2.858.136,4.223.015,2.866.015,5.734-.025,8.6a2.522,2.522,0,0,0,1.13,2.215,5.221,5.221,0,0,0,3.341,1.244c1.39-.063,2.786.013,4.176-.025,1.641-.046,1.922-.326,1.946-2.048.033-2.436,0-4.874,0-7.311,0-1.734,0-3.471,0-5.289m-26.482,14.5c2.087.422,4.216-.163,6.2.909,1.019.55,1.824-.155,2.339-1.405a8.362,8.362,0,0,0,.683-3.556c-.059-1.568-.007-3.141-.021-4.711a3.628,3.628,0,0,0-.127-1.549,8.057,8.057,0,0,1-.628-3.3,2.311,2.311,0,0,0-2.348-2.339c-1.653-.092-3.315-.036-4.972-.016a1.692,1.692,0,0,0-1.621,1.08,7.648,7.648,0,0,0-.867,3.514c.025,2.267.049,4.541-.054,6.806a6.234,6.234,0,0,0,1.417,4.563" transform="translate(-2.267 -46.472)" fill="#fff3de" fill-rule="evenodd"/>
        <path id="Trazado_1356361" data-name="Trazado 1356361" d="M150.15,142.154h-3.642a5.641,5.641,0,0,1-1.18-4.183c.016-.348-.034-.7,0-1.048.179-1.918-.918-3.129-2.364-4.056A5.761,5.761,0,0,0,139,131.839c-.6.084-1.222.022-1.831.068a3.7,3.7,0,0,0-3.594,3.733c-.053,1.746-.008,3.5-.029,5.242-.01.861-.071,1.721-.107,2.545a9.2,9.2,0,0,1-7.253-.851c-.029-.7-.071-1.47-.094-2.244q-.163-5.368-.316-10.738c-.054-1.922-.143-3.843-.151-5.765q-.077-19.527-.108-39.056a12.017,12.017,0,0,1,.406-3.613,190.4,190.4,0,0,0,4.864-20.64q1.536-7.7,3.126-15.4c.117-.576.35-1.128.62-1.969a10.511,10.511,0,0,1,.872,1.208c.619,1.252,1.251,2.5,1.789,3.789q4.591,11,9.141,22.014a101.689,101.689,0,0,1,4.242,12.925,8.4,8.4,0,0,1,.064,3.112,141.8,141.8,0,0,0-.814,15.431c-.16,10.225.254,20.439.481,30.656.057,2.62.037,5.242.028,7.863,0,.591-.106,1.183-.184,2.006m-6.4-56.787h-.016c0-1.57-.124-3.153.029-4.707.231-2.336-.763-4.231-1.849-6.129a3.055,3.055,0,0,0-3.028-1.624,3.141,3.141,0,0,0-2.54,1.074c-.386.468-.885.843-1.284,1.3a6.055,6.055,0,0,0-1.657,4.251c.073,3.487.012,6.978.033,10.467a9.349,9.349,0,0,0,.205,2.072,2.218,2.218,0,0,0,2.384,1.983c2,.062,4.012.05,6.017,0,1.085-.026,1.533-.512,1.661-1.627a13.866,13.866,0,0,0,.042-1.567q.005-2.749,0-5.5m-.743,20.661c-1.021-.015-2.06.044-3.08-.067a3.582,3.582,0,0,0-3.185,1.429c-.805.9-1.648,1.74-1.626,3.135.066,4.176.04,8.355.059,12.533A2.286,2.286,0,0,0,135.9,125c2.561.9,5.277.458,7.956.484a1.363,1.363,0,0,0,1.386-1.307,12.842,12.842,0,0,0,.1-1.82c.01-2,.015-4,0-6.006-.015-1.9.228-3.84-.726-5.63a1.428,1.428,0,0,1-.106-.767c.143-1.409-.567-2.505-1.5-3.93" transform="translate(-52.169 -17.935)" fill="#fff3de" fill-rule="evenodd"/>
        <path id="Trazado_1356362" data-name="Trazado 1356362" d="M12.7,222.909a9.6,9.6,0,0,1-.147-3.847,13.441,13.441,0,0,1,1.54-.169q14.152.021,28.3.077a7.409,7.409,0,0,1,2.326.222,14.57,14.57,0,0,0,4.912.6c4.28-.025,8.56-.016,12.842-.031a6.794,6.794,0,0,0,3.316-.556,4.1,4.1,0,0,1,1.778-.257c1.834-.031,3.669.006,5.5-.023,1.029-.017,2.056-.114,3.261-.185.17.923.356,1.927.568,3.08a5.565,5.565,0,0,1-1.4.549,76.973,76.973,0,0,1-12.3.059c-1.48-.1-2.962-.23-4.444-.233-9.959-.018-19.918.013-29.877-.013a77.68,77.68,0,0,0-9.395.7,32.929,32.929,0,0,1-6.788.031" transform="translate(-5.168 -90.914)" fill="#fff" fill-rule="evenodd"/>
        <path id="Trazado_1356363" data-name="Trazado 1356363" d="M150.509,206.709c.612,2.083-.387,4.408,1.125,6.468a4.605,4.605,0,0,1-1.262.481c-1.824.066-3.652.41-5.473-.088a2.248,2.248,0,0,1-1.975-2.084,8.34,8.34,0,0,1-.033-1.048q-.041-4.457-.076-8.915a9.576,9.576,0,0,1,.041-1.308,1.589,1.589,0,0,1,1.317-1.442,7.144,7.144,0,0,1,4.085.511,3.1,3.1,0,0,1,1.751,2.7c.051.777.011,1.561.011,2.412a9.744,9.744,0,0,0-1.386.1,1.192,1.192,0,0,0-1.057,1.274,1.4,1.4,0,0,0,1.661,1.265,5.989,5.989,0,0,0,.716-.316,2.058,2.058,0,0,1,.552-.009" transform="translate(-59.358 -82.589)" fill="#f0db20" fill-rule="evenodd"/>
        <path id="Trazado_1356364" data-name="Trazado 1356364" d="M70.881,4.546c-.409,1.679-.8,3.268-1.2,4.913a6.775,6.775,0,0,1-3.317.286c-1.128-.006-2.255-.119-3.384-.146s-2.237-.007-3.39-.007c-.705-1.563-.334-3.024-.385-4.376a2.934,2.934,0,0,1,2.384-1.094c2.864-.027,5.728,0,8.593.028.145,0,.289.156.7.4" transform="translate(-24.585 -1.709)" fill="#f06d43" fill-rule="evenodd"/>
        <path id="Trazado_1356365" data-name="Trazado 1356365" d="M68.391,18.384a11.683,11.683,0,0,1-.359,5.6c-1.339.457-2.626.207-4,.351-.573-2.055-.3-3.989-.205-6.059a9.66,9.66,0,0,1,4.566.1" transform="translate(-26.467 -7.503)" fill="#fff" fill-rule="evenodd"/>
        <path id="Trazado_1356366" data-name="Trazado 1356366" d="M127.541,222.5v-3.507h6.4c.586.853.324,1.7.445,2.712-1.245.115-2.34.2-3.43.321-1.026.118-2.046.282-3.412.474" transform="translate(-53.01 -91.021)" fill="#fff" fill-rule="evenodd"/>
        <path id="Trazado_1356367" data-name="Trazado 1356367" d="M160.912,216.414a7.436,7.436,0,0,1,3.276-.1,11.338,11.338,0,0,1,.14,1.705c-.12,1.78-.351,1.93-2.63,1.847l-.785-3.451" transform="translate(-66.881 -89.852)" fill="#fff" fill-rule="evenodd"/>
        <path id="Trazado_1356368" data-name="Trazado 1356368" d="M21.888,82.017l4.318-2.193c.314-.622.621-1.235.952-1.892h2.326c.167.19.32.3.38.445.388.962.689,1.968,1.148,2.894a3.5,3.5,0,0,1-.182,3.7c-.927,1.457-1.805,2.945-2.758,4.506a9.5,9.5,0,0,1-3.288.191,2.663,2.663,0,0,1-2.874-2.7c-.1-1.643-.022-3.3-.022-4.957" transform="translate(-9.085 -32.391)" fill="#f0a243" fill-rule="evenodd"/>
        <path id="Trazado_1356369" data-name="Trazado 1356369" d="M108.37,49.9c-1.02-1.882-2.818-3.285-3.429-5.5.9-.684,1.827-1.289,2.631-2.022a18.265,18.265,0,0,0,2.1-2.326c.676-.878,1.247-1.838,1.8-2.656.694,0,.749.353.822.691a7.1,7.1,0,0,0,2.243,4.009c1.133,1,1.166,1.411.57,2.735a24.531,24.531,0,0,1-1.274,2.576c-1.158,1.927-2.684,3.205-5.454,2.493" transform="translate(-43.617 -15.542)" fill="#f0a243" fill-rule="evenodd"/>
        <path id="Trazado_1356370" data-name="Trazado 1356370" d="M79.914,53.049c.387.784.747,1.46,1.061,2.157.853,1.9,2.139,3.144,4.39,3a1.629,1.629,0,0,1,.5.14c.39.288.1.634.014.917-.459,1.485-.934,2.965-1.449,4.431a2.244,2.244,0,0,1-2.16,1.526c-1.994.227-3.192-1.12-4.593-2.051a2.2,2.2,0,0,1-.594-1.39,17.6,17.6,0,0,1-.069-2.082c-.117-3.145-.183-2.661,1.523-4.711.487-.586.886-1.245,1.373-1.938" transform="translate(-31.99 -22.049)" fill="#f06d43" fill-rule="evenodd"/>
        <path id="Trazado_1356371" data-name="Trazado 1356371" d="M53.309,34.06c3.331-.94,6.505-.585,9.866-.072a10.839,10.839,0,0,1-.291,1.724,28.385,28.385,0,0,1-1.323,3.4,10.01,10.01,0,0,1-1.475,2.108,2.45,2.45,0,0,1-3.051.731,7.761,7.761,0,0,0-1.256-.306c-1.511-.364-2.077-.982-2.153-2.488-.057-1.129,0-2.263-.041-3.395a15.237,15.237,0,0,0-.275-1.7" transform="translate(-22.157 -13.913)" fill="#f0a243" fill-rule="evenodd"/>
        <path id="Trazado_1356372" data-name="Trazado 1356372" d="M69.245,84.457a8.6,8.6,0,0,1,2.01-.423c2.086.144,3.162-1.208,4.078-2.713a13.731,13.731,0,0,0,.893-2.4c.109-.29.265-.564.676-1.42.056,1.468.166,2.32.1,3.16a3.57,3.57,0,0,0,1.358,3.208c.528.441,1.009.937,1.471,1.372-.046,1.474-.953,2.471-1.62,3.547a3.341,3.341,0,0,1-3.842,1.208,4.144,4.144,0,0,0-1.469-.445,2.271,2.271,0,0,1-2.492-1.809c-.315-.976-.685-1.933-1.168-3.284" transform="translate(-28.781 -32.211)" fill="#f0cc43" fill-rule="evenodd"/>
        <path id="Trazado_1356373" data-name="Trazado 1356373" d="M53.1,59.892a19.491,19.491,0,0,0,3.209-6.482c.807-.026.749.364.789.685.1.77.152,1.547.3,2.308A4.008,4.008,0,0,0,61.133,59.8c.172.025.351.018.518.059a5.711,5.711,0,0,1,.621.251,9.33,9.33,0,0,1-3.8,5.821,1.323,1.323,0,0,1-1.208.119,7.267,7.267,0,0,1-2.081-1.884,42.05,42.05,0,0,1-2.08-4.269" transform="translate(-22.071 -22.199)" fill="#f0a243" fill-rule="evenodd"/>
        <path id="Trazado_1356374" data-name="Trazado 1356374" d="M39.6,73.4c.835-.786,1.64-1.436,2.308-2.207.683-.787,1.135-1.783,1.86-2.515.785-.794.006-2.2,1.368-2.8a10.469,10.469,0,0,1,2.072,3.741c.323.991.38,2.023,1.491,2.6.469.243.448.921.238,1.44A4.841,4.841,0,0,1,42.778,76.6,4.121,4.121,0,0,1,39.6,73.4" transform="translate(-16.461 -27.379)" fill="#f0a243" fill-rule="evenodd"/>
        <path id="Trazado_1356375" data-name="Trazado 1356375" d="M57.114,84.194A14.923,14.923,0,0,1,54.4,87.9a2.475,2.475,0,0,1-1.854.76c-.867-.029-1.736.011-2.6,0-2.618-.046-3.673-.879-4.6-3.675a5.725,5.725,0,0,1,2.778-.226,3.789,3.789,0,0,0,2.6-.965,10.65,10.65,0,0,0,3.405-4.545l1.086.058a11.612,11.612,0,0,0,.341,2.818,9.114,9.114,0,0,0,1.561,2.075" transform="translate(-18.846 -32.936)" fill="#f0a243" fill-rule="evenodd"/>
        <path id="Trazado_1356376" data-name="Trazado 1356376" d="M63.852,47.425a8.939,8.939,0,0,0,3.478-3.09,38.868,38.868,0,0,0,1.862-4c1.134.744,1.017,1.956,1.557,2.808.508.8.923,1.665,1.446,2.625-.3.654-.654,1.336-.939,2.045-.8,1.99-2.54,3.012-4.216,4.067a2.12,2.12,0,0,1-2.768-.736c-.678-.95-.76-1.671-.421-3.715" transform="translate(-26.458 -16.763)" fill="#f0a243" fill-rule="evenodd"/>
        <path id="Trazado_1356377" data-name="Trazado 1356377" d="M117.442,62.055c.556-.483,1.2-1.041,1.911-1.659a13.042,13.042,0,0,0,5.92,4.228,3.761,3.761,0,0,1-1.588,3.418c-.937.673-1.359,1.991-2.692,2.561a12.609,12.609,0,0,1-1.37-.33,2.975,2.975,0,0,1-2.171-2.9c-.047-1.726-.011-3.455-.011-5.317" transform="translate(-48.807 -25.103)" fill="#f0a243" fill-rule="evenodd"/>
        <path id="Trazado_1356378" data-name="Trazado 1356378" d="M86.717,75.089a4.907,4.907,0,0,1,.969-.237,2.21,2.21,0,0,0,2.225-1.462c.418-.946.917-1.855,1.471-2.964a11.386,11.386,0,0,0,1.432,2.38,10.6,10.6,0,0,0,2.343,1.362,8.951,8.951,0,0,1,.152,1.165c.039,2.7-.628,3.878-3.073,4.718a4.923,4.923,0,0,1-4.895-.86,1.776,1.776,0,0,1-.6-1.087c-.085-.938-.027-1.889-.027-3.015" transform="translate(-36.035 -29.271)" fill="#f0a243" fill-rule="evenodd"/>
        <path id="Trazado_1356379" data-name="Trazado 1356379" d="M105.611,59.534A21.2,21.2,0,0,1,104.9,62a5.089,5.089,0,0,1-2.449,2.582,2.42,2.42,0,0,1-3.316-1.159,5.436,5.436,0,0,1-.479-1.469,7.7,7.7,0,0,1-.046-1.3c-.071-3.5-.069-3.5,1.927-6.817,2.024,1.618,2.664,4.45,5.076,5.7" transform="translate(-40.976 -22.377)" fill="#f0a243" fill-rule="evenodd"/>
        <path id="Trazado_1356380" data-name="Trazado 1356380" d="M91.64,40.356c.781,1.014,1.547,2.007,2.3,2.988A13.735,13.735,0,0,1,92.117,49.2a2.055,2.055,0,0,1-2.039,1.269c-.432-.022-.866-.008-1.3-.018a1.466,1.466,0,0,1-1.29-.75,10.626,10.626,0,0,1-.893-1.865c-.428-1.285-.216-2.365.965-2.919,2.052-.962,2.911-2.852,4.078-4.556" transform="translate(-35.908 -16.773)" fill="#f0a243" fill-rule="evenodd"/>
        <path id="Trazado_1356381" data-name="Trazado 1356381" d="M45.651,54.722c-2.537-1.554-3.842-3.578-3.362-6.641l3.95-3.456a21.644,21.644,0,0,0,1.253,2.042c.42.544,1.031.941,1.44,1.49a1.528,1.528,0,0,1,.288,1.187C48.6,51.119,48.142,53,46.53,54.237a8.011,8.011,0,0,1-.879.484" transform="translate(-17.536 -18.548)" fill="#f0a243" fill-rule="evenodd"/>
        <path id="Trazado_1356382" data-name="Trazado 1356382" d="M85.77,34.484c-.484,1.191-.9,2.394-1.456,3.528-.792,1.615-2.433,2.152-3.938,2.789a1.44,1.44,0,0,1-1.615-.588A11.117,11.117,0,0,1,76.827,36a6.767,6.767,0,0,1-.143-1.54,31.8,31.8,0,0,1,9.086.019" transform="translate(-31.872 -14.193)" fill="#f0a243" fill-rule="evenodd"/>
        <path id="Trazado_1356383" data-name="Trazado 1356383" d="M120.176,33.166a14.707,14.707,0,0,1,5.582-.016c.687.122,1.35.383,2.039.479a13.6,13.6,0,0,0,1.834.017,6.486,6.486,0,0,1-.749,4.008,1.652,1.652,0,0,1-1.6,1.115c-1.048,0-2.1.077-3.144-.022a2.965,2.965,0,0,1-2.626-1.859c-.482-1.187-.87-2.411-1.334-3.722" transform="translate(-49.949 -13.67)" fill="#f0cc43" fill-rule="evenodd"/>
        <path id="Trazado_1356384" data-name="Trazado 1356384" d="M36.006,58.341l2.936,4.108c-.424,1.7-1.644,3.083-2.5,4.7a6.638,6.638,0,0,1-2.847.21,1.342,1.342,0,0,1-1.38-1.295c-.134-1.117-.178-2.245-.271-3.5,1.269-1.317,2.582-2.68,4.058-4.214" transform="translate(-13.279 -24.249)" fill="#f08b22" fill-rule="evenodd"/>
        <path id="Trazado_1356385" data-name="Trazado 1356385" d="M126.935,47.041a9.634,9.634,0,0,1,3.656.129,6.144,6.144,0,0,1-.008,1.065c-.429,2.23-.881,4.455-1.328,6.681a4.065,4.065,0,0,1-.144.5c-.3.906-1,1.129-1.844.554-.646-.441-1.263-.924-2.037-1.493-.109-.333-.251-.836-.434-1.322a2.5,2.5,0,0,1,.237-2.242c.667-1.219,1.232-2.494,1.9-3.874" transform="translate(-51.8 -19.507)" fill="#f0a243" fill-rule="evenodd"/>
        <path id="Trazado_1356386" data-name="Trazado 1356386" d="M107.95,74.363c.828-.692,1.729-1.46,2.652-2.2.092-.075.321.022.587.049.2,2.2.268,4.546,3.171,5.168-.033,1.849-1.192,3.038-1.968,4.466a6.344,6.344,0,0,1-3.53-1.683,2.511,2.511,0,0,1-.919-2.053c.03-1.21.008-2.42.008-3.749" transform="translate(-44.864 -29.983)" fill="#f0a243" fill-rule="evenodd"/>
        <path id="Trazado_1356387" data-name="Trazado 1356387" d="M90.014,91.6c1.149,2.033,1.68,4.051,3.684,5.016a26.643,26.643,0,0,1-2.385,4.216c-.726,0-1.414.048-2.093-.009a2.719,2.719,0,0,1-2.232-4.287c.914-1.546,1.875-3.063,3.026-4.937" transform="translate(-35.956 -38.071)" fill="#f0a243" fill-rule="evenodd"/>
        <path id="Trazado_1356388" data-name="Trazado 1356388" d="M73.08,72.542c-.509,2.049-.857,4.126-2.9,5.223-.836-.192-1.589-.361-2.341-.536-1.105-.257-1.421-.622-1.524-1.775-.023-.26-.019-.524-.019-.785,0-.432,0-.865,0-1.284.755-.831,1.4-1.66,2.169-2.354a5.7,5.7,0,0,0,1.3-2.765c.922.276.624,1.083.95,1.536.354.491.6,1.073.986,1.53a12.113,12.113,0,0,0,1.378,1.21" transform="translate(-27.555 -28.374)" fill="#f0a243" fill-rule="evenodd"/>
        <path id="Trazado_1356389" data-name="Trazado 1356389" d="M97.383,89.622q1.928-1.626,3.93-3.32l3.861,3.442c.156,1.58-1.09,2.409-2.219,3.111a2.993,2.993,0,0,1-3.186-.227,5.063,5.063,0,0,1-2.387-3.005" transform="translate(-40.476 -35.87)" fill="#f08b22" fill-rule="evenodd"/>
        <path id="Trazado_1356390" data-name="Trazado 1356390" d="M24.621,71.5c-1.138.994-2.16,1.909-3.209,2.79a5.043,5.043,0,0,1-1.1.692,1.04,1.04,0,0,1-1.472-.65,3.494,3.494,0,0,1,.078-2.794c.667-1.322,1.275-2.675,1.913-4.027,1.329-.441,2.6-.138,3.9-.256.419,1.625-.178,2.968-.107,4.245" transform="translate(-7.725 -27.955)" fill="#f0a243" fill-rule="evenodd"/>
        <path id="Trazado_1356391" data-name="Trazado 1356391" d="M24.792,55.342c1.567-3.465,3.031-6.7,4.609-10.2a8.669,8.669,0,0,0,.924,2.06,8.383,8.383,0,0,0,1.845,1.253c.064,2.025-1.242,3.378-2.639,4.7-2.079,1.965-2.565,2.218-4.739,2.185" transform="translate(-10.304 -18.764)" fill="#f0a243" fill-rule="evenodd"/>
        <path id="Trazado_1356392" data-name="Trazado 1356392" d="M38.682,93.863l1.656-1.895a8.044,8.044,0,0,0,4.05,4c-.458,1.294-.429,2.61-1.381,3.625-1.378,1.471-1.8,1.532-3.754.349-.175-1.865-.351-3.741-.571-6.084" transform="translate(-16.078 -38.225)" fill="#f0a243" fill-rule="evenodd"/>
        <path id="Trazado_1356393" data-name="Trazado 1356393" d="M102.8,39.413c-2.317-1.444-2.877-3.576-2.532-6.264a27.952,27.952,0,0,1,6.545-.124,1.364,1.364,0,0,1,.128,1.8c-1.269,1.514-1.95,3.542-4.141,4.59" transform="translate(-41.635 -13.672)" fill="#f08b22" fill-rule="evenodd"/>
        <path id="Trazado_1356394" data-name="Trazado 1356394" d="M37.576,35.637l7.018-1.048a5.692,5.692,0,0,1-1.535,3.4,24.115,24.115,0,0,1-2.96,2.943,2.051,2.051,0,0,1-2.316.3c-.605-1.735.169-3.525-.207-5.591" transform="translate(-15.604 -14.376)" fill="#f06d43" fill-rule="evenodd"/>
        <path id="Trazado_1356395" data-name="Trazado 1356395" d="M59.539,98.053c1.4-1.113,2.6-2.064,3.89-3.094,1.3,1.668,1.928,3.835,4.382,4.361-.78.589-1.258.941-1.726,1.306a3.4,3.4,0,0,1-5.138-.692c-.462-.619-.925-1.236-1.407-1.881" transform="translate(-24.746 -39.468)" fill="#f0a243" fill-rule="evenodd"/>
        <path id="Trazado_1356396" data-name="Trazado 1356396" d="M105.894,106.769a48.721,48.721,0,0,1-7.4.023c.046-.4-.005-.7.115-.887.8-1.238,1.629-2.452,2.5-3.755a17.949,17.949,0,0,1,1.851.018,1.68,1.68,0,0,1,.926.4,6.429,6.429,0,0,1,2,4.2" transform="translate(-40.938 -42.451)" fill="#f0a243" fill-rule="evenodd"/>
        <path id="Trazado_1356397" data-name="Trazado 1356397" d="M13.247,83.669l1.818.662c-.05,1.291-.181,2.575-.122,3.85a5.514,5.514,0,0,1-.923,2.914,1.967,1.967,0,0,1-3.284.185,1.391,1.391,0,0,1-.231-1.189,45.376,45.376,0,0,1,2.742-6.422" transform="translate(-4.345 -34.776)" fill="#f07843" fill-rule="evenodd"/>
        <path id="Trazado_1356398" data-name="Trazado 1356398" d="M20.477,104.358a6.762,6.762,0,0,1-3.5.091,2.174,2.174,0,0,1-1.809-2.191c0-.256,0-.514,0-.873q1.272-.884,2.7-1.872a8,8,0,0,0,1.7,1.351,10.159,10.159,0,0,0,2.4.4l-1.484,3.092" transform="translate(-6.304 -41.361)" fill="#f0a243" fill-rule="evenodd"/>
        <path id="Trazado_1356399" data-name="Trazado 1356399" d="M120.138,90.849A4.821,4.821,0,0,1,117.6,88.26c.975-1.424,1.97-2.728,2.783-4.137a8.759,8.759,0,0,0,.566-2.347l2.11-.489c.067.237.181.41.141.537a3.482,3.482,0,0,1-.418.949,14.794,14.794,0,0,0-2.14,6.6,8.47,8.47,0,0,1-.5,1.473" transform="translate(-48.876 -33.786)" fill="#f0a243" fill-rule="evenodd"/>
        <path id="Trazado_1356400" data-name="Trazado 1356400" d="M117.028,100.243c-.226,1.485-.226,1.485-1.761,3.43a2.845,2.845,0,0,1-2.5-1.886c-.424-.844-.947-1.637-1.531-2.63.46-.607,1.016-1.341,1.624-2.142a23.61,23.61,0,0,0,2.015,1.964,17.971,17.971,0,0,0,2.156,1.264" transform="translate(-46.232 -40.323)" fill="#f0a243" fill-rule="evenodd"/>
        <path id="Trazado_1356401" data-name="Trazado 1356401" d="M5.482,105.591c-.73-2.271.116-3.887,1.455-5.563l1.991,1.135v4.119a8.423,8.423,0,0,1-3.446.309" transform="translate(-2.166 -41.575)" fill="#f0a243" fill-rule="evenodd"/>
        <path id="Trazado_1356402" data-name="Trazado 1356402" d="M50.307,104.059c.584-1.589.984-2.717,1.414-3.836.268-.7.789-.851,1.5-.574a12.441,12.441,0,0,0,.971,2.023,3.179,3.179,0,0,1,.953,2.2c-1.5.457-3,.156-4.837.191" transform="translate(-20.909 -41.363)" fill="#f0a243" fill-rule="evenodd"/>
        <path id="Trazado_1356403" data-name="Trazado 1356403" d="M79.521,106.78c-1.453-.325-3.018-.25-4.514-.968.614-.967,1.9-1.035,2.29-2.115.122-.337.288-.277,1.924-.063.169.965.346,1.944.507,2.926.008.05-.111.121-.207.22" transform="translate(-31.175 -43.001)" fill="#f0a243" fill-rule="evenodd"/>
        <path id="Trazado_1356404" data-name="Trazado 1356404" d="M33.108,105.121c-.882.075-1.476.15-2.072.169a12.625,12.625,0,0,1-1.273-.086c1.007-2.769,1.259-3.02,3.345-3.353Z" transform="translate(-12.371 -42.333)" fill="#f0a243" fill-rule="evenodd"/>
        <path id="Trazado_1356405" data-name="Trazado 1356405" d="M55.795,132.14a1.784,1.784,0,0,1,2.07-.31,7.905,7.905,0,0,0,3.829.584c.508.015,1.015.066,1.483.1.467,1.888.569,7.971.208,11.66-2,.531-4.065.2-6.228.243a8.664,8.664,0,0,1-.553-1.735c-.169-1.734-.278-3.475-.348-5.215-.072-1.806.144-3.627-.46-5.325" transform="translate(-23.19 -54.708)" fill="#fff" fill-rule="evenodd"/>
        <path id="Trazado_1356406" data-name="Trazado 1356406" d="M64.477,157.132c.039,1.89-.182,2.2-1.686,2.27-.951.045-1.906.008-2.9.008-.65-.69-1.484-1.2-1.452-2.4a23.972,23.972,0,0,1,6.036.124" transform="translate(-24.289 -65.204)" fill="#fff" fill-rule="evenodd"/>
        <path id="Trazado_1356407" data-name="Trazado 1356407" d="M25.622,154.238c0-1.822.07-3.381-.02-4.93-.085-1.453-.34-2.894-.536-4.46h5.669a6.084,6.084,0,0,1,1.2,3.937c-.041,1.728-.01,3.457-.01,5.263-2.083.65-4.016.411-6.3.19" transform="translate(-10.418 -60.203)" fill="#eddd81" fill-rule="evenodd"/>
        <path id="Trazado_1356408" data-name="Trazado 1356408" d="M24.868,137.812a40.674,40.674,0,0,1-.181-4.7,19.048,19.048,0,0,1,6.224-.144,13.692,13.692,0,0,1,.063,4.432c-1.058.6-2.118.351-3.127.4-.931.043-1.865.01-2.979.01" transform="translate(-10.261 -55.19)" fill="#fff" fill-rule="evenodd"/>
        <path id="Trazado_1356409" data-name="Trazado 1356409" d="M93.439,146.228a35.624,35.624,0,0,1-.078,9.43c-3.991.67-3.729.082-4.666-3.364a35.474,35.474,0,0,1-.61-5.828c1.687-.56,3.467-.108,5.354-.238" transform="translate(-36.611 -60.757)" fill="#dbe4d3" fill-rule="evenodd"/>
        <path id="Trazado_1356410" data-name="Trazado 1356410" d="M92.792,138.461c-2.117.251-4.07.493-5.924-1.054-.279-1.259-.863-2.631-.564-4.144a1.234,1.234,0,0,1,1.641-.327,6.7,6.7,0,0,0,2.5.593,2.648,2.648,0,0,1,2.463,2.794c.014.671-.069,1.345-.115,2.138" transform="translate(-35.836 -55.18)" fill="#fff" fill-rule="evenodd"/>
        <path id="Trazado_1356411" data-name="Trazado 1356411" d="M36.027,194.331a9.757,9.757,0,0,1,1.008,6.309,17.106,17.106,0,0,1-7.057.215c-.6-1.726-.206-3.52-.265-5.4,2.138-.7,4.425.415,6.314-1.126" transform="translate(-12.319 -80.771)" fill="#fff" fill-rule="evenodd"/>
        <path id="Trazado_1356412" data-name="Trazado 1356412" d="M28.629,188.794c-.061-.712-.14-1.219-.143-1.727-.006-1.125.024-2.251.043-3.548.812.053,1.469.112,2.128.134.7.025,1.4,0,2.1.026s1.367.1,2.158.157c.178,1.285.344,2.476.508,3.662-1.988,1.6-4.268,1.312-6.792,1.3" transform="translate(-11.84 -76.277)" fill="#fff" fill-rule="evenodd"/>
        <path id="Trazado_1356413" data-name="Trazado 1356413" d="M93.321,181.583c1.573.182,2.928.362,4.29.488,1.551.144,2.017.531,2.013,2.11a22.409,22.409,0,0,1-.174,5.29H93.427a22.258,22.258,0,0,1-.106-7.887" transform="translate(-38.662 -75.472)" fill="#fff" fill-rule="evenodd"/>
        <path id="Trazado_1356414" data-name="Trazado 1356414" d="M99.265,201.28c-1.209,0-2.42.026-3.629-.008a2.545,2.545,0,0,1-2.253-1.511c-.135-.261-.02-.649-.02-1.1H99.5a2.483,2.483,0,0,1-.231,2.614" transform="translate(-38.786 -82.572)" fill="#fff" fill-rule="evenodd"/>
        <path id="Trazado_1356415" data-name="Trazado 1356415" d="M69.929,191.952c.019,2.474.5,4.7-.441,6.979-.868-.178-1.591-.378-2.326-.462-.684-.077-1.386,0-2.075-.049-1.069-.076-1.521-.529-1.622-1.632-.054-.6-.033-1.211-.037-1.817,0-.944,0-1.888,0-2.949a25.389,25.389,0,0,1,6.5-.07" transform="translate(-26.362 -79.708)" fill="#eddd81" fill-rule="evenodd"/>
        <path id="Trazado_1356416" data-name="Trazado 1356416" d="M69.014,182.57v3.179a17.621,17.621,0,0,1-5.632.138c-.119-1.089-.23-2.1-.353-3.242a21.671,21.671,0,0,1,5.984-.075" transform="translate(-26.197 -75.812)" fill="#fff" fill-rule="evenodd"/>
        <path id="Trazado_1356417" data-name="Trazado 1356417" d="M148.564,110.149c-1.522,0-2.735.044-3.943-.015A1.292,1.292,0,0,1,143.3,108.8q-.062-3.388,0-6.778a2.438,2.438,0,0,1,.439-1.19,6.867,6.867,0,0,1,1.027-1.172c.487-.47,1.014-.9,1.539-1.359a4.877,4.877,0,0,1,2.285,3.745,60.011,60.011,0,0,1-.022,8.1" transform="translate(-59.546 -40.857)" fill="#fff" fill-rule="evenodd"/>
        <path id="Trazado_1356418" data-name="Trazado 1356418" d="M143.417,124.194v-2.211c.24-.148.385-.316.52-.308,1.475.086,2.946.2,4.358.3.15.213.319.344.327.484.033.511.014,1.024.014,1.579a12.764,12.764,0,0,1-5.219.154" transform="translate(-59.609 -50.572)" fill="#dbe4d3" fill-rule="evenodd"/>
        <path id="Trazado_1356419" data-name="Trazado 1356419" d="M151.184,163.839h-5.36a8.007,8.007,0,0,1-.312-1.461c-.037-1.474-.038-2.952.006-4.425a3.646,3.646,0,0,1,2.665-3.417,1.534,1.534,0,0,1,2.093,1.313,30.734,30.734,0,0,1,.66,3.021c.159,1.537.164,3.09.248,4.97" transform="translate(-60.468 -64.194)" fill="#fff" fill-rule="evenodd"/>
        <path id="Trazado_1356420" data-name="Trazado 1356420" d="M145.657,174.652a20.175,20.175,0,0,1,5.348.093c.04.881.077,1.7.118,2.626a7.974,7.974,0,0,1-4.359.263c-.848-.1-1.243-.692-1.277-1.659a8.325,8.325,0,0,1,.17-1.322" transform="translate(-60.469 -72.535)" fill="#fff" fill-rule="evenodd"/>
        <path id="Trazado_1356421" data-name="Trazado 1356421" d="M34.9,16.843a32.131,32.131,0,0,0,.075-6.463c-.414-.156-.8-.309-1.192-.45a1.877,1.877,0,0,1-1.338-1.762,36.846,36.846,0,0,1,.133-6.658A10.6,10.6,0,0,1,38.5.013c2.354.118,4.719.03,7.08.033.524,0,1.051-.02,1.574.022,1.324.11,1.827.728,1.663,2.1-.082.691-.29,1.365-.437,2.047A34.36,34.36,0,0,0,47.641,7.8c-.175,1.723-.853,2.832-2.824,2.765a35.855,35.855,0,0,0-.241,5.722,5.4,5.4,0,0,0,2.919.337q12.587.025,25.176,0a20.011,20.011,0,0,1,4.93.532,12.822,12.822,0,0,0,3.639.211,3.694,3.694,0,0,1,3.85,2.516c.624,1.443,1.3,2.867,1.864,4.332,2.086,5.373,4.132,10.76,6.2,16.139.5,1.3.995,2.613,1.544,3.9a31.693,31.693,0,0,1,1.982,6.226C96.991,52.01,97.542,53.5,98,55c.941,3.089,1.97,6.155,2.8,9.274a11.774,11.774,0,0,1,.191,3.628c-.2,3.488-.683,6.969-.716,10.455-.082,8.477-.008,16.957.073,25.436.041,4.192.379,8.385.32,12.575-.057,4.1-.448,8.2-.7,12.3a5.828,5.828,0,0,1-.116.777,3.5,3.5,0,0,1-3.227,3.256,27.122,27.122,0,0,1-9.12.446,53.175,53.175,0,0,0-12.811.232c-2.612.3-5.2.315-7.805.47a38.768,38.768,0,0,1-5.445.407c-.435-.034-.88.032-1.31-.032-4.434-.67-8.9-.4-13.352-.426q-11.932-.059-23.865,0a58.286,58.286,0,0,0-6.271.38,82.008,82.008,0,0,1-10.215.239,7.811,7.811,0,0,1-1.733-.429c-.033-.665-.065-1.179-.084-1.693-.1-2.618-.216-5.236-.279-7.855A72.46,72.46,0,0,0,3.2,115.08a95.878,95.878,0,0,1-.989-9.641c-.328-6.2-.439-12.4-1.175-18.572A72.973,72.973,0,0,1,.712,76.391c.061-2.447.051-4.9.127-7.341a10.252,10.252,0,0,0-.466-3.87,7.025,7.025,0,0,1,.5-5.575Q7.863,44.653,14.913,29.727c.965-2.055,1.809-4.171,2.834-6.194.785-1.55,1.765-3,2.668-4.492a2.678,2.678,0,0,1,1.944-1.166,38.989,38.989,0,0,1,8.074-.753,19.83,19.83,0,0,0,4.465-.279M71.274,124.271c0-2.229.089-4.5-.016-6.761-.375-8.123-.427-16.248-.372-24.376.034-5.068.023-10.138.03-15.206a6.559,6.559,0,0,0-.062-2.085c-.84-2.369-.586-4.83-.779-7.252-.049-.594-.147-1.185-.241-1.927-.784.053-1.465.091-2.144.146-.869.071-1.735.22-2.6.223-3.583.011-7.168.056-10.748-.066a51.93,51.93,0,0,1-6.766-.683,56.84,56.84,0,0,0-10.685-.936c-2.97.068-5.942.02-8.915,0-6.991-.039-13.962.4-20.928.941-1.206.093-2.4.293-3.78.466-.03.942-.084,1.8-.078,2.65.017,2.709.023,5.42.095,8.127.077,2.881.086,5.773.369,8.636.567,5.743.907,11.493,1.126,17.258.136,3.573.5,7.15.99,10.693a97.325,97.325,0,0,1,1.262,9.866,7.232,7.232,0,0,0,.512,1.722c.563.035.99.086,1.417.084q13.894-.065,27.79-.144a13.135,13.135,0,0,1,4.4.538,6.539,6.539,0,0,0,2.061.247q6.817.032,13.633.006a4.032,4.032,0,0,0,1.789-.224,6.79,6.79,0,0,1,3.32-.527c1.573-.006,3.148-.044,4.719.016a5.818,5.818,0,0,0,4.607-1.435m26.707-.051c.078-.823.182-1.415.183-2.007.009-2.621.029-5.243-.027-7.863-.228-10.217-.641-20.431-.481-30.656a141.792,141.792,0,0,1,.813-15.43,8.391,8.391,0,0,0-.063-3.112,101.788,101.788,0,0,0-4.242-12.925Q89.6,41.215,85.023,30.212c-.538-1.288-1.169-2.537-1.789-3.789a10.416,10.416,0,0,0-.872-1.208c-.27.841-.5,1.393-.621,1.969q-1.582,7.7-3.125,15.4a190.125,190.125,0,0,1-4.864,20.64,12.034,12.034,0,0,0-.406,3.613q.017,19.527.108,39.056c.008,1.922.1,3.843.151,5.764q.155,5.37.316,10.739c.023.774.065,1.548.095,2.244a9.194,9.194,0,0,0,7.253.851c.037-.823.1-1.684.107-2.544.022-1.747-.025-3.5.03-5.242A3.694,3.694,0,0,1,85,113.972c.609-.047,1.229.015,1.831-.068a5.764,5.764,0,0,1,3.964,1.028c1.446.926,2.542,2.138,2.363,4.056-.034.346.016.7,0,1.048a5.642,5.642,0,0,0,1.18,4.183ZM7.533,131.995a32.969,32.969,0,0,0,6.788-.031,77.7,77.7,0,0,1,9.4-.7c9.959.027,19.918,0,29.876.013,1.482,0,2.965.129,4.444.233a77.107,77.107,0,0,0,12.3-.059,5.608,5.608,0,0,0,1.4-.549c-.212-1.153-.4-2.156-.567-3.08-1.2.071-2.232.168-3.261.185-1.835.029-3.67-.008-5.5.023a4.093,4.093,0,0,0-1.778.257,6.8,6.8,0,0,1-3.316.556c-4.281.015-8.561.006-12.841.031a14.59,14.59,0,0,1-4.912-.6,7.387,7.387,0,0,0-2.326-.221q-14.153-.058-28.3-.077a13.419,13.419,0,0,0-1.539.168,9.594,9.594,0,0,0,.146,3.847M91.15,124.12a2.057,2.057,0,0,0-.552.009,5.991,5.991,0,0,1-.716.316,1.4,1.4,0,0,1-1.661-1.266,1.191,1.191,0,0,1,1.057-1.273,9.658,9.658,0,0,1,1.386-.1c0-.851.04-1.634-.011-2.412a3.1,3.1,0,0,0-1.751-2.7,7.139,7.139,0,0,0-4.085-.511,1.588,1.588,0,0,0-1.317,1.441,9.588,9.588,0,0,0-.041,1.309q.033,4.458.076,8.915a8.339,8.339,0,0,0,.033,1.048,2.249,2.249,0,0,0,1.975,2.084c1.821.5,3.65.155,5.473.089a4.644,4.644,0,0,0,1.262-.481c-1.513-2.06-.513-4.386-1.125-6.468M12.8,49.626c0,1.66-.078,3.315.022,4.957a2.663,2.663,0,0,0,2.874,2.7,9.5,9.5,0,0,0,3.289-.191c.953-1.561,1.831-3.049,2.758-4.506a3.5,3.5,0,0,0,.182-3.7c-.46-.927-.76-1.932-1.148-2.894-.06-.147-.213-.255-.38-.445H18.073c-.33.657-.638,1.27-.951,1.893L12.8,49.626m51.95-15.269c2.771.712,4.3-.566,5.454-2.493a24.478,24.478,0,0,0,1.275-2.576c.6-1.325.563-1.738-.57-2.735a7.1,7.1,0,0,1-2.243-4.009c-.073-.338-.127-.694-.822-.691-.548.818-1.119,1.778-1.8,2.656a18.268,18.268,0,0,1-2.1,2.327c-.8.734-1.728,1.338-2.631,2.022.61,2.215,2.409,3.618,3.428,5.5M47.924,31c-.487.694-.886,1.353-1.373,1.938-1.705,2.051-1.64,1.566-1.523,4.711a17.35,17.35,0,0,0,.07,2.082,2.19,2.19,0,0,0,.593,1.39c1.4.931,2.6,2.277,4.593,2.051a2.243,2.243,0,0,0,2.159-1.526c.515-1.466.99-2.946,1.449-4.431.087-.283.376-.631-.013-.918a1.649,1.649,0,0,0-.5-.14c-2.251.144-3.537-1.1-4.389-3-.314-.7-.674-1.373-1.061-2.157M31.152,20.147a15.11,15.11,0,0,1,.275,1.7c.043,1.131-.015,2.266.042,3.395.075,1.506.642,2.125,2.153,2.488a7.8,7.8,0,0,1,1.256.306,2.45,2.45,0,0,0,3.052-.731A9.992,9.992,0,0,0,39.4,25.2a28.35,28.35,0,0,0,1.324-3.4,10.894,10.894,0,0,0,.291-1.724c-3.361-.512-6.536-.867-9.866.072M46.295,2.836c-.41-.238-.553-.394-.7-.4-2.865-.025-5.729-.054-8.593-.027a2.931,2.931,0,0,0-2.384,1.094C34.669,4.86,34.3,6.32,35,7.884c1.154,0,2.273-.022,3.391.006s2.256.14,3.383.147A6.784,6.784,0,0,0,45.1,7.75c.4-1.645.79-3.234,1.2-4.913m-5.83,49.409c.483,1.351.853,2.308,1.168,3.284a2.271,2.271,0,0,0,2.491,1.809,4.143,4.143,0,0,1,1.469.445,3.339,3.339,0,0,0,3.842-1.208c.669-1.076,1.575-2.073,1.621-3.547-.462-.435-.943-.931-1.47-1.372a3.57,3.57,0,0,1-1.359-3.208c.062-.84-.048-1.692-.1-3.16-.411.856-.567,1.13-.676,1.42a13.731,13.731,0,0,1-.893,2.4c-.917,1.5-1.993,2.858-4.078,2.713a8.6,8.6,0,0,0-2.01.422M31.031,37.694a42.05,42.05,0,0,0,2.08,4.269,7.265,7.265,0,0,0,2.08,1.884,1.324,1.324,0,0,0,1.21-.119,9.329,9.329,0,0,0,3.8-5.821,5.836,5.836,0,0,0-.621-.251c-.168-.041-.346-.033-.518-.058A4.008,4.008,0,0,1,35.328,34.2c-.147-.76-.2-1.538-.3-2.308-.04-.321.018-.711-.789-.685a19.473,19.473,0,0,1-3.209,6.482m-7.888,8.324a4.121,4.121,0,0,0,3.174,3.2,4.84,4.84,0,0,0,6.164-2.943c.21-.519.231-1.2-.238-1.44-1.111-.577-1.169-1.609-1.491-2.6a10.477,10.477,0,0,0-2.072-3.741c-1.362.6-.582,2.008-1.368,2.8-.725.732-1.177,1.729-1.86,2.515-.668.77-1.473,1.421-2.308,2.207m15.125,5.239a9.085,9.085,0,0,1-1.561-2.075,11.608,11.608,0,0,1-.341-2.818l-1.086-.058a10.65,10.65,0,0,1-3.405,4.545,3.786,3.786,0,0,1-2.6.965,5.725,5.725,0,0,0-2.778.226c.93,2.8,1.984,3.629,4.6,3.675.867.015,1.737-.024,2.6,0a2.475,2.475,0,0,0,1.854-.76,14.887,14.887,0,0,0,2.713-3.7m-.875-20.6c-.338,2.045-.257,2.766.422,3.715a2.12,2.12,0,0,0,2.768.736C42.258,34.059,44,33.036,44.8,31.047c.285-.709.637-1.391.94-2.045-.524-.96-.94-1.822-1.447-2.626-.54-.852-.424-2.063-1.557-2.807a39.1,39.1,0,0,1-1.862,4,8.927,8.927,0,0,1-3.479,3.09m31.241,6.291c0,1.862-.036,3.592.011,5.317a2.977,2.977,0,0,0,2.172,2.9,12.727,12.727,0,0,0,1.37.331c1.333-.571,1.754-1.888,2.691-2.562a3.76,3.76,0,0,0,1.588-3.418,13.042,13.042,0,0,1-5.92-4.228c-.711.618-1.356,1.176-1.911,1.659M50.683,45.817c0,1.127-.058,2.077.027,3.015a1.777,1.777,0,0,0,.6,1.087,4.922,4.922,0,0,0,4.894.86c2.446-.84,3.112-2.014,3.073-4.718a9.051,9.051,0,0,0-.152-1.165,10.609,10.609,0,0,1-2.343-1.362,11.421,11.421,0,0,1-1.432-2.38c-.555,1.109-1.054,2.018-1.471,2.963a2.21,2.21,0,0,1-2.225,1.462,4.96,4.96,0,0,0-.969.237m13.952-8.66c-2.412-1.245-3.052-4.077-5.075-5.7-2,3.316-2,3.316-1.928,6.817a7.766,7.766,0,0,0,.046,1.3,5.433,5.433,0,0,0,.48,1.468,2.418,2.418,0,0,0,3.316,1.159,5.085,5.085,0,0,0,2.449-2.582,21.2,21.2,0,0,0,.712-2.468m-8.9-13.574c-1.167,1.7-2.026,3.594-4.078,4.556-1.182.554-1.394,1.634-.966,2.919a10.71,10.71,0,0,0,.893,1.865,1.465,1.465,0,0,0,1.29.75c.434.011.868,0,1.3.018a2.055,2.055,0,0,0,2.039-1.269,13.734,13.734,0,0,0,1.826-5.851c-.756-.981-1.523-1.974-2.3-2.988M28.115,36.175a8.114,8.114,0,0,0,.879-.484c1.613-1.232,2.072-3.118,2.689-4.894a1.529,1.529,0,0,0-.288-1.187c-.41-.549-1.021-.945-1.44-1.489A21.658,21.658,0,0,1,28.7,26.077l-3.95,3.457c-.48,3.063.826,5.086,3.362,6.641M53.9,20.291a31.8,31.8,0,0,0-9.087-.019,6.792,6.792,0,0,0,.143,1.539,11.125,11.125,0,0,0,1.935,4.209,1.441,1.441,0,0,0,1.615.588c1.506-.636,3.146-1.173,3.939-2.789.556-1.134.971-2.336,1.456-3.527m16.328-.8c.465,1.311.852,2.535,1.335,3.722a2.964,2.964,0,0,0,2.626,1.859c1.038.1,2.1.022,3.144.022a1.653,1.653,0,0,0,1.6-1.115,6.485,6.485,0,0,0,.748-4.008,13.606,13.606,0,0,1-1.834-.017c-.688-.1-1.352-.357-2.039-.479a14.707,14.707,0,0,0-5.582.016m-47.5,14.6-4.058,4.214c.093,1.259.137,2.386.271,3.5a1.343,1.343,0,0,0,1.38,1.3,6.647,6.647,0,0,0,2.847-.21c.852-1.612,2.072-2.991,2.5-4.7l-2.936-4.108m52.407-6.559c-.67,1.38-1.234,2.655-1.9,3.874A2.5,2.5,0,0,0,73,33.651c.183.486.325.988.434,1.321.773.57,1.39,1.052,2.037,1.493.842.576,1.542.353,1.843-.553a3.976,3.976,0,0,0,.145-.5c.447-2.226.9-4.451,1.328-6.681a6.144,6.144,0,0,0,.008-1.065,9.646,9.646,0,0,0-3.656-.129M63.086,44.38c0,1.329.022,2.54-.008,3.749A2.512,2.512,0,0,0,64,50.183a6.346,6.346,0,0,0,3.53,1.683c.777-1.429,1.936-2.617,1.968-4.466-2.9-.623-2.973-2.968-3.17-5.169-.266-.027-.494-.124-.587-.049-.923.738-1.824,1.506-2.652,2.2m-9.028,9.146c-1.152,1.874-2.113,3.392-3.026,4.937a2.718,2.718,0,0,0,2.232,4.287c.678.058,1.366.009,2.093.009a26.632,26.632,0,0,0,2.385-4.217c-2-.965-2.535-2.983-3.684-5.016m-8.534-9.358a12.225,12.225,0,0,1-1.378-1.21c-.39-.456-.631-1.038-.985-1.53-.327-.453-.028-1.259-.95-1.536a5.7,5.7,0,0,1-1.3,2.766c-.769.694-1.414,1.523-2.17,2.354,0,.419,0,.852,0,1.284,0,.262,0,.525.019.785.1,1.152.419,1.518,1.524,1.775.751.175,1.5.344,2.34.536,2.041-1.1,2.388-3.174,2.9-5.223m11.383,9.584a5.063,5.063,0,0,0,2.387,3.005,3,3,0,0,0,3.186.227c1.128-.7,2.375-1.531,2.219-3.111l-3.861-3.442q-2.008,1.7-3.93,3.32M16.9,43.549c-.071-1.278.526-2.621.107-4.245-1.3.117-2.569-.186-3.9.255-.638,1.352-1.245,2.7-1.913,4.027a3.5,3.5,0,0,0-.078,2.794,1.041,1.041,0,0,0,1.473.65,5.076,5.076,0,0,0,1.1-.692c1.049-.882,2.072-1.8,3.209-2.79m-2.408-6.971c2.173.033,2.659-.22,4.738-2.186,1.4-1.32,2.7-2.673,2.639-4.7a8.391,8.391,0,0,1-1.844-1.253,8.651,8.651,0,0,1-.924-2.06l-4.609,10.2M22.6,55.637c.22,2.343.4,4.219.571,6.084,1.957,1.183,2.376,1.123,3.754-.349.952-1.016.924-2.331,1.381-3.625a8.043,8.043,0,0,1-4.05-4L22.6,55.637m38.559-29.9c2.191-1.048,2.872-3.076,4.141-4.59a1.365,1.365,0,0,0-.128-1.8,27.952,27.952,0,0,0-6.545.124c-.345,2.688.214,4.82,2.532,6.264m-39.192-4.48c.376,2.065-.4,3.856.207,5.591a2.05,2.05,0,0,0,2.316-.3,24.2,24.2,0,0,0,2.96-2.943,5.692,5.692,0,0,0,1.534-3.4l-7.018,1.048M41.924,10.881a9.668,9.668,0,0,0-4.566-.1c-.091,2.069-.368,4,.205,6.059,1.376-.144,2.665.105,4-.351a11.693,11.693,0,0,0,.358-5.6m-7.132,47.7c.482.645.946,1.262,1.407,1.881a3.4,3.4,0,0,0,5.138.692c.469-.365.947-.718,1.726-1.307-2.453-.525-3.081-2.693-4.381-4.361-1.294,1.03-2.488,1.98-3.89,3.094m30.163,5.734a6.428,6.428,0,0,0-2-4.2,1.678,1.678,0,0,0-.926-.4,17.946,17.946,0,0,0-1.851-.018c-.874,1.3-1.707,2.517-2.5,3.755-.12.188-.068.486-.115.887a48.723,48.723,0,0,0,7.4-.023M8.9,48.893A45.4,45.4,0,0,0,6.16,55.314,1.392,1.392,0,0,0,6.392,56.5a1.967,1.967,0,0,0,3.284-.185A5.509,5.509,0,0,0,10.6,53.4c-.059-1.275.072-2.558.122-3.85L8.9,48.893M14.173,63l1.485-3.092a10.22,10.22,0,0,1-2.4-.4,8.012,8.012,0,0,1-1.7-1.351q-1.425.986-2.7,1.872c0,.359,0,.617,0,.873a2.174,2.174,0,0,0,1.808,2.191,6.762,6.762,0,0,0,3.5-.091m57.089-5.935a8.417,8.417,0,0,0,.5-1.473,14.808,14.808,0,0,1,2.14-6.6,3.464,3.464,0,0,0,.418-.949c.04-.127-.074-.3-.141-.537l-2.11.489a8.759,8.759,0,0,1-.566,2.347c-.813,1.408-1.809,2.713-2.783,4.137a4.82,4.82,0,0,0,2.544,2.589M70.8,59.92a17.887,17.887,0,0,1-2.156-1.263,23.71,23.71,0,0,1-2.015-1.965L65,58.834c.584.994,1.107,1.786,1.531,2.63a2.844,2.844,0,0,0,2.5,1.886c1.535-1.945,1.535-1.945,1.761-3.43m3.735,71.558c1.366-.192,2.387-.356,3.412-.474,1.09-.124,2.186-.206,3.431-.321-.121-1.009.141-1.859-.445-2.712h-6.4ZM3.314,64.016a8.426,8.426,0,0,0,3.447-.309V59.588L4.77,58.453c-1.34,1.676-2.186,3.292-1.456,5.563M29.4,62.7c1.836-.034,3.334.266,4.837-.191a3.183,3.183,0,0,0-.954-2.2,12.414,12.414,0,0,1-.97-2.023c-.71-.277-1.231-.124-1.5.574-.43,1.119-.83,2.248-1.414,3.836m64.634,63.867c.275,1.21.534,2.347.785,3.452,2.28.082,2.51-.068,2.63-1.848a11.258,11.258,0,0,0-.139-1.705,7.436,7.436,0,0,0-3.276.1M48.346,63.779c.1-.1.214-.169.207-.22-.161-.982-.338-1.962-.508-2.926-1.636-.214-1.8-.275-1.924.063-.39,1.08-1.676,1.148-2.29,2.115,1.5.718,3.061.643,4.514.968m-27.608-.991v-3.27c-2.086.333-2.337.584-3.345,3.353a12.627,12.627,0,0,0,1.273.086c.6-.019,1.19-.093,2.072-.169" transform="translate(0 0)" fill-rule="evenodd"/>
        <path id="Trazado_1356422" data-name="Trazado 1356422" d="M53.95,127.787a8.655,8.655,0,0,1,4.857.459,7.1,7.1,0,0,0,2.829.24c3.237.043,3.343.127,3.355,3.427.015,4.366.011,8.732.015,13.1a4.051,4.051,0,0,1-.039,1.3,12.262,12.262,0,0,1-1.255,2.823c-.56.817-1.605.467-2.453.5-.872.039-1.754-.06-2.616.035a14.462,14.462,0,0,0-2.18.61c-1.132-.413-1.656-1.353-1.764-2.859a51.831,51.831,0,0,0-.99-5.639,7.039,7.039,0,0,1-.233-1.284c.027-3.135-.289-6.277.223-9.4.168-1.019.161-2.063.251-3.31m.851,2.705c.605,1.7.389,3.519.461,5.325.069,1.74.178,3.482.348,5.215a8.619,8.619,0,0,0,.553,1.736c2.163-.044,4.227.289,6.228-.242.362-3.689.259-9.772-.207-11.66-.468-.033-.975-.085-1.483-.1a7.9,7.9,0,0,1-3.828-.584,1.785,1.785,0,0,0-2.071.31m7.583,14.5a23.972,23.972,0,0,0-6.037-.124c-.033,1.2.8,1.713,1.452,2.4.992,0,1.948.037,2.9-.008,1.5-.07,1.725-.38,1.686-2.27" transform="translate(-22.196 -53.06)" fill-rule="evenodd"/>
        <path id="Trazado_1356423" data-name="Trazado 1356423" d="M21.913,129.072c2.023.029,3.842.057,5.661.082.7.01,1.4-.027,2.092.029a2.294,2.294,0,0,1,2.342,2.311c.089,1.74.053,3.488.061,5.232a6.465,6.465,0,0,0,.455,2.808,4.6,4.6,0,0,1,.371,1.776c.058,2.267.056,4.536.068,6.8a3.969,3.969,0,0,1-.075.78,1.4,1.4,0,0,1-1.416,1.29c-2.441.043-4.886.072-7.326,0a2.235,2.235,0,0,1-2.16-2.208,5.177,5.177,0,0,1-.025-.522q-.114-8.763-.219-17.526a4.559,4.559,0,0,1,.17-.853m2.328,18.609c2.287.221,4.22.459,6.3-.191,0-1.807-.032-3.536.01-5.263a6.083,6.083,0,0,0-1.2-3.937H23.685c.2,1.566.451,3.008.536,4.46.09,1.55.02,3.108.02,4.93m-.6-11.413c1.114,0,2.048.033,2.979-.01,1.009-.048,2.069.2,3.127-.4a13.692,13.692,0,0,0-.063-4.432,19.048,19.048,0,0,0-6.224.144,40.673,40.673,0,0,0,.181,4.7" transform="translate(-9.037 -53.647)" fill-rule="evenodd"/>
        <path id="Trazado_1356424" data-name="Trazado 1356424" d="M93.305,141.43c0,2.093,0,4.185,0,6.277a16.84,16.84,0,0,1-.058,1.827,1.3,1.3,0,0,1-1.345,1.323c-1.567.056-3.138.064-4.7.014a2.233,2.233,0,0,1-2.168-1.932,31.423,31.423,0,0,1-1-5.611,62.75,62.75,0,0,0-.985-7.486c-.264-1.8-.563-3.6-.837-5.4a.96.96,0,0,1,.864-1.1c1.546.012,3.115-.378,4.626.377a5.167,5.167,0,0,0,1.771.319,3.914,3.914,0,0,1,3.821,4.065c.032,2.441.008,4.882.008,7.323Zm-2.314-2.235c-1.887.13-3.667-.322-5.354.238a35.538,35.538,0,0,0,.61,5.828c.937,3.445.676,4.033,4.665,3.364a35.621,35.621,0,0,0,.079-9.43M91.118,137c.046-.792.129-1.466.115-2.138a2.648,2.648,0,0,0-2.463-2.794,6.7,6.7,0,0,1-2.5-.593,1.234,1.234,0,0,0-1.641.327c-.3,1.512.285,2.884.564,4.144,1.854,1.547,3.807,1.3,5.924,1.054" transform="translate(-34.163 -53.723)" fill-rule="evenodd"/>
        <path id="Trazado_1356425" data-name="Trazado 1356425" d="M26.318,196.966c-.667-.822-.443-1.812-.479-2.75-.063-1.634.233-3.3-.657-4.845a2.755,2.755,0,0,1-.122-1.284c-.006-2-.015-4,.02-6,.015-.819.36-1.194,1.011-1.26,1.19-.121,2.378-.273,3.572-.334,1.128-.057,2.262-.017,3.393-.013a12.281,12.281,0,0,1,1.3.044,1.2,1.2,0,0,1,1.193,1.149c.064.515.036,1.042.078,1.561a7.931,7.931,0,0,0,.217,1.8,14.126,14.126,0,0,1,1.033,2.612c.084.811-.127,1.645-.011,2.531a48.833,48.833,0,0,1,.294,5.712c.011.906-.413,1.362-1.242,1.367-3.043.02-6.086-.026-9.128-.062-.155,0-.31-.143-.476-.226m7.8-8.4c-1.889,1.541-4.176.43-6.314,1.126.06,1.877-.334,3.672.265,5.4a17.1,17.1,0,0,0,7.057-.214,9.758,9.758,0,0,0-1.009-6.309M27.2,187.522c2.524.016,4.8.3,6.792-1.3-.164-1.186-.33-2.377-.508-3.662-.791-.06-1.474-.129-2.158-.157s-1.4,0-2.1-.026c-.659-.022-1.316-.081-2.128-.134-.019,1.3-.049,2.423-.043,3.548,0,.508.081,1.015.143,1.727" transform="translate(-10.41 -75.005)" fill-rule="evenodd"/>
        <path id="Trazado_1356426" data-name="Trazado 1356426" d="M100.135,179.934c0,1.819,0,3.555,0,5.29,0,2.436.029,4.874,0,7.31-.023,1.722-.3,2-1.945,2.048-1.391.038-2.786-.038-4.176.025a5.218,5.218,0,0,1-3.341-1.244,2.522,2.522,0,0,1-1.13-2.215c.04-2.867.04-5.734.025-8.6-.008-1.364-.085-2.726-.136-4.223.078-.069.25-.358.459-.387,1.539-.217,3.08-.486,4.591.236a3.136,3.136,0,0,0,1.508.279c1.492-.109,2.679.54,4.151,1.482m-8.307.036a22.259,22.259,0,0,0,.106,7.887h6.023a22.408,22.408,0,0,0,.174-5.29c0-1.578-.461-1.966-2.013-2.11-1.362-.126-2.717-.307-4.29-.488m5.821,12.6a2.483,2.483,0,0,0,.231-2.614H91.745c0,.446-.115.835.02,1.1a2.545,2.545,0,0,0,2.253,1.511c1.208.033,2.42.008,3.629.008" transform="translate(-37.168 -73.859)" fill-rule="evenodd"/>
        <path id="Trazado_1356427" data-name="Trazado 1356427" d="M61.418,194.953A6.237,6.237,0,0,1,60,190.39c.1-2.265.079-4.539.054-6.806a7.651,7.651,0,0,1,.867-3.514,1.692,1.692,0,0,1,1.621-1.08c1.658-.02,3.32-.077,4.972.016a2.311,2.311,0,0,1,2.348,2.339,8.059,8.059,0,0,0,.628,3.3,3.626,3.626,0,0,1,.127,1.548c.014,1.571-.038,3.144.021,4.712a8.363,8.363,0,0,1-.683,3.556c-.514,1.249-1.319,1.956-2.339,1.405-1.983-1.072-4.112-.487-6.2-.909m7.084-8.331a25.391,25.391,0,0,0-6.5.07c0,1.061,0,2,0,2.949,0,.607-.018,1.215.037,1.818.1,1.1.552,1.556,1.622,1.632.69.05,1.39-.028,2.075.05.736.084,1.459.284,2.326.462.941-2.281.46-4.505.441-6.979m-.75-5.484a21.671,21.671,0,0,0-5.984.075c.123,1.138.234,2.153.353,3.242a17.622,17.622,0,0,0,5.632-.138Z" transform="translate(-24.934 -74.379)" fill-rule="evenodd"/>
        <path id="Trazado_1356428" data-name="Trazado 1356428" d="M149.359,106.53c0,1.831,0,3.663,0,5.5a13.88,13.88,0,0,1-.043,1.568c-.127,1.114-.577,1.6-1.66,1.626-2.006.049-4.013.061-6.018,0a2.218,2.218,0,0,1-2.384-1.983,9.387,9.387,0,0,1-.2-2.072c-.02-3.489.04-6.98-.033-10.467a6.055,6.055,0,0,1,1.657-4.251c.4-.46.9-.834,1.285-1.3a3.14,3.14,0,0,1,2.539-1.074,3.052,3.052,0,0,1,3.027,1.624c1.087,1.9,2.082,3.793,1.85,6.129-.154,1.554-.029,3.137-.029,4.707Zm-2.563,1.859a60.011,60.011,0,0,0,.022-8.1,4.877,4.877,0,0,0-2.285-3.745c-.525.459-1.052.889-1.539,1.359a6.892,6.892,0,0,0-1.027,1.172,2.437,2.437,0,0,0-.439,1.191q-.058,3.389,0,6.778a1.292,1.292,0,0,0,1.322,1.334c1.208.06,2.421.015,3.943.015m-5.209,4.33a12.765,12.765,0,0,0,5.219-.154c0-.555.019-1.068-.014-1.579-.008-.141-.177-.271-.327-.484-1.411-.1-2.883-.214-4.358-.3-.135-.008-.28.16-.52.308Z" transform="translate(-57.779 -39.097)" fill-rule="evenodd"/>
        <path id="Trazado_1356429" data-name="Trazado 1356429" d="M149.832,150.688c.932,1.425,1.642,2.521,1.5,3.93a1.428,1.428,0,0,0,.106.767c.954,1.789.711,3.727.726,5.63.018,2,.012,4,0,6.006a12.855,12.855,0,0,1-.1,1.82,1.363,1.363,0,0,1-1.386,1.307c-2.679-.026-5.394.415-7.956-.484a2.284,2.284,0,0,1-.729-1.945c-.019-4.178.007-8.356-.059-12.533-.023-1.395.82-2.239,1.626-3.135a3.581,3.581,0,0,1,3.185-1.429c1.02.111,2.059.051,3.08.067m-.121,11.552c-.085-1.88-.088-3.433-.248-4.971-.106-1.019-.45-2.011-.659-3.021a1.534,1.534,0,0,0-2.093-1.312,3.646,3.646,0,0,0-2.666,3.417c-.044,1.473-.044,2.951-.006,4.425a7.968,7.968,0,0,0,.312,1.461Zm-5.528,2.472a8.327,8.327,0,0,0-.17,1.322c.034.967.429,1.557,1.277,1.659a7.974,7.974,0,0,0,4.359-.263c-.041-.923-.078-1.745-.118-2.626a20.175,20.175,0,0,0-5.348-.093" transform="translate(-58.995 -62.594)" fill-rule="evenodd"/>
      </g>
    </g>
  </g>
</svg>
