<svg xmlns="http://www.w3.org/2000/svg" xmlns:xlink="http://www.w3.org/1999/xlink" width="82.141" height="134.456" viewBox="0 0 82.141 134.456">
  <defs>
    <clipPath id="clip-path">
      <rect id="Rectángulo_457687" data-name="Rectángulo 457687" width="82.141" height="134.456" fill="none"/>
    </clipPath>
    <clipPath id="clip-path-2">
      <rect id="Rectángulo_457686" data-name="Rectángulo 457686" width="81.825" height="134.14" fill="none"/>
    </clipPath>
  </defs>
  <g id="Grupo_1207596" data-name="Grupo 1207596" transform="translate(6389.07 7714.148)">
    <g id="Grupo_1207430" data-name="Grupo 1207430" transform="translate(-6389.07 -7714.148)">
      <g id="Grupo_1207429" data-name="Grupo 1207429" clip-path="url(#clip-path)">
        <g id="Grupo_1207428" data-name="Grupo 1207428" transform="translate(0.158 0.158)">
          <g id="Grupo_1207427" data-name="Grupo 1207427" clip-path="url(#clip-path-2)">
            <g id="Grupo_1207426" data-name="Grupo 1207426">
              <g id="Grupo_1207425" data-name="Grupo 1207425" clip-path="url(#clip-path-2)">
                <path id="Trazado_1356335" data-name="Trazado 1356335" d="M85.971,176.485a1.09,1.09,0,0,1-.433,1.778,6.073,6.073,0,0,1-2.089.39q-7.251.039-14.507,0c-6.357-.023-12.707-.039-19.064-.132-4.032-.054-8.064-.323-12.1-.346-3.633-.019-7.271.285-10.9.235-4.872-.075-9.739-.333-14.605-.553a2,2,0,0,1-1.223-.606,1.368,1.368,0,0,1,.475-2.163c.763-.263,1.094-1,1.864-1.179.726-.168,1.406-.557,2.138-.757,1.419-.386,2.865-.7,4.3-1.053.151-.039.3-.09.524-.148-.074-.758-.147-1.5-.215-2.248a113.665,113.665,0,0,1-.127-15.454c.185-4.31.6-8.616.6-12.925-.006-5.87-.278-11.744-.493-17.613-.088-2.274-.378-4.535-.51-6.808-.083-1.352-.034-2.717-.047-4.069,0-.511-.005-1.023-.008-1.586l1.162-.063c.14,2.52.247,4.82.4,7.125.3,4.744.727,9.474.916,14.218.168,4.309.166,8.63.082,12.947-.064,3.469-.418,6.933-.558,10.4a168.694,168.694,0,0,0,.574,17.588c.035.581.177,1.155.282,1.805l.758,0c3.115-.067,6.23-.172,9.344-.183,7.753-.029,15.5-.038,23.254.21,5.707.178,11.423-.124,17.141-.224.707-.017,1.421-.1,2.2-.157,0-.36.016-.638-.011-.91-.142-1.668-.334-3.334-.437-5-.355-5.944-.671-11.888-1.012-17.831-.083-1.352-.23-2.7-.332-4.049-.061-.833-.065-1.674-.139-2.508-.114-1.269-.3-2.538-.4-3.808-.292-3.827-.471-7.656-.832-11.476-.522-5.494-.672-11-.778-16.513-.008-.367-.041-.727-.069-1.181l1.339-.076c.041.48.094.934.115,1.4.212,4.03.334,8.067.647,12.084.488,6.209,1.109,12.4,1.66,18.605.215,2.419.418,4.838.582,7.263.364,5.419.7,10.839,1.047,16.265.083,1.269.147,2.545.216,3.708,1.5.757,2.914,1.381,4.245,2.17,1.54.908,3.005,1.955,4.5,2.952a2.038,2.038,0,0,1,.527.484" transform="translate(-4.432 -44.531)"/>
                <path id="Trazado_1356336" data-name="Trazado 1356336" d="M80.053,64.8c.032,1.194-.1,1.391-1.249,1.656a14.778,14.778,0,0,1-2.247.284c-2.186.163-4.384.3-6.575.446-.2.014-.385.059-.7.105l-1.339.076c0-.031-.007-.063-.007-.094-16.775.21-33.457,0-50.387-.489,0,.044.007.088.007.133l-1.162.063c-3.97-.383-7.864.5-11.775.442l.025-1.22c.916-.049,1.712-.022,2.488-.139a69.938,69.938,0,0,1,10.277-.656c3.2.008,6.389.143,9.586.17,3.437.038,6.874,0,10.312.026,5.314.047,10.629.139,15.943.18,1.441.011,2.881-.085,4.315-.118,1.4-.026,2.8-.028,4.2-.041,1.434-.014,2.875-.066,4.315-.029,1.409.043,2.779-.331,4.2-.282,1.63.048,3.266-.207,4.9-.323.9-.062,1.806-.123,2.874-.192-.893-4.014-.567-7.971-.746-11.944-.449-.029-.758-.059-1.068-.064-4.114-.079-8.228-.2-12.348-.218-5.036-.023-10.072-.016-15.108.062-3.753.058-7.5.281-11.264.37-6.785.163-13.565.111-20.352-.03C13.417,52.9,9.663,52.8,5.91,52.719c-.222-.005-.449,0-.67,0l-.007-1.2,14.021-.075c.042-3.949.338-7.761.127-11.671-5.5-.4-10.9.223-16.472.221L2.8,38.778c1.579-.129,3.063-.263,4.56-.327q5.979-.27,11.971-.437c1.169-.031,1.271.17,1.3,1.409.049,2.035.161,4.068.2,6.1.018,1-.122,2-.1,2.989.018.948.149,1.889.237,2.918l10.249-.055c-.048-.644-.146-1.3-.15-1.958-.02-2.634,0-5.276-.023-7.91a20.274,20.274,0,0,0-.163-3.342c-.117-.688.07-1.018.632-1.16a26.479,26.479,0,0,1,2.8-.558c.782-.118,1.573-.129,2.494-.2-.088-1.068-.156-2.009-.249-2.95-.093-.871-.224-1.743-.3-2.621-.309-3.53-.7-7.06-.9-10.6-.28-5.06-.933-10.111-.53-15.2.082-1.068.3-2.131.463-3.193A1.655,1.655,0,0,1,36.71.407,4.818,4.818,0,0,1,38.833.357a1.807,1.807,0,0,1,1.556,1.464c.123.625.335,1.224.554,2.006,2.383.291,4.836.537,7.277.9,3.434.512,6.849,1.12,10.277,1.682,1.378.227,2.764.415,4.13.692s2.732.592,4.074.97c.361.106.862.469.907.779a1.4,1.4,0,0,1-.588,1.065A33.455,33.455,0,0,1,63.6,12.091c-3.484,1.851-7.128,3.4-10.459,5.554A34.856,34.856,0,0,1,48.99,19.79c-2.238,1.048-4.5,2.039-6.947,3.139.4,4.352.805,8.671,1.22,13.149.714.04,1.5.112,2.282.139.922.026,1.845-.029,2.761.035,1.119.082,1.645.49,1.759,1.589.246,2.343.468,4.7.524,7.049a46.007,46.007,0,0,1-.361,4.64c-.035.386-.04.778-.062,1.232l10.343-.055c-.008-1.472.016-2.894-.029-4.316-.059-1.674-.176-3.348-.261-5.015a7.923,7.923,0,0,0-.1-1.554c-.213-.845.377-1.436.57-2.145.049-.177.447-.312.705-.358a9.508,9.508,0,0,1,1.787-.2,100.654,100.654,0,0,0,10.5-.587,19.3,19.3,0,0,1,3.47.063c1.618.156,2.152.747,2.216,2.124.15,3.146.483,6.3.411,9.444-.062,2.591-.156,5.182-.053,7.778q.185,4.426.325,8.857M78.439,41.854c.025-1.27-.007-2.54-.014-3.886a6.787,6.787,0,0,0-1.442-.245c-3.935.261-7.87.554-11.8.834-.833.055-1.668.1-2.71.172-.041,4.069-.273,7.995-.081,11.955.266.03.417.061.575.066,3.508.064,7.02.133,10.534.184,1.157.013,2.319.025,3.475-.025,1.106-.05,1.225-.189,1.263-1.283.081-2.585.156-5.182.2-7.773M65.2,9.479c-.013-.082-.032-.171-.046-.252-.556-.162-1.1-.367-1.671-.478-1.214-.227-2.441-.385-3.655-.606-3.1-.558-6.192-1.205-9.3-1.695-3.131-.489-6.279-.826-9.4-1.226.331,5.18.669,10.435,1.013,15.81,2.194-.953,4.243-1.811,6.272-2.732a29.45,29.45,0,0,0,3.844-1.935,120.735,120.735,0,0,1,10.907-5.7c.7-.352,1.36-.785,2.034-1.186M48.4,50.69c.053-4.24-.608-8.482-.258-12.838-5.316-.427-10.635-.145-16.025-.173,0,.493-.014.847.007,1.2.063,1.193.158,2.381.2,3.575.073,1.832.083,3.671.193,5.5a8.98,8.98,0,0,1-.146,3.387c2.282.228,15.024-.3,16.027-.654M41.76,36.073c0-.663.031-1.22-.016-1.769-.168-1.913-.425-3.814-.543-5.728-.361-5.9-.74-11.8-.986-17.712-.115-2.6-.489-5.16-.8-7.73A1.924,1.924,0,0,0,38.391,1.6c-.589-.338-1.062-.108-1.046.561.059,2.755.131,5.509.253,8.257.086,1.914.273,3.828.4,5.735.1,1.358.128,2.716.261,4.068q.48,4.708,1.03,9.4c.252,2.128.553,4.256.837,6.453l1.63-.009" transform="translate(-1.276 -0.263)"/>
                <path id="Trazado_1356337" data-name="Trazado 1356337" d="M117.947,62.845c.007,1.345.039,2.615.014,3.886-.049,2.591-.124,5.188-.2,7.773-.038,1.094-.157,1.233-1.263,1.284-1.156.05-2.318.038-3.475.025-3.513-.05-7.026-.12-10.534-.183-.158-.005-.309-.037-.575-.067-.192-3.961.04-7.886.081-11.955,1.042-.069,1.876-.117,2.71-.172,3.935-.28,7.87-.573,11.8-.834a6.791,6.791,0,0,1,1.442.245m-10.01,8a2.648,2.648,0,0,0,.121-1.05c-.057-1.194-.133-2.387-.234-3.575a12.78,12.78,0,0,0-.235-1.376c-.1-.019-.2-.043-.3-.062a3.084,3.084,0,0,0-.508.742,14.447,14.447,0,0,0-.245,5.107.362.362,0,0,0,.077.221c.235.175.483.439.736.463.19.018.511-.255.591-.471m-2.58,3.072a2.211,2.211,0,0,0,.159-1.043c-.075-2.268-.163-4.536-.283-6.8a12.251,12.251,0,0,0-.312-1.673,1.764,1.764,0,0,0-.864,1.515q-.067,3.459-.108,6.919a2.322,2.322,0,0,0,.132.941c.109.258.363.6.571.616a.953.953,0,0,0,.705-.471" transform="translate(-40.799 -25.14)" fill="#fecd33"/>
                <path id="Trazado_1356338" data-name="Trazado 1356338" d="M78.035,87.587c.18,3.973-.147,7.931.746,11.944-1.067.069-1.97.13-2.874.192-1.636.116-3.271.371-4.9.323-1.422-.049-2.791.324-4.2.282-1.441-.037-2.881.015-4.315.029-1.4.014-2.8.015-4.2.041-1.434.033-2.874.129-4.315.118-5.314-.041-10.628-.133-15.943-.18-3.437-.025-6.874.012-10.312-.026-3.2-.027-6.389-.162-9.586-.17a69.937,69.937,0,0,0-10.277.656c-.776.118-1.573.091-2.488.139-.252-4.529-.5-8.938-.749-13.473.449,0,.9-.011,1.346-.014.221,0,.448,0,.67,0,3.753.081,7.507.181,11.261.255,6.787.141,13.567.193,20.352.03,3.759-.09,7.511-.312,11.264-.37,5.036-.078,10.071-.085,15.108-.062,4.12.022,8.234.139,12.348.218.309,0,.619.034,1.068.064M32.557,91.635c.042-.43-.369-.453-.684-.451q-2.284-.026-4.556-.032c-3.2,0-6.388.059-9.585,0-2.869-.047-5.738-.222-8.613-.314a7.974,7.974,0,0,0-1.465.242,1.889,1.889,0,0,0,1.522.9c.708.1,1.428.138,2.143.178q3.47.189,6.94.361c.758.04,1.511.112,2.268.108q5.214.01,10.426-.031A2.693,2.693,0,0,0,32.1,92.37a1.038,1.038,0,0,0,.457-.736M20.963,95.216a.756.756,0,0,0-.325-.548,1.4,1.4,0,0,0-.69-.148c-2.673-.043-5.346-.1-8.019-.1a6.947,6.947,0,0,0-1.565.343c0,.108,0,.215,0,.322a2.5,2.5,0,0,0,.646.218c2.705.181,5.411.356,8.115.506a5.682,5.682,0,0,0,1.428-.115.663.663,0,0,0,.408-.483" transform="translate(-2.001 -34.996)" fill="#fbb03b"/>
                <path id="Trazado_1356339" data-name="Trazado 1356339" d="M81.735,173.915c.026.272.009.549.011.91-.783.061-1.5.141-2.2.157-5.718.1-11.434.4-17.141.225-7.754-.249-15.5-.239-23.254-.21-3.115.01-6.229.115-9.344.183l-.758,0c-.1-.65-.247-1.225-.282-1.806a168.683,168.683,0,0,1-.574-17.588c.139-3.47.494-6.934.558-10.4.084-4.316.086-8.638-.082-12.946-.19-4.744-.613-9.475-.916-14.218-.151-2.306-.258-4.6-.4-7.125,0-.044-.007-.088-.007-.133,16.93.484,33.612.7,50.387.488,0,.032.007.063.007.095.028.455.061.815.069,1.181.106,5.509.255,11.018.778,16.512.362,3.821.54,7.649.832,11.476.1,1.27.285,2.538.4,3.808.074.833.079,1.674.14,2.508.1,1.351.248,2.7.331,4.048.341,5.944.657,11.888,1.012,17.832.1,1.668.3,3.334.437,5m-5.172-1.8a13.613,13.613,0,0,0,1.445-.311,2.488,2.488,0,0,0-1.981-.589c-2.944.092-5.888.183-8.838.294a9.015,9.015,0,0,0-1.534.192c-.48.1-.769.408-.614,1.147a6.631,6.631,0,0,0,1.29.145q5.115-.407,10.231-.876m-.684-2.694c-.007-.145-.014-.29-.021-.436a7.075,7.075,0,0,0-1.088-.177c-2.073-.014-4.145-.01-6.218,0a1.324,1.324,0,0,0-.695.111c-.2.127-.452.394-.439.589a1.06,1.06,0,0,0,.415.743,1.341,1.341,0,0,0,.8.11c1.907-.15,3.809-.286,5.709-.486a8.49,8.49,0,0,0,1.533-.457m-8.441-7.006a27.709,27.709,0,0,0-.2-6.709c-.156-.694-.373-1.287-1.221-1.415-.657-.091-1.29-.3-2.183-.519a22.7,22.7,0,0,1-.38-2.469c-.147-2.672-.218-5.345-.327-8.016-.1-2.356-.114-4.72-.335-7.063a46.191,46.191,0,0,0-.98-6.016,9.133,9.133,0,0,0-1.331-3.171c-1.719-2.481-4.256-3.124-7.149-2.887-2.8.23-4.938,1.695-6.932,3.474a6.979,6.979,0,0,0-1.987,3.094,22.685,22.685,0,0,0-1.237,6.085q-.134,3.357-.23,6.706c-.032,1.156-.064,2.313-.013,3.462.109,2.546.274,5.085.421,7.681a9.194,9.194,0,0,1-1.534.279c-.651.016-.826.4-.874.909a6.151,6.151,0,0,0-.037,1.321c.153,1.44-.206,2.895.44,4.345.454,1.008.24,1.13,1.34,1.193a28.336,28.336,0,0,0,3.349.09c2.508-.146,5.009-.368,7.531-.281,2.553.081,5.113.187,7.665.218,1.871.022,3.747-.058,5.617-.106a2.257,2.257,0,0,0,.587-.206m-31.964-22.24a1.509,1.509,0,0,0,.046-.7c-.032-1.276-.089-2.552-.09-3.822-.01-2.913.013-5.819,0-8.726a13.23,13.23,0,0,0-.178-1.49c-.139-.012-.272-.017-.4-.023a6.926,6.926,0,0,0-.391,1.424c-.147,1.985-.269,3.976-.335,5.966-.064,2.111-.065,4.221-.067,6.332a2.924,2.924,0,0,0,.246,1.155.786.786,0,0,0,.609.4c.209-.026.447-.293.56-.514m-2.964,2.347a4.046,4.046,0,0,0,.05-1.3c-.083-2.552-.192-5.1-.256-7.656-.123-5.225-.207-10.456-.349-15.675-.025-1.1-.233-2.191-.353-3.29-.114,0-.221.008-.335.008a2.116,2.116,0,0,0-.44,1.525c-.026,2.312-.064,4.632-.051,6.944.014,2.635.072,5.263.112,7.9.05,3.431.087,6.861.15,10.3a4.967,4.967,0,0,0,.229,1.395c.071.221.451.554.534.516a1.381,1.381,0,0,0,.71-.661" transform="translate(-11.07 -44.442)" fill="#fecd33"/>
                <path id="Trazado_1356340" data-name="Trazado 1356340" d="M111.108,71.251a2.648,2.648,0,0,1-.121,1.05c-.081.215-.4.489-.591.471-.253-.024-.5-.288-.736-.464a.356.356,0,0,1-.077-.221,14.46,14.46,0,0,1,.244-5.107,3.119,3.119,0,0,1,.508-.742c.1.019.2.043.3.062a12.756,12.756,0,0,1,.235,1.376c.1,1.187.177,2.381.234,3.575" transform="translate(-43.849 -26.593)"/>
                <path id="Trazado_1356341" data-name="Trazado 1356341" d="M103.017,211.817a13.617,13.617,0,0,1-1.445.311q-5.115.463-10.231.876a6.63,6.63,0,0,1-1.29-.145c-.156-.739.133-1.043.613-1.147a8.967,8.967,0,0,1,1.535-.191c2.95-.111,5.894-.2,8.838-.294a2.485,2.485,0,0,1,1.981.59" transform="translate(-36.079 -84.453)"/>
                <path id="Trazado_1356342" data-name="Trazado 1356342" d="M106.919,74.072a2.211,2.211,0,0,1-.159,1.043.955.955,0,0,1-.705.472c-.209-.018-.463-.358-.571-.617a2.319,2.319,0,0,1-.132-.94q.038-3.459.108-6.92a1.764,1.764,0,0,1,.864-1.515,12.36,12.36,0,0,1,.312,1.673c.12,2.268.208,4.536.283,6.8" transform="translate(-42.202 -26.337)"/>
                <path id="Trazado_1356343" data-name="Trazado 1356343" d="M102.472,207.4q.011.218.021.436a8.489,8.489,0,0,1-1.533.457c-1.9.2-3.8.336-5.709.486a1.345,1.345,0,0,1-.8-.109,1.063,1.063,0,0,1-.415-.744c-.014-.2.237-.462.439-.589a1.324,1.324,0,0,1,.695-.111c2.073-.011,4.145-.016,6.218,0a7.075,7.075,0,0,1,1.088.177" transform="translate(-37.685 -82.853)"/>
                <path id="Trazado_1356344" data-name="Trazado 1356344" d="M90.607,12.521c.013.082.032.171.046.252-.674.4-1.335.835-2.034,1.186a120.81,120.81,0,0,0-10.907,5.7A29.488,29.488,0,0,1,73.867,21.6c-2.029.921-4.078,1.779-6.272,2.732-.345-5.375-.683-10.63-1.013-15.809,3.117.4,6.265.737,9.4,1.226,3.111.489,6.2,1.136,9.3,1.694,1.214.221,2.441.379,3.655.606.57.111,1.114.317,1.671.478m-8.872,3.264a.964.964,0,0,0,.422-1.43c-.564-.237-.985.069-1.433.337-.547.331-1.083.675-1.657.95-2.193,1.048-4.412,2.046-6.592,3.119a17.8,17.8,0,0,0-2.223,1.4,3.6,3.6,0,0,0-.59.724,2.265,2.265,0,0,0,2.065-.27,59.635,59.635,0,0,1,7.9-3.726,11.787,11.787,0,0,0,2.111-1.1M77.85,14.8c.56-.395.565-.6.1-1.41-2.372.72-4.769,1.4-6.673,3.416a2.283,2.283,0,0,0,2.072-.163c1.2-.505,2.434-.954,3.651-1.434a3.659,3.659,0,0,0,.851-.409" transform="translate(-26.73 -3.557)" fill="#ff4245"/>
                <path id="Trazado_1356345" data-name="Trazado 1356345" d="M76.232,164.434a27.649,27.649,0,0,1,.2,6.709,2.224,2.224,0,0,1-.586.2c-1.87.048-3.746.128-5.616.106-2.553-.031-5.113-.137-7.666-.218-2.521-.088-5.022.135-7.53.281a28.346,28.346,0,0,1-3.349-.09c-1.1-.064-.886-.185-1.339-1.193-.646-1.45-.287-2.9-.44-4.345a6.19,6.19,0,0,1,.037-1.321c.047-.512.222-.892.873-.909a9.124,9.124,0,0,0,1.534-.28c-.147-2.6-.312-5.135-.42-7.681-.05-1.15-.019-2.306.013-3.462q.1-3.347.23-6.706a22.708,22.708,0,0,1,1.237-6.085,6.979,6.979,0,0,1,1.987-3.094c1.993-1.78,4.134-3.244,6.932-3.474,2.893-.237,5.43.407,7.149,2.887a9.134,9.134,0,0,1,1.332,3.171,46.278,46.278,0,0,1,.98,6.016c.221,2.343.234,4.706.335,7.062.109,2.672.18,5.345.327,8.017a22.556,22.556,0,0,0,.379,2.469c.892.223,1.525.428,2.183.519.847.128,1.065.72,1.22,1.415m-1.318,5.106c-.173-1.6-.326-3.069-.486-4.534-.053-.487-.345-.668-.825-.647-.8.029-1.6.028-2.4.044-4.789.095-9.578.2-14.373.292-1.933.035-3.86.027-5.825.037.16,1.642.327,3.291.507,5.065.424,0,.821,0,1.219-.007,2.824-.059,5.655-.15,8.485-.159,3.393-.012,6.786.058,10.179.084a23.1,23.1,0,0,0,3.518-.177" transform="translate(-20.066 -53.17)"/>
                <path id="Trazado_1356346" data-name="Trazado 1356346" d="M84.2,18.174a.964.964,0,0,1-.422,1.43,11.788,11.788,0,0,1-2.111,1.1,59.634,59.634,0,0,0-7.9,3.726,2.265,2.265,0,0,1-2.065.27,3.6,3.6,0,0,1,.59-.724,17.8,17.8,0,0,1,2.223-1.4c2.181-1.073,4.4-2.071,6.593-3.119.574-.275,1.109-.619,1.657-.95.447-.268.869-.574,1.433-.337" transform="translate(-28.775 -7.377)"/>
                <path id="Trazado_1356347" data-name="Trazado 1356347" d="M75.173,185.943c.159,1.465.312,2.93.486,4.534a23.1,23.1,0,0,1-3.518.177c-3.393-.026-6.787-.1-10.179-.085-2.831.009-5.661.1-8.485.159-.4.008-.8,0-1.219.007-.18-1.774-.347-3.423-.507-5.064,1.965-.011,3.892,0,5.825-.038,4.8-.089,9.585-.2,14.373-.292.8-.017,1.6-.014,2.4-.044.48-.021.772.16.825.647" transform="translate(-20.81 -74.107)" fill="#fbb03b"/>
                <path id="Trazado_1356348" data-name="Trazado 1356348" d="M81.067,16.628c.466.812.46,1.015-.1,1.41a3.657,3.657,0,0,1-.851.409c-1.217.481-2.447.93-3.651,1.435a2.283,2.283,0,0,1-2.072.163c1.9-2.02,4.3-2.7,6.673-3.416" transform="translate(-29.848 -6.794)"/>
                <path id="Trazado_1356349" data-name="Trazado 1356349" d="M67.6,62.659c-.349,4.355.312,8.6.258,12.838-1,.359-13.744.883-16.026.654a8.992,8.992,0,0,0,.146-3.387c-.111-1.832-.121-3.67-.194-5.5-.044-1.194-.139-2.381-.2-3.575-.021-.354,0-.708-.007-1.2,5.39.028,10.708-.254,16.025.173M57.918,70.95c0-1.472-.022-2.944-.074-4.416a5.484,5.484,0,0,0-.24-1.086c-.088-.019-.177-.031-.266-.049a3.105,3.105,0,0,0-.557.957,15.99,15.99,0,0,0-.134,5.631c1.049.007,1.269-.165,1.27-1.037M54.958,74a1.494,1.494,0,0,0,.216-.886q-.078-3.81-.212-7.626a5.71,5.71,0,0,0-.2-1,1.135,1.135,0,0,0-.973,1.193c-.069,2.578-.086,5.162-.123,7.741a.724.724,0,0,0,.052.353c.134.214.294.573.452.579A1.065,1.065,0,0,0,54.958,74" transform="translate(-20.741 -25.069)" fill="#fecd33"/>
                <path id="Trazado_1356350" data-name="Trazado 1356350" d="M61.08,68.513c.052,1.472.073,2.944.075,4.416,0,.872-.222,1.044-1.271,1.037a16,16,0,0,1,.134-5.631,3.108,3.108,0,0,1,.557-.957c.089.019.177.031.266.049a5.468,5.468,0,0,1,.24,1.085" transform="translate(-23.977 -27.048)"/>
                <path id="Trazado_1356351" data-name="Trazado 1356351" d="M56.563,74.494a1.494,1.494,0,0,1-.216.886,1.067,1.067,0,0,1-.788.352c-.158-.005-.318-.365-.452-.579a.717.717,0,0,1-.052-.353c.037-2.579.054-5.163.123-7.741a1.134,1.134,0,0,1,.973-1.193,5.71,5.71,0,0,1,.2,1q.134,3.81.212,7.626" transform="translate(-22.13 -26.444)"/>
                <path id="Trazado_1356352" data-name="Trazado 1356352" d="M33.887,93.537c.316,0,.727.021.685.451a1.042,1.042,0,0,1-.457.736,2.7,2.7,0,0,1-1.149.227q-5.213.037-10.425.031c-.758,0-1.511-.068-2.269-.108q-3.47-.17-6.94-.361c-.714-.04-1.434-.081-2.143-.178a1.889,1.889,0,0,1-1.522-.9,7.974,7.974,0,0,1,1.465-.242c2.875.092,5.745.266,8.613.314,3.2.059,6.388,0,9.586,0q2.274.006,4.556.032" transform="translate(-4.016 -37.349)"/>
                <path id="Trazado_1356353" data-name="Trazado 1356353" d="M39.979,149.069a1.5,1.5,0,0,1-.047.7c-.112.222-.351.488-.559.514a.786.786,0,0,1-.609-.4,2.914,2.914,0,0,1-.246-1.155c0-2.11,0-4.221.067-6.332.065-1.991.187-3.982.334-5.966a6.964,6.964,0,0,1,.391-1.424c.133.005.266.011.4.023a13.093,13.093,0,0,1,.178,1.49c.01,2.907-.013,5.813,0,8.726,0,1.27.058,2.546.09,3.822" transform="translate(-15.53 -54.038)"/>
                <path id="Trazado_1356354" data-name="Trazado 1356354" d="M34.836,143.636a4.048,4.048,0,0,1-.05,1.3,1.38,1.38,0,0,1-.71.66c-.082.038-.463-.294-.534-.515a4.975,4.975,0,0,1-.229-1.4c-.062-3.437-.1-6.868-.15-10.3-.04-2.634-.1-5.263-.112-7.9-.013-2.313.026-4.632.051-6.945a2.118,2.118,0,0,1,.44-1.525c.114,0,.221-.007.335-.008.12,1.1.327,2.19.353,3.29.142,5.218.227,10.45.349,15.674.064,2.553.173,5.1.256,7.657" transform="translate(-13.348 -46.857)"/>
                <path id="Trazado_1356355" data-name="Trazado 1356355" d="M24.453,99.4a.754.754,0,0,1,.325.548.66.66,0,0,1-.408.483,5.679,5.679,0,0,1-1.427.115c-2.705-.15-5.411-.324-8.116-.506a2.507,2.507,0,0,1-.646-.218c0-.107,0-.215,0-.322a6.947,6.947,0,0,1,1.565-.343c2.673,0,5.346.053,8.019.1a1.393,1.393,0,0,1,.689.148" transform="translate(-5.817 -39.731)"/>
                <path id="Trazado_1356356" data-name="Trazado 1356356" d="M19.369,65.918c.211,3.91-.085,7.722-.127,11.671l-14.021.075-2.142.011A80.487,80.487,0,0,1,2.9,66.138c5.567,0,10.972-.621,16.471-.221M8.164,74.767c.891-2.4.222-4.519.406-6.82-.989.466-1.272.689-1.288,1.391-.017,1.39.053,2.78.168,4.163.027.353.377.68.714,1.266M5.8,74.8a1.7,1.7,0,0,0,.129-.822c-.08-1.908-.172-3.822-.284-5.729a5.11,5.11,0,0,0-.233-.9c-.812.573-1.025.827-1.052,1.711-.048,1.675-.026,3.349,0,5.024a1.483,1.483,0,0,0,.207.8.906.906,0,0,0,.659.376A.9.9,0,0,0,5.8,74.8" transform="translate(-1.264 -26.411)" fill="#fecd33"/>
                <path id="Trazado_1356357" data-name="Trazado 1356357" d="M11.562,69.384c-.183,2.3.485,4.42-.406,6.82-.338-.586-.687-.912-.714-1.266-.115-1.383-.186-2.773-.168-4.163.015-.7.3-.924,1.288-1.391" transform="translate(-4.257 -27.848)"/>
                <path id="Trazado_1356358" data-name="Trazado 1356358" d="M6.965,75.024a1.7,1.7,0,0,1-.129.822.9.9,0,0,1-.579.452.906.906,0,0,1-.659-.376,1.477,1.477,0,0,1-.206-.8c-.022-1.675-.043-3.349,0-5.024.027-.885.24-1.138,1.053-1.711a5.063,5.063,0,0,1,.232.9c.111,1.907.2,3.821.284,5.729" transform="translate(-2.3 -27.452)"/>
                <path id="Trazado_1356359" data-name="Trazado 1356359" d="M4.221,77.095l.007,1.2c-.449,0-.9.011-1.346.013.252,4.536.5,8.945.748,13.474L3.6,93c-.519-.01-1.031-.032-1.549-.081-.328-1.072-.656-2.126-.978-3.179a.756.756,0,0,1-.026-.24c.271-3.711-.318-7.391-.376-11.1-.049-3.387-.3-6.778-.408-10.171A17.272,17.272,0,0,1,.462,65.5a4.348,4.348,0,0,1,.405-1.064c.309-.026.619-.047.922-.074L1.9,65.569a80.487,80.487,0,0,0,.182,11.537l2.142-.011" transform="translate(-0.263 -25.842)"/>
              </g>
            </g>
          </g>
        </g>
      </g>
    </g>
  </g>
</svg>
