<svg xmlns="http://www.w3.org/2000/svg" xmlns:xlink="http://www.w3.org/1999/xlink" width="95.075" height="137.482" viewBox="0 0 95.075 137.482">
  <defs>
    <clipPath id="clip-path">
      <rect id="Rectángulo_457690" data-name="Rectángulo 457690" width="95.075" height="137.482" fill="none"/>
    </clipPath>
  </defs>
  <g id="Grupo_1207597" data-name="Grupo 1207597" transform="translate(6131.537 7714.148)">
    <g id="Grupo_1207435" data-name="Grupo 1207435" transform="translate(-6131.537 -7714.148)">
      <g id="Grupo_1207434" data-name="Grupo 1207434" clip-path="url(#clip-path)">
        <path id="Trazado_1356441" data-name="Trazado 1356441" d="M67.9,121.936q-.706-8.212-1.423-16.423a3.209,3.209,0,0,0-.154-1,9.955,9.955,0,0,1-.547-2.821,55.212,55.212,0,0,0-4.851-16.909c-.288-.607-.638-1.183-.95-1.755-.541.1-.5.522-.564.8-.8,3.3-3.047,5.012-6.216,5.732a16.122,16.122,0,0,1-6.4.358,7.537,7.537,0,0,1-4.013-2.064,15.623,15.623,0,0,1-2.939-3.724,18.889,18.889,0,0,1-.924-2.417c-1.5.047-2.986.6-4.515.7-.016.245-.071.381-.025.456A23.5,23.5,0,0,1,36.8,89.9c.387,1.593.747,3.193,1.138,4.857a6.056,6.056,0,0,1,2.406,2.073,1.965,1.965,0,0,0,1.067.783,3.04,3.04,0,0,1,2.184,2.925c.047.394.056.791.085,1.252,1.645.822,1.61,2.2,1.072,3.8,1.263,1.109,1.052,2.458.478,3.851a12.73,12.73,0,0,1-3.775,5.154c-.439.356-.9.688-1.308,1-.477,2.364-1,4.673-1.4,7a50.713,50.713,0,0,1-2.661,8.764,8.517,8.517,0,0,1-.741,1.526,34.9,34.9,0,0,1-5.386,6.763,7.134,7.134,0,0,1-3.486,2.016,1.3,1.3,0,0,0-.918.674c-.2.343-.438.663-.616,1.017a18.336,18.336,0,0,1-4.969,5.963,19.579,19.579,0,0,1-4.19,2.877c-.153.07-.3.129-.452.183,5.92.32,21.67,2.969,33.911,2.969s18.8-1.78,19.884-2.332c-.08-1.863-.64-24.189-1.233-31.08" transform="translate(-3.353 -17.866)" fill="#f9b12c"/>
        <path id="Trazado_1356442" data-name="Trazado 1356442" d="M30.066,26.164c.9.821,1.633,1.53,2.41,2.182a9.121,9.121,0,0,0,6.373,2.36,5.005,5.005,0,0,0,.509-.024c1.333-.19,2.385-.722,2.655-2.2a1.681,1.681,0,0,1,.081-.33,3.1,3.1,0,0,1,.173-.325c.564-.144.9.343,1.328.549a3.95,3.95,0,0,0,3.283.27,9.3,9.3,0,0,0,1.47-.943,9.321,9.321,0,0,0,1.034.439,7.233,7.233,0,0,0,1.481.323,1.343,1.343,0,0,0,1.468-.913c.137-.364.231-.744.345-1.116a2.418,2.418,0,0,1,1.681.032,31.027,31.027,0,0,1,6.4,2.693,5.342,5.342,0,0,1,2.2,2.5c.354.761.717,1.517,1.052,2.222.5.093.675-.263.945-.436a3.188,3.188,0,0,1,3.668.041,2.4,2.4,0,0,1,.892,1.592,10.867,10.867,0,0,1-.067,4.385,8.823,8.823,0,0,1-3.511,5.249,2.966,2.966,0,0,0-1.08,1.63q-.829,2.673-1.682,5.34a18.274,18.274,0,0,1-4.635,7.22A10.668,10.668,0,0,1,54.671,61.3a18.043,18.043,0,0,1-8.357.975,34.111,34.111,0,0,1-6.492-1.246,13.5,13.5,0,0,1-7.661-5.579c-.931-1.413-1.716-2.925-2.532-4.411a4.207,4.207,0,0,0-2.453-2.4c-2.192-1.456-4.286-3-4.987-5.749a6.2,6.2,0,0,1,.058-3.515,1.287,1.287,0,0,1,1.849-.923,11.685,11.685,0,0,1,1.367.642c.508.248,1,.539,1.524.74a.8.8,0,0,0,1.17-.774c.1-1.3.149-2.6.256-3.9a47.246,47.246,0,0,1,1.37-8.195c.067-.257.177-.5.284-.806M41.995,52.989c.272.368.531.7.77,1.046A5.892,5.892,0,0,0,48.6,56.682c2.946-.313,4.669-2.264,5.936-4.719.13-.254.018-.634.018-.93a8.187,8.187,0,0,0-3.917-.073c-2.7.568-5.391,1.17-8.082,1.766a3.259,3.259,0,0,0-.556.263m3.089-15.506c-.626.271-.537.764-.5,1.193a10.707,10.707,0,0,1-.342,3.524c-.162.657-.382,1.3-.519,1.964a4.176,4.176,0,0,0,2.457,5.011,2.875,2.875,0,0,0,.813.045c-.524-.628-.863-1.066-1.233-1.474a3.645,3.645,0,0,1-.813-3.771,26.613,26.613,0,0,0,.684-2.968,6.188,6.188,0,0,0-.195-3.017,2.037,2.037,0,0,0-.354-.506M56.757,32.7a4.056,4.056,0,0,0-.549-.962,3.855,3.855,0,0,0-4.246-.058c-.132.1-.138.369-.22.615.9.309,1.633-.274,2.4-.151s1.521.32,2.614.556m-19.73,8.631a1.137,1.137,0,0,0-1.089,1.074,1.287,1.287,0,0,0,1.052,1.487,1.32,1.32,0,0,0,1.433-1.127,1.536,1.536,0,0,0-1.4-1.434m1.035-7.172a2.9,2.9,0,0,0-1.824-.723,4.009,4.009,0,0,0-3.423,1.093c-.326.273-.495.623-.12,1.006.062,0,.126.03.173.01a2.68,2.68,0,0,0,.6-.272,4.337,4.337,0,0,1,3.8-.931c.166.043.374-.081.792-.184m16.746,7.3a1.253,1.253,0,0,0,1.182-1.179,1.3,1.3,0,0,0-1.032-1.313,1.249,1.249,0,1,0-.15,2.493M67.5,35.783c-.144-.513-.442-.6-.79-.391a3.479,3.479,0,0,0-1.85,3.023c0,.189-.055.474.5.517a6.694,6.694,0,0,1,2.137-3.15M27.3,43.929c.29-.8-.205-1.255-.552-1.727a3.733,3.733,0,0,0-2.668-1.781,27.159,27.159,0,0,0,3.22,3.508" transform="translate(-4.802 -5.721)" fill="#ffe0c4" fill-rule="evenodd"/>
        <path id="Trazado_1356443" data-name="Trazado 1356443" d="M42.3,110.221a2.851,2.851,0,0,1-.219,2.829,13.371,13.371,0,0,1-4.779,5.394,46.634,46.634,0,0,1-6.276,3.375c-.259.108-.508.241-.733.348a9.443,9.443,0,0,0-1.077,3.054,107.033,107.033,0,0,1-2.746,11.559,32.06,32.06,0,0,1-3.85,8.66c-.373.566-.691,1.169-1.029,1.758a17.632,17.632,0,0,1-4.522,5.222c-1.3,1.017-2.7,1.834-4.067,2.732a2.245,2.245,0,0,1-2.418-.012,5.881,5.881,0,0,1-1.531-1.3,13.572,13.572,0,0,1-2.832-6.281,20.381,20.381,0,0,1-.367-2.858,82.929,82.929,0,0,1,1.433-21.129,14.147,14.147,0,0,1,1.023-3.048,14.087,14.087,0,0,0,.92-3.079c.345-1.831.716-3.659,1.108-5.641a9.805,9.805,0,0,1,1.1.555,14.266,14.266,0,0,0,5.945,2.372c.989.151,2,.13,3.126.195a7.326,7.326,0,0,1-.108,1.638,16.627,16.627,0,0,1-1.739,4.219c-1.964,3.114-4.015,6.172-5.932,9.314a41.97,41.97,0,0,0-4.24,8.677c-.138.42-.413.827-.019,1.357.166-.108.411-.18.492-.338a12.9,12.9,0,0,0,.676-1.552,34.759,34.759,0,0,1,3.4-6.826c2.225-3.484,4.409-6.995,6.609-10.494a3.534,3.534,0,0,0,.416-.736,35.832,35.832,0,0,0,1.715-6.033c.448-3.193,1.207-6.341,1.406-9.572a21.845,21.845,0,0,1,1.915-4.869c.75-1.12,1.127-1.256,2.83-1.124a33.176,33.176,0,0,1,.273,5.648c-.541.521-1.009.97-1.714,1.647a3.143,3.143,0,0,0,2.141-.67c.631-.565,1.284-1.107,1.915-1.675,1.131-1.023,2.25-2.062,3.384-3.084a4.36,4.36,0,0,1,.684-.491c1.031-.62,1.41-.573,2.193.3.332.37.62.778.97,1.221-1.5,1.4-3.6,2.068-4.394,4.163.287.058.431.133.482.091,1.532-1.245,3.054-2.5,4.57-3.748a2.044,2.044,0,0,1,1.73,1,2.919,2.919,0,0,1,.241,2.307c-.137.5-.583.795-.981,1.128-1.212,1.017-2.381,2.084-3.548,3.15a.5.5,0,0,0,.007.821c2.032-.861,3.295-2.807,5.151-3.92,1.146.667,1.2.795.9,1.838a5.118,5.118,0,0,1-1.052,1.916c-.916,1.067-1.782,2.175-2.619,3.206.147.513.466.536.69.373a7.044,7.044,0,0,0,1.114-1.033c.526-.592,1.007-1.227,1.516-1.834.17-.2.375-.379.712-.715" transform="translate(-1.243 -21.546)" fill="#ffe0c4" fill-rule="evenodd"/>
        <path id="Trazado_1356444" data-name="Trazado 1356444" d="M26.854,12.877a5.371,5.371,0,0,0,.681-.922,16.1,16.1,0,0,1,9.787-9.064A29.648,29.648,0,0,1,47.868,1.479c.563.02,1.11.008,1.312.769.116.435.641.354,1.032.4,1.742.19,3.486.361,5.221.6a8.193,8.193,0,0,1,3.045.987,1.5,1.5,0,0,1,.1.512.976.976,0,0,0,.593,1.1c.737.425,1.488.821,2.214,1.26,1.4.849,2.811,1.694,4.182,2.592a4.435,4.435,0,0,1,1.765,1.953c-.059.155-.07.283-.14.348-1.041.993-1.1,1.334-.371,2.438.47.706,1,1.374,1.446,2.1a7.089,7.089,0,0,1,1.171,4.673,21.211,21.211,0,0,1-1.014,5.359c-1.18.12-2.41-.067-3.472.811-.195-.515-.335-.927-.506-1.326a6.636,6.636,0,0,0-2.861-3.24,24.582,24.582,0,0,0-5.6-2.4,9.621,9.621,0,0,0-2-.323,1.551,1.551,0,0,0-1.646.952,7.136,7.136,0,0,1-.48.8,1.9,1.9,0,0,1-1.564-.057c-.421-.162-.824-.378-1.252-.524a.868.868,0,0,0-1.074.256,1.944,1.944,0,0,1-1.547.906A3.327,3.327,0,0,1,44.467,22c-.342-.2-.67-.425-1.021-.607a.834.834,0,0,0-1.268.4,5.227,5.227,0,0,0-.439,1.1A1.741,1.741,0,0,1,39.965,24.2a8.174,8.174,0,0,1-3.662-.554,11.072,11.072,0,0,1-3.623-2.471c-.531-.509-1.017-1.064-1.54-1.583a3.9,3.9,0,0,0-.57-.391,6.781,6.781,0,0,0-1.26,2.6,42.148,42.148,0,0,0-1.437,10.06c-.012.5,0,1,0,1.5-.266.062-.441.159-.585.127a3.872,3.872,0,0,1-2.1-2,34.072,34.072,0,0,1-.622-4.36c-.1-2.429-.023-4.867-.007-7.3a2.768,2.768,0,0,1,.132-1A35.386,35.386,0,0,1,26.845,13.3a1.253,1.253,0,0,0,.065-.477l-.056.053" transform="translate(-5.359 -0.318)" fill="#b1882f" fill-rule="evenodd"/>
        <path id="Trazado_1356445" data-name="Trazado 1356445" d="M101.114,107.556c-.434.856-.838,1.654-1.268,2.5L97.7,111.212c.089,1.054.184,2.047.255,3.043s-.41,1.974-.174,2.944c.423.131.489-.134.581-.318a7.426,7.426,0,0,0,.556-3.986c-.025-.279-.135-.552-.166-.831a.739.739,0,0,1,.449-.828.865.865,0,0,1,.953.122c.589.508,1.183,1.01,1.856,1.583a3.669,3.669,0,0,0,.186,2.04,1.876,1.876,0,0,0,2.357,1.11,11.924,11.924,0,0,0,1.712-.734c.409-.191.794-.439,1.2-.628a1.459,1.459,0,0,1,1.357-.093,3.32,3.32,0,0,1-.1,1.947,21.491,21.491,0,0,1-2.764,6.356,1.4,1.4,0,0,1-.468.478,8.729,8.729,0,0,1-4.561,1.659,7.153,7.153,0,0,0-1.079.136.48.48,0,0,0,.41.684c.49.113.992.167,1.575.259a8.591,8.591,0,0,1,.048,1.177c-.205,2.14-.434,4.279-.655,6.419-.134,1.295-.328,2.587-.383,3.885a33.543,33.543,0,0,1-1.292,7.337,14.825,14.825,0,0,1-3.791,6.541c-.159.162-.317.325-.49.47-1.825,1.538-2.193,1.656-4.6.626a6.766,6.766,0,0,1-3.032-2.642,15.8,15.8,0,0,1-2.717-7.935c-.064-1.471-.131-2.943-.239-4.41a4.434,4.434,0,0,1,.458-2.29,30.877,30.877,0,0,0,2.766-8.882c.082-.56.167-1.121.2-1.686a84.969,84.969,0,0,0,.3-9.162c-.018-.336,0-.673,0-.949.445-.566,1.028-.55,1.619-.781.038.5.078.89.091,1.276.03.848.016,1.7.073,2.546a6.751,6.751,0,0,0,.96,3.211,4.418,4.418,0,0,1,.872,3.031,7.8,7.8,0,0,1-.341,1.476c-.7,1.91-1.445,3.808-2.17,5.712a38.6,38.6,0,0,0-1.912,5.8,13.085,13.085,0,0,0-.156,4.251c.5-.206.5-.642.552-1a43.716,43.716,0,0,1,2.9-9.565c.673-1.679,1.317-3.373,1.882-5.093a7.085,7.085,0,0,0,.244-2.133,3.163,3.163,0,0,0-.348-1.106,10.837,10.837,0,0,0-.631-1.391,7.761,7.761,0,0,1-.8-5.255c.1-.669.124-1.35.176-2.027s.095-1.355.136-2.032a5.767,5.767,0,0,1,1.917-3.674,2.447,2.447,0,0,1,1.027-.556c1.191-.356,2.406-.634,3.6-.993a2.035,2.035,0,0,1,1.92.341c.357.266.7.553,1.088.864" transform="translate(-18.515 -23.231)" fill="#ffe0c4" fill-rule="evenodd"/>
        <path id="Trazado_1356446" data-name="Trazado 1356446" d="M26.081,85.129a8.65,8.65,0,0,1,2,3.068,16.926,16.926,0,0,1,1.067,6.559,9.331,9.331,0,0,1-1.107.124,2.376,2.376,0,0,0-1.916.942,10.723,10.723,0,0,0-1.2,1.834,10.417,10.417,0,0,0-1.086,3.73,52.942,52.942,0,0,1-1.156,6.332c-.226,1.044-.389,2.1-.574,3.117-2.857.69-7.273-.756-10.356-3.338.843-9.4,6.356-18.376,14.331-22.368" transform="translate(-2.569 -18.613)" fill="#f9b12c" fill-rule="evenodd"/>
        <path id="Trazado_1356447" data-name="Trazado 1356447" d="M71.888,80.5a3,3,0,0,1,2.021-.021,10.6,10.6,0,0,1,4.454,2.707,12.374,12.374,0,0,1,2.014,3.309,30.837,30.837,0,0,1,2.114,7.317c.645,3.5,1.242,7.017,1.824,10.531a16.393,16.393,0,0,1,.192,2.531c.033,3.281.115,6.564.026,9.843a29.551,29.551,0,0,1-2.3,10.383,5.266,5.266,0,0,1-.5.709c-.077-.487-.122-.686-.137-.888-.25-3.385-.459-6.774-.749-10.155-.409-4.79-.783-9.585-1.342-14.359a58.942,58.942,0,0,0-4.19-15.676A25.46,25.46,0,0,0,72.4,81.371c-.159-.219-.276-.469-.511-.876" transform="translate(-15.718 -17.56)" fill="#77b8c4" fill-rule="evenodd"/>
        <path id="Trazado_1356448" data-name="Trazado 1356448" d="M110.3,98.07a14.228,14.228,0,0,0-5.649,3.554c-.666-.419-1.231-.788-1.809-1.137a1.607,1.607,0,0,0-1.424-.159c-1.28.378-2.618.563-3.974.837a2.36,2.36,0,0,1,.854-1.5,5.122,5.122,0,0,0,1.3-2.533c.639-2.988,1.5-5.927,1.87-8.976a15.823,15.823,0,0,1,1.316-4.557c.255-.574.538-1.18,1.295-1.173.78.009,1,.671,1.212,1.244a6.509,6.509,0,0,1,.285,1.322,23.776,23.776,0,0,1-.234,7.107c-.2,1.344-.412,2.687-.574,4.036a3.652,3.652,0,0,0,.091,1.338.973.973,0,0,0,.61.495.656.656,0,0,0,.542-.277,13.924,13.924,0,0,0,.795-1.5c1.256-2.663,2.467-5.349,3.768-7.99a22.016,22.016,0,0,1,1.88-3.02,4.535,4.535,0,0,1,1.27-1.093.836.836,0,0,1,1.281.381,4.062,4.062,0,0,1,.359,2.968,7.909,7.909,0,0,1-.5,1.442c-.713,1.542-1.439,3.077-2.195,4.6-.729,1.47-1.5,2.918-2.368,4.593" transform="translate(-21.306 -18.022)" fill="#ffe0c4" fill-rule="evenodd"/>
        <path id="Trazado_1356449" data-name="Trazado 1356449" d="M39.864,76.144v1.871c-.849.293-1.855.178-2.446,1.013-.08.113-.3.15-.465.177-1.785.3-3.568.616-5.357.886a1.661,1.661,0,0,1-.972-.161,4.593,4.593,0,0,0-3.313-.244,10.122,10.122,0,0,0-4.56,2.153,3.559,3.559,0,0,1-1.935.928,9.263,9.263,0,0,0-5.376,3.016,16.778,16.778,0,0,0-3.174,4.591c-1.039,2.194-2.255,4.341-2.653,6.774a40.154,40.154,0,0,1-1.941,6.839c-.448,1.272-.815,2.572-1.208,3.829-.49.019-.534-.277-.549-.552a12.844,12.844,0,0,1,.511-3.686,15.128,15.128,0,0,1,.608-1.943,84.005,84.005,0,0,0,2.6-8.253,12.191,12.191,0,0,1,1.242-3.146,6.623,6.623,0,0,0,.5-1.256,19.514,19.514,0,0,1,2.024-4.1,11.453,11.453,0,0,1,3.361-3.3,34.356,34.356,0,0,1,12.9-4.961c1.722-.33,3.456-.6,5.194-.846a11.761,11.761,0,0,1,5.009.374" transform="translate(-1.291 -16.541)" fill="#a9e3d6" fill-rule="evenodd"/>
        <path id="Trazado_1356450" data-name="Trazado 1356450" d="M61.9,72.448c.243,1.692.467,3.254.7,4.816.105.727.185,1.461.342,2.178a1.8,1.8,0,0,1-.395,1.578,5.135,5.135,0,0,1-3.69,2.153,9.673,9.673,0,0,1-6.9-1.775,1.876,1.876,0,0,1-.977-1.488c-.072-1.92-.181-3.838-.251-5.759a.631.631,0,0,1,.638-.663,7.9,7.9,0,0,1,1.185.032,19.772,19.772,0,0,0,8.7-1,3.238,3.238,0,0,1,.658-.068" transform="translate(-11.091 -15.841)" fill="#ffe0c4" fill-rule="evenodd"/>
        <path id="Trazado_1356451" data-name="Trazado 1356451" d="M5.409,149.481c.114-.413-.177-.634-.432-.843a10.1,10.1,0,0,1-3.49-7.467A43.376,43.376,0,0,1,1.92,132.7a158.993,158.993,0,0,1,5.809-26.688c.919-3.09,1.645-6.243,2.686-9.289A19.572,19.572,0,0,1,15.4,88.335a9.669,9.669,0,0,1,3.427-2.153,7.147,7.147,0,0,1,1.131-.195c.082.606-.363.74-.632.994-1.235,1.163-2.547,2.256-3.7,3.5a20.643,20.643,0,0,0-5.1,9.274c-.442,1.815-.935,3.618-1.394,5.43a10.15,10.15,0,0,0-.527,3.508,2.217,2.217,0,0,1-.085.67q-.62,2.905-1.256,5.809a1.807,1.807,0,0,1-.284.784A6.041,6.041,0,0,0,5.907,118.6a72.035,72.035,0,0,0-1.638,9.708,84.534,84.534,0,0,0-.4,11.709A23.406,23.406,0,0,0,5.305,148a2.312,2.312,0,0,1,.1,1.481v0" transform="translate(-0.309 -18.801)" fill="#8dcec4" fill-rule="evenodd"/>
        <path id="Trazado_1356452" data-name="Trazado 1356452" d="M30.108,150.373c-.025-.213-.084-.339-.044-.415a47.113,47.113,0,0,0,3.84-11.187c.581-2.413.972-4.871,1.453-7.307.089-.443.2-.881.317-1.316a1.985,1.985,0,0,1,1.288-1.42c1.4-.584,2.741-1.328,4.108-2,.291-.142.59-.264,1.064-.474-.17.938-.3,1.7-.451,2.462-.243,1.218-.526,2.428-.752,3.65a51.437,51.437,0,0,1-2.672,8.558,8.357,8.357,0,0,1-.767,1.506,36.462,36.462,0,0,1-5.192,6.46,5.5,5.5,0,0,1-2.192,1.483" transform="translate(-6.571 -27.605)" fill="#77b8c4" fill-rule="evenodd"/>
        <path id="Trazado_1356453" data-name="Trazado 1356453" d="M28.917,83.654a4.071,4.071,0,0,1,2-1.287c.587-.2,1.21-.28,1.8-.462a3.117,3.117,0,0,1,3.382.967,5.323,5.323,0,0,1,1.436,2.259c.192.7.616,1.336.814,2.036.277.974.437,1.983.651,2.976.273,1.268.533,2.541.833,3.8a1.32,1.32,0,0,1-.566,1.606,26.572,26.572,0,0,0-4.512,4.072c-.056.061-.195.044-.384.08a5.822,5.822,0,0,1-.028-.63,13.959,13.959,0,0,0-.223-4.71,25.194,25.194,0,0,1-.395-3.189,18.737,18.737,0,0,0-1.513-5.015q-.137-.308-.3-.609a2.865,2.865,0,0,0-3-1.9" transform="translate(-6.323 -17.873)" fill="#77b8c4" fill-rule="evenodd"/>
        <path id="Trazado_1356454" data-name="Trazado 1356454" d="M84,87.935c.423.3.6.4.754.53,3.668,3.052,4.093,3.62,5.87,8.082.481,1.208.911,2.439,1.3,3.678.273.859.441,1.75.646,2.588a2.241,2.241,0,0,1-.234.516,9.224,9.224,0,0,0-1.994,4.261c-.23,1.162-.992,1.521-2,1.734-1.059-7.146-2-14.247-4.346-21.387" transform="translate(-18.367 -19.227)" fill="#f9b12c" fill-rule="evenodd"/>
        <path id="Trazado_1356455" data-name="Trazado 1356455" d="M63.519,81.533a4.923,4.923,0,0,1-.534-2.179,2.846,2.846,0,0,1,2.264.512,1.113,1.113,0,0,1,.459,1.038c-.038,3.765-1.985,5.919-5.152,7.2-1.4.159-2.8.368-4.2.459a9.419,9.419,0,0,1-3.032-.213,6.089,6.089,0,0,1-2.407-1.192,16.1,16.1,0,0,1-3.7-4.6,2.048,2.048,0,0,1-.114-1.946,1.272,1.272,0,0,1,1.02-.787c.709-.121,1.117.195.985.931A2.655,2.655,0,0,0,50.262,83.4a9.055,9.055,0,0,0,5.548,2.27c.566.011,1.131.031,1.7.029,2.955-.011,4.832-1.56,6.013-4.161" transform="translate(-10.258 -17.336)" fill="#f9b12c" fill-rule="evenodd"/>
        <path id="Trazado_1356456" data-name="Trazado 1356456" d="M112.176,103.492c.952.257,1.152,1.037,1.412,1.69.288.72-.114,1.426-.289,2.121-.9.415-1.774.808-2.64,1.214a4.591,4.591,0,0,0-2.015,1.474,3.158,3.158,0,0,1-1.9,1.2,3.309,3.309,0,0,1-.506-.312c-.9-.772-1.052-1.381-.366-2.323a18.829,18.829,0,0,1,2.232-2.544,13.191,13.191,0,0,1,4.076-2.518" transform="translate(-23.054 -22.628)" fill="#ffe0c4" fill-rule="evenodd"/>
        <path id="Trazado_1356457" data-name="Trazado 1356457" d="M114.384,108.97c.874,1.345,1.819,2.589.935,4.373-2.169.675-4.208,1.907-6.488,2.657-.211-.212-.372-.354-.51-.516-.752-.877-.8-1.367-.145-2.207a5.448,5.448,0,0,1,.859-.8,24.381,24.381,0,0,1,5.348-3.506" transform="translate(-23.553 -23.826)" fill="#ffe0c4" fill-rule="evenodd"/>
        <path id="Trazado_1356458" data-name="Trazado 1356458" d="M59.786,58.782a6.359,6.359,0,0,1-5.46,4.032,5.377,5.377,0,0,1-4.554-2.026,10.732,10.732,0,0,1,3.25-.951,31.454,31.454,0,0,1,3.286-.809,8.936,8.936,0,0,1,3.478-.245" transform="translate(-10.882 -12.831)" fill="#ff9293" fill-rule="evenodd"/>
        <path id="Trazado_1356459" data-name="Trazado 1356459" d="M94.747,70.184a4.836,4.836,0,0,0-.209-3.955,1.718,1.718,0,0,0-2.689-.77,6.206,6.206,0,0,0-1.267,1.113A13.011,13.011,0,0,0,88.5,69.863c-1.161,2.457-2.286,4.932-3.454,7.386-.159.334-.142.873-.766.887.2-1.35.36-2.7.6-4.032a30.513,30.513,0,0,0,.32-6.777,5.478,5.478,0,0,0-.838-2.9,1.843,1.843,0,0,0-3.227-.082,6.372,6.372,0,0,0-.709,1.348,18.844,18.844,0,0,0-1.365,5.418,43.734,43.734,0,0,1-1.746,7.953,3.486,3.486,0,0,1-.491,1.07c-.534.725-1.122,1.408-1.759,2.192a3.038,3.038,0,0,1-.356-.617,59.722,59.722,0,0,0-3.019-8.11,6.84,6.84,0,0,0-1.6-2.369,48.852,48.852,0,0,0-5-4.34,3.32,3.32,0,0,1-.888-.774,11.12,11.12,0,0,0-4.061-3.276,6.155,6.155,0,0,0-3.57-.916,1.767,1.767,0,0,1-.98-.118,5.608,5.608,0,0,0-3.071-.831,16.24,16.24,0,0,1-.577-4.907.81.81,0,0,1,.114-.155,6.3,6.3,0,0,1,.533-.413,16.853,16.853,0,0,0,6.309-7.824A29.49,29.49,0,0,0,61.1,40.4a1,1,0,0,1,.108-.127,2.327,2.327,0,0,1,.266-.208c3.488-2.128,4.67-5.376,4.45-9.271a7.243,7.243,0,0,0-.476-2.312,11.03,11.03,0,0,0-1.23-1.873c.288-2.044.6-4.054.841-6.072a7.724,7.724,0,0,0-.075-1.857A8.653,8.653,0,0,0,63.169,14.7a5.6,5.6,0,0,1-1.078-1.652,2.879,2.879,0,0,1,.259-.3c.992-.837,1.126-1.31.409-2.265a10.472,10.472,0,0,0-1.772-1.81A25.328,25.328,0,0,0,56.03,5.736c-.553-.271-1.1-.553-1.656-.831a1.753,1.753,0,0,0-1.364-2.135,27.183,27.183,0,0,0-3.273-.87c-1.445-.27-2.913-.42-4.387-.624A2.6,2.6,0,0,0,42.919.053c-.4-.04-.792-.05-1.188-.052a37.249,37.249,0,0,0-6.593.591A17.592,17.592,0,0,0,22.861,8.621a6.674,6.674,0,0,0-1.367,3.9c-.242.084-.545.121-.671.29a9.426,9.426,0,0,0-.955,1.585c-.337.713-.548,1.488-.911,2.186A4.4,4.4,0,0,0,18.5,18.2a63.639,63.639,0,0,0-.3,8.653,17.823,17.823,0,0,0,.225,2.022c.12.828.27,1.652.406,2.454-1.865.686-2.384,1.179-2.612,2.636A7.9,7.9,0,0,0,17.99,40.63a10.191,10.191,0,0,0,3.92,2.909,2.874,2.874,0,0,1,1.668,1.76,34.966,34.966,0,0,0,1.649,3.347,15.842,15.842,0,0,0,10.92,8.187c.387.086.777.148,1.164.236a4.662,4.662,0,0,1,.815.234c.449.194.515.532.248,1.041-.249-.017-.524-.014-.788-.059a14.157,14.157,0,0,0-4.4-.04c-1.622.241-3.247.484-4.858.8a35.437,35.437,0,0,0-13.5,5.279,11.186,11.186,0,0,0-3.162,3.036,26.533,26.533,0,0,0-3.289,6.489C7.094,77.9,5.9,81.968,4.447,85.959a22.519,22.519,0,0,0-.792,3.814,2.768,2.768,0,0,0,.453,2.272A2.246,2.246,0,0,1,4.4,94.262a134.9,134.9,0,0,0-4.079,21.5,33.761,33.761,0,0,0-.2,7.283,13.17,13.17,0,0,0,1.819,5.424,7.346,7.346,0,0,0,2.11,2.185,2.313,2.313,0,0,0,.77.318c.063.016.181-.188.275-.291.114-.413-.177-.634-.432-.843a10.1,10.1,0,0,1-3.49-7.467A43.376,43.376,0,0,1,1.61,113.9,158.993,158.993,0,0,1,7.419,87.212c.919-3.09,1.645-6.242,2.686-9.289a19.577,19.577,0,0,1,4.981-8.389,9.68,9.68,0,0,1,3.427-2.153,7.146,7.146,0,0,1,1.131-.194c.082.606-.363.739-.632.993-1.235,1.163-2.547,2.256-3.7,3.5a20.652,20.652,0,0,0-5.1,9.274c-.442,1.815-.935,3.618-1.394,5.43a10.156,10.156,0,0,0-.527,3.508,2.214,2.214,0,0,1-.085.67q-.621,2.907-1.256,5.809a1.81,1.81,0,0,1-.284.784A6.038,6.038,0,0,0,5.6,99.8a72.035,72.035,0,0,0-1.638,9.708,84.539,84.539,0,0,0-.4,11.709A23.406,23.406,0,0,0,5,129.2a2.312,2.312,0,0,1,.1,1.481.646.646,0,0,1,.729.276A26.6,26.6,0,0,0,7.667,133.4a3.749,3.749,0,0,0,4.765.931,19.57,19.57,0,0,0,4.19-2.877,18.336,18.336,0,0,0,4.969-5.963c.177-.353.419-.674.615-1.017a1.3,1.3,0,0,1,.918-.674,7.142,7.142,0,0,0,3.486-2.015A34.876,34.876,0,0,0,32,115.02a8.573,8.573,0,0,0,.742-1.526,50.71,50.71,0,0,0,2.661-8.764c.4-2.328.92-4.637,1.4-7,.411-.312.87-.644,1.309-1a12.735,12.735,0,0,0,3.775-5.154c.574-1.393.784-2.743-.478-3.852.538-1.6.573-2.982-1.072-3.8-.029-.461-.039-.859-.085-1.252a3.041,3.041,0,0,0-2.185-2.925,1.966,1.966,0,0,1-1.067-.783,6.058,6.058,0,0,0-2.407-2.073c-.391-1.663-.75-3.264-1.138-4.857A23.518,23.518,0,0,0,31.022,65c-.047-.075.009-.212.024-.456,1.53-.1,3.018-.653,4.516-.7a18.716,18.716,0,0,0,.924,2.417,15.635,15.635,0,0,0,2.938,3.724,7.541,7.541,0,0,0,4.014,2.063,16.1,16.1,0,0,0,6.4-.358c3.17-.72,5.416-2.432,6.216-5.732.067-.274.023-.691.564-.8.313.572.663,1.148.95,1.755a55.212,55.212,0,0,1,4.851,16.909,9.929,9.929,0,0,0,.548,2.821,3.237,3.237,0,0,1,.153,1q.714,8.21,1.423,16.422c.558,6.5.774,13.006.923,19.52-.095,1.282.11,2.876.1,3.55-.023,1.471-.045,2.936-.137,4.406a20.154,20.154,0,0,0-.317,4.3.208.208,0,0,0,.347.091c1.563-1.792,1.266-4.857,1.293-7.09.016-1.345-.094-2.679-.17-4.018a.451.451,0,0,1,.191-.163c.063.032.133.044.156.084.2.34.4.677.574,1.03a10.173,10.173,0,0,0,4.79,4.858,3.423,3.423,0,0,0,3.519-.043,12.709,12.709,0,0,0,3.877-3.753c.4-.549.721-1.162,1.163-1.672a5.627,5.627,0,0,0,1.284-2.55c.471-2.214.993-4.422,1.336-6.656a60.063,60.063,0,0,0,.654-10,22.662,22.662,0,0,1,.167-3.15c1.183-.766,2.164-1.431,3.176-2.043a4.334,4.334,0,0,0,1.521-1.563,14.22,14.22,0,0,0,2.326-7.184,5.4,5.4,0,0,1,.082-.666,4.1,4.1,0,0,0,1.66-3.394,5.981,5.981,0,0,0-1.732-3.4c.684-1.927-.221-3.294-1.583-4.492.712-1.238,1.394-2.407,2.06-3.584a45.53,45.53,0,0,0,2.943-6.306M19.194,19.5a2.783,2.783,0,0,1,.132-1,35.467,35.467,0,0,1,2.16-5.522,1.286,1.286,0,0,0,.065-.477l-.019.005a4.728,4.728,0,0,0,.643-.874,16.094,16.094,0,0,1,9.787-9.064A29.626,29.626,0,0,1,42.509,1.16c.563.02,1.11.008,1.312.769.116.435.641.353,1.032.4,1.742.191,3.486.362,5.221.606a8.18,8.18,0,0,1,3.044.987,1.491,1.491,0,0,1,.105.511.976.976,0,0,0,.593,1.1c.736.424,1.488.82,2.214,1.26,1.4.849,2.81,1.693,4.181,2.592a4.417,4.417,0,0,1,1.765,1.953c-.058.155-.07.283-.14.348-1.041.993-1.1,1.334-.37,2.438.469.706,1,1.374,1.445,2.1a7.083,7.083,0,0,1,1.171,4.673,21.2,21.2,0,0,1-1.014,5.358c-1.179.12-2.41-.066-3.472.811-.195-.514-.335-.926-.5-1.326a6.641,6.641,0,0,0-2.861-3.24,24.626,24.626,0,0,0-5.6-2.4,9.691,9.691,0,0,0-2-.323,1.552,1.552,0,0,0-1.646.952,7.117,7.117,0,0,1-.481.8,1.9,1.9,0,0,1-1.564-.056c-.421-.163-.824-.378-1.251-.524a.867.867,0,0,0-1.074.256,1.944,1.944,0,0,1-1.548.907,3.341,3.341,0,0,1-1.96-.428c-.341-.2-.67-.425-1.02-.608a.834.834,0,0,0-1.268.4,5.171,5.171,0,0,0-.44,1.1,1.739,1.739,0,0,1-1.773,1.306,8.156,8.156,0,0,1-3.663-.554,11.068,11.068,0,0,1-3.623-2.471c-.531-.509-1.017-1.064-1.539-1.583a3.967,3.967,0,0,0-.571-.391,6.781,6.781,0,0,0-1.26,2.6,42.182,42.182,0,0,0-1.437,10.06c-.012.5,0,1,0,1.5-.266.063-.441.16-.585.128a3.873,3.873,0,0,1-2.1-2,33.8,33.8,0,0,1-.622-4.36c-.1-2.429-.023-4.868-.008-7.3m15.826,35.8a13.506,13.506,0,0,1-7.662-5.58c-.931-1.412-1.715-2.925-2.531-4.41a4.206,4.206,0,0,0-2.454-2.4c-2.192-1.456-4.286-3-4.987-5.749a6.191,6.191,0,0,1,.058-3.515,1.286,1.286,0,0,1,1.849-.923,11.685,11.685,0,0,1,1.367.642c.507.248,1,.539,1.523.739a.8.8,0,0,0,1.17-.774c.1-1.3.15-2.6.256-3.9a47.246,47.246,0,0,1,1.37-8.195c.067-.257.177-.5.284-.806.9.822,1.632,1.53,2.41,2.183a9.115,9.115,0,0,0,6.373,2.36,4.99,4.99,0,0,0,.508-.023c1.333-.19,2.385-.722,2.656-2.2a1.679,1.679,0,0,1,.08-.33,3.113,3.113,0,0,1,.173-.325c.564-.144.9.343,1.328.549a3.949,3.949,0,0,0,3.282.27,9.329,9.329,0,0,0,1.471-.943,9.308,9.308,0,0,0,1.033.439,7.229,7.229,0,0,0,1.481.323,1.343,1.343,0,0,0,1.468-.913c.137-.364.231-.744.344-1.116a2.414,2.414,0,0,1,1.681.032,31.031,31.031,0,0,1,6.4,2.692,5.348,5.348,0,0,1,2.2,2.5c.354.761.717,1.517,1.052,2.223.5.092.675-.263.945-.436a3.188,3.188,0,0,1,3.667.041,2.408,2.408,0,0,1,.893,1.593,10.877,10.877,0,0,1-.067,4.384A8.821,8.821,0,0,1,61.141,39a2.968,2.968,0,0,0-1.08,1.631q-.829,2.673-1.682,5.339a18.29,18.29,0,0,1-4.635,7.221,10.663,10.663,0,0,1-3.875,2.387,18.033,18.033,0,0,1-8.357.975,34.11,34.11,0,0,1-6.492-1.245m16.433,9.872a5.136,5.136,0,0,1-3.69,2.154,9.677,9.677,0,0,1-6.9-1.776,1.874,1.874,0,0,1-.977-1.488c-.072-1.919-.181-3.838-.251-5.758a.631.631,0,0,1,.638-.663,7.9,7.9,0,0,1,1.185.032,19.783,19.783,0,0,0,8.7-1,3.238,3.238,0,0,1,.658-.068c.243,1.692.467,3.254.7,4.816.105.727.185,1.461.342,2.178a1.8,1.8,0,0,1-.395,1.577M23.512,66.516a8.65,8.65,0,0,1,2,3.068,16.926,16.926,0,0,1,1.066,6.559,9.476,9.476,0,0,1-1.107.125,2.377,2.377,0,0,0-1.916.941,10.723,10.723,0,0,0-1.2,1.834,10.438,10.438,0,0,0-1.086,3.73A52.94,52.94,0,0,1,20.11,89.1c-.226,1.044-.389,2.1-.574,3.118-2.857.689-7.273-.756-10.356-3.339.843-9.4,6.355-18.375,14.331-22.368m11.6,34.594c-.243,1.218-.527,2.428-.752,3.65a51.463,51.463,0,0,1-2.673,8.558,8.378,8.378,0,0,1-.766,1.506,36.461,36.461,0,0,1-5.193,6.459,5.494,5.494,0,0,1-2.192,1.484c-.026-.213-.084-.339-.044-.415a47.147,47.147,0,0,0,3.84-11.187c.581-2.413.971-4.872,1.453-7.307.09-.443.2-.881.318-1.316a1.985,1.985,0,0,1,1.288-1.42c1.4-.584,2.741-1.328,4.108-2,.291-.142.59-.264,1.063-.474-.17.937-.3,1.7-.45,2.462m.46-22.4c.332.37.62.778.97,1.222-1.5,1.4-3.6,2.068-4.394,4.163.287.057.432.133.482.091,1.532-1.245,3.054-2.5,4.57-3.748a2.045,2.045,0,0,1,1.731,1,2.917,2.917,0,0,1,.24,2.307c-.136.5-.583.795-.98,1.127-1.212,1.017-2.381,2.084-3.548,3.15a.5.5,0,0,0,.006.821c2.033-.861,3.295-2.807,5.151-3.921,1.147.668,1.2.795.9,1.839a5.123,5.123,0,0,1-1.051,1.916c-.917,1.067-1.782,2.175-2.62,3.206.148.513.466.536.69.373a7.086,7.086,0,0,0,1.115-1.033c.526-.592,1.006-1.227,1.515-1.835.17-.2.376-.378.713-.714a2.852,2.852,0,0,1-.22,2.828A13.36,13.36,0,0,1,36.062,96.9a46.5,46.5,0,0,1-6.275,3.375c-.259.109-.509.241-.734.348a9.445,9.445,0,0,0-1.077,3.053,106.8,106.8,0,0,1-2.745,11.559,32.055,32.055,0,0,1-3.85,8.66c-.373.566-.691,1.168-1.03,1.757a17.614,17.614,0,0,1-4.522,5.223c-1.3,1.016-2.7,1.833-4.067,2.732a2.245,2.245,0,0,1-2.418-.012,5.855,5.855,0,0,1-1.531-1.3,13.575,13.575,0,0,1-2.832-6.281,20.37,20.37,0,0,1-.367-2.857,82.9,82.9,0,0,1,1.433-21.129A14.2,14.2,0,0,1,7.07,98.971a14.1,14.1,0,0,0,.92-3.079c.345-1.831.716-3.66,1.108-5.641a9.483,9.483,0,0,1,1.1.555,14.261,14.261,0,0,0,5.945,2.371c.988.152,2,.13,3.126.2a7.329,7.329,0,0,1-.109,1.638,16.61,16.61,0,0,1-1.739,4.219c-1.963,3.114-4.015,6.173-5.931,9.315a41.93,41.93,0,0,0-4.24,8.677c-.138.42-.413.827-.02,1.357.166-.109.412-.18.492-.338A12.9,12.9,0,0,0,8.4,116.69a34.781,34.781,0,0,1,3.4-6.826c2.225-3.484,4.41-6.995,6.609-10.494a3.519,3.519,0,0,0,.416-.736A35.856,35.856,0,0,0,20.546,92.6c.448-3.193,1.206-6.341,1.406-9.572a21.833,21.833,0,0,1,1.916-4.869c.749-1.12,1.126-1.256,2.83-1.124a33.171,33.171,0,0,1,.272,5.648c-.541.52-1.009.97-1.714,1.646a3.14,3.14,0,0,0,2.14-.67c.632-.566,1.285-1.107,1.915-1.675,1.132-1.024,2.25-2.062,3.384-3.084a4.332,4.332,0,0,1,.684-.491c1.031-.62,1.411-.574,2.194.3M31.209,67.258c.192.7.616,1.337.814,2.037.276.974.437,1.983.65,2.975.273,1.269.534,2.542.833,3.8a1.319,1.319,0,0,1-.565,1.606,26.577,26.577,0,0,0-4.512,4.072c-.056.06-.195.044-.384.08a6.03,6.03,0,0,1-.028-.63,13.938,13.938,0,0,0-.223-4.71,25.2,25.2,0,0,1-.4-3.189,18.7,18.7,0,0,0-1.513-5.015q-.137-.308-.295-.609a2.866,2.866,0,0,0-3-1.9,4.067,4.067,0,0,1,1.995-1.287c.587-.2,1.21-.28,1.8-.462A3.115,3.115,0,0,1,29.772,65a5.319,5.319,0,0,1,1.437,2.258m4.918-4.771c-.081.113-.3.149-.466.177-1.785.306-3.567.617-5.356.887a1.667,1.667,0,0,1-.972-.161,4.587,4.587,0,0,0-3.314-.244,10.128,10.128,0,0,0-4.56,2.152,3.549,3.549,0,0,1-1.935.928,9.267,9.267,0,0,0-5.376,3.016,16.79,16.79,0,0,0-3.174,4.591c-1.039,2.195-2.255,4.342-2.653,6.774a40.185,40.185,0,0,1-1.941,6.839c-.448,1.272-.815,2.573-1.208,3.829-.49.019-.534-.277-.549-.552a12.844,12.844,0,0,1,.511-3.686A15.117,15.117,0,0,1,5.743,85.1a84.138,84.138,0,0,0,2.6-8.253A12.152,12.152,0,0,1,9.586,73.7a6.683,6.683,0,0,0,.5-1.256,19.47,19.47,0,0,1,2.024-4.1,11.453,11.453,0,0,1,3.361-3.3,34.338,34.338,0,0,1,12.9-4.961c1.721-.33,3.456-.6,5.194-.846a11.749,11.749,0,0,1,5.009.373v1.871c-.849.294-1.855.178-2.446,1.014M50.3,70.77c-1.4.159-2.8.368-4.2.459a9.418,9.418,0,0,1-3.032-.213,6.084,6.084,0,0,1-2.407-1.192,16.091,16.091,0,0,1-3.7-4.6,2.048,2.048,0,0,1-.113-1.946,1.271,1.271,0,0,1,1.02-.787c.709-.121,1.118.195.985.931A2.654,2.654,0,0,0,40,66.059a9.045,9.045,0,0,0,5.547,2.269c.566.012,1.131.032,1.7.03,2.956-.011,4.833-1.56,6.014-4.161a4.923,4.923,0,0,1-.534-2.179,2.847,2.847,0,0,1,2.264.512,1.114,1.114,0,0,1,.458,1.038c-.038,3.765-1.985,5.919-5.151,7.2m16.09-1.531c3.668,3.051,4.093,3.619,5.87,8.082.481,1.208.911,2.438,1.306,3.677.273.859.441,1.75.645,2.588a2.208,2.208,0,0,1-.234.516,9.223,9.223,0,0,0-1.993,4.261c-.23,1.163-.993,1.521-2,1.734-1.059-7.146-2-14.247-4.346-21.387.423.3.6.4.754.531m-2.6,15.6A58.92,58.92,0,0,0,59.6,69.165a25.512,25.512,0,0,0-2.916-5.355c-.16-.219-.277-.468-.512-.875a3,3,0,0,1,2.021-.022,10.607,10.607,0,0,1,4.454,2.708,12.392,12.392,0,0,1,2.014,3.308,30.844,30.844,0,0,1,2.114,7.317c.645,3.5,1.242,7.017,1.824,10.53a16.609,16.609,0,0,1,.192,2.532c.033,3.281.114,6.564.025,9.843a29.571,29.571,0,0,1-2.3,10.383,5.3,5.3,0,0,1-.5.709c-.077-.487-.121-.686-.137-.888-.249-3.386-.459-6.774-.749-10.155-.408-4.79-.783-9.586-1.342-14.36m26.424,8.51a21.532,21.532,0,0,1-2.764,6.356,1.406,1.406,0,0,1-.468.478,8.723,8.723,0,0,1-4.562,1.659,7.178,7.178,0,0,0-1.079.136.48.48,0,0,0,.411.684c.49.113.992.167,1.574.259a8.474,8.474,0,0,1,.049,1.177c-.206,2.141-.435,4.279-.655,6.419-.135,1.295-.328,2.587-.383,3.885a33.591,33.591,0,0,1-1.293,7.337,14.826,14.826,0,0,1-3.79,6.541c-.159.162-.318.325-.49.47-1.825,1.537-2.194,1.656-4.6.625a6.768,6.768,0,0,1-3.033-2.642,15.807,15.807,0,0,1-2.716-7.935c-.064-1.471-.131-2.942-.24-4.41a4.442,4.442,0,0,1,.459-2.29A30.877,30.877,0,0,0,69.4,103.22c.081-.56.167-1.121.2-1.685a85.191,85.191,0,0,0,.3-9.163c-.019-.336,0-.673,0-.948.445-.566,1.027-.551,1.619-.781.038.5.078.889.091,1.275.03.848.017,1.7.074,2.546a6.756,6.756,0,0,0,.96,3.211,4.419,4.419,0,0,1,.873,3.032,7.868,7.868,0,0,1-.341,1.475c-.7,1.911-1.446,3.808-2.17,5.712a38.689,38.689,0,0,0-1.913,5.8,13.09,13.09,0,0,0-.156,4.252c.5-.206.5-.643.552-1a43.729,43.729,0,0,1,2.9-9.565c.674-1.679,1.317-3.373,1.882-5.093a7.082,7.082,0,0,0,.245-2.133,3.179,3.179,0,0,0-.348-1.106,10.945,10.945,0,0,0-.631-1.391,7.754,7.754,0,0,1-.8-5.254c.1-.669.125-1.351.176-2.028s.095-1.355.137-2.032a5.767,5.767,0,0,1,1.917-3.674,2.448,2.448,0,0,1,1.027-.556c1.192-.355,2.406-.633,3.6-.993a2.035,2.035,0,0,1,1.92.341c.357.266.7.553,1.088.864-.433.856-.838,1.654-1.268,2.5l-2.149,1.156c.089,1.054.184,2.047.255,3.043s-.411,1.974-.175,2.944c.424.131.49-.133.581-.318a7.418,7.418,0,0,0,.556-3.986c-.024-.279-.135-.551-.166-.831a.739.739,0,0,1,.449-.828.867.867,0,0,1,.953.122c.589.508,1.184,1.01,1.856,1.583a3.68,3.68,0,0,0,.186,2.041,1.876,1.876,0,0,0,2.358,1.109,11.924,11.924,0,0,0,1.712-.734c.409-.191.793-.439,1.2-.628a1.461,1.461,0,0,1,1.357-.093,3.326,3.326,0,0,1-.1,1.947m1.556-3.835c-2.169.674-4.209,1.907-6.488,2.656-.211-.211-.372-.353-.51-.516-.752-.877-.8-1.366-.145-2.206a5.5,5.5,0,0,1,.86-.8,24.39,24.39,0,0,1,5.348-3.506c.874,1.345,1.819,2.589.935,4.374m-1.234-6.963c.288.72-.114,1.426-.289,2.121-.9.415-1.774.808-2.64,1.214a4.592,4.592,0,0,0-2.015,1.474,3.158,3.158,0,0,1-1.9,1.2,3.309,3.309,0,0,1-.506-.312c-.9-.772-1.052-1.381-.366-2.323a18.883,18.883,0,0,1,2.232-2.544,13.209,13.209,0,0,1,4.076-2.518c.952.257,1.152,1.037,1.412,1.69M89,80.048A14.228,14.228,0,0,0,83.347,83.6c-.666-.419-1.231-.788-1.809-1.137a1.607,1.607,0,0,0-1.424-.159c-1.28.378-2.618.563-3.974.837a2.36,2.36,0,0,1,.854-1.5,5.122,5.122,0,0,0,1.3-2.533c.639-2.988,1.5-5.927,1.87-8.976a15.823,15.823,0,0,1,1.316-4.557c.255-.574.538-1.18,1.295-1.173.78.009,1,.671,1.212,1.244a6.509,6.509,0,0,1,.285,1.322,23.776,23.776,0,0,1-.234,7.107c-.2,1.344-.412,2.687-.574,4.036a3.652,3.652,0,0,0,.091,1.338.973.973,0,0,0,.61.495.656.656,0,0,0,.542-.277,13.925,13.925,0,0,0,.795-1.5c1.256-2.663,2.467-5.349,3.768-7.99a22.016,22.016,0,0,1,1.88-3.02,4.534,4.534,0,0,1,1.27-1.093.836.836,0,0,1,1.281.381,4.062,4.062,0,0,1,.359,2.968,7.909,7.909,0,0,1-.5,1.442c-.713,1.542-1.439,3.077-2.195,4.6-.729,1.47-1.5,2.918-2.368,4.593" transform="translate(0 0)" fill="#1d262d" fill-rule="evenodd"/>
        <path id="Trazado_1356460" data-name="Trazado 1356460" d="M47.6,59.872a3.288,3.288,0,0,1,.556-.263c2.692-.6,5.384-1.2,8.082-1.766a8.187,8.187,0,0,1,3.917.073c0,.3.113.676-.018.929-1.267,2.456-2.99,4.407-5.936,4.72a5.893,5.893,0,0,1-5.831-2.646c-.238-.346-.5-.678-.77-1.046m11.711-1.318a8.936,8.936,0,0,0-3.478.245,31.454,31.454,0,0,0-3.286.809,10.732,10.732,0,0,0-3.25.951,5.377,5.377,0,0,0,4.554,2.026,6.359,6.359,0,0,0,5.46-4.032" transform="translate(-10.408 -12.603)" fill="#1d262d" fill-rule="evenodd"/>
        <path id="Trazado_1356461" data-name="Trazado 1356461" d="M51.139,40.651a2.037,2.037,0,0,1,.354.506,6.188,6.188,0,0,1,.195,3.017A26.441,26.441,0,0,1,51,47.142a3.645,3.645,0,0,0,.813,3.771c.37.409.709.846,1.233,1.475a2.9,2.9,0,0,1-.813-.045,4.174,4.174,0,0,1-2.456-5.011c.136-.661.356-1.306.518-1.964a10.707,10.707,0,0,0,.342-3.524c-.039-.429-.128-.922.5-1.193" transform="translate(-10.857 -8.888)" fill="#1d262d" fill-rule="evenodd"/>
        <path id="Trazado_1356462" data-name="Trazado 1356462" d="M65.09,34.076c-1.093-.236-1.849-.431-2.615-.555s-1.5.459-2.4.15c.083-.246.088-.51.22-.615a3.853,3.853,0,0,1,4.246.059,4.031,4.031,0,0,1,.549.961" transform="translate(-13.135 -7.095)" fill="#1d262d" fill-rule="evenodd"/>
        <path id="Trazado_1356463" data-name="Trazado 1356463" d="M40.935,45.578a1.536,1.536,0,0,1,1.4,1.434A1.321,1.321,0,0,1,40.9,48.138a1.288,1.288,0,0,1-1.053-1.487,1.138,1.138,0,0,1,1.09-1.074" transform="translate(-8.711 -9.965)" fill="#1d262d" fill-rule="evenodd"/>
        <path id="Trazado_1356464" data-name="Trazado 1356464" d="M41.005,36.179c-.417.1-.626.227-.792.184a4.338,4.338,0,0,0-3.8.931,2.655,2.655,0,0,1-.6.272c-.047.02-.111-.005-.173-.01-.375-.383-.206-.732.12-1.006a4.011,4.011,0,0,1,3.424-1.093,2.906,2.906,0,0,1,1.824.723" transform="translate(-7.745 -7.739)" fill="#1d262d" fill-rule="evenodd"/>
        <path id="Trazado_1356465" data-name="Trazado 1356465" d="M63.661,45.048a1.249,1.249,0,1,1,.15-2.492,1.3,1.3,0,0,1,1.032,1.313,1.251,1.251,0,0,1-1.182,1.178" transform="translate(-13.655 -9.304)" fill="#1d262d" fill-rule="evenodd"/>
        <path id="Trazado_1356466" data-name="Trazado 1356466" d="M79.5,38.336a6.69,6.69,0,0,0-2.137,3.15c-.558-.043-.508-.328-.5-.517a3.48,3.48,0,0,1,1.849-3.023c.348-.208.646-.123.791.391" transform="translate(-16.805 -8.274)" fill="#1d262d" fill-rule="evenodd"/>
        <path id="Trazado_1356467" data-name="Trazado 1356467" d="M27.892,47.918a27.159,27.159,0,0,1-3.22-3.508,3.733,3.733,0,0,1,2.668,1.781c.347.472.842.925.552,1.727" transform="translate(-5.394 -9.71)" fill="#1d262d" fill-rule="evenodd"/>
        <path id="Trazado_1356468" data-name="Trazado 1356468" d="M45.9,21.765c-3-.8-5.447-2.814-7.814-4.724-.355-.287-.862.217-.5.5,2.462,1.969,5.012,4.258,8.271,4.569.205.02.238-.3.048-.349" transform="translate(-8.189 -3.707)" fill="#1d262d" fill-rule="evenodd"/>
        <path id="Trazado_1356469" data-name="Trazado 1356469" d="M57.148,18.955c-4.544-2.874-9.836-4.173-14.294-7.279-.248-.173-.557.226-.323.42a39.433,39.433,0,0,0,14.5,7.13.15.15,0,0,0,.116-.271" transform="translate(-9.281 -2.544)" fill="#1d262d" fill-rule="evenodd"/>
        <path id="Trazado_1356470" data-name="Trazado 1356470" d="M66.5,16.942C62.512,12.475,56,10,50.359,8.41a.267.267,0,0,0-.144.515,72.515,72.515,0,0,1,15.993,8.39c.237.155.459-.18.288-.373" transform="translate(-10.939 -1.836)" fill="#1d262d" fill-rule="evenodd"/>
      </g>
    </g>
  </g>
</svg>
