<svg xmlns="http://www.w3.org/2000/svg" xmlns:xlink="http://www.w3.org/1999/xlink" width="188" height="188" viewBox="0 0 188 188">
  <defs>
    <clipPath id="clip-path">
      <rect id="Rectángulo_457226" data-name="Rectángulo 457226" width="174.569" height="149.332" fill="none"/>
    </clipPath>
    <clipPath id="clip-path-2">
      <rect id="Rectángulo_457230" data-name="Rectángulo 457230" width="8.533" height="114.709" fill="none"/>
    </clipPath>
    <clipPath id="clip-path-3">
      <rect id="Rectángulo_457232" data-name="Rectángulo 457232" width="79.729" height="4.233" fill="none"/>
    </clipPath>
    <clipPath id="clip-path-5">
      <rect id="Rectángulo_457235" data-name="Rectángulo 457235" width="11.129" height="14.572" fill="none"/>
    </clipPath>
    <clipPath id="clip-path-6">
      <rect id="Rectángulo_457252" data-name="Rectángulo 457252" width="9.376" height="12.278" fill="none"/>
    </clipPath>
    <clipPath id="clip-path-7">
      <rect id="Rectángulo_457281" data-name="Rectángulo 457281" width="60.219" height="17.173" fill="none"/>
    </clipPath>
  </defs>
  <g id="Grupo_1207590" data-name="Grupo 1207590" transform="translate(-185.711 -326)">
    <g id="Grupo_1207028" data-name="Grupo 1207028">
      <rect id="Rectángulo_457224" data-name="Rectángulo 457224" width="188" height="188" rx="20" transform="translate(185.711 326)" fill="#f0b068"/>
      <g id="Grupo_1207024" data-name="Grupo 1207024" transform="translate(192.716 345.334)">
        <g id="Grupo_1207025" data-name="Grupo 1207025" transform="translate(0 -0.001)">
          <g id="Grupo_1207002" data-name="Grupo 1207002" transform="translate(0 0)">
            <g id="Grupo_1207001" data-name="Grupo 1207001" clip-path="url(#clip-path)">
              <path id="Trazado_1311313" data-name="Trazado 1311313" d="M174.569,109.389h0a11.343,11.343,0,0,0-11.343-11.343A12.828,12.828,0,0,1,150.4,85.218h0a9.328,9.328,0,0,0-9.328-9.328H96.554A10.991,10.991,0,0,0,85.563,86.881,11.166,11.166,0,0,1,74.4,98.047H25.778a11.343,11.343,0,0,0,0,22.685,9.975,9.975,0,0,1,9.975,9.975v1.51a9.975,9.975,0,0,1-9.975,9.975H11.343a11.343,11.343,0,1,0,0,22.685A10.059,10.059,0,0,1,21.4,174.936v4.229a7.205,7.205,0,0,1-7.205,7.205,11.343,11.343,0,1,0,0,22.685H149.8a11.343,11.343,0,0,0,0-22.685h-1.746a10.747,10.747,0,1,1,0-21.493h9.467a11.343,11.343,0,0,0,0-22.685h-1.427a10.73,10.73,0,1,1,0-21.46h7.134a11.343,11.343,0,0,0,11.343-11.343" transform="translate(0 -65.715)" fill="#f9dfc2"/>
            </g>
          </g>
          <g id="Grupo_1207022" data-name="Grupo 1207022" transform="translate(5.607)">
            <g id="Grupo_1207026" data-name="Grupo 1207026" transform="translate(0 0)">
              <g id="Grupo_1207027" data-name="Grupo 1207027" transform="translate(0.914 30.171)">
                <path id="Trazado_1311314" data-name="Trazado 1311314" d="M73.5,811.089a12.432,12.432,0,1,1-12.432-12.432A12.432,12.432,0,0,1,73.5,811.089" transform="translate(-48.639 -721.758)" fill="#f9dfc2"/>
                <path id="Trazado_1311316" data-name="Trazado 1311316" d="M1023.213,785.468a10.913,10.913,0,1,1-10.913-10.913,10.913,10.913,0,0,1,10.913,10.913" transform="translate(-873.659 -700.887)" fill="#f9dfc2"/>
                <path id="Trazado_1311336" data-name="Trazado 1311336" d="M1026.779,226.423H997.69a.686.686,0,1,1,0-1.371h29.089a.686.686,0,1,1,0,1.371" transform="translate(-869.864 -225.052)" fill="#f9dfc2"/>
                <path id="Trazado_1311337" data-name="Trazado 1311337" d="M1006.989,259.385H990.261a.686.686,0,0,1,0-1.371h16.729a.686.686,0,1,1,0,1.371" transform="translate(-863.43 -253.595)" fill="#f9dfc2"/>
                <path id="Trazado_1311338" data-name="Trazado 1311338" d="M67.836,499.212H66.577a.686.686,0,0,1,0-1.371h1.259a.686.686,0,1,1,0,1.371" transform="translate(-63.578 -461.27)" fill="#f9dfc2"/>
                <path id="Trazado_1311339" data-name="Trazado 1311339" d="M109.557,499.212H98.51a.686.686,0,1,1,0-1.371h11.047a.686.686,0,1,1,0,1.371" transform="translate(-91.23 -461.27)" fill="#f9dfc2"/>
                <path id="Trazado_1311340" data-name="Trazado 1311340" d="M181.624,499.212h-15a.686.686,0,1,1,0-1.371h15a.686.686,0,1,1,0,1.371" transform="translate(-150.208 -461.27)" fill="#f9dfc2"/>
                <path id="Trazado_1311341" data-name="Trazado 1311341" d="M169.29,532.174H154.2a.686.686,0,1,1,0-1.371H169.29a.686.686,0,1,1,0,1.371" transform="translate(-139.458 -489.813)" fill="#f9dfc2"/>
              </g>
              <path id="Trazado_1311315" data-name="Trazado 1311315" d="M55.166,818.53a13.346,13.346,0,1,1,13.346-13.346A13.361,13.361,0,0,1,55.166,818.53m0-24.864a11.518,11.518,0,1,0,11.518,11.518,11.531,11.531,0,0,0-11.518-11.518" transform="translate(-41.82 -685.68)" fill="#f9dfc2"/>
              <line id="Línea_3785" data-name="Línea 3785" y1="4.732" x2="5.012" transform="translate(13.346 122.365)" fill="#abdbdb"/>
              <rect id="Rectángulo_457227" data-name="Rectángulo 457227" width="6.893" height="1.829" transform="translate(12.719 126.432) rotate(-43.351)" fill="#abdbdb"/>
              <path id="Trazado_1311317" data-name="Trazado 1311317" d="M1006.394,791.39a11.827,11.827,0,1,1,11.827-11.827,11.841,11.841,0,0,1-11.827,11.827m0-21.826a10,10,0,1,0,10,10,10.01,10.01,0,0,0-10-10" transform="translate(-866.839 -664.81)" fill="#f9dfc2"/>
              <path id="Trazado_1311318" data-name="Trazado 1311318" d="M129.056,913.89a7.6,7.6,0,1,1-7.6-7.6,7.6,7.6,0,0,1,7.6,7.6" transform="translate(-104.191 -784.786)" fill="#b2cc5d"/>
              <path id="Trazado_1311319" data-name="Trazado 1311319" d="M117.021,917.751a8.29,8.29,0,1,1,8.29-8.29,8.3,8.3,0,0,1-8.29,8.29m0-15.209a6.919,6.919,0,1,0,6.919,6.918,6.926,6.926,0,0,0-6.919-6.918" transform="translate(-99.761 -780.357)" fill="#232323"/>
              <path id="Trazado_1311320" data-name="Trazado 1311320" d="M166.139,958.142a.686.686,0,0,1-.686-.686V939.819a.686.686,0,0,1,1.371,0v17.638a.686.686,0,0,1-.686.686" transform="translate(-148.878 -813.23)" fill="#232323"/>
              <path id="Trazado_1311321" data-name="Trazado 1311321" d="M146.578,976.665a.684.684,0,0,1-.475-.192l-3.028-2.914a.686.686,0,0,1,.951-.988l3.028,2.914a.686.686,0,0,1-.476,1.18" transform="translate(-129.317 -842.019)" fill="#232323"/>
              <line id="Línea_3786" data-name="Línea 3786" y1="2.894" x2="3.066" transform="translate(17.26 130.855)" fill="#b2cc5d"/>
              <path id="Trazado_1311322" data-name="Trazado 1311322" d="M166.14,975.219a.686.686,0,0,1-.471-1.184l3.066-2.894a.686.686,0,1,1,.942,1l-3.066,2.894a.683.683,0,0,1-.47.187" transform="translate(-148.879 -840.783)" fill="#232323"/>
              <path id="Trazado_1311323" data-name="Trazado 1311323" d="M166.14,955.632a.686.686,0,0,1-.5-1.16l1.533-1.6a.686.686,0,1,1,.99.949l-1.533,1.6a.683.683,0,0,1-.5.211" transform="translate(-148.879 -824.943)" fill="#232323"/>
              <path id="Trazado_1311324" data-name="Trazado 1311324" d="M133.51,941.621a1.1,1.1,0,1,1-1.1-1.1,1.1,1.1,0,0,1,1.1,1.1" transform="translate(-119.321 -814.436)" fill="#869947"/>
              <path id="Trazado_1311325" data-name="Trazado 1311325" d="M143.138,928.88a.614.614,0,1,1-.614-.614.614.614,0,0,1,.614.614" transform="translate(-128.492 -803.819)" fill="#869947"/>
              <path id="Trazado_1311326" data-name="Trazado 1311326" d="M1084.316,913.89a7.6,7.6,0,1,1-7.6-7.6,7.6,7.6,0,0,1,7.6,7.6" transform="translate(-931.386 -784.786)" fill="#b2cc5d"/>
              <path id="Trazado_1311327" data-name="Trazado 1311327" d="M1072.282,917.751a8.29,8.29,0,1,1,8.29-8.29,8.3,8.3,0,0,1-8.29,8.29m0-15.209a6.919,6.919,0,1,0,6.919,6.918,6.926,6.926,0,0,0-6.919-6.918" transform="translate(-926.957 -780.357)" fill="#232323"/>
              <path id="Trazado_1311328" data-name="Trazado 1311328" d="M1125.006,923.954a1.1,1.1,0,1,1,1.328-.8,1.1,1.1,0,0,1-1.328.8" transform="translate(-979.073 -798.217)" fill="#869947"/>
              <path id="Trazado_1311329" data-name="Trazado 1311329" d="M1141.909,937.238a.614.614,0,1,1,.745-.446.614.614,0,0,1-.745.446" transform="translate(-994.026 -810.541)" fill="#869947"/>
              <path id="Trazado_1311330" data-name="Trazado 1311330" d="M1130.925,943.772a.4.4,0,1,1,.483-.29.4.4,0,0,1-.483.29" transform="translate(-984.655 -816.567)" fill="#869947"/>
              <path id="Trazado_1311331" data-name="Trazado 1311331" d="M1121.4,970.692a.686.686,0,0,1-.686-.686v-15.7a.686.686,0,1,1,1.371,0v15.7a.686.686,0,0,1-.686.686" transform="translate(-976.074 -825.779)" fill="#232323"/>
              <path id="Trazado_1311332" data-name="Trazado 1311332" d="M1101.839,976.665a.683.683,0,0,1-.475-.192l-3.029-2.914a.686.686,0,0,1,.951-.988l3.028,2.914a.686.686,0,0,1-.476,1.18" transform="translate(-956.513 -842.019)" fill="#232323"/>
              <path id="Trazado_1311333" data-name="Trazado 1311333" d="M1121.4,975.219a.686.686,0,0,1-.471-1.184L1124,971.14a.686.686,0,1,1,.942,1l-3.066,2.894a.682.682,0,0,1-.47.187" transform="translate(-976.075 -840.783)" fill="#232323"/>
              <path id="Trazado_1311334" data-name="Trazado 1311334" d="M595.4,226.423h-3.7a.686.686,0,1,1,0-1.371h3.7a.686.686,0,1,1,0,1.371" transform="translate(-517.383 -194.88)" fill="#a3d5d6"/>
              <path id="Trazado_1311335" data-name="Trazado 1311335" d="M670.749,226.423h-29.84a.686.686,0,1,1,0-1.371h29.84a.686.686,0,1,1,0,1.371" transform="translate(-559.999 -194.88)" fill="#a3d5d6"/>
              <line id="Línea_3787" data-name="Línea 3787" x2="29.089" transform="translate(128.74 30.857)" fill="#ccd6ed"/>
              <line id="Línea_3788" data-name="Línea 3788" x2="16.729" transform="translate(127.744 35.276)" fill="#ccd6ed"/>
              <line id="Línea_3789" data-name="Línea 3789" x2="1.259" transform="translate(3.913 67.428)" fill="#ccd6ed"/>
              <line id="Línea_3790" data-name="Línea 3790" x2="11.047" transform="translate(8.194 67.428)" fill="#ccd6ed"/>
              <line id="Línea_3791" data-name="Línea 3791" x2="15.005" transform="translate(17.325 67.428)" fill="#ccd6ed"/>
              <line id="Línea_3792" data-name="Línea 3792" x2="15.085" transform="translate(15.66 71.847)" fill="#ccd6ed"/>
              <rect id="Rectángulo_457228" data-name="Rectángulo 457228" width="80.151" height="118.942" transform="translate(40.498 22.155)" fill="#ffe878"/>
              <path id="Trazado_1311342" data-name="Trazado 1311342" d="M420.311,280.454H338.789V160.14h81.522Zm-80.151-1.371h78.78V161.511H340.16Z" transform="translate(-298.976 -138.671)" fill="#232323"/>
              <g id="Grupo_1207005" data-name="Grupo 1207005" transform="translate(112.116 26.388)" style="mix-blend-mode: multiply;isolation: isolate">
                <g id="Grupo_1207004" data-name="Grupo 1207004">
                  <g id="Grupo_1207003" data-name="Grupo 1207003" clip-path="url(#clip-path-2)">
                    <rect id="Rectángulo_457229" data-name="Rectángulo 457229" width="8.533" height="114.71" transform="translate(0 0)" fill="#d3e0df"/>
                  </g>
                </g>
              </g>
              <g id="Grupo_1207008" data-name="Grupo 1207008" transform="translate(40.92 22.155)" style="mix-blend-mode: multiply;isolation: isolate">
                <g id="Grupo_1207007" data-name="Grupo 1207007">
                  <g id="Grupo_1207006" data-name="Grupo 1207006" clip-path="url(#clip-path-3)">
                    <rect id="Rectángulo_457231" data-name="Rectángulo 457231" width="79.729" height="4.233" fill="#b7c2c1"/>
                  </g>
                </g>
              </g>
              <g id="Grupo_1207011" data-name="Grupo 1207011" transform="translate(40.92 26.388)" opacity="0.43" style="mix-blend-mode: overlay;isolation: isolate">
                <g id="Grupo_1207010" data-name="Grupo 1207010">
                  <g id="Grupo_1207009" data-name="Grupo 1207009" clip-path="url(#clip-path-2)">
                    <rect id="Rectángulo_457233" data-name="Rectángulo 457233" width="8.533" height="114.71" transform="translate(0 0)" fill="#fff"/>
                  </g>
                </g>
              </g>
              <path id="Trazado_1311343" data-name="Trazado 1311343" d="M484.914,283.208H469.848V259.884l.071-.027a20.3,20.3,0,0,1,14.925,0l.07.027Z" transform="translate(-412.465 -223.788)" fill="#fff"/>
              <path id="Trazado_1311344" data-name="Trazado 1311344" d="M481.171,279.418H464.734V254.94l.507-.2a20.892,20.892,0,0,1,15.423,0l.507.2Zm-15.066-1.371H479.8V255.881a19.507,19.507,0,0,0-13.694,0Z" transform="translate(-408.037 -219.313)" fill="#232323"/>
              <path id="Trazado_1311345" data-name="Trazado 1311345" d="M495.662,292.236H484.533v-13.72l.052-.016a18.588,18.588,0,0,1,11.025,0l.052.016Z" transform="translate(-425.182 -240.438)" fill="#9fedeb"/>
              <path id="Trazado_1311346" data-name="Trazado 1311346" d="M491.918,288.467h-12.5V273.556l.534-.166a19.192,19.192,0,0,1,11.431,0l.534.166ZM480.789,287.1h9.757V274.572a17.818,17.818,0,0,0-9.757,0Z" transform="translate(-420.752 -235.984)" fill="#232323"/>
              <g id="Grupo_1207014" data-name="Grupo 1207014" transform="translate(59.351 37.225)" opacity="0.5" style="mix-blend-mode: overlay;isolation: isolate">
                <g id="Grupo_1207013" data-name="Grupo 1207013">
                  <g id="Grupo_1207012" data-name="Grupo 1207012" clip-path="url(#clip-path-5)">
                    <path id="Trazado_1311347" data-name="Trazado 1311347" d="M490.25,284.949l-5.718,7.286v-13.72l.052-.016a18.588,18.588,0,0,1,11.025,0l.052.016Z" transform="translate(-484.532 -277.663)" fill="#fff"/>
                  </g>
                </g>
              </g>
              <rect id="Rectángulo_457236" data-name="Rectángulo 457236" width="11.129" height="1.371" transform="translate(59.351 46.335)" fill="#232323"/>
              <rect id="Rectángulo_457237" data-name="Rectángulo 457237" width="1.371" height="14.572" transform="translate(64.23 37.225)" fill="#232323"/>
              <path id="Trazado_1311348" data-name="Trazado 1311348" d="M471.043,390.242H450.895v-8.994h20.148Zm-18.776-1.371h17.4v-6.251h-17.4Z" transform="translate(-396.053 -330.136)" fill="#232323"/>
              <rect id="Rectángulo_457238" data-name="Rectángulo 457238" width="1.371" height="7.622" transform="translate(58.666 51.797)" fill="#232323"/>
              <rect id="Rectángulo_457239" data-name="Rectángulo 457239" width="1.371" height="7.622" transform="translate(60.891 51.797)" fill="#232323"/>
              <rect id="Rectángulo_457240" data-name="Rectángulo 457240" width="1.371" height="7.622" transform="translate(63.117 51.797)" fill="#232323"/>
              <rect id="Rectángulo_457241" data-name="Rectángulo 457241" width="1.371" height="7.622" transform="translate(65.343 51.797)" fill="#232323"/>
              <rect id="Rectángulo_457242" data-name="Rectángulo 457242" width="1.371" height="7.622" transform="translate(67.568 51.797)" fill="#232323"/>
              <rect id="Rectángulo_457243" data-name="Rectángulo 457243" width="1.371" height="7.622" transform="translate(69.794 51.797)" fill="#232323"/>
              <path id="Trazado_1311349" data-name="Trazado 1311349" d="M712.34,283.208H697.274V259.884l.07-.027a20.3,20.3,0,0,1,14.925,0l.07.027Z" transform="translate(-609.402 -223.788)" fill="#fff"/>
              <path id="Trazado_1311350" data-name="Trazado 1311350" d="M708.6,279.418H692.16V254.941l.507-.2a20.892,20.892,0,0,1,15.424,0l.507.2Zm-15.066-1.371h13.694V255.882a19.508,19.508,0,0,0-13.694,0Z" transform="translate(-604.974 -219.313)" fill="#232323"/>
              <path id="Trazado_1311351" data-name="Trazado 1311351" d="M723.087,292.236H711.958v-13.72l.052-.016a18.588,18.588,0,0,1,11.025,0l.052.016Z" transform="translate(-622.117 -240.438)" fill="#9fedeb"/>
              <path id="Trazado_1311352" data-name="Trazado 1311352" d="M719.344,288.467h-12.5V273.556l.534-.166a19.193,19.193,0,0,1,11.431,0l.535.166ZM708.215,287.1h9.757V274.572a17.818,17.818,0,0,0-9.757,0Z" transform="translate(-617.689 -235.984)" fill="#232323"/>
              <rect id="Rectángulo_457244" data-name="Rectángulo 457244" width="11.129" height="1.371" transform="translate(89.841 46.335)" fill="#232323"/>
              <rect id="Rectángulo_457245" data-name="Rectángulo 457245" width="1.371" height="14.572" transform="translate(94.719 37.225)" fill="#232323"/>
              <path id="Trazado_1311353" data-name="Trazado 1311353" d="M698.469,390.242H678.321v-8.994h20.148Zm-18.776-1.371H697.1v-6.251H679.692Z" transform="translate(-592.99 -330.136)" fill="#232323"/>
              <rect id="Rectángulo_457246" data-name="Rectángulo 457246" width="1.371" height="7.622" transform="translate(89.155 51.797)" fill="#232323"/>
              <rect id="Rectángulo_457247" data-name="Rectángulo 457247" width="1.371" height="7.622" transform="translate(91.381 51.797)" fill="#232323"/>
              <rect id="Rectángulo_457248" data-name="Rectángulo 457248" width="1.371" height="7.622" transform="translate(93.606 51.797)" fill="#232323"/>
              <rect id="Rectángulo_457249" data-name="Rectángulo 457249" width="1.371" height="7.622" transform="translate(95.832 51.797)" fill="#232323"/>
              <rect id="Rectángulo_457250" data-name="Rectángulo 457250" width="1.371" height="7.622" transform="translate(98.058 51.797)" fill="#232323"/>
              <rect id="Rectángulo_457251" data-name="Rectángulo 457251" width="1.371" height="7.622" transform="translate(100.284 51.797)" fill="#232323"/>
              <path id="Trazado_1311354" data-name="Trazado 1311354" d="M484.914,540.2H469.848V516.875l.071-.028a20.3,20.3,0,0,1,14.925,0l.07.028Z" transform="translate(-412.465 -446.326)" fill="#fff"/>
              <path id="Trazado_1311355" data-name="Trazado 1311355" d="M481.171,536.41H464.734V511.932l.507-.2a20.892,20.892,0,0,1,15.423,0l.507.2Zm-15.066-1.371H479.8V512.873a19.509,19.509,0,0,0-13.694,0Z" transform="translate(-408.037 -441.851)" fill="#232323"/>
              <path id="Trazado_1311356" data-name="Trazado 1311356" d="M495.662,549.228H484.533v-13.72l.052-.016a18.587,18.587,0,0,1,11.025,0l.052.016Z" transform="translate(-425.182 -462.977)" fill="#9fedeb"/>
              <path id="Trazado_1311357" data-name="Trazado 1311357" d="M491.918,545.459h-12.5v-14.91l.533-.166a19.192,19.192,0,0,1,11.432,0l.534.167Zm-11.129-1.371h9.757V531.564a17.82,17.82,0,0,0-9.757,0Z" transform="translate(-420.752 -458.523)" fill="#232323"/>
              <g id="Grupo_1207017" data-name="Grupo 1207017" transform="translate(60.207 72.368)" opacity="0.5" style="mix-blend-mode: overlay;isolation: isolate">
                <g id="Grupo_1207016" data-name="Grupo 1207016">
                  <g id="Grupo_1207015" data-name="Grupo 1207015" clip-path="url(#clip-path-6)">
                    <path id="Trazado_1311358" data-name="Trazado 1311358" d="M495.733,545.942l-4.818,6.139v-8.135L495.6,539.8a29.081,29.081,0,0,1,4.644.7l.044.014Z" transform="translate(-490.915 -539.803)" fill="#fff"/>
                  </g>
                </g>
              </g>
              <rect id="Rectángulo_457253" data-name="Rectángulo 457253" width="11.129" height="1.371" transform="translate(59.351 80.788)" fill="#232323"/>
              <rect id="Rectángulo_457254" data-name="Rectángulo 457254" width="1.371" height="14.572" transform="translate(64.23 71.678)" fill="#232323"/>
              <path id="Trazado_1311359" data-name="Trazado 1311359" d="M471.043,647.233H450.895v-8.994h20.148Zm-18.776-1.372h17.4V639.61h-17.4Z" transform="translate(-396.053 -552.674)" fill="#232323"/>
              <rect id="Rectángulo_457255" data-name="Rectángulo 457255" width="1.371" height="7.622" transform="translate(58.666 86.251)" fill="#232323"/>
              <rect id="Rectángulo_457256" data-name="Rectángulo 457256" width="1.371" height="7.622" transform="translate(60.891 86.251)" fill="#232323"/>
              <rect id="Rectángulo_457257" data-name="Rectángulo 457257" width="1.371" height="7.622" transform="translate(63.117 86.251)" fill="#232323"/>
              <rect id="Rectángulo_457258" data-name="Rectángulo 457258" width="1.371" height="7.622" transform="translate(65.343 86.251)" fill="#232323"/>
              <rect id="Rectángulo_457259" data-name="Rectángulo 457259" width="1.371" height="7.622" transform="translate(67.568 86.251)" fill="#232323"/>
              <rect id="Rectángulo_457260" data-name="Rectángulo 457260" width="1.371" height="7.622" transform="translate(69.794 86.251)" fill="#232323"/>
              <path id="Trazado_1311360" data-name="Trazado 1311360" d="M712.34,540.2H697.274V516.875l.07-.028a20.3,20.3,0,0,1,14.925,0l.07.028Z" transform="translate(-609.402 -446.326)" fill="#fff"/>
              <path id="Trazado_1311361" data-name="Trazado 1311361" d="M708.6,536.41H692.16V511.932l.507-.2a20.892,20.892,0,0,1,15.424,0l.507.2Zm-15.066-1.371h13.694V512.873a19.508,19.508,0,0,0-13.694,0Z" transform="translate(-604.974 -441.851)" fill="#232323"/>
              <path id="Trazado_1311362" data-name="Trazado 1311362" d="M723.087,549.228H711.958v-13.72l.052-.016a18.587,18.587,0,0,1,11.025,0l.052.016Z" transform="translate(-622.117 -462.977)" fill="#9fedeb"/>
              <path id="Trazado_1311363" data-name="Trazado 1311363" d="M719.344,545.46h-12.5V530.55l.533-.166a19.2,19.2,0,0,1,11.432,0l.535.167Zm-11.129-1.371h9.757V531.565a17.817,17.817,0,0,0-9.757,0Z" transform="translate(-617.689 -458.524)" fill="#232323"/>
              <rect id="Rectángulo_457261" data-name="Rectángulo 457261" width="11.129" height="1.371" transform="translate(89.841 80.788)" fill="#232323"/>
              <rect id="Rectángulo_457262" data-name="Rectángulo 457262" width="1.371" height="14.572" transform="translate(94.719 71.678)" fill="#232323"/>
              <path id="Trazado_1311364" data-name="Trazado 1311364" d="M698.469,647.233H678.321v-8.994h20.148Zm-18.776-1.372H697.1V639.61H679.692Z" transform="translate(-592.99 -552.674)" fill="#232323"/>
              <rect id="Rectángulo_457263" data-name="Rectángulo 457263" width="1.371" height="7.622" transform="translate(89.155 86.251)" fill="#232323"/>
              <rect id="Rectángulo_457264" data-name="Rectángulo 457264" width="1.371" height="7.622" transform="translate(91.381 86.251)" fill="#232323"/>
              <rect id="Rectángulo_457265" data-name="Rectángulo 457265" width="1.371" height="7.622" transform="translate(93.606 86.251)" fill="#232323"/>
              <rect id="Rectángulo_457266" data-name="Rectángulo 457266" width="1.371" height="7.622" transform="translate(95.832 86.251)" fill="#232323"/>
              <rect id="Rectángulo_457267" data-name="Rectángulo 457267" width="1.371" height="7.622" transform="translate(98.058 86.251)" fill="#232323"/>
              <rect id="Rectángulo_457268" data-name="Rectángulo 457268" width="1.371" height="7.622" transform="translate(100.284 86.251)" fill="#232323"/>
              <path id="Trazado_1311365" data-name="Trazado 1311365" d="M944.716,647.233h-8.065v-8.994h8.065Zm-6.693-1.372h5.322V639.61h-5.322Z" transform="translate(-816.687 -552.674)" fill="#232323"/>
              <rect id="Rectángulo_457269" data-name="Rectángulo 457269" width="1.371" height="7.622" transform="translate(122.09 86.251)" fill="#232323"/>
              <rect id="Rectángulo_457270" data-name="Rectángulo 457270" width="1.371" height="7.622" transform="translate(124.316 86.251)" fill="#232323"/>
              <path id="Trazado_1311366" data-name="Trazado 1311366" d="M944.716,390.242h-8.065v-8.994h8.065Zm-6.693-1.371h5.322v-6.251h-5.322Z" transform="translate(-816.687 -330.136)" fill="#232323"/>
              <rect id="Rectángulo_457271" data-name="Rectángulo 457271" width="1.371" height="7.622" transform="translate(122.09 51.797)" fill="#232323"/>
              <rect id="Rectángulo_457272" data-name="Rectángulo 457272" width="1.371" height="7.622" transform="translate(124.316 51.797)" fill="#232323"/>
              <path id="Trazado_1311367" data-name="Trazado 1311367" d="M297.34,390.242h-8.065v-8.994h8.065Zm-6.693-1.371h5.322v-6.251h-5.322Z" transform="translate(-256.1 -330.136)" fill="#232323"/>
              <rect id="Rectángulo_457273" data-name="Rectángulo 457273" width="1.371" height="7.622" transform="translate(35.301 51.797)" fill="#232323"/>
              <rect id="Rectángulo_457274" data-name="Rectángulo 457274" width="1.371" height="7.622" transform="translate(37.527 51.797)" fill="#232323"/>
              <path id="Trazado_1311368" data-name="Trazado 1311368" d="M297.34,646.562h-8.065v-8.994h8.065Zm-6.693-1.372h5.322v-6.251h-5.322Z" transform="translate(-256.1 -552.093)" fill="#232323"/>
              <rect id="Rectángulo_457275" data-name="Rectángulo 457275" width="1.371" height="7.622" transform="translate(35.301 86.161)" fill="#232323"/>
              <rect id="Rectángulo_457276" data-name="Rectángulo 457276" width="1.371" height="7.622" transform="translate(37.527 86.161)" fill="#232323"/>
              <path id="Trazado_1311369" data-name="Trazado 1311369" d="M389.839,127.823H310.866a5.8,5.8,0,0,1-5.8-5.8h90.563a5.8,5.8,0,0,1-5.8,5.8" transform="translate(-269.779 -105.668)" fill="#59512a"/>
              <path id="Trazado_1311370" data-name="Trazado 1311370" d="M385.41,124.079H306.438a6.488,6.488,0,0,1-6.481-6.481v-.686h91.934v.686a6.488,6.488,0,0,1-6.481,6.481m-84.036-5.8a5.118,5.118,0,0,0,5.064,4.424H385.41a5.118,5.118,0,0,0,5.064-4.424Z" transform="translate(-265.35 -101.239)" fill="#232323"/>
              <path id="Trazado_1311371" data-name="Trazado 1311371" d="M394.858,1055.615H304.01a3.146,3.146,0,0,1,3.146-3.146h84.555a3.146,3.146,0,0,1,3.146,3.146" transform="translate(-268.86 -911.371)" fill="#525252"/>
              <path id="Trazado_1311372" data-name="Trazado 1311372" d="M391.113,1051.87H298.894v-.686a3.837,3.837,0,0,1,3.832-3.832h84.555a3.837,3.837,0,0,1,3.832,3.832Zm-90.75-1.372h89.282a2.465,2.465,0,0,0-2.364-1.775H302.726a2.465,2.465,0,0,0-2.364,1.775" transform="translate(-264.43 -906.94)" fill="#232323"/>
              <path id="Trazado_1311373" data-name="Trazado 1311373" d="M501.693,847.091H479.005V814.5h22.688Zm-21.316-1.371h19.945V815.875H480.376Z" transform="translate(-420.395 -705.308)" fill="#232323"/>
              <rect id="Rectángulo_457277" data-name="Rectángulo 457277" width="16.683" height="7.864" transform="translate(61.612 130.868)" fill="#9fedeb"/>
              <path id="Trazado_1311374" data-name="Trazado 1311374" d="M512.967,978.916H497.655v-6.492h15.312Zm1.371-7.864H496.284v9.235h18.054Z" transform="translate(-435.357 -840.869)" fill="#232323"/>
              <rect id="Rectángulo_457278" data-name="Rectángulo 457278" width="16.683" height="15.651" transform="translate(61.612 112.297)" fill="#9fedeb"/>
              <path id="Trazado_1311375" data-name="Trazado 1311375" d="M512.967,848.174H497.655V833.894h15.312Zm1.371-15.651H496.284v17.022h18.054Z" transform="translate(-435.357 -720.912)" fill="#232323"/>
              <path id="Trazado_1311376" data-name="Trazado 1311376" d="M660.122,847.091H637.434V814.5h22.688Zm-21.316-1.371H658.75V815.875H638.805Z" transform="translate(-557.584 -705.308)" fill="#232323"/>
              <rect id="Rectángulo_457279" data-name="Rectángulo 457279" width="16.683" height="7.864" transform="translate(82.852 130.868)" fill="#9fedeb"/>
              <path id="Trazado_1311377" data-name="Trazado 1311377" d="M671.4,978.916H656.085v-6.492H671.4Zm1.371-7.864H654.714v9.235h18.054Z" transform="translate(-572.548 -840.869)" fill="#232323"/>
              <rect id="Rectángulo_457280" data-name="Rectángulo 457280" width="16.683" height="15.651" transform="translate(82.852 112.297)" fill="#9fedeb"/>
              <path id="Trazado_1311378" data-name="Trazado 1311378" d="M671.4,848.174H656.085V833.894H671.4Zm1.371-15.651H654.714v17.022h18.054Z" transform="translate(-572.548 -720.912)" fill="#232323"/>
              <g id="Grupo_1207020" data-name="Grupo 1207020" transform="translate(51.135 106.132)" opacity="0.21" style="mix-blend-mode: multiply;isolation: isolate">
                <g id="Grupo_1207019" data-name="Grupo 1207019">
                  <g id="Grupo_1207018" data-name="Grupo 1207018" clip-path="url(#clip-path-7)">
                    <path id="Trazado_1311379" data-name="Trazado 1311379" d="M483.467,802.1v2.857a3.381,3.381,0,1,1-6.691,0,3.381,3.381,0,1,1-6.691,0,3.381,3.381,0,1,1-6.691,0,3.381,3.381,0,1,1-6.691,0,3.381,3.381,0,1,1-6.691,0,3.381,3.381,0,1,1-6.691,0,3.381,3.381,0,1,1-6.691,0,3.381,3.381,0,1,1-6.691,0,3.381,3.381,0,1,1-6.691,0V802.1l2.952-8.9,8.43,3.926h37.455l5.688-5.467Z" transform="translate(-423.248 -791.657)"/>
                  </g>
                </g>
              </g>
              <path id="Trazado_1311380" data-name="Trazado 1311380" d="M485.376,787.649H479.1l4.4-4.033h5.015Z" transform="translate(-420.481 -678.562)" fill="#fff"/>
              <path id="Trazado_1311381" data-name="Trazado 1311381" d="M480.947,783.905h-6.272a.686.686,0,0,1-.464-1.191l4.4-4.033a.685.685,0,0,1,.463-.18h5.015a.686.686,0,0,1,.541,1.107l-3.141,4.033a.686.686,0,0,1-.541.264m-4.509-1.371h4.174l2.073-2.661h-3.345Z" transform="translate(-416.052 -674.132)" fill="#232323"/>
              <path id="Trazado_1311382" data-name="Trazado 1311382" d="M438.6,787.649h-6.271l5.653-4.033h5.015Z" transform="translate(-379.972 -678.562)" fill="#f1446a"/>
              <path id="Trazado_1311383" data-name="Trazado 1311383" d="M434.166,783.905h-6.271a.686.686,0,0,1-.4-1.244l5.653-4.033a.686.686,0,0,1,.4-.127h5.015a.686.686,0,0,1,.464,1.191l-4.4,4.033a.685.685,0,0,1-.463.18m-4.129-1.371H433.9l2.9-2.661h-3.034Z" transform="translate(-375.543 -674.132)" fill="#232323"/>
              <path id="Trazado_1311384" data-name="Trazado 1311384" d="M578.936,787.649h-6.271l1.884-4.033h5.015Z" transform="translate(-501.498 -678.562)" fill="#fff"/>
              <path id="Trazado_1311385" data-name="Trazado 1311385" d="M574.507,783.905h-6.272a.686.686,0,0,1-.621-.976L569.5,778.9a.685.685,0,0,1,.621-.4h5.015a.686.686,0,0,1,.678.791l-.628,4.033a.685.685,0,0,1-.677.58m-5.194-1.371h4.607l.415-2.661h-3.778Z" transform="translate(-497.069 -674.132)" fill="#232323"/>
              <path id="Trazado_1311386" data-name="Trazado 1311386" d="M532.156,787.649h-6.271l3.141-4.033h5.015Z" transform="translate(-460.989 -678.562)" fill="#f1446a"/>
              <path id="Trazado_1311387" data-name="Trazado 1311387" d="M527.727,783.905h-6.271a.686.686,0,0,1-.541-1.107l3.141-4.033a.686.686,0,0,1,.541-.264h5.015a.686.686,0,0,1,.621.976l-1.885,4.033a.685.685,0,0,1-.621.4m-4.868-1.371h4.432l1.244-2.661h-3.6Z" transform="translate(-456.56 -674.132)" fill="#232323"/>
              <path id="Trazado_1311388" data-name="Trazado 1311388" d="M668.438,787.649h-6.272l-.628-4.033h5.015Z" transform="translate(-578.458 -678.562)" fill="#fff"/>
              <path id="Trazado_1311389" data-name="Trazado 1311389" d="M664.009,783.905h-6.272a.686.686,0,0,1-.678-.58l-.628-4.033a.686.686,0,0,1,.678-.791h5.015a.685.685,0,0,1,.621.4l1.884,4.033a.686.686,0,0,1-.621.976m-5.684-1.371h4.607l-1.244-2.661H657.91Z" transform="translate(-574.029 -674.132)" fill="#232323"/>
              <path id="Trazado_1311390" data-name="Trazado 1311390" d="M625.716,787.649h-6.271l.628-4.033h5.015Z" transform="translate(-542.006 -678.562)" fill="#f1446a"/>
              <path id="Trazado_1311391" data-name="Trazado 1311391" d="M621.287,783.905h-6.271a.686.686,0,0,1-.678-.791l.628-4.033a.685.685,0,0,1,.677-.58h5.015a.686.686,0,0,1,.677.58l.628,4.033a.686.686,0,0,1-.677.791m-5.471-1.371h4.67l-.414-2.661h-3.841Z" transform="translate(-537.578 -674.132)" fill="#232323"/>
              <path id="Trazado_1311392" data-name="Trazado 1311392" d="M707.1,787.649h-6.271l-1.884-4.033h5.015Z" transform="translate(-610.852 -678.562)" fill="#f1446a"/>
              <path id="Trazado_1311393" data-name="Trazado 1311393" d="M702.675,783.905H696.4a.686.686,0,0,1-.621-.4l-1.884-4.033a.686.686,0,0,1,.621-.976h5.015a.685.685,0,0,1,.541.264l3.141,4.033a.686.686,0,0,1-.541,1.107m-5.835-1.371h4.432l-2.073-2.661h-3.6Z" transform="translate(-606.423 -674.132)" fill="#232323"/>
              <path id="Trazado_1311394" data-name="Trazado 1311394" d="M745.769,787.649H739.5l-3.141-4.033h5.015Z" transform="translate(-643.245 -678.562)" fill="#fff"/>
              <path id="Trazado_1311395" data-name="Trazado 1311395" d="M741.34,783.905h-6.272a.686.686,0,0,1-.541-.264l-3.141-4.033a.686.686,0,0,1,.541-1.107h5.015a.685.685,0,0,1,.463.18l4.4,4.033a.686.686,0,0,1-.463,1.191m-5.936-1.371h4.174l-2.9-2.661h-3.345Z" transform="translate(-638.816 -674.132)" fill="#232323"/>
              <path id="Trazado_1311396" data-name="Trazado 1311396" d="M784.435,787.649h-6.272l-4.4-4.033h5.015Z" transform="translate(-675.64 -678.562)" fill="#f1446a"/>
              <path id="Trazado_1311397" data-name="Trazado 1311397" d="M780.005,783.905h-6.271a.686.686,0,0,1-.464-.18l-4.4-4.033a.686.686,0,0,1,.463-1.191h5.015a.686.686,0,0,1,.4.127l5.653,4.033a.686.686,0,0,1-.4,1.244m-6-1.371h3.863l-3.731-2.661H771.1Z" transform="translate(-671.21 -674.132)" fill="#232323"/>
              <path id="Trazado_1311398" data-name="Trazado 1311398" d="M482.24,819.149h0a3.136,3.136,0,0,1-3.136-3.136V813.7h6.271v2.314a3.136,3.136,0,0,1-3.136,3.136" transform="translate(-420.48 -704.611)" fill="#daf0f0"/>
              <path id="Trazado_1311399" data-name="Trazado 1311399" d="M477.811,815.405a3.826,3.826,0,0,1-3.821-3.822V809.27a.686.686,0,0,1,.686-.686h6.271a.686.686,0,0,1,.686.686v2.314a3.826,3.826,0,0,1-3.821,3.822m-2.45-5.45v1.628a2.45,2.45,0,1,0,4.9,0v-1.628Z" transform="translate(-416.052 -700.182)" fill="#232323"/>
              <path id="Trazado_1311400" data-name="Trazado 1311400" d="M435.46,819.149h0a3.136,3.136,0,0,1-3.136-3.136V813.7H438.6v2.314a3.136,3.136,0,0,1-3.136,3.136" transform="translate(-379.972 -704.611)" fill="#d43b5e"/>
              <path id="Trazado_1311401" data-name="Trazado 1311401" d="M431.031,815.405a3.826,3.826,0,0,1-3.821-3.822V809.27a.686.686,0,0,1,.686-.686h6.272a.686.686,0,0,1,.686.686v2.314a3.826,3.826,0,0,1-3.821,3.822m-2.45-5.45v1.628a2.45,2.45,0,1,0,4.9,0v-1.628Z" transform="translate(-375.544 -700.182)" fill="#232323"/>
              <path id="Trazado_1311402" data-name="Trazado 1311402" d="M575.8,819.149h0a3.136,3.136,0,0,1-3.136-3.136V813.7h6.272v2.314a3.136,3.136,0,0,1-3.136,3.136" transform="translate(-501.498 -704.611)" fill="#daf0f0"/>
              <path id="Trazado_1311403" data-name="Trazado 1311403" d="M571.371,815.405a3.826,3.826,0,0,1-3.821-3.822V809.27a.686.686,0,0,1,.686-.686h6.272a.686.686,0,0,1,.686.686v2.314a3.826,3.826,0,0,1-3.821,3.822m-2.45-5.45v1.628a2.45,2.45,0,1,0,4.9,0v-1.628Z" transform="translate(-497.069 -700.182)" fill="#232323"/>
              <path id="Trazado_1311404" data-name="Trazado 1311404" d="M529.02,819.149h0a3.136,3.136,0,0,1-3.136-3.136V813.7h6.271v2.314a3.136,3.136,0,0,1-3.136,3.136" transform="translate(-460.989 -704.611)" fill="#d43b5e"/>
              <path id="Trazado_1311405" data-name="Trazado 1311405" d="M524.591,815.405a3.826,3.826,0,0,1-3.821-3.822V809.27a.686.686,0,0,1,.685-.686h6.272a.686.686,0,0,1,.686.686v2.314a3.826,3.826,0,0,1-3.821,3.822m-2.45-5.45v1.628a2.45,2.45,0,1,0,4.9,0v-1.628Z" transform="translate(-456.561 -700.182)" fill="#232323"/>
              <path id="Trazado_1311406" data-name="Trazado 1311406" d="M669.361,819.149h0a3.136,3.136,0,0,1-3.136-3.136V813.7H672.5v2.314a3.136,3.136,0,0,1-3.136,3.136" transform="translate(-582.516 -704.611)" fill="#daf0f0"/>
              <path id="Trazado_1311407" data-name="Trazado 1311407" d="M664.931,815.405a3.826,3.826,0,0,1-3.821-3.822V809.27a.686.686,0,0,1,.686-.686h6.272a.686.686,0,0,1,.686.686v2.314a3.826,3.826,0,0,1-3.821,3.822m-2.45-5.45v1.628a2.45,2.45,0,1,0,4.9,0v-1.628Z" transform="translate(-578.086 -700.182)" fill="#232323"/>
              <path id="Trazado_1311408" data-name="Trazado 1311408" d="M622.581,819.149h0a3.136,3.136,0,0,1-3.136-3.136V813.7h6.271v2.314a3.136,3.136,0,0,1-3.136,3.136" transform="translate(-542.007 -704.611)" fill="#d43b5e"/>
              <path id="Trazado_1311409" data-name="Trazado 1311409" d="M618.151,815.405a3.826,3.826,0,0,1-3.821-3.822V809.27a.686.686,0,0,1,.686-.686h6.271a.686.686,0,0,1,.686.686v2.314a3.826,3.826,0,0,1-3.821,3.822m-2.45-5.45v1.628a2.45,2.45,0,1,0,4.9,0v-1.628Z" transform="translate(-537.578 -700.182)" fill="#232323"/>
              <path id="Trazado_1311410" data-name="Trazado 1311410" d="M716.141,819.149h0a3.136,3.136,0,0,1-3.136-3.136V813.7h6.271v2.314a3.136,3.136,0,0,1-3.136,3.136" transform="translate(-623.024 -704.611)" fill="#d43b5e"/>
              <path id="Trazado_1311411" data-name="Trazado 1311411" d="M711.712,815.405a3.826,3.826,0,0,1-3.821-3.822V809.27a.686.686,0,0,1,.686-.686h6.271a.686.686,0,0,1,.686.686v2.314a3.826,3.826,0,0,1-3.821,3.822m-2.45-5.45v1.628a2.45,2.45,0,1,0,4.9,0v-1.628Z" transform="translate(-618.596 -700.182)" fill="#232323"/>
              <path id="Trazado_1311412" data-name="Trazado 1311412" d="M762.921,819.149h0a3.136,3.136,0,0,1-3.136-3.136V813.7h6.271v2.314a3.136,3.136,0,0,1-3.136,3.136" transform="translate(-663.532 -704.611)" fill="#daf0f0"/>
              <path id="Trazado_1311413" data-name="Trazado 1311413" d="M758.492,815.405a3.826,3.826,0,0,1-3.821-3.822V809.27a.686.686,0,0,1,.685-.686h6.272a.686.686,0,0,1,.686.686v2.314a3.826,3.826,0,0,1-3.821,3.822m-2.45-5.45v1.628a2.45,2.45,0,1,0,4.9,0v-1.628Z" transform="translate(-659.104 -700.182)" fill="#232323"/>
              <path id="Trazado_1311414" data-name="Trazado 1311414" d="M809.7,819.149h0a3.136,3.136,0,0,1-3.136-3.136V813.7h6.271v2.314a3.136,3.136,0,0,1-3.136,3.136" transform="translate(-704.041 -704.611)" fill="#d43b5e"/>
              <path id="Trazado_1311415" data-name="Trazado 1311415" d="M805.272,815.405a3.826,3.826,0,0,1-3.821-3.822V809.27a.686.686,0,0,1,.686-.686h6.271a.686.686,0,0,1,.686.686v2.314a3.826,3.826,0,0,1-3.821,3.822m-2.45-5.45v1.628a2.45,2.45,0,1,0,4.9,0v-1.628Z" transform="translate(-699.613 -700.182)" fill="#232323"/>
              <path id="Trazado_1311416" data-name="Trazado 1311416" d="M531.561,894.439a.686.686,0,0,1-.572-1.063l2.781-4.229a.686.686,0,1,1,1.146.754l-2.781,4.229a.685.685,0,0,1-.574.309" transform="translate(-465.312 -769.678)" fill="#232323"/>
              <path id="Trazado_1311417" data-name="Trazado 1311417" d="M555.4,894.439a.686.686,0,0,1-.572-1.063l2.781-4.229a.686.686,0,1,1,1.146.754l-2.781,4.229a.685.685,0,0,1-.574.309" transform="translate(-485.957 -769.678)" fill="#232323"/>
              <path id="Trazado_1311418" data-name="Trazado 1311418" d="M695.767,894.439a.686.686,0,0,1-.572-1.063l2.781-4.229a.686.686,0,0,1,1.146.754l-2.781,4.229a.685.685,0,0,1-.573.309" transform="translate(-607.504 -769.678)" fill="#232323"/>
              <path id="Trazado_1311419" data-name="Trazado 1311419" d="M719.608,894.439a.686.686,0,0,1-.572-1.063l2.781-4.229a.686.686,0,1,1,1.146.754l-2.781,4.229a.685.685,0,0,1-.574.309" transform="translate(-628.149 -769.678)" fill="#232323"/>
              <path id="Trazado_1311420" data-name="Trazado 1311420" d="M725.641,313.217a.686.686,0,0,1-.686-.686v-1.867a.686.686,0,0,1,1.371,0v1.867a.686.686,0,0,1-.686.686" transform="translate(-633.372 -268.422)" fill="#fff"/>
              <path id="Trazado_1311421" data-name="Trazado 1311421" d="M725.641,296.031a.686.686,0,0,1-.686-.686v-.381a.686.686,0,0,1,1.371,0v.381a.686.686,0,0,1-.686.686" transform="translate(-633.372 -254.826)" fill="#fff"/>
              <path id="Trazado_1311422" data-name="Trazado 1311422" d="M343.083,248.118h-4.3v-4.88h4.3Zm-2.924-1.371h1.552v-2.137h-1.552Z" transform="translate(-298.976 -210.628)" fill="#232323"/>
              <path id="Trazado_1311423" data-name="Trazado 1311423" d="M346.007,344.7h-7.219v-4.88h7.219Zm-5.848-1.371h4.476v-2.137h-4.476Z" transform="translate(-298.976 -294.265)" fill="#232323"/>
              <path id="Trazado_1311424" data-name="Trazado 1311424" d="M343.083,441.287h-4.3v-4.88h4.3Zm-2.924-1.371h1.552v-2.137h-1.552Z" transform="translate(-298.976 -377.9)" fill="#232323"/>
              <path id="Trazado_1311425" data-name="Trazado 1311425" d="M346.007,537.871h-7.219v-4.88h7.219Zm-5.848-1.372h4.476v-2.137h-4.476Z" transform="translate(-298.976 -461.536)" fill="#232323"/>
              <path id="Trazado_1311426" data-name="Trazado 1311426" d="M343.083,634.455h-4.3v-4.88h4.3Zm-2.924-1.372h1.552v-2.137h-1.552Z" transform="translate(-298.976 -545.172)" fill="#232323"/>
              <path id="Trazado_1311427" data-name="Trazado 1311427" d="M346.007,731.04h-7.219v-4.88h7.219Zm-5.848-1.372h4.476v-2.137h-4.476Z" transform="translate(-298.976 -628.808)" fill="#232323"/>
              <path id="Trazado_1311428" data-name="Trazado 1311428" d="M343.083,827.624h-4.3v-4.88h4.3Zm-2.924-1.372h1.552v-2.137h-1.552Z" transform="translate(-298.976 -712.444)" fill="#232323"/>
              <path id="Trazado_1311429" data-name="Trazado 1311429" d="M346.007,924.208h-7.219v-4.88h7.219Zm-5.848-1.372h4.476V920.7h-4.476Z" transform="translate(-298.976 -796.08)" fill="#232323"/>
              <path id="Trazado_1311430" data-name="Trazado 1311430" d="M348.928,950.379H338.789V945.5h10.139Zm-8.768-1.372h7.4V946.87h-7.4Z" transform="translate(-298.976 -818.742)" fill="#232323"/>
              <path id="Trazado_1311431" data-name="Trazado 1311431" d="M919.137,248.118h-4.3v-4.88h4.3Zm-2.924-1.371h1.552v-2.137h-1.552Z" transform="translate(-797.802 -210.628)" fill="#232323"/>
              <path id="Trazado_1311432" data-name="Trazado 1311432" d="M900.253,344.7h-7.219v-4.88h7.219Zm-5.848-1.371h4.476v-2.137h-4.476Z" transform="translate(-778.918 -294.265)" fill="#232323"/>
              <path id="Trazado_1311433" data-name="Trazado 1311433" d="M919.137,441.287h-4.3v-4.88h4.3Zm-2.924-1.371h1.552v-2.137h-1.552Z" transform="translate(-797.802 -377.9)" fill="#232323"/>
              <path id="Trazado_1311434" data-name="Trazado 1311434" d="M900.253,537.871h-7.219v-4.88h7.219Zm-5.848-1.372h4.476v-2.137h-4.476Z" transform="translate(-778.918 -461.536)" fill="#232323"/>
              <path id="Trazado_1311435" data-name="Trazado 1311435" d="M919.137,634.455h-4.3v-4.88h4.3Zm-2.924-1.372h1.552v-2.137h-1.552Z" transform="translate(-797.802 -545.172)" fill="#232323"/>
              <path id="Trazado_1311436" data-name="Trazado 1311436" d="M900.253,731.04h-7.219v-4.88h7.219Zm-5.848-1.372h4.476v-2.137h-4.476Z" transform="translate(-778.918 -628.808)" fill="#232323"/>
              <path id="Trazado_1311437" data-name="Trazado 1311437" d="M900.253,827.624h-7.219v-4.88h7.219Zm-5.848-1.372h4.476v-2.137h-4.476Z" transform="translate(-778.918 -712.444)" fill="#232323"/>
              <path id="Trazado_1311438" data-name="Trazado 1311438" d="M882.906,924.208H873v-4.88h9.9Zm-8.533-1.372h7.162V920.7h-7.162Z" transform="translate(-761.571 -796.08)" fill="#232323"/>
              <path id="Trazado_1311439" data-name="Trazado 1311439" d="M912.433,950.379H907.1V945.5h5.333Zm-3.962-1.372h2.59V946.87h-2.59Z" transform="translate(-791.098 -818.742)" fill="#232323"/>
              <path id="Trazado_1311440" data-name="Trazado 1311440" d="M416.537,201.417H404.877a.686.686,0,1,1,0-1.371h11.661a.686.686,0,1,1,0,1.371" transform="translate(-355.611 -173.227)" fill="#232323"/>
              <path id="Trazado_1311441" data-name="Trazado 1311441" d="M410.127,223.582h-5.251a.686.686,0,0,1,0-1.371h5.251a.686.686,0,1,1,0,1.371" transform="translate(-355.611 -192.42)" fill="#232323"/>
              <path id="Trazado_1311442" data-name="Trazado 1311442" d="M761.627,201.417h-6.271a.686.686,0,1,1,0-1.371h6.271a.686.686,0,1,1,0,1.371" transform="translate(-659.103 -173.227)" fill="#232323"/>
              <path id="Trazado_1311443" data-name="Trazado 1311443" d="M825.79,201.417h-2.4a.686.686,0,1,1,0-1.371h2.4a.686.686,0,1,1,0,1.371" transform="translate(-718.016 -173.227)" fill="#232323"/>
              <path id="Trazado_1311444" data-name="Trazado 1311444" d="M502.333,747.435h-8.156a.686.686,0,0,1,0-1.372h8.156a.686.686,0,0,1,0,1.372" transform="translate(-432.939 -646.044)" fill="#232323"/>
              <path id="Trazado_1311445" data-name="Trazado 1311445" d="M579.023,747.435h-3.131a.686.686,0,0,1,0-1.372h3.131a.686.686,0,0,1,0,1.372" transform="translate(-503.699 -646.044)" fill="#232323"/>
              <path id="Trazado_1311446" data-name="Trazado 1311446" d="M642.727,747.435H619.651a.686.686,0,0,1,0-1.372h23.077a.686.686,0,0,1,0,1.372" transform="translate(-541.591 -646.044)" fill="#232323"/>
              <path id="Trazado_1311447" data-name="Trazado 1311447" d="M527.4,482.163h-5.942a.686.686,0,1,1,0-1.371H527.4a.686.686,0,1,1,0,1.371" transform="translate(-456.56 -416.335)" fill="#232323"/>
              <path id="Trazado_1311448" data-name="Trazado 1311448" d="M474.4,0V4.357h4.431V0H480.6V10.17H478.83V5.81H474.4v4.36h-1.772V0Z" transform="translate(-414.871 0.004)" fill="#232323"/>
              <path id="Trazado_1311449" data-name="Trazado 1311449" d="M553.755,7.626q0,2.543-3.1,2.544h-2.215q-3.1,0-3.1-2.544V2.539q0-2.543,3.1-2.544h2.215q3.1,0,3.1,2.544Zm-6.646,0q0,1.09,1.329,1.09h2.215q1.329,0,1.329-1.09V2.539q0-1.09-1.329-1.09h-2.215q-1.329,0-1.329,1.09Z" transform="translate(-477.834 0.005)" fill="#232323"/>
              <path id="Trazado_1311450" data-name="Trazado 1311450" d="M629.328,0V1.449h-3.1V10.17h-1.772V1.449h-3.1V0Z" transform="translate(-543.659 0.004)" fill="#232323"/>
              <path id="Trazado_1311451" data-name="Trazado 1311451" d="M701.152,4.357V5.81h-5.317V8.717h5.317V10.17h-7.089V0h7.089V1.449h-5.317V4.357Z" transform="translate(-606.621 0.004)" fill="#232323"/>
              <path id="Trazado_1311452" data-name="Trazado 1311452" d="M761.935,8.717h5.317V10.17h-7.089V0h1.772Z" transform="translate(-663.859 0.004)" fill="#232323"/>
              <path id="Trazado_1311453" data-name="Trazado 1311453" d="M418.459,34.2h-3.841a.686.686,0,1,1,0-1.371h3.841a.686.686,0,1,1,0,1.371" transform="translate(-364.046 -28.427)" fill="#232323"/>
              <path id="Trazado_1311454" data-name="Trazado 1311454" d="M826.479,34.2h-3.841a.686.686,0,1,1,0-1.371h3.841a.686.686,0,1,1,0,1.371" transform="translate(-717.366 -28.427)" fill="#232323"/>
              <path id="Trazado_1311455" data-name="Trazado 1311455" d="M55.509,1072.069H48.5a.686.686,0,1,1,0-1.371h7.009a.686.686,0,1,1,0,1.371" transform="translate(-47.01 -927.157)" fill="#232323"/>
              <path id="Trazado_1311456" data-name="Trazado 1311456" d="M198.214,1072.069H141.7a.686.686,0,1,1,0-1.371h56.513a.686.686,0,1,1,0,1.371" transform="translate(-127.718 -927.157)" fill="#232323"/>
              <path id="Trazado_1311457" data-name="Trazado 1311457" d="M688.853,1072.069H605.335a.686.686,0,1,1,0-1.371h83.518a.686.686,0,1,1,0,1.371" transform="translate(-529.195 -927.157)" fill="#232323"/>
              <path id="Trazado_1311458" data-name="Trazado 1311458" d="M846.161,1105.031H816.208a.686.686,0,0,1,0-1.372h29.953a.686.686,0,0,1,0,1.372" transform="translate(-711.797 -955.699)" fill="#232323"/>
              <path id="Trazado_1311459" data-name="Trazado 1311459" d="M320.231,1105.031H249.86a.686.686,0,0,1,0-1.372h70.371a.686.686,0,0,1,0,1.372" transform="translate(-221.376 -955.699)" fill="#232323"/>
            </g>
          </g>
        </g>
      </g>
    </g>
  </g>
</svg>
