<svg xmlns="http://www.w3.org/2000/svg" xmlns:xlink="http://www.w3.org/1999/xlink" width="366.982" height="310.988" viewBox="0 0 366.982 310.988">
  <defs>
    <clipPath id="clip-path">
      <rect id="Rectángulo_456749" data-name="Rectángulo 456749" width="366.982" height="310.988" fill="none"/>
    </clipPath>
  </defs>
  <g id="Grupo_1207588" data-name="Grupo 1207588" transform="translate(-270.34 -7553.515)">
    <g id="Grupo_1206599" data-name="Grupo 1206599" transform="translate(270.34 7553.515)">
      <g id="Grupo_1206598" data-name="Grupo 1206598" clip-path="url(#clip-path)">
        <path id="Trazado_1295543" data-name="Trazado 1295543" d="M139.991,258.985A128.38,128.38,0,1,1,299.008,171.37a128.381,128.381,0,0,1-159.017,87.615" fill="#d7f2f9"/>
        <path id="Trazado_1295544" data-name="Trazado 1295544" d="M173.577,237.929a7.278,7.278,0,0,0,5.377-4.192c2.017-4.994-3.985-7.044-6.352-10.784-2.5-3.944-.551-8.849,2-13A3.155,3.155,0,1,0,169,207.1c-2.477,5.889-6.267,11.4-12.324,11.655-2.572.109-5.053-.833-7.54-1.495-12.719-3.382-28.335-.246-37.455-9.734-4.54-4.722-6.433-11.843-11.869-15.5-4.448-2.99-10.787-3.258-12.641-9.473a10.506,10.506,0,0,1,2.614-10.064c5.133-5.525,12.847-5.9,19.933-5.377,7.123.524,14.349,1.772,21.341.314s13.882-6.525,14.72-13.618c.477-4.038-.953-8.548,1.267-11.955,4.014-6.158,14.263-1.8,20.593-5.537,2.565-1.513,4.312-4.3,7.1-5.34,3.282-1.221,6.879.342,10.027,1.874,4.668,2.272,9.684,4.89,11.83,9.617,1.411,3.108,1.351,6.7,2.595,9.882,2.666,6.81,10.619,10.282,13.711,16.909,4.026,8.63-1.576,18.465-6.964,26.317l-6.8,9.908a12.553,12.553,0,0,0-1.528,11.623c4.477,11.4,20.329,4.043,29.048,10.383,1.8,1.31,3.333,3.233,5.932,2.787a5.013,5.013,0,0,0,3.776-6.417c-1.421-5.067-6.873-6.477-11.626-6.41-4.968.071-10.077,1.253-14.7-1.308a7.211,7.211,0,0,1-3.863-5.644c-.4-5.4,5.941-6.8,7.429-11.1.568-1.642.359-3.564,1.338-5,1.3-1.9,3.974-2.054,6.162-2.776a10.8,10.8,0,0,0,7.005-9.641c-.738-2.356-1.652-4.66-.3-6.552a4.637,4.637,0,0,1,4.763-1.477,13.623,13.623,0,0,1,4.665,2.407l6.8,4.714c2.7,1.87,5.609,4.055,6.247,7.274.615,3.107-1,6.78.966,9.267.916,1.16,2.4,1.708,3.5,2.69,3.31,2.943,2.146,8.308.5,12.421q-1.216,3.047-2.587,6.027a13.124,13.124,0,0,1-1.836,3.129c-1.489,3.123-2.864,6.327-2.015,9.574,1.111,4.249,8.941,5.29,9.062.9-3.848-6.858,2.8-14.762,9.048-19.544,1.855-1.421,4.034-2.893,6.332-2.47a4,4,0,0,1,2.216,6.146s-28.915,51.12-109.357,47.226c-10.026-.485-1.621-23.848,7.454-25.789M203.163,9.772c-4.941-1.2-8.925,4.4-10.146,9.335s-1.372,10.543-4.869,14.236c-2.177,2.3-5.29,3.417-7.937,5.154s-5.026,4.71-4.317,7.8a7.939,7.939,0,0,1,.565,2.757c-.321,2.357-3.641,2.537-5.611,3.87-2.782,1.882-2.769,6.248-5.379,8.363-1.72,1.393-4.116,1.447-6.311,1.725-6.407.812-12.586,4.051-18.994,3.248-4.234-.53-8.024-2.775-11.952-4.444s-8.513-2.76-12.386-.967c-6.263,2.9-7.2,11.15-8.7,17.887a4.735,4.735,0,0,1-1.109,2.464c-1.33,1.284-3.5.72-5.326.99-4.826.713-6.37,7.626-3.739,11.735s7.572,5.979,12.177,7.592l26.783,9.378c2.749.963,5.894,1.9,8.457.519,2.052-1.107,3.112-3.389,4.508-5.257a15.244,15.244,0,0,1,7.68-5.407c2.462-.755,5.081-.872,7.557-1.581,8.523-2.441,13.82-12.237,12.205-20.954-1.356-7.328-6.735-14.512-4.218-21.527a3.443,3.443,0,0,1,1.969-2.313c1.2-.362,2.479.435,3.724.266,3-.407,2.583-4.832,3.687-7.651,1.428-3.643,5.94-4.744,9.078-7.082,2.327-1.733,3.966-4.252,6.256-6.033s5.8-2.646,7.985-.738c3.8,3.318-.524,10.04,1.838,14.5,1.669,3.147,5.8,3.745,9.273,4.532s7.5,3.18,6.995,6.706c-.348,2.432-2.773,4.03-3.651,6.326A5.293,5.293,0,1,0,229.294,68.5c.567-2.04-.113-4.293.572-6.3s2.661-3.6,2.5-5.7c-.1-1.223-.914-2.246-1.478-3.336a8.431,8.431,0,1,1,15.832-5.087,4.971,4.971,0,0,0,.608,2.295c1.08,1.475,3.482.692,4.778-.6s2.379-3.045,4.17-3.411c3.086-.63,5.013,3.059,6.768,5.674a9.562,9.562,0,0,0,5.074,4.049c2.123.61,4.915-.826,6.211-2.615,0,0-22.5-31.865-71.165-43.705m-66.626,140.45c1.065-1.151.83-2.992.231-4.441-2.419-5.85-9.3-12.83-16.119-11.624a11.8,11.8,0,0,0-8.752,7.456c-.866,2.334-1.154,5.133-3.14,6.633-1.155.873-2.787,1.2-3.529,2.444a3.121,3.121,0,0,0,.286,3.3,6.232,6.232,0,0,0,2.806,2.028,12.893,12.893,0,0,0,10.228-.234c3.764-1.757,6.952-5.42,11.1-5.22,2.2.1,4.779,1.2,6.451.034a2.706,2.706,0,0,0,.436-.381m128.219,51.652a2.75,2.75,0,0,0,2.842,1.82,3.15,3.15,0,0,0,2.609-2.247c.475-1.645-.316-3.61.649-5.024a9.327,9.327,0,0,1,1.564-1.44c1.392-1.278,1.9-3.23,2.335-5.068s.855-3.845.013-5.53c-.885-1.769-4.037-3.87-5.984-2.67a13.161,13.161,0,0,0-2.817,2.913c-.726.872-1.486,1.715-2.245,2.558-2,2.218-5.5,5.706-2.207,8.376.978.794,2.359,1.258,2.915,2.476s-.06,2.587.326,3.836" fill="#b3c2a2"/>
        <path id="Trazado_1295545" data-name="Trazado 1295545" d="M233.309,308.542H118.623a10.491,10.491,0,0,1-10.492-10.492V78.212A10.491,10.491,0,0,1,118.623,67.72H233.309A10.491,10.491,0,0,1,243.8,78.212V298.05a10.491,10.491,0,0,1-10.492,10.492" fill="#9ad4e3"/>
        <path id="Trazado_1295546" data-name="Trazado 1295546" d="M233.308,310.179H118.622a12.142,12.142,0,0,1-12.128-12.129V78.212a12.141,12.141,0,0,1,12.128-12.128H233.308a12.142,12.142,0,0,1,12.129,12.128V298.05a12.143,12.143,0,0,1-12.129,12.129M118.622,69.357a8.866,8.866,0,0,0-8.855,8.855V298.05a8.866,8.866,0,0,0,8.855,8.856H233.308a8.866,8.866,0,0,0,8.856-8.856V78.212a8.866,8.866,0,0,0-8.856-8.855Z" fill="#114449"/>
        <path id="Trazado_1295547" data-name="Trazado 1295547" d="M187.58,76.94H164.351a1.637,1.637,0,1,1,0-3.273H187.58a1.637,1.637,0,1,1,0,3.273" fill="#114449"/>
        <path id="Trazado_1295548" data-name="Trazado 1295548" d="M161.055,302.82a3.879,3.879,0,1,1,2.742-1.136,3.853,3.853,0,0,1-2.742,1.136m0-7.063a3.185,3.185,0,1,0,2.251.933,3.16,3.16,0,0,0-2.251-.933" fill="#114449"/>
        <path id="Trazado_1295549" data-name="Trazado 1295549" d="M165.857,304.091a.347.347,0,0,1-.246-.1l-2.3-2.305a.347.347,0,0,1,.491-.491l2.3,2.3a.346.346,0,0,1,0,.491.343.343,0,0,1-.245.1" fill="#114449"/>
        <path id="Trazado_1295550" data-name="Trazado 1295550" d="M176.014,303.933a.318.318,0,0,1-.185-.059c-.186-.13-4.538-3.224-4.861-5.813a2.347,2.347,0,0,1,.6-1.855,2.969,2.969,0,0,1,2.2-.985,2.81,2.81,0,0,1,2.541,1.624.322.322,0,0,1-.584.271,2.163,2.163,0,0,0-1.957-1.25,2.316,2.316,0,0,0-1.714.766,1.7,1.7,0,0,0-.443,1.349c.287,2.307,4.549,5.336,4.591,5.366a.322.322,0,0,1-.185.586" fill="#114449"/>
        <path id="Trazado_1295551" data-name="Trazado 1295551" d="M176.014,303.933a.322.322,0,0,1-.188-.584c.042-.03,4.227-3.063,4.6-5.378a1.6,1.6,0,0,0-.4-1.3,2.373,2.373,0,0,0-1.763-.8,2.162,2.162,0,0,0-1.956,1.25.322.322,0,0,1-.584-.271,2.81,2.81,0,0,1,2.54-1.624,3.035,3.035,0,0,1,2.253,1.03,2.238,2.238,0,0,1,.543,1.821c-.411,2.58-4.675,5.67-4.856,5.8a.322.322,0,0,1-.188.061" fill="#114449"/>
        <path id="Trazado_1295552" data-name="Trazado 1295552" d="M194.407,303.057a.323.323,0,0,1-.286-.174l-.981-1.9v-3.4a2.366,2.366,0,0,0-4.732,0v3.4l-.981,1.9a.322.322,0,0,1-.573-.3l.91-1.763v-3.249a3.01,3.01,0,1,1,6.02,0v3.249l.909,1.763a.322.322,0,0,1-.138.434.329.329,0,0,1-.148.036" fill="#114449"/>
        <path id="Trazado_1295553" data-name="Trazado 1295553" d="M190.956,304.589h-.393a1.856,1.856,0,0,1-1.853-1.854.322.322,0,0,1,.644,0,1.21,1.21,0,0,0,1.209,1.209h.393a1.211,1.211,0,0,0,1.209-1.209.322.322,0,0,1,.644,0,1.856,1.856,0,0,1-1.853,1.854" fill="#114449"/>
        <rect id="Rectángulo_456734" data-name="Rectángulo 456734" width="119.298" height="205.065" transform="translate(116.316 85.703)" fill="#fff"/>
        <path id="Trazado_1295554" data-name="Trazado 1295554" d="M227.463,96.989H214.382V90.111h13.081ZM215.19,96.18h11.464V90.919H215.19Z" fill="#114449"/>
        <rect id="Rectángulo_456735" data-name="Rectángulo 456735" width="0.808" height="3.035" transform="translate(213.1 92.032)" fill="#114449"/>
        <rect id="Rectángulo_456736" data-name="Rectángulo 456736" width="0.808" height="3.035" transform="translate(227.936 92.032)" fill="#114449"/>
        <path id="Trazado_1295555" data-name="Trazado 1295555" d="M204.738,243.33H147.193a10.305,10.305,0,0,1,0-20.61h57.545a10.305,10.305,0,0,1,0,20.61" fill="#9ad4e3"/>
        <path id="Trazado_1295556" data-name="Trazado 1295556" d="M226.941,186.718l-71.077.116a3.544,3.544,0,0,1-3.55-3.538l-.068-42.04a3.543,3.543,0,0,1,3.538-3.55l71.077-.116a3.545,3.545,0,0,1,3.55,3.538l.068,42.04a3.544,3.544,0,0,1-3.538,3.55" fill="#e1f1f4"/>
        <path id="Trazado_1295557" data-name="Trazado 1295557" d="M149.05,186.845l-23.979.039a3.544,3.544,0,0,1-3.55-3.538l-.069-42.04a3.545,3.545,0,0,1,3.539-3.55l23.979-.039a3.545,3.545,0,0,1,3.55,3.538l.068,42.04a3.544,3.544,0,0,1-3.538,3.55" fill="#9ad4e3"/>
        <path id="Trazado_1295558" data-name="Trazado 1295558" d="M151.978,141.09l-.321,2.23a.359.359,0,0,0,.337.376.366.366,0,0,0,.375-.337l.321-2.231a.357.357,0,0,0-.337-.375.367.367,0,0,0-.375.337" fill="#114449"/>
        <path id="Trazado_1295559" data-name="Trazado 1295559" d="M152.034,145.877l0,1.912a.357.357,0,1,0,.712.038l0-1.912a.357.357,0,0,0-.712-.038" fill="#114449"/>
        <path id="Trazado_1295560" data-name="Trazado 1295560" d="M152.042,151.295q0,1.116,0,2.231a.357.357,0,1,0,.712.038q0-1.116,0-2.231a.357.357,0,1,0-.712-.038" fill="#114449"/>
        <path id="Trazado_1295561" data-name="Trazado 1295561" d="M151.732,156.394l0,1.593a.357.357,0,1,0,.712.039l0-1.594a.357.357,0,0,0-.712-.038" fill="#114449"/>
        <path id="Trazado_1295562" data-name="Trazado 1295562" d="M151.739,160.855l0,1.912a.357.357,0,1,0,.712.038q0-.955,0-1.912a.357.357,0,0,0-.712-.038" fill="#114449"/>
        <path id="Trazado_1295563" data-name="Trazado 1295563" d="M151.748,166.273l0,1.593a.357.357,0,1,0,.712.039l0-1.594a.357.357,0,0,0-.712-.038" fill="#114449"/>
        <path id="Trazado_1295564" data-name="Trazado 1295564" d="M151.757,171.371q0,.638,0,1.275a.357.357,0,1,0,.712.038q0-.638,0-1.275a.357.357,0,1,0-.712-.038" fill="#114449"/>
        <path id="Trazado_1295565" data-name="Trazado 1295565" d="M151.555,175.763c-.056-.078.013.022.022.037s.033.054.048.082a1.7,1.7,0,0,1,.087.183c.008.02.05.091.006.012a.565.565,0,0,1,.033.1c.017.061.031.123.042.185.006.031.011.062.015.094s.027.116,0,.026a.746.746,0,0,1,0,.189,1.7,1.7,0,0,1-.016.189l-.008.054c.009-.047.009-.05,0-.011s-.017.07-.026.1a.356.356,0,1,0,.678.22,2.233,2.233,0,0,0-.363-1.951.358.358,0,0,0-.5-.021.367.367,0,0,0-.021.5" fill="#114449"/>
        <path id="Trazado_1295566" data-name="Trazado 1295566" d="M152.088,179.019l0,1.593a.357.357,0,1,0,.712.039l0-1.594a.357.357,0,0,0-.712-.038" fill="#114449"/>
        <path id="Trazado_1295567" data-name="Trazado 1295567" d="M152.077,182.947l.327.953a.382.382,0,0,0,.155.224.356.356,0,0,0,.493-.107.343.343,0,0,0,.048-.269q-.164-.477-.326-.953a.389.389,0,0,0-.156-.224.358.358,0,0,0-.493.107.348.348,0,0,0-.048.269" fill="#114449"/>
        <path id="Trazado_1295568" data-name="Trazado 1295568" d="M140.027,152.085c.009,6.3-1.324,18.369-2.994,18.371s-3.043-12.062-3.053-18.361,1.342-7.926,3.01-7.928,3.026,1.619,3.037,7.918" fill="#114449"/>
        <path id="Trazado_1295569" data-name="Trazado 1295569" d="M135.064,150.022l-9.757,5.08a2.493,2.493,0,0,0-1.343,2.218v.795l11.636-2.7Z" fill="#114449"/>
        <path id="Trazado_1295570" data-name="Trazado 1295570" d="M138.936,150.015l9.774,5.048a2.493,2.493,0,0,1,1.35,2.213l0,.8-11.646-2.659Z" fill="#114449"/>
        <path id="Trazado_1295571" data-name="Trazado 1295571" d="M135.71,165.55l-3.732,3.433a2.256,2.256,0,0,0-.729,1.663l0,.839,5.5-2.973Z" fill="#114449"/>
        <path id="Trazado_1295572" data-name="Trazado 1295572" d="M138.341,165.546l3.744,3.421a2.254,2.254,0,0,1,.733,1.66l0,.839-5.508-2.955Z" fill="#114449"/>
        <path id="Trazado_1295573" data-name="Trazado 1295573" d="M142.461,176.77l-10.835.018a1.168,1.168,0,0,1,0-2.337l10.835-.018a1.169,1.169,0,1,1,0,2.337" fill="#fff"/>
        <path id="Trazado_1295574" data-name="Trazado 1295574" d="M145.181,181.643l-16.258.027a1.169,1.169,0,1,1,0-2.337l16.258-.027a1.169,1.169,0,1,1,0,2.337" fill="#fff"/>
        <path id="Trazado_1295575" data-name="Trazado 1295575" d="M222.846,160a3.367,3.367,0,0,1-.721.078l-60.911.1a3.4,3.4,0,0,1-3.4-3.394l-.016-9.658a3.4,3.4,0,0,1,3.394-3.4l60.911-.1a3.4,3.4,0,0,1,3.4,3.393l.015,9.658A3.405,3.405,0,0,1,222.846,160m-62.206-15.4a2.591,2.591,0,0,0-2.033,2.53l.016,9.658a2.586,2.586,0,0,0,2.589,2.58l60.911-.1a2.586,2.586,0,0,0,2.581-2.589l-.016-9.658a2.585,2.585,0,0,0-2.589-2.581l-60.911.1a2.542,2.542,0,0,0-.548.059" fill="#114449"/>
        <rect id="Rectángulo_456737" data-name="Rectángulo 456737" width="66.895" height="0.814" transform="matrix(1, -0.002, 0.002, 1, 158.205, 149.571)" fill="#114449"/>
        <rect id="Rectángulo_456738" data-name="Rectángulo 456738" width="0.815" height="9.791" transform="translate(189.509 149.933) rotate(-0.142)" fill="#114449"/>
        <rect id="Rectángulo_456739" data-name="Rectángulo 456739" width="0.815" height="9.79" transform="matrix(1, -0.001, 0.001, 1, 185.04, 149.94)" fill="#114449"/>
        <rect id="Rectángulo_456740" data-name="Rectángulo 456740" width="0.815" height="9.791" transform="matrix(1, -0.001, 0.001, 1, 180.565, 149.947)" fill="#114449"/>
        <rect id="Rectángulo_456741" data-name="Rectángulo 456741" width="0.815" height="9.79" transform="matrix(1, -0.001, 0.001, 1, 176.091, 149.955)" fill="#114449"/>
        <rect id="Rectángulo_456742" data-name="Rectángulo 456742" width="0.815" height="9.791" transform="matrix(1, -0.001, 0.001, 1, 171.616, 149.962)" fill="#114449"/>
        <rect id="Rectángulo_456743" data-name="Rectángulo 456743" width="0.814" height="9.791" transform="matrix(1, -0.001, 0.001, 1, 167.142, 149.969)" fill="#114449"/>
        <rect id="Rectángulo_456744" data-name="Rectángulo 456744" width="0.815" height="9.79" transform="matrix(1, -0.001, 0.001, 1, 162.667, 149.977)" fill="#114449"/>
        <rect id="Rectángulo_456745" data-name="Rectángulo 456745" width="31.715" height="0.814" transform="translate(158.211 153.614) rotate(-0.094)" fill="#114449"/>
        <rect id="Rectángulo_456746" data-name="Rectángulo 456746" width="0.814" height="5.852" transform="matrix(1, -0.001, 0.001, 1, 173.969, 144.106)" fill="#114449"/>
        <rect id="Rectángulo_456747" data-name="Rectángulo 456747" width="0.815" height="5.852" transform="matrix(1, -0.001, 0.001, 1, 205.278, 144.044)" fill="#114449"/>
        <path id="Trazado_1295576" data-name="Trazado 1295576" d="M200.528,153.1a.493.493,0,0,1-.087.01l-7.568.012a.408.408,0,0,1,0-.815l7.569-.012a.407.407,0,0,1,.088.8" fill="#114449"/>
        <path id="Trazado_1295577" data-name="Trazado 1295577" d="M207.462,155.153a.414.414,0,0,1-.087.009l-14.5.024a.407.407,0,0,1,0-.814l14.5-.024a.407.407,0,0,1,.088.8" fill="#114449"/>
        <path id="Trazado_1295578" data-name="Trazado 1295578" d="M207.466,157.221a.493.493,0,0,1-.087.01l-14.5.023a.407.407,0,1,1,0-.814l14.5-.024a.407.407,0,0,1,.088.8" fill="#114449"/>
        <path id="Trazado_1295579" data-name="Trazado 1295579" d="M221.643,155.13a.414.414,0,0,1-.087.009l-10.118.017a.408.408,0,0,1,0-.815l10.118-.016a.407.407,0,0,1,.088.805" fill="#114449"/>
        <rect id="Rectángulo_456748" data-name="Rectángulo 456748" width="66.895" height="6.556" transform="matrix(1, -0.002, 0.002, 1, 158.23, 165.461)" fill="#9ad4e3"/>
        <path id="Trazado_1295580" data-name="Trazado 1295580" d="M176.627,177.112a.492.492,0,0,1-.087.01l-18.29.03a.407.407,0,0,1,0-.815l18.291-.03a.407.407,0,0,1,.088.8" fill="#114449"/>
        <path id="Trazado_1295581" data-name="Trazado 1295581" d="M188.331,180.8a.492.492,0,0,1-.087.01l-29.988.048a.407.407,0,1,1,0-.814L188.243,180a.407.407,0,0,1,.088.805" fill="#114449"/>
        <path id="Trazado_1295582" data-name="Trazado 1295582" d="M225.237,180.742a.414.414,0,0,1-.087.009l-16.3.027a.407.407,0,1,1,0-.814l16.3-.027a.407.407,0,0,1,.088.805" fill="#114449"/>
        <path id="Trazado_1295583" data-name="Trazado 1295583" d="M148.961,238.844V227.01h3.207a2.47,2.47,0,0,1,1.88.628,2.99,2.99,0,0,1,.588,2.075v.518a2.685,2.685,0,0,1-.3,1.351,1.43,1.43,0,0,1-.911.679,1.45,1.45,0,0,1,1.072.945,5.279,5.279,0,0,1,.272,1.812,8.363,8.363,0,0,1-.214,2.01,2.49,2.49,0,0,1-.78,1.339,2.42,2.42,0,0,1-1.608.477Zm2.313-7.376h.484a.4.4,0,0,0,.424-.256,1.79,1.79,0,0,0,.094-.612v-1.19c0-.381-.169-.572-.5-.572h-.5Zm.235,5.292q.921,0,.921-.875v-1.479a1.765,1.765,0,0,0-.15-.8.582.582,0,0,0-.569-.292h-.437v3.43c.1.008.177.013.235.013" fill="#fff"/>
        <path id="Trazado_1295584" data-name="Trazado 1295584" d="M158.375,238.951a2.726,2.726,0,0,1-2.169-.857,3.659,3.659,0,0,1-.75-2.478v-5.622a3.239,3.239,0,0,1,.743-2.306,3.4,3.4,0,0,1,4.351,0,3.239,3.239,0,0,1,.743,2.306v5.622a3.654,3.654,0,0,1-.75,2.478,2.723,2.723,0,0,1-2.168.857m.02-2.178q.537,0,.538-1.042v-5.777q0-.874-.525-.874-.591,0-.591.9v5.769a1.7,1.7,0,0,0,.134.79.47.47,0,0,0,.444.239" fill="#fff"/>
        <path id="Trazado_1295585" data-name="Trazado 1295585" d="M165.072,238.951a2.722,2.722,0,0,1-2.168-.857,3.654,3.654,0,0,1-.75-2.478v-5.622a3.239,3.239,0,0,1,.742-2.306,3.405,3.405,0,0,1,4.352,0,3.243,3.243,0,0,1,.742,2.306v5.622a3.649,3.649,0,0,1-.75,2.478,2.723,2.723,0,0,1-2.168.857m.02-2.178q.539,0,.538-1.042v-5.777q0-.874-.524-.874-.593,0-.592.9v5.769a1.7,1.7,0,0,0,.134.79.471.471,0,0,0,.444.239" fill="#fff"/>
        <path id="Trazado_1295586" data-name="Trazado 1295586" d="M168.945,238.844V227.009h2.34v4.741l1.1-4.741h2.38l-1.325,5.42,1.6,6.415h-2.456l-1.29-5.729v5.729Z" fill="#fff"/>
        <path id="Trazado_1295587" data-name="Trazado 1295587" d="M178.676,238.844V227.009h2.435l1.089,5.669v-5.669h2.287v11.835h-2.314l-1.184-5.917v5.917Z" fill="#fff"/>
        <path id="Trazado_1295588" data-name="Trazado 1295588" d="M188.358,238.951a2.728,2.728,0,0,1-2.169-.857,3.659,3.659,0,0,1-.749-2.478v-5.622a3.234,3.234,0,0,1,.743-2.306,3.4,3.4,0,0,1,4.35,0,3.234,3.234,0,0,1,.743,2.306v5.622a3.649,3.649,0,0,1-.75,2.478,2.722,2.722,0,0,1-2.168.857m.021-2.178q.537,0,.537-1.042v-5.777q0-.874-.524-.874-.593,0-.592.9v5.769a1.716,1.716,0,0,0,.134.79.471.471,0,0,0,.445.239" fill="#fff"/>
        <path id="Trazado_1295589" data-name="Trazado 1295589" d="M193.16,238.844l-1.271-11.835H194.2l.652,7.471.667-7.471h2.2l.633,7.471.632-7.471h2.34l-1.292,11.835H197.2l-.592-5.7-.564,5.7Z" fill="#fff"/>
        <path id="Trazado_1295590" data-name="Trazado 1295590" d="M108.169,3.57A553.5,553.5,0,0,0,20.441,67.456c-.844-2.2-1.956-5.357-.519-7.229a7.075,7.075,0,0,1,6.226-2.675,14.458,14.458,0,0,1,2.3-17.565,14.921,14.921,0,0,1,17.947-1.71C44,28.988,45.079,18.236,50.54,10.348,54.652,4.409,61.32-.325,68.536.017c6.4.3,11.9,4.392,16.968,8.311-1.239-2.039,1.2-5.395,3.589-5.482s4.49,1.442,6.38,2.9a4.509,4.509,0,0,1,4.242-5c2.6-.3,6.25,1.412,8.454,2.824" fill="#c1e9f4"/>
        <path id="Trazado_1295591" data-name="Trazado 1295591" d="M326.46,49.634,263.567,15.817c3.81-2.465,9.878-2.224,11.464,2.028,3.64-1.56,7.593-3.3,11.537-3.658,6.956-.624,14.926,1.313,18.388,7.378,2.312,4.049,2.11,9,1.842,13.658,1.761-1.9,4.369-3.464,6.49-1.979A5.6,5.6,0,0,1,315,40.154c2.885-1.305,6.269-1.782,8.732.208s3.4,6.178,2.725,9.272" fill="#c1e9f4"/>
        <path id="Trazado_1295592" data-name="Trazado 1295592" d="M356.7,310.988H12.432a.809.809,0,1,1,0-1.617H356.7a.809.809,0,1,1,0,1.617" fill="#114449"/>
        <path id="Trazado_1295593" data-name="Trazado 1295593" d="M22.469,165.09c-4.194,5.622-8.275,11.363-10.835,17.593-.725,1.765-1.311,3.748-.343,5.436.936,1.631,3.074,2.55,5.1,3.288q2.744,1,5.571,1.834a3.072,3.072,0,0,0,1.946.123,2.2,2.2,0,0,0,.976-.943c2.973-4.537,5.415-9.368,6.3-14.451a21.362,21.362,0,0,0-.334-9.221,18.9,18.9,0,0,0-1.757-4.32c-.469-.84-1.14-2.093-2.485-2.118-1.814-.033-3.322,1.678-4.144,2.779" fill="#efaf68"/>
        <path id="Trazado_1295594" data-name="Trazado 1295594" d="M73.051,173.478a22.706,22.706,0,0,1-1.236-7.783,45.113,45.113,0,0,1,.589-7.82,2.054,2.054,0,0,1,.715-1.488c.692-.437,1.593.063,2.182.632a16.261,16.261,0,0,1,3.534,6.314q2.228,6.084,3.871,12.362a22.232,22.232,0,0,1,.855,5.031c.021.82.076,4.021-1.317,3.736-.666-.137-1.235-.854-1.717-1.29-.6-.538-1.182-1.084-1.756-1.645-1.123-1.1-3.077-2.353-4.027-3.6-1.055-1.392-1.074-2.807-1.693-4.444" fill="#ec766e"/>
        <path id="Trazado_1295595" data-name="Trazado 1295595" d="M80.735,182.97c.624,1.271,1.725,2.692,3.111,2.4,1.156-.24,1.719-1.538,2.011-2.681,1.465-5.741-.355-10.859-2.629-16.33-1.038-2.495-2.208-5.788-4.251-7.557-.7-.609-.765-1.349-1.672-.842a1.7,1.7,0,0,0-.975,1.293c-.071.633-.958-.094-.778.511a29.884,29.884,0,0,1,.6,4.766,115.7,115.7,0,0,0,1.54,12.185c.53,1.986,1.855,3.695,2.717,5.562.107.23.216.46.328.688" fill="#f5ba9c"/>
        <path id="Trazado_1295596" data-name="Trazado 1295596" d="M84.078,143.973a10.016,10.016,0,1,1-10.016-10.016,10.016,10.016,0,0,1,10.016,10.016" fill="#fcbf5c"/>
        <path id="Trazado_1295597" data-name="Trazado 1295597" d="M76.975,134.389s-32.184-13.053-60.923-.432L22.235,152.7s27.184-7.007,50.395,1.252Z" fill="#fcbf5c"/>
        <path id="Trazado_1295598" data-name="Trazado 1295598" d="M30.98,142.685a10.015,10.015,0,1,1-10.016-10.016A10.016,10.016,0,0,1,30.98,142.685" fill="#114449"/>
        <path id="Trazado_1295599" data-name="Trazado 1295599" d="M20.942,142.123c-.676.01-.924.776-.7,1.33.319.795,1.317.667,1.867.2a2.2,2.2,0,0,0,.549-2.51,2.418,2.418,0,0,0-2.1-1.311,3.6,3.6,0,0,0-3.487,2.844,3.919,3.919,0,0,0,1.952,4.21,4.812,4.812,0,0,0,4.995-.081,6.143,6.143,0,0,0,2.88-4.347,5.688,5.688,0,0,0-1.462-4.832,6.722,6.722,0,0,0-5.229-1.709,8.16,8.16,0,0,0-4.723,2,7.466,7.466,0,0,0-2.418,4.69,7.966,7.966,0,0,0,1.166,5.268,7.9,7.9,0,0,0,9.461,2.894,10.149,10.149,0,0,0,4.3-3.677,9.846,9.846,0,0,0,2.034-5.8,7.359,7.359,0,0,0-2.141-4.769c-2.807-2.883-7.268-3.006-10.683-1.162-3.344,1.805-5.808,5.66-4.6,9.513a6.153,6.153,0,0,0,1.362,2.355c.235.252.611-.126.378-.377a6.044,6.044,0,0,1-1.492-4.647,7.645,7.645,0,0,1,2.166-4.51,9.471,9.471,0,0,1,9.569-2.641,7.008,7.008,0,0,1,4.822,7.522,11.023,11.023,0,0,1-2.393,4.935,8.9,8.9,0,0,1-4.03,2.952,7.211,7.211,0,0,1-7.535-11.783,7.277,7.277,0,0,1,8.772-1.332c2.915,1.81,2.779,6.1.427,8.306a4.583,4.583,0,0,1-4.374,1.206,3.725,3.725,0,0,1-2.781-3.252,3.25,3.25,0,0,1,2.423-3.205,2.1,2.1,0,0,1,2.139.744,1.61,1.61,0,0,1-.611,2.294c-.3.12-.662.063-.74-.29-.041-.187,0-.5.238-.5a.267.267,0,0,0,0-.534" fill="#fcbf5c"/>
        <path id="Trazado_1295600" data-name="Trazado 1295600" d="M35.241,147.678c.375-5.921-1.718-12.091-6.739-15.565a12.951,12.951,0,0,0-4.2-1.916.407.407,0,0,0-.216.784,12.95,12.95,0,0,1,6.5,4.058,15.859,15.859,0,0,1,3.568,7.579,20.334,20.334,0,0,1,.283,5.06c-.033.522.78.52.813,0" fill="#114449"/>
        <path id="Trazado_1295601" data-name="Trazado 1295601" d="M24.408,130.314a16.044,16.044,0,0,0-.02-6.364,1.669,1.669,0,0,0-.813-1.294c-1.14-.507-1.785.947-1.911,1.821a7.348,7.348,0,0,0,2.413,6.528c.325.283.921-.092.638-.493a16.334,16.334,0,0,0-3.017-3.251,15.184,15.184,0,0,0-1.817-1.288,3.9,3.9,0,0,0-2.065-.654,1.961,1.961,0,0,0-1.959,2.51,3.919,3.919,0,0,0,3.085,2.344c.852.2,1.728.315,2.591.455l2.946.48c.512.083.732-.7.216-.784q-2.167-.353-4.336-.706a5.392,5.392,0,0,1-3.313-1.306,1.6,1.6,0,0,1-.447-1.346,1.212,1.212,0,0,1,1.123-.828,3.045,3.045,0,0,1,1.8.566,13.976,13.976,0,0,1,1.56,1.1,15.541,15.541,0,0,1,2.933,3.122l.639-.493a6.587,6.587,0,0,1-2.252-4.86,5.389,5.389,0,0,1,.134-1.352c.065-.259.268-.825.6-.844.384-.022.457.724.5.976a14.533,14.533,0,0,1,.227,1.751,15.4,15.4,0,0,1-.243,4c-.1.511.685.73.784.216" fill="#114449"/>
        <path id="Trazado_1295602" data-name="Trazado 1295602" d="M76.222,153.542a31.656,31.656,0,0,0,3.336-15.486,13.187,13.187,0,0,1,.024-4.1,28.174,28.174,0,0,1,1.785-3.543c.425-.968.994-2.238.644-3.313a1.227,1.227,0,0,0-.914-.88,1.56,1.56,0,0,0-1.462.717c-1.71,2.181-1.585,5.251-1.445,7.862a.412.412,0,0,0,.694.287c1.782-1.554,4.446-1.431,6.259-2.953a3.238,3.238,0,0,0,1.005-1.37,1.5,1.5,0,0,0-.286-1.6c-.623-.547-1.429-.076-2.021.265a15.493,15.493,0,0,0-1.848,1.262,15.3,15.3,0,0,0-3.382,3.746c-.284.441.419.849.7.41a14.673,14.673,0,0,1,2.56-3,14.3,14.3,0,0,1,1.608-1.24q.378-.251.772-.478c.247-.143.624-.434.924-.408.491.042.2.854.054,1.088a3.193,3.193,0,0,1-.955.964,11.261,11.261,0,0,1-2.8,1.159,8.845,8.845,0,0,0-3.166,1.577L79,134.8c-.117-2.175-.253-4.572.777-6.57.2-.4.518-1.061.985-1.2.4-.115.511.345.528.643a3.935,3.935,0,0,1-.295,1.46,10.981,10.981,0,0,1-.762,1.744A11.284,11.284,0,0,0,78.7,134.15a16.666,16.666,0,0,0,.036,3.788,30.739,30.739,0,0,1-3.22,15.194c-.234.466.467.878.7.41" fill="#114449"/>
        <path id="Trazado_1295603" data-name="Trazado 1295603" d="M76.808,173.764a31.2,31.2,0,0,1-20.622,22.927l3.44,7.5c5.444-2.868,9.508-7.758,13.2-12.681,2.856-3.811,5.617-7.788,7.17-12.29a30.444,30.444,0,0,0-.114-19,45.844,45.844,0,0,0-9.82-16.478c-.8-.889-2.033-1.644-2.939-.424-.833,1.121.682,1.957,1.384,2.667a30.079,30.079,0,0,1,4.465,5.8A31.793,31.793,0,0,1,77.322,165.6a29.556,29.556,0,0,1-.514,8.16" fill="#114449"/>
        <path id="Trazado_1295604" data-name="Trazado 1295604" d="M36.237,143.227c-2.55,2.667-4.04,6.147-5.477,9.545-4.306,10.182-8.649,20.492-10.359,31.415-.609,3.893-.829,8.092,1.039,11.563,2.375,4.411,7.443,6.515,12.127,8.293a9.889,9.889,0,0,0,4.313.928,9.872,9.872,0,0,0,3.567-1.3c4.374-2.277,8.862-4.643,12.072-8.387a31.543,31.543,0,0,0,3.976-6.257c2.355-4.6,4.306-9.51,4.763-14.66a45.071,45.071,0,0,0-.381-9.4,41.442,41.442,0,0,0-2.762-11.7,24.247,24.247,0,0,0-7.488-9.494c-1.576-1.2-3.3-2.2-4.92-3.344a5.164,5.164,0,0,0-4.3-.694,11.81,11.81,0,0,0-6.167,3.5" fill="#114449"/>
        <path id="Trazado_1295605" data-name="Trazado 1295605" d="M53.456,99.161a28.379,28.379,0,0,0-5.005,3.074,7.178,7.178,0,0,0-1.884,1.927,5.554,5.554,0,0,0-.112,4.875,16.414,16.414,0,0,0,2.815,4.175,4.019,4.019,0,0,0,1.618,1.354,3.508,3.508,0,0,0,1.681.06,13.264,13.264,0,0,0,5.335-2.075,14.748,14.748,0,0,0,4.113-4.09,14.2,14.2,0,0,0,1.361-2.555,4.191,4.191,0,0,0,.5-2.6c-.21-.705-.89-1.15-1.418-1.606-.811-.7-1.391-1.582-2.144-2.335-1.7-1.7-4.055-1.391-6.108-.542-.252.1-.5.217-.749.335" fill="#efaf68"/>
        <path id="Trazado_1295606" data-name="Trazado 1295606" d="M65.466,100.689c1.309-.861,2.772-1.839,4.308-1.531a5.717,5.717,0,0,1,3.01,2.331l2.429,2.987a6.3,6.3,0,0,1,1.572,2.816c.292,1.808-1.009,3.466-2.342,4.723a28.95,28.95,0,0,1-3.6,2.887,3.378,3.378,0,0,1-1.3.619,3.879,3.879,0,0,1-2.338-.678,27.361,27.361,0,0,0-7.691-2.662,15.271,15.271,0,0,1-4.738-1.26c-1.1-.612-2.345-1.9-2.063-3.28.3-1.464,1.958-1.773,3.147-2.192a44.218,44.218,0,0,0,9.6-4.76" fill="#efaf68"/>
        <path id="Trazado_1295607" data-name="Trazado 1295607" d="M59.977,106.1c1.735-1.11,3.459-2.241,5.208-3.329,1.514-.942,3.4-1.973,5.221-1.307a5.784,5.784,0,0,1,2.1,1.54,17,17,0,0,1,1.777,2.209,4.111,4.111,0,0,1,1.052,2.549,3.787,3.787,0,0,1-1.214,2.174,20.462,20.462,0,0,1-2.349,1.858l-2.793,2.055c-.305.224-.009.739.3.512q1.371-1.008,2.741-2.017a28.092,28.092,0,0,0,2.262-1.743,5.171,5.171,0,0,0,1.488-2.1,3.126,3.126,0,0,0-.442-2.744,17.942,17.942,0,0,0-1.744-2.436,9.826,9.826,0,0,0-2.1-1.967c-1.738-1.117-3.709-.672-5.431.231-1.072.562-2.076,1.254-3.094,1.905l-3.284,2.1c-.321.205-.024.718.3.512" fill="#114449"/>
        <path id="Trazado_1295608" data-name="Trazado 1295608" d="M62.229,106.375a9.578,9.578,0,0,0-14.885,8.044c-3.8-.082-8.493,3.512-8.861,7.3a1.492,1.492,0,0,1-.212.788c-.278.364-.816.356-1.274.341a8.226,8.226,0,0,0-5.184,1.446,5.319,5.319,0,0,0-2.21,4.745,37.883,37.883,0,0,0,23.7,9.923,40.616,40.616,0,0,0,25.555-7.477c.062-2.117-1.93-4.059-3.979-4.6,1.008-1.684.043-4.885-1.076-6.5s-2.638-2.968-3.455-4.753c-.665-1.453-.819-3.094-1.435-4.568-1.024-2.449-1.948-5.738-6.68-4.693" fill="#513c3c"/>
        <path id="Trazado_1295609" data-name="Trazado 1295609" d="M63.7,268.644s6.39,27.733,10.951,39.647l4.333-.9-3.63-42.432Z" fill="#f5ba9c"/>
        <path id="Trazado_1295610" data-name="Trazado 1295610" d="M73.983,306.477l-3.859-12.67,7.888-1.551.9,14.032Z" fill="#efaf68"/>
        <path id="Trazado_1295611" data-name="Trazado 1295611" d="M73.451,305.285l.825,4.488,13.8-2.536s-1.017-2.526-9.029-2.661Z" fill="#114449"/>
        <path id="Trazado_1295612" data-name="Trazado 1295612" d="M70.779,295.957l7.379-1.426.122,1.9-6.92,1.436Z" fill="#114449"/>
        <path id="Trazado_1295613" data-name="Trazado 1295613" d="M34.536,255.188S11.046,269.6,1.518,278.082l2.372,3.735L42.1,264.784Z" fill="#f5ba9c"/>
        <path id="Trazado_1295614" data-name="Trazado 1295614" d="M2.979,276.816l10.484-8.094,4.242,6.828L4.9,281.359Z" fill="#efaf68"/>
        <path id="Trazado_1295615" data-name="Trazado 1295615" d="M3.9,275.9,0,278.256l7.256,12.009s2-1.845-.707-9.386Z" fill="#114449"/>
        <path id="Trazado_1295616" data-name="Trazado 1295616" d="M11.683,270.1l3.946,6.4-1.733.787L10.1,271.315Z" fill="#114449"/>
        <path id="Trazado_1295617" data-name="Trazado 1295617" d="M72.315,196.539c.8,21.465,2.917,51.17,6.785,72.451a39.036,39.036,0,0,1-19.184,3.554c-2.924-20.7-5.237-42.358-6.3-63.149a4.686,4.686,0,0,1,.369-2.612c.4-.691.436-8.875,1.172-9.272a22.173,22.173,0,0,1,17.161-.972" fill="#114449"/>
        <path id="Trazado_1295618" data-name="Trazado 1295618" d="M58.186,206.044l-5.109,36.975c-.61,4.42-1.245,8.92-3.161,12.949-3.039,6.387-8.924,10.869-14.6,15.1-3.844-5.073-7.518-10.788-9.292-16.9,3.9-1.791,7.821-3.675,11.725-5.467a5.856,5.856,0,0,1-2.15-2.677,3.678,3.678,0,0,1,3.078-.482c-2.08-10.814-3.967-39.372-3.542-50.375.079-2.028,2.545-3.614,3.723-5.266,1.067-1.5,1.915,7.217,3.662,6.643,3.614-1.187,10.406-2.86,14.127-2.071.911.193-1.362,7.92-.73,8.6.881.951,1.184,2.257,2.265,2.973" fill="#114449"/>
        <path id="Trazado_1295619" data-name="Trazado 1295619" d="M39.212,195.878a33.663,33.663,0,0,0-.859,8.88c.008,3.849.285,7.7.643,11.528.376,4.018.859,8.026,1.372,12.028.443,3.451.919,6.9,1.336,10.352.153,1.268.3,2.538.408,3.812.042.488.078.976.1,1.465a2.127,2.127,0,0,1-.156,1.3c-.325.462-1.02.526-1.443.876a1.155,1.155,0,0,0-.42,1.388.3.3,0,0,0,.335.136c.371-.061.615.374.659.685a1.275,1.275,0,0,1-.529,1.065,7.718,7.718,0,0,1-1.258.824l-1.573.931-6.18,3.658-3.54,2.094a.3.3,0,0,0,.3.512l7.192-4.255,3.6-2.128c.883-.523,2.093-1.036,2.494-2.063a1.355,1.355,0,0,0-1.318-1.9l.335.137c-.257-.58.851-.924,1.194-1.1a1.587,1.587,0,0,0,.907-1.32,9.978,9.978,0,0,0-.052-1.7c-.087-1.2-.219-2.4-.358-3.59-.386-3.307-.842-6.6-1.27-9.907-.513-3.948-1-7.9-1.4-11.862-.385-3.864-.695-7.743-.768-11.627a40.263,40.263,0,0,1,.615-9.206c.062-.288.131-.575.209-.859a.3.3,0,0,0-.572-.158" fill="#fff"/>
        <path id="Trazado_1295620" data-name="Trazado 1295620" d="M55.45,229.909c.325-3.466.478-6.946.7-10.419.233-3.714.5-7.437,1.06-11.119a42.653,42.653,0,0,1,1.156-5.482.3.3,0,0,0-.572-.158,56.214,56.214,0,0,0-1.736,10.248c-.364,3.744-.559,7.5-.786,11.255-.114,1.893-.234,3.786-.411,5.675-.036.38.558.377.593,0" fill="#fff"/>
        <path id="Trazado_1295621" data-name="Trazado 1295621" d="M68.8,248.958a16.975,16.975,0,0,1,5.153-4.6.3.3,0,0,0-.3-.513,17.685,17.685,0,0,0-5.366,4.811c-.227.307.287.6.512.3" fill="#fff"/>
        <path id="Trazado_1295622" data-name="Trazado 1295622" d="M69.794,246.037a7,7,0,0,1,2.023-1.5.3.3,0,0,0,.106-.406.3.3,0,0,0-.406-.107,7.543,7.543,0,0,0-2.142,1.593.3.3,0,0,0,.419.419" fill="#fff"/>
        <path id="Trazado_1295623" data-name="Trazado 1295623" d="M54.421,133.423c-6.415,2.875-13.179,6.032-16.671,11.392-2.566,3.941-3.015,8.581-3.368,13.065q-1.482,18.91-1.924,37.866a107.465,107.465,0,0,0,22.62,2.7,55.752,55.752,0,0,0,22.346-3.972,162.9,162.9,0,0,1-2.362-26.3C75,160.6,76.33,155.844,72.937,148.831s-9.824-13.42-18.516-15.408" fill="#f8dccd"/>
        <path id="Trazado_1295624" data-name="Trazado 1295624" d="M50.983,121.4a2.069,2.069,0,1,0,.858-3.025,2.237,2.237,0,0,0-.858,3.025" fill="#f5ba9c"/>
        <path id="Trazado_1295625" data-name="Trazado 1295625" d="M56.788,137.849h0c-2.18,0-3.947-1.258-3.948-2.812L54.2,121.908l6.493,4.469-.808,9.1c0,1.555-.918,2.376-3.1,2.377" fill="#f5ba9c"/>
        <path id="Trazado_1295626" data-name="Trazado 1295626" d="M54.213,122.482s1.556,5.2,6.471,4.149l-.5,5.355s-3.182,3.851-5.973-9.5" fill="#ec766e"/>
        <path id="Trazado_1295627" data-name="Trazado 1295627" d="M53.95,112.167a26.84,26.84,0,0,0-.362,5.58c0,5.532,2.722,12.134,7.366,12.132,5,0,7.357-6.607,7.355-12.139a23.81,23.81,0,0,0-.77-5.357l-5.631-2.892Z" fill="#f5ba9c"/>
        <path id="Trazado_1295628" data-name="Trazado 1295628" d="M60.072,121.781c0,.573-.656,1.039-1.465,1.039s-1.466-.464-1.466-1.038.655-1.038,1.465-1.039,1.466.464,1.466,1.038" fill="#efaf68"/>
        <path id="Trazado_1295629" data-name="Trazado 1295629" d="M67.384,121.652c0,.487-.589.882-1.316.882s-1.317-.394-1.317-.881.589-.881,1.316-.882,1.317.394,1.317.881" fill="#efaf68"/>
        <path id="Trazado_1295630" data-name="Trazado 1295630" d="M57.054,117.6s3.815-3.7,4.026-.982Z" fill="#513c3c"/>
        <path id="Trazado_1295631" data-name="Trazado 1295631" d="M67.887,117.667s-2.274-3.37-3.639-1.248Z" fill="#513c3c"/>
        <path id="Trazado_1295632" data-name="Trazado 1295632" d="M60.29,119.419c0,.452-.262.82-.585.82s-.586-.367-.586-.819.262-.82.585-.82.586.367.586.819" fill="#513c3c"/>
        <path id="Trazado_1295633" data-name="Trazado 1295633" d="M66.662,119.479c0,.419-.243.76-.542.76s-.544-.34-.544-.76.243-.759.543-.759.543.339.543.759" fill="#513c3c"/>
        <path id="Trazado_1295634" data-name="Trazado 1295634" d="M62.514,120.167a1.269,1.269,0,0,0,.332.781,1.175,1.175,0,0,0,.345.252,2.416,2.416,0,0,1,.353.175c.019.014.017.012,0,0a1.15,1.15,0,0,1,.057.057c-.018-.025-.017-.024,0,0s.028.046.041.07c.028.051-.005-.033.01.029.006.026.014.051.019.078-.012-.063,0,.012,0,.028s-.013.077,0,.027c0,.011-.028.094-.017.065s-.022.035-.027.043-.009.014.009-.01l-.036.036c-.038.041.034-.013-.02.015-.023.012-.043.025-.067.036.061-.027-.016,0-.024,0-.059.022.039.006-.02,0-.027,0-.072,0-.02.006-.014,0-.108-.037-.047-.009a.307.307,0,0,0-.406.107.3.3,0,0,0,.107.406.82.82,0,0,0,.916-.149.838.838,0,0,0,.174-.93.941.941,0,0,0-.311-.4,2.507,2.507,0,0,0-.4-.208,1.069,1.069,0,0,1-.094-.052.57.57,0,0,1-.048-.032c.022.017.02.014-.007-.008s-.042-.04-.062-.061-.026-.028-.038-.043c.017.022.015.019-.005-.01l-.059-.1c-.029-.05.005.025-.016-.035-.012-.036-.023-.073-.032-.11,0-.019-.008-.038-.011-.057.005.031.005.029,0-.007a.3.3,0,0,0-.3-.3.3.3,0,0,0-.295.3" fill="#ec766e"/>
        <path id="Trazado_1295635" data-name="Trazado 1295635" d="M60.967,125.272a.711.711,0,0,1,.129.039l-.07-.029a.731.731,0,0,1,.151.087c-.021-.015-.041-.031-.06-.046a.664.664,0,0,1,.063.056.307.307,0,0,0,.42,0,.3.3,0,0,0,.086-.21.307.307,0,0,0-.086-.209,1.273,1.273,0,0,0-.133-.11.691.691,0,0,0-.086-.054,1.443,1.443,0,0,0-.156-.068.709.709,0,0,0-.1-.028.229.229,0,0,0-.119,0,.22.22,0,0,0-.11.035.233.233,0,0,0-.083.076.229.229,0,0,0-.053.1.3.3,0,0,0,.03.229.294.294,0,0,0,.177.136" fill="#ec766e"/>
        <path id="Trazado_1295636" data-name="Trazado 1295636" d="M52,120.134c.044.013.086.028.129.044.027.01-.017-.009.027.011l.055.026a1.81,1.81,0,0,1,.246.149c.044.032-.049-.042.024.019l.046.039a1.263,1.263,0,0,1,.1.094c.032.032.062.067.092.1.062.072-.013-.02.019.024l.044.061a1.378,1.378,0,0,1,.217.506,1.57,1.57,0,0,1,.018.541.305.305,0,0,0,.208.365.3.3,0,0,0,.364-.207,2.038,2.038,0,0,0-1.43-2.345.3.3,0,0,0-.158.572" fill="#ec766e"/>
        <path id="Trazado_1295637" data-name="Trazado 1295637" d="M52.977,133.711,48.736,136.1a9.732,9.732,0,0,0,9.87,6.611c7.784-.353,2.784-6.621,2.784-6.621l-2.069-1.663Z" fill="#f5ba9c"/>
        <path id="Trazado_1295638" data-name="Trazado 1295638" d="M32.875,192.713c5.634.692,11.278,1.363,16.952,1.629a77.476,77.476,0,0,0,16.813-.83,50.27,50.27,0,0,0,9.112-2.442c.355-.132.2-.706-.157-.572a55.333,55.333,0,0,1-16.35,3.246,110.912,110.912,0,0,1-16.9-.55c-3.163-.307-6.318-.687-9.472-1.074-.378-.047-.374.547,0,.593" fill="#114449"/>
        <path id="Trazado_1295639" data-name="Trazado 1295639" d="M58.931,186.15a54.193,54.193,0,0,1,9.695-5.248c.348-.144.195-.718-.158-.572a54.919,54.919,0,0,0-9.836,5.308c-.314.213-.018.727.3.512" fill="#114449"/>
        <path id="Trazado_1295640" data-name="Trazado 1295640" d="M64.859,184.854a36.765,36.765,0,0,1,5.66-2.091.3.3,0,0,0-.158-.572,37.682,37.682,0,0,0-5.8,2.151c-.346.161-.045.673.3.512" fill="#114449"/>
        <path id="Trazado_1295641" data-name="Trazado 1295641" d="M54.835,118.619a2.127,2.127,0,0,0,.695-.611,30.08,30.08,0,0,1,1.828-2.428c1.908-1.911,5.319-2.16,6.545-4.566a1.746,1.746,0,0,0,.106-1.608,1.827,1.827,0,0,0-.908-.718c-1.977-.859-4.265-.225-6.263.583-1.591.644-3.243,1.49-4.043,3.008a5.185,5.185,0,0,0-.4,3.3,9.413,9.413,0,0,0,.458,1.646,2.588,2.588,0,0,0,.6,1.148,1.3,1.3,0,0,0,1.383.242" fill="#513c3c"/>
        <path id="Trazado_1295642" data-name="Trazado 1295642" d="M63.489,109.6c1.107-.5,2.4.108,3.345.864a8.013,8.013,0,0,1,2.019,2.364c.286.519,1.045,1.839.442,2.352-.581.495-1.434.034-1.889-.383a24.263,24.263,0,0,1-2.22-2.235,10.241,10.241,0,0,1-1.012-1.41,7.609,7.609,0,0,1-.685-1.552" fill="#513c3c"/>
        <path id="Trazado_1295643" data-name="Trazado 1295643" d="M47.566,113.955a9.043,9.043,0,0,0-10.649,6.306c-.1.356-.152.747-.488.963a5.49,5.49,0,0,1-1.22.449,11.347,11.347,0,0,0-2.171.953,4.467,4.467,0,0,0-2.428,3.965c.018.255.418.257.4,0A4.054,4.054,0,0,1,33.192,123a10.944,10.944,0,0,1,2.231-.977c.574-.192,1.32-.314,1.633-.9a4.527,4.527,0,0,0,.274-.852,8.366,8.366,0,0,1,.41-1.083,8.826,8.826,0,0,1,1.109-1.8,8.579,8.579,0,0,1,3.442-2.6,8.8,8.8,0,0,1,5.169-.452c.251.054.358-.331.106-.385" fill="#513c3c"/>
        <path id="Trazado_1295644" data-name="Trazado 1295644" d="M68.418,110.693c.054,2.892,2.726,4.569,4.721,6.2a8.342,8.342,0,0,1,2.506,3.039,7.389,7.389,0,0,1,.564,3.63,6.979,6.979,0,0,1-1.574,3.849c-.16.19.113.466.275.275a7.673,7.673,0,0,0,1.462-6.84,7.3,7.3,0,0,0-1.882-3.262c-1.02-1.036-2.255-1.822-3.345-2.779a5.888,5.888,0,0,1-2.338-4.112.2.2,0,0,0-.389,0" fill="#513c3c"/>
        <path id="Trazado_1295645" data-name="Trazado 1295645" d="M63.665,123.649a1.382,1.382,0,0,1-2.541-1.01c.165-.415.623.091,1.324.37s1.382.225,1.217.64" fill="#fff"/>
        <path id="Trazado_1295646" data-name="Trazado 1295646" d="M46.935,137.209c1.48,3.093,3.491,6.269,7.03,7.163a14.468,14.468,0,0,0,2.91.375,19.314,19.314,0,0,0,3.136-.016,5.171,5.171,0,0,0,3.766-2.318,5.327,5.327,0,0,0,.659-4.679c-.13-.356-.7-.2-.572.158a4.812,4.812,0,0,1-3.623,6.212,15.1,15.1,0,0,1-3.006.063,15.676,15.676,0,0,1-2.768-.286,7.8,7.8,0,0,1-4.147-2.406,18.156,18.156,0,0,1-2.874-4.565c-.165-.345-.675-.044-.511.3" fill="#114449"/>
        <path id="Trazado_1295647" data-name="Trazado 1295647" d="M36.831,151.13l-.984,16.1-.984,16.1q-.276,4.533-.554,9.068c-.023.381.57.38.593,0l.984-16.1.984-16.1q.278-4.534.554-9.068c.023-.381-.57-.38-.593,0" fill="#114449"/>
        <path id="Trazado_1295648" data-name="Trazado 1295648" d="M48.187,171.915a31.2,31.2,0,0,1-20.622,22.927l3.44,7.5c5.444-2.868,9.508-7.758,13.2-12.681,2.856-3.812,5.617-7.788,7.17-12.29a30.447,30.447,0,0,0-.114-19A45.862,45.862,0,0,0,41.44,141.9c-.8-.889-2.034-1.644-2.94-.424-.832,1.121.683,1.957,1.385,2.667a30.079,30.079,0,0,1,4.465,5.8A31.793,31.793,0,0,1,48.7,163.755a29.556,29.556,0,0,1-.514,8.16" fill="#114449"/>
        <path id="Trazado_1295649" data-name="Trazado 1295649" d="M31.251,155.773c-.152.138-.16-.309.037-.243s.2.33.166.528a107.128,107.128,0,0,0-1.223,26.8,3.408,3.408,0,0,0,1.078,2.674,2.978,2.978,0,0,0,2.429.205,11.855,11.855,0,0,0,5.414-3.789c5.993-6.528,9.665-14.715,12.721-22.923a8.373,8.373,0,0,0,.634-2.449,8.683,8.683,0,0,0-1.621-4.642,10.665,10.665,0,0,0-2.486-3.224c-.685-.53-1.357-.927-2-.352.671,1.573,1.4,1.937,1.626,3.075a1.8,1.8,0,0,1-1.767,2.227c-1.6.538.48,4.059-.381,6a29.923,29.923,0,0,1-3.925,5.71l-3.588,4.523q.944-6.735,1.449-13.519c-2.81-.293-5.75-.306-8.561-.6" fill="#f5ba9c"/>
        <path id="Trazado_1295650" data-name="Trazado 1295650" d="M38.146,169.528a31.026,31.026,0,0,0-6.264,9.037c-.157.344.354.646.512.3a30.592,30.592,0,0,1,6.171-8.917.3.3,0,0,0-.419-.419" fill="#ec766e"/>
        <path id="Trazado_1295651" data-name="Trazado 1295651" d="M38.355,143.951s-5.106,4.281-11.68,16.016A70.894,70.894,0,0,0,40.2,162.088l2.661-10.25Z" fill="#f8dccd"/>
        <path id="Trazado_1295652" data-name="Trazado 1295652" d="M74.656,158.666a14.5,14.5,0,0,1-1.124-2.86,3.1,3.1,0,0,1,.692-2.866,1.459,1.459,0,0,1,1.5-.386.883.883,0,0,1,.381,1.337c-.164.17-.4.247-.58.4a1.3,1.3,0,0,0-.024,1.6,12.664,12.664,0,0,1,.985,1.43,3.894,3.894,0,0,1,.144,1.886,10.515,10.515,0,0,1-.147,1.147,9.981,9.981,0,0,0,.193,1.919,16.256,16.256,0,0,0-.941-2.226c-.181-.41-.9-.979-1.078-1.389" fill="#f5ba9c"/>
        <path id="Trazado_1295653" data-name="Trazado 1295653" d="M75.882,153.478a.723.723,0,0,0,.754.842.895.895,0,0,0,.724,1.539.971.971,0,0,0-.2.89.658.658,0,0,0,.741.444.824.824,0,0,0-.035,1.12,1.582,1.582,0,0,0,1.107.494.676.676,0,0,0,.5-.106.515.515,0,0,0,.042-.653,1.5,1.5,0,0,0-.547-.447.833.833,0,0,0-.467-1.412.918.918,0,0,0-.465-1.614.966.966,0,0,0,.07-1.2,1.588,1.588,0,0,0-.98-.554,1.015,1.015,0,0,0-.922.156.838.838,0,0,0-.33.5" fill="#f5ba9c"/>
        <path id="Trazado_1295654" data-name="Trazado 1295654" d="M31.261,195.777a7.769,7.769,0,0,0,2.484,3.862c.19.159.466-.114.274-.275a7.412,7.412,0,0,1-2.383-3.69.2.2,0,0,0-.375.1" fill="#fff"/>
        <path id="Trazado_1295655" data-name="Trazado 1295655" d="M23.8,172.306c1.09.251,2.507.6,3.018,1.724a5.005,5.005,0,0,1,.147,2.308c-.044.822-.108,1.642-.186,2.46-.163,1.708-.39,3.409-.64,5.106q-.182,1.221-.372,2.442a5.2,5.2,0,0,1-.58,2.109c-1.014,1.539-3.161,1.281-4.716,1.046-.244-.037-.35.337-.1.375,1.509.228,3.208.444,4.51-.542a2.928,2.928,0,0,0,1.065-1.735c.207-.881.3-1.8.436-2.692.275-1.816.533-3.635.724-5.462.1-.926.177-1.854.232-2.783a7.247,7.247,0,0,0-.058-2.511c-.442-1.437-2.069-1.919-3.374-2.22-.243-.056-.347.319-.1.375" fill="#fff"/>
        <path id="Trazado_1295656" data-name="Trazado 1295656" d="M22.324,176.374a14.331,14.331,0,0,0,4.564.607c.249-.007.25-.4,0-.389A13.947,13.947,0,0,1,22.427,176a.2.2,0,0,0-.1.375" fill="#fff"/>
        <path id="Trazado_1295657" data-name="Trazado 1295657" d="M28.1,158c4.252,1.863,9,1.467,13.437,2.56.371.091.529-.48.158-.572-4.377-1.078-9.106-.664-13.3-2.5-.346-.152-.648.359-.3.512" fill="#114449"/>
        <path id="Trazado_1295658" data-name="Trazado 1295658" d="M362.438,144.022a5.041,5.041,0,0,1,1.7,2.514c.162.837-1.006,1.4-1.7,1.89-2.2,1.532-6.011-.337-7.01.938-4.45-3.522-2.987-3.179-7.438-6.7-2.6-2.06-5.208-4.122-7.667-6.354-1-.9-2.755-2.093-3.278-3.356a1.237,1.237,0,0,1,1.395-1.822c5.662.989,11.371,3.729,16.183,6.788a51.373,51.373,0,0,1,7.82,6.1" fill="#114449"/>
        <path id="Trazado_1295659" data-name="Trazado 1295659" d="M353.247,143.505c8.719,11,11.355,25.5,13.283,39.4a23.125,23.125,0,0,1,.159,7.984c-.956,4.473-4.5,8.05-8.566,10.143s-8.651,2.92-13.164,3.66c-2.778.456-5.83.839-8.234-.625a10.754,10.754,0,0,1-3.112-3.316c-6.884-10.159-9.677-22.524-11.257-34.694a90.2,90.2,0,0,1-.854-13.63,45.9,45.9,0,0,1,2.1-13.4,30.738,30.738,0,0,1,2.7-5.984c.714-1.206,1.881-3.75,3.39-4.12a5.787,5.787,0,0,1,2.828.507q1.641.5,3.237,1.134a42.541,42.541,0,0,1,16.417,11.65q.549.636,1.072,1.3" fill="#114449"/>
        <path id="Trazado_1295660" data-name="Trazado 1295660" d="M358.978,148.208c1,1.373,2.009,2.967,1.739,4.646-.392,2.443-3.144,3.625-5.5,4.369-2.578.812-5.419,1.61-7.912.565a11.621,11.621,0,0,1-3.389-2.536c-4.175-4-8.375-8.038-11.753-12.735a35.3,35.3,0,0,1-5.469-10.958c-.325-1.159-1.485-4-.036-4.777a3.469,3.469,0,0,1,2.34.058q1.346.29,2.666.678a42.966,42.966,0,0,1,10.061,4.471,54.106,54.106,0,0,1,8.889,6.751,65.788,65.788,0,0,1,7.523,8.336q.429.561.845,1.132" fill="#a9c66a"/>
        <path id="Trazado_1295661" data-name="Trazado 1295661" d="M299.2,128.888s-9,2.174-15.895,23.106l10.082-.834Z" fill="#efaf68"/>
        <path id="Trazado_1295662" data-name="Trazado 1295662" d="M292.3,137.18a51.734,51.734,0,0,0-4.425,14.762c-.059.409-.68.235-.622-.171a52.278,52.278,0,0,1,4.491-14.916c.177-.375.732-.048.556.325" fill="#114449"/>
        <path id="Trazado_1295663" data-name="Trazado 1295663" d="M317.622,260.827s-.77,28.658-2.724,44.28l-8.4-.467-5.3-43.285Z" fill="#f5ba9c"/>
        <path id="Trazado_1295664" data-name="Trazado 1295664" d="M316.167,190.476a212.11,212.11,0,0,1,3.5,45.434c1.043.686,2.23,1.729,1.885,2.929a4.909,4.909,0,0,1-.782,1.27,7.6,7.6,0,0,0-.808,4.449c.144,6.007-.159,14.774-.015,20.781-6.785,2.841-13.469,1.823-20.748.772-.964-23.75-3.751-66.1-3.4-74.875.042-1.023,5.075-7,10.3-6.655,3.874.254,9.347,2.079,10.06,5.9" fill="#114449"/>
        <path id="Trazado_1295665" data-name="Trazado 1295665" d="M315.133,303.61s1.032-10.707,1.47-19.122H304.034l2.622,21.709Z" fill="#114449"/>
        <path id="Trazado_1295666" data-name="Trazado 1295666" d="M315.311,303.61v6.163H296.358s.734-3.6,11.345-5.739Z" fill="#114449"/>
        <path id="Trazado_1295667" data-name="Trazado 1295667" d="M316.4,286.527l-12.043.336.347,3.192h11.532Z" fill="#fcbf5c"/>
        <path id="Trazado_1295668" data-name="Trazado 1295668" d="M341.215,260.827s-.769,28.658-2.724,44.28l-8.4-.467-5.3-43.285Z" fill="#f5ba9c"/>
        <path id="Trazado_1295669" data-name="Trazado 1295669" d="M339.76,190.476a212.114,212.114,0,0,1,3.5,45.434c1.043.686,2.23,1.729,1.885,2.929a4.909,4.909,0,0,1-.782,1.27,7.589,7.589,0,0,0-.807,4.449l.429,18.022c-6.784,2.841-13.914,4.582-21.193,3.531-.964-23.75-5.739-48.211-12.962-70.856a9.368,9.368,0,0,1-.611-3c.056-2.745,2.508-4.85,5.015-5.97,4.784-2.137,10.235-2.051,15.463-1.708,3.873.254,9.346,2.079,10.059,5.9" fill="#114449"/>
        <path id="Trazado_1295670" data-name="Trazado 1295670" d="M338.725,303.61s1.033-10.707,1.471-19.122H327.627l2.622,21.709Z" fill="#114449"/>
        <path id="Trazado_1295671" data-name="Trazado 1295671" d="M338.9,303.61v6.163H319.95s.734-3.6,11.345-5.739Z" fill="#114449"/>
        <path id="Trazado_1295672" data-name="Trazado 1295672" d="M340,286.527l-12.043.336.347,3.192h11.532Z" fill="#fcbf5c"/>
        <path id="Trazado_1295673" data-name="Trazado 1295673" d="M319.551,242.194c-.813-5.653-1.662-11.311-2.963-16.876A67.252,67.252,0,0,0,310.96,209.4a43.322,43.322,0,0,0-5.223-7.853c-.265-.315.188-.773.455-.455a48.615,48.615,0,0,1,8.243,14.622,96.561,96.561,0,0,1,4.241,16.69c.561,3.2,1.034,6.4,1.5,9.614.058.4-.562.58-.621.171" fill="#fff"/>
        <path id="Trazado_1295674" data-name="Trazado 1295674" d="M309.731,212.11a6.552,6.552,0,0,0-3.637-3.9.333.333,0,0,1-.224-.4.324.324,0,0,1,.4-.225,7.254,7.254,0,0,1,4.086,4.352c.133.393-.489.562-.621.171" fill="#fff"/>
        <path id="Trazado_1295675" data-name="Trazado 1295675" d="M314.982,244.842a33.009,33.009,0,0,0-9.522-7.774c-.364-.2-.039-.754.325-.556a33.511,33.511,0,0,1,9.653,7.874c.265.316-.189.774-.456.456" fill="#fff"/>
        <path id="Trazado_1295676" data-name="Trazado 1295676" d="M307.284,242.565l-3.118-4.048a.323.323,0,0,1,.116-.44.33.33,0,0,1,.441.115l3.117,4.048a.325.325,0,0,1-.115.441.331.331,0,0,1-.441-.116" fill="#fff"/>
        <path id="Trazado_1295677" data-name="Trazado 1295677" d="M341.337,210.14a22.566,22.566,0,0,1-10.111-10.375,22.051,22.051,0,0,1-1.426-3.89.322.322,0,0,1,.621-.171,21.949,21.949,0,0,0,7.846,11.755,21.532,21.532,0,0,0,3.395,2.125c.37.186.045.742-.325.556" fill="#fff"/>
        <path id="Trazado_1295678" data-name="Trazado 1295678" d="M338.361,208.4l1.407,12.342q.346,3.051.7,6.1a18.629,18.629,0,0,1,.193,5.1,5.218,5.218,0,0,1-.81,2.119c-.324.472-1.4,1.346-1.052,2a1.159,1.159,0,0,0,.7.435,3.488,3.488,0,0,1,.879.381,1.438,1.438,0,0,1,.556,1.6,7.57,7.57,0,0,1-1.022,1.924,3.938,3.938,0,0,0-.6,2.334c.041.977.218,1.955.346,2.923q.2,1.525.4,3.051.91,6.919,1.82,13.838c.054.41-.59.406-.644,0q-.811-6.174-1.624-12.347-.4-3.051-.8-6.1a7.843,7.843,0,0,1-.049-2.651,6.649,6.649,0,0,1,1.014-2.04c.283-.46.831-1.234.465-1.781-.355-.53-1.186-.5-1.671-.877a1.291,1.291,0,0,1-.255-1.705c.377-.708,1.017-1.22,1.351-1.962a9.187,9.187,0,0,0,.33-4.742c-.223-2.037-.464-4.071-.7-6.107q-.787-6.917-1.576-13.832c-.047-.411.6-.408.644,0" fill="#fff"/>
        <path id="Trazado_1295679" data-name="Trazado 1295679" d="M329.163,252.032l-5.169-8.2c-.221-.351.336-.675.557-.325q2.583,4.1,5.168,8.2c.222.352-.335.675-.556.325" fill="#fff"/>
        <path id="Trazado_1295680" data-name="Trazado 1295680" d="M327.88,244.821l-3.1-4.505c-.236-.342.322-.665.556-.325l3.1,4.505c.236.342-.322.665-.556.325" fill="#fff"/>
        <path id="Trazado_1295681" data-name="Trazado 1295681" d="M312.43,90.193c1.793.412,3.161,1.824,4.388,3.2a15.349,15.349,0,0,1,3.473,5.273,5.676,5.676,0,0,1-1.191,5.9c-1.815,1.639-4.7,1.384-6.9.336a12.213,12.213,0,0,1-5.777-6.026,12.4,12.4,0,0,1-1.071-4.163,4.863,4.863,0,0,1,.068-2.058c.228-.505,1.007-.8,1.455-1.068,1.656-.98,3.6-1.838,5.56-1.387" fill="#fcbf5c"/>
        <path id="Trazado_1295682" data-name="Trazado 1295682" d="M303.589,88.775a12.816,12.816,0,0,0-3.559-2.85c-2.555-1.188-5.6-.563-8.18.558A8.729,8.729,0,0,0,288.6,88.65c-2.24,2.617-1.452,6.685.232,9.69a10.278,10.278,0,0,0,3.814,4.147c2.2,1.2,4.775,1.054,7.18.732a49.049,49.049,0,0,1,7.661-.632c1.859.04,3.894-.007,4.667-2.032.75-1.964-.451-3.507-1.755-4.837l-6.813-6.943" fill="#a9c66a"/>
        <path id="Trazado_1295683" data-name="Trazado 1295683" d="M308.676,96.689c-1.571-1.805-3.106-3.651-4.731-5.408a11.074,11.074,0,0,0-4.862-3.459c-2.244-.631-4.611.205-6.518,1.4a5.486,5.486,0,0,0-2.135,2.269,6.241,6.241,0,0,0-.526,3c.137,2.551,1.576,4.787,2.911,6.878.147.23-.218.442-.364.213-1.263-1.976-2.584-4.053-2.9-6.425a6.147,6.147,0,0,1,1.9-5.642,10.872,10.872,0,0,1,2.958-1.689,8.012,8.012,0,0,1,3.522-.632,8.889,8.889,0,0,1,5.372,2.814c.929.9,1.766,1.884,2.613,2.857l3.068,3.526c.178.205-.119.5-.3.3" fill="#114449"/>
        <path id="Trazado_1295684" data-name="Trazado 1295684" d="M313.514,116.6a.889.889,0,0,0,1.309-.593c.056-.435-.227-.847-.246-1.285-.037-.872.894-1.41,1.619-1.9a6.921,6.921,0,0,0,0-11.5,5.861,5.861,0,0,1-.971-.708,12.521,12.521,0,0,1-1.042-1.646,3.133,3.133,0,0,0-2.969-1.248c-2.716-3.447-8.25-4.481-11.74-1.821a15.721,15.721,0,0,1-2.252,1.7c-1.369.7-3.066.591-4.367,1.409a6.1,6.1,0,0,0-2.288,3.846c-.349,1.38-.508,2.992.394,4.093.709.865,1.93,1.211,2.577,2.124.342.483.51,1.108.983,1.466a2.674,2.674,0,0,0,1.789.31,58.276,58.276,0,0,1,11.447.479,6.309,6.309,0,0,1,2.14.58,4.59,4.59,0,0,1,1.572,1.511c.795,1.179,2.043,1.756,2.047,3.179" fill="#c66146"/>
        <path id="Trazado_1295685" data-name="Trazado 1295685" d="M310.778,122.8c7.992,1.677,16.561,3.8,21.625,9.55,2.66,3.021,4.06,6.752,5.264,10.438a129.245,129.245,0,0,1,6.376,50.673c-4.625.792-22.165,6.278-54.45.885a50.352,50.352,0,0,0,1.8-10.732c.055-2.782-.4-5.556-.4-8.338.012-4.087,1.034-8.131,1.066-12.217.03-3.926-.851-7.809-1.178-11.724-.5-5.946.353-12.12,3.562-17.354A21.432,21.432,0,0,1,310.118,123.9c-.041-.522.7-.573.66-1.1" fill="#efaf68"/>
        <path id="Trazado_1295686" data-name="Trazado 1295686" d="M315.523,109.879a2.285,2.285,0,1,1-1.436-3.162,2.471,2.471,0,0,1,1.436,3.162" fill="#f5ba9c"/>
        <path id="Trazado_1295687" data-name="Trazado 1295687" d="M311.894,128.8h0c2.381-.358,4.1-2.024,3.848-3.722l-3.649-14.113-7.97,5.963,2.381,9.8c.255,1.7,3.01,2.429,5.39,2.071" fill="#f5ba9c"/>
        <path id="Trazado_1295688" data-name="Trazado 1295688" d="M312.173,111.592s-2.258,6.778-7.8,6.443l1.327,5.294s5.624,3.308,6.472-11.737" fill="#ec766e"/>
        <path id="Trazado_1295689" data-name="Trazado 1295689" d="M310.761,100.284c.572,1.076,1.089,4.534,1.315,6.034.908,6.042-.974,13.7-6.046,14.463-5.465.821-9.123-6-10.031-12.045a26.23,26.23,0,0,1-.042-5.977l5.672-4.086Z" fill="#f5ba9c"/>
        <path id="Trazado_1295690" data-name="Trazado 1295690" d="M305.66,111.792c.094.626.887,1.026,1.771.893s1.525-.748,1.431-1.374-.888-1.027-1.772-.894-1.524.749-1.43,1.375" fill="#efaf68"/>
        <path id="Trazado_1295691" data-name="Trazado 1295691" d="M297.654,112.856c.08.532.788.866,1.583.746s1.373-.647,1.293-1.178-.789-.866-1.583-.747-1.373.647-1.293,1.179" fill="#efaf68"/>
        <path id="Trazado_1295692" data-name="Trazado 1295692" d="M308.267,106.727s-4.777-3.416-4.559-.409Z" fill="#c66146"/>
        <path id="Trazado_1295693" data-name="Trazado 1295693" d="M296.448,108.587s1.928-4.055,3.768-1.963Z" fill="#c66146"/>
        <path id="Trazado_1295694" data-name="Trazado 1295694" d="M305.033,109.249c.074.494.421.852.774.8s.579-.5.505-.991-.421-.852-.774-.8-.579.5-.505.991" fill="#114449"/>
        <path id="Trazado_1295695" data-name="Trazado 1295695" d="M298.084,110.364c.069.458.39.79.718.74s.537-.46.468-.918-.39-.79-.718-.741-.537.461-.468.919" fill="#114449"/>
        <path id="Trazado_1295696" data-name="Trazado 1295696" d="M303,111.04a1.108,1.108,0,0,1-.554.915,1.627,1.627,0,0,1-.485.146.552.552,0,0,0-.132.037c.048-.023-.07.068-.016.014-.005,0-.062.073-.026.024a.539.539,0,0,0-.06.1c.025-.056-.015.055-.018.067-.008.03-.014.06-.02.091.012-.067,0,.046,0,.06,0,.037,0,.074,0,.111,0-.057,0,0,.005.026a.8.8,0,0,0,.031.106c-.026-.07.02.027.029.041-.028-.045,0-.008.016.013-.032-.023-.033-.024,0,0s.03.017-.005,0a.393.393,0,0,0,.059.015c-.035,0-.033-.006.006,0s.063,0,.094-.005.042,0,.009,0l.062-.009a.968.968,0,0,1,.605.067.322.322,0,0,1-.325.556c.031.011.029.01-.007,0s-.038-.008,0,0a.994.994,0,0,0-.122,0h-.009l-.063.009c-.059.008-.12.017-.18.021a.754.754,0,0,1-.574-.194,1.1,1.1,0,0,1-.242-1.015,1.046,1.046,0,0,1,.263-.519.927.927,0,0,1,.52-.249c.046-.009.091-.016.136-.026.013,0,.132-.04.074-.016a.824.824,0,0,0,.1-.058c.031-.022.033-.023.007,0l.044-.041c.014-.014.028-.029.041-.044l.005-.007c.021-.034.042-.068.06-.1-.027.056.015-.051.018-.065a.556.556,0,0,0,.012-.059c-.005.036-.006.035,0,0a.322.322,0,1,1,.644,0" fill="#ec766e"/>
        <path id="Trazado_1295697" data-name="Trazado 1295697" d="M304.78,115.723l-.023.009.077-.032a1.044,1.044,0,0,0-.226.132l.066-.05a.952.952,0,0,0-.124.113.237.237,0,0,1-.1.067.251.251,0,0,1-.124.028.249.249,0,0,1-.124-.028.237.237,0,0,1-.1-.067.324.324,0,0,1-.094-.227c0-.029.008-.058.011-.086a.324.324,0,0,1,.083-.142,1.324,1.324,0,0,1,.515-.338.242.242,0,0,1,.128-.006.286.286,0,0,1,.21.121.239.239,0,0,1,.058.11.321.321,0,0,1-.033.248c-.016.022-.033.044-.05.065a.315.315,0,0,1-.142.083" fill="#ec766e"/>
        <path id="Trazado_1295698" data-name="Trazado 1295698" d="M313.929,108.394c-.066.061-.13.124-.19.19-.029.031-.057.063-.084.1l-.05.062c.021-.027,0,0-.007.01a3.127,3.127,0,0,0-.281.458c-.019.038-.037.077-.054.115-.008.017-.018.042-.005.011-.008.019-.016.039-.023.058-.032.084-.061.169-.086.256s-.045.173-.062.261c0,.021-.007.042-.011.063s-.013.088-.008.051,0,.03,0,.035c0,.027-.005.053-.007.079a.328.328,0,0,1-.322.322.324.324,0,0,1-.322-.322,3.362,3.362,0,0,1,1.061-2.2.322.322,0,0,1,.455.455" fill="#ec766e"/>
        <path id="Trazado_1295699" data-name="Trazado 1295699" d="M304.074,113.241a1.094,1.094,0,0,1,.606,1.322.933.933,0,0,1-.594.584,1.107,1.107,0,0,1-.87-.135,2.494,2.494,0,0,1-.663-.676.323.323,0,0,1,.116-.441.33.33,0,0,1,.44.116l.064.084c-.047-.062.023.028.031.038.039.048.08.095.122.139s.087.086.133.127c.028.023.027.022,0,0a.418.418,0,0,0,.043.03.561.561,0,0,0,.066.041c.012.008.112.061.038.024a.488.488,0,0,0,.1.032.3.3,0,0,0,.075.017c-.044,0-.047-.006-.01,0l.05,0,.051,0c.036,0,.033,0-.012,0,.015.006.059-.016.073-.019.034-.013.031-.011-.007,0l.038-.021.036-.024c-.033.027-.041.032-.023.017l.054-.054c.022-.026.019-.021-.01.015l.024-.037c.011-.019.021-.038.031-.057s.012-.027-.007.016c.005-.014.01-.027.014-.042s.026-.081.019-.085-.005.079,0,0a.316.316,0,0,0,0-.088c.007.05.008.057,0,.02l-.008-.034a.22.22,0,0,0-.025-.076c.018.041.02.046,0,.014l-.022-.041c-.011-.02-.024-.039-.036-.058s-.018-.025.008.01l-.03-.035q-.031-.034-.066-.066l-.018-.015c-.027-.022-.024-.02.011.007a.469.469,0,0,0-.161-.093.324.324,0,0,1-.116-.441.332.332,0,0,1,.441-.115" fill="#ec766e"/>
        <path id="Trazado_1295700" data-name="Trazado 1295700" d="M307.544,103.715a9.557,9.557,0,0,0-3.767-.519l-6.948-.021a1.817,1.817,0,0,1-.864-.145,1.239,1.239,0,0,1-.4-1.547,3.6,3.6,0,0,1,1.141-1.306c1.606-1.326,3.352-2.712,5.427-2.886a9.085,9.085,0,0,1,2.653.271,37.142,37.142,0,0,1,4.558,1.292,6.093,6.093,0,0,1,2.544,1.441c1.269,1.38,1.086,3.377.813,5.084-.069.434-.018,1.582-.6,1.706-.4.086-.8-.313-1.059-.556-.344-.317-.674-.648-1.01-.973a8.557,8.557,0,0,0-2.488-1.841" fill="#c66146"/>
        <path id="Trazado_1295701" data-name="Trazado 1295701" d="M365.119,186.616a10.405,10.405,0,0,1-.964,5.058c-1.209,2.216-3.649,3.457-6.041,4.267a31.043,31.043,0,0,1-5.418,1.307,4.372,4.372,0,0,1-1.787,0c-1.462-.4-2.157-2.041-2.556-3.5a35.652,35.652,0,0,1-1.241-10.106,7.794,7.794,0,0,1,.438-2.777,6.99,6.99,0,0,1,2.529-2.869,17.454,17.454,0,0,1,9.689-3.244c1.1-.029,2.548-.119,3.3.845.906,1.156,1.114,3.087,1.389,4.477a34.461,34.461,0,0,1,.658,6.549" fill="#a9c66a"/>
        <path id="Trazado_1295702" data-name="Trazado 1295702" d="M365.338,179.971a81.3,81.3,0,0,1-14.448,6.5q-2.145.723-4.329,1.325a.215.215,0,0,1-.114-.414,80.834,80.834,0,0,0,14.745-5.671q1.994-1,3.929-2.113a.215.215,0,0,1,.217.371" fill="#114449"/>
        <path id="Trazado_1295703" data-name="Trazado 1295703" d="M353.682,182.786q.276,1.485.553,2.968.161.855.319,1.711a2.852,2.852,0,0,1-.039,1.622,1.98,1.98,0,0,1-2.308,1.152,3.229,3.229,0,0,1-2.249-1.555,4.742,4.742,0,0,1-.492-1.506q-.209-1.006-.388-2.018a4.541,4.541,0,0,1,.206-3.071,3.886,3.886,0,0,1,2.972-1.5.9.9,0,0,1,1.094.579,21.112,21.112,0,0,1,.5,2.293c.057.27-.357.385-.415.114q-.18-.855-.361-1.709c-.048-.224-.071-.662-.285-.806s-.549-.038-.775.007A3.141,3.141,0,0,0,349.6,182.4a4.779,4.779,0,0,0-.051,2.983q.154.842.327,1.681a4.388,4.388,0,0,0,.449,1.4,2.794,2.794,0,0,0,2.082,1.369,1.65,1.65,0,0,0,1.343-.353,1.721,1.721,0,0,0,.463-1.467c-.1-.789-.289-1.574-.435-2.355q-.257-1.381-.514-2.761c-.05-.27.363-.386.414-.114" fill="#114449"/>
        <path id="Trazado_1295704" data-name="Trazado 1295704" d="M361.553,178.973c.34,1.019.63,2.053.928,3.085.136.472.275.943.422,1.411a9.619,9.619,0,0,1,.4,1.376,1.417,1.417,0,0,1-1.007,1.682,12.356,12.356,0,0,1-1.437.454,1.7,1.7,0,0,1-1.243.046c-.342-.2-.5-.654-.663-.986q-.357-.719-.681-1.453-.618-1.4-1.111-2.855a6.162,6.162,0,0,1-.509-2.811,2.474,2.474,0,0,1,4.908.108c.035.273-.4.271-.43,0a2.054,2.054,0,0,0-3.042-1.519c-1.57.919-.963,2.788-.492,4.171a30.616,30.616,0,0,0,1.971,4.619c.136.254.261.412.586.392a3.269,3.269,0,0,0,.592-.126c.4-.1.8-.226,1.2-.366s.806-.276.927-.707a1.933,1.933,0,0,0-.1-1.049c-.538-1.785-1.04-3.59-1.63-5.358-.088-.263.327-.375.414-.114" fill="#114449"/>
        <path id="Trazado_1295705" data-name="Trazado 1295705" d="M322.1,156.183a45.991,45.991,0,0,0,20.239,23.875,9.251,9.251,0,0,1,2.272,1.577c1.6,1.7,1.511,4.335,1.324,6.663-.047.585-.2,1.3-.768,1.455a1.39,1.39,0,0,1-.863-.145c-7.4-3.017-12.468-9.828-16.816-16.528-3.8-5.862-7.39-11.96-9.444-18.639a45.067,45.067,0,0,1,.346-27.367,4.777,4.777,0,0,1,1.275-2.243c.511-.426,1.993-.838,2.385,0,.169.362-.183.643-.328.974a14.477,14.477,0,0,0-.53,1.675,45.466,45.466,0,0,0-1.467,6.925,46.387,46.387,0,0,0,.311,14.118,44.864,44.864,0,0,0,2.064,7.657" fill="#114449"/>
        <path id="Trazado_1295706" data-name="Trazado 1295706" d="M293.866,152.722c-.148,1.657.259-.216-1.133-.374a2.2,2.2,0,0,1-1.651-1.336,5.407,5.407,0,0,1-.372-2.174,44.9,44.9,0,0,1,.738-7.394,32.033,32.033,0,0,1,1.78-7.586,10.275,10.275,0,0,1,5.122-5.642.571.571,0,0,1,.527-.036c.3.2.041.65-.209.905a16.09,16.09,0,0,0-3.722,6.709,89.5,89.5,0,0,0-1.415,14.489c.02.853.51.48.335,2.439" fill="#114449"/>
        <path id="Trazado_1295707" data-name="Trazado 1295707" d="M306.687,204.885l17.476-4.8V148.5l-17.476,4.8Z" fill="#fff"/>
        <path id="Trazado_1295708" data-name="Trazado 1295708" d="M306.687,204.885l-17.476-4.8V148.5l17.476,4.8Z" fill="#fff"/>
        <path id="Trazado_1295709" data-name="Trazado 1295709" d="M271.734,204.885l17.476-4.8V148.5l-17.476,4.8Z" fill="#fff"/>
        <path id="Trazado_1295710" data-name="Trazado 1295710" d="M271.734,204.885l-17.476-4.8V148.5l17.476,4.8Z" fill="#fff"/>
        <path id="Trazado_1295711" data-name="Trazado 1295711" d="M267.657,161.535c1.246.777,2.869.236,4.324.435a4.3,4.3,0,0,1,3.526,3.25c.319,1.441-.138,2.949.035,4.416.17,1.45.948,2.793,1.01,4.252a4.5,4.5,0,0,1-2.434,4.122c-2.088,1.039-4.574.29-6.906.315a10.355,10.355,0,0,1-3.39-.147,6.064,6.064,0,0,1-2.588-2.051c-1.458-1.759-2.723-3.965-2.322-6.214.284-1.593,1.365-2.938,1.778-4.5s.37-2.891,1.634-4.072c.924-.863,1.951-2.449,3.368-1.6.775.464,1.2,1.323,1.965,1.8" fill="#a9c66a"/>
        <path id="Trazado_1295712" data-name="Trazado 1295712" d="M324.163,172.248a3.724,3.724,0,0,0-4.152,2.1c-.618,1.344-.488,3.113-1.632,4.05a4.813,4.813,0,0,1-2.476.756c-2.374.328-4.994,1.415-5.705,3.7-.85,2.737,1.474,5.765.493,8.457-.217.594-.584,1.127-.763,1.733a3.711,3.711,0,0,0,1.969,4.088,6.5,6.5,0,0,0,4.784.273c1.077-.3,2.214-.78,3.271-.415a8.566,8.566,0,0,1,1.82,1.208,2.421,2.421,0,0,0,2.391.08Z" fill="#a9c66a"/>
        <path id="Trazado_1295713" data-name="Trazado 1295713" d="M294.813,155.117a9.953,9.953,0,0,0,1.371,1.764c.91.781,2.184.939,3.289,1.4a7.387,7.387,0,0,1,4.13,5.345,11.725,11.725,0,0,1-.879,6.863c-.84,2-2.544,4.062-4.692,3.8-1.126-.138-2.115-.914-3.249-.967-1.768-.082-3.122,1.564-4.822,2.058a4.431,4.431,0,0,1-4.161-1.1,5.9,5.9,0,0,1-1.749-4.027c-.052-1.127.166-2.259.046-3.381-.233-2.168-1.692-4.026-2.12-6.164-.55-2.756,1-5.6,2.95-7.47,1.625-1.564,3.7-1.416,5.748-.859a7.559,7.559,0,0,1,4.138,2.734" fill="#a9c66a"/>
        <path id="Trazado_1295714" data-name="Trazado 1295714" d="M297.535,176.336a1.8,1.8,0,0,1,1.178,1.809,1.269,1.269,0,0,1-.251.68,2.593,2.593,0,0,1-1.219.634,4.286,4.286,0,0,0-1.8,1.273,5.891,5.891,0,0,1-.677.782,2.52,2.52,0,0,1-3.178-.388,2.124,2.124,0,0,1-.722-1.173,2.859,2.859,0,0,1,.226-1.366,6.6,6.6,0,0,1,1.732-2.916,1.462,1.462,0,0,1,1.071-.383,4.11,4.11,0,0,1,1.505.637c.68.345,1.436.173,2.138.411" fill="#a9c66a"/>
        <path id="Trazado_1295715" data-name="Trazado 1295715" d="M274.841,184.993a11.891,11.891,0,0,1,1.063,1.861,14.7,14.7,0,0,0,2.44,2.446,3.181,3.181,0,0,1,1.114,3.092,3.054,3.054,0,0,1-2.722,1.723c-1.131.11-2.286-.076-3.4.139-1.413.274-2.65,1.173-4.069,1.419a5.122,5.122,0,0,1-5.626-4.191c-.387-2.419,1.011-4.338,2.747-5.826A7.583,7.583,0,0,1,270.966,184c1.286-.122,2.943-.04,3.875.991" fill="#a9c66a"/>
        <path id="Trazado_1295716" data-name="Trazado 1295716" d="M306.687,204.885a4.787,4.787,0,0,0-.986-4.506c-.54-.59-1.235-1.027-1.749-1.64a9.992,9.992,0,0,1-1.455-3.277,16.157,16.157,0,0,0-2.953-5.16,9.7,9.7,0,0,0-4.017-2.981,5.441,5.441,0,0,0-4.851.472c-1.354.938-2.072,2.55-3.265,3.685-1.771,1.684-4.461,2.2-6.07,4.044-1.65,1.888-1.732,4.637-1.729,7.145l9.6-2.583Z" fill="#9ad4e3"/>
        <path id="Trazado_1295717" data-name="Trazado 1295717" d="M254.258,198.453a11.711,11.711,0,0,0,4.461-2.712,5.269,5.269,0,0,0,1.49-4.682c-.7-2.981-4.55-4.68-4.631-7.743-.027-1.033.408-2.031.427-3.065s-.716-2.331-1.747-2.257Z" fill="#9ad4e3"/>
        <path id="Trazado_1295718" data-name="Trazado 1295718" d="M321.272,149.358c.931.8.509,2.35-.22,3.342s-1.73,1.914-1.824,3.141c-.06.777.271,1.538.269,2.318,0,2.1-2.22,3.393-3.442,5.1-1.546,2.157-1.482,5.034-1.357,7.685.036.754-.029,1.684-.711,2-.967.451-1.845-.832-1.974-1.891-.286-2.317.492-4.835-.577-6.91a13.855,13.855,0,0,0-1.449-1.982c-1.823-2.381-2.576-5.958-3.3-8.867Z" fill="#9ad4e3"/>
        <path id="Trazado_1295719" data-name="Trazado 1295719" d="M306.687,205.028a.143.143,0,0,0,.143-.143V153.3a.143.143,0,1,0-.286,0v51.587a.143.143,0,0,0,.143.143" fill="#114449"/>
        <path id="Trazado_1295720" data-name="Trazado 1295720" d="M289.211,200.227a.143.143,0,0,0,.143-.143V148.5a.143.143,0,0,0-.286,0v51.587a.143.143,0,0,0,.143.143" fill="#114449"/>
        <path id="Trazado_1295721" data-name="Trazado 1295721" d="M271.734,205.028a.143.143,0,0,0,.143-.143V153.3a.143.143,0,0,0-.286,0v51.587a.143.143,0,0,0,.143.143" fill="#114449"/>
        <path id="Trazado_1295722" data-name="Trazado 1295722" d="M317.751,151.956l.9,1.344a.189.189,0,0,1-.067.256.191.191,0,0,1-.256-.067l-.9-1.344a.187.187,0,0,1,.323-.189" fill="#114449"/>
        <path id="Trazado_1295723" data-name="Trazado 1295723" d="M319.735,155.116l.679.891a.188.188,0,0,1-.067.256.193.193,0,0,1-.256-.067l-.679-.891a.187.187,0,0,1,.067-.256.193.193,0,0,1,.256.067" fill="#114449"/>
        <path id="Trazado_1295724" data-name="Trazado 1295724" d="M320.893,158.283q.223.672.448,1.344a.189.189,0,0,1-.131.23.191.191,0,0,1-.23-.13q-.224-.672-.448-1.345a.187.187,0,1,1,.361-.1" fill="#114449"/>
        <path id="Trazado_1295725" data-name="Trazado 1295725" d="M320.7,161.413q.116.56.232,1.119a.187.187,0,0,1-.361.1q-.115-.56-.232-1.118a.193.193,0,0,1,.131-.231.191.191,0,0,1,.23.131" fill="#114449"/>
        <path id="Trazado_1295726" data-name="Trazado 1295726" d="M319.524,165.434l-.9.893a.187.187,0,0,1-.264-.265l.9-.892a.188.188,0,0,1,.264,0,.19.19,0,0,1,0,.264" fill="#114449"/>
        <path id="Trazado_1295727" data-name="Trazado 1295727" d="M317.49,167.066a1.221,1.221,0,0,1-1.258,1.074.187.187,0,0,1,0-.374.984.984,0,0,0,.18,0c-.047.005,0,0,.009,0s.029-.006.044-.009a.849.849,0,0,0,.086-.025l.042-.015c.047-.017-.034.017.01,0,.028-.013.055-.026.081-.041s.051-.031.076-.047l.037-.026c.04-.03-.028.024.01-.008a1.385,1.385,0,0,0,.128-.126c.01-.012.02-.023.029-.035-.02.025,0,0,.007-.01s.033-.05.048-.076.028-.052.042-.079-.006.018,0,0l.015-.042a.841.841,0,0,0,.025-.086c0-.014.007-.029.01-.044.009-.05,0,.022,0-.017a.191.191,0,0,1,.187-.187c.092,0,.2.083.187.187" fill="#114449"/>
        <path id="Trazado_1295728" data-name="Trazado 1295728" d="M314.982,168.353l-.9.448a.187.187,0,1,1-.189-.323l.9-.448a.187.187,0,1,1,.189.323" fill="#114449"/>
        <path id="Trazado_1295729" data-name="Trazado 1295729" d="M312.423,168.6h-.9a.187.187,0,1,1,0-.374h.9a.189.189,0,0,1,.187.187.191.191,0,0,1-.187.187" fill="#114449"/>
        <path id="Trazado_1295730" data-name="Trazado 1295730" d="M309.179,168.153l-.446-.227a.187.187,0,0,1-.067-.256.189.189,0,0,1,.255-.067l.447.227a.187.187,0,0,1-.189.323" fill="#114449"/>
        <path id="Trazado_1295731" data-name="Trazado 1295731" d="M307.082,165.876a.664.664,0,0,1-.584-.068.683.683,0,0,1-.328-.528.187.187,0,0,1,.187-.187.191.191,0,0,1,.187.187c0,.043-.005-.026,0-.012l.005.025a.441.441,0,0,0,.015.052c.006.016.022.036-.006-.013l.011.022a.386.386,0,0,0,.026.043c0,.007.027.038.005.009s0,0,0,0,.025.027.038.04.061.044.008.008a.685.685,0,0,0,.094.058c.014.006.042.013-.013-.005a.232.232,0,0,1,.024.009l.048.014.025.005c.043.009-.027,0-.012,0a.9.9,0,0,0,.1,0c-.067,0-.013,0,.008-.005a.294.294,0,0,0,.057-.019.191.191,0,0,1,.144.019.2.2,0,0,1,.086.112.19.19,0,0,1-.019.144.219.219,0,0,1-.112.086" fill="#114449"/>
        <path id="Trazado_1295732" data-name="Trazado 1295732" d="M304.643,163.581l-.672-.9a.188.188,0,0,1,.067-.256.193.193,0,0,1,.256.067l.672.9a.188.188,0,0,1-.067.256.193.193,0,0,1-.256-.067" fill="#114449"/>
        <path id="Trazado_1295733" data-name="Trazado 1295733" d="M301.711,160.005q-.222-.45-.442-.9a.187.187,0,1,1,.323-.189q.221.45.442.9a.192.192,0,0,1-.067.256.189.189,0,0,1-.256-.067" fill="#114449"/>
        <path id="Trazado_1295734" data-name="Trazado 1295734" d="M299.919,156.142q-.224-.561-.448-1.12a.187.187,0,0,1,.131-.23.192.192,0,0,1,.23.13q.223.561.448,1.12a.189.189,0,0,1-.131.231.194.194,0,0,1-.23-.131" fill="#114449"/>
        <path id="Trazado_1295735" data-name="Trazado 1295735" d="M299.334,153.788a1.291,1.291,0,0,1-.529-1.329.188.188,0,0,1,.23-.131.191.191,0,0,1,.13.23l-.008.04s-.006.038,0,.015,0,.018,0,.023,0,.021,0,.032a1.118,1.118,0,0,0,0,.153l0,.04c0-.017,0-.022,0,0s.009.047.014.071a1.24,1.24,0,0,0,.046.146c.006.017.007.017,0,0l.016.036.034.065a1.2,1.2,0,0,0,.08.121c-.022-.029,0,0,.005.006l.027.031c.016.018.033.035.05.052l.054.048c.013.011.015.012,0,0l.04.028a.187.187,0,0,1-.189.323" fill="#114449"/>
        <path id="Trazado_1295736" data-name="Trazado 1295736" d="M297.891,151.951c-.153-.222-.3-.444-.458-.665a.188.188,0,0,1,.067-.256.19.19,0,0,1,.256.067l.458.665a.188.188,0,0,1-.067.256.192.192,0,0,1-.256-.067" fill="#114449"/>
        <path id="Trazado_1295737" data-name="Trazado 1295737" d="M280.955,151.709l.892,1.124a.192.192,0,0,1,0,.264.189.189,0,0,1-.265,0l-.891-1.124a.19.19,0,0,1,0-.264.188.188,0,0,1,.264,0" fill="#114449"/>
        <path id="Trazado_1295738" data-name="Trazado 1295738" d="M283.652,155.288l.448.448a.192.192,0,0,1,.055.132.2.2,0,0,1-.055.133.19.19,0,0,1-.264,0l-.448-.449a.19.19,0,0,1-.055-.132.187.187,0,0,1,.319-.132" fill="#114449"/>
        <path id="Trazado_1295739" data-name="Trazado 1295739" d="M285.406,158.171l.672.448a.187.187,0,0,1-.189.323l-.672-.448a.187.187,0,1,1,.189-.323" fill="#114449"/>
        <path id="Trazado_1295740" data-name="Trazado 1295740" d="M287.65,160.408l.672.449a.187.187,0,0,1-.19.323l-.672-.449a.187.187,0,1,1,.19-.323" fill="#114449"/>
        <path id="Trazado_1295741" data-name="Trazado 1295741" d="M289.792,162.414a1.11,1.11,0,0,1,.857.516.187.187,0,0,1-.323.189c-.01-.015-.019-.03-.03-.044l-.012-.017c-.022-.03.021.025.007.009s-.044-.051-.068-.075-.022-.022-.034-.032l-.02-.017c-.006,0-.031-.024-.006,0s0,0-.006-.005l-.017-.012-.045-.029c-.027-.016-.055-.031-.083-.045l-.024-.011c-.021-.01.041.016.01.005l-.044-.017c-.032-.01-.064-.019-.1-.026a.155.155,0,0,0-.052-.01s.046.006.018,0l-.031,0a.187.187,0,0,1,0-.374" fill="#114449"/>
        <path id="Trazado_1295742" data-name="Trazado 1295742" d="M291.27,163.8l.672.672a.187.187,0,1,1-.264.265l-.672-.673a.187.187,0,0,1,0-.264.19.19,0,0,1,.264,0" fill="#114449"/>
        <path id="Trazado_1295743" data-name="Trazado 1295743" d="M293.034,165.552l.9.673a.205.205,0,0,1,.086.112.2.2,0,0,1-.019.144.189.189,0,0,1-.256.067l-.9-.673a.205.205,0,0,1-.086-.112.2.2,0,0,1,.019-.144.189.189,0,0,1,.256-.067" fill="#114449"/>
        <path id="Trazado_1295744" data-name="Trazado 1295744" d="M294.542,167.579a1.584,1.584,0,0,1,1.032,1.235.193.193,0,0,1-.131.23.19.19,0,0,1-.23-.131,1.27,1.27,0,0,0-.036-.173c-.008-.031-.018-.062-.029-.092-.005-.013-.01-.025-.014-.038s.011.025,0-.007a1.57,1.57,0,0,0-.082-.157c-.017-.027-.034-.054-.053-.081-.007-.011-.016-.021-.023-.032s-.007-.009,0,.006l-.015-.019a1.341,1.341,0,0,0-.12-.13c-.021-.021-.043-.04-.066-.059l-.037-.031c.021.017,0,0-.008,0a1.207,1.207,0,0,0-.149-.094c-.026-.014-.053-.027-.08-.039-.048-.022.035.012-.014-.006l-.046-.017a.191.191,0,0,1-.13-.23.189.189,0,0,1,.23-.131" fill="#114449"/>
        <path id="Trazado_1295745" data-name="Trazado 1295745" d="M296,169.494l.513,1.319a.188.188,0,0,1-.131.23.191.191,0,0,1-.23-.13l-.513-1.32a.187.187,0,0,1,.361-.1" fill="#114449"/>
        <path id="Trazado_1295746" data-name="Trazado 1295746" d="M296.7,172.672v1.12a.187.187,0,1,1-.374,0v-1.12a.187.187,0,1,1,.374,0" fill="#114449"/>
        <path id="Trazado_1295747" data-name="Trazado 1295747" d="M296.247,175.586a1.607,1.607,0,0,1-.481,1.268.187.187,0,1,1-.265-.264,1.369,1.369,0,0,0,.1-.112l.013-.016c-.01.014.011-.014.013-.016l.04-.059a1.454,1.454,0,0,0,.077-.132c.011-.021.021-.043.031-.065s.009-.023,0,0l.016-.042a1.5,1.5,0,0,0,.073-.286c0,.02,0,.011,0,0l0-.035c0-.024,0-.048,0-.072,0-.054,0-.107-.005-.161a.188.188,0,0,1,.187-.187.192.192,0,0,1,.187.187" fill="#114449"/>
        <path id="Trazado_1295748" data-name="Trazado 1295748" d="M295.3,178.63l-.448.448a.192.192,0,0,1-.132.055.2.2,0,0,1-.133-.055.19.19,0,0,1,0-.264l.448-.449a.194.194,0,0,1,.133-.054.187.187,0,0,1,.132.319" fill="#114449"/>
        <path id="Trazado_1295749" data-name="Trazado 1295749" d="M293.933,180.245l-.9.672a.188.188,0,0,1-.256-.067.193.193,0,0,1,.067-.256l.9-.672a.188.188,0,0,1,.256.067.193.193,0,0,1-.067.256" fill="#114449"/>
        <path id="Trazado_1295750" data-name="Trazado 1295750" d="M291.866,181.4l-1.119.232a.187.187,0,1,1-.1-.361l1.119-.232a.187.187,0,1,1,.1.361" fill="#114449"/>
        <path id="Trazado_1295751" data-name="Trazado 1295751" d="M287.913,181.339l-.672-.448a.187.187,0,0,1,.188-.323l.673.448a.187.187,0,1,1-.189.323" fill="#114449"/>
        <path id="Trazado_1295752" data-name="Trazado 1295752" d="M285.18,179.526l-.9-.9a.187.187,0,0,1,.264-.265l.9.9a.187.187,0,0,1,0,.264.19.19,0,0,1-.264,0" fill="#114449"/>
        <path id="Trazado_1295753" data-name="Trazado 1295753" d="M283.357,176.751q-.114-.56-.229-1.119a.187.187,0,0,1,.361-.1q.114.56.229,1.119a.193.193,0,0,1-.131.231.19.19,0,0,1-.23-.131" fill="#114449"/>
        <path id="Trazado_1295754" data-name="Trazado 1295754" d="M283.574,173.97a4.438,4.438,0,0,1,.92-1.666.19.19,0,0,1,.265,0,.192.192,0,0,1,0,.265,3.988,3.988,0,0,0-.824,1.5.187.187,0,0,1-.361-.1" fill="#114449"/>
        <path id="Trazado_1295755" data-name="Trazado 1295755" d="M285.885,172.053l.895-.45a.187.187,0,1,1,.189.323l-.895.45a.187.187,0,1,1-.189-.323" fill="#114449"/>
        <path id="Trazado_1295756" data-name="Trazado 1295756" d="M288.508,172.223l1.12.228a.188.188,0,0,1,.13.23.192.192,0,0,1-.23.131l-1.119-.228a.189.189,0,0,1-.131-.23.192.192,0,0,1,.23-.131" fill="#114449"/>
        <path id="Trazado_1295757" data-name="Trazado 1295757" d="M290.268,173.469a3.155,3.155,0,0,1,1.759,1.314c.131.2-.193.391-.323.189a2.753,2.753,0,0,0-1.535-1.142.187.187,0,0,1,.1-.361" fill="#114449"/>
        <path id="Trazado_1295758" data-name="Trazado 1295758" d="M293.358,176.81c.223.374.447.748.669,1.122a.19.19,0,0,1-.066.256.193.193,0,0,1-.257-.068q-.333-.56-.67-1.121a.188.188,0,0,1,.324-.189" fill="#114449"/>
        <path id="Trazado_1295759" data-name="Trazado 1295759" d="M294.69,180.119c-.006.024-.011.048-.016.072,0,.006-.012.078-.007.041-.006.042-.008.085-.01.128a1.442,1.442,0,0,0,0,.147c0,.007.008.078,0,.041,0,.022.007.043.011.064a1.424,1.424,0,0,0,.076.264c.005.012.005.012,0,0l.015.033.033.066a1.438,1.438,0,0,0,.077.125.188.188,0,0,1-.067.256.191.191,0,0,1-.256-.067,1.6,1.6,0,0,1-.223-1.268.189.189,0,0,1,.23-.13.191.191,0,0,1,.131.23" fill="#114449"/>
        <path id="Trazado_1295760" data-name="Trazado 1295760" d="M295.1,184.414a1.2,1.2,0,0,0-.2.486c0,.006-.012.078-.008.042l-.006.056a1.462,1.462,0,0,0-.005.148c0,.044,0,.087.008.13q0,.034,0,.006l.006.037.015.073a.187.187,0,1,1-.36.1,1.643,1.643,0,0,1,.226-1.266.187.187,0,1,1,.323.189" fill="#114449"/>
        <path id="Trazado_1295761" data-name="Trazado 1295761" d="M294.187,188.493q-.549.571-1.1,1.142a.189.189,0,0,1-.265,0,.191.191,0,0,1,0-.264l1.1-1.142a.187.187,0,0,1,.264.264" fill="#114449"/>
        <path id="Trazado_1295762" data-name="Trazado 1295762" d="M291.942,190.505l-.672.672a.187.187,0,1,1-.265-.264l.672-.672a.187.187,0,0,1,.265.264" fill="#114449"/>
        <path id="Trazado_1295763" data-name="Trazado 1295763" d="M290.379,191.631a1.153,1.153,0,0,1-1.081.257.187.187,0,0,1,.1-.361c.035.01.071.018.107.025s0,0-.009,0a.2.2,0,0,1,.034,0l.055,0a1,1,0,0,0,.11,0c.006,0,.037,0,.01,0s0,0,.009,0l.061-.012c.035-.009.071-.019.105-.031l.026-.01c.029-.011-.006,0-.006,0l.049-.023a.922.922,0,0,0,.1-.06l.022-.016c.022-.014-.024.021-.005.005l.048-.04a.187.187,0,0,1,.264.264" fill="#114449"/>
        <path id="Trazado_1295764" data-name="Trazado 1295764" d="M287.328,192.576h-.9a.187.187,0,1,1,0-.374h.9a.187.187,0,1,1,0,.374" fill="#114449"/>
        <path id="Trazado_1295765" data-name="Trazado 1295765" d="M284.416,193.249h-1.568a.187.187,0,0,1,0-.374h1.568a.187.187,0,0,1,0,.374" fill="#114449"/>
        <path id="Trazado_1295766" data-name="Trazado 1295766" d="M281.055,194.369h-1.12a.187.187,0,1,1,0-.374h1.12a.189.189,0,0,1,.187.187.191.191,0,0,1-.187.187" fill="#114449"/>
        <path id="Trazado_1295767" data-name="Trazado 1295767" d="M278.723,195.658l-.448.448a.187.187,0,0,1-.265,0,.19.19,0,0,1,0-.264l.448-.449a.2.2,0,0,1,.133-.054.187.187,0,0,1,.132.319" fill="#114449"/>
        <path id="Trazado_1295768" data-name="Trazado 1295768" d="M277.154,197.9l-.448.448a.192.192,0,0,1-.132.055.187.187,0,0,1-.133-.319l.448-.449a.2.2,0,0,1,.133-.054.187.187,0,0,1,.132.319" fill="#114449"/>
        <path id="Trazado_1295769" data-name="Trazado 1295769" d="M276.287,200.326q-.223.448-.448.9a.187.187,0,0,1-.256.067.191.191,0,0,1-.067-.256q.224-.447.448-.9a.188.188,0,0,1,.256-.067.191.191,0,0,1,.067.256" fill="#114449"/>
        <path id="Trazado_1295770" data-name="Trazado 1295770" d="M275.417,202.92v.672a.188.188,0,0,1-.375,0v-.672a.189.189,0,0,1,.187-.187.191.191,0,0,1,.188.187" fill="#114449"/>
        <path id="Trazado_1295771" data-name="Trazado 1295771" d="M254.487,155.483l.672.448a.187.187,0,0,1-.189.323l-.672-.448a.187.187,0,0,1,.189-.323" fill="#114449"/>
        <path id="Trazado_1295772" data-name="Trazado 1295772" d="M256.356,157.56l.448.672a.189.189,0,0,1-.067.256.191.191,0,0,1-.256-.067l-.448-.672a.187.187,0,0,1,.067-.256.191.191,0,0,1,.256.067" fill="#114449"/>
        <path id="Trazado_1295773" data-name="Trazado 1295773" d="M258.1,160l.665.679a.187.187,0,0,1-.264.264l-.666-.679A.187.187,0,1,1,258.1,160" fill="#114449"/>
        <path id="Trazado_1295774" data-name="Trazado 1295774" d="M259.953,162.933l.224.448a.187.187,0,0,1-.211.275.193.193,0,0,1-.112-.086c-.074-.15-.15-.3-.225-.448a.2.2,0,0,1-.018-.144.183.183,0,0,1,.086-.112.189.189,0,0,1,.143-.019.192.192,0,0,1,.113.086" fill="#114449"/>
        <path id="Trazado_1295775" data-name="Trazado 1295775" d="M261.509,165.4l.448.672a.188.188,0,0,1-.067.256.191.191,0,0,1-.256-.067l-.448-.672a.188.188,0,0,1,.067-.256.191.191,0,0,1,.256.067" fill="#114449"/>
        <path id="Trazado_1295776" data-name="Trazado 1295776" d="M262.625,167.248q.115.672.23,1.343a.191.191,0,0,1-.131.23.188.188,0,0,1-.23-.13q-.114-.672-.23-1.343a.194.194,0,0,1,.131-.231.189.189,0,0,1,.23.131" fill="#114449"/>
        <path id="Trazado_1295777" data-name="Trazado 1295777" d="M263.318,170.208v1.344a.188.188,0,0,1-.375,0v-1.344a.188.188,0,0,1,.375,0" fill="#114449"/>
        <path id="Trazado_1295778" data-name="Trazado 1295778" d="M263.544,172.5l-.417,1.354a.192.192,0,0,1-.23.131.19.19,0,0,1-.131-.231l.417-1.353a.191.191,0,0,1,.23-.131.189.189,0,0,1,.131.23" fill="#114449"/>
        <path id="Trazado_1295779" data-name="Trazado 1295779" d="M263.082,175.238q-.334.673-.667,1.347a.188.188,0,0,1-.324-.189l.668-1.347a.187.187,0,1,1,.323.189" fill="#114449"/>
        <path id="Trazado_1295780" data-name="Trazado 1295780" d="M262.155,177.235l-.672.9a.2.2,0,0,1-.112.086.186.186,0,0,1-.211-.274l.672-.9a.205.205,0,0,1,.112-.086.191.191,0,0,1,.144.019.189.189,0,0,1,.067.256" fill="#114449"/>
        <path id="Trazado_1295781" data-name="Trazado 1295781" d="M260.527,179.314l-.9.448a.187.187,0,0,1-.189-.323l.9-.448a.187.187,0,0,1,.189.323" fill="#114449"/>
        <path id="Trazado_1295782" data-name="Trazado 1295782" d="M259.006,180.871l-.448.448a.187.187,0,0,1-.265,0,.19.19,0,0,1,0-.264l.448-.448a.2.2,0,0,1,.133-.055.188.188,0,0,1,.132.055.19.19,0,0,1,0,.264" fill="#114449"/>
        <path id="Trazado_1295783" data-name="Trazado 1295783" d="M257.94,182.307v1.12a.187.187,0,1,1-.374,0v-1.12a.187.187,0,1,1,.374,0" fill="#114449"/>
        <path id="Trazado_1295784" data-name="Trazado 1295784" d="M258.338,184.465l.227.446a.2.2,0,0,1,.019.144.187.187,0,0,1-.23.131.183.183,0,0,1-.112-.086c-.075-.149-.151-.3-.227-.446a.2.2,0,0,1-.019-.144.19.19,0,0,1,.086-.112.187.187,0,0,1,.144-.019.19.19,0,0,1,.112.086" fill="#114449"/>
        <path id="Trazado_1295785" data-name="Trazado 1295785" d="M259.06,186.564v.448a.19.19,0,0,1-.055.132.186.186,0,0,1-.132.055.19.19,0,0,1-.187-.187v-.448a.192.192,0,0,1,.055-.132.186.186,0,0,1,.132-.055.191.191,0,0,1,.187.187" fill="#114449"/>
        <path id="Trazado_1295786" data-name="Trazado 1295786" d="M259.006,189.161l-.672.672a.187.187,0,0,1-.265-.264l.672-.672a.187.187,0,1,1,.265.264" fill="#114449"/>
        <path id="Trazado_1295787" data-name="Trazado 1295787" d="M257.873,191.388l-.907.885a.187.187,0,1,1-.264-.264l.907-.885a.187.187,0,0,1,.264.264" fill="#114449"/>
        <path id="Trazado_1295788" data-name="Trazado 1295788" d="M256.52,193.625q-.447.561-.895,1.121a.187.187,0,0,1-.264,0,.191.191,0,0,1,0-.264l.9-1.122a.188.188,0,0,1,.264,0,.193.193,0,0,1,0,.265" fill="#114449"/>
        <path id="Trazado_1295789" data-name="Trazado 1295789" d="M254.973,196.331l-.224.224a.192.192,0,0,1-.132.055.147.147,0,0,1-.072-.016.136.136,0,0,1-.06-.039.184.184,0,0,1-.055-.132.191.191,0,0,1,.055-.132l.224-.225a.189.189,0,0,1,.132-.054.139.139,0,0,1,.072.016.137.137,0,0,1,.06.038.19.19,0,0,1,.055.133.194.194,0,0,1-.055.132" fill="#114449"/>
        <path id="Trazado_1295790" data-name="Trazado 1295790" d="M323.894,181.561l-1.341.24a.193.193,0,0,1-.231-.131.19.19,0,0,1,.131-.23l1.342-.24a.193.193,0,0,1,.23.131.19.19,0,0,1-.131.23" fill="#513c3c"/>
        <path id="Trazado_1295791" data-name="Trazado 1295791" d="M321.47,182.676l-1.138.641a.187.187,0,1,1-.189-.323l1.138-.641a.187.187,0,0,1,.189.323" fill="#513c3c"/>
        <path id="Trazado_1295792" data-name="Trazado 1295792" d="M319.239,184.485l-.9.672a.188.188,0,0,1-.256-.067.193.193,0,0,1,.067-.256l.9-.672a.188.188,0,0,1,.256.067.193.193,0,0,1-.067.256" fill="#513c3c"/>
        <path id="Trazado_1295793" data-name="Trazado 1295793" d="M317.712,186.477a1.464,1.464,0,0,0-.107.1l-.051.059c-.009.01-.015.018,0,0l-.021.028a1.255,1.255,0,0,0-.079.125c-.013.022-.025.046-.036.069a.311.311,0,0,0-.015.032c-.015.03,0-.008-.006.011a1.534,1.534,0,0,0-.08.284s-.005.039,0,.018,0,.015,0,.018q0,.039-.006.078a1.363,1.363,0,0,0,0,.157.187.187,0,0,1-.187.187.191.191,0,0,1-.187-.187,1.522,1.522,0,0,1,.514-1.249.187.187,0,1,1,.264.265" fill="#114449"/>
        <path id="Trazado_1295794" data-name="Trazado 1295794" d="M316.643,188.8v1.344a.187.187,0,1,1-.374,0V188.8a.187.187,0,1,1,.374,0" fill="#114449"/>
        <path id="Trazado_1295795" data-name="Trazado 1295795" d="M316.45,191.655c.073.225.146.449.218.674a.188.188,0,0,1-.13.23.191.191,0,0,1-.23-.131l-.219-.673a.189.189,0,0,1,.131-.231.192.192,0,0,1,.23.131" fill="#114449"/>
        <path id="Trazado_1295796" data-name="Trazado 1295796" d="M316.878,193.677q.221.561.442,1.123a.188.188,0,0,1-.13.23.192.192,0,0,1-.23-.131q-.222-.561-.443-1.123a.188.188,0,0,1,.131-.23.193.193,0,0,1,.23.131" fill="#114449"/>
        <path id="Trazado_1295797" data-name="Trazado 1295797" d="M317.359,196.132l.225.672a.189.189,0,0,1-.131.23.191.191,0,0,1-.23-.131l-.225-.671a.19.19,0,0,1,.131-.231.192.192,0,0,1,.23.131" fill="#114449"/>
        <path id="Trazado_1295798" data-name="Trazado 1295798" d="M317.275,198.523l-.67.9a.192.192,0,0,1-.256.068.188.188,0,0,1-.067-.256q.334-.448.67-.9a.192.192,0,0,1,.256-.067.189.189,0,0,1,.067.256" fill="#114449"/>
        <path id="Trazado_1295799" data-name="Trazado 1295799" d="M315.659,199.954l-.895.45a.187.187,0,1,1-.189-.323l.895-.45a.187.187,0,1,1,.189.323" fill="#114449"/>
        <path id="Trazado_1295800" data-name="Trazado 1295800" d="M314.086,201.289l-.673.448a.186.186,0,0,1-.255-.067.19.19,0,0,1,.066-.256l.672-.448a.188.188,0,0,1,.256.067.192.192,0,0,1-.066.256" fill="#114449"/>
        <path id="Trazado_1295801" data-name="Trazado 1295801" d="M312.833,202.355l-.228.446a.184.184,0,0,1-.111.086.19.19,0,0,1-.144-.018.192.192,0,0,1-.068-.256l.228-.447a.193.193,0,0,1,.112-.086.2.2,0,0,1,.144.019.192.192,0,0,1,.067.256" fill="#114449"/>
        <path id="Trazado_1295802" data-name="Trazado 1295802" d="M304.778,188.95q-2.486,3.758-4.97,7.515a.88.88,0,0,1-1.175.308.867.867,0,0,1-.308-1.175q2.484-3.758,4.97-7.515a.877.877,0,0,1,1.175-.308.867.867,0,0,1,.308,1.175" fill="#efaf68"/>
        <path id="Trazado_1295803" data-name="Trazado 1295803" d="M302.689,195.735a21.715,21.715,0,0,0-2.911-5.58.864.864,0,0,1,.308-1.175.878.878,0,0,1,1.175.308,23.183,23.183,0,0,1,3.084,5.99.859.859,0,1,1-1.656.457" fill="#efaf68"/>
        <path id="Trazado_1295804" data-name="Trazado 1295804" d="M266.53,155.908c-.279.283-.547.576-.8.882-.065.078-.13.157-.194.237l-.084.106c-.059.075-.039.038.009-.012a3.858,3.858,0,0,0-.361.5,14.375,14.375,0,0,0-1.191,2.062.864.864,0,0,1-1.176.308.883.883,0,0,1-.308-1.175,15.143,15.143,0,0,1,2.892-4.119.859.859,0,1,1,1.215,1.215" fill="#efaf68"/>
        <path id="Trazado_1295805" data-name="Trazado 1295805" d="M265.091,159.207l-2.667-4.717a.859.859,0,1,1,1.483-.867l2.667,4.717a.859.859,0,0,1-1.483.867" fill="#efaf68"/>
        <path id="Trazado_1295806" data-name="Trazado 1295806" d="M324.042,175.655a3.971,3.971,0,0,1-.8,2.268,3.6,3.6,0,0,1-1.753.98,7.813,7.813,0,0,1-5.307-.392,1.279,1.279,0,0,0-1.144.024.862.862,0,0,0,.055,1.513,2.835,2.835,0,0,0,1.279.358,6.367,6.367,0,0,1-2.026-.317.73.73,0,0,0-.975.686,1.538,1.538,0,0,0,.418,1,3.792,3.792,0,0,0,1.961.856,7.969,7.969,0,0,0,4.351.144,5.2,5.2,0,0,1-3.555.75,3.12,3.12,0,0,0-1.632-.049.863.863,0,0,0-.581.708c-.044.563.548.9,1.065,1.059a8.88,8.88,0,0,0,5.543-.083,4.924,4.924,0,0,1-3.117,1.523,2.311,2.311,0,0,0-1.485.4.681.681,0,0,0-.175.8c.171.319.526.331.842.326q2.8-.045,5.585-.328a4.124,4.124,0,0,0,2.4-.79,4.765,4.765,0,0,0,1.1-2.871,36.024,36.024,0,0,0,1.018-6.216,7.015,7.015,0,0,0-1.774-4.591c-.409-.464-1.131-1.265-1.285-.455a7.664,7.664,0,0,0,.055,1.332,12.521,12.521,0,0,1-.065,1.356" fill="#f5ba9c"/>
        <path id="Trazado_1295807" data-name="Trazado 1295807" d="M321.179,181.074a13.03,13.03,0,0,1-6.58-1.023c-.38-.165-.052-.72.325-.556a12.4,12.4,0,0,0,6.255.935c.412-.044.409.6,0,.644" fill="#ec766e"/>
        <path id="Trazado_1295808" data-name="Trazado 1295808" d="M320.943,182.759a7.39,7.39,0,0,1-4.664.04c-.392-.127-.224-.749.172-.621a6.791,6.791,0,0,0,4.321-.04c.392-.136.561.487.171.621" fill="#ec766e"/>
        <path id="Trazado_1295809" data-name="Trazado 1295809" d="M319.495,185.094a3.238,3.238,0,0,0,2.588-1.006c.285-.3.74.154.456.456a3.864,3.864,0,0,1-3.044,1.194.33.33,0,0,1-.322-.322.325.325,0,0,1,.322-.322" fill="#ec766e"/>
        <path id="Trazado_1295810" data-name="Trazado 1295810" d="M327.767,146.048a154.265,154.265,0,0,0,13.156,20.67,6.917,6.917,0,0,1-2.335,2.432c-3.857,2.85-8.673,7.622-12.837,10a34.9,34.9,0,0,0-1.3,8.308c10.914-3.393,21.534-8.307,29.548-16.454,1.407-1.43,3.23-3.045,2.364-4.854a123.3,123.3,0,0,0-21.686-31.535c-2.63,3.549-4.73,7.11-7.361,10.658-.11.149-.26.315-.442.284s.718.43.893.489" fill="#f5ba9c"/>
        <path id="Trazado_1295811" data-name="Trazado 1295811" d="M340.681,166.334a29.177,29.177,0,0,1,5.761-2.027c.4-.1.575.526.171.621a28.468,28.468,0,0,0-5.607,1.962c-.372.177-.7-.378-.325-.556" fill="#ec766e"/>
        <path id="Trazado_1295812" data-name="Trazado 1295812" d="M341.784,164.693l1.12-1.12a.322.322,0,0,1,.456.455l-1.12,1.121a.322.322,0,0,1-.456-.456" fill="#ec766e"/>
        <path id="Trazado_1295813" data-name="Trazado 1295813" d="M322.165,125.85s15.516,1.145,28.362,21.975c0,0-6.722,9.031-17.178,11.42l-11.542-17.082Z" fill="#efaf68"/>
        <path id="Trazado_1295814" data-name="Trazado 1295814" d="M332.9,158.733a38.589,38.589,0,0,1-7.906-10.516,28.879,28.879,0,0,1-3.15-13.281,24.122,24.122,0,0,1,1.392-7.793c.139-.387.762-.221.621.171a24.9,24.9,0,0,0-.762,13.656,31.673,31.673,0,0,0,5.43,11.806,40.751,40.751,0,0,0,4.831,5.5c.3.287-.157.742-.456.455" fill="#114449"/>
        <path id="Trazado_1295815" data-name="Trazado 1295815" d="M254.65,185.9a2.958,2.958,0,0,1,1.279,1.75,1.37,1.37,0,0,1-1.1,1.63,1.282,1.282,0,1,1-.3,2.525,2.65,2.65,0,0,1,1.092.782.957.957,0,0,1-.054,1.237,1.255,1.255,0,0,1-.634.238,2.373,2.373,0,0,1-2.035-.452,1.129,1.129,0,0,1,.209-1.8,1.422,1.422,0,0,1,.212-2.743,2.311,2.311,0,0,1-.85-1.393c-.051-.554.409-1.173.959-1.084a2.989,2.989,0,0,1-.709-1.806,1.427,1.427,0,0,1,2.146-1.073,1.372,1.372,0,0,1,.617,1.331c-.036.193-.5,1.109-.839.859" fill="#f5ba9c"/>
      </g>
    </g>
  </g>
</svg>
