<svg xmlns="http://www.w3.org/2000/svg" width="292.14" height="211" viewBox="0 0 292.14 211">
  <g id="Grupo_1207588" data-name="Grupo 1207588" transform="translate(-1122 -7945.161)">
    <g id="Grupo_1207359" data-name="Grupo 1207359">
      <rect id="Rectángulo_457181" data-name="Rectángulo 457181" width="292.14" height="211" rx="20" transform="translate(1122 7945.161)" fill="#f2f2da"/>
      <g id="Grupo_1207357" data-name="Grupo 1207357" transform="translate(1152.23 7927.249)">
        <g id="Grupo_1207358" data-name="Grupo 1207358" transform="translate(0 17.912)">
          <path id="Trazado_1355822" data-name="Trazado 1355822" d="M9.12,25.583h0l-2.051-.007L9.239,24.1a.53.53,0,0,0-.6-.878L5.712,25.212l.065-3.425a.53.53,0,0,0-.52-.541h0a.531.531,0,0,0-.538.521L4.658,24.79,2.866,22.844a.531.531,0,0,0-.781.719l1.846,2-3.4-.012a.53.53,0,0,0-.008,1.06H.529l3.1.011L1.207,28.266a.53.53,0,0,0,.6.878l2.81-1.906L4.547,30.69a.53.53,0,0,0,.52.541h0a.532.532,0,0,0,.538-.521l.062-3.259L7.58,29.524a.531.531,0,0,0,.781-.719l-2-2.171,2.756.01a.53.53,0,0,0,.006-1.061" transform="translate(0 -17.71)" fill="#261d2a"/>
          <path id="Trazado_1355823" data-name="Trazado 1355823" d="M217.551,172.084h0l-2.051-.007,2.173-1.473a.531.531,0,0,0-.6-.878l-2.932,1.988.065-3.426a.53.53,0,0,0-.52-.54h0a.531.531,0,0,0-.538.521l-.057,3.023-1.792-1.945a.531.531,0,1,0-.781.719l1.846,2-3.4-.013a.53.53,0,0,0-.008,1.061h.005l3.1.012-2.421,1.642a.53.53,0,1,0,.6.877l2.81-1.9-.065,3.451a.53.53,0,0,0,.52.541h0a.532.532,0,0,0,.538-.521l.062-3.259,1.911,2.074a.531.531,0,0,0,.781-.719l-2-2.171,2.756.01a.53.53,0,0,0,.006-1.061" transform="translate(12.64 -8.826)" fill="#261d2a"/>
          <path id="Trazado_1355826" data-name="Trazado 1355826" d="M24.606,21.339s22.08,7.43,13.7,25.677c0,0-19.81.279-13.7-25.677" transform="translate(1.421 -17.704)" fill="#76ada1"/>
          <path id="Trazado_1355827" data-name="Trazado 1355827" d="M36.46,44.432a.528.528,0,0,1-.333-.118C29.011,38.559,29.7,29.294,29.735,28.9a.53.53,0,0,1,1.056.088c-.007.091-.668,9.1,6,14.5a.531.531,0,0,1-.334.943" transform="translate(1.801 -17.275)" fill="#261d2a"/>
          <path id="Trazado_1355828" data-name="Trazado 1355828" d="M207.133,32.844s8.4,21.728-10.985,26.949c0,0-12.88-15.055,10.985-26.949" transform="translate(11.684 -17.007)" fill="#76ada1"/>
          <path id="Trazado_1355829" data-name="Trazado 1355829" d="M198.081,55.522a.53.53,0,0,1-.139-1.042c3.144-.858,4.052-10.621,4.137-14.312a.513.513,0,0,1,.542-.518.531.531,0,0,1,.519.543c-.033,1.438-.449,14.091-4.918,15.309a.53.53,0,0,1-.14.019" transform="translate(11.98 -16.594)" fill="#261d2a"/>
          <path id="Trazado_1355830" data-name="Trazado 1355830" d="M228.291,60.679c-3.987-2.784-75.7-7.557-137.528-11.193-4.482-10.4-12.862-29.964-13.01-31.133-.2-1.6-10.979,1.6-12.962,2.4-1.394.561,5.565,17.667,9.831,27.8C33.839,46.211.933,44.538.933,44.538l.28,46.928,232.593,15.9s1.559-41.748-5.515-46.687" transform="translate(0.057 -17.912)" fill="#a0543d"/>
          <path id="Trazado_1355831" data-name="Trazado 1355831" d="M2.191,55.1a.53.53,0,0,1-.278-.982,41.9,41.9,0,0,1,33.309-2.469c18.035,6.231,35.152-4.814,35.323-4.928a.531.531,0,0,1,.583.887c-.175.115-17.719,11.441-36.253,5.043A40.782,40.782,0,0,0,2.468,55.022a.529.529,0,0,1-.277.077" transform="translate(0.101 -16.17)" fill="#261d2a"/>
          <path id="Trazado_1355832" data-name="Trazado 1355832" d="M43.133,67.117a29.813,29.813,0,0,1-16.625-4.911c-4.447-2.919-8.818-3.951-12.99-3.064C6.7,60.59,2.676,66.738,2.637,66.8a.53.53,0,0,1-.893-.573c.172-.268,4.29-6.576,11.544-8.121,4.46-.95,9.106.13,13.8,3.213,21.6,14.169,47.9-7.541,53.257-13.675a4.658,4.658,0,0,0,1.285-4.267C80.466,38.244,70.725,34,70.627,33.96a.53.53,0,1,1,.418-.974c.422.18,10.334,4.5,11.621,10.155a5.717,5.717,0,0,1-1.52,5.2A65.946,65.946,0,0,1,59.591,63.448a41.96,41.96,0,0,1-16.458,3.669" transform="translate(0.101 -17.001)" fill="#261d2a"/>
          <path id="Trazado_1355833" data-name="Trazado 1355833" d="M80.228,34.739c-4.629,0-8.193-1.311-10.6-3.9a13.578,13.578,0,0,1-3.247-9.512.518.518,0,0,1,.57-.487.531.531,0,0,1,.488.57c0,.051-.349,5.146,2.973,8.714,2.194,2.358,5.5,3.553,9.814,3.553a.392.392,0,0,1,.1,0,.531.531,0,0,1,.53.528.575.575,0,0,1-.631.532" transform="translate(4.025 -17.735)" fill="#261d2a"/>
          <path id="Trazado_1355834" data-name="Trazado 1355834" d="M39.866,79.569a18.473,18.473,0,0,1-9.66-2.592C11.868,66.048,2.489,69.767,2.4,69.807a.53.53,0,0,1-.416-.976c.4-.168,9.9-4.009,28.768,7.234,10.764,6.414,24.159-1.086,37.113-8.343,9.359-5.243,18.2-10.2,25.656-9.693,3.991.267,8.962,1.011,14.226,1.8,17.874,2.673,40.121,6,43.281-6.212a.53.53,0,0,1,1.027.265c-3.4,13.135-26.169,9.731-44.464,7-5.242-.784-10.193-1.523-14.14-1.788-7.128-.477-15.848,4.4-25.067,9.561-9.629,5.393-19.5,10.92-28.513,10.921" transform="translate(0.101 -15.771)" fill="#261d2a"/>
          <path id="Trazado_1355835" data-name="Trazado 1355835" d="M38.592,85.8c-9.941,0-21.745-1.9-36.585-7.37a.53.53,0,1,1,.367-.995c32.665,12.035,49.706,6.853,66.185,1.847,13.056-3.97,25.39-7.718,44.226-1.855,21.227,6.609,32.911.2,45.281-6.579,11.985-6.569,24.38-13.362,46.293-9.216,22.979,4.348,28.473,9.184,28.7,9.388a.53.53,0,0,1-.716.783c-.1-.086-5.7-4.877-28.177-9.129-21.542-4.073-33.764,2.624-45.586,9.1-12.573,6.891-24.45,13.4-46.105,6.661-18.525-5.765-30.706-2.063-43.6,1.856C60.134,82.95,50.757,85.8,38.592,85.8" transform="translate(0.101 -15.338)" fill="#261d2a"/>
          <path id="Trazado_1355836" data-name="Trazado 1355836" d="M115.667,92.591a.53.53,0,0,1-.22-1.013c18.1-8.205,29.671-6.617,40.86-5.08,9.438,1.3,18.352,2.521,30.3-2.787,13.544-6.015,23.556-5.512,29.57-4.03,6.562,1.617,9.859,4.646,10,4.774a.531.531,0,0,1-.723.776c-.128-.121-13.118-11.786-38.412-.55-12.226,5.43-21.286,4.184-30.877,2.869-11.038-1.518-22.453-3.083-40.278,4.995a.535.535,0,0,1-.218.048" transform="translate(6.982 -14.225)" fill="#261d2a"/>
          <path id="Trazado_1355837" data-name="Trazado 1355837" d="M198.389,99.821a.527.527,0,0,1-.414-.2c-10.467-13-48.559-1.572-48.942-1.456a.531.531,0,0,1-.31-1.015,133.6,133.6,0,0,1,20.793-4.243c14.825-1.708,24.678.325,29.285,6.05a.53.53,0,0,1-.413.862" transform="translate(8.996 -13.4)" fill="#261d2a"/>
          <path id="Trazado_1355838" data-name="Trazado 1355838" d="M196.2,54.613c-14.9-13.975-36.065-14.388-41.2-2.362,0,0,47.541,66.932,8.733,61.8-15.972-2.111-2.511-38.994-30.347-62.637-29.112-24.726-43.553-5.57-39.93-3.043,15.839,11.049,34.87,70.3,15.174,72.771-18.11,2.271,11.253-65.474-50.78-52.874,1.407-2.481,1.6-4.768-.247-6.072C53,58.956,47.029,64.067,43.65,67.707c4.08-5.1,10.2-13.991-2.636-7.5-12.626,6.38-9.606,12.554-7.008,15.457-35.571,15.955-50.139,59.565,3.4,106.728,47.91,42.208,135.2,29.548,166.825.8,56.825-51.652,5.4-115.983-8.029-128.574" transform="translate(0.131 -16.638)" fill="#d47e3a"/>
          <path id="Trazado_1355839" data-name="Trazado 1355839" d="M35.574,82.352c11.712-4.673,22.591,7.712,23.447,8.908s-1.349-21.741,18.05-14.5c3.842,1.434,7.453,5.027,10.406,9.9l-4.23,9.594,10.2,5.622c4.633,20.4-1.158,45.823-31.066,48.175-22.447,1.765-33.489-11.648-37.1-27.041L31.9,111.786,24.68,101.469c1.614-9.4,5.618-17.012,10.894-19.117" transform="translate(1.497 -14.429)" fill="#eeebd6"/>
          <path id="Trazado_1355840" data-name="Trazado 1355840" d="M80.274,109.013a.548.548,0,0,0-.577.478c-.658,6.96-2.693,17.787-5.467,18.764l-2.922-15.2a.53.53,0,1,0-1.042.2l2.886,15.015c-5.278-.842-15.6-10.329-15.7-10.429a.531.531,0,0,0-.72.78c.473.437,11.648,10.71,17.074,10.776h.023c4.916,0,6.736-17.773,6.927-19.8a.531.531,0,0,0-.478-.578" transform="translate(3.43 -12.388)" fill="#261d2a"/>
          <path id="Trazado_1355841" data-name="Trazado 1355841" d="M62.256,109.333s7.035-4.981,12.187-2.674c1,.448-2.049,8.945-3.547,8.812s-10.23-4.565-8.64-6.138" transform="translate(3.764 -12.567)" fill="#403955"/>
          <path id="Trazado_1355842" data-name="Trazado 1355842" d="M141.887,113.565a.53.53,0,0,1-.356-.923,2.392,2.392,0,0,0,.608-3.292.53.53,0,0,1,.855-.627,3.463,3.463,0,0,1-.75,4.7.527.527,0,0,1-.356.138" transform="translate(8.572 -12.418)" fill="#fdfeff"/>
          <path id="Trazado_1355843" data-name="Trazado 1355843" d="M137.373,115.613a.53.53,0,0,1-.356-.923,2.392,2.392,0,0,0,.608-3.292.53.53,0,0,1,.854-.627,3.461,3.461,0,0,1-.749,4.7.527.527,0,0,1-.356.138" transform="translate(8.298 -12.294)" fill="#fdfeff"/>
          <path id="Trazado_1355844" data-name="Trazado 1355844" d="M140.665,120.375a.53.53,0,0,1-.356-.923,2.4,2.4,0,0,0,.61-3.29.53.53,0,1,1,.853-.629,3.463,3.463,0,0,1-.75,4.7.527.527,0,0,1-.356.138" transform="translate(8.498 -12.005)" fill="#fdfeff"/>
          <path id="Trazado_1355845" data-name="Trazado 1355845" d="M136.233,123.182a.53.53,0,0,1-.357-.923,2.393,2.393,0,0,0,.609-3.292.53.53,0,0,1,.854-.627,3.462,3.462,0,0,1-.749,4.7.527.527,0,0,1-.356.138" transform="translate(8.229 -11.835)" fill="#fdfeff"/>
          <path id="Trazado_1355846" data-name="Trazado 1355846" d="M133.082,118.452a.53.53,0,0,1-.356-.923,2.392,2.392,0,0,0,.608-3.292.53.53,0,0,1,.854-.627,3.462,3.462,0,0,1-.749,4.7.527.527,0,0,1-.356.138" transform="translate(8.038 -12.122)" fill="#fdfeff"/>
          <path id="Trazado_1355847" data-name="Trazado 1355847" d="M138.9,128.015a.53.53,0,0,1-.356-.923,2.392,2.392,0,0,0,.608-3.292.53.53,0,0,1,.856-.627,3.465,3.465,0,0,1-.75,4.7.531.531,0,0,1-.357.138" transform="translate(8.391 -11.542)" fill="#fdfeff"/>
          <path id="Trazado_1355848" data-name="Trazado 1355848" d="M133.765,129.3a.53.53,0,0,1-.244-1c2.371-1.226,1.821-2.921,1.8-2.993a.53.53,0,0,1,1-.36c.01.027.915,2.627-2.308,4.295a.526.526,0,0,1-.243.059" transform="translate(8.08 -11.442)" fill="#fdfeff"/>
          <path id="Trazado_1355849" data-name="Trazado 1355849" d="M146.162,187.806a4.6,4.6,0,0,1-1.319-.206.53.53,0,1,1,.3-1.015,2.406,2.406,0,0,0,3.135-1.172.53.53,0,0,1,.979.406,3.35,3.35,0,0,1-3.1,1.987" transform="translate(8.761 -7.774)" fill="#fdfeff"/>
          <path id="Trazado_1355850" data-name="Trazado 1355850" d="M142.081,184.991a4.6,4.6,0,0,1-1.319-.206.53.53,0,1,1,.305-1.015A2.406,2.406,0,0,0,144.2,182.6a.53.53,0,0,1,.979.406,3.35,3.35,0,0,1-3.1,1.987" transform="translate(8.513 -7.945)" fill="#fdfeff"/>
          <path id="Trazado_1355851" data-name="Trazado 1355851" d="M139.694,190.266a4.6,4.6,0,0,1-1.319-.206.53.53,0,1,1,.305-1.015,2.4,2.4,0,0,0,3.134-1.172.53.53,0,0,1,.979.406,3.35,3.35,0,0,1-3.1,1.987" transform="translate(8.368 -7.625)" fill="#fdfeff"/>
          <path id="Trazado_1355852" data-name="Trazado 1355852" d="M135.005,187.912a4.6,4.6,0,0,1-1.319-.206.53.53,0,1,1,.305-1.015,2.407,2.407,0,0,0,3.134-1.172.53.53,0,0,1,.979.406,3.35,3.35,0,0,1-3.1,1.987" transform="translate(8.084 -7.768)" fill="#fdfeff"/>
          <path id="Trazado_1355853" data-name="Trazado 1355853" d="M137.438,182.775a4.6,4.6,0,0,1-1.319-.206.53.53,0,1,1,.3-1.015,2.407,2.407,0,0,0,3.135-1.172.53.53,0,1,1,.979.406,3.35,3.35,0,0,1-3.1,1.987" transform="translate(8.232 -8.08)" fill="#fdfeff"/>
          <path id="Trazado_1355854" data-name="Trazado 1355854" d="M132.237,192.688a4.6,4.6,0,0,1-1.319-.206.53.53,0,0,1,.3-1.015,2.406,2.406,0,0,0,3.135-1.172.53.53,0,1,1,.979.406,3.35,3.35,0,0,1-3.1,1.987" transform="translate(7.916 -7.478)" fill="#fdfeff"/>
          <path id="Trazado_1355855" data-name="Trazado 1355855" d="M129.5,189.412a4.711,4.711,0,0,1-2.478-.794.531.531,0,0,1,.557-.9c2.27,1.4,3.444.057,3.493,0a.53.53,0,0,1,.821.671,3.237,3.237,0,0,1-2.393,1.028" transform="translate(7.688 -7.627)" fill="#fdfeff"/>
          <path id="Trazado_1355856" data-name="Trazado 1355856" d="M50.047,171.128a3.683,3.683,0,0,1-2.834-1.436.53.53,0,1,1,.8-.692,2.4,2.4,0,0,0,3.271.706.53.53,0,1,1,.606.87,3.331,3.331,0,0,1-1.847.552" transform="translate(2.855 -8.761)" fill="#fdfeff"/>
          <path id="Trazado_1355857" data-name="Trazado 1355857" d="M48.13,166.557a3.683,3.683,0,0,1-2.834-1.436.53.53,0,1,1,.8-.692,2.4,2.4,0,0,0,3.271.706.53.53,0,1,1,.606.87,3.331,3.331,0,0,1-1.847.552" transform="translate(2.739 -9.038)" fill="#fdfeff"/>
          <path id="Trazado_1355858" data-name="Trazado 1355858" d="M43.275,169.709a3.683,3.683,0,0,1-2.834-1.436.53.53,0,0,1,.8-.692,2.4,2.4,0,0,0,3.271.706.53.53,0,1,1,.606.87,3.331,3.331,0,0,1-1.847.552" transform="translate(2.445 -8.847)" fill="#fdfeff"/>
          <path id="Trazado_1355859" data-name="Trazado 1355859" d="M40.6,165.2a3.68,3.68,0,0,1-2.834-1.436.53.53,0,1,1,.8-.692,2.4,2.4,0,0,0,3.271.706.53.53,0,1,1,.606.87,3.33,3.33,0,0,1-1.846.552" transform="translate(2.282 -9.121)" fill="#fdfeff"/>
          <path id="Trazado_1355860" data-name="Trazado 1355860" d="M45.417,162.185a3.683,3.683,0,0,1-2.834-1.436.53.53,0,0,1,.8-.692,2.39,2.39,0,0,0,3.273.7.53.53,0,0,1,.6.872,3.333,3.333,0,0,1-1.847.552" transform="translate(2.575 -9.303)" fill="#fdfeff"/>
          <path id="Trazado_1355861" data-name="Trazado 1355861" d="M35.689,167.725a3.681,3.681,0,0,1-2.834-1.437.53.53,0,1,1,.805-.69,2.391,2.391,0,0,0,3.272.7.53.53,0,0,1,.6.872,3.331,3.331,0,0,1-1.847.553" transform="translate(1.985 -8.967)" fill="#fdfeff"/>
          <path id="Trazado_1355862" data-name="Trazado 1355862" d="M35.066,163.532c-.906,0-2.406-.371-3.445-2.533a.53.53,0,0,1,.956-.459c1.156,2.406,2.868,1.9,2.94,1.884a.53.53,0,0,1,.33,1.008,2.759,2.759,0,0,1-.781.1" transform="translate(1.914 -9.281)" fill="#fdfeff"/>
          <path id="Trazado_1355863" data-name="Trazado 1355863" d="M205.755,112.352a.53.53,0,0,1-.368-.912,2.393,2.393,0,0,0,.514-3.309.531.531,0,0,1,.837-.652,3.465,3.465,0,0,1-.615,4.725.531.531,0,0,1-.368.148" transform="translate(12.445 -12.493)" fill="#fdfeff"/>
          <path id="Trazado_1355864" data-name="Trazado 1355864" d="M201.3,114.527a.53.53,0,0,1-.368-.912,2.393,2.393,0,0,0,.514-3.309.53.53,0,0,1,.837-.651,3.464,3.464,0,0,1-.615,4.724.531.531,0,0,1-.368.148" transform="translate(12.175 -12.361)" fill="#fdfeff"/>
          <path id="Trazado_1355865" data-name="Trazado 1355865" d="M204.727,119.194a.53.53,0,0,1-.368-.912,2.391,2.391,0,0,0,.513-3.308.531.531,0,0,1,.837-.652,3.464,3.464,0,0,1-.615,4.724.527.527,0,0,1-.367.148" transform="translate(12.383 -12.078)" fill="#fdfeff"/>
          <path id="Trazado_1355866" data-name="Trazado 1355866" d="M200.375,122.125a.53.53,0,0,1-.368-.912,2.392,2.392,0,0,0,.514-3.308.531.531,0,0,1,.837-.652,3.464,3.464,0,0,1-.615,4.724.531.531,0,0,1-.368.148" transform="translate(12.119 -11.9)" fill="#fdfeff"/>
          <path id="Trazado_1355867" data-name="Trazado 1355867" d="M197.092,117.487a.53.53,0,0,1-.368-.912,2.392,2.392,0,0,0,.514-3.308.531.531,0,0,1,.837-.652,3.464,3.464,0,0,1-.615,4.724.531.531,0,0,1-.368.148" transform="translate(11.92 -12.181)" fill="#fdfeff"/>
          <path id="Trazado_1355868" data-name="Trazado 1355868" d="M203.18,126.881a.53.53,0,0,1-.368-.912,2.392,2.392,0,0,0,.514-3.309.531.531,0,0,1,.837-.652,3.465,3.465,0,0,1-.615,4.725.531.531,0,0,1-.368.148" transform="translate(12.289 -11.612)" fill="#fdfeff"/>
          <path id="Trazado_1355869" data-name="Trazado 1355869" d="M198.083,128.316a.531.531,0,0,1-.259-.994c2.337-1.294,1.739-2.973,1.712-3.044a.53.53,0,0,1,.987-.387c.012.027.99,2.6-2.185,4.359a.546.546,0,0,1-.256.066" transform="translate(11.98 -11.506)" fill="#fdfeff"/>
          <path id="Trazado_1355870" data-name="Trazado 1355870" d="M39.3,76.283a.529.529,0,0,1-.487-.321A6.708,6.708,0,0,1,38.885,71c.856-1.991,2.716-3.525,5.529-4.558,2.175-.8,3.568-.763,4.261.106.937,1.177.064,3.523-.834,5.287C50.067,70.5,53.773,68.917,57,70.608c.465.244,1.881.986,1.708,2.146-.256,1.722-4.1,2.584-5.266,2.806a.53.53,0,1,1-.2-1.042c2.052-.391,4.317-1.258,4.415-1.922.03-.2-.257-.58-1.151-1.05-4.267-2.237-9.918,2.447-9.974,2.495a.531.531,0,0,1-.785-.7c1.3-2,2.819-5.224,2.1-6.131-.352-.442-1.468-.36-3.065.229-2.521.926-4.174,2.26-4.913,3.966a5.733,5.733,0,0,0-.082,4.136.53.53,0,0,1-.279.695.547.547,0,0,1-.209.043" transform="translate(2.327 -15.004)" fill="#261d2a"/>
          <path id="Trazado_1355871" data-name="Trazado 1355871" d="M30.127,145.12a5.648,5.648,0,0,1-1.692-.328,6.661,6.661,0,0,1-4.516-4.768,3.483,3.483,0,0,1-1.256,1.569,2.77,2.77,0,0,1-2.862-.1c-3.1-1.6-3.461-6.537-3.344-9.747a3.289,3.289,0,0,1-2.363,1.768c-1.081-.008-1.945-.9-2.712-2.814-.969-2.423-1.088-4.5-.353-6.176a5.025,5.025,0,0,1,2.572-2.6.53.53,0,0,1,.379.991,4.024,4.024,0,0,0-1.988,2.05c-.608,1.4-.482,3.2.374,5.337.555,1.385,1.156,2.148,1.694,2.148h.012c.942-.019,2.126-2.17,2.664-3.693a.531.531,0,0,1,1.025.259c-.015.094-1.423,9.489,2.529,11.531a1.774,1.774,0,0,0,1.814.144c.821-.511,1.236-1.958,1.431-3.309a11.938,11.938,0,0,1,.163-2.395.538.538,0,0,1,.567-.421.531.531,0,0,1,.483.517,16.231,16.231,0,0,1-.17,2.535c.093,2.139.864,5.082,4.186,6.164,1.043.34,1.772.366,2,.069.578-.751-.758-3.592-1.844-5.278a.531.531,0,0,1,.892-.575c.518.8,3.036,4.886,1.792,6.5a1.773,1.773,0,0,1-1.477.62" transform="translate(0.64 -11.607)" fill="#261d2a"/>
          <path id="Trazado_1355872" data-name="Trazado 1355872" d="M76.268,154.268a2.3,2.3,0,0,1-1.649-.6c-1.86-1.769-.179-6.713.019-7.272a.53.53,0,1,1,1,.354c-.657,1.858-1.317,5.171-.287,6.149.6.571,1.787.25,2.679-.117,3.4-1.4,3.415-7.648,3.415-7.712a.532.532,0,0,1,.494-.531.562.562,0,0,1,.561.458c.193,1.423,1.05,5.239,2.689,5.811.626.218,1.385-.092,2.252-.923,3.66-3.509,1.11-11.247,1.084-11.326a.53.53,0,0,1,.959-.44c.662,1.116,2.774,3.978,4.5,3.926.733-.03,1.387-.622,1.945-1.759,2.53-5.157-3.7-9.353-3.972-9.529a.531.531,0,0,1,.584-.886c.073.048,7.281,4.885,4.34,10.881-.744,1.516-1.7,2.306-2.856,2.35-1.431.094-2.829-1.1-3.848-2.249.5,2.808.716,7.189-2,9.8-1.178,1.129-2.3,1.52-3.338,1.157-1.322-.464-2.164-2.088-2.678-3.625-.442,2.1-1.446,4.639-3.726,5.579a5.8,5.8,0,0,1-2.165.507" transform="translate(4.472 -11.128)" fill="#261d2a"/>
          <path id="Trazado_1355873" data-name="Trazado 1355873" d="M178.508,182.58c-4.341,0-9.144-3.15-9.406-3.325a.53.53,0,1,1,.588-.882c.077.052,7.881,5.171,11.968,2.245a2.364,2.364,0,0,0,1.223-2c-.077-1.854-2.864-3.91-3.931-4.544a.53.53,0,0,1,.482-.943c.057.024,5.845,2.488,9.283,1.091a3.584,3.584,0,0,0,2.062-2.036,2.985,2.985,0,0,0,.024-2.9c-1.043-1.514-4-1.6-4.6-1.6h-.121a.53.53,0,0,1-.016-1.061h.126c.89-.017,6.93-.233,9.308-2.867a3.531,3.531,0,0,0,.916-2.872,3.732,3.732,0,0,0-1.574-2.87c-2.664-1.856-7.735-.579-7.786-.564a.531.531,0,0,1-.265-1.028c.227-.059,5.591-1.416,8.656.721a4.792,4.792,0,0,1,2.025,3.634,4.6,4.6,0,0,1-1.186,3.691c-1.5,1.663-4.144,2.467-6.363,2.854a4.066,4.066,0,0,1,1.747,1.358,3.953,3.953,0,0,1,.084,3.914,4.659,4.659,0,0,1-2.645,2.614c-2.156.874-4.986.458-7.1-.1a5.6,5.6,0,0,1,1.932,3.463,3.379,3.379,0,0,1-1.666,2.915,6.346,6.346,0,0,1-3.766,1.1" transform="translate(10.24 -9.542)" fill="#261d2a"/>
          <path id="Trazado_1355874" data-name="Trazado 1355874" d="M80.348,191.154a4.166,4.166,0,0,1-1.986-.514c-1.724-.92-3.037-2.945-3.955-4.876a5.362,5.362,0,0,1-1.107,3.578,3,3,0,0,1-2.972.707c-5.605-1.2-7.913-12.062-8.01-12.523a.532.532,0,0,1,.413-.627.525.525,0,0,1,.627.412c.021.107,2.26,10.641,7.193,11.7a1.983,1.983,0,0,0,1.982-.4c1.367-1.428.674-5.63.27-7.223l-.019-.075a.53.53,0,0,1,1.027-.262l.01.035c.133.5,1.873,6.933,5.041,8.621a3.085,3.085,0,0,0,2.62.18,3.319,3.319,0,0,0,2.266-2.069c.751-2.357-1.462-5.577-1.484-5.61a.531.531,0,0,1,.827-.661c.046.051,4.634,5.033,8.446,5.033h.018a3.531,3.531,0,0,0,2.741-1.256c1.1-1.227,1.528-2.333,1.27-3.288-.468-1.725-3-2.555-3.03-2.564a.53.53,0,0,1,.321-1.011c.126.04,3.109,1.011,3.731,3.293.361,1.324-.145,2.763-1.5,4.278a4.6,4.6,0,0,1-3.528,1.608h-.02c-2.524,0-5.211-1.792-7.032-3.31a6.14,6.14,0,0,1,.255,3.806,4.907,4.907,0,0,1-4.411,3.021" transform="translate(3.778 -8.272)" fill="#261d2a"/>
          <path id="Trazado_1355875" data-name="Trazado 1355875" d="M203.944,104.95a.531.531,0,0,1-.444-.819c.043-.068,4.31-6.712,2.563-11.526-.38-1.049-.84-1.642-1.3-1.667-.744-.038-1.7,1.13-2.36,2.224-.2.377-.337.614-.369.668a.53.53,0,0,1-.929-.509c.039-.081.15-.3.318-.585.949-1.829,3.624-7.761.059-10.557-.724-.567-1.734-1.174-2.444-.824a2.218,2.218,0,0,0-.934,1.363c-.146,1.444-.36,2.485-.384,2.6a.53.53,0,0,1-1.049-.105,9.847,9.847,0,0,1,.384-2.708c.232-2.375.276-5.8-1.044-7.67a2.88,2.88,0,0,0-2.049-1.265,3.148,3.148,0,0,0-2.649.652c-1.452,1.309-1.378,4.027-1.378,4.055a.528.528,0,0,1-.511.547h-.019a.531.531,0,0,1-.529-.511c0-.13-.1-3.234,1.724-4.876a4.124,4.124,0,0,1,3.509-.919,3.938,3.938,0,0,1,2.773,1.707c1.148,1.63,1.407,4.153,1.359,6.382a2.26,2.26,0,0,1,.333-.2c.964-.473,2.165-.155,3.565.943,2.9,2.277,2.443,6.05,1.52,8.856a2.14,2.14,0,0,1,1.167-.322c.932.054,1.683.85,2.234,2.365,1.927,5.314-2.483,12.176-2.672,12.466a.529.529,0,0,1-.444.241" transform="translate(11.454 -14.604)" fill="#261d2a"/>
          <path id="Trazado_1355876" data-name="Trazado 1355876" d="M134.282,90.171a.53.53,0,0,1-.443-.819c.043-.068,4.309-6.712,2.563-11.527-.38-1.049-.84-1.641-1.3-1.667-.749-.085-1.7,1.13-2.361,2.224-.2.378-.336.614-.368.668a.53.53,0,0,1-.929-.509c.039-.081.15-.3.318-.584.949-1.829,3.624-7.762.059-10.558-.723-.567-1.733-1.174-2.443-.824a1.682,1.682,0,0,0-.71.8,24.052,24.052,0,0,1-.618,3.194.521.521,0,0,1-.58.382.529.529,0,0,1-.46-.522,9.094,9.094,0,0,1,.619-3.339c.258-2.145.285-4.893-.826-6.65a3.537,3.537,0,0,0-2.519-1.658c-1.629-.279-2.793-.056-3.463.671-1.01,1.094-.748,3.205-.562,3.925a.531.531,0,1,1-1.028.265c-.033-.128-.793-3.171.81-4.91.931-1.009,2.418-1.345,4.424-1a4.6,4.6,0,0,1,3.235,2.136,10.241,10.241,0,0,1,1.118,5.793c.031-.016.062-.033.093-.048.966-.474,2.165-.156,3.564.942,2.9,2.278,2.443,6.05,1.52,8.856a2.129,2.129,0,0,1,1.168-.322c.931.054,1.683.85,2.234,2.365,1.927,5.315-2.484,12.177-2.673,12.467a.527.527,0,0,1-.444.241" transform="translate(7.218 -15.505)" fill="#261d2a"/>
          <path id="Trazado_1355877" data-name="Trazado 1355877" d="M55.846,104.9c-7.281-10.4-25.473-6.364-31.116-4.8a55.248,55.248,0,0,0,.6,21.537c7.178-.861,36.369-8.374,30.516-16.733" transform="translate(1.452 -13.055)" fill="#a0543d"/>
          <path id="Trazado_1355878" data-name="Trazado 1355878" d="M65.2,98.934c-3.135,10.213,20.432,5.63,25.806,2.294a51.894,51.894,0,0,0-5.974-15.214c-4.889.337-16.883,3.313-19.833,12.92" transform="translate(3.937 -13.782)" fill="#a0543d"/>
          <path id="Trazado_1355879" data-name="Trazado 1355879" d="M43.289,114.954a1.775,1.775,0,0,1-.427-.054c-3.022-.747-7.431-10.122-7.924-11.189a.53.53,0,1,1,.963-.444c1.78,3.85,5.312,10.133,7.216,10.6a.5.5,0,0,0,.471-.082c1.673-1.281-.019-7.758-1.477-11.539a.53.53,0,1,1,.989-.382c.416,1.077,3.981,10.583,1.135,12.762a1.528,1.528,0,0,1-.944.323" transform="translate(2.116 -12.841)" fill="#261d2a"/>
          <path id="Trazado_1355880" data-name="Trazado 1355880" d="M79.411,103.962a1.95,1.95,0,0,1-1.236-.067c-3.1-1.184-5.349-10.295-5.6-11.33a.544.544,0,0,1,.392-.64.531.531,0,0,1,.639.393c.635,2.661,2.76,9.75,4.944,10.585a.949.949,0,0,0,.942-.144c2.62-1.82.233-9.108-.908-11.764a.53.53,0,0,1,.975-.419c.181.422,4.4,10.37.538,13.053a2.237,2.237,0,0,1-.689.331" transform="translate(4.4 -13.525)" fill="#261d2a"/>
          <path id="Trazado_1355881" data-name="Trazado 1355881" d="M134.734,36.561l-.013-.01a3.718,3.718,0,1,1,.013.01m3.832-4.967a2.607,2.607,0,0,0-3.195,4.12l.008.006a2.613,2.613,0,0,0,3.649-.469,2.607,2.607,0,0,0-.462-3.657" transform="translate(8.084 -17.18)" fill="#261d2a"/>
          <path id="Trazado_1355882" data-name="Trazado 1355882" d="M222.464,159.441l-.013-.01a3.721,3.721,0,1,1,.013.01m3.832-4.967a2.607,2.607,0,0,0-3.2,4.12l.008.006a2.613,2.613,0,0,0,3.649-.469,2.608,2.608,0,0,0-.461-3.657" transform="translate(13.404 -9.728)" fill="#261d2a"/>
          <path id="Trazado_1355883" data-name="Trazado 1355883" d="M2.521,168.183l-.013-.01a3.719,3.719,0,1,1,.013.01m3.832-4.967a2.607,2.607,0,0,0-3.195,4.12l.008.006a2.613,2.613,0,0,0,3.649-.469,2.607,2.607,0,0,0-.462-3.657" transform="translate(0.066 -9.198)" fill="#261d2a"/>
        </g>
      </g>
    </g>
  </g>
</svg>
