<svg xmlns="http://www.w3.org/2000/svg" xmlns:xlink="http://www.w3.org/1999/xlink" width="500" height="299" viewBox="0 0 500 299">
  <defs>
    <clipPath id="clip-path">
      <rect id="Rectángulo_457620" data-name="Rectángulo 457620" width="347.539" height="299" fill="none"/>
    </clipPath>
  </defs>
  <g id="Grupo_1207590" data-name="Grupo 1207590" transform="translate(-185.711 -1804)">
    <g id="Grupo_1207333" data-name="Grupo 1207333">
      <rect id="Rectángulo_457162" data-name="Rectángulo 457162" width="500" height="241" rx="20" transform="translate(185.711 1833)" fill="#f0b068"/>
      <g id="Grupo_1207332" data-name="Grupo 1207332" transform="translate(-426.711 -90)">
        <g id="Grupo_1207331" data-name="Grupo 1207331" transform="translate(696.711 1894)">
          <g id="Grupo_1207330" data-name="Grupo 1207330" clip-path="url(#clip-path)">
            <path id="Trazado_1355184" data-name="Trazado 1355184" d="M228.9,167.323c2.065.11,2,3.348-.141,3.443-17.044.828-34.181,1.329-51.24,1.157a.986.986,0,0,1-.948-1.3c-7.068-8.714-6.836-22.4,4.615-26.986,9.307-3.724,21.348.156,23.477,10.169a7.209,7.209,0,0,1,6.448-1.6c3.5.83,5.484,3.864,6.106,7.182,5.469-3.1,12.99.83,11.685,7.932m-3.093.063c.807-5.647-5.469-8.167-8.871-3.739a1.218,1.218,0,0,1-1,.469,1.608,1.608,0,0,1-1.662-1.565c.232-2.691-.3-5.272-2.766-6.758a4.658,4.658,0,0,0-6.495,1.267v.125c-.015,2.191-3.2,2.144-3.34,0-.715-10-10.968-13.439-19.266-10.137-10.487,4.176-7.1,14.753-3.636,22.7,12.384-.986,24.829-1.643,37.274-2.064,3.247-.11,6.51-.22,9.757-.3" transform="translate(117.129 98.631)" fill="#222221"/>
            <path id="Trazado_1355185" data-name="Trazado 1355185" d="M199.048,155.809c3.4-4.428,9.68-1.908,8.871,3.739-3.247.078-6.51.188-9.757.3l-.108-3.568a1.217,1.217,0,0,0,.994-.469" transform="translate(135.017 106.468)" fill="#fff"/>
            <path id="Trazado_1355186" data-name="Trazado 1355186" d="M214.5,162.647l.109,3.568c-12.446.422-24.891,1.079-37.274,2.064-3.464-7.947-6.851-18.524,3.636-22.7,8.3-3.3,18.551.141,19.266,10.137.14,2.144,3.325,2.191,3.34,0v-.125a4.658,4.658,0,0,1,6.495-1.267c2.47,1.487,3,4.068,2.765,6.758a1.609,1.609,0,0,0,1.663,1.565" transform="translate(118.568 100.099)" fill="#fff"/>
            <path id="Trazado_1355187" data-name="Trazado 1355187" d="M338.142,59.7a1.8,1.8,0,0,1,.866,2.574.687.687,0,0,1,.029.173c-2.386,34.828-8.849,69.757-14.261,104.214q-8.2,52.285-17.387,104.414a1.386,1.386,0,0,1-1.846,1.13.013.013,0,0,1-.013.014.894.894,0,0,1-1.72,0c-.183-.715-.866-1.043-1.505-1.429a1.63,1.63,0,0,1-1.179-.071q-18.9-8.176-37.8-16.363c-12.16-5.265-24.8-12.487-37.544-16.021-7.216-1.988-13.807,1.231-20.554,3.49l-18.139,6.066c-12.628,4.233-25.214,8.724-38.04,12.314a1.747,1.747,0,0,1-2.3.83q-17.729-8.151-35.471-16.29c-10.923-5.021-23.209-13.075-35.412-13.3-24.76-.457-49.575,4.806-74.376,4.706a1.239,1.239,0,0,1-1.152-1.3,1.627,1.627,0,0,1-.311-1.289q7.883-47.845,15.753-95.689c5.341-32.152,11.918-64.235,11.7-96.975a1.05,1.05,0,0,1,.937-1.116C29.074,36.069,33.961,36,37.07,35.1q12.04-3.477,24.077-6.923c16.493-4.75,32.97-9.627,49.518-14.189a1.428,1.428,0,0,1,1.421.3.948.948,0,0,1,.61-.071c6.222,1.129,12.159,4.606,17.841,7.293q8.587,4.056,17.031,8.369,18.112,9.226,35.612,19.552a1.593,1.593,0,0,1,.582.572c12.729-5.607,26.166-9.8,39.248-14.46,10.455-3.72,22.757-11,34.006-7.481,13.439,4.22,26.549,10.3,39.66,15.418L338.142,59.7M321.38,167.158c5.469-34.785,9.248-69.886,14.944-104.614q-37.1-14.527-74.192-29.021a38.541,38.541,0,0,0-9.006-2.56,1.054,1.054,0,0,1,.143.586q-.194,3.518-.456,7.038a511.664,511.664,0,0,1,73.41,28.278,1.365,1.365,0,0,1,.711,1.658,1.463,1.463,0,0,1-1.9,1.2q-6.99-2.746-14.007-5.507l-1.662-.086a.863.863,0,0,1,.454-.386c-1.9-.757-3.792-1.5-5.7-2.245a1.426,1.426,0,0,1-.042.688q-5.923,21.646-11.89,43.268a1.516,1.516,0,0,1-1.847,1.058c-4.588-1.373-9.191-2.718-13.736-4.291a.474.474,0,0,1,.029.129,192.718,192.718,0,0,1-9.759,49.731,1.523,1.523,0,0,1-2.2.9,146.571,146.571,0,0,1-27.032-17.222.787.787,0,0,1-.284-.787.965.965,0,0,1,1.392-.672c8.494,5.321,16.918,10.6,25.8,15.2a197.861,197.861,0,0,0,9.021-47.157,1.589,1.589,0,0,1,2-1.417.934.934,0,0,1,1.122-.672c4.361.859,8.679,1.932,12.983,2.991q5.688-20.963,11.421-41.894a1.454,1.454,0,0,1,.568-.83Q277.1,50.807,252.628,40.817c-2.47,29.751-9.1,58.9-14.389,88.252q-.532,2.939-1.022,5.878c-.5,2.847-.952,5.693-1.421,8.555a26.372,26.372,0,0,1,2.756,1.114c10.043,4.735,19.589,10.871,29.291,16.263a1.441,1.441,0,0,1,.725,1.273c-.967,8.425-1.976,16.836-2.743,25.287-.368,3.978-1.646,9.383-1.093,13.346.725,5.134,5.511,4.821,9.944,5.807a.83.83,0,0,1,.256.086,1.641,1.641,0,0,1,.824,1.831c-2,10.357-3.466,20.74-4.673,31.211a1.665,1.665,0,0,1-2.415,1.287,1.237,1.237,0,0,1-.626-1.287c.923-10.2,2.5-20.326,4.418-30.381-4.248-.686-9.8-.914-10.923-5.607-.839-3.5.511-8.74.822-12.3.383-4.449.811-8.882,1.293-13.33.425-3.934,2.274-9.627,1.633-13.5-.6-3.561-6.69-5.578-9.5-7.165-4.83-2.733-12.87-8.941-20.371-11.444-4.09,25.861-6.961,51.865-9.261,77.968l-1.732-.115c1.007-16.692,2.655-33.341,4.8-49.933a34.868,34.868,0,0,0-9.83,1.473,1.44,1.44,0,0,1-1.8-1.387c0-9.126,1.135-18.338,4.517-26.862a1.662,1.662,0,0,1,.156-.273.692.692,0,0,1,.029-1.058c3.409-3.246,7.415-3.8,11.491-2.874.341-2.061.668-4.12,1.022-6.179q-5.88.17-11.733.357a1.541,1.541,0,0,1-1.448-1.93q2.492-11.522,5.028-23.028c.639-2.891,3.75-9.927.128-11.815-2.245-1.187-8.212-.086-10.81-.115a1.5,1.5,0,0,1-1.434-1.888c1.633-6.237,3.1-12.558,4.546-18.879,2.371-10.341,4.7-20.7,7.7-30.825-2.615.872-5.228,1.731-7.842,2.6a1.435,1.435,0,0,1,.143.857q-1.11,8.217-2.274,16.421c-.313,2.188-.284,6.836-1.065,10.17a7.143,7.143,0,0,1-1.364,3.1c-1.719,1.861-5.412,2.232-7.67,2.818-4.816,1.26-9.646,2.4-14.5,3.463-5.2,1.129-10.455,2.974-15.554,2.459-.37,1.731-.767,3.461-1.152,5.207a50.827,50.827,0,0,0,14.5-.071,1.478,1.478,0,0,1,1.833,1.4,59.174,59.174,0,0,1-4.019,26.247,1.577,1.577,0,0,1-1.392,1.072c-5.1.688-11.833,2.7-17.387,2.589q-2.813,14.268-5.412,28.606c-1.421,7.883-2.713,15.777-3.935,23.687.271.058.555.115.824.186a12.07,12.07,0,0,1,8.1,14.218c-1.478,5.507-6.919,8.682-12.287,8.3-2.188,15.218-4.277,30.437-6.621,45.642.511-.215,1.024-.43,1.535-.63l.3,2.017c-.469.086-.937.144-1.406.215a.985.985,0,0,1-.668-.144c-.454,2.946-.91,5.908-1.392,8.855,13.793-5.407,28-9.811,42.033-14.517q10.355-3.477,20.724-6.938c4.418-1.473,8.565-2.747,13.2-1.946l.824.144c6.022,1.3,11.861,4.591,17.471,7.009q10.078,4.377,20.157,8.724,20.155,8.733,40.312,17.45a1.314,1.314,0,0,1,.782,1.744c.141.044.284.073.425.129.086.044.185.086.271.129q9.033-51.256,17.117-102.683M251.336,30.79a23.684,23.684,0,0,0-9.034,1.389c-6.165,2.088-12.273,4.376-18.41,6.565-13.053,4.648-26.109,9.94-39.475,13.616a1.078,1.078,0,0,1,.725,1.316c-.441,1.859-.881,3.705-1.322,5.549,10.739-2.345,21.151-6.636,31.549-10.14,11.222-3.763,22.444-7.524,33.693-11.186a1.3,1.3,0,0,1,1.435.344c.029-.014.044-.029.072-.042q.255-3.327.425-6.652a1.119,1.119,0,0,1,.341-.759m-.967,9.842a2.028,2.028,0,0,1-.5.271q-10.633,3.6-21.323,7.138c-1.86,16.534-6.406,33.012-10.639,49.1,5.383-.344,13.836-1.588,13.878,5.078.029,4.748-2.1,10.126-3.125,14.8q-1.831,8.5-3.706,16.991l10.341-.286c5.368-30.994,12.472-61.719,15.07-93.1M229.617,170.977q1.705-12.83,3.75-25.589c-3.651-.872-7.075-.672-9.83,1.46a.891.891,0,0,1,.17.73,131.865,131.865,0,0,0-3.239,24.544,36.839,36.839,0,0,1,9.149-1.145M216.136,52.161c-.425.129-.853.271-1.278.413-10.255,3.377-20.583,7.51-31.364,8.784a1.642,1.642,0,0,1-.326.6q-3.027,12.723-5.839,25.518c3.821.229,7.741-.958,11.436-1.731q5.966-1.265,11.888-2.718a65.011,65.011,0,0,0,6.564-1.687c3.594-1.331,4.418-1.917,5.5-5.436,2.26-7.3,2.388-16.092,3.424-23.743m-28.224,61.231a57.576,57.576,0,0,0,1.093-14.7,54.069,54.069,0,0,1-14.1-.171q-2.687,12.423-5.171,24.888a73.137,73.137,0,0,0,10.015-1.03c6.165-.843,6.946-3.3,8.168-8.983m-4.261-61.06a1.309,1.309,0,0,1-.313-.171,1.509,1.509,0,0,1-1.818.156q-16.939-9.975-34.4-18.966-9.056-4.633-18.225-8.982c-5.412-2.576-11.463-4.635-16.335-8.154a1.561,1.561,0,0,1-.513.672c0,.044.015.071,0,.115-.668,3.532-1.292,7.065-1.917,10.6,24.646,7.58,48.637,19.352,71.45,31.338.456-1.959.925-3.9,1.392-5.864a.983.983,0,0,1,.683-.743m-8.538,34.828c1.847-8.352,3.722-16.692,5.7-25.016C170.767,56.88,160.567,52.117,150.3,47.555a.806.806,0,0,1,.3.83c-1.549,8.853-3.722,17.579-5.852,26.3a66.992,66.992,0,0,1,18.622,6.022c3.21,1.615,6.079,4.091,9.276,5.607a11.647,11.647,0,0,0,2.47.843m-1.8,8.2c.383-1.744.767-3.475,1.15-5.221a13.68,13.68,0,0,1-3.3-1.258c-9.517-5.106-17.656-9.869-28.551-11.644A1.463,1.463,0,0,1,141.6,75.46c2.316-9.212,4.531-18.466,7.428-27.519a.771.771,0,0,1,.895-.559q-2.7-1.2-5.425-2.4a1.649,1.649,0,0,1-.042.63c-2.373,8.524-4.561,17.093-6.493,25.731-.582,2.618-3.806,11.529-1.86,13.989,1.591,2.017,9.845,2.432,12.386,3.133,3.411.943,5.1,1.717,4.944,5.449-.341,7.652-2.785,15.762-4.12,23.33a1.449,1.449,0,0,1-2.1.857c-15.213-8.868-31.009-16.377-46.676-24.373-.555,4.406-1.095,8.8-1.648,13.188,2.955,1.373,5.782,3.1,8.594,4.591q9.694,5.194,19.547,10.1,18.473,9.2,37.373,17.435c.029.015.029.029.042.029.78-4.1,1.591-8.2,2.4-12.287-.155-.027-.3-.042-.439-.071-4.83-.872-9.589-5.249-14.135-7.138a.7.7,0,0,1-.454-.786.647.647,0,0,1,.809-.515,19.833,19.833,0,0,1,2.4.628,1.415,1.415,0,0,1-.214-1.1q1.811-9.053,3.622-18.136c.383-1.9.425-6.308,2.585-7.51,1.932-1.072,5.654,1.389,7.315,1.932a43.8,43.8,0,0,0,4.973,1.272m-5.8,27.949q2.495-12.594,5.185-25.16a45.959,45.959,0,0,1-5.112-1.316c-3.338-1.087-4.532-3.233-5.9,1a57.841,57.841,0,0,0-1.292,6.479l-2.842,14.26a1.171,1.171,0,0,1-.851.945c2,.828,3.849,1.844,6.022,2.7a17.855,17.855,0,0,0,4.786,1.087m-1.32,68.785a9.205,9.205,0,0,0-6.919-10.1q-1.342,8.69-2.585,17.35a8.918,8.918,0,0,0,9.5-7.251m-2.2-50.578a1.376,1.376,0,0,1-.98-.056q-28.977-12.68-56.933-27.534c-2.217-1.174-4.8-2.889-7.514-4.32-1.364,11.043-2.743,22.07-4.206,33.084a8.687,8.687,0,0,1,4.9,1.431.615.615,0,0,1,.326.586c7.812,4.792,15.44,9.884,23.04,14.99,3.92,2.632,7.827,5.292,11.748,7.939l2.343,1.587c1.734,2.19,2.571,2.247,2.514.2,1.278-1.688.923-7.066,1.08-9.112a1.4,1.4,0,0,1,1.734-1.345,105.477,105.477,0,0,1,17.685,4.906,1.029,1.029,0,0,1,.227.144c.441-2.547.88-5.106,1.335-7.652.866-4.963,1.776-9.911,2.7-14.848m-4.488,25.1a1.689,1.689,0,0,1-.513-.071,103.079,103.079,0,0,0-16.022-4.562c-.3,6.379-.1,14.56-7.628,9.6-12.6-8.325-25.17-16.878-37.289-25.917a.912.912,0,0,1-.34-.672,9.363,9.363,0,0,0-3.622-.273c-.341,2.589-.668,5.178-1.022,7.754,2.144,1.387,3.991,3.546,5.936,5.106a163.666,163.666,0,0,0,39.746,23.443,1.4,1.4,0,0,1,.938,1.673c-1.408,4.233-2.7,8.511-3.737,12.86-1.15,4.777-2.016,7.009,3.281,8.724,4.176,1.373,9.631,1.6,13.339,4.2.326-2.23.695-4.462,1.036-6.694a.758.758,0,0,1-.3-.042c-5.98-1.93-9.133-9.039-6.989-14.919a12.248,12.248,0,0,1,11.009-7.752c.71-4.162,1.45-8.309,2.174-12.458m-5.555,32.941q1.405-8.883,2.9-17.723a9.525,9.525,0,0,0-8.4,7.238c-.937,4.477,1.747,8.511,5.213,10.971a1.772,1.772,0,0,1,.284-.486m-1.8,11.757a1.156,1.156,0,0,1-.5-.2c-5.456-3.82-13.509-3.534-19.447-6.838a1.466,1.466,0,0,1-.653-1.615c.7-3.505,1.463-7,2.386-10.457.653-2.46,3.21-7.065,1.875-9.512-.256-.472-4.177-1.844-4.7-2.1q-4.369-2.017-8.609-4.32a166.186,166.186,0,0,1-26.25-17.623A28.945,28.945,0,0,0,92.584,156c-2.771,19.809-5.925,39.534-10,59.072,21.534,11.085,42.842,22.114,64.817,32.327a1.162,1.162,0,0,1,.355.271c1.095-12.13,2.629-24.258,4.389-36.359m-2.217-113.97a4.452,4.452,0,0,0-.3-3.5q.257-3.348-3.281-2.918c-3.523-1.66-11.535-.615-13.694-4.491-2.045-3.676,1.974-13.489,2.814-17.164,1.847-8.211,3.935-16.35,6.179-24.446a1.29,1.29,0,0,1,.6-.815c-10.795-4.692-21.677-9.254-32.543-13.974-3.51,20.41-6.28,40.965-8.878,61.546,15.98,6.15,31.236,14.433,46.066,23.015q.959-5.451,1.917-10.87a50.625,50.625,0,0,0,1.122-6.381M146.959,257.5c.185-2.574.4-5.163.61-7.739a1.151,1.151,0,0,1-1.278.286c-21.988-8.939-44.177-19.838-64.206-32.7-.767,3.59-1.534,7.2-2.358,10.772a.847.847,0,0,1-.084.171c10.61,1.158,21.193,8.025,30.767,12.416q18.281,8.387,36.549,16.792M108.166,26.972c.6-3.118,1.179-6.25,1.8-9.354-12.5,3.734-78.481,23.614-78.921,22.5a.966.966,0,0,1-.668,1.174L30,41.376a.411.411,0,0,0-.128.014c2.2,31.482-5.511,63.664-10.568,94.545Q11.31,184.744,3.22,233.525c12.3-1.644,24.8-2.1,37.174-2.989,12.287-.872,25.767-3.419,38.1-2.345a.613.613,0,0,1-.072-.43c.7-3.89,1.35-7.766,2-11.671l.071-.472v-.029c3.367-20.21,6.209-40.506,8.922-60.831a14.57,14.57,0,0,0-4.559-.186c-2.686.273-5.513,1.36-8.126,1.988-4.887,1.2-6.789,1.46-8.224,6.565a69.98,69.98,0,0,0-1.35,8.254c-2.243,14.588-3.409,29.279-4.758,43.969H60.935c-.129-19.6,2.514-39.149,6.093-58.386a1.245,1.245,0,0,1,.895-.9c6.465-1.573,14.219-4.963,20.867-4.979a7.246,7.246,0,0,1,1.108.1c.242-1.9.5-3.79.738-5.691-1.974.628-3.9,1.487-5.725,2.13-4.161,1.473-8.338,2.9-12.5,4.349a1.278,1.278,0,0,1-1.562-1.573,106.411,106.411,0,0,0,4.12-22.227c.355-4.85.24-9.942,2.116-14.519,2.97-7.322,9.29-10.541,16.847-8.58.668.171,1.307.386,1.961.615.511-3.891,1.051-7.781,1.591-11.672C93.8,95.084,84.927,97.6,81.745,95.97c-3.239-1.658-1.946-5.607-1.534-8.682a388.99,388.99,0,0,0,3.38-49.245q-3.431.815-6.861,1.558A668.155,668.155,0,0,1,60.111,148.407a1.449,1.449,0,0,1-1.392,1.058c-11.024-.415-22.032-.544-33.041-1.389q-.916,6.137-1.818,12.287v1.258h-.185c-3.012,20.454-6.037,40.965-10.156,61.133l-1.591-.186c3.182-28.334,8.651-56.54,13.011-84.7,4.616-29.778,9.091-59.573,13.168-89.438a1.035,1.035,0,0,1,1.662-.7c3.722-3.217,8.864-4.3,13.494-5.678,5.91-1.731,11.932-3.075,17.941-4.406,12.473-2.747,24.7-5.664,36.522-10.6a1.261,1.261,0,0,1,.441-.071M97.839,91.437c2.84-20.439,5.952-40.822,9.687-61.1a124.414,124.414,0,0,1-22.017,7.238,172.478,172.478,0,0,1-.326,34.357c-.526,5.221-1.776,10.526-2.089,15.747-.256,4.377-.824,5.708,3.849,5.221,3.466-.342,6.861-1.03,10.3-1.5a1.649,1.649,0,0,1,.6.042m-6.89,51.721c1.535-11.657,3.041-23.3,4.6-34.943a12.579,12.579,0,0,0-6.306-1.045c-9.177,1.231-10.839,9.6-11.421,17.293a127.334,127.334,0,0,1-3.865,24.259c5.4-1.888,10.8-3.962,16.292-5.393.242-.071.469-.113.7-.171M64.8,109.888c4.034-23.086,6.69-46.3,8.922-69.628-5.782,1.258-11.563,2.518-17.288,4.047-5.227,1.417-10.568,4.149-15.951,4.621a.617.617,0,0,1,0,.157Q34.257,93.13,27.355,137.079c-.483,3.075-.938,6.164-1.406,9.241,6.264-.173,12.5-.13,18.765-.015,2.713.042,5.751.557,8.409.171,3.836-.571,3.779-.213,5.341-4.233,1.917-4.906,2.316-10.941,3.338-16.135q1.577-8.088,3-16.219" transform="translate(0 9.648)" fill="#222221"/>
            <path id="Trazado_1355188" data-name="Trazado 1355188" d="M245.178,55.564c-5.7,34.728-9.475,69.828-14.944,104.614q-8.075,51.429-17.117,102.685c-.086-.044-.185-.086-.271-.129a4.367,4.367,0,0,0-.425-.129,1.316,1.316,0,0,0-.78-1.746q-20.158-8.733-40.314-17.45-10.078-4.354-20.157-8.724c-5.61-2.418-11.449-5.707-17.471-7.009a.717.717,0,0,0,.441-.615c.227-2.632.454-5.278.681-7.91,23.211,10.5,46.621,20.182,69.305,31.868-.029.1-.057.213-.084.329a1.393,1.393,0,0,0,2.684.743c.17-.486.313-.987.483-1.473a1.007,1.007,0,0,1,.044-.113c9.843-28.95,12.912-60.547,16.207-90.769,3.58-32.884,7.8-65.253,14.049-97.735a.854.854,0,0,0-1.648-.444l-.071-.014a1.368,1.368,0,0,0-.71-1.66,511.761,511.761,0,0,0-73.412-28.278c.172-2.345.328-4.692.456-7.038a1.057,1.057,0,0,0-.143-.586,38.6,38.6,0,0,1,9.006,2.56Q208.1,40.98,245.178,55.564" transform="translate(91.145 16.629)" fill="#fff"/>
            <path id="Trazado_1355189" data-name="Trazado 1355189" d="M265.7,47.975a.853.853,0,0,1,1.646.444C261.1,80.9,256.877,113.27,253.3,146.152c-3.3,30.223-6.364,61.82-16.208,90.77a.92.92,0,0,0-.042.113c-.17.486-.313.987-.483,1.473a1.394,1.394,0,0,1-2.686-.743c.029-.115.057-.229.086-.329-22.685-11.686-46.094-21.37-69.305-31.868-.227,2.632-.454,5.277-.681,7.91a.719.719,0,0,1-.441.615l-.824-.144a.627.627,0,0,1-.156-.471c.1-2.389.256-4.763.383-7.138-12.117,4.376-24.4,8.338-36.705,12.157-11.733,3.648-23.822,8.054-36.009,9.927l-.3-2.017c1.534-.615,3.109-1.187,4.672-1.744a.781.781,0,0,1-.1-.286c-1.633-11.486-.34-22.771,2.9-33.856a1.333,1.333,0,0,1,1.619-.93c4.305,1.258,10.129,2.818,12.458-3.39.525-1.373.2-3.776.271-5.265.24-4.391.468-8.782.71-13.173a1.442,1.442,0,0,1,1.036-1.373q13.766-3.475,27.53-6.965c3.224-.816,9.744-4.262,12.87-1.617,1.25,1.045.866,4.42.895,5.465.1,4.691.113,9.383.113,14.06,0,9.368.1,18.808-.582,28.134a1.387,1.387,0,0,1-.256.716c2.728-.916,5.454-1.846,8.182-2.747a1.338,1.338,0,0,1,.853-.014.522.522,0,0,1,.013-.144l1.734.115a376.823,376.823,0,0,1,42.373,17.349c3.083,1.444,6.165,2.933,9.219,4.435a1.074,1.074,0,0,1-.057-.643c1.45-6.752,3-13.459,4.134-20.268.654-3.963,1.236-7.939,1.677-11.928.256-2.218,1.662-7.224.17-8.941-1.9-2.188-5.709-1.172-8.607-1.316-2.188-.113-3.865-.886-3.836-4.2.029-2.676.837-5.636,1.236-8.267.425-2.818.2-8.353,1.62-10.785.895-1.531.652-1.946,2.6-2.374,3.382-.743,10.9,3.676,14.148,4.863,5.967,2.188,11.989,4.247,17.87,6.665a.935.935,0,0,0,.128.086c.483-3.563.965-7.124,1.406-10.7a1.339,1.339,0,0,1-1.236.259c-7.215-1.732-14.332-3.82-21.477-5.779-2.827-.757-8.607-1.273-10.781-3.676-1.8-2.017-1.137-4.391-.653-6.75,1.562-7.481,3.394-14.577,3.735-22.285.284-6.365-1.25-19.152,4.872-23.687,3.239-2.416,8.439-.958,12.216-.743,6.734.386,13.467.786,20.186,1.458q.532-4.1,1.15-8.194a1.345,1.345,0,0,1-.54.056c-3.466-.271-6.932-.571-10.412-.872-1.762-.142-5.128.273-6.776-.73-1.705-1.043-1.762-1.631-1.762-3.475,0-5.678,3.283-12.931,4.759-18.422,1.847-6.938,3.68-13.874,5.767-20.741a1.665,1.665,0,0,1,.086-.215l1.662.086a.955.955,0,0,1,.086.643c-1.833,8.782-3.977,17.508-6.15,26.2-.938,3.734-4.475,10.943-.271,13.417,2.642,1.544,9.83.83,13.011,1.1a1.484,1.484,0,0,1,.923.442A265.554,265.554,0,0,1,265.7,47.975m-14.831,92.9c1.507-14,2.8-28.264,4.618-42.453-4.319-.029-8.637-.171-12.941-.329-4.433-.173-9.49-1.145-13.879-.615-8.863,1.058-6.676,16.248-7.073,23.013a95.441,95.441,0,0,1-1.293,11.2c-.383,2.232-.866,4.448-1.419,6.636-.938,3.776-.767,6.337,2.8,9,2.94,2.188,9.843,2.689,13.408,3.661,4.475,1.216,8.964,2.389,13.381,3.747a1.384,1.384,0,0,1,.725.5q.9-7.145,1.675-14.36M247.1,170.926a1.625,1.625,0,0,1-.511-.071c-5.171-1.688-10.242-3.69-15.341-5.593-3.622-1.331-10.285-5.465-14.036-5.278-2.684.144-1.889.229-2.4,3.634-.326,2.23-.668,4.476-1.009,6.723-.525,3.475-2.173,7.209,2.373,9.325,1.69.8,6.5.3,8.351.329a1.363,1.363,0,0,1,1.35,1.36c-1.051,14.746-3.125,29.592-7.458,43.738-.013,0-.027-.014-.042-.029a.989.989,0,0,1-.681.73c5.725,2.818,11.405,5.722,17.031,8.624A590.564,590.564,0,0,0,247.1,170.926M152.032,182.97c.029-3.747.029-7.51,0-11.258-.013-1.473.853-10.484-.141-11.256-2.8-2.146-15.739,3.146-19.291,4.047-5.086,1.289-15.995,1.788-17.529,7.209-2.074,7.395,3.651,20.3-6.762,21.67-1.292.171-6.633-.972-7.67-.457-2.627,1.329-2.655,5.607-3.153,8.353a110.633,110.633,0,0,0-1.25,22.827c9.587-3.26,19.589-5.607,29.176-8.582,9.1-2.8,18.126-5.82,27.146-8.839a1.19,1.19,0,0,1-.853-1.216c-.086-7.495.269-15,.326-22.5" transform="translate(61.306 30.21)" fill="#222221"/>
            <path id="Trazado_1355190" data-name="Trazado 1355190" d="M204.239,47.925l.071.014a265.617,265.617,0,0,0-8.38,37.49,1.5,1.5,0,0,0-.923-.444c-3.182-.271-10.37.444-13.011-1.1-4.206-2.476-.668-9.684.269-13.417,2.173-8.7,4.319-17.421,6.15-26.2a.964.964,0,0,0-.084-.643q7.01,2.766,14.005,5.507a1.463,1.463,0,0,0,1.9-1.2" transform="translate(122.696 30.245)" fill="#92c6cc"/>
            <path id="Trazado_1355191" data-name="Trazado 1355191" d="M222.117,89.1a1.319,1.319,0,0,0,.54-.058q-.621,4.1-1.152,8.2c-6.717-.672-13.452-1.072-20.186-1.458-3.779-.215-8.977-1.675-12.214.743-6.121,4.533-4.588,17.322-4.874,23.685-.341,7.71-2.171,14.805-3.733,22.285-.486,2.361-1.154,4.735.652,6.752,2.171,2.4,7.955,2.918,10.78,3.676,7.146,1.959,14.261,4.047,21.477,5.778a1.343,1.343,0,0,0,1.236-.257c-.439,3.576-.922,7.138-1.406,10.7-.055-.029-.084-.058-.128-.085-5.879-2.418-11.9-4.477-17.868-6.667-3.254-1.187-10.768-5.607-14.15-4.862-1.946.428-1.7.843-2.6,2.374-1.421,2.432-1.192,7.967-1.62,10.783-.4,2.633-1.207,5.593-1.236,8.269-.029,3.317,1.648,4.089,3.834,4.2l-.128,4.034a.8.8,0,0,0-.256-.086c-4.43-.987-9.217-.672-9.942-5.807-.555-3.962.725-9.369,1.095-13.346.765-8.453,1.776-16.863,2.74-25.289a1.432,1.432,0,0,0-.725-1.272c-9.7-5.393-19.246-11.529-29.289-16.263a26.889,26.889,0,0,0-2.755-1.116c.468-2.86.922-5.707,1.421-8.553l.141.029a.788.788,0,0,0,.283.787,146.564,146.564,0,0,0,27.032,17.22,1.523,1.523,0,0,0,2.2-.9,192.784,192.784,0,0,0,9.757-49.733.682.682,0,0,0-.027-.129c4.546,1.573,9.149,2.918,13.735,4.291a1.515,1.515,0,0,0,1.847-1.058q5.986-21.6,11.89-43.268a1.419,1.419,0,0,0,.042-.686c1.9.743,3.792,1.487,5.7,2.245a.847.847,0,0,0-.456.386,1.684,1.684,0,0,0-.084.215c-2.087,6.865-3.922,13.8-5.767,20.739-1.478,5.493-4.761,12.744-4.761,18.422,0,1.846.057,2.432,1.764,3.477,1.645,1,5.012.586,6.774.73,3.479.3,6.947.6,10.413.872" transform="translate(95.585 29.132)" fill="#f1d78e"/>
            <path id="Trazado_1355192" data-name="Trazado 1355192" d="M203.409,76.413c-1.818,14.189-3.111,28.449-4.616,42.453q-.79,7.209-1.677,14.36a1.377,1.377,0,0,0-.725-.5c-4.416-1.358-8.906-2.532-13.38-3.747-3.565-.972-10.469-1.473-13.41-3.661-3.565-2.66-3.735-5.221-2.8-9,.555-2.188,1.038-4.406,1.421-6.636a95.445,95.445,0,0,0,1.292-11.2c.4-6.765-1.789-21.955,7.075-23.015,4.389-.528,9.446.444,13.878.616,4.3.157,8.622.3,12.941.329" transform="translate(113.383 52.22)" fill="#92c6cc"/>
            <path id="Trazado_1355193" data-name="Trazado 1355193" d="M196.67,123.189a1.625,1.625,0,0,0,.511.071,590.6,590.6,0,0,1-12.372,63.493c-5.625-2.9-11.306-5.808-17.031-8.626a.987.987,0,0,0,.681-.728c.015.014.029.027.042.027,4.334-14.145,6.407-28.992,7.458-43.738a1.364,1.364,0,0,0-1.35-1.36c-1.847-.029-6.661.472-8.351-.328-4.546-2.117-2.9-5.851-2.373-9.325.341-2.245.683-4.491,1.009-6.723.511-3.4-.284-3.49,2.4-3.632,3.75-.186,10.413,3.947,14.036,5.277,5.1,1.9,10.169,3.9,15.341,5.593" transform="translate(111.229 77.876)" fill="#92c6cc"/>
            <path id="Trazado_1355194" data-name="Trazado 1355194" d="M205.5,49.511a1.454,1.454,0,0,0-.568.83q-5.731,20.94-11.421,41.894c-4.3-1.058-8.622-2.132-12.983-2.989a.931.931,0,0,0-1.122.672,1.587,1.587,0,0,0-2,1.416,197.944,197.944,0,0,1-9.021,47.157c-8.878-4.606-17.3-9.883-25.8-15.2a.963.963,0,0,0-1.392.672l-.141-.029q.489-2.941,1.022-5.879C147.362,88.7,154,59.553,156.467,29.8Q180.886,39.82,205.5,49.511" transform="translate(96.161 20.664)" fill="#92c6cc"/>
            <path id="Trazado_1355195" data-name="Trazado 1355195" d="M174.814,126.728c1.492,1.715.086,6.723-.17,8.939-.441,3.991-1.024,7.967-1.677,11.93-1.137,6.807-2.686,13.517-4.134,20.266a1.078,1.078,0,0,0,.057.645c-3.054-1.5-6.137-2.99-9.219-4.435l.141-.3a1.665,1.665,0,0,0,2.415-1.287c1.207-10.472,2.671-20.856,4.673-31.211a1.636,1.636,0,0,0-.824-1.831l.128-4.034c2.9.142,6.705-.872,8.609,1.316" transform="translate(108.852 86.88)" fill="#f1d78e"/>
            <path id="Trazado_1355196" data-name="Trazado 1355196" d="M176.992,186.926l-.141.3a376.851,376.851,0,0,0-42.374-17.349c2.3-26.1,5.171-52.107,9.263-77.968,7.5,2.5,15.539,8.711,20.369,11.442,2.812,1.588,8.906,3.605,9.5,7.166.639,3.876-1.207,9.569-1.635,13.5-.483,4.449-.908,8.882-1.292,13.33-.313,3.561-1.662,8.8-.824,12.3,1.122,4.692,6.676,4.921,10.923,5.607-1.917,10.055-3.495,20.182-4.418,30.381a1.24,1.24,0,0,0,.626,1.287" transform="translate(91.675 63.728)" fill="#92c6cc"/>
            <path id="Trazado_1355197" data-name="Trazado 1355197" d="M167.787,25.279a23.68,23.68,0,0,1,9.034-1.387,1.114,1.114,0,0,0-.341.757q-.169,3.327-.425,6.652c-.029.014-.044.029-.071.042A1.3,1.3,0,0,0,174.547,31c-11.249,3.661-22.471,7.422-33.693,11.185-10.4,3.5-20.81,7.795-31.549,10.142.441-1.846.881-3.692,1.322-5.551a1.077,1.077,0,0,0-.725-1.316c13.366-3.676,26.422-8.968,39.475-13.616,6.137-2.188,12.245-4.477,18.41-6.565" transform="translate(74.515 16.547)" fill="#fff"/>
            <path id="Trazado_1355198" data-name="Trazado 1355198" d="M161.538,29.963a2.072,2.072,0,0,0,.5-.271c-2.6,31.38-9.7,62.1-15.072,93.1l-10.341.286q1.874-8.494,3.706-16.991c1.022-4.677,3.153-10.055,3.125-14.8-.042-6.667-8.494-5.422-13.878-5.078,4.233-16.09,8.779-32.569,10.64-49.1q10.673-3.541,21.321-7.138" transform="translate(88.335 20.588)" fill="#92c6cc"/>
            <path id="Trazado_1355199" data-name="Trazado 1355199" d="M162.384,110.587q5.86-.193,11.733-.357c-.355,2.061-.681,4.12-1.022,6.179-4.076-.93-8.082-.371-11.491,2.875a.694.694,0,0,0-.029,1.058,1.594,1.594,0,0,0-.156.273c-3.38,8.524-4.517,17.735-4.517,26.86a1.441,1.441,0,0,0,1.8,1.389,34.792,34.792,0,0,1,9.83-1.475c-2.146,16.593-3.792,33.241-4.8,49.934a.456.456,0,0,0-.015.142,1.345,1.345,0,0,0-.851.014c-2.728.9-5.456,1.832-8.183,2.747a1.381,1.381,0,0,0,.256-.715c.683-9.325.584-18.766.584-28.134,0-4.677-.015-9.369-.114-14.06-.029-1.045.355-4.421-.895-5.465-3.125-2.647-9.645.8-12.87,1.615q-13.763,3.477-27.528,6.967a1.44,1.44,0,0,0-1.038,1.373c-.24,4.391-.468,8.782-.71,13.173-.071,1.488.256,3.891-.271,5.263-2.329,6.208-8.153,4.65-12.456,3.39a1.335,1.335,0,0,0-1.619.93c-3.239,11.085-4.532,22.371-2.9,33.856a.741.741,0,0,0,.1.286c-1.562.559-3.14,1.131-4.673,1.746-.511.2-1.022.415-1.534.628,2.343-15.2,4.431-30.422,6.619-45.642,5.37.386,10.81-2.789,12.287-8.3a12.07,12.07,0,0,0-8.1-14.218c-.271-.071-.555-.129-.824-.185,1.221-7.91,2.514-15.806,3.934-23.687q2.578-14.331,5.413-28.606c5.553.113,12.287-1.9,17.386-2.589a1.58,1.58,0,0,0,1.392-1.072,59.134,59.134,0,0,0,4.019-26.247,1.479,1.479,0,0,0-1.831-1.4,50.766,50.766,0,0,1-14.5.071c.383-1.744.78-3.475,1.15-5.205,5.1.515,10.354-1.331,15.554-2.46q7.288-1.588,14.5-3.461c2.259-.586,5.952-.958,7.67-2.818a7.131,7.131,0,0,0,1.364-3.1l3.338.772c-1.45,6.323-2.913,12.644-4.546,18.881a1.5,1.5,0,0,0,1.434,1.888c2.6.029,8.565-1.074,10.81.113,3.622,1.888.511,8.926-.128,11.815q-2.515,11.522-5.028,23.028a1.542,1.542,0,0,0,1.448,1.93m-8,.115c1.421-7.508,5.284-16.119,5.156-23.7a1.425,1.425,0,0,0-.71-1.245c-5.185-2.545-12.075-2.931-17.729-4.118a1.459,1.459,0,0,0-1.774,1.014c-1.976,7.51-3.836,15.063-5.5,22.657-.811,3.675-.6,7.437-4.517,8.438-3.836.974-10.356-.457-14.036-.972-1.576-.215-2.4,1.844-1.448,2.618l-.895.042c-.383-.472-1.364-.444-1.492.286a190.618,190.618,0,0,1-5.44,23.357,1.368,1.368,0,0,0,1.307,1.717c2,.042,6.406-.7,7.827.743s.654,6.208.683,8.21a1.4,1.4,0,0,0,1.746,1.331c8.935-1.231,17.956-2.2,26.862-3.719,6.264-1.074,5.91-2.19,6.335-8.325a244.388,244.388,0,0,1,3.622-28.335" transform="translate(60.685 36.166)" fill="#f1d78e"/>
            <path id="Trazado_1355200" data-name="Trazado 1355200" d="M144,91.753q-2.046,12.766-3.75,25.589a36.759,36.759,0,0,0-9.149,1.145,131.9,131.9,0,0,1,3.239-24.546.881.881,0,0,0-.17-.728c2.756-2.132,6.179-2.332,9.83-1.46" transform="translate(89.371 63.283)" fill="#92c6cc"/>
            <path id="Trazado_1355201" data-name="Trazado 1355201" d="M131.481,37.017c2.613-.872,5.227-1.731,7.84-2.6-3,10.126-5.326,20.481-7.7,30.823l-3.338-.772c.782-3.333.753-7.981,1.066-10.17q1.173-8.194,2.272-16.419a1.425,1.425,0,0,0-.141-.859" transform="translate(87.454 23.862)" fill="#f1d78e"/>
            <path id="Trazado_1355202" data-name="Trazado 1355202" d="M164.225,139.692c-.128,2.374-.284,4.748-.383,7.138a.634.634,0,0,0,.156.472c-4.631-.8-8.779.471-13.2,1.944q-10.378,3.454-20.726,6.938c-14.034,4.706-28.238,9.11-42.031,14.517.483-2.946.937-5.906,1.392-8.853a1,1,0,0,0,.668.142c.468-.071.937-.129,1.406-.213,12.187-1.875,24.276-6.281,36.009-9.927,12.3-3.82,24.588-7.781,36.705-12.158" transform="translate(60.022 96.86)" fill="#fff"/>
            <path id="Trazado_1355203" data-name="Trazado 1355203" d="M152.68,74.948c.128,7.581-3.735,16.192-5.156,23.7a244.388,244.388,0,0,0-3.622,28.335c-.425,6.135-.071,7.251-6.335,8.325-8.906,1.516-17.927,2.488-26.862,3.719a1.4,1.4,0,0,1-1.747-1.331c-.027-2,.74-6.765-.681-8.209s-5.824-.7-7.827-.743a1.368,1.368,0,0,1-1.307-1.717,190.618,190.618,0,0,0,5.44-23.357c.128-.73,1.108-.759,1.492-.286a.686.686,0,0,1,.17.515,99.373,99.373,0,0,1-4.006,22.156c2.642.029,5.271.071,7.9.113a1.412,1.412,0,0,1,1.377,1.373c.057,2.875.1,5.751.156,8.626,8.224-1.016,17.3-1.3,25.157-3.534,2.571-.743,3.281-.2,4.134-3.018.553-1.8.3-4.735.454-6.565.326-3.934.753-7.867,1.265-11.772.994-7.522,2.3-15,3.977-22.412.88-3.9,4.246-10.728.34-13.66-2.285-1.717-8.338-2.059-12.06-2.574q-3.983,15.3-7.13,30.809a1.494,1.494,0,0,1-1.406,1.087,104.174,104.174,0,0,1-18.765-.916,1.248,1.248,0,0,1-.668-.271c-.952-.774-.128-2.833,1.448-2.618,3.68.515,10.2,1.946,14.036.972,3.92-1,3.706-4.763,4.517-8.438,1.662-7.595,3.522-15.147,5.5-22.657a1.459,1.459,0,0,1,1.774-1.014c5.654,1.187,12.544,1.573,17.729,4.118a1.425,1.425,0,0,1,.71,1.245" transform="translate(67.548 48.22)" fill="#222221"/>
            <path id="Trazado_1355204" data-name="Trazado 1355204" d="M142.974,36.914c.426-.142.853-.286,1.278-.415-1.036,7.652-1.164,16.449-3.422,23.743-1.08,3.519-1.9,4.106-5.5,5.436a65.021,65.021,0,0,1-6.564,1.688q-5.923,1.458-11.888,2.718c-3.693.772-7.615,1.959-11.436,1.731q2.835-12.787,5.839-25.518a1.636,1.636,0,0,0,.326-.6c10.781-1.272,21.109-5.407,31.364-8.782" transform="translate(71.884 25.308)" fill="#92c6cc"/>
            <path id="Trazado_1355205" data-name="Trazado 1355205" d="M145.719,73.941c3.907,2.933.54,9.756-.341,13.659-1.675,7.41-2.983,14.89-3.977,22.414-.511,3.9-.937,7.839-1.265,11.772-.155,1.831.1,4.763-.454,6.565-.853,2.818-1.562,2.274-4.134,3.018-7.855,2.232-16.932,2.518-25.157,3.532-.055-2.874-.1-5.749-.156-8.624a1.409,1.409,0,0,0-1.377-1.373c-2.629-.042-5.255-.085-7.9-.113a99.469,99.469,0,0,0,4.006-22.156.687.687,0,0,0-.172-.515l.895-.042a1.248,1.248,0,0,0,.668.271,104.19,104.19,0,0,0,18.765.916,1.494,1.494,0,0,0,1.408-1.087q3.131-15.512,7.131-30.809c3.722.515,9.772.857,12.06,2.574" transform="translate(68.826 49.484)" fill="#92c6cc"/>
            <path id="Trazado_1355206" data-name="Trazado 1355206" d="M149.512,124.059c.029,3.747.029,7.51,0,11.258-.057,7.495-.412,15-.326,22.5a1.191,1.191,0,0,0,.853,1.216c-9.021,3.018-18.041,6.035-27.146,8.839-9.587,2.975-19.589,5.321-29.176,8.582a110.649,110.649,0,0,1,1.25-22.828c.5-2.747.526-7.022,3.153-8.353,1.038-.515,6.379.63,7.67.459,10.413-1.373,4.689-14.275,6.762-21.67,1.534-5.421,12.443-5.922,17.529-7.209,3.552-.9,16.493-6.194,19.291-4.047.994.772.128,9.783.141,11.256" transform="translate(63.826 77.863)" fill="#92c6cc"/>
            <path id="Trazado_1355207" data-name="Trazado 1355207" d="M120.2,64.046a57.576,57.576,0,0,1-1.093,14.7c-1.223,5.678-2,8.138-8.168,8.983a73.137,73.137,0,0,1-10.015,1.03q2.492-12.467,5.17-24.888a54.231,54.231,0,0,0,14.106.171" transform="translate(68.803 44.29)" fill="#92c6cc"/>
            <path id="Trazado_1355208" data-name="Trazado 1355208" d="M138.7,51.218a1.309,1.309,0,0,0,.313.171.988.988,0,0,0-.683.745c-.468,1.959-.937,3.9-1.391,5.864C114.121,46.011,90.13,34.24,65.484,26.659c.626-3.532,1.251-7.066,1.919-10.6a.321.321,0,0,0,0-.113,1.557,1.557,0,0,0,.511-.672c4.872,3.519,10.923,5.578,16.335,8.152q9.185,4.333,18.225,8.983,17.471,8.966,34.4,18.966a1.512,1.512,0,0,0,1.818-.157" transform="translate(44.642 10.591)" fill="#fff"/>
            <path id="Trazado_1355209" data-name="Trazado 1355209" d="M122.135,48.368c-1.974,8.325-3.849,16.663-5.7,25.016a11.789,11.789,0,0,1-2.472-.843c-3.2-1.517-6.066-3.991-9.275-5.607a66.929,66.929,0,0,0-18.623-6.022c2.131-8.726,4.3-17.45,5.852-26.3a.8.8,0,0,0-.3-.828c10.27,4.562,20.468,9.325,30.511,14.588" transform="translate(58.675 23.422)" fill="#92c6cc"/>
            <path id="Trazado_1355210" data-name="Trazado 1355210" d="M119.536,77.415c-.383,1.746-.767,3.477-1.15,5.221a43.457,43.457,0,0,1-4.973-1.273c-1.662-.544-5.383-3-7.314-1.93-2.159,1.2-2.2,5.607-2.586,7.508q-1.811,9.076-3.622,18.138a1.415,1.415,0,0,0,.214,1.1,19.276,19.276,0,0,0-2.4-.628.647.647,0,0,0-.811.515l-3.892-.5a1.364,1.364,0,0,0,1.391-1.045c1.337-7.566,3.779-15.676,4.12-23.328.156-3.734-1.534-4.506-4.943-5.449-2.543-.7-10.8-1.116-12.388-3.133-1.946-2.46,1.278-11.371,1.862-13.989,1.931-8.64,4.119-17.206,6.491-25.731a1.616,1.616,0,0,0,.042-.63c1.818.8,3.622,1.6,5.427,2.4a.769.769,0,0,0-.895.559c-2.9,9.053-5.114,18.307-7.43,27.519a1.465,1.465,0,0,0,1.009,1.773c10.894,1.775,19.034,6.536,28.551,11.644a13.681,13.681,0,0,0,3.3,1.258" transform="translate(54.923 22.368)" fill="#f1d78e"/>
            <path id="Trazado_1355211" data-name="Trazado 1355211" d="M109.176,64.815q-2.684,12.55-5.185,25.16A17.852,17.852,0,0,1,99.2,88.888c-2.173-.859-4.019-1.875-6.022-2.7a1.168,1.168,0,0,0,.853-.943l2.84-14.26A58.252,58.252,0,0,1,98.167,64.5c1.364-4.233,2.556-2.088,5.894-1a46.363,46.363,0,0,0,5.114,1.316" transform="translate(63.523 42.977)" fill="#92c6cc"/>
            <path id="Trazado_1355212" data-name="Trazado 1355212" d="M126.319,94.029c.141.029.284.042.441.071-.811,4.091-1.619,8.182-2.4,12.287-.013,0-.013-.015-.042-.029Q105.437,98.1,86.943,88.921,77.1,84.009,67.4,78.824c-2.814-1.487-5.64-3.217-8.6-4.591.555-4.391,1.095-8.782,1.648-13.188,15.669,8,31.463,15.5,46.678,24.373a1.349,1.349,0,0,0,.71.186l3.892.5a.707.707,0,0,0,.456.787c4.546,1.888,9.3,6.266,14.133,7.138" transform="translate(40.087 42.327)" fill="#f1d78e"/>
            <path id="Trazado_1355213" data-name="Trazado 1355213" d="M95.758,113.169a9.206,9.206,0,0,1,6.919,10.1,8.92,8.92,0,0,1-9.5,7.253q1.256-8.669,2.585-17.35" transform="translate(63.518 78.469)" fill="#92c6cc"/>
            <path id="Trazado_1355214" data-name="Trazado 1355214" d="M124.76,102.275a1.378,1.378,0,0,0,.98.058c-.923,4.935-1.833,9.883-2.7,14.846-.454,2.547-.895,5.107-1.335,7.652a.983.983,0,0,0-.227-.142,105.158,105.158,0,0,0-17.685-4.906,1.4,1.4,0,0,0-1.734,1.345c-.155,2.044.2,7.422-1.08,9.11.057,2.046-.78,1.988-2.514-.2l-2.343-1.588c-3.922-2.645-7.827-5.305-11.748-7.939-7.6-5.106-15.226-10.2-23.04-14.99a.617.617,0,0,0-.326-.586,8.686,8.686,0,0,0-4.9-1.431c1.463-11.012,2.84-22.041,4.2-33.084,2.713,1.431,5.3,3.148,7.514,4.32Q95.74,89.654,124.76,102.275" transform="translate(38.251 48.828)" fill="#92c6cc"/>
            <path id="Trazado_1355215" data-name="Trazado 1355215" d="M121.265,113.01a1.678,1.678,0,0,0,.511.071c-.725,4.149-1.463,8.3-2.173,12.458a12.247,12.247,0,0,0-11.009,7.752c-2.146,5.879,1.007,12.988,6.988,14.919a.771.771,0,0,0,.3.042c-.341,2.232-.711,4.464-1.038,6.7-3.707-2.6-9.162-2.833-13.338-4.206-5.3-1.715-4.433-3.947-3.281-8.724,1.036-4.349,2.329-8.626,3.735-12.86a1.4,1.4,0,0,0-.937-1.673,163.6,163.6,0,0,1-39.746-23.443c-1.946-1.56-3.792-3.719-5.938-5.106.355-2.576.683-5.165,1.024-7.752a9.354,9.354,0,0,1,3.621.271.92.92,0,0,0,.341.672c12.117,9.039,24.688,17.593,37.287,25.917,7.529,4.963,7.331-3.217,7.628-9.6a103.1,103.1,0,0,1,16.023,4.562" transform="translate(37.726 63.181)" fill="#f1d78e"/>
            <path id="Trazado_1355216" data-name="Trazado 1355216" d="M96.745,113.076q-1.491,8.839-2.9,17.721a1.808,1.808,0,0,0-.284.488c-3.466-2.46-6.15-6.494-5.213-10.971a9.525,9.525,0,0,1,8.4-7.238" transform="translate(60.101 78.405)" fill="#92c6cc"/>
            <path id="Trazado_1355217" data-name="Trazado 1355217" d="M118.17,152.933a1.154,1.154,0,0,0,.5.2c-1.762,12.1-3.3,24.231-4.389,36.359a1.191,1.191,0,0,0-.357-.271C91.949,179.008,70.641,167.98,49.107,156.9c4.076-19.538,7.23-39.263,10-59.074a28.684,28.684,0,0,1,3.664,2.647,166.062,166.062,0,0,0,26.25,17.621q4.24,2.3,8.609,4.32c.526.257,4.446,1.631,4.7,2.1,1.335,2.445-1.221,7.051-1.875,9.512-.923,3.461-1.69,6.951-2.386,10.455a1.464,1.464,0,0,0,.654,1.615c5.936,3.305,13.992,3.019,19.446,6.838" transform="translate(33.477 67.828)" fill="#92c6cc"/>
            <path id="Trazado_1355218" data-name="Trazado 1355218" d="M108.76,87.24a4.452,4.452,0,0,1,.3,3.5,50.625,50.625,0,0,1-1.122,6.381q-.959,5.428-1.917,10.87C91.189,99.412,75.932,91.131,59.951,84.979c2.6-20.581,5.37-41.136,8.879-61.546,10.866,4.719,21.746,9.283,32.543,13.974a1.289,1.289,0,0,0-.6.816c-2.243,8.094-4.332,16.233-6.179,24.444-.839,3.676-4.858,13.488-2.814,17.164,2.159,3.876,10.171,2.831,13.694,4.491q3.537-.429,3.281,2.918" transform="translate(40.87 16.248)" fill="#92c6cc"/>
            <path id="Trazado_1355219" data-name="Trazado 1355219" d="M115.286,166.46c-.214,2.574-.425,5.163-.61,7.739q-18.261-8.39-36.549-16.793c-9.574-4.391-20.157-11.256-30.769-12.414a1.022,1.022,0,0,0,.086-.173c.824-3.575,1.591-7.18,2.358-10.77,20.029,12.86,42.216,23.758,64.206,32.7a1.154,1.154,0,0,0,1.278-.286" transform="translate(32.285 92.947)" fill="#fff"/>
            <path id="Trazado_1355220" data-name="Trazado 1355220" d="M108.664,16.1c-.626,3.1-1.207,6.237-1.8,9.354a1.267,1.267,0,0,0-.441.071C94.6,30.461,82.37,33.38,69.9,36.125,63.89,37.456,57.867,38.8,51.958,40.531c-4.63,1.373-9.772,2.46-13.494,5.678a1.036,1.036,0,0,0-1.662.7c-4.078,29.864-8.552,59.659-13.168,89.439-4.361,28.163-9.83,56.369-13.011,84.7-.044.3-.086.616-.114.916-.425.643-.128,1.788.809,1.673,11.081-1.373,22.061-3.375,33.155-4.662,11.121-1.3,22.315-1.974,33.424-3.377a1.464,1.464,0,0,0,1.221-1.03c-.653,3.9-1.307,7.781-2,11.672a.618.618,0,0,0,.071.428c-12.329-1.074-25.809,1.473-38.1,2.345-12.372.887-24.873,1.345-37.174,2.989q8.032-48.787,16.079-97.591c5.057-30.88,12.771-63.063,10.57-94.545a.406.406,0,0,1,.128-.014l.383-.086a.968.968,0,0,0,.668-1.174c.441,1.116,66.421-18.764,78.921-22.5" transform="translate(1.305 11.164)" fill="#fff"/>
            <path id="Trazado_1355221" data-name="Trazado 1355221" d="M73.91,23.61c-3.735,20.282-6.846,40.665-9.688,61.1a1.639,1.639,0,0,0-.6-.042c-3.437.471-6.833,1.158-10.3,1.5-4.673.488-4.105-.843-3.849-5.221.313-5.221,1.562-10.526,2.089-15.747a172.6,172.6,0,0,0,.326-34.357A124.413,124.413,0,0,0,73.91,23.61" transform="translate(33.617 16.371)" fill="#92c6cc"/>
            <path id="Trazado_1355222" data-name="Trazado 1355222" d="M87.812,84.131c-.54,3.891-1.08,7.781-1.591,11.672-.654-.23-1.293-.444-1.961-.616-7.556-1.959-13.878,1.26-16.846,8.582-1.875,4.577-1.762,9.669-2.117,14.519a106.48,106.48,0,0,1-4.119,22.226,1.278,1.278,0,0,0,1.562,1.575c4.162-1.444,8.338-2.875,12.5-4.349,1.818-.643,3.75-1.5,5.725-2.132-.242,1.9-.5,3.791-.738,5.693a7.06,7.06,0,0,0-1.108-.1c-6.648.014-14.4,3.4-20.867,4.977a1.255,1.255,0,0,0-.9.9c-3.579,19.238-6.221,38.792-6.093,58.388v.042c0,.014.013.029.013.058-2.486.186-4.985.371-7.472.615a1.328,1.328,0,0,0,1.265-1.316c.271-9.312.3-18.637.4-27.949.055-4.662.1-9.312.141-13.974.042-4.564.965-10.27.015-14.732-.626-2.9-1.663-3.576-4.618-3.4-4.105.229-8.466,1.587-12.514,2.359-4.773.9-9.759,1.573-14.3,3.319q.9-6.157,1.818-12.287c11.009.843,22.019.974,33.041,1.387a1.447,1.447,0,0,0,1.392-1.058,668.292,668.292,0,0,0,16.62-108.8q3.428-.749,6.86-1.558a388.7,388.7,0,0,1-3.38,49.245c-.412,3.075-1.705,7.022,1.534,8.682,3.182,1.631,12.06-.887,15.739-1.959" transform="translate(9.672 19.528)" fill="#f1d78e"/>
            <path id="Trazado_1355223" data-name="Trazado 1355223" d="M65.571,70.063c-1.562,11.644-3.067,23.286-4.6,34.943-.227.058-.454.1-.7.171-5.5,1.431-10.894,3.505-16.292,5.393a127.313,127.313,0,0,0,3.865-24.259c.582-7.695,2.243-16.062,11.421-17.293a12.616,12.616,0,0,1,6.306,1.045" transform="translate(29.981 47.799)" fill="#92c6cc"/>
            <path id="Trazado_1355224" data-name="Trazado 1355224" d="M59.562,97.015a14.57,14.57,0,0,1,4.559.186c-2.713,20.326-5.553,40.621-8.92,60.831a1.162,1.162,0,0,0-1.293-1.216c-5.511.257-11.15.559-16.8.974,1.349-14.69,2.514-29.38,4.759-43.969a69.629,69.629,0,0,1,1.349-8.254c1.435-5.106,3.338-5.363,8.225-6.565,2.613-.628,5.44-1.715,8.124-1.988" transform="translate(25.295 67.204)" fill="#92c6cc"/>
            <path id="Trazado_1355225" data-name="Trazado 1355225" d="M75.783,133.509v.029l-.071.472a1.47,1.47,0,0,1-1.223,1.03c-11.108,1.4-22.3,2.074-33.422,3.375-11.094,1.287-22.076,3.29-33.155,4.664-.937.113-1.236-1.03-.809-1.673.029-.3.071-.616.113-.916l1.591.186a235.783,235.783,0,0,1,39.8-6.68l.156-.014c2.486-.244,4.985-.43,7.472-.615,0-.029-.015-.044-.015-.058v-.042h1.463c5.654-.415,11.293-.716,16.8-.974a1.162,1.162,0,0,1,1.293,1.216" transform="translate(4.712 91.728)" fill="#222221"/>
            <path id="Trazado_1355226" data-name="Trazado 1355226" d="M63.2,29.472C60.971,52.8,58.314,76.015,54.279,99.1q-1.405,8.131-3,16.219c-1.022,5.194-1.419,11.229-3.338,16.135-1.562,4.02-1.505,3.663-5.341,4.233-2.655.386-5.7-.129-8.409-.171-6.264-.115-12.5-.157-18.765.015.469-3.077.923-6.166,1.406-9.241Q23.7,82.35,29.962,38.3a.617.617,0,0,0,0-.157c5.383-.472,10.724-3.2,15.951-4.621C51.637,31.99,57.419,30.73,63.2,29.472" transform="translate(10.519 20.435)" fill="#92c6cc"/>
            <path id="Trazado_1355227" data-name="Trazado 1355227" d="M45.624,100.459c.95,4.462.027,10.169-.015,14.732-.042,4.664-.086,9.312-.143,13.974-.1,9.312-.128,18.637-.4,27.949A1.328,1.328,0,0,1,43.8,158.43l-.156.014a1.286,1.286,0,0,1-1.322-1.329c-.071-14.433.257-28.892.5-43.325.042-2.831.967-7.08.215-9.783q1.4-4.679-4.263-3.92c-1.833.344-3.663.672-5.482,1.016-6.278,1.158-12.712,2.933-19.1,2.889v-1.258c4.546-1.746,9.53-2.418,14.3-3.319,4.048-.772,8.409-2.13,12.514-2.359,2.955-.173,3.991.5,4.618,3.4" transform="translate(9.673 67.279)" fill="#222221"/>
            <path id="Trazado_1355228" data-name="Trazado 1355228" d="M47.23,102.8c.753,2.7-.17,6.951-.214,9.783-.24,14.433-.568,28.894-.5,43.325a1.287,1.287,0,0,0,1.32,1.331,235.964,235.964,0,0,0-39.8,6.679c4.119-20.166,7.144-40.678,10.156-61.131h.185c6.392.042,12.826-1.731,19.106-2.891,1.818-.342,3.649-.672,5.482-1.014q5.668-.752,4.261,3.918" transform="translate(5.48 68.488)" fill="#92c6cc"/>
            <path id="Trazado_1355229" data-name="Trazado 1355229" d="M240.761,39.4c.575,1.367-.782,2.271-1.9,2.012L237.656,40.2Q232.4,27.782,227.167,15.354c-22.826,9.654-45.933,19.013-69.421,27.1a.771.771,0,0,1,.429.418,31.142,31.142,0,0,1,1.784,5.239.662.662,0,0,1-1.243.45,32.291,32.291,0,0,1-1.939-5.183.78.78,0,0,1,.084-.62q-11.13,3.813-22.374,7.2c3.522,8.216,7.647,16.08,11.273,24.3l.641,2.122a3.688,3.688,0,0,1-.38.124,1.009,1.009,0,0,1-1.1-.293,1.09,1.09,0,0,1-.959-.434c-7-9.412-11.562-21.267-15.487-32.25a1.639,1.639,0,0,1,.96-2.056Q177.43,24.187,225.428,6.89a1.628,1.628,0,0,1,2.04.967L240.761,39.4M225.968,12.492c-.289-.691-.585-1.392-.874-2.081L155.43,35.522a.97.97,0,0,1,.145.2,28.152,28.152,0,0,1,1.325,3.626c23.14-8.607,46.267-17.252,69.068-26.854M154.253,35.949l-22.2,8c.52,1.372,1.061,2.721,1.614,4.066,7.29-2.745,14.582-5.446,21.881-8.165a28.141,28.141,0,0,1-1.276-3.656.429.429,0,0,1-.015-.246" transform="translate(87.524 4.713)" fill="#222221"/>
            <path id="Trazado_1355230" data-name="Trazado 1355230" d="M230.614,26.536l1.207,1.211a1.5,1.5,0,0,1-.947,1.888C200.546,40.787,170.317,53.4,139.359,62.71l-.641-2.122c6.914-3.021,13.925-5.856,20.966-8.6a7.711,7.711,0,0,1-1.7-3.416c-.163-.823,1.214-1.1,1.441-.3a8.336,8.336,0,0,0,1.593,3.19C183.739,42.668,207,34.974,229.788,26.6a1.541,1.541,0,0,1,.826-.064" transform="translate(94.567 18.38)" fill="#222221"/>
            <path id="Trazado_1355231" data-name="Trazado 1355231" d="M224.695,11.85q5.249,12.423,10.489,24.85a1.556,1.556,0,0,0-.826.063c-22.786,8.375-46.049,16.07-68.772,24.864a8.336,8.336,0,0,1-1.593-3.19c-.229-.8-1.6-.523-1.441.3a7.711,7.711,0,0,0,1.7,3.416c-7.043,2.743-14.052,5.578-20.966,8.6-3.626-8.221-7.751-16.085-11.273-24.3q11.241-3.388,22.374-7.2a.776.776,0,0,0-.084.618,32.231,32.231,0,0,0,1.939,5.183.662.662,0,0,0,1.243-.45,31.194,31.194,0,0,0-1.784-5.239.777.777,0,0,0-.429-.418c23.489-8.086,46.6-17.445,69.421-27.1M223.04,19.2a1.33,1.33,0,0,0-.893-2.5c-20.154,7.319-40.583,15.3-60.053,24.28a.88.88,0,0,0-.528.691.657.657,0,0,0-.3.625c.664,8.646,16.836.329,20.7-.967a299.952,299.952,0,0,0,41.093-17.423,1.29,1.29,0,0,0,.758-1.6c-.288-.97-.575-1.941-.873-2.892-.024-.064-.057-.081-.077-.134a.773.773,0,0,1,.177-.078M162.133,54.093a9.809,9.809,0,0,0-2.573-5.441c-.538-.525-1.389.283-.954.891a15.265,15.265,0,0,1,2.561,4.752.5.5,0,0,0,.965-.2m-21.664-.141c3-.982,17.821-3.986,12.536-10.148a1.17,1.17,0,0,0-1.3-.411c-4.465,1.529-8.933,3.134-13.314,4.943a.844.844,0,0,0-.456,1.18.993.993,0,0,0,0,.7l1.177,3.09a1.086,1.086,0,0,0,1.355.642" transform="translate(89.997 8.217)" fill="#fff"/>
            <path id="Trazado_1355232" data-name="Trazado 1355232" d="M214.132,8.93c.291.689.585,1.392.874,2.081-22.8,9.6-45.928,18.248-69.068,26.854a27.9,27.9,0,0,0-1.325-3.626.911.911,0,0,0-.145-.2Z" transform="translate(98.487 6.192)" fill="#e7bc3d"/>
            <path id="Trazado_1355233" data-name="Trazado 1355233" d="M210.292,14.752a1.329,1.329,0,0,1,.893,2.5.855.855,0,0,0-.177.078c.018.052.054.069.077.134.3.953.585,1.922.873,2.892a1.29,1.29,0,0,1-.758,1.6,300.04,300.04,0,0,1-41.093,17.423c-3.863,1.3-20.034,9.613-20.7.967a.657.657,0,0,1,.3-.625.88.88,0,0,1,.528-.691c19.469-8.983,39.9-16.961,60.053-24.278M208.77,18.3a.012.012,0,0,1,.008-.017c-18.822,8.055-38.2,15.828-57.58,22.322,3.651,3.429,28.811-7.38,32.06-8.675,4.095-1.631,26.768-9.215,25.512-13.63" transform="translate(101.852 10.166)" fill="#222221"/>
            <path id="Trazado_1355234" data-name="Trazado 1355234" d="M208.051,16.8s-.013.005-.008.017c1.256,4.416-21.417,12-25.512,13.63-3.247,1.3-28.408,12.106-32.06,8.675,19.382-6.492,38.759-14.265,57.58-22.322" transform="translate(102.579 11.651)" fill="#92c6cc"/>
            <path id="Trazado_1355235" data-name="Trazado 1355235" d="M148.829,33.653a9.821,9.821,0,0,1,2.573,5.439.5.5,0,0,1-.965.2,15.3,15.3,0,0,0-2.561-4.752c-.436-.608.415-1.417.954-.891" transform="translate(100.728 23.216)" fill="#222221"/>
            <path id="Trazado_1355236" data-name="Trazado 1355236" d="M130.565,32.013l22.2-8a.423.423,0,0,0,.013.244,28.081,28.081,0,0,0,1.278,3.658c-7.3,2.718-14.591,5.421-21.881,8.165-.555-1.345-1.095-2.694-1.614-4.066" transform="translate(89.009 16.649)" fill="#e7bc3d"/>
            <path id="Trazado_1355237" data-name="Trazado 1355237" d="M150.642,30.913c5.286,6.164-9.54,9.166-12.536,10.15a1.087,1.087,0,0,1-1.355-.643l-1.177-3.09a.993.993,0,0,1,0-.7.845.845,0,0,1,.456-1.18c4.381-1.809,8.849-3.412,13.314-4.943a1.176,1.176,0,0,1,1.3.411m-1.655,3.793c.03-.571.061-1.14.086-1.724-.589-.418-5.311,1.822-6.2,2.115-1.736.584-3.479,1.143-5.228,1.688q.368.97.738,1.941c1.744-.559,3.5-1.135,5.254-1.7.959-.3,1.969-.537,2.9-.918a6.486,6.486,0,0,0,2.45-1.4" transform="translate(92.36 21.106)" fill="#222221"/>
            <path id="Trazado_1355238" data-name="Trazado 1355238" d="M148.2,31.962c-.025.583-.056,1.153-.086,1.724a6.481,6.481,0,0,1-2.45,1.4c-.93.381-1.942.616-2.9.92-1.757.562-3.51,1.14-5.254,1.7q-.368-.97-.738-1.941c1.749-.545,3.493-1.1,5.228-1.688.89-.293,5.612-2.535,6.2-2.115" transform="translate(93.237 22.126)" fill="#92c6cc"/>
            <path id="Trazado_1355239" data-name="Trazado 1355239" d="M245.552,68.3A1.52,1.52,0,0,1,243,69.355l-.612-1.6q.237-13.5.484-27c-24.752-.555-49.639-1.5-74.361-3.756a.773.773,0,0,1,.22.559,30.945,30.945,0,0,1-.491,5.515.661.661,0,0,1-1.317-.1,32.4,32.4,0,0,1,.328-5.529.779.779,0,0,1,.328-.532q-11.707-1.087-23.344-2.615c-.111,8.948.473,17.821.454,26.818l-.274,2.2a3.512,3.512,0,0,1-.4-.044,1.014,1.014,0,0,1-.885-.72,1.086,1.086,0,0,1-.7-.787c-2.583-11.468-1.946-24.166-1.083-35.8a1.629,1.629,0,0,1,1.71-1.483q50.817,3.924,101.65,7.834a1.64,1.64,0,0,1,1.471,1.722q-.318,17.135-.636,34.259m-2.61-30.643c.013-.748.029-1.512.044-2.261l-73.779-5.669a.983.983,0,0,1,.052.24A28,28,0,0,1,169,33.817c24.615,1.643,49.234,3.243,73.942,3.836M167.96,29.63l-23.514-1.809c-.081,1.465-.133,2.919-.173,4.374,7.77.488,15.521,1.014,23.287,1.527a28.218,28.218,0,0,1,.314-3.863.437.437,0,0,1,.086-.23" transform="translate(95.85 16.972)" fill="#222221"/>
            <path id="Trazado_1355240" data-name="Trazado 1355240" d="M240.846,54.2l.61,1.6a1.492,1.492,0,0,1-1.63,1.336c-32.208-2.267-64.916-3.156-96.954-7.37l.274-2.2c7.536.08,15.085.369,22.628.755a7.716,7.716,0,0,1-.175-3.817c.185-.82,1.556-.508,1.44.317a8.339,8.339,0,0,0,.163,3.566c24.309,1.3,48.666,3.824,72.864,5.531a1.568,1.568,0,0,1,.78.281" transform="translate(97.399 30.526)" fill="#222221"/>
            <path id="Trazado_1355241" data-name="Trazado 1355241" d="M241.407,36.734q-.235,13.5-.484,27a1.556,1.556,0,0,0-.779-.281c-24.2-1.707-48.555-4.232-72.864-5.531a8.365,8.365,0,0,1-.163-3.566c.116-.825-1.253-1.136-1.438-.317a7.715,7.715,0,0,0,.172,3.817c-7.541-.386-15.09-.676-22.628-.755.02-9-.563-17.87-.452-26.818Q154.407,31.8,166.115,32.9a.773.773,0,0,0-.33.53,32.572,32.572,0,0,0-.326,5.529.661.661,0,0,0,1.317.1,31.12,31.12,0,0,0,.491-5.517.773.773,0,0,0-.22-.559c24.721,2.261,49.609,3.2,74.361,3.756m-4.487,6.035a1.331,1.331,0,0,0,.2-2.652c-21.365-1.592-43.249-2.694-64.664-2.484a.872.872,0,0,0-.762.415.653.653,0,0,0-.53.445c-2.894,8.169,15.24,7.214,19.293,7.615a299.079,299.079,0,0,0,44.576.962,1.284,1.284,0,0,0,1.34-1.15c.129-1,.259-2.007.375-3,.005-.069-.022-.1-.017-.154a.819.819,0,0,1,.193,0m-69.743,6.853a9.85,9.85,0,0,0-.146-6.023c-.279-.7-1.384-.313-1.231.422a15.319,15.319,0,0,1,.414,5.39.5.5,0,0,0,.964.212M147.453,40.6c3.133.332,17.887,3.676,15.556-4.122a1.182,1.182,0,0,0-1.022-.909c-4.7-.437-9.426-.806-14.158-.953a.841.841,0,0,0-.895.891,1,1,0,0,0-.281.647l-.177,3.3a1.093,1.093,0,0,0,.977,1.143" transform="translate(97.32 20.995)" fill="#fff"/>
            <path id="Trazado_1355242" data-name="Trazado 1355242" d="M231.474,33.244c-.013.748-.029,1.51-.044,2.261-24.706-.594-49.325-2.195-73.942-3.836a27.761,27.761,0,0,0,.259-3.854.91.91,0,0,0-.052-.24Z" transform="translate(107.363 19.12)" fill="#e7bc3d"/>
            <path id="Trazado_1355243" data-name="Trazado 1355243" d="M225.729,37.118a1.33,1.33,0,0,1-.2,2.65.819.819,0,0,0-.193,0c-.005.056.022.085.017.154-.116.991-.246,1.995-.375,3a1.283,1.283,0,0,1-1.34,1.148,299.079,299.079,0,0,1-44.576-.962c-4.053-.4-22.187.555-19.293-7.613a.655.655,0,0,1,.53-.447.876.876,0,0,1,.762-.415c21.415-.21,43.3.894,64.665,2.486m-2.829,2.62a.015.015,0,0,1,.015-.014c-20.45-.369-41.29-1.228-61.617-3.255,1.946,4.631,29.3,5.089,32.788,5.241,4.4.191,28.172,2.576,28.813-1.973" transform="translate(108.708 23.996)" fill="#222221"/>
            <path id="Trazado_1355244" data-name="Trazado 1355244" d="M222.171,38.963a.014.014,0,0,0-.015.014c-.641,4.547-24.415,2.162-28.813,1.971-3.491-.151-30.843-.61-32.788-5.241,20.327,2.029,41.167,2.886,61.617,3.256" transform="translate(109.453 24.758)" fill="#92c6cc"/>
            <path id="Trazado_1355245" data-name="Trazado 1355245" d="M157.7,38.3a9.85,9.85,0,0,1,.146,6.023.5.5,0,0,1-.964-.212,15.319,15.319,0,0,0-.414-5.39c-.153-.733.952-1.123,1.231-.422" transform="translate(106.655 26.298)" fill="#222221"/>
            <path id="Trazado_1355246" data-name="Trazado 1355246" d="M142.957,26.451l23.514,1.809a.437.437,0,0,0-.086.23,28.221,28.221,0,0,0-.314,3.864c-7.766-.515-15.517-1.041-23.287-1.529.04-1.455.093-2.908.173-4.374" transform="translate(97.339 18.341)" fill="#e7bc3d"/>
            <path id="Trazado_1355247" data-name="Trazado 1355247" d="M161.5,34.7c2.331,7.8-12.423,4.454-15.556,4.122a1.092,1.092,0,0,1-.977-1.143l.175-3.305a1,1,0,0,1,.283-.645.841.841,0,0,1,.895-.891c4.731.147,9.461.516,14.158.953a1.182,1.182,0,0,1,1.022.909m-3.047,2.784c.259-.508.516-1.016.775-1.538-.367-.625-5.587-.518-6.517-.615-1.821-.179-3.641-.386-5.457-.6q-.058,1.036-.113,2.073c1.818.207,3.651.4,5.484.608,1,.115,2.018.318,3.022.351a6.426,6.426,0,0,0,2.805-.274" transform="translate(98.828 22.771)" fill="#222221"/>
            <path id="Trazado_1355248" data-name="Trazado 1355248" d="M158.349,35.175c-.259.522-.518,1.03-.775,1.538a6.458,6.458,0,0,1-2.807.276c-1-.034-2.023-.235-3.02-.352-1.833-.207-3.666-.4-5.484-.606l.111-2.074c1.818.22,3.638.425,5.457.6.93.1,6.152-.01,6.518.615" transform="translate(99.71 23.544)" fill="#92c6cc"/>
            <path id="Trazado_1355249" data-name="Trazado 1355249" d="M170.154,135.052c1.458.733.839,2.215-.385,2.977a6.024,6.024,0,0,1-3.548.623,26.37,26.37,0,0,0-4.784-.083c-.013-.014,0-.014-.013-.014a28.985,28.985,0,0,0-.812-3.3c-.067-.152-.1-.264-.136-.347.508-.014,1.017-.014,1.525-.014,1.251-.014,2.5-.014,3.754-.027,1.266-.014,3.273-.388,4.4.18" transform="translate(109.398 93.425)" fill="#9b9b9a"/>
            <path id="Trazado_1355250" data-name="Trazado 1355250" d="M133.964,132.872c2.047.72,1.579,2.063,1.428,3.7a3.21,3.21,0,0,0,0,.6,14.853,14.853,0,0,0-5.5.249,7.164,7.164,0,0,0,.33-4.293,6.216,6.216,0,0,1,3.742-.249" transform="translate(88.551 91.992)" fill="#9b9b9a"/>
            <path id="Trazado_1355251" data-name="Trazado 1355251" d="M139.139,133.293c1.527.859,1.623,2.423,1.512,3.988-1.347-.042-2.708-.069-4.07-.1.069-.61.138-1.233.207-1.842.04-.444-.069-1.7.178-2.049.481-.637,1.6-.318,2.173,0" transform="translate(93.11 92.167)" fill="#9b9b9a"/>
            <path id="Trazado_1355252" data-name="Trazado 1355252" d="M206.774,172.844c.592,4.029,1.582,10.855-1.719,14.206-3.162,3.212-9.295,2.09-13.255,2.146q-12.149.145-24.284.3-12.827.185-25.631.345c-4,.042-9.557,1.177-11.88-3.018-2.462-4.472-.964-13.071-1.059-17.945-.151-7.976-.853-16.185,0-24.12a1.092,1.092,0,0,1,.109-.373c-1.7-1.289-1.071-3.351.716-4.6a.61.61,0,0,1-.111-.54,6.889,6.889,0,0,0-.22-4.582,1,1,0,0,1,.579-1.441c2.282-.776,4.922-1.426,7.082.056a4.386,4.386,0,0,1,1.746,2.3c.124.444-.069,3.351.1,3.338a.848.848,0,0,1,.414.1l1.746.042c-.027-1.123-.04-2.23-.056-3.351,0-.872-.123-1.372.578-1.952a3.577,3.577,0,0,1,3.575-.457c2.378.887,3.313,3.448,3.342,5.927l4.043.083c.067-2.244.136-4.486.219-6.73a1.531,1.531,0,0,1,1.485-1.5c13.353-.318,26.733-.789,40.084-.845,2.654-.014,5.652-.5,7.7,1.538,2.778,2.755,2.351,9.568,2.763,13.071,0,.054-.013.083-.013.137a1.568,1.568,0,0,1,.826,1.759c-1.939,9.234-.18,17,1.127,26.1m-2.694,4.914c.7-5.039-2.008-11.381-2.558-16.49a44.118,44.118,0,0,1,.577-12.905c-8.841.845-17.739,1.3-26.635,1.5,5.968,2.6,10.766,7.879,10.506,14.815a14.209,14.209,0,0,1-3.493,8.834,8.823,8.823,0,0,0,2.3,1.758,1.142,1.142,0,0,1,.22,1.773,56.022,56.022,0,0,0-4.842,4.569,1.056,1.056,0,0,1-1.278.166,23.736,23.736,0,0,1-3.562-3.309,18.913,18.913,0,0,1-6.833,1.273c-9.034-.041-18.316-5.786-17.877-15.77.289-6.4,4.277-11.368,9.571-13.984-5.419-.027-10.835-.11-16.254-.345-4.07-.166-8.8.193-12.5-1.746.385,4.293.372,8.626.468,12.946.138,5.913-.674,12.961.439,18.776-.508,3.143.868,5.5,4.154,7.075l2.709-.041c3.313.594,7.411-.1,10.78-.139q8.766-.124,17.545-.235t17.532-.222c7.743-.11,17.547,2.229,19.032-8.294m-2.2-32.482a.047.047,0,0,1-.013-.027c-.659-4.653-.494-10.662-6.16-11.921-3.863-.859-9.061.137-13.091.249a1.773,1.773,0,0,1-.261.014c-8.883.152-17.766.332-26.635.471-.1,2.244-.193,4.5-.289,6.743a1.488,1.488,0,0,1-1.458,1.455c-1.937-.069-3.876-.139-5.815-.222a1,1,0,0,1-1.732-.069c-1.32-.042-2.627-.1-3.934-.152-2.048-.083-4.359-.527-6.394-.278-.412.056-6.16,1.123-5.555,2.257a.8.8,0,0,1,.481.679c.055.332.1.65.138.982,5.555,2.535,14.7,1.275,20.8,1.372q8.065.145,16.1.027c7.494-.11,14.961-.471,22.427-.886v-.014c3.8-.208,7.591-.444,11.385-.679m-23.912,28.053a11.1,11.1,0,0,0,4.621-10.87,11.405,11.405,0,0,0-1.046-3.226,17.235,17.235,0,0,1-3.547,2.4,10.436,10.436,0,0,1,.839,3.17,6.825,6.825,0,0,1-3.493,6.591c.88.623,1.759,1.273,2.625,1.939m4.359,3.046a9.849,9.849,0,0,1-1.443-1.275,17.321,17.321,0,0,1-3.934,2.645,18.907,18.907,0,0,0,2.269,1.717,34.632,34.632,0,0,1,3.108-3.087m-5.074-16.158a18.123,18.123,0,0,0,3.246-2.674c-2.792-3.751-7.728-5.717-12.362-6.452a1.233,1.233,0,0,1-.991-.913,3.092,3.092,0,0,0-.343.11c.027,1.177-.109,2.381-.192,3.544a1.006,1.006,0,0,1-.042.195,13.558,13.558,0,0,1,10.684,6.189m-.824,14.136c-.826-.735-1.636-1.482-2.449-2.23a13.93,13.93,0,0,1-3.9,1.094,16.748,16.748,0,0,1-3.809.042,15.985,15.985,0,0,1-1.4,1.924c-.205.278-.412.554-.619.818a17.7,17.7,0,0,0,4.236.525,16.109,16.109,0,0,0,7.948-2.173m-7.233-3.795c4.33-.415,8.484-3.184,6.022-8.072-1.788-3.558-5.281-5.316-9.021-5.952a1.075,1.075,0,0,1-.4-.168c-2.861,1.676-5.472,4.14-5.693,7.617-.316,5.219,4.648,7.005,9.09,6.575m-3.713-15.908c.013-.029.042-.056.056-.085a.787.787,0,0,1-.55-.733c-.056-.942-.165-1.9-.193-2.838-3.685,1.439-7.082,3.571-9.1,6.77.015.014.029,0,.029.014a11.788,11.788,0,0,1,3.177,1.746,12.9,12.9,0,0,1,6.586-4.874m-1.91,19.785c.3-.484.577-1.011.893-1.5a8.807,8.807,0,0,1-6.16-4.445,23.568,23.568,0,0,1-3.148,1.287,13.54,13.54,0,0,0,7.672,5.83c.247-.4.494-.789.743-1.177m-5.859-7.449a10.953,10.953,0,0,1-.234-1.19,9.15,9.15,0,0,1,.634-4.819,11.143,11.143,0,0,1-3.15-1.37,2.189,2.189,0,0,1-.165-.166,13.011,13.011,0,0,0-1.017,4.526,10.945,10.945,0,0,0,.536,3.988,28.06,28.06,0,0,1,3.4-.969m-11.247-27.8c.109-1.565.013-3.129-1.512-3.986-.578-.32-1.692-.638-2.173,0-.249.345-.138,1.605-.18,2.049-.069.608-.136,1.231-.205,1.841,1.361.027,2.723.056,4.07.1m-9.818-.886c.151-1.634.619-2.977-1.429-3.7a6.209,6.209,0,0,0-3.74.249,7.164,7.164,0,0,1-.331,4.293,14.864,14.864,0,0,1,5.5-.249,2.943,2.943,0,0,1,0-.6" transform="translate(87.298 90.263)" fill="#222221"/>
            <path id="Trazado_1355253" data-name="Trazado 1355253" d="M200.158,154.015c.55,5.109,3.259,11.451,2.558,16.49-1.485,10.523-11.289,8.184-19.03,8.294q-8.768.1-17.534.222t-17.545.235c-3.368.041-7.467.733-10.78.139l-2.709.041c-3.286-1.578-4.662-3.932-4.152-7.075-1.115-5.815-.3-12.863-.441-18.776-.1-4.32-.082-8.653-.467-12.946,3.7,1.939,8.429,1.58,12.5,1.746,5.418.235,10.837.318,16.254.345-5.294,2.618-9.281,7.588-9.571,13.984-.439,9.984,8.842,15.73,17.877,15.772a18.93,18.93,0,0,0,6.835-1.275,23.645,23.645,0,0,0,3.56,3.309,1.059,1.059,0,0,0,1.28-.166,56.254,56.254,0,0,1,4.84-4.569,1.142,1.142,0,0,0-.22-1.773,8.852,8.852,0,0,1-2.3-1.758,14.209,14.209,0,0,0,3.493-8.834c.262-6.936-4.537-12.211-10.506-14.815,8.9-.193,17.794-.65,26.635-1.5a44.118,44.118,0,0,0-.577,12.905" transform="translate(88.662 97.516)" fill="#92c6cc"/>
            <path id="Trazado_1355254" data-name="Trazado 1355254" d="M179.749,144.1a.047.047,0,0,0,.013.027c-3.8.235-7.59.471-11.385.679l-.124-2.035a5.766,5.766,0,0,0,3.535-1.287c1.732-1.426,2.186-4.57.343-6.135-1.14-.955-2.654-.774-4.056-.76-2.489.027-5-.029-7.494.083l-.082-2.244c4.029-.11,9.226-1.107,13.091-.249,5.666,1.26,5.5,7.27,6.16,11.921" transform="translate(109.415 91.411)" fill="#585857"/>
            <path id="Trazado_1355255" data-name="Trazado 1355255" d="M173.05,134.231c1.841,1.565,1.387,4.708-.345,6.133a5.753,5.753,0,0,1-3.533,1.289c-2.558.139-5.35-.789-7.81-.264a.831.831,0,0,1-1-1.024,1.036,1.036,0,0,1-.165-.332c-.634-2.533-2.558-6.3,1.3-6.481,2.489-.11,5.007-.054,7.5-.083,1.4-.014,2.914-.193,4.056.762m-2.38,4.694c1.224-.762,1.843-2.244.385-2.977-1.127-.567-3.135-.193-4.4-.18s-2.5.014-3.755.027c-.508,0-1.017,0-1.525.014.04.083.069.195.136.347a28.633,28.633,0,0,1,.812,3.3c.013,0,0,0,.013.014a26.391,26.391,0,0,1,4.786.083,6.008,6.008,0,0,0,3.547-.623" transform="translate(108.497 92.529)" fill="#222221"/>
            <path id="Trazado_1355256" data-name="Trazado 1355256" d="M189.5,144.564v.014c-7.467.415-14.934.776-22.427.886q-8.044.1-16.1-.027c-6.1-.1-15.25,1.163-20.8-1.37-.04-.334-.082-.652-.136-.984a.8.8,0,0,0-.483-.677c-.6-1.136,5.143-2.2,5.556-2.257,2.035-.249,4.344.193,6.394.276,1.307.056,2.612.112,3.932.152a1,1,0,0,0,1.732.069c1.939.083,3.878.152,5.817.222a1.489,1.489,0,0,0,1.458-1.455c.1-2.242.192-4.5.289-6.743,8.868-.137,17.751-.318,26.635-.471a1.771,1.771,0,0,0,.261-.014l.082,2.244c-3.865.18-1.939,3.946-1.307,6.479a1.1,1.1,0,0,0,.165.334.832.832,0,0,0,1,1.024c2.462-.527,5.254.4,7.81.262Z" transform="translate(88.287 91.654)" fill="#585857"/>
            <path id="Trazado_1355257" data-name="Trazado 1355257" d="M163.42,150.562a11.1,11.1,0,0,1-4.62,10.868c-.868-.664-1.747-1.314-2.627-1.937a6.825,6.825,0,0,0,3.493-6.591,10.411,10.411,0,0,0-.839-3.172,17.158,17.158,0,0,0,3.547-2.394,11.352,11.352,0,0,1,1.046,3.226" transform="translate(106.466 102.16)" fill="#6f6f6f"/>
            <path id="Trazado_1355258" data-name="Trazado 1355258" d="M161.063,156.706a9.668,9.668,0,0,0,1.445,1.273,34.433,34.433,0,0,0-3.108,3.089,18.927,18.927,0,0,1-2.27-1.717,17.378,17.378,0,0,0,3.934-2.645" transform="translate(107.118 108.657)" fill="#9b9b9a"/>
            <path id="Trazado_1355259" data-name="Trazado 1355259" d="M164.886,149.355a18.041,18.041,0,0,1-3.246,2.672,13.567,13.567,0,0,0-10.684-6.189.991.991,0,0,0,.042-.193c.082-1.163.219-2.367.192-3.546a3.391,3.391,0,0,1,.345-.11,1.228,1.228,0,0,0,.989.914c4.635.733,9.571,2.7,12.362,6.452" transform="translate(102.91 98.452)" fill="#6f6f6f"/>
            <path id="Trazado_1355260" data-name="Trazado 1355260" d="M159.309,154.948c.811.747,1.623,1.5,2.447,2.228a16.083,16.083,0,0,1-7.948,2.174,17.6,17.6,0,0,1-4.235-.527c.207-.262.412-.54.619-.816a16.124,16.124,0,0,0,1.4-1.924,16.749,16.749,0,0,0,3.809-.042,13.93,13.93,0,0,0,3.9-1.094" transform="translate(101.968 107.438)" fill="#6f6f6f"/>
            <path id="Trazado_1355261" data-name="Trazado 1355261" d="M162.231,151.764c2.462,4.887-1.692,7.657-6.022,8.072-4.441.428-9.406-1.356-9.09-6.577.22-3.475,2.832-5.94,5.693-7.615a1.036,1.036,0,0,0,.4.166c3.74.637,7.233,2.4,9.021,5.954" transform="translate(100.284 100.987)" fill="#585857"/>
            <path id="Trazado_1355262" data-name="Trazado 1355262" d="M154.334,146.043c-.013.027-.042.056-.056.083A12.9,12.9,0,0,0,147.693,151a11.736,11.736,0,0,0-3.177-1.744c0-.014-.013,0-.027-.014,2.021-3.2,5.417-5.331,9.1-6.77.029.942.138,1.9.193,2.838a.786.786,0,0,0,.55.733" transform="translate(98.501 98.787)" fill="#6f6f6f"/>
            <path id="Trazado_1355263" data-name="Trazado 1355263" d="M153.479,157.251c-.316.484-.592,1.011-.895,1.5-.247.388-.494.776-.742,1.177a13.539,13.539,0,0,1-7.674-5.829,23.515,23.515,0,0,0,3.15-1.289,8.8,8.8,0,0,0,6.16,4.445" transform="translate(98.283 105.953)" fill="#6f6f6f"/>
            <path id="Trazado_1355264" data-name="Trazado 1355264" d="M147.056,153.814a10.955,10.955,0,0,0,.234,1.19,27.994,27.994,0,0,0-3.4.97,10.992,10.992,0,0,1-.536-3.988,13.012,13.012,0,0,1,1.019-4.528,1.7,1.7,0,0,0,.165.166A11.184,11.184,0,0,0,147.688,149a9.144,9.144,0,0,0-.632,4.818" transform="translate(97.72 102.245)" fill="#6f6f6f"/>
            <path id="Trazado_1355265" data-name="Trazado 1355265" d="M104.249,3.012a1.794,1.794,0,0,1,1.884,2.008c-1.5,10.563-2.529,21.171-3.01,31.832-.33,7.3,1.374,16.781-.826,23.745-1.512,4.777-5.225,4.846-9.624,4.943-9.228.208-18.454.291-27.679.444-8.513.139-18.565,1.814-26.939.361-4.631-.8-5.773-3.2-6.118-7.657-.715-9.027-.192-18.333-.274-27.387-.1-10.025-.454-20.09.069-30.115A1.215,1.215,0,0,1,33.86.409,14.023,14.023,0,0,0,36.6.755c1.07.029,2.173-.207,3.229-.11a1.078,1.078,0,0,1,.9,1.621.513.513,0,0,1,.19.664c-1.031,2.632.9,6.826,4.167,6.328,2.97-.471,3.836-4.389,2.282-6.564A1.149,1.149,0,0,1,47.913,1a.753.753,0,0,1,.881-.386c2.516.83,4.566,1.273,7.176.54a1.2,1.2,0,0,1,1.4,1.605.891.891,0,0,1,.151.706C56.947,6.059,55.861,11.818,60.4,11c3.769-.679,3.713-4.6,3.384-7.644a.914.914,0,0,1,.111-1.814h.136a1.311,1.311,0,0,1,1.335-.083c2.255-.152,4.536-.235,6.777-.193a1.1,1.1,0,0,1,1.1.831.985.985,0,0,1,.2,1.175,5.1,5.1,0,0,0-.316,5.178,3.539,3.539,0,0,0,3.641,1.634c3.219-.677,2.462-5.219,2.228-7.573a.788.788,0,0,1,.029-.264.818.818,0,0,1,.893-1.218,25.221,25.221,0,0,0,7.356.235c1.142-.125,1.389,1.19.8,1.9a4.979,4.979,0,0,0,.345,3.753,4.248,4.248,0,0,0,3.108,2.34c2.928.332,4.964-3.392,3.836-5.884A1.414,1.414,0,0,1,97.2,1.461a23.456,23.456,0,0,1,6.229.388,1.053,1.053,0,0,1,.824,1.163m-1.182,1.2a19.815,19.815,0,0,1-4.8-.637c.826,4.03-2.351,8.64-6.71,8.391C87.9,11.777,84.6,7.263,85.672,3.718a17.67,17.67,0,0,1-4.085-.444c.536,4.169-.452,9.679-5.72,9.43C71.112,12.47,69.227,7.5,70.9,3.662c-1.485,0-2.982-.041-4.482-.124.92,4.486-1.472,9.9-6.518,10.038A5.082,5.082,0,0,1,54.816,9.95,9.38,9.38,0,0,1,55.5,3.732a10.058,10.058,0,0,1-5.086-.388c.96,3.477-1.211,7.783-5.02,8.267-4.371.554-8.059-4.75-5.994-8.626A10.993,10.993,0,0,1,34.288,2.6c.385,5.995.55,12,.632,18.028,21.518-2.908,43.767-2.34,65.424-2.008a1.464,1.464,0,0,1,.922.361q.762-7.394,1.8-14.761m-2.035,17.377a1.577,1.577,0,0,1-.688.139c-21.8-.291-43.644,1.19-65.412.594.071,8.018,0,16.048.082,24.038.03,3.267-.755,7.823.1,10.951,1.651,5.954,6.313,5.83,11.427,5.747l21.08-.334q11.2-.185,22.412-.359c4.963-.083,8.484-1.08,9.611-6.619.661-3.28-.04-7.434.027-10.8q.25-11.715,1.362-23.358" transform="translate(21.441 0)" fill="#222221"/>
            <path id="Trazado_1355266" data-name="Trazado 1355266" d="M97.119,2.517a19.888,19.888,0,0,0,4.8.637q-1.052,7.374-1.8,14.759a1.472,1.472,0,0,0-.922-.359c-21.657-.334-43.906-.9-65.426,2.007-.082-6.023-.247-12.031-.632-18.028a10.968,10.968,0,0,0,5.114.388c-2.062,3.878,1.623,9.18,6,8.626,3.809-.484,5.982-4.791,5.02-8.265a10.082,10.082,0,0,0,5.087.388,9.377,9.377,0,0,0-.688,6.216,5.083,5.083,0,0,0,5.089,3.627c5.045-.137,7.438-5.551,6.517-10.038,1.5.085,3,.125,4.483.125-1.678,3.836.205,8.806,4.963,9.041,5.267.251,6.258-5.261,5.721-9.429a17.665,17.665,0,0,0,4.083.444c-1.073,3.544,2.228,8.057,5.886,8.252,4.359.249,7.536-4.362,6.71-8.391" transform="translate(22.591 1.063)" fill="#d16a70"/>
            <path id="Trazado_1355267" data-name="Trazado 1355267" d="M99.024,12.889a1.541,1.541,0,0,0,.686-.137c-.728,7.754-1.2,15.549-1.361,23.357-.069,3.365.632,7.519-.029,10.8-1.127,5.539-4.647,6.536-9.611,6.619q-11.2.185-22.414.359-10.539.168-21.079.332c-5.116.083-9.778.208-11.427-5.746-.853-3.129-.069-7.685-.1-10.951-.082-7.989-.013-16.021-.082-24.038,21.766.6,43.617-.886,65.412-.6M66.351,47.214C75.4,44.528,93.5,38.684,86.015,25.5c-4.786-8.447-16.694-5.829-19.128,2.589-4.221-6.784-15.141-12.211-19.457-2.825-4.771,10.385,8.883,19.675,16.927,22.583a.751.751,0,0,0,1.046-.679,1.47,1.47,0,0,0,.948.042" transform="translate(22.763 8.842)" fill="#fff"/>
            <path id="Trazado_1355268" data-name="Trazado 1355268" d="M80.724,22.435C88.2,35.616,70.109,41.46,61.061,44.146a1.475,1.475,0,0,1-.95-.042.75.75,0,0,1-1.044.679c-8.044-2.908-21.7-12.2-16.927-22.583,4.317-9.388,15.235-3.961,19.456,2.825,2.435-8.418,14.343-11.036,19.128-2.589M62.106,40.559c6.71-1.814,17.463-4.665,17.367-12.489-.138-10.993-14.453-10.108-16.446-.527a.906.906,0,0,1-.151.347c.151,1.453-2.131,1.9-2.75.386-1.5-3.585-4.292-6.909-8.279-7.7-5.733-1.135-8.553,4.113-6.779,8.931,2.2,6.023,9.034,9.5,13.985,13.112a2.359,2.359,0,0,1,.055-.428c.067-.208.123-.43.178-.637a1.592,1.592,0,0,1,1.472-1.136l.646-.041a1.08,1.08,0,0,1,.7.18" transform="translate(28.055 11.91)" fill="#222221"/>
            <path id="Trazado_1355269" data-name="Trazado 1355269" d="M78.1,26.877c.1,7.823-10.657,10.675-17.367,12.489a1.1,1.1,0,0,0-.7-.18l-.646.041a1.592,1.592,0,0,0-1.472,1.136c-.055.208-.111.428-.178.637a2.358,2.358,0,0,0-.055.43C52.728,37.815,45.9,34.34,43.694,28.317c-1.773-4.818,1.046-10.065,6.779-8.929,3.989.789,6.779,4.112,8.279,7.7.619,1.509,2.9,1.065,2.75-.388a.906.906,0,0,0,.151-.347c1.993-9.581,16.308-10.467,16.446.527" transform="translate(29.429 13.103)" fill="#d16a70"/>
            <path id="Trazado_1355270" data-name="Trazado 1355270" d="M79.531,111.5c3.056,3.387,4.467,9.673,6.211,13.847q3.96,9.386,7.9,18.8,7.646,18.187,15.283,36.35c2.782,6.633,6.111,13.257,8.427,20.06.809,2.377,1.6,3.89-.225,5.842-2.93,3.148-10.3,4.523-14.231,6.144q-9.407,3.889-18.834,7.768t-18.847,7.771c-4.305,1.766-9.838,5.26-14.444,5.815-2.632.313-3.861-.124-5.565-2.179-3.33-4.035-5.091-11.256-7.215-16.048L21.574,178.754C16.14,166.5,9.983,154.348,5.6,141.659a1.089,1.089,0,0,1,.58-1.421c-.906-5.27,7.492-9.16,10.892-11.757Q30.464,118.245,44,108.217c4.7-3.483,9.394-6.95,14.123-10.4,1.394-1.016,4.448-4.188,6.528-4.039,2.2.156,2.265,1.228,3.005,3.2a114.511,114.511,0,0,1,3.723,13.752c3.014-1.107,5.7-1.958,8.153.77m2.729,13.845c-1.073-2.579-2.242-8.081-4.211-10.023-3.49-3.456-6.095-1.38-9.49-.08q-9.977,3.815-19.861,7.845c-13.19,5.353-26.24,11.037-39.253,16.842a1.349,1.349,0,0,1-1.475-.166,2.369,2.369,0,0,0-.05.908.633.633,0,0,1-.079.486c6.806,12.418,12,25.871,17.769,38.809q8.2,18.446,16.414,36.905c1.347,3.019,2.44,7.17,4.383,9.828.429,2.645,2.094,3.829,4.991,3.583,1.677-.7,3.358-1.39,5.027-2.074l20.093-8.289,17.589-7.249q5.025-2.057,10.052-4.147c1.682-.689,9.293-2.62,10.047-4.13,1.352-2.743-2.454-8.863-3.5-11.349q-2.094-5.017-4.211-10.023-3.68-8.781-7.374-17.56-8.41-20.049-16.858-40.116M66.514,103.87c-.436-1.634-.869-3.268-1.318-4.9a3.857,3.857,0,0,0-5.271,1.141c-6.1,2.88-11.962,8.724-17.423,12.743q-8.693,6.381-17.347,12.817c-2.08,1.551-9.868,6.039-14.234,10.1q19.313-8.776,39-16.673c6.243-2.518,12.5-5.029,18.823-7.4a.626.626,0,0,1-.084-.129c-.779-2.555-1.458-5.122-2.143-7.7" transform="translate(3.77 65.02)" fill="#222221"/>
            <path id="Trazado_1355271" data-name="Trazado 1355271" d="M77.112,107.274c1.969,1.941,3.138,7.442,4.211,10.023q8.438,20.061,16.856,40.116,3.7,8.773,7.376,17.56,2.111,5.009,4.211,10.023c1.048,2.484,4.853,8.6,3.5,11.349-.753,1.51-8.365,3.441-10.047,4.128q-5.035,2.085-10.052,4.149L75.58,211.871l-20.093,8.291c-1.668.682-3.35,1.372-5.027,2.073-2.9.247-4.563-.936-4.991-3.581-1.942-2.659-3.036-6.811-4.383-9.828q-8.214-18.466-16.414-36.907C18.9,158.98,13.708,145.527,6.9,133.108a.629.629,0,0,0,.079-.484,2.377,2.377,0,0,1,.05-.909,1.349,1.349,0,0,0,1.475.166c13.013-5.8,26.063-11.488,39.253-16.842q9.889-4.023,19.861-7.844c3.4-1.3,6-3.378,9.49.08m20.377,88.25c3.488-1.505,9.021-6.31,4.741-10.225-1.382-1.26-3.284-1.2-5.028-.979-.79.112-2.333.635-3.079.278-3.126-1.461,1.075-3.543,2.023-3.737a24.41,24.41,0,0,1,2.57-.317.771.771,0,0,0,0-1.521c-2.42-.425-5.181-.491-6.974,1.494a4.075,4.075,0,0,0-.173,5.61c1.3,1.278,3.118,1.194,4.793.989,1.192-.149,3.355-.833,4.288.317,1.036,1.287-.351,3.173-1.337,3.881a16.506,16.506,0,0,1-2.97,1.5c-1.7.787-.584,3.47,1.145,2.714M66.366,184.282c14.325-7.268,23.317-21.086,14.433-36.24-6.054-10.318-17.8-16.414-28.826-12.707a1.45,1.45,0,0,0-1.7-.373c-13.883,5.62-24.01,18.343-17.663,33.605,5.99,14.423,18.672,23.381,33.754,15.715m17.981,18.336c4.544-.454,10.211-4.938,6.939-9.9-1.28-1.936-3.417-2.225-5.494-1.517-2.021.7-3.878,2.034-6.014.586a2.8,2.8,0,0,1,2.026-5.078.911.911,0,0,0,.447-1.741c-4.707-2.3-8.4,4.418-5.328,8.054A6.9,6.9,0,0,0,84,195.033c1.81-.488,5.664-2.723,5.237,1.085-.311,2.735-3.485,3.25-5.572,4.007-1.411.513-.742,2.633.679,2.493m-6.638,1.3A36.313,36.313,0,0,0,71,192.8c-1.719-1.807-4.243-3.045-6.7-2.007-2.62,1.119-2.847,3.7-2.211,6.164a57.366,57.366,0,0,0,4.88,12.28,1.1,1.1,0,0,0,2.025-.867c-.658-1.629-1.315-3.258-1.934-4.9,1.989-.7,3.918-1.585,5.9-2.267.064-.027.091-.068.153-.095,1,1.831,1.757,3.385,2.052,3.907a1.384,1.384,0,0,0,2.543-1.089m-16.624-.278c.883-3.431-1.783-6.354-4.958-7.116-2.428-.588-8.8-.223-9.7,2.853-.57,1.944,1.3,4.5,2.069,6.11,1.525,3.229,3.057,6.47,4.813,9.571a.95.95,0,0,0,1.746-.747c-.587-1.57-1.243-3.124-1.905-4.66.082-.02.148,0,.23-.024,3.029-.859,6.846-2.611,7.707-5.988" transform="translate(4.707 73.066)" fill="#c10f19"/>
            <path id="Trazado_1355272" data-name="Trazado 1355272" d="M63.011,97.079c.447,1.629.883,3.263,1.318,4.9.684,2.581,1.364,5.148,2.143,7.7a.563.563,0,0,0,.084.129c-6.32,2.371-12.581,4.882-18.823,7.4q-19.669,7.935-39,16.671c4.367-4.062,12.155-8.55,14.236-10.1q8.65-6.429,17.347-12.817c5.461-4.02,11.318-9.862,17.423-12.744a3.858,3.858,0,0,1,5.271-1.14" transform="translate(5.955 66.915)" fill="#fff"/>
            <path id="Trazado_1355273" data-name="Trazado 1355273" d="M68.332,155.243c4.28,3.917-1.253,8.719-4.741,10.225-1.729.755-2.845-1.927-1.145-2.714a16.506,16.506,0,0,0,2.97-1.5c.985-.708,2.371-2.593,1.337-3.88-.933-1.151-3.1-.467-4.288-.318-1.675.2-3.493.29-4.793-.989a4.075,4.075,0,0,1,.173-5.61c1.793-1.985,4.554-1.917,6.974-1.494a.771.771,0,0,1,0,1.521,24.414,24.414,0,0,0-2.57.317c-.948.195-5.149,2.278-2.023,3.739.747.356,2.289-.168,3.079-.279,1.744-.22,3.646-.279,5.028.979" transform="translate(38.605 103.123)" fill="#222221"/>
            <path id="Trazado_1355274" data-name="Trazado 1355274" d="M71.162,136.222c8.885,15.154-.108,28.972-14.433,36.24-15.082,7.666-27.764-1.292-33.754-15.715-6.347-15.262,3.781-27.985,17.663-33.605a1.45,1.45,0,0,1,1.7.373c11.029-3.707,22.772,2.389,28.826,12.707M60.048,149.864c.846-.723,8.405-8.694,7.231-9.635a1.456,1.456,0,0,1-.333-1.783,34.626,34.626,0,0,0-15.178-2.161,47.2,47.2,0,0,1,6.179,15.185c.727-.508,1.431-1.035,2.1-1.605M58.38,167.906c9.581-5.8,16.109-15.716,11.638-26.816-.967,5.392-6.823,10.5-11.527,13.442a44.441,44.441,0,0,1-.111,13.374M50.1,133.781a36.692,36.692,0,0,1,16.886,1.851c-5.5-7.622-14.5-11.672-23.521-9.439a50.156,50.156,0,0,1,6.634,7.588m5.223,19.293a47.144,47.144,0,0,0-6.767-16.331c-.624.115-1.221.22-1.841.381a38.012,38.012,0,0,0-11.227,5.011,44.064,44.064,0,0,0,4.766,15.3,42.549,42.549,0,0,0,10.391-2.245,33.785,33.785,0,0,0,4.679-2.12m.538,2.943a39.869,39.869,0,0,1-14.137,4.029,30.508,30.508,0,0,0,10.516,10.8c.679-.23,1.374-.5,2.077-.813.627-.285,1.25-.579,1.862-.9a52.216,52.216,0,0,0-.318-13.117m-9-21.663a45.887,45.887,0,0,0-6.6-7.046c-.018-.007-.018-.007-.024-.02-.442.19-.88.361-1.31.576a1.079,1.079,0,0,1-.836.041c-.695.373-1.372.782-2.02,1.2a1.252,1.252,0,0,1,.351,1.4,25.393,25.393,0,0,0-1.139,8.745,43.385,43.385,0,0,1,6.433-3.307,36.166,36.166,0,0,1,5.144-1.582m-14.3,6.746a23.312,23.312,0,0,1,1-10.248c-6.426,4.884-10.443,11.656-8.947,20.056,1.142-3.739,4.334-7.119,7.949-9.808m16.784,30.521c-4.621-2.386-7.793-6.687-10.252-11.381a58.036,58.036,0,0,1-11.185-.559c4.608,8.3,12.223,13.683,21.437,11.94m-12.917-17.1a57.231,57.231,0,0,1-3.431-10.582c-3.513,2.8-6.333,6.272-7.324,10.231a.579.579,0,0,1-.128.264c.121.356.235.7.373,1.06.331.821.688,1.631,1.071,2.4.005.014.018.007.03,0,3.594-.017,7.21-.014,10.785-.249-.483-1.041-.942-2.093-1.377-3.126" transform="translate(14.343 84.885)" fill="#222221"/>
            <path id="Trazado_1355275" data-name="Trazado 1355275" d="M54.822,134.606c1.174.942-6.385,8.912-7.231,9.635-.669.572-1.374,1.1-2.1,1.605a47.215,47.215,0,0,0-6.179-15.185,34.626,34.626,0,0,1,15.178,2.161,1.456,1.456,0,0,0,.333,1.783" transform="translate(26.8 90.509)" fill="#c10f19"/>
            <path id="Trazado_1355276" data-name="Trazado 1355276" d="M63.358,160.32c3.273,4.963-2.395,9.447-6.939,9.9-1.421.141-2.09-1.98-.678-2.493,2.085-.757,5.259-1.272,5.57-4.007.427-3.807-3.427-1.573-5.237-1.085A6.9,6.9,0,0,1,49,160.625c-3.073-3.636.621-10.36,5.328-8.055a.911.911,0,0,1-.446,1.741,2.8,2.8,0,0,0-2.028,5.078c2.136,1.448,3.992.113,6.014-.586,2.077-.706,4.214-.418,5.494,1.517" transform="translate(32.634 105.462)" fill="#222221"/>
            <path id="Trazado_1355277" data-name="Trazado 1355277" d="M54.881,133.446c4.472,11.1-2.057,21.022-11.637,26.816a44.441,44.441,0,0,0,.111-13.374c4.7-2.945,10.558-8.049,11.527-13.442" transform="translate(29.48 92.529)" fill="#c10f19"/>
            <path id="Trazado_1355278" data-name="Trazado 1355278" d="M57.895,134.338a36.711,36.711,0,0,0-16.884-1.853,50.237,50.237,0,0,0-6.636-7.586c9.022-2.234,18.021,1.817,23.521,9.439" transform="translate(23.433 86.179)" fill="#c10f19"/>
            <path id="Trazado_1355279" data-name="Trazado 1355279" d="M42.7,130.879a47.145,47.145,0,0,1,6.767,16.331,33.3,33.3,0,0,1-4.679,2.12A42.629,42.629,0,0,1,34.4,151.577a44.062,44.062,0,0,1-4.766-15.306,38.056,38.056,0,0,1,11.227-5.011c.621-.159,1.218-.266,1.841-.381" transform="translate(20.199 90.749)" fill="#c10f19"/>
            <path id="Trazado_1355280" data-name="Trazado 1355280" d="M33.339,146.29a39.834,39.834,0,0,0,14.137-4.029,52.218,52.218,0,0,1,.318,13.117c-.612.322-1.234.618-1.862.9-.7.315-1.4.582-2.077.813a30.494,30.494,0,0,1-10.516-10.8" transform="translate(22.728 98.641)" fill="#c10f19"/>
            <path id="Trazado_1355281" data-name="Trazado 1355281" d="M34.491,125.315a46.047,46.047,0,0,1,6.6,7.046,36.39,36.39,0,0,0-5.144,1.582,43.386,43.386,0,0,0-6.433,3.307,25.393,25.393,0,0,1,1.137-8.745,1.249,1.249,0,0,0-.35-1.4c.647-.413,1.325-.823,2.02-1.2a1.074,1.074,0,0,0,.834-.041c.432-.215.869-.386,1.312-.576.005.014.005.014.024.02" transform="translate(20.111 86.877)" fill="#c10f19"/>
            <path id="Trazado_1355282" data-name="Trazado 1355282" d="M48.755,157.979A36.331,36.331,0,0,1,55.461,169.1a1.384,1.384,0,0,1-2.544,1.087c-.294-.52-1.054-2.076-2.052-3.907-.062.027-.089.069-.153.1-1.983.682-3.91,1.566-5.9,2.267.619,1.646,1.276,3.275,1.934,4.9a1.1,1.1,0,0,1-2.025.865,57.317,57.317,0,0,1-4.88-12.279c-.636-2.466-.409-5.045,2.211-6.166,2.46-1.036,4.985.2,6.7,2.008m.932,6.25c-2.356-3.957-5.368-7.844-7.051-4.928-1.09,1.88.74,5.475,1.505,7.539,1.825-.914,3.727-1.683,5.546-2.611" transform="translate(26.956 107.885)" fill="#222221"/>
            <path id="Trazado_1355283" data-name="Trazado 1355283" d="M41.518,158.2c1.683-2.916,4.7.97,7.051,4.928-1.818.928-3.72,1.7-5.546,2.611-.765-2.064-2.595-5.659-1.505-7.539" transform="translate(28.073 108.987)" fill="#c10f19"/>
            <path id="Trazado_1355284" data-name="Trazado 1355284" d="M32.233,127.4a23.337,23.337,0,0,0-1,10.248c-3.616,2.689-6.808,6.069-7.949,9.808-1.5-8.4,2.521-15.173,8.947-20.056" transform="translate(15.662 88.337)" fill="#c10f19"/>
            <path id="Trazado_1355285" data-name="Trazado 1355285" d="M36.305,144.983c2.459,4.7,5.63,9,10.252,11.381-9.214,1.744-16.831-3.636-21.437-11.938a57.893,57.893,0,0,0,11.185.557" transform="translate(17.125 100.142)" fill="#c10f19"/>
            <path id="Trazado_1355286" data-name="Trazado 1355286" d="M31.166,135.128A57.231,57.231,0,0,0,34.6,145.71c.436,1.033.895,2.085,1.379,3.126-3.575.235-7.193.232-10.787.249-.012.005-.025.012-.03,0-.383-.769-.74-1.578-1.071-2.4-.138-.362-.252-.7-.372-1.06a.6.6,0,0,0,.126-.264c.991-3.959,3.812-7.436,7.324-10.231" transform="translate(16.168 93.695)" fill="#c10f19"/>
            <path id="Trazado_1355287" data-name="Trazado 1355287" d="M40.15,159.3c3.175.764,5.841,3.686,4.958,7.117-.861,3.377-4.679,5.129-7.709,5.988-.081.02-.146,0-.229.024.663,1.536,1.318,3.09,1.905,4.66a.95.95,0,0,1-1.746.747c-1.756-3.1-3.288-6.342-4.813-9.571-.769-1.61-2.639-4.166-2.069-6.11.9-3.077,7.273-3.441,9.7-2.855m1.907,7.429c2.874-4.344-4.579-5.759-7.411-4.4-1.757.826-1.271.92-.874,2.494a27.793,27.793,0,0,0,1.929,4.259c.148.315.283.633.417.952a1.548,1.548,0,0,1,.224-.141c1.894-.645,4.515-1.375,5.716-3.167" transform="translate(20.685 110.292)" fill="#222221"/>
            <path id="Trazado_1355288" data-name="Trazado 1355288" d="M33.408,161.2c2.832-1.361,10.285.054,7.411,4.4-1.2,1.792-3.821,2.521-5.716,3.167a1.549,1.549,0,0,0-.224.141c-.135-.318-.269-.637-.415-.952a27.641,27.641,0,0,1-1.931-4.259c-.4-1.575-.883-1.668.874-2.494" transform="translate(21.922 111.425)" fill="#c10f19"/>
          </g>
        </g>
      </g>
    </g>
  </g>
</svg>
