<svg xmlns="http://www.w3.org/2000/svg" xmlns:xlink="http://www.w3.org/1999/xlink" width="124" height="98.907" viewBox="0 0 124 98.907">
  <defs>
    <clipPath id="clip-path">
      <rect id="Rectángulo_457692" data-name="Rectángulo 457692" width="124" height="98.907" fill="none"/>
    </clipPath>
  </defs>
  <g id="Grupo_1207595" data-name="Grupo 1207595" transform="translate(-228 -1820)">
    <g id="Grupo_1207453" data-name="Grupo 1207453" transform="translate(228 1820)">
      <g id="Grupo_1207452" data-name="Grupo 1207452" clip-path="url(#clip-path)">
        <path id="Trazado_1356561" data-name="Trazado 1356561" d="M200.825,85.6c6.6,8.811,13.206,17.629,19.3,26.805,2.981,4.491,5.791,9.079,8.5,13.735a89.949,89.949,0,0,0,9.186,13.526c1.634,1.905,4.89,1.678,6.568,0a4.739,4.739,0,0,0,0-6.568c-3.071-3.581-5.657-8.083-8.151-12.364q-4.006-6.877-8.409-13.5c-6-9-12.489-17.664-18.973-26.319-1.5-2-4.014-3.035-6.354-1.666-1.976,1.155-3.179,4.335-1.666,6.354" transform="translate(-122.751 -48.221)" fill="#f0b068"/>
        <path id="Trazado_1356562" data-name="Trazado 1356562" d="M72.914,178.8c-.013.152-2.622.079-7.116-.186s-10.875-.719-18.429-1.348-16.283-1.42-25.476-2.513c-2.3-.288-4.625-.576-6.978-.957-1.17-.159-2.372-.427-3.565-.653a16.647,16.647,0,0,1-3.617-1.285,13.352,13.352,0,0,1-5.664-5.3,15.056,15.056,0,0,1-1.5-3.586,16.623,16.623,0,0,1-.4-1.888c-.049-.319-.088-.639-.117-.963-.015-.162-.026-.326-.036-.491S0,159.313,0,159.093a1.272,1.272,0,0,1,1.287-1.258,1.352,1.352,0,0,1,.143.01l.02,0,23.18,2.92c13.871,1.78,29.293,3.827,43.637,5.787h0a1.162,1.162,0,0,1,.952.808c.24.776.546,1.6.867,2.378s.679,1.547,1.065,2.281a13.147,13.147,0,0,0,2.8,3.8,4.425,4.425,0,0,0,1.761.987,3.206,3.206,0,0,0,1.86-.107,7,7,0,0,0,1.868-1,11.8,11.8,0,0,0,1.648-1.459,20.609,20.609,0,0,0,2.635-3.506,31.639,31.639,0,0,0,1.94-3.758,45.55,45.55,0,0,0,2.453-7.3,70.362,70.362,0,0,0,1.772-11.2,25.279,25.279,0,0,1,.421-4.219,16.165,16.165,0,0,1,.287,4.25,57.746,57.746,0,0,1-1.167,11.474,44.722,44.722,0,0,1-2.262,7.635,32.554,32.554,0,0,1-1.926,4.021,22.093,22.093,0,0,1-2.771,3.9,13.588,13.588,0,0,1-1.867,1.735,8.942,8.942,0,0,1-2.368,1.334,5.6,5.6,0,0,1-1.455.329l-.389.025-.39-.021a4.708,4.708,0,0,1-.772-.114,6.468,6.468,0,0,1-2.638-1.37,15.078,15.078,0,0,1-3.39-4.362q-.66-1.2-1.2-2.452c-.364-.844-.691-1.672-.991-2.59l.957.809c-14.373-1.724-29.813-3.636-43.684-5.416L1.124,160.4l1.451-1.246c0,.075,0,.231.007.352s.014.263.025.4c.022.266.051.535.091.8a14.125,14.125,0,0,0,.326,1.6,12.612,12.612,0,0,0,1.216,3,10.914,10.914,0,0,0,4.586,4.388,14.308,14.308,0,0,0,3.073,1.136c1.134.227,2.238.5,3.4.672,2.292.407,4.6.732,6.877,1.057,9.122,1.247,17.827,2.228,25.35,3.086s13.879,1.559,18.348,2.1,7.051.9,7.039,1.054" transform="translate(0 -88.468)"/>
        <path id="Trazado_1356563" data-name="Trazado 1356563" d="M42.443,72.421a5.171,5.171,0,0,1,.541-1.624c.159-.53.386-1.166.613-1.924.191-.772.465-1.636.659-2.638a69.363,69.363,0,0,0,1.18-7.205c.331-2.79.6-5.936.774-9.354.712-13.664.193-31.607-1.027-48.277A1.3,1.3,0,0,1,46.52,0L64.156.526c17.1.55,36.9,1.322,52.97,2.06h.027a.972.972,0,0,1,.926.974c-.05,8.894-.136,16.651-.258,22.184s-.28,8.843-.474,8.845-.406-3.306-.618-8.836-.424-13.285-.619-22.177l.953.976c-16.087-.3-35.9-.8-52.993-1.346L46.436,2.6l1.338-1.4c.555,8.418.85,17.1.89,25.433s-.212,16.276-.8,23.157c-.287,3.44-.683,6.611-1.146,9.421a58.35,58.35,0,0,1-1.6,7.247c-.266,1-.615,1.87-.88,2.633-.3.754-.6,1.379-.835,1.888-.561.982-.895,1.479-.962,1.441" transform="translate(-26.023 0)"/>
        <path id="Trazado_1356564" data-name="Trazado 1356564" d="M247.064,63.183c-.741-.024-.844-15.346-.509-25.667.137-4.223.394-9.017.7-13.207l1,1.1c-6.032-.666-10.8-1.389-10.77-1.825s4.853-.49,10.919-.312l.988.029.008,1.075c.033,4.2-.022,9-.159,13.225-.335,10.321-1.432,25.6-2.172,25.58" transform="translate(-145.651 -14.216)"/>
        <path id="Trazado_1356565" data-name="Trazado 1356565" d="M114.693,182.072c.092.01.106.532.053,1.486-.026.477-.07,1.062-.129,1.746-.019.343-.086.7-.147,1.089l-.2,1.223-.235,1.354-.364,1.454q-.195.756-.4,1.567l-.553,1.638-.291.856c-.093.291-.234.569-.351.86l-.762,1.773-.938,1.788c-.082.151-.157.307-.245.456l-.278.443-.565.9a25.811,25.811,0,0,1-6.125,6.639,19.965,19.965,0,0,1-4.192,2.464l-.145.062a1.049,1.049,0,0,1-.166.062q-.208.061-.418.115a2.72,2.72,0,0,1-.36.07l-.323.048c-.221.037-.421.054-.623.073l-.608.059-1.193.08-1.184.057c-3.149.125-6.277.145-9.324.14s-6.007-.054-8.8-.118c-5.583-.131-11.625-.367-17.549-.706-2.962-.169-5.894-.363-8.725-.589s-5.557-.473-8.124-.821c-.642-.084-1.274-.183-1.906-.3a16.592,16.592,0,0,1-1.861-.482,2.926,2.926,0,0,1-.442-.155l-.428-.173c-.28-.121-.57-.215-.831-.357a15.934,15.934,0,0,1-1.512-.838,19.832,19.832,0,0,1-6.517-6.813c-.423-.761-.576-1.218-.5-1.263s.384.309.94.954a35.419,35.419,0,0,0,2.476,2.636,20.43,20.43,0,0,0,4.347,3.187,15.23,15.23,0,0,0,1.412.669c.241.114.5.178.759.272l.387.132a2.375,2.375,0,0,0,.4.114,15.421,15.421,0,0,0,1.662.336c.585.076,1.2.142,1.826.194,2.511.22,5.233.352,8.05.485s5.743.239,8.7.34c5.908.2,11.936.362,17.5.493,2.781.065,5.73.128,8.759.172s6.14.072,9.224.018l1.151-.03,1.138-.05.553-.04c.184-.013.372-.025.534-.049l.253-.031a1.253,1.253,0,0,0,.21-.033,1.2,1.2,0,0,1,.145-.027h.009s0-.021.032.06c-.014-.047.137.343-.012-.063l.015-.006.061-.025.123-.049a18.131,18.131,0,0,0,3.768-2.076,24.624,24.624,0,0,0,5.868-5.911l.568-.817.281-.4c.089-.137.167-.28.251-.419l.971-1.646.815-1.648c.128-.271.278-.528.383-.8l.328-.8.633-1.541.5-1.486.465-1.383.343-1.3.317-1.174c.1-.37.207-.717.266-1.048.14-.659.267-1.224.379-1.685.224-.92.39-1.42.482-1.41" transform="translate(-16.811 -111.668)"/>
        <path id="Trazado_1356566" data-name="Trazado 1356566" d="M175.5,28.136c-.074-.118,1.537,1.2,4.554,3.566l5.557,4.351c2.174,1.712,4.639,3.694,7.284,5.875l.077.064.072.107c10.451,15.6,25.565,38.582,38.3,58.19l.29.447-.087.507a10.168,10.168,0,0,1-.748,2.509,7.262,7.262,0,0,1-1.571,2.237,7,7,0,0,1-2.311,1.439,8.786,8.786,0,0,1-2.506.527,11.321,11.321,0,0,1-1.8-.027c-.3-.029-.6-.065-.893-.118-.149-.026-.3-.053-.448-.085s-.285-.062-.486-.118l-.448-.125-.275-.392C206.8,88.2,191.582,66.186,181.142,50.8l-.085-.125-.032-.121c-1.774-6.658-3.228-12.241-4.2-16.171-.487-1.964-.853-3.516-1.08-4.581l-.145-.716a4.685,4.685,0,0,1-.078-.592c-.019-.291-.035-.387-.015-.358s.083.213.218.462a4.317,4.317,0,0,1,.207.413c.07.176.157.415.247.667.367,1.025.871,2.537,1.49,4.465C178.9,38,180.6,43.51,182.595,50.106l-.118-.246c10.939,15.036,26.49,36.816,39.773,55.688l-.723-.516c.057.016.193.048.3.07s.226.045.34.064c.229.04.462.068.694.091a8.73,8.73,0,0,0,1.373.02,6.139,6.139,0,0,0,1.737-.358,4.328,4.328,0,0,0,1.419-.875,5.74,5.74,0,0,0,1.532-3.241l.2.954c-12.663-19.669-27.429-42.9-37.365-58.833l.149.17c-2.411-2.12-4.587-4.086-6.529-5.876l-5.113-4.726c-2.9-2.672-4.685-4.24-4.759-4.357" transform="translate(-107.635 -17.252)"/>
        <path id="Trazado_1356567" data-name="Trazado 1356567" d="M111.967,32.246c-.015.37-9.577.282-16.019.02s-15.018-.911-15-1.281,8.615-.321,15.057-.059,15.979.95,15.964,1.32" transform="translate(-49.646 -18.84)"/>
        <path id="Trazado_1356568" data-name="Trazado 1356568" d="M120.246,80.756c-.019.37-12.534.049-20.965-.37s-19.658-1.277-19.64-1.647,11.275-.111,19.706.308,20.917,1.34,20.9,1.71" transform="translate(-48.845 -48.183)"/>
        <path id="Trazado_1356569" data-name="Trazado 1356569" d="M120.246,127.064c-.019.37-12.534.049-20.965-.37s-19.658-1.277-19.64-1.647,11.275-.111,19.706.308,20.917,1.34,20.9,1.71" transform="translate(-48.845 -76.584)"/>
        <path id="Trazado_1356570" data-name="Trazado 1356570" d="M112.619,103.948c-.021.37-9.588.126-16.029-.241s-15.013-1.155-14.992-1.525,8.626-.181,15.068.186,15.974,1.21,15.953,1.58" transform="translate(-50.046 -62.548)"/>
        <path id="Trazado_1356571" data-name="Trazado 1356571" d="M184.72,106.573c-.021.37-4.076.437-6.8.28s-6.337-.666-6.315-1.036,3.67-.46,6.393-.3,6.743.69,6.722,1.06" transform="translate(-105.249 -64.668)"/>
        <path id="Trazado_1356572" data-name="Trazado 1356572" d="M95.339,56.623c-.01.37-5.454.515-9.119.41s-8.545-.544-8.534-.915,4.907-.531,8.572-.426,9.092.56,9.082.93" transform="translate(-47.646 -34.138)"/>
        <path id="Trazado_1356573" data-name="Trazado 1356573" d="M153.387,56.623c-.01.37-5.454.515-9.12.41s-8.545-.544-8.534-.915,4.907-.531,8.573-.426,9.092.56,9.082.93" transform="translate(-83.248 -34.138)"/>
        <path id="Trazado_1356574" data-name="Trazado 1356574" d="M189.441,47.181c.087.031.121.177.107.411a2.321,2.321,0,0,1-.059.409c-.046.148-.106.312-.176.487a3.774,3.774,0,0,1-.688,1.022,4,4,0,0,1-.987.764,4.343,4.343,0,0,1-2.238.5c-.677-.031-1.147-.241-1.129-.424s.453-.317,1.008-.517A10.91,10.91,0,0,0,187,49.095a6.331,6.331,0,0,0,1.521-1.13c.1-.113.2-.218.3-.312s.166-.195.244-.269c.152-.15.285-.234.372-.2" transform="translate(-113.017 -28.933)"/>
        <path id="Trazado_1356575" data-name="Trazado 1356575" d="M202.8,67.7c.059.008.124.089.176.231a2.542,2.542,0,0,1,.1.6,5.941,5.941,0,0,1-.256,2.052,5.08,5.08,0,0,1-.587,1.272,4.211,4.211,0,0,1-1.1,1.145,4.06,4.06,0,0,1-1.5.671,3.362,3.362,0,0,1-1.67-.063c-.119-.038-.238-.087-.357-.134l1.339-.85a3.316,3.316,0,0,1-.459,1.544,3.692,3.692,0,0,1-1.055,1.145,3.6,3.6,0,0,1-1.365.586,3.146,3.146,0,0,1-1.311-.017,3.862,3.862,0,0,1-1.7-.815c-.343-.3-.476-.534-.422-.6s.3.008.688.1a4.063,4.063,0,0,0,1.507.1,3.79,3.79,0,0,0,.836-.234,2.373,2.373,0,0,0,.713-.466,2.28,2.28,0,0,0,.492-.681,1.726,1.726,0,0,0,.167-.713l.032-1.22,1.307.37c.05.014.1.034.145.05a1.782,1.782,0,0,0,.751.037,2.662,2.662,0,0,0,.874-.316,3.042,3.042,0,0,0,.771-.615,4.77,4.77,0,0,0,.6-.843c.339-.6.572-1.21.772-1.647a3.356,3.356,0,0,1,.273-.518c.089-.119.172-.181.232-.173" transform="translate(-118.14 -41.519)"/>
        <path id="Trazado_1356576" data-name="Trazado 1356576" d="M272.275,169.414c.083-.014.224.2.31.6a4.215,4.215,0,0,1,0,1.65,5.625,5.625,0,0,1-2.4,3.592,5.88,5.88,0,0,1-1.976.831,6.264,6.264,0,0,1-2.015.116c-1.221-.131-1.988-.6-1.931-.755.056-.189.876-.075,1.938-.193a7.979,7.979,0,0,0,1.684-.36,6.564,6.564,0,0,0,1.562-.757,5.8,5.8,0,0,0,1.312-1.183,6.114,6.114,0,0,0,.918-1.551c.434-1.047.411-1.964.605-1.994" transform="translate(-162.072 -103.904)"/>
        <path id="Trazado_1356577" data-name="Trazado 1356577" d="M284.068,187.235c.083-.014.224.2.31.6a4.215,4.215,0,0,1,0,1.65,5.627,5.627,0,0,1-2.4,3.593,5.887,5.887,0,0,1-1.976.83,6.264,6.264,0,0,1-2.015.116c-1.221-.131-1.988-.6-1.931-.755.056-.189.876-.075,1.938-.193a7.985,7.985,0,0,0,1.684-.36,6.565,6.565,0,0,0,1.562-.757,5.8,5.8,0,0,0,1.312-1.183,6.114,6.114,0,0,0,.918-1.551c.434-1.047.411-1.964.605-1.994" transform="translate(-169.305 -114.834)"/>
        <path id="Trazado_1356578" data-name="Trazado 1356578" d="M291.93,199.552c.083-.014.224.2.311.6a4.215,4.215,0,0,1,0,1.65,5.631,5.631,0,0,1-2.4,3.593,5.887,5.887,0,0,1-1.976.83,6.264,6.264,0,0,1-2.015.116c-1.221-.131-1.988-.6-1.931-.755.056-.189.876-.075,1.938-.193a7.983,7.983,0,0,0,1.684-.36,6.564,6.564,0,0,0,1.562-.757,5.8,5.8,0,0,0,1.312-1.183,6.114,6.114,0,0,0,.918-1.551c.434-1.047.411-1.964.605-1.994" transform="translate(-174.127 -122.389)"/>
        <path id="Trazado_1356579" data-name="Trazado 1356579" d="M247.256,23.485l-5.069,6.751c-.2.27-.875,1.08-.763,1.436.107.34.276.1.5-.2L247,24.7c.2-.266.862-1.062.751-1.412-.106-.334-.271-.1-.49.194" transform="translate(-148.062 -14.185)"/>
        <path id="Trazado_1356580" data-name="Trazado 1356580" d="M250.482,29.121a74.131,74.131,0,0,1-6.643,9.689c-.309.383-1.194,2.382-.266,1.238a80.054,80.054,0,0,0,7.309-10.687c.657-1.148.278-1.423-.4-.241" transform="translate(-149.135 -17.392)"/>
        <path id="Trazado_1356581" data-name="Trazado 1356581" d="M251.794,45.523q-3.4,4.7-6.794,9.41c-.277.385-.925,2.15-.1,1.007q3.4-4.709,6.8-9.427c.273-.379.909-2.114.1-.991" transform="translate(-149.954 -27.691)"/>
        <path id="Trazado_1356582" data-name="Trazado 1356582" d="M254.759,66.088q-2.319,2.772-4.637,5.545a3.024,3.024,0,0,0-.736,1.344c-.014.3.031.42.315.081q2.252-2.687,4.491-5.385a3.654,3.654,0,0,0,.85-1.415c.066-.325.036-.552-.283-.17" transform="translate(-152.952 -40.41)"/>
        <path id="Trazado_1356583" data-name="Trazado 1356583" d="M236.631,164.72q-3.357,4.236-6.712,8.475c-.3.387-1.19,2.407-.267,1.246q3.372-4.241,6.717-8.5c.3-.379,1.16-2.352.261-1.218" transform="translate(-140.599 -100.813)"/>
        <path id="Trazado_1356584" data-name="Trazado 1356584" d="M243.7,174.006l-6.482,7.02a3.1,3.1,0,0,0-.867,1.443c-.017.314-.082.575.288.173l6.494-7.052a3.043,3.043,0,0,0,.85-1.415c.016-.309.08-.563-.283-.17" transform="translate(-144.949 -106.598)"/>
        <path id="Trazado_1356585" data-name="Trazado 1356585" d="M235.428,191.762c-3.194,3.373-6.4,6.735-9.578,10.121a3.085,3.085,0,0,0-.867,1.443c-.017.323-.085.566.289.174,3.21-3.371,6.394-6.768,9.59-10.153a3.019,3.019,0,0,0,.85-1.415c.017-.315.082-.556-.283-.17" transform="translate(-137.976 -117.49)"/>
        <path id="Trazado_1356586" data-name="Trazado 1356586" d="M57.9,220.162l-3.171,3.871a2.916,2.916,0,0,0-.766,1.44c.016.436.353-.02.5-.2l3.176-3.9c.242-.3.807-1.006.751-1.412s-.314-.02-.49.194" transform="translate(-33.097 -134.803)"/>
        <path id="Trazado_1356587" data-name="Trazado 1356587" d="M74.373,222.261,71.547,225.9c-.266.343-.783.983-.766,1.441.016.432.357-.014.5-.2l2.831-3.666c.261-.338.768-.962.751-1.412-.016-.424-.35.014-.49.195" transform="translate(-43.411 -136.088)"/>
        <path id="Trazado_1356588" data-name="Trazado 1356588" d="M114.183,240.673l3.37-3.933a4.312,4.312,0,0,0,.867-1.443c.111-.355.015-.53-.288-.173l-3.381,3.965a4.258,4.258,0,0,0-.85,1.415c-.109.349-.015.518.283.17" transform="translate(-69.83 -144.085)"/>
        <path id="Trazado_1356589" data-name="Trazado 1356589" d="M125.26,241.831l3.663-4.5c.244-.3.82-1.022.761-1.431s-.317-.024-.5.2l-3.667,4.514c-.241.3-.809,1.008-.751,1.412s.312.023.49-.194" transform="translate(-76.522 -144.575)"/>
      </g>
    </g>
  </g>
</svg>
