<svg xmlns="http://www.w3.org/2000/svg" width="84" height="84" viewBox="0 0 84 84">
  <g id="Grupo_1207588" data-name="Grupo 1207588" transform="translate(-185.711 -4233)">
    <g id="Grupo_1207578" data-name="Grupo 1207578">
      <circle id="Elipse_13791" data-name="Elipse 13791" cx="42" cy="42" r="42" transform="translate(185.711 4233)" fill="#f0b068"/>
      <g id="Grupo_1207571" data-name="Grupo 1207571" transform="translate(195.711 4233)">
        <g id="Grupo_1207576" data-name="Grupo 1207576" transform="translate(1.084 1.084)">
          <g id="Grupo_1207571-2" data-name="Grupo 1207571" transform="translate(0 40.975)">
            <path id="Trazado_1357014" data-name="Trazado 1357014" d="M406.618,291.135a1.437,1.437,0,0,1,1.9.691,8.239,8.239,0,0,1,.481,6.289c-1.415,3.886-5.657,4.978-5.657,4.978s-2.548-3.563-1.134-7.45A8.238,8.238,0,0,1,406.618,291.135Z" transform="translate(-344.793 -291.004)" fill="#8ce09f"/>
            <path id="Trazado_1357015" data-name="Trazado 1357015" d="M295.669,436.888a1.437,1.437,0,0,0,1.01,1.749,8.239,8.239,0,0,0,6.277-.618c3.582-2.068,3.92-6.436,3.92-6.436s-3.952-1.891-7.534.177A8.24,8.24,0,0,0,295.669,436.888Z" transform="translate(-253.979 -410.589)" fill="#55d47b"/>
            <path id="Trazado_1357016" data-name="Trazado 1357016" d="M299.615,365.795v1.445a4.336,4.336,0,0,1-4.336,4.336h-5.3a1.011,1.011,0,0,0-.65,1.786l2.784,2.337a3.679,3.679,0,0,1,.463,5.2,3.614,3.614,0,0,1-5.046.392l-10.364-8.7a4.338,4.338,0,0,0-2.787-1.015h-3.959c-3.687-1.656-5.421-3.8-5.421-6.137,0-1.386,1.59-2.746,3.649-3.98h26.63A4.336,4.336,0,0,1,299.615,365.795Z" transform="translate(-227.783 -351.276)" fill="#e4996d"/>
            <path id="Trazado_1357017" data-name="Trazado 1357017" d="M47.326,365.373a8.654,8.654,0,0,0,2.813,6.2h-38.3A4.336,4.336,0,0,1,7.5,367.24v-1.445a4.336,4.336,0,0,1,4.336-4.336h36.53a8,8,0,0,0-1.041,3.914Z" transform="translate(-7.5 -351.276)" fill="#df8a57"/>
          </g>
          <g id="Grupo_1207575" data-name="Grupo 1207575" transform="translate(2.867)">
            <g id="Grupo_1207572" data-name="Grupo 1207572" transform="translate(2.284 20.061)">
              <path id="Trazado_1357018" data-name="Trazado 1357018" d="M64.989,173.061c0-.111.007-.221.013-.331.718,11.909,20.437.831,27.838-11.24-15.607,7.982-23.015,8.351-26.667,3.068,5.335-20.613,26.665-24.218,29.315-8.54,2.414,14.283-31.061,34.407-30.5,17.043Z" transform="translate(-61.824 -146.299)" fill="#fb695b"/>
              <path id="Trazado_1357019" data-name="Trazado 1357019" d="M93.3,251.4a39.646,39.646,0,0,1-8.484,9.47h0c-.033,1.811-18.5,6.314-19.295.669a38.044,38.044,0,0,1,1.113-7.07,3.628,3.628,0,0,1,.854.331q.666.36,1.337.714a5.44,5.44,0,0,0,6.19-.792q.449-.408.893-.821a3.622,3.622,0,0,1,3.871-.682c.373.156.747.312,1.122.465C82.862,254.489,87.467,254.6,93.3,251.4Z" transform="translate(-62.285 -236.21)" fill="#f9d171"/>
              <path id="Trazado_1357020" data-name="Trazado 1357020" d="M60.742,312.661c-.289-.141-.6-.246-.892-.37a2.882,2.882,0,0,0-3.08.542q-.353.33-.711.653c-1.346,1.224-4.147,3.224-5.139,1.7-1.367-2.1-4.052-2.518-4.549-1.751a23.421,23.421,0,0,1-3.022,8.656,1.444,1.444,0,0,0,1.4,2.184c8.528-.986,16.382-7.525,20.926-11.511C65.672,312.764,62.624,313.576,60.742,312.661Z" transform="translate(-43.137 -288.106)" fill="#78cbed"/>
            </g>
            <path id="Trazado_1357021" data-name="Trazado 1357021" d="M45.761,307.851c.34-7.977-2.639-11-7.506-4.67-1.3,4.98-5.778,13.152-10.546,21.613a2.88,2.88,0,0,0,1.675,4.185,10.013,10.013,0,0,0,8.983-1.786C44.1,322.577,44.853,312.2,45.761,307.851Z" transform="translate(-27.333 -257.531)" fill="#fb695b"/>
            <path id="Trazado_1357022" data-name="Trazado 1357022" d="M133.109,31.127c9.283,12.29-4.418,18.234-9.838,23.394-8.068,4.233-14.478,12.2-19.651,1.343a16.521,16.521,0,0,1-.716-2.713c.994-.339,6.346-5.845,6.435-7.394.286.192-2.227-9.608-2.749-9.692a32.151,32.151,0,0,1,4.452-6.326,4.343,4.343,0,0,0,1.188-2.957C112.246,21.7,113.6,7.5,128.215,7.5c4.268,0,10.395,1.434,10.07,5.466,1.211,2.119.51,2.194,1.791,5.291C139.622,20.779,133.109,31.127,133.109,31.127Z" transform="translate(-91.982 -7.501)" fill="#fd7a6e"/>
            <path id="Trazado_1357023" data-name="Trazado 1357023" d="M259.742,48.052c0-9.036-13.021-9.6-13.021,1.451,0,8,9.419,10.487,9.419,10.487A15.239,15.239,0,0,0,262.6,49.178S260.247,48.155,259.742,48.052Z" transform="translate(-215.013 -36.364)" fill="#fff8e6"/>
            <path id="Trazado_1357024" data-name="Trazado 1357024" d="M120.771,309.491c-6.549,2.779-13.053,3.482-17.167-5.157a16.652,16.652,0,0,1-.719-2.712s3.643-3.672,5.875-3.672a12.025,12.025,0,0,1,12.012,11.541Z" transform="translate(-91.965 -255.971)" fill="#fb695b"/>
            <g id="Grupo_1207573" data-name="Grupo 1207573" transform="translate(10.642 28.236)">
              <path id="Trazado_1357025" data-name="Trazado 1357025" d="M125.34,205.73q-1.143,6.005-2.756,12.129c-.155-.158-12.68-8.386-13.054-8.341a35.359,35.359,0,0,1,2.729-6.329,4.291,4.291,0,0,0,1.6-.046q.47-.1.944-.21a2.888,2.888,0,0,1,2.938,1.07c.192.257.389.513.585.766a4.321,4.321,0,0,0,4.739,1.474c.383-.121.765-.247,1.146-.373A2.886,2.886,0,0,1,125.34,205.73Z" transform="translate(-108.292 -202.862)" fill="#f9ee80"/>
              <path id="Trazado_1357026" data-name="Trazado 1357026" d="M115.063,243.946q-.082,6.112-.608,12.424c-.186-.133-.37-.266-.556-.4a2.884,2.884,0,0,0-3.071-.2q-.531.286-1.064.567a4.321,4.321,0,0,1-4.923-.629c-.238-.217-.476-.434-.71-.653a2.887,2.887,0,0,0-2.889-.614,22.768,22.768,0,0,1,.958-10.757,4.249,4.249,0,0,0,1.106-.289q.447-.182.893-.37a2.889,2.889,0,0,1,3.08.542c.233.22.471.438.708.653a4.324,4.324,0,0,0,4.924.629q.533-.28,1.064-.567A2.877,2.877,0,0,1,115.063,243.946Z" transform="translate(-100.962 -237.025)" fill="#55d47b"/>
            </g>
            <path id="Trazado_1357027" data-name="Trazado 1357027" d="M316.577,99.77a15.194,15.194,0,0,1-6.387,10.291,10.817,10.817,0,0,1,2.25-9.613A31.089,31.089,0,0,1,316.577,99.77Z" transform="translate(-269.063 -86.434)" fill="#77899b"/>
            <g id="Grupo_1207574" data-name="Grupo 1207574" transform="translate(10.632 22.346)">
              <path id="Trazado_1357028" data-name="Trazado 1357028" d="M204.2,336.723a64.091,64.091,0,0,1-8.533,6.225c-1.986-.991-2.565-2.7-1.616-5.082.649-2.124,3.284-4.949,4.327-4.508C198.674,333.482,204.2,336.723,204.2,336.723Z" transform="translate(-180.205 -308.568)" fill="#91d4f2"/>
              <path id="Trazado_1357029" data-name="Trazado 1357029" d="M116.354,359.891a40.683,40.683,0,0,1-13.761,5.65,1.446,1.446,0,0,1-1.331-2.385,17.407,17.407,0,0,0,4.255-8.832c.5-.767,2.823-1.57,5.317-1.028,1.354.294,2.571,2.423,3.9,1.514A18.029,18.029,0,0,0,116.354,359.891Z" transform="translate(-100.892 -325.511)" fill="#78cbed"/>
              <path id="Trazado_1357030" data-name="Trazado 1357030" d="M213.5,181.994c-5.833,3.2-9.855,6.793-11.818,5.988-.374-.153-5.516-.736-7.1-2.172-.386-10.315,4.982-21.138,14.215-22.3,3.635.744,6.485,3.564,7.349,8.676.513,3.032-.593,6.459-2.646,9.808Z" transform="translate(-181.027 -163.308)" fill="#fd7a6e"/>
              <path id="Trazado_1357031" data-name="Trazado 1357031" d="M161.018,162.313c-8.134,1.454-13.5,12.277-14.215,22.3-1.627,2.714-3.949,3.035-5.735,1.761a17.186,17.186,0,0,0-1.567-.872c-.379-.205-.381-.9-.79-1.7C141.9,168.6,153.251,160.72,161.018,162.313Z" transform="translate(-133.245 -162.111)" fill="#fb695b"/>
              <path id="Trazado_1357032" data-name="Trazado 1357032" d="M207.239,291.4a39.645,39.645,0,0,1-8.484,9.47h0c-.117.03-3.081.792-4.926-.106-.289-.14-.6-.246-.892-.37a2.882,2.882,0,0,0-3.08.542q-.353.33-.711.653a4.918,4.918,0,0,1-.536.422,5.359,5.359,0,0,1-.289-6.8,5.405,5.405,0,0,0,.633-.494q.449-.408.893-.821a3.622,3.622,0,0,1,3.871-.682c.373.156.747.312,1.122.465,1.963.805,6.568.915,12.4-2.284Z" transform="translate(-174.763 -272.714)" fill="#f9ee80"/>
              <path id="Trazado_1357033" data-name="Trazado 1357033" d="M142.111,319.771a3.757,3.757,0,0,1-4.388.208c-2-1.58-4.337-1.461-4.833-.694a41.144,41.144,0,0,1,.841-7.125,3.621,3.621,0,0,1,1.2.4q.666.36,1.337.714a5.434,5.434,0,0,0,5.557-.3A28.235,28.235,0,0,0,142.111,319.771Z" transform="translate(-128.265 -290.473)" fill="#f9d171"/>
            </g>
            <path id="Trazado_1357034" data-name="Trazado 1357034" d="M333.351,58.954c-2.874-3.926-3.109-2.131-5.9-5.09,2.446-3.108,2.926-8.548,2.926-8.548,4.865,2.962,5.1,10.18,4.253,13.4a.722.722,0,0,1-1.281.239Z" transform="translate(-284.076 -39.851)" fill="#f9d171"/>
          </g>
        </g>
        <g id="Grupo_1207577" data-name="Grupo 1207577" transform="translate(0 0)">
          <path id="Trazado_1357035" data-name="Trazado 1357035" d="M291.465,68.9a1.084,1.084,0,0,1-1.084-1.084V66.084a1.084,1.084,0,0,1,2.168,0v1.734A1.084,1.084,0,0,1,291.465,68.9Z" transform="translate(-248.412 -55.605)"/>
          <path id="Trazado_1357036" data-name="Trazado 1357036" d="M68.58,51.152H65.5a8.157,8.157,0,0,0,.806-1.616,9.383,9.383,0,0,0-.519-7.121A2.525,2.525,0,0,0,62.455,41.2a9.377,9.377,0,0,0-4.976,5.122,8.588,8.588,0,0,0-.267,4.829H52.67a1.084,1.084,0,1,0,0,2.168H68.58a3.255,3.255,0,0,1,3.252,3.252v1.445a3.255,3.255,0,0,1-3.252,3.252h-5.3a2.095,2.095,0,0,0-1.347,3.7l2.784,2.337a2.661,2.661,0,0,1,.933,1.822,2.467,2.467,0,0,1-.591,1.83,2.543,2.543,0,0,1-3.532.274l-10.364-8.7a5.429,5.429,0,0,0-3.483-1.268h-21.7A63.4,63.4,0,0,0,38.2,53.32h9.407a1.084,1.084,0,1,0,0-2.168H40.733a39.724,39.724,0,0,0,7.2-8.4c2.381-3.855,3.362-7.531,2.838-10.63a12.161,12.161,0,0,0-3.841-7.448,16.467,16.467,0,0,0,4.15-5.4,15.309,15.309,0,0,1,1.268,1.553,1.791,1.791,0,0,0,1.452.741,1.855,1.855,0,0,0,.346-.033,1.786,1.786,0,0,0,1.407-1.313,16.658,16.658,0,0,0,.025-7.3A11.125,11.125,0,0,0,51.34,5.97,4.552,4.552,0,0,0,50.1,3.126C47.969.821,43.581,0,40.184,0a16.754,16.754,0,0,0-9.25,2.471,15.061,15.061,0,0,0-5.18,5.847,27.463,27.463,0,0,0-2.639,12.039,3.21,3.21,0,0,1-.239,1.2,22.618,22.618,0,0,0-9.449,8.5A34.319,34.319,0,0,0,8.393,46.336a24.71,24.71,0,0,1-1.239,4.816H5.42A5.426,5.426,0,0,0,0,56.571v1.445a5.426,5.426,0,0,0,5.42,5.419h.407c-.794,1.434-1.614,2.9-2.446,4.371a3.971,3.971,0,0,0-.217,3.475A3.893,3.893,0,0,0,5.7,73.564a11.036,11.036,0,0,0,9.963-1.982,17.323,17.323,0,0,0,5.2-8.147H44.369a9.978,9.978,0,0,0-2.644,4.638A2.528,2.528,0,0,0,43.5,71.145a10.813,10.813,0,0,0,2.81.383,8.277,8.277,0,0,0,7.3-4.106l6.521,5.471a4.722,4.722,0,0,0,6.559-.51,4.617,4.617,0,0,0,1.118-3.424,4.84,4.84,0,0,0-1.7-3.314L63.48,63.436h5.1A5.426,5.426,0,0,0,74,58.017V56.571a5.426,5.426,0,0,0-5.42-5.419Zm-4.311-2.358a6.191,6.191,0,0,1-1.559,2.358H59.446a6.626,6.626,0,0,1,.071-4.088,7.1,7.1,0,0,1,3.846-3.895.356.356,0,0,1,.464.168,7.1,7.1,0,0,1,.443,5.456ZM38.075,50.585a7.135,7.135,0,0,1-3.954-.085h0c-.225-.11-.443-.195-.653-.277-.1-.038-.2-.077-.291-.116a3.974,3.974,0,0,0-4.241.748c-.231.216-.464.43-.7.644-.972.884-2.556,1.343-3.524.581a6.428,6.428,0,0,0-4.333-1.458,39.941,39.941,0,0,1,.5-4.076q.584.315,1.171.626l.024.013a6.539,6.539,0,0,0,7.424-.948q.454-.412.9-.828a2.543,2.543,0,0,1,2.715-.477c.376.157.753.314,1.129.468,1.876.769,5.308.922,9.6-.633a42.151,42.151,0,0,1-5.767,5.82ZM18.657,46.7l-.16-.148a3.96,3.96,0,0,0-2.71-1.055,22.145,22.145,0,0,1,.891-8.582,5.4,5.4,0,0,0,.667-.223q.453-.185.906-.375a1.8,1.8,0,0,1,1.914.332c.238.224.481.447.724.668.132.12.271.229.412.334a37.524,37.524,0,0,0-2.644,9.05Zm27.238-24a9.309,9.309,0,0,1,1.558-5.958A8.446,8.446,0,0,0,49.283,18,14.5,14.5,0,0,1,45.9,22.694Zm-2.158.183a10.179,10.179,0,0,0-1.032-.284c-4.922-2.5-5.963-5.926-5.963-8.369a7.921,7.921,0,0,1,1.825-5.511,5.166,5.166,0,0,1,3.816-1.668c2.462,0,5.107,1.727,5.206,5.508a9.37,9.37,0,0,1-1.115,1.875l-.016.022A11.559,11.559,0,0,0,43.738,22.877ZM51.052,8.567C53.73,11.33,54.1,16.1,53.62,18.912a8.289,8.289,0,0,0-3.149-2.738,6.776,6.776,0,0,1-1.731-1.2A18.937,18.937,0,0,0,51.052,8.567ZM23.8,24.061a5.5,5.5,0,0,0,.844-1.176l.007-.012a5.38,5.38,0,0,0,.632-2.508,25.275,25.275,0,0,1,2.4-11.05c2.457-4.743,6.664-7.148,12.5-7.148,4.2,0,7.2,1.219,8.318,2.428a2.355,2.355,0,0,1,.671,1.863,21.96,21.96,0,0,1-.363,2.251,7.214,7.214,0,0,0-6.426-3.833,7.311,7.311,0,0,0-5.4,2.358,10.024,10.024,0,0,0-2.406,6.988,10.6,10.6,0,0,0,4,8.234,16.279,16.279,0,0,0-4.631,1.4,1.084,1.084,0,0,0,.912,1.967c3.415-1.583,6.816-1.732,9.331-.408,2.34,1.232,3.88,3.677,4.453,7.071.422,2.492-.395,5.534-2.356,8.813-2.613,1.377-7.974,3.421-11.212,2.093-.372-.152-.743-.307-1.11-.461a4.716,4.716,0,0,0-5.031.888q-.439.409-.883.812a4.367,4.367,0,0,1-4.953.637l-.021-.011c-.437-.232-.874-.464-1.308-.7a4.719,4.719,0,0,0-.427-.2A28.945,28.945,0,0,1,30.8,28.382,1.084,1.084,0,1,0,29.436,26.7a26.566,26.566,0,0,0-3.9,3.923c-.018-.022-.037-.043-.055-.065-.192-.247-.385-.5-.578-.756a3.978,3.978,0,0,0-4.044-1.47l-.327.073A28.528,28.528,0,0,1,23.8,24.061Zm-3.413,6.6c.318-.069.637-.139.955-.212a1.8,1.8,0,0,1,1.829.661c.2.263.4.524.6.78a5.439,5.439,0,0,0,.449.505,30.933,30.933,0,0,0-1.95,3.242c-.206-.187-.413-.377-.622-.575a3.977,3.977,0,0,0-4.057-.813,35.187,35.187,0,0,1,1.584-3.465,5.389,5.389,0,0,0,1.215-.124Zm-1.355-3.926A39.019,39.019,0,0,0,15.9,32.645a30.742,30.742,0,0,0-2.08,7.08,4.352,4.352,0,0,1-.54-.238q-.666-.353-1.33-.71l-.066-.033a25.828,25.828,0,0,1,7.147-12.012Zm-7.7,14.174c.31.166.619.332.932.5a6.511,6.511,0,0,0,1.3.513,20.932,20.932,0,0,0,.133,4.36,5.535,5.535,0,0,0-3.023-1.239,37.061,37.061,0,0,1,.658-4.131ZM7.373,55.687a24.342,24.342,0,0,0,3.076-8.5,3.591,3.591,0,0,1,2.63,1.578,71.064,71.064,0,0,1-3.2,7.088,19.949,19.949,0,0,1-2.16.375.341.341,0,0,1-.338-.163A.345.345,0,0,1,7.373,55.687ZM5.42,61.268a3.255,3.255,0,0,1-3.252-3.252V56.571A3.255,3.255,0,0,1,5.42,53.32h.789c-.237.468-.47.884-.687,1.24A2.529,2.529,0,0,0,7.67,58.4a2.575,2.575,0,0,0,.3-.017c.214-.025.43-.054.646-.086q-.766,1.452-1.594,2.97ZM14.3,69.894a8.972,8.972,0,0,1-8,1.588A1.736,1.736,0,0,1,5.172,70.46a1.815,1.815,0,0,1,.1-1.589c4.651-8.252,8.944-16.08,10.466-21.211a1.79,1.79,0,0,1,1.283.473c.238.223.479.444.722.665a5.459,5.459,0,0,0,.577.457q-.142,1.414-.192,2.865a16.43,16.43,0,0,1-3.987,8.229,2.53,2.53,0,0,0,1.884,4.208,2.64,2.64,0,0,0,.439-.037c.6-.1,1.209-.231,1.819-.379A13.993,13.993,0,0,1,14.3,69.894Zm1.8-7.511a.345.345,0,0,1-.387-.182.339.339,0,0,1,.049-.417,18.663,18.663,0,0,0,4.442-8.953,3.962,3.962,0,0,1,3.163.951c1.941,1.53,4.707.792,6.322-.677.243-.219.484-.441.722-.663a1.8,1.8,0,0,1,1.924-.337c.113.047.227.092.341.137.179.07.348.136.5.208a5.784,5.784,0,0,0,2.028.516c-7.417,5.785-14.755,8.684-19.1,9.417Zm33.417,6.16a7.1,7.1,0,0,1-5.45.512.353.353,0,0,1-.247-.429,7.1,7.1,0,0,1,3.168-4.464,6.007,6.007,0,0,1,1.518-.617,3.255,3.255,0,0,1,1.262.653l2.158,1.81A6.344,6.344,0,0,1,49.52,68.542Z" transform="translate(0 0)"/>
        </g>
      </g>
    </g>
  </g>
</svg>
