<svg xmlns="http://www.w3.org/2000/svg" width="95.5" height="95.5" viewBox="0 0 95.5 95.5">
  <g id="Grupo_1207594" data-name="Grupo 1207594" transform="translate(-1174.961 -1489)">
    <g id="Grupo_1207487" data-name="Grupo 1207487" transform="translate(1172.961 1487)">
      <circle id="Elipse_13793" data-name="Elipse 13793" cx="35" cy="35" r="35" transform="translate(26 12)" fill="#23a2e0"/>
      <path id="Trazado_1356745" data-name="Trazado 1356745" d="M48.762,8.873,42.183,13.85,39,20.217l6.367,14.325L58.1,40.908l14.325,7.958,1.124-.675A35,35,0,0,0,48.762,8.873Z" transform="translate(21.892 4.067)" fill="#84c757"/>
      <path id="Trazado_1356746" data-name="Trazado 1356746" d="M43.662,60.384l-7.576-4.735-6.367-3.183L26.535,46.1,32.9,34.957l7.958-1.592-4.775-9.55L24.724,16.241a34.806,34.806,0,0,0-7.7,20.267l5.106.729a3.249,3.249,0,0,1,2.618,1.974,2.685,2.685,0,0,1-2.477,3.705H17.307A35.015,35.015,0,0,0,47.661,72.858l1.157-9.251Z" transform="translate(8.89 8.426)" fill="#84c757"/>
      <path id="Trazado_1356747" data-name="Trazado 1356747" d="M23.1,7.775V3l-2.73.91a9.841,9.841,0,0,1-4.189.444L11.07,3.786A6.365,6.365,0,0,0,4,10.113V12.55H18.325A4.775,4.775,0,0,0,23.1,7.775Z" transform="translate(1.183 0.592)" fill="#4a3a00"/>
      <path id="Trazado_1356748" data-name="Trazado 1356748" d="M7.775,57H3v6.367H14.142A6.367,6.367,0,0,0,7.775,57Z" transform="translate(0.592 32.542)" fill="#4a3a00"/>
      <path id="Trazado_1356749" data-name="Trazado 1356749" d="M12,63.367H23.142A6.367,6.367,0,0,0,16.775,57H12Z" transform="translate(5.917 32.542)" fill="#4a3a00"/>
      <path id="Trazado_1356750" data-name="Trazado 1356750" d="M36.367,14,30,15.592v6.367l9.55,4.775Z" transform="translate(16.567 7.1)" fill="#84c757"/>
      <path id="Trazado_1356751" data-name="Trazado 1356751" d="M47,41.183v3.183l7.958,1.592,3.183-6.367L50.183,38Z" transform="translate(26.625 21.3)" fill="#84c757"/>
      <g id="Grupo_1207486" data-name="Grupo 1207486" transform="translate(32.242 3.592)">
        <path id="Trazado_1356752" data-name="Trazado 1356752" d="M49.775,3H45a7.959,7.959,0,0,0,7.958,7.958h4.775A7.959,7.959,0,0,0,49.775,3Z" transform="translate(-6.8 -3)" fill="#649642"/>
        <path id="Trazado_1356753" data-name="Trazado 1356753" d="M65.733,3H60.958A7.959,7.959,0,0,0,53,10.958h4.775A7.959,7.959,0,0,0,65.733,3Z" transform="translate(-2.067 -3)" fill="#649642"/>
        <path id="Trazado_1356754" data-name="Trazado 1356754" d="M32.775,33H28a7.959,7.959,0,0,0,7.958,7.958h4.775A7.959,7.959,0,0,0,32.775,33Z" transform="translate(-16.858 14.75)" fill="#649642"/>
        <path id="Trazado_1356755" data-name="Trazado 1356755" d="M48.733,33H43.958A7.959,7.959,0,0,0,36,40.958h4.775A7.959,7.959,0,0,0,48.733,33Z" transform="translate(-12.125 14.75)" fill="#649642"/>
        <path id="Trazado_1356756" data-name="Trazado 1356756" d="M28.958,10.958h4.775A7.959,7.959,0,0,0,25.775,3H21A7.959,7.959,0,0,0,28.958,10.958Z" transform="translate(-21 -3)" fill="#649642"/>
        <path id="Trazado_1356757" data-name="Trazado 1356757" d="M66.256,57.769,63.3,54.024a7.959,7.959,0,0,0-11.178-1.308l2.96,3.747A7.958,7.958,0,0,0,66.256,57.769Z" transform="translate(-2.589 25.4)" fill="#649642"/>
        <path id="Trazado_1356758" data-name="Trazado 1356758" d="M41.922,54.371l-4.659,1.044a7.957,7.957,0,0,0-6.024,9.505L35.9,63.876a7.957,7.957,0,0,0,6.024-9.505Z" transform="translate(-15.057 27.394)" fill="#649642"/>
      </g>
      <path id="Trazado_1356759" data-name="Trazado 1356759" d="M64.467,37.928,51.733,31.561,45.367,17.236,48.55,10.87l1.894-1.434c-.559-.193-1.113-.4-1.682-.563l-6.578,4.979L39,20.217l6.367,14.325L58.1,40.909l14.325,7.958,1.124-.675a35.315,35.315,0,0,0,.438-4.976Z" transform="translate(21.892 4.066)" fill="#97d66d"/>
      <path id="Trazado_1356760" data-name="Trazado 1356760" d="M41.9,60.384l-7.576-4.735-6.367-3.183L24.775,46.1l6.367-11.142L39.1,33.366l-4.775-9.55L22.964,16.241q-.831,1.034-1.582,2.128l8.168,5.447,3.183,7.958-6.367,1.592-3.206,7.2a2.651,2.651,0,0,1-1.012,1.77L20,46.1l3.183,6.367,6.367,3.183,7.576,4.735,5.157,3.223-1.039,8.32a34.923,34.923,0,0,0,4.659.931l1.156-9.251Z" transform="translate(10.65 8.426)" fill="#97d66d"/>
      <path id="Trazado_1356761" data-name="Trazado 1356761" d="M4,9v9.55a4.775,4.775,0,0,0,4.775,4.775h6.367a4.775,4.775,0,0,0,4.775-4.775V9Z" transform="translate(1.183 4.142)" fill="#ffecdb"/>
      <path id="Trazado_1356762" data-name="Trazado 1356762" d="M9.367,71.2,12.55,45.733,17.325,71.2h6.367L20.508,33H3V71.2Z" transform="translate(0.592 18.342)" fill="#201e57"/>
      <path id="Trazado_1356763" data-name="Trazado 1356763" d="M15.932,37.4A10.055,10.055,0,0,0,24.3,41.875h6.273a2.683,2.683,0,0,0,2.475-3.7A3.249,3.249,0,0,0,30.428,36.2l-5.108-.729a4.734,4.734,0,0,1-3.943-3.621l-.317-1.369C19.881,25.361,20.508,18,9.367,18l-2.2,1.464a6.364,6.364,0,0,0-2.816,4.808L3,41.875H22.1" transform="translate(0.592 9.467)" fill="#ffd050"/>
      <path id="Trazado_1356764" data-name="Trazado 1356764" d="M15.612,28.98A4.734,4.734,0,0,0,19.555,32.6l5.108.729a3.546,3.546,0,0,1,1.141.393,2.777,2.777,0,0,0-.115-1.6,3.249,3.249,0,0,0-2.618-1.974l-5.108-.729a4.738,4.738,0,0,1-2.526-1.194Z" transform="translate(7.95 15.516)" fill="#ffd970"/>
      <path id="Trazado_1356765" data-name="Trazado 1356765" d="M5.946,27.456a6.363,6.363,0,0,1,2.816-4.808l2.2-1.464c4.746,0,7.346,1.342,8.87,3.271C18.77,20.975,16.446,18,9.367,18l-2.2,1.464a6.364,6.364,0,0,0-2.816,4.808L3,41.875H4.837Z" transform="translate(0.592 9.467)" fill="#ffd970"/>
      <path id="Trazado_1356766" data-name="Trazado 1356766" d="M20.37,3.91a9.841,9.841,0,0,1-4.189.444L11.07,3.786A6.365,6.365,0,0,0,4,10.113V12.55h.081A6.341,6.341,0,0,1,11.07,6.97l5.112.568a9.816,9.816,0,0,0,4.189-.444l2.728-.91V3Z" transform="translate(1.183 0.592)" fill="#5c4800"/>
      <path id="Trazado_1356767" data-name="Trazado 1356767" d="M3.592,97.5H14.733a1.592,1.592,0,0,0,1.592-1.592,7.954,7.954,0,0,0-4.656-7.22l1.787-14.3,2.868,15.3v6.219A1.592,1.592,0,0,0,17.917,97.5H29.058a1.592,1.592,0,0,0,1.592-1.592,7.972,7.972,0,0,0-4.85-7.325L22.814,52.742a11.8,11.8,0,0,0,2.06.189A36.59,36.59,0,1,0,84.767,18.849V13.142H87.95a9.56,9.56,0,0,0,9.55-9.55A1.592,1.592,0,0,0,95.908,2H91.133a9.548,9.548,0,0,0-7.958,4.282A9.548,9.548,0,0,0,75.217,2H70.442A1.592,1.592,0,0,0,68.85,3.592a9.56,9.56,0,0,0,9.55,9.55h3.183v3.247A36.55,36.55,0,0,0,24.536,42.61a3.135,3.135,0,0,1-1.015-1.655L23.2,39.586c-.164-.707-.29-1.46-.42-2.228-.493-2.918-1.114-6.475-3.89-8.851a6.367,6.367,0,0,0,3.8-5.814V13.848a6.346,6.346,0,0,0,3.183-5.482V3.592a1.593,1.593,0,0,0-2.095-1.51l-2.73.91a8.3,8.3,0,0,1-3.51.372L12.429,2.8A7.958,7.958,0,0,0,3.592,10.7V22.692A6.364,6.364,0,0,0,6.4,27.968a7.892,7.892,0,0,0-3.04,5.65L2,51.219c0,.043.016.081.016.123H2V95.908A1.592,1.592,0,0,0,3.592,97.5ZM91.133,5.183h2.983A6.381,6.381,0,0,1,87.95,9.958H84.967A6.381,6.381,0,0,1,91.133,5.183ZM78.4,9.958a6.381,6.381,0,0,1-6.166-4.775h2.983a6.381,6.381,0,0,1,6.166,4.775ZM12.869,94.317H5.183V91.133H8.367A4.784,4.784,0,0,1,12.869,94.317Zm.224-31.833a1.592,1.592,0,0,0-1.531,1.393L8.551,87.969c-.064,0-.121-.019-.185-.019H5.183V52.933H19.636L22.553,87.95H19.238L14.706,63.782a1.567,1.567,0,0,0-1.612-1.3Zm14.1,31.833H19.508V91.133h3.183A4.784,4.784,0,0,1,27.194,94.317Zm.912-41.383h3.056a4.276,4.276,0,0,0,3.965-5.859,4.816,4.816,0,0,0-3.88-2.984l-3.607-.516a33.23,33.23,0,0,1,6.289-16.783l9.813,6.542L47.4,40.643l-5.915,1.183a1.6,1.6,0,0,0-1.07.77L34.045,53.737a1.588,1.588,0,0,0-.041,1.5L37.187,61.6a1.594,1.594,0,0,0,.711.711l6.235,3.11L50.6,69.471l-.751,2.005,2.981,1.117.525-1.4,2.645,1.654-.829,6.636A33.54,33.54,0,0,1,28.106,52.933Zm56.66-27.058V23.219A32.812,32.812,0,0,1,94,50.936L80.7,43.552l-12.222-6.11L62.65,24.325l2.682-5.362L70.965,14.7a33.33,33.33,0,0,1,10.618,5.666v5.507ZM60.892,13.142a33.363,33.363,0,0,1,6.087.583l-3.865,2.924a1.585,1.585,0,0,0-.463.557l-3.183,6.367a1.594,1.594,0,0,0-.03,1.359L65.8,39.256a1.592,1.592,0,0,0,.742.777l12.671,6.333L93.39,54.24a33.454,33.454,0,0,1-32.5,25.752c-.861,0-1.713-.054-2.559-.119l.955-7.642a1.593,1.593,0,0,0-.735-1.547L54.5,68.153l2.722-7.261h3.672a9.56,9.56,0,0,0,9.55-9.55A1.592,1.592,0,0,0,68.85,49.75H64.075a9.548,9.548,0,0,0-7.958,4.282,9.544,9.544,0,0,0-7.958-4.282H43.383a1.592,1.592,0,0,0-1.592,1.592,9.56,9.56,0,0,0,9.55,9.55H53.82l-2.077,5.541-6.055-3.78L39.8,59.706l-2.564-5.132L42.817,44.8l7.248-1.45a1.591,1.591,0,0,0,1.111-2.273L46.4,31.529a1.6,1.6,0,0,0-.541-.613l-9.916-6.61A33.326,33.326,0,0,1,60.892,13.142ZM57.909,57.708a6.379,6.379,0,0,1,6.166-4.775h2.983a6.379,6.379,0,0,1-6.166,4.775Zm-3.584,0H51.342a6.381,6.381,0,0,1-6.166-4.775h2.983A6.381,6.381,0,0,1,54.324,57.708ZM19.508,22.692a3.187,3.187,0,0,1-3.183,3.183H9.958a3.187,3.187,0,0,1-3.183-3.183V14.733H19.508ZM6.775,10.7a4.715,4.715,0,0,1,1.59-3.557,4.8,4.8,0,0,1,3.713-1.189l5.112.568a11.6,11.6,0,0,0,4.867-.516l.633-.21V8.367a3.187,3.187,0,0,1-3.183,3.183H6.775ZM6.533,33.862a4.747,4.747,0,0,1,2.112-3.607l1.789-1.192c7.747.156,8.426,4.181,9.214,8.826.14.832.28,1.647.457,2.413l.315,1.369a6.369,6.369,0,0,0,5.268,4.839l5.108.729a1.675,1.675,0,0,1,1.356.961,1.132,1.132,0,0,1-.1,1.081,1.084,1.084,0,0,1-.891.47H24.89a8.443,8.443,0,0,1-7.042-3.769L15.2,47.746a11.7,11.7,0,0,0,1.687,2H5.311Z" transform="translate(0 0)"/>
      <path id="Trazado_1356768" data-name="Trazado 1356768" d="M29.88,23.975l9.55,4.775a1.6,1.6,0,0,0,.711.167,1.593,1.593,0,0,0,1.544-1.978L38.5,14.205a1.6,1.6,0,0,0-1.931-1.159L30.2,14.638A1.6,1.6,0,0,0,29,16.184V22.55A1.593,1.593,0,0,0,29.88,23.975Zm2.3-6.548,3.616-.9,1.958,7.831-5.574-2.787Z" transform="translate(15.975 6.508)"/>
      <path id="Trazado_1356769" data-name="Trazado 1356769" d="M47.28,46.519l7.958,1.592a1.493,1.493,0,0,0,.312.032,1.591,1.591,0,0,0,1.423-.88L60.156,40.9a1.591,1.591,0,0,0-1.111-2.273l-7.958-1.592a1.59,1.59,0,0,0-1.437.435l-3.183,3.183A1.594,1.594,0,0,0,46,41.775v3.183a1.589,1.589,0,0,0,1.28,1.56Zm1.9-4.084L51.3,40.319l5.079,1.015L54.67,44.75l-5.486-1.1Z" transform="translate(26.033 20.708)"/>
      <path id="Trazado_1356770" data-name="Trazado 1356770" d="M29.55,13.142h4.775a1.592,1.592,0,0,0,1.592-1.592A9.56,9.56,0,0,0,26.367,2H21.592A1.592,1.592,0,0,0,20,3.592,9.56,9.56,0,0,0,29.55,13.142ZM26.367,5.183a6.381,6.381,0,0,1,6.166,4.775H29.55a6.381,6.381,0,0,1-6.166-4.775Z" transform="translate(10.65 0)"/>
      <path id="Trazado_1356771" data-name="Trazado 1356771" d="M61.931,61.67a9.477,9.477,0,0,0,5.9-2.06,1.592,1.592,0,0,0,.263-2.235l-2.961-3.747a9.552,9.552,0,0,0-13.415-1.569,1.594,1.594,0,0,0-.263,2.236l2.96,3.747A9.5,9.5,0,0,0,60.8,61.606a10.774,10.774,0,0,0,1.128.064Zm-5.012-5.6-1.85-2.34A6.376,6.376,0,0,1,62.637,55.6l1.851,2.341a6.375,6.375,0,0,1-7.57-1.877Z" transform="translate(29.061 28.4)"/>
      <path id="Trazado_1356772" data-name="Trazado 1356772" d="M42.815,61.816a9.49,9.49,0,0,0,1.253-7.2,1.589,1.589,0,0,0-1.9-1.2l-4.659,1.044a9.551,9.551,0,0,0-7.231,11.407A1.589,1.589,0,0,0,31.829,67.1a1.624,1.624,0,0,0,.349-.038l4.659-1.044A9.494,9.494,0,0,0,42.815,61.816Zm-9.587,1.752A6.374,6.374,0,0,1,38.2,57.56l2.911-.653a6.374,6.374,0,0,1-4.974,6.009Z" transform="translate(16.592 30.395)"/>
    </g>
  </g>
</svg>
