<svg xmlns="http://www.w3.org/2000/svg" width="114" height="114" viewBox="0 0 114 114">
  <g id="Grupo_1207597" data-name="Grupo 1207597" transform="translate(-3487 10219)">
    <g id="Grupo_1207510" data-name="Grupo 1207510" transform="translate(3485 -10221)">
      <path id="Trazado_1356802" data-name="Trazado 1356802" d="M82.731,52.8a37.015,37.015,0,0,1-13.75-2.649l-.161-.065A15.213,15.213,0,0,0,63.172,49H38.628a15.2,15.2,0,0,0-5.645,1.087l-.161.065A37.024,37.024,0,0,1,19.069,52.8H11v9.5h9.192A37.044,37.044,0,0,0,31.9,60.4V73.7h38V60.4a37.044,37.044,0,0,0,11.708,1.9H90.8V52.8Z" transform="translate(8.1 42.3)" fill="#eaeaea"/>
      <path id="Trazado_1356803" data-name="Trazado 1356803" d="M34.7,49,29,62.3l5.7,7.6,5.7-7.6Z" transform="translate(24.3 42.3)" fill="#999"/>
      <g id="Grupo_1207509" data-name="Grupo 1207509" transform="translate(9.601 57.1)">
        <path id="Trazado_1356804" data-name="Trazado 1356804" d="M60.849,52H53v5.7h4.549a5.7,5.7,0,0,0,4.742-2.538l.139-.207A1.9,1.9,0,0,0,60.849,52Z" transform="translate(36.299 -12.1)" fill="#ffd6a8"/>
        <path id="Trazado_1356805" data-name="Trazado 1356805" d="M6.323,54.954l.139.207A5.7,5.7,0,0,0,11.2,57.7h4.549V52H7.9A1.9,1.9,0,0,0,6.323,54.954Z" transform="translate(-6 -12.1)" fill="#ffd6a8"/>
        <circle id="Elipse_13794" data-name="Elipse 13794" cx="17" cy="17" r="17" transform="translate(32.399 -0.1)" fill="#ffd6a8"/>
      </g>
      <path id="Trazado_1356806" data-name="Trazado 1356806" d="M55.871,43.939l.5.021a17.08,17.08,0,0,0-33.033-.446,28.386,28.386,0,0,1,32.534.426Z" transform="translate(19.203 26.1)" fill="#999"/>
      <circle id="Elipse_13795" data-name="Elipse 13795" cx="17" cy="17" r="17" transform="translate(42 4)" fill="#a7dbfc"/>
      <path id="Trazado_1356807" data-name="Trazado 1356807" d="M38.2,8.87H34.4l-3.8-3.8-1.039-.148A17.006,17.006,0,0,0,23.994,24.07H24.9l7.6-5.7h3.8l3.8-3.8Z" transform="translate(18.9 2.63)" fill="#63bc94"/>
      <path id="Trazado_1356808" data-name="Trazado 1356808" d="M37.8,9.686v5.7l-3.8,5.7,11.4,3.8.122-.04A17.01,17.01,0,0,0,43.139,6.127Z" transform="translate(28.8 3.714)" fill="#63bc94"/>
      <path id="Trazado_1356809" data-name="Trazado 1356809" d="M37.234,25.5a17.435,17.435,0,0,0,1.873-.106L37.234,17.9l-3.8-1.9-7.25,5.438A17.023,17.023,0,0,0,37.234,25.5Z" transform="translate(21.766 12.6)" fill="#63bc94"/>
      <ellipse id="Elipse_13796" data-name="Elipse 13796" cx="17" cy="17.5" rx="17" ry="17.5" transform="translate(80 32)" fill="#a7dbfc"/>
      <path id="Trazado_1356810" data-name="Trazado 1356810" d="M61.869,25.863a5.663,5.663,0,0,0-10.739,0A4.738,4.738,0,0,0,51.75,35.3h9.5a4.738,4.738,0,0,0,.619-9.437Z" transform="translate(40.5 18)" fill="#63bc94"/>
      <ellipse id="Elipse_13797" data-name="Elipse 13797" cx="17" cy="17.5" rx="17" ry="17.5" transform="translate(4 32)" fill="#a7dbfc"/>
      <ellipse id="Elipse_13798" data-name="Elipse 13798" cx="6" cy="5.5" rx="6" ry="5.5" transform="translate(15 40)" fill="#ffd6a8"/>
      <path id="Trazado_1356811" data-name="Trazado 1356811" d="M18.4,28H14.6A7.6,7.6,0,0,0,7,35.6v4.716a17.088,17.088,0,0,0,19,0V35.6A7.6,7.6,0,0,0,18.4,28Z" transform="translate(4.5 23.4)" fill="#eaeaea"/>
      <path id="Trazado_1356812" data-name="Trazado 1356812" d="M36.4,39H32.6a1.9,1.9,0,1,1-3.8,0H25a5.7,5.7,0,0,0,11.4,0Z" transform="translate(20.7 33.3)"/>
      <path id="Trazado_1356813" data-name="Trazado 1356813" d="M38.7,44.7A5.707,5.707,0,0,0,44.4,39H40.6a1.9,1.9,0,1,1-3.8,0H33A5.707,5.707,0,0,0,38.7,44.7Z" transform="translate(27.9 33.3)"/>
      <path id="Trazado_1356814" data-name="Trazado 1356814" d="M39.2,90.8V77.5a1.9,1.9,0,0,0-2.5-1.8,35.062,35.062,0,0,1-11.107,1.8H18.3V71.8h6.169a38.993,38.993,0,0,0,14.617-2.848A13.225,13.225,0,0,1,44.027,68h9.392L48.853,78.651a1.9,1.9,0,0,0,.226,1.889l5.7,7.6a1.9,1.9,0,0,0,3.04,0l5.7-7.6a1.9,1.9,0,0,0,.226-1.889L59.18,68h9.392a13.469,13.469,0,0,1,5.1,1.016A38.761,38.761,0,0,0,88.13,71.8H94.3v5.7H87.007A35.062,35.062,0,0,1,75.9,75.7a1.9,1.9,0,0,0-2.5,1.8V90.8h3.8V80.044A38.849,38.849,0,0,0,87.007,81.3H96.2a1.9,1.9,0,0,0,1.9-1.9h2.651a7.587,7.587,0,0,0,6.321-3.38l.141-.213A3.8,3.8,0,0,0,104.05,69.9H98.1A1.9,1.9,0,0,0,96.2,68H88.13a35.226,35.226,0,0,1-13.207-2.576A17.052,17.052,0,0,0,68.572,64.2H67.65A18.985,18.985,0,1,0,38.206,43.22c-.038.028-.08.051-.12.08l.061.086a18.949,18.949,0,0,0,6.8,20.814h-.922a17.291,17.291,0,0,0-6.513,1.288A34.994,34.994,0,0,1,24.469,68H16.4a1.9,1.9,0,0,0-1.9,1.9H8.8a3.8,3.8,0,0,0-3.165,5.9l.141.215A7.588,7.588,0,0,0,12.1,79.4h2.4a1.9,1.9,0,0,0,1.9,1.9h9.192A38.838,38.838,0,0,0,35.4,80.044V90.8ZM98.1,73.7l5.953,0-.141.211A3.8,3.8,0,0,1,100.75,75.6H98.1ZM59.822,79.138,56.3,83.833l-3.523-4.695L56.3,70.924ZM56.3,33.8a15.192,15.192,0,0,1,12.665,6.815,30.382,30.382,0,0,0-24.822-.7A15.17,15.17,0,0,1,56.3,33.8ZM41.1,49a15.157,15.157,0,0,1,.4-3.409,26.494,26.494,0,0,1,29.758.785A15.193,15.193,0,1,1,41.1,49ZM14.5,75.6H12.1a3.792,3.792,0,0,1-3.158-1.685L8.8,73.7h5.7Z" transform="translate(2.7 25.2)"/>
      <path id="Trazado_1356815" data-name="Trazado 1356815" d="M41,40A19,19,0,1,0,22,21,19.022,19.022,0,0,0,41,40Zm-7.836-6L37.4,30.825l1.968.984,1.091,4.364A15.077,15.077,0,0,1,33.164,34ZM56.2,21a15.115,15.115,0,0,1-.963,5.276l-7.475-2.491,2.419-3.631A1.91,1.91,0,0,0,50.5,19.1V14.416L53.521,12.4A15.1,15.1,0,0,1,56.2,21ZM25.8,21A15.15,15.15,0,0,1,30.841,9.727l3.116,3.116A1.892,1.892,0,0,0,35.3,13.4h2.43l1.094,3.287L36.413,19.1H33.4a1.9,1.9,0,0,0-1.14.38l-6.145,4.608A15.3,15.3,0,0,1,25.8,21Zm8.233,1.9H37.2a1.892,1.892,0,0,0,1.343-.557l3.8-3.8A1.9,1.9,0,0,0,42.8,16.6l-1.9-5.7a1.9,1.9,0,0,0-1.8-1.3H36.087l-2.08-2.081A15.1,15.1,0,0,1,50.958,9.545l-3.412,2.274A1.9,1.9,0,0,0,46.7,13.4v5.124l-3.481,5.221A1.9,1.9,0,0,0,44.2,26.6l9.255,3.086a15.221,15.221,0,0,1-9.164,6.143l-1.448-5.791a1.9,1.9,0,0,0-.992-1.239l-3.8-1.9a1.9,1.9,0,0,0-1.989.181L30.09,31.558a15.288,15.288,0,0,1-2.645-3.718Z" transform="translate(18 0)"/>
      <path id="Trazado_1356816" data-name="Trazado 1356816" d="M9.6,51.164V51.2h.049a18.852,18.852,0,0,0,22.7,0H32.4v-.036a19,19,0,1,0-22.8,0Zm19-2.02a15.076,15.076,0,0,1-15.2,0V45.5a5.707,5.707,0,0,1,5.7-5.7h3.8a5.707,5.707,0,0,1,5.7,5.7ZM17.2,32.2A3.8,3.8,0,1,1,21,36,3.8,3.8,0,0,1,17.2,32.2ZM21,20.8A15.176,15.176,0,0,1,32.4,46.021V45.5a9.49,9.49,0,0,0-5.489-8.58,7.6,7.6,0,1,0-11.822,0A9.49,9.49,0,0,0,9.6,45.5v.521A15.176,15.176,0,0,1,21,20.8Z" transform="translate(0 13.5)"/>
      <path id="Trazado_1356817" data-name="Trazado 1356817" d="M61,55A19,19,0,1,0,42,36,19.022,19.022,0,0,0,61,55Zm0-34.2A15.2,15.2,0,1,1,45.8,36,15.218,15.218,0,0,1,61,20.8Z" transform="translate(36 13.5)"/>
      <path id="Trazado_1356818" data-name="Trazado 1356818" d="M52.65,38.1H55.5v5.7h3.8V38.1h2.85a6.638,6.638,0,0,0,1.984-12.977,7.56,7.56,0,0,0-13.467,0A6.638,6.638,0,0,0,52.65,38.1Zm-.37-9.454a1.9,1.9,0,0,0,1.549-1.267,3.764,3.764,0,0,1,7.144,0,1.9,1.9,0,0,0,1.549,1.267A2.84,2.84,0,0,1,62.15,34.3h-9.5a2.839,2.839,0,0,1-.37-5.654Z" transform="translate(39.6 17.1)"/>
      <path id="Trazado_1356819" data-name="Trazado 1356819" d="M55,47h3.8v3.8H55Z" transform="translate(47.7 40.5)"/>
      <path id="Trazado_1356820" data-name="Trazado 1356820" d="M55,43h3.8v3.8H55Z" transform="translate(47.7 36.9)"/>
      <path id="Trazado_1356821" data-name="Trazado 1356821" d="M55,39h3.8v3.8H55Z" transform="translate(47.7 33.3)"/>
      <path id="Trazado_1356822" data-name="Trazado 1356822" d="M7,47h3.8v3.8H7Z" transform="translate(4.5 40.5)"/>
      <path id="Trazado_1356823" data-name="Trazado 1356823" d="M7,43h3.8v3.8H7Z" transform="translate(4.5 36.9)"/>
      <path id="Trazado_1356824" data-name="Trazado 1356824" d="M7,39h3.8v3.8H7Z" transform="translate(4.5 33.3)"/>
    </g>
  </g>
</svg>
