<svg xmlns="http://www.w3.org/2000/svg" width="107.745" height="139.674" viewBox="0 0 107.745 139.674">
  <g id="Grupo_1207588" data-name="Grupo 1207588" transform="translate(13357.013 12003.836)">
    <g id="Grupo_1206265" data-name="Grupo 1206265" transform="translate(-201.612 214.116)">
      <g id="Grupo_1206263" data-name="Grupo 1206263" transform="translate(-13155.4 -12217.952)">
        <path id="Trazado_1279036" data-name="Trazado 1279036" d="M835.047,400.3a.454.454,0,0,0,.188.122.467.467,0,0,0,.228.051.665.665,0,0,0,.416-.173.59.59,0,0,0,.151-.259c.05-.149.1-.3.151-.443.026-.075.051-.149.075-.223a.858.858,0,0,0-.012-.455.442.442,0,0,0-.267-.3.434.434,0,0,0-.409.024.842.842,0,0,0-.318.306c-.033.07-.065.14-.1.212l-.2.425a.594.594,0,0,0-.08.3c.009.053.015.1.022.156a.571.571,0,0,0,.151.26" transform="translate(-821.227 -365.409)" fill="#315200"/>
        <path id="Trazado_1279037" data-name="Trazado 1279037" d="M835.047,400.3a.454.454,0,0,0,.188.122.467.467,0,0,0,.228.051.665.665,0,0,0,.416-.173.59.59,0,0,0,.151-.259c.05-.149.1-.3.151-.443.026-.075.051-.149.075-.223a.858.858,0,0,0-.012-.455.442.442,0,0,0-.267-.3.434.434,0,0,0-.409.024.842.842,0,0,0-.318.306c-.033.07-.065.14-.1.212l-.2.425a.594.594,0,0,0-.08.3c.009.053.015.1.022.156a.571.571,0,0,0,.151.26" transform="translate(-821.227 -365.409)" fill="#1a2c00"/>
        <path id="Trazado_1279034" data-name="Trazado 1279034" d="M841.71,421.1c-1.38-.639-3.189.043-4.458.666a9.546,9.546,0,0,0-1.979,1.325,6.022,6.022,0,0,0-1.56,1.844,2.042,2.042,0,0,0-.151.464c-.041.075-.08.152-.115.231a1.573,1.573,0,0,0,.817,2.193,2.846,2.846,0,0,0,2.116-.241c.373-.166.74-.348,1.1-.539a10.19,10.19,0,0,0,3.374-2.085,2.939,2.939,0,0,0,.337-.387,3.742,3.742,0,0,0,1.37-1.558,1.546,1.546,0,0,0-.853-1.912" transform="translate(-822.358 -349.557)" fill="#263e00"/>
        <path id="Trazado_1279027" data-name="Trazado 1279027" d="M850.879,419.175c-1.145-.7-2.671-.253-3.92.334a.493.493,0,0,0-.539-.166,6.933,6.933,0,0,0-3.989,3.275,3.123,3.123,0,0,0-.4,2.59,2.065,2.065,0,0,0,2.226,1.216,7.654,7.654,0,0,0,2.671-.979,18.322,18.322,0,0,0,2.5-1.585,6.244,6.244,0,0,0,2.08-2.133,1.943,1.943,0,0,0-.637-2.551M850.1,420.5a.359.359,0,0,1,.122.368.644.644,0,0,0-.361-.1,1.341,1.341,0,0,0-.127-.394.687.687,0,0,1,.366.122" transform="translate(-816.231 -351.003)" fill="#263e00"/>
        <path id="Trazado_1279038" data-name="Trazado 1279038" d="M834.421,418.37a1.988,1.988,0,0,0-2.1-.015c-.116.058-.229.128-.342.2a2.24,2.24,0,0,0-1.832,1.284c-.034.079-.06.161-.092.241-.015.019-.034.036-.05.055-.514.625-1.152,1.507-.825,2.357a1.572,1.572,0,0,0,2.03.851,4.832,4.832,0,0,0,1.784-1.094c.039-.036.077-.075.115-.115a7.642,7.642,0,0,0,1.258-1.358,2.65,2.65,0,0,0,.524-1.044,1.366,1.366,0,0,0-.467-1.358" transform="translate(-825.346 -351.542)" fill="#263e00"/>
        <path id="Trazado_1279028" data-name="Trazado 1279028" d="M853.156,417.012a1.763,1.763,0,0,0-1.777-1.474,1.927,1.927,0,0,0-1.794,1.361,1.576,1.576,0,0,0-.048.579c-.022.026-.039.057-.06.084a1.011,1.011,0,0,0-.37.416c.007-.019-.039.115-.055.152l-.021.041a.539.539,0,0,0,.459.8.293.293,0,0,1,.041.007,1.108,1.108,0,0,0,.2.161,1.607,1.607,0,0,0,1.15.147,4.395,4.395,0,0,0,.883-.245,2.4,2.4,0,0,0,1.094-.832,1.682,1.682,0,0,0,.3-1.195" transform="translate(-811.189 -353.338)" fill="#263e00"/>
        <path id="Trazado_1279014" data-name="Trazado 1279014" d="M906.426,419.605l.116.029,1.6-8.873c.075,0,.147.012.223.012a15.449,15.449,0,1,0-10.47-4.128l-1.513-1.008-1.712,8.56-.457.229a52.233,52.233,0,1,0,12.217,5.179m-6.624-24.24a8.56,8.56,0,1,1,8.56,8.56,8.561,8.561,0,0,1-8.56-8.56" transform="translate(-826.193 -378.671)" fill="#ee9c53"/>
        <path id="Trazado_1279018" data-name="Trazado 1279018" d="M922.079,448.173a44.7,44.7,0,1,0-44.7,44.7,44.7,44.7,0,0,0,44.7-44.7" transform="translate(-822.789 -361.928)" fill="#fffefc"/>
        <path id="Trazado_1279019" data-name="Trazado 1279019" d="M844.9,426.941c1.712,0,17.12,5.136,17.12,5.136V421.8l5.136,6.848,11.984-13.7L874,433.789l13.7-3.424-11.984,6.848L891.123,449.2l-18.832-5.136,3.424,11.984-6.848-10.272-10.272,17.12,3.424-20.544-13.7,3.424,11.984-8.56Z" transform="translate(-814.089 -353.752)" fill="#ffe060"/>
        <path id="Trazado_1279015" data-name="Trazado 1279015" d="M894.166,412.784l2.176-5.415a16.9,16.9,0,1,1,13.586,5.581l-2.188,5.422a53.837,53.837,0,0,1-47.326,96.435c-.455-.2-.916-.394-1.376-.587a53.856,53.856,0,0,1,35.128-101.436M922.3,401.525a14.444,14.444,0,1,0-18.854,7.95l-.466,1.144.5-1.125a14.47,14.47,0,0,0,18.817-7.969M907.3,412.92a16.979,16.979,0,0,1-4.739-1.154l-.036-.015a17.2,17.2,0,0,1-4.285-2.546l-1.71,4.254a55.018,55.018,0,0,1,5.982,2.238c1.046.466,2.047,1,3.049,1.529Zm-74.446,70.611a51.392,51.392,0,1,0,73.414-63.193,1.3,1.3,0,0,1-.615-.055v-.009a1.183,1.183,0,0,1-.608-.575c-1.156-.615-2.313-1.231-3.523-1.758-.437-.2-.878-.382-1.315-.562a51.4,51.4,0,0,0-67.353,66.151" transform="translate(-826.902 -379.206)"/>
        <path id="Trazado_1279032" data-name="Trazado 1279032" d="M875,402.617a10.153,10.153,0,0,1,7.856-18.724c0,.007.159.074.166.077a10.151,10.151,0,0,1,5.331,13.331A10.254,10.254,0,0,1,875,402.617m11.1-6.281a7.7,7.7,0,0,0-4.039-10.118l.32-1.188-.462,1.133a7.7,7.7,0,1,0,4.181,10.173" transform="translate(-797.014 -376.398)"/>
        <path id="Trazado_1279020" data-name="Trazado 1279020" d="M895.947,406.15c22.893,10.1,33.084,37.222,22.78,60.586s-37.212,34.115-60.117,24.023c-22.879-10.1-33.084-37.232-22.768-60.591s37.226-34.118,60.1-24.018m-36.212,82.039c21.67,9.558,47.148-.62,56.908-22.737s.1-47.806-21.556-57.364-47.141.62-56.917,22.735c-9.755,22.119-.1,47.8,21.564,57.365" transform="translate(-823.402 -362.725)"/>
        <path id="Trazado_1279021" data-name="Trazado 1279021" d="M859.59,439.246l-15.62-9.99a1.226,1.226,0,0,1,.947-2.226l17.714,4.3-2.243-12.116a1.23,1.23,0,0,1,2.275-.834l6.079,10.686,10.6-15.391a1.189,1.189,0,0,1,1.525-.416,1.217,1.217,0,0,1,.657,1.433l-4.943,18.019,12.754-2.582a1.209,1.209,0,0,1,1.383.774,1.225,1.225,0,0,1-.534,1.495l-11.022,6.25,15.711,10.421a1.222,1.222,0,0,1-1,2.195l-18.527-5.109,3.087,12.872a1.239,1.239,0,0,1-.728,1.419,1.192,1.192,0,0,1-.933,0,1.228,1.228,0,0,1-.584-.486l-6.928-11.225-9.748,15.838a1.216,1.216,0,0,1-1.5.505,1.228,1.228,0,0,1-.726-1.424l4.29-18.14-12.068,2.652a1.186,1.186,0,0,1-.717-.06,1.212,1.212,0,0,1-.676-.683,1.229,1.229,0,0,1,.5-1.5Zm4.525-13.357,1.123,6.081,1.291.317.669-.976Zm18.181,8.168-6.435,1.31-.259.928,1.279.839Zm-8.027,18.13-1.618-6.773L871.5,445.1l-.806,1.311Zm-12.849,4.622,6.836-11.109.005-.007,1.631-2.662a1.229,1.229,0,0,1,1.376-.536l15.848,4.372-13.605-9.024a1.239,1.239,0,0,1-.509-1.351l4.246-15.456-9.176,13.33a1.222,1.222,0,0,1-1.3.5l-15.295-3.717,13.186,8.435a1.244,1.244,0,0,1,.531,1.313l-.762,3.225c-.007,0-.007.012-.007.017Zm.781-13.942.407-1.685-.728-.464-5.72,3.48Z" transform="translate(-815.154 -355.049)"/>
        <path id="Trazado_1279029" data-name="Trazado 1279029" d="M869.769,417.825a.277.277,0,0,0-.031-.019.83.83,0,0,1-.43-1.1,47.323,47.323,0,0,0,1.118-4.614c-.171.118-.344.223-.515.337a33.14,33.14,0,0,1-4.549,2.7A.847.847,0,0,1,864.2,414.1c.693-2.12,1.233-4.515,1.635-6.36a.844.844,0,0,1,1.012-.652.832.832,0,0,1,.64,1c-.282,1.351-.651,2.969-1.092,4.58.877-.524,1.745-1.089,2.578-1.649.733-.5,1.472-.971,2.208-1.433a.854.854,0,0,1,.923.026.819.819,0,0,1,.356.835,60.293,60.293,0,0,1-1.592,6.922.858.858,0,0,1-1.1.455" transform="translate(-800.373 -359.371)"/>
        <path id="Trazado_1279031" data-name="Trazado 1279031" d="M838.656,424.974a19.9,19.9,0,0,0,3.5,1.5c.356-.712.714-1.448,1.063-2.186l-2.371-.952a.846.846,0,1,1,.626-1.572l2.464.986c.322-.707.647-1.419.942-2.138a21.033,21.033,0,0,1-3.214-1.522.859.859,0,0,1-.24-1.169.846.846,0,0,1,1.173-.255,25.828,25.828,0,0,0,3.708,1.7.842.842,0,0,1,.473,1.1c-1.02,2.57-2.238,5.057-3.407,7.382a.856.856,0,0,1-.952.443,12.772,12.772,0,0,1-2.022-.633c-.788-.313-1.566-.7-2.491-1.161a.848.848,0,0,1,.75-1.52" transform="translate(-819.4 -351.921)"/>
        <path id="Trazado_1279024" data-name="Trazado 1279024" d="M852.367,448.756a5.956,5.956,0,0,0,1.241.108c.688-.062,1-.257,1.051-.406.075-.183-.068-.594-.467-1.007a3.049,3.049,0,0,0-3.073-.839.843.843,0,1,1-.541-1.6,4.7,4.7,0,0,1,4.831,1.255,2.731,2.731,0,0,1,.849,2.772c-.221.6-.842,1.359-2.491,1.513a7.26,7.26,0,0,1-1.664-.13c-1.808-.274-2.621-.233-2.977.637-.036.144-.178.568.5,1.113a3.654,3.654,0,0,0,3.116.7.846.846,0,0,1,.8,1.489,4.6,4.6,0,0,1-3.64-.1,5.136,5.136,0,0,1-1.358-.781,2.687,2.687,0,0,1-1.015-2.986c.928-2.34,3.376-1.97,4.833-1.746" transform="translate(-812.302 -332.517)"/>
        <path id="Trazado_1279022" data-name="Trazado 1279022" d="M875.572,433.768a.841.841,0,0,1,.733.943c-.111.883-.272,1.83-.442,2.8-.149.8-.284,1.609-.4,2.433a17.88,17.88,0,0,0,2.33-2.662.839.839,0,0,1,1.5.659,11.177,11.177,0,0,0-.1,3.522c.038-.038.067-.084.1-.123a18.627,18.627,0,0,0,2.667-4.121.908.908,0,0,1,1.118-.44.849.849,0,0,1,.431,1.118,19.809,19.809,0,0,1-2.883,4.494c-.418.534-.818,1.039-1.156,1.537a.84.84,0,0,1-.823.363.821.821,0,0,1-.69-.587,12.461,12.461,0,0,1-.546-3.308,12.328,12.328,0,0,1-2.563,2.116.869.869,0,0,1-.755.055c-.038-.017-.08-.036-.125-.062a.856.856,0,0,1-.4-.777,44.043,44.043,0,0,1,.62-4.521c.166-.93.327-1.832.431-2.693a.856.856,0,0,1,.952-.743" transform="translate(-793.677 -340.363)"/>
        <path id="Trazado_1279025" data-name="Trazado 1279025" d="M878.049,422.893a.823.823,0,0,1-.527-.036.865.865,0,0,1-.505-.563.851.851,0,0,1,.6-1.043,10.922,10.922,0,0,0,2.318-.844.855.855,0,0,1,1.118.442.844.844,0,0,1-.449,1.111,13.592,13.592,0,0,1-2.551.933" transform="translate(-791.243 -349.921)"/>
        <path id="Trazado_1279030" data-name="Trazado 1279030" d="M852.993,411.776a.878.878,0,0,1-.392-.313c-.223-.332-.4-.645-.579-.964-.154-.272-.315-.546-.517-.844a.837.837,0,0,1,.216-1.174.865.865,0,0,1,1.186.217,10.1,10.1,0,0,1,.584.972c.159.271.313.546.517.841a.848.848,0,0,1-.223,1.178.828.828,0,0,1-.793.087" transform="translate(-809.494 -358.468)"/>
        <path id="Trazado_1279023" data-name="Trazado 1279023" d="M866.765,448.695a14.836,14.836,0,0,0,.5,1.469c.192.538.4,1.073.534,1.613a.829.829,0,0,1-.594,1.036.862.862,0,0,1-.536-.024.823.823,0,0,1-.5-.579c-.137-.476-.32-.972-.505-1.467-.2-.531-.394-1.072-.543-1.606a.859.859,0,0,1,.611-1.039.847.847,0,0,1,1.032.6" transform="translate(-799.708 -330.177)"/>
        <path id="Trazado_1279033" data-name="Trazado 1279033" d="M838.66,436.655a6.748,6.748,0,0,0,1.1-.214.852.852,0,0,1,1.113.443.841.841,0,0,1-.449,1.113,6.364,6.364,0,0,1-1.52.33,7.63,7.63,0,0,0-1.1.228.9.9,0,0,1-.654,0,.854.854,0,0,1-.01-1.568,7.251,7.251,0,0,1,1.524-.332" transform="translate(-819.981 -338.504)"/>
      </g>
    </g>
  </g>
</svg>
