<svg xmlns="http://www.w3.org/2000/svg" xmlns:xlink="http://www.w3.org/1999/xlink" width="21" height="27" viewBox="0 0 21 27">
  <defs>
    <clipPath id="clip-path">
      <rect id="Rectángulo_456682" data-name="Rectángulo 456682" width="21" height="27" transform="translate(0.371 -0.019)" fill="none" stroke="#366400" stroke-width="1"/>
    </clipPath>
  </defs>
  <g id="Grupo_1207591" data-name="Grupo 1207591" transform="translate(-214.711 -1391)">
    <g id="Grupo_1206507" data-name="Grupo 1206507" transform="translate(216.34 1392.976)">
      <g id="Grupo_1206506" data-name="Grupo 1206506" transform="translate(-2 -1.956)" clip-path="url(#clip-path)">
        <path id="Trazado_1294861" data-name="Trazado 1294861" d="M95,141.471a.454.454,0,0,0-.693-.011l-1.326,1.516L91,140.553a.454.454,0,0,0-.693-.011c-.832.95-2.967,3.391-4.577,5.238A5.748,5.748,0,0,0,96.5,143.294Z" transform="translate(-79.781 -132.016)" fill="none" stroke="#366400" stroke-linecap="round" stroke-linejoin="round" stroke-width="1"/>
        <line id="Línea_3673" data-name="Línea 3673" x1="1.159" y2="1.416" transform="translate(12.045 10.959)" fill="none" stroke="#366400" stroke-linecap="round" stroke-linejoin="round" stroke-width="1"/>
        <path id="Trazado_1294862" data-name="Trazado 1294862" d="M70.7,184.6c.617-.708,1.311-1.5,1.979-2.268l-.953-1.162a.454.454,0,0,0-.693-.011c-.127.145-.579.646-1.029,1.146A5.71,5.71,0,0,0,70.7,184.6Z" transform="translate(-64.758 -170.841)" fill="none" stroke="#366400" stroke-linecap="round" stroke-linejoin="round" stroke-width="1"/>
        <path id="Trazado_1294863" data-name="Trazado 1294863" d="M74.522,70.726a5.747,5.747,0,1,0,1.548,0" transform="translate(-64.318 -65.436)" fill="none" stroke="#366400" stroke-linecap="round" stroke-linejoin="round" stroke-width="1"/>
        <path id="Trazado_1294864" data-name="Trazado 1294864" d="M23.286,20.342a8.492,8.492,0,1,0-11.512,3.02,2.5,2.5,0,0,1,1.022,1.1l2,4.255a1.322,1.322,0,0,0,2.392,0l2-4.255a2.468,2.468,0,0,1,1.007-1.1,8.531,8.531,0,0,0,2.178-1.778" transform="translate(-5.014 -5.006)" fill="none" stroke="#366400" stroke-linecap="round" stroke-linejoin="round" stroke-width="1"/>
      </g>
    </g>
  </g>
</svg>
