<svg xmlns="http://www.w3.org/2000/svg" xmlns:xlink="http://www.w3.org/1999/xlink" width="25.326" height="21.985" viewBox="0 0 25.326 21.985">
  <defs>
    <clipPath id="clip-path">
      <rect id="Rectángulo_456754" data-name="Rectángulo 456754" width="25.326" height="21.985" fill="#bdf783"/>
    </clipPath>
  </defs>
  <g id="Grupo_1206610" data-name="Grupo 1206610" clip-path="url(#clip-path)">
    <path id="Trazado_1295830" data-name="Trazado 1295830" d="M14.471,6.5c-1.728-.917-3.462-1.823-5.181-2.757A9.583,9.583,0,0,1,7.635,2.679a1.417,1.417,0,0,1-.367-1.8A1.452,1.452,0,0,1,8.9.024a5.949,5.949,0,0,1,1.652.557q6.408,3.146,12.794,6.336a5.838,5.838,0,0,1,1.3.809,1.67,1.67,0,0,1,.2,2.53,8.276,8.276,0,0,1-1.29,1.188q-5.992,4.825-12,9.628a5.253,5.253,0,0,1-1.3.795A1.558,1.558,0,0,1,8.326,21.2a1.578,1.578,0,0,1-.092-1.853,4.491,4.491,0,0,1,1.255-1.211c2.63-2.108,5.27-4.2,7.888-6.326a5.08,5.08,0,0,0,1.7-1.715,10.553,10.553,0,0,0-3.921.219A52.6,52.6,0,0,0,4.328,13.886c-.6.262-1.216.51-1.81.794A1.62,1.62,0,0,1,.254,14a1.777,1.777,0,0,1,.7-2.46,10.148,10.148,0,0,1,1.389-.652A98.24,98.24,0,0,1,14.471,6.5" transform="translate(0 0)" fill="#bdf783"/>
  </g>
</svg>
